G04 #@! TF.GenerationSoftware,KiCad,Pcbnew,8.0.1*
G04 #@! TF.CreationDate,2024-03-27T20:13:13+01:00*
G04 #@! TF.ProjectId,ETH1HMSR-SMS,45544831-484d-4535-922d-534d532e6b69,rev?*
G04 #@! TF.SameCoordinates,Original*
G04 #@! TF.FileFunction,Paste,Top*
G04 #@! TF.FilePolarity,Positive*
%FSLAX46Y46*%
G04 Gerber Fmt 4.6, Leading zero omitted, Abs format (unit mm)*
G04 Created by KiCad (PCBNEW 8.0.1) date 2024-03-27 20:13:13*
%MOMM*%
%LPD*%
G01*
G04 APERTURE LIST*
G04 Aperture macros list*
%AMRoundRect*
0 Rectangle with rounded corners*
0 $1 Rounding radius*
0 $2 $3 $4 $5 $6 $7 $8 $9 X,Y pos of 4 corners*
0 Add a 4 corners polygon primitive as box body*
4,1,4,$2,$3,$4,$5,$6,$7,$8,$9,$2,$3,0*
0 Add four circle primitives for the rounded corners*
1,1,$1+$1,$2,$3*
1,1,$1+$1,$4,$5*
1,1,$1+$1,$6,$7*
1,1,$1+$1,$8,$9*
0 Add four rect primitives between the rounded corners*
20,1,$1+$1,$2,$3,$4,$5,0*
20,1,$1+$1,$4,$5,$6,$7,0*
20,1,$1+$1,$6,$7,$8,$9,0*
20,1,$1+$1,$8,$9,$2,$3,0*%
%AMOutline4P*
0 Free polygon, 4 corners , with rotation*
0 The origin of the aperture is its center*
0 number of corners: always 4*
0 $1 to $8 corner X, Y*
0 $9 Rotation angle, in degrees counterclockwise*
0 create outline with 4 corners*
4,1,4,$1,$2,$3,$4,$5,$6,$7,$8,$1,$2,$9*%
%AMFreePoly0*
4,1,25,0.266375,0.443630,0.297109,0.420047,0.420047,0.297109,0.458455,0.230584,0.463512,0.192176,0.463512,-0.192176,0.443630,-0.266375,0.420047,-0.297109,0.297109,-0.420047,0.230584,-0.458455,0.192176,-0.463512,-0.192176,-0.463512,-0.266375,-0.443630,-0.297109,-0.420047,-0.420047,-0.297109,-0.458455,-0.230584,-0.463512,-0.192176,-0.463512,0.192176,-0.443630,0.266375,-0.420047,0.297109,
-0.297109,0.420047,-0.230584,0.458455,-0.192176,0.463512,0.192176,0.463512,0.266375,0.443630,0.266375,0.443630,$1*%
G04 Aperture macros list end*
%ADD10RoundRect,0.150000X-0.587500X-0.150000X0.587500X-0.150000X0.587500X0.150000X-0.587500X0.150000X0*%
%ADD11RoundRect,0.100000X0.100000X-0.637500X0.100000X0.637500X-0.100000X0.637500X-0.100000X-0.637500X0*%
%ADD12RoundRect,0.237500X-0.237500X0.300000X-0.237500X-0.300000X0.237500X-0.300000X0.237500X0.300000X0*%
%ADD13RoundRect,0.250000X-0.350000X0.275000X-0.350000X-0.275000X0.350000X-0.275000X0.350000X0.275000X0*%
%ADD14R,1.100000X1.500000*%
%ADD15R,0.400000X0.900000*%
%ADD16RoundRect,0.250000X-0.650000X0.412500X-0.650000X-0.412500X0.650000X-0.412500X0.650000X0.412500X0*%
%ADD17RoundRect,0.150000X-0.150000X0.587500X-0.150000X-0.587500X0.150000X-0.587500X0.150000X0.587500X0*%
%ADD18RoundRect,0.250001X0.499999X0.924999X-0.499999X0.924999X-0.499999X-0.924999X0.499999X-0.924999X0*%
%ADD19RoundRect,0.237500X-0.250000X-0.237500X0.250000X-0.237500X0.250000X0.237500X-0.250000X0.237500X0*%
%ADD20RoundRect,0.150000X0.150000X-0.825000X0.150000X0.825000X-0.150000X0.825000X-0.150000X-0.825000X0*%
%ADD21RoundRect,0.237500X0.300000X0.237500X-0.300000X0.237500X-0.300000X-0.237500X0.300000X-0.237500X0*%
%ADD22R,2.000000X2.400000*%
%ADD23RoundRect,0.250000X0.350000X-0.275000X0.350000X0.275000X-0.350000X0.275000X-0.350000X-0.275000X0*%
%ADD24RoundRect,0.237500X0.250000X0.237500X-0.250000X0.237500X-0.250000X-0.237500X0.250000X-0.237500X0*%
%ADD25RoundRect,0.075000X-0.075000X0.725000X-0.075000X-0.725000X0.075000X-0.725000X0.075000X0.725000X0*%
%ADD26RoundRect,0.075000X-0.725000X0.075000X-0.725000X-0.075000X0.725000X-0.075000X0.725000X0.075000X0*%
%ADD27R,0.400000X1.200000*%
%ADD28RoundRect,0.237500X-0.237500X0.250000X-0.237500X-0.250000X0.237500X-0.250000X0.237500X0.250000X0*%
%ADD29FreePoly0,270.000000*%
%ADD30RoundRect,0.062500X-0.062500X0.375000X-0.062500X-0.375000X0.062500X-0.375000X0.062500X0.375000X0*%
%ADD31RoundRect,0.062500X-0.375000X0.062500X-0.375000X-0.062500X0.375000X-0.062500X0.375000X0.062500X0*%
%ADD32RoundRect,0.375000X0.875000X-0.375000X0.875000X0.375000X-0.875000X0.375000X-0.875000X-0.375000X0*%
%ADD33RoundRect,0.150000X0.512500X0.150000X-0.512500X0.150000X-0.512500X-0.150000X0.512500X-0.150000X0*%
%ADD34Outline4P,-1.270000X-1.350000X1.270000X-1.350000X1.270000X1.350000X-1.270000X1.350000X270.000000*%
%ADD35Outline4P,-0.380000X-1.100000X0.380000X-1.100000X0.380000X1.100000X-0.380000X1.100000X270.000000*%
%ADD36RoundRect,0.150000X0.150000X-0.587500X0.150000X0.587500X-0.150000X0.587500X-0.150000X-0.587500X0*%
%ADD37RoundRect,0.237500X0.237500X-0.250000X0.237500X0.250000X-0.237500X0.250000X-0.237500X-0.250000X0*%
%ADD38R,0.900000X0.400000*%
%ADD39RoundRect,0.250001X-0.924999X0.499999X-0.924999X-0.499999X0.924999X-0.499999X0.924999X0.499999X0*%
%ADD40RoundRect,0.100000X-0.712500X-0.100000X0.712500X-0.100000X0.712500X0.100000X-0.712500X0.100000X0*%
%ADD41RoundRect,0.162500X0.162500X-0.837500X0.162500X0.837500X-0.162500X0.837500X-0.162500X-0.837500X0*%
G04 APERTURE END LIST*
D10*
G04 #@! TO.C,RN502*
X132920500Y-89474000D03*
X132920500Y-91374000D03*
X134795500Y-90424000D03*
G04 #@! TD*
D11*
G04 #@! TO.C,U503*
X137806000Y-81856500D03*
X138456000Y-81856500D03*
X139106000Y-81856500D03*
X139756000Y-81856500D03*
X140406000Y-81856500D03*
X141056000Y-81856500D03*
X141706000Y-81856500D03*
X142356000Y-81856500D03*
X142356000Y-76131500D03*
X141706000Y-76131500D03*
X141056000Y-76131500D03*
X140406000Y-76131500D03*
X139756000Y-76131500D03*
X139106000Y-76131500D03*
X138456000Y-76131500D03*
X137806000Y-76131500D03*
G04 #@! TD*
D12*
G04 #@! TO.C,C512*
X139700000Y-68098500D03*
X139700000Y-69823500D03*
G04 #@! TD*
D13*
G04 #@! TO.C,FB301*
X170688000Y-82035000D03*
X170688000Y-84335000D03*
G04 #@! TD*
D14*
G04 #@! TO.C,D401*
X137680000Y-97893000D03*
X137680000Y-94893000D03*
X139180000Y-94893000D03*
X139180000Y-97893000D03*
G04 #@! TD*
D15*
G04 #@! TO.C,RN401*
X150044000Y-92241000D03*
X149244000Y-92241000D03*
X148444000Y-92241000D03*
X147644000Y-92241000D03*
X147644000Y-93941000D03*
X148444000Y-93941000D03*
X149244000Y-93941000D03*
X150044000Y-93941000D03*
G04 #@! TD*
D16*
G04 #@! TO.C,C204*
X167259000Y-93052500D03*
X167259000Y-96177500D03*
G04 #@! TD*
D17*
G04 #@! TO.C,Q201*
X187513000Y-95074500D03*
X185613000Y-95074500D03*
X186563000Y-96949500D03*
G04 #@! TD*
D12*
G04 #@! TO.C,C504*
X129159000Y-85751500D03*
X129159000Y-87476500D03*
G04 #@! TD*
D18*
G04 #@! TO.C,C506*
X131673000Y-96393000D03*
X128423000Y-96393000D03*
G04 #@! TD*
D19*
G04 #@! TO.C,R310*
X163933500Y-78867000D03*
X165758500Y-78867000D03*
G04 #@! TD*
D20*
G04 #@! TO.C,U504*
X131191000Y-82104000D03*
X132461000Y-82104000D03*
X133731000Y-82104000D03*
X135001000Y-82104000D03*
X135001000Y-77154000D03*
X133731000Y-77154000D03*
X132461000Y-77154000D03*
X131191000Y-77154000D03*
G04 #@! TD*
D21*
G04 #@! TO.C,C303*
X165708500Y-72644000D03*
X163983500Y-72644000D03*
G04 #@! TD*
D22*
G04 #@! TO.C,Y301*
X171545000Y-69215000D03*
X167545000Y-69215000D03*
G04 #@! TD*
D23*
G04 #@! TO.C,FB501*
X134620000Y-97543000D03*
X134620000Y-95243000D03*
G04 #@! TD*
D24*
G04 #@! TO.C,R203*
X172616500Y-98171000D03*
X170791500Y-98171000D03*
G04 #@! TD*
D25*
G04 #@! TO.C,U403*
X158781000Y-74875000D03*
X158281000Y-74875000D03*
X157781000Y-74875000D03*
X157281000Y-74875000D03*
X156781000Y-74875000D03*
X156281000Y-74875000D03*
X155781000Y-74875000D03*
X155281000Y-74875000D03*
X154781000Y-74875000D03*
X154281000Y-74875000D03*
X153781000Y-74875000D03*
X153281000Y-74875000D03*
X152781000Y-74875000D03*
X152281000Y-74875000D03*
X151781000Y-74875000D03*
X151281000Y-74875000D03*
X150781000Y-74875000D03*
X150281000Y-74875000D03*
X149781000Y-74875000D03*
X149281000Y-74875000D03*
X148781000Y-74875000D03*
X148281000Y-74875000D03*
X147781000Y-74875000D03*
X147281000Y-74875000D03*
X146781000Y-74875000D03*
D26*
X145106000Y-76550000D03*
X145106000Y-77050000D03*
X145106000Y-77550000D03*
X145106000Y-78050000D03*
X145106000Y-78550000D03*
X145106000Y-79050000D03*
X145106000Y-79550000D03*
X145106000Y-80050000D03*
X145106000Y-80550000D03*
X145106000Y-81050000D03*
X145106000Y-81550000D03*
X145106000Y-82050000D03*
X145106000Y-82550000D03*
X145106000Y-83050000D03*
X145106000Y-83550000D03*
X145106000Y-84050000D03*
X145106000Y-84550000D03*
X145106000Y-85050000D03*
X145106000Y-85550000D03*
X145106000Y-86050000D03*
X145106000Y-86550000D03*
X145106000Y-87050000D03*
X145106000Y-87550000D03*
X145106000Y-88050000D03*
X145106000Y-88550000D03*
D25*
X146781000Y-90225000D03*
X147281000Y-90225000D03*
X147781000Y-90225000D03*
X148281000Y-90225000D03*
X148781000Y-90225000D03*
X149281000Y-90225000D03*
X149781000Y-90225000D03*
X150281000Y-90225000D03*
X150781000Y-90225000D03*
X151281000Y-90225000D03*
X151781000Y-90225000D03*
X152281000Y-90225000D03*
X152781000Y-90225000D03*
X153281000Y-90225000D03*
X153781000Y-90225000D03*
X154281000Y-90225000D03*
X154781000Y-90225000D03*
X155281000Y-90225000D03*
X155781000Y-90225000D03*
X156281000Y-90225000D03*
X156781000Y-90225000D03*
X157281000Y-90225000D03*
X157781000Y-90225000D03*
X158281000Y-90225000D03*
X158781000Y-90225000D03*
D26*
X160456000Y-88550000D03*
X160456000Y-88050000D03*
X160456000Y-87550000D03*
X160456000Y-87050000D03*
X160456000Y-86550000D03*
X160456000Y-86050000D03*
X160456000Y-85550000D03*
X160456000Y-85050000D03*
X160456000Y-84550000D03*
X160456000Y-84050000D03*
X160456000Y-83550000D03*
X160456000Y-83050000D03*
X160456000Y-82550000D03*
X160456000Y-82050000D03*
X160456000Y-81550000D03*
X160456000Y-81050000D03*
X160456000Y-80550000D03*
X160456000Y-80050000D03*
X160456000Y-79550000D03*
X160456000Y-79050000D03*
X160456000Y-78550000D03*
X160456000Y-78050000D03*
X160456000Y-77550000D03*
X160456000Y-77050000D03*
X160456000Y-76550000D03*
G04 #@! TD*
D27*
G04 #@! TO.C,U502*
X137858500Y-91119000D03*
X138493500Y-91119000D03*
X139128500Y-91119000D03*
X139763500Y-91119000D03*
X140398500Y-91119000D03*
X141033500Y-91119000D03*
X141668500Y-91119000D03*
X142303500Y-91119000D03*
X142303500Y-85919000D03*
X141668500Y-85919000D03*
X141033500Y-85919000D03*
X140398500Y-85919000D03*
X139763500Y-85919000D03*
X139128500Y-85919000D03*
X138493500Y-85919000D03*
X137858500Y-85919000D03*
G04 #@! TD*
D28*
G04 #@! TO.C,R408*
X155956000Y-70842500D03*
X155956000Y-72667500D03*
G04 #@! TD*
D10*
G04 #@! TO.C,D501*
X139905500Y-71948000D03*
X139905500Y-73848000D03*
X141780500Y-72898000D03*
G04 #@! TD*
D29*
G04 #@! TO.C,U301*
X170623000Y-75503000D03*
X169483000Y-75503000D03*
X170623000Y-76643000D03*
X169483000Y-76643000D03*
D30*
X171303000Y-74135500D03*
X170803000Y-74135500D03*
X170303000Y-74135500D03*
X169803000Y-74135500D03*
X169303000Y-74135500D03*
X168803000Y-74135500D03*
D31*
X168115500Y-74823000D03*
X168115500Y-75323000D03*
X168115500Y-75823000D03*
X168115500Y-76323000D03*
X168115500Y-76823000D03*
X168115500Y-77323000D03*
D30*
X168803000Y-78010500D03*
X169303000Y-78010500D03*
X169803000Y-78010500D03*
X170303000Y-78010500D03*
X170803000Y-78010500D03*
X171303000Y-78010500D03*
D31*
X171990500Y-77323000D03*
X171990500Y-76823000D03*
X171990500Y-76323000D03*
X171990500Y-75823000D03*
X171990500Y-75323000D03*
X171990500Y-74823000D03*
G04 #@! TD*
D28*
G04 #@! TO.C,R407*
X151257000Y-70842500D03*
X151257000Y-72667500D03*
G04 #@! TD*
D32*
G04 #@! TO.C,L201*
X171831000Y-90369000D03*
X171831000Y-86669000D03*
G04 #@! TD*
D28*
G04 #@! TO.C,R201*
X179578000Y-95099500D03*
X179578000Y-96924500D03*
G04 #@! TD*
D33*
G04 #@! TO.C,U202*
X173095500Y-95438000D03*
X173095500Y-94488000D03*
X173095500Y-93538000D03*
X170820500Y-93538000D03*
X170820500Y-95438000D03*
G04 #@! TD*
D34*
G04 #@! TO.C,U501*
X115950000Y-78440000D03*
X115950000Y-86580000D03*
D35*
X126380000Y-86945000D03*
X126380000Y-85675000D03*
X126380000Y-84405000D03*
X126380000Y-83135000D03*
X126380000Y-81865000D03*
X126380000Y-80595000D03*
X126380000Y-79325000D03*
X126380000Y-78055000D03*
G04 #@! TD*
D36*
G04 #@! TO.C,Q202*
X182057000Y-96949500D03*
X183957000Y-96949500D03*
X183007000Y-95074500D03*
G04 #@! TD*
D37*
G04 #@! TO.C,R501*
X137160000Y-73810500D03*
X137160000Y-71985500D03*
G04 #@! TD*
D10*
G04 #@! TO.C,RN501*
X132920500Y-84775000D03*
X132920500Y-86675000D03*
X134795500Y-85725000D03*
G04 #@! TD*
D38*
G04 #@! TO.C,RN302*
X163996000Y-74873000D03*
X163996000Y-75673000D03*
X163996000Y-76473000D03*
X163996000Y-77273000D03*
X165696000Y-77273000D03*
X165696000Y-76473000D03*
X165696000Y-75673000D03*
X165696000Y-74873000D03*
G04 #@! TD*
D19*
G04 #@! TO.C,R506*
X132183500Y-74803000D03*
X134008500Y-74803000D03*
G04 #@! TD*
D39*
G04 #@! TO.C,C203*
X176784000Y-95087000D03*
X176784000Y-98337000D03*
G04 #@! TD*
D40*
G04 #@! TO.C,U401*
X151430500Y-67224000D03*
X151430500Y-67874000D03*
X151430500Y-68524000D03*
X151430500Y-69174000D03*
X155655500Y-69174000D03*
X155655500Y-68524000D03*
X155655500Y-67874000D03*
X155655500Y-67224000D03*
G04 #@! TD*
D41*
G04 #@! TO.C,U402*
X158435000Y-71179000D03*
X159385000Y-71179000D03*
X160335000Y-71179000D03*
X160335000Y-67759000D03*
X158435000Y-67759000D03*
G04 #@! TD*
D24*
G04 #@! TO.C,R204*
X169187500Y-98171000D03*
X167362500Y-98171000D03*
G04 #@! TD*
D37*
G04 #@! TO.C,R406*
X153670000Y-72667500D03*
X153670000Y-70842500D03*
G04 #@! TD*
D39*
G04 #@! TO.C,C205*
X167259000Y-86767000D03*
X167259000Y-90017000D03*
G04 #@! TD*
D24*
G04 #@! TO.C,R511*
X140739500Y-83947000D03*
X138914500Y-83947000D03*
G04 #@! TD*
D37*
G04 #@! TO.C,R516*
X141986000Y-69873500D03*
X141986000Y-68048500D03*
G04 #@! TD*
M02*
