%TF.GenerationSoftware,KiCad,Pcbnew,8.0.2*%
%TF.CreationDate,2024-07-12T07:55:06+02:00*%
%TF.ProjectId,ETH1HMSR-SMS,45544831-484d-4535-922d-534d532e6b69,rev?*%
%TF.SameCoordinates,Original*%
%TF.FileFunction,Drillmap*%
%TF.FilePolarity,Positive*%
%FSLAX45Y45*%
G04 Gerber Fmt 4.5, Leading zero omitted, Abs format (unit mm)*
G04 Created by KiCad (PCBNEW 8.0.2) date 2024-07-12 07:55:06*
%MOMM*%
%LPD*%
G01*
G04 APERTURE LIST*
%ADD10C,0.100000*%
%ADD11C,0.200000*%
%ADD12C,0.160000*%
%ADD13C,0.320000*%
%ADD14C,0.325000*%
G04 APERTURE END LIST*
D10*
X12300000Y-9248400D02*
X12300000Y-7248900D01*
X11950000Y-7248900D02*
X11950000Y-9248400D01*
X10000000Y-6000000D02*
X20000000Y-6000000D01*
X20000000Y-10500000D01*
X10000000Y-10500000D01*
X10000000Y-6000000D01*
X11950000Y-7248900D02*
G75*
G02*
X12300000Y-7248900I175000J0D01*
G01*
X12300000Y-9248400D02*
G75*
G02*
X11950000Y-9248400I-175000J0D01*
G01*
D11*
D12*
X10087000Y-8170000D02*
X10247000Y-8330000D01*
X10247000Y-8170000D02*
X10087000Y-8330000D01*
X11137000Y-8170000D02*
X11297000Y-8330000D01*
X11297000Y-8170000D02*
X11137000Y-8330000D01*
D13*
X10510000Y-6350000D02*
G75*
G02*
X10190000Y-6350000I-160000J0D01*
G01*
X10190000Y-6350000D02*
G75*
G02*
X10510000Y-6350000I160000J0D01*
G01*
X10510000Y-10150000D02*
G75*
G02*
X10190000Y-10150000I-160000J0D01*
G01*
X10190000Y-10150000D02*
G75*
G02*
X10510000Y-10150000I160000J0D01*
G01*
D14*
X18869000Y-6870500D02*
X18869000Y-7195500D01*
X18706500Y-7033000D02*
X19031500Y-7033000D01*
X18869000Y-8013500D02*
X18869000Y-8338500D01*
X18706500Y-8176000D02*
X19031500Y-8176000D01*
D11*
X10255777Y-10816484D02*
X10255777Y-10616484D01*
X10255777Y-10616484D02*
X10303396Y-10616484D01*
X10303396Y-10616484D02*
X10331967Y-10626008D01*
X10331967Y-10626008D02*
X10351015Y-10645055D01*
X10351015Y-10645055D02*
X10360539Y-10664103D01*
X10360539Y-10664103D02*
X10370063Y-10702198D01*
X10370063Y-10702198D02*
X10370063Y-10730770D01*
X10370063Y-10730770D02*
X10360539Y-10768865D01*
X10360539Y-10768865D02*
X10351015Y-10787912D01*
X10351015Y-10787912D02*
X10331967Y-10806960D01*
X10331967Y-10806960D02*
X10303396Y-10816484D01*
X10303396Y-10816484D02*
X10255777Y-10816484D01*
X10455777Y-10816484D02*
X10455777Y-10683150D01*
X10455777Y-10721246D02*
X10465301Y-10702198D01*
X10465301Y-10702198D02*
X10474824Y-10692674D01*
X10474824Y-10692674D02*
X10493872Y-10683150D01*
X10493872Y-10683150D02*
X10512920Y-10683150D01*
X10579586Y-10816484D02*
X10579586Y-10683150D01*
X10579586Y-10616484D02*
X10570063Y-10626008D01*
X10570063Y-10626008D02*
X10579586Y-10635531D01*
X10579586Y-10635531D02*
X10589110Y-10626008D01*
X10589110Y-10626008D02*
X10579586Y-10616484D01*
X10579586Y-10616484D02*
X10579586Y-10635531D01*
X10703396Y-10816484D02*
X10684348Y-10806960D01*
X10684348Y-10806960D02*
X10674824Y-10787912D01*
X10674824Y-10787912D02*
X10674824Y-10616484D01*
X10808158Y-10816484D02*
X10789110Y-10806960D01*
X10789110Y-10806960D02*
X10779586Y-10787912D01*
X10779586Y-10787912D02*
X10779586Y-10616484D01*
X11036729Y-10816484D02*
X11036729Y-10616484D01*
X11036729Y-10616484D02*
X11103396Y-10759341D01*
X11103396Y-10759341D02*
X11170063Y-10616484D01*
X11170063Y-10616484D02*
X11170063Y-10816484D01*
X11351015Y-10816484D02*
X11351015Y-10711722D01*
X11351015Y-10711722D02*
X11341491Y-10692674D01*
X11341491Y-10692674D02*
X11322443Y-10683150D01*
X11322443Y-10683150D02*
X11284348Y-10683150D01*
X11284348Y-10683150D02*
X11265301Y-10692674D01*
X11351015Y-10806960D02*
X11331967Y-10816484D01*
X11331967Y-10816484D02*
X11284348Y-10816484D01*
X11284348Y-10816484D02*
X11265301Y-10806960D01*
X11265301Y-10806960D02*
X11255777Y-10787912D01*
X11255777Y-10787912D02*
X11255777Y-10768865D01*
X11255777Y-10768865D02*
X11265301Y-10749817D01*
X11265301Y-10749817D02*
X11284348Y-10740293D01*
X11284348Y-10740293D02*
X11331967Y-10740293D01*
X11331967Y-10740293D02*
X11351015Y-10730770D01*
X11446253Y-10683150D02*
X11446253Y-10883150D01*
X11446253Y-10692674D02*
X11465301Y-10683150D01*
X11465301Y-10683150D02*
X11503396Y-10683150D01*
X11503396Y-10683150D02*
X11522443Y-10692674D01*
X11522443Y-10692674D02*
X11531967Y-10702198D01*
X11531967Y-10702198D02*
X11541491Y-10721246D01*
X11541491Y-10721246D02*
X11541491Y-10778389D01*
X11541491Y-10778389D02*
X11531967Y-10797436D01*
X11531967Y-10797436D02*
X11522443Y-10806960D01*
X11522443Y-10806960D02*
X11503396Y-10816484D01*
X11503396Y-10816484D02*
X11465301Y-10816484D01*
X11465301Y-10816484D02*
X11446253Y-10806960D01*
X11627205Y-10797436D02*
X11636729Y-10806960D01*
X11636729Y-10806960D02*
X11627205Y-10816484D01*
X11627205Y-10816484D02*
X11617682Y-10806960D01*
X11617682Y-10806960D02*
X11627205Y-10797436D01*
X11627205Y-10797436D02*
X11627205Y-10816484D01*
X11627205Y-10692674D02*
X11636729Y-10702198D01*
X11636729Y-10702198D02*
X11627205Y-10711722D01*
X11627205Y-10711722D02*
X11617682Y-10702198D01*
X11617682Y-10702198D02*
X11627205Y-10692674D01*
X11627205Y-10692674D02*
X11627205Y-10711722D01*
D12*
X9835000Y-11065000D02*
X9995000Y-11225000D01*
X9995000Y-11065000D02*
X9835000Y-11225000D01*
D11*
X10360539Y-11236484D02*
X10246253Y-11236484D01*
X10303396Y-11236484D02*
X10303396Y-11036484D01*
X10303396Y-11036484D02*
X10284348Y-11065055D01*
X10284348Y-11065055D02*
X10265301Y-11084103D01*
X10265301Y-11084103D02*
X10246253Y-11093627D01*
X10446253Y-11217436D02*
X10455777Y-11226960D01*
X10455777Y-11226960D02*
X10446253Y-11236484D01*
X10446253Y-11236484D02*
X10436729Y-11226960D01*
X10436729Y-11226960D02*
X10446253Y-11217436D01*
X10446253Y-11217436D02*
X10446253Y-11236484D01*
X10627205Y-11036484D02*
X10589110Y-11036484D01*
X10589110Y-11036484D02*
X10570063Y-11046008D01*
X10570063Y-11046008D02*
X10560539Y-11055531D01*
X10560539Y-11055531D02*
X10541491Y-11084103D01*
X10541491Y-11084103D02*
X10531967Y-11122198D01*
X10531967Y-11122198D02*
X10531967Y-11198388D01*
X10531967Y-11198388D02*
X10541491Y-11217436D01*
X10541491Y-11217436D02*
X10551015Y-11226960D01*
X10551015Y-11226960D02*
X10570063Y-11236484D01*
X10570063Y-11236484D02*
X10608158Y-11236484D01*
X10608158Y-11236484D02*
X10627205Y-11226960D01*
X10627205Y-11226960D02*
X10636729Y-11217436D01*
X10636729Y-11217436D02*
X10646253Y-11198388D01*
X10646253Y-11198388D02*
X10646253Y-11150770D01*
X10646253Y-11150770D02*
X10636729Y-11131722D01*
X10636729Y-11131722D02*
X10627205Y-11122198D01*
X10627205Y-11122198D02*
X10608158Y-11112674D01*
X10608158Y-11112674D02*
X10570063Y-11112674D01*
X10570063Y-11112674D02*
X10551015Y-11122198D01*
X10551015Y-11122198D02*
X10541491Y-11131722D01*
X10541491Y-11131722D02*
X10531967Y-11150770D01*
X10770063Y-11036484D02*
X10789110Y-11036484D01*
X10789110Y-11036484D02*
X10808158Y-11046008D01*
X10808158Y-11046008D02*
X10817682Y-11055531D01*
X10817682Y-11055531D02*
X10827205Y-11074579D01*
X10827205Y-11074579D02*
X10836729Y-11112674D01*
X10836729Y-11112674D02*
X10836729Y-11160293D01*
X10836729Y-11160293D02*
X10827205Y-11198388D01*
X10827205Y-11198388D02*
X10817682Y-11217436D01*
X10817682Y-11217436D02*
X10808158Y-11226960D01*
X10808158Y-11226960D02*
X10789110Y-11236484D01*
X10789110Y-11236484D02*
X10770063Y-11236484D01*
X10770063Y-11236484D02*
X10751015Y-11226960D01*
X10751015Y-11226960D02*
X10741491Y-11217436D01*
X10741491Y-11217436D02*
X10731967Y-11198388D01*
X10731967Y-11198388D02*
X10722444Y-11160293D01*
X10722444Y-11160293D02*
X10722444Y-11112674D01*
X10722444Y-11112674D02*
X10731967Y-11074579D01*
X10731967Y-11074579D02*
X10741491Y-11055531D01*
X10741491Y-11055531D02*
X10751015Y-11046008D01*
X10751015Y-11046008D02*
X10770063Y-11036484D01*
X10960539Y-11036484D02*
X10979586Y-11036484D01*
X10979586Y-11036484D02*
X10998634Y-11046008D01*
X10998634Y-11046008D02*
X11008158Y-11055531D01*
X11008158Y-11055531D02*
X11017682Y-11074579D01*
X11017682Y-11074579D02*
X11027205Y-11112674D01*
X11027205Y-11112674D02*
X11027205Y-11160293D01*
X11027205Y-11160293D02*
X11017682Y-11198388D01*
X11017682Y-11198388D02*
X11008158Y-11217436D01*
X11008158Y-11217436D02*
X10998634Y-11226960D01*
X10998634Y-11226960D02*
X10979586Y-11236484D01*
X10979586Y-11236484D02*
X10960539Y-11236484D01*
X10960539Y-11236484D02*
X10941491Y-11226960D01*
X10941491Y-11226960D02*
X10931967Y-11217436D01*
X10931967Y-11217436D02*
X10922444Y-11198388D01*
X10922444Y-11198388D02*
X10912920Y-11160293D01*
X10912920Y-11160293D02*
X10912920Y-11112674D01*
X10912920Y-11112674D02*
X10922444Y-11074579D01*
X10922444Y-11074579D02*
X10931967Y-11055531D01*
X10931967Y-11055531D02*
X10941491Y-11046008D01*
X10941491Y-11046008D02*
X10960539Y-11036484D01*
X11112920Y-11236484D02*
X11112920Y-11103150D01*
X11112920Y-11122198D02*
X11122444Y-11112674D01*
X11122444Y-11112674D02*
X11141491Y-11103150D01*
X11141491Y-11103150D02*
X11170063Y-11103150D01*
X11170063Y-11103150D02*
X11189110Y-11112674D01*
X11189110Y-11112674D02*
X11198634Y-11131722D01*
X11198634Y-11131722D02*
X11198634Y-11236484D01*
X11198634Y-11131722D02*
X11208158Y-11112674D01*
X11208158Y-11112674D02*
X11227205Y-11103150D01*
X11227205Y-11103150D02*
X11255777Y-11103150D01*
X11255777Y-11103150D02*
X11274824Y-11112674D01*
X11274824Y-11112674D02*
X11284348Y-11131722D01*
X11284348Y-11131722D02*
X11284348Y-11236484D01*
X11379586Y-11236484D02*
X11379586Y-11103150D01*
X11379586Y-11122198D02*
X11389110Y-11112674D01*
X11389110Y-11112674D02*
X11408158Y-11103150D01*
X11408158Y-11103150D02*
X11436729Y-11103150D01*
X11436729Y-11103150D02*
X11455777Y-11112674D01*
X11455777Y-11112674D02*
X11465301Y-11131722D01*
X11465301Y-11131722D02*
X11465301Y-11236484D01*
X11465301Y-11131722D02*
X11474824Y-11112674D01*
X11474824Y-11112674D02*
X11493872Y-11103150D01*
X11493872Y-11103150D02*
X11522443Y-11103150D01*
X11522443Y-11103150D02*
X11541491Y-11112674D01*
X11541491Y-11112674D02*
X11551015Y-11131722D01*
X11551015Y-11131722D02*
X11551015Y-11236484D01*
X11941491Y-11026960D02*
X11770063Y-11284103D01*
X12198634Y-11036484D02*
X12217682Y-11036484D01*
X12217682Y-11036484D02*
X12236729Y-11046008D01*
X12236729Y-11046008D02*
X12246253Y-11055531D01*
X12246253Y-11055531D02*
X12255777Y-11074579D01*
X12255777Y-11074579D02*
X12265301Y-11112674D01*
X12265301Y-11112674D02*
X12265301Y-11160293D01*
X12265301Y-11160293D02*
X12255777Y-11198388D01*
X12255777Y-11198388D02*
X12246253Y-11217436D01*
X12246253Y-11217436D02*
X12236729Y-11226960D01*
X12236729Y-11226960D02*
X12217682Y-11236484D01*
X12217682Y-11236484D02*
X12198634Y-11236484D01*
X12198634Y-11236484D02*
X12179586Y-11226960D01*
X12179586Y-11226960D02*
X12170063Y-11217436D01*
X12170063Y-11217436D02*
X12160539Y-11198388D01*
X12160539Y-11198388D02*
X12151015Y-11160293D01*
X12151015Y-11160293D02*
X12151015Y-11112674D01*
X12151015Y-11112674D02*
X12160539Y-11074579D01*
X12160539Y-11074579D02*
X12170063Y-11055531D01*
X12170063Y-11055531D02*
X12179586Y-11046008D01*
X12179586Y-11046008D02*
X12198634Y-11036484D01*
X12351015Y-11217436D02*
X12360539Y-11226960D01*
X12360539Y-11226960D02*
X12351015Y-11236484D01*
X12351015Y-11236484D02*
X12341491Y-11226960D01*
X12341491Y-11226960D02*
X12351015Y-11217436D01*
X12351015Y-11217436D02*
X12351015Y-11236484D01*
X12484348Y-11036484D02*
X12503396Y-11036484D01*
X12503396Y-11036484D02*
X12522444Y-11046008D01*
X12522444Y-11046008D02*
X12531967Y-11055531D01*
X12531967Y-11055531D02*
X12541491Y-11074579D01*
X12541491Y-11074579D02*
X12551015Y-11112674D01*
X12551015Y-11112674D02*
X12551015Y-11160293D01*
X12551015Y-11160293D02*
X12541491Y-11198388D01*
X12541491Y-11198388D02*
X12531967Y-11217436D01*
X12531967Y-11217436D02*
X12522444Y-11226960D01*
X12522444Y-11226960D02*
X12503396Y-11236484D01*
X12503396Y-11236484D02*
X12484348Y-11236484D01*
X12484348Y-11236484D02*
X12465301Y-11226960D01*
X12465301Y-11226960D02*
X12455777Y-11217436D01*
X12455777Y-11217436D02*
X12446253Y-11198388D01*
X12446253Y-11198388D02*
X12436729Y-11160293D01*
X12436729Y-11160293D02*
X12436729Y-11112674D01*
X12436729Y-11112674D02*
X12446253Y-11074579D01*
X12446253Y-11074579D02*
X12455777Y-11055531D01*
X12455777Y-11055531D02*
X12465301Y-11046008D01*
X12465301Y-11046008D02*
X12484348Y-11036484D01*
X12722444Y-11036484D02*
X12684348Y-11036484D01*
X12684348Y-11036484D02*
X12665301Y-11046008D01*
X12665301Y-11046008D02*
X12655777Y-11055531D01*
X12655777Y-11055531D02*
X12636729Y-11084103D01*
X12636729Y-11084103D02*
X12627206Y-11122198D01*
X12627206Y-11122198D02*
X12627206Y-11198388D01*
X12627206Y-11198388D02*
X12636729Y-11217436D01*
X12636729Y-11217436D02*
X12646253Y-11226960D01*
X12646253Y-11226960D02*
X12665301Y-11236484D01*
X12665301Y-11236484D02*
X12703396Y-11236484D01*
X12703396Y-11236484D02*
X12722444Y-11226960D01*
X12722444Y-11226960D02*
X12731967Y-11217436D01*
X12731967Y-11217436D02*
X12741491Y-11198388D01*
X12741491Y-11198388D02*
X12741491Y-11150770D01*
X12741491Y-11150770D02*
X12731967Y-11131722D01*
X12731967Y-11131722D02*
X12722444Y-11122198D01*
X12722444Y-11122198D02*
X12703396Y-11112674D01*
X12703396Y-11112674D02*
X12665301Y-11112674D01*
X12665301Y-11112674D02*
X12646253Y-11122198D01*
X12646253Y-11122198D02*
X12636729Y-11131722D01*
X12636729Y-11131722D02*
X12627206Y-11150770D01*
X12808158Y-11036484D02*
X12931967Y-11036484D01*
X12931967Y-11036484D02*
X12865301Y-11112674D01*
X12865301Y-11112674D02*
X12893872Y-11112674D01*
X12893872Y-11112674D02*
X12912920Y-11122198D01*
X12912920Y-11122198D02*
X12922444Y-11131722D01*
X12922444Y-11131722D02*
X12931967Y-11150770D01*
X12931967Y-11150770D02*
X12931967Y-11198388D01*
X12931967Y-11198388D02*
X12922444Y-11217436D01*
X12922444Y-11217436D02*
X12912920Y-11226960D01*
X12912920Y-11226960D02*
X12893872Y-11236484D01*
X12893872Y-11236484D02*
X12836729Y-11236484D01*
X12836729Y-11236484D02*
X12817682Y-11226960D01*
X12817682Y-11226960D02*
X12808158Y-11217436D01*
X13055777Y-11036484D02*
X13074825Y-11036484D01*
X13074825Y-11036484D02*
X13093872Y-11046008D01*
X13093872Y-11046008D02*
X13103396Y-11055531D01*
X13103396Y-11055531D02*
X13112920Y-11074579D01*
X13112920Y-11074579D02*
X13122444Y-11112674D01*
X13122444Y-11112674D02*
X13122444Y-11160293D01*
X13122444Y-11160293D02*
X13112920Y-11198388D01*
X13112920Y-11198388D02*
X13103396Y-11217436D01*
X13103396Y-11217436D02*
X13093872Y-11226960D01*
X13093872Y-11226960D02*
X13074825Y-11236484D01*
X13074825Y-11236484D02*
X13055777Y-11236484D01*
X13055777Y-11236484D02*
X13036729Y-11226960D01*
X13036729Y-11226960D02*
X13027206Y-11217436D01*
X13027206Y-11217436D02*
X13017682Y-11198388D01*
X13017682Y-11198388D02*
X13008158Y-11160293D01*
X13008158Y-11160293D02*
X13008158Y-11112674D01*
X13008158Y-11112674D02*
X13017682Y-11074579D01*
X13017682Y-11074579D02*
X13027206Y-11055531D01*
X13027206Y-11055531D02*
X13036729Y-11046008D01*
X13036729Y-11046008D02*
X13055777Y-11036484D01*
X13198634Y-11036484D02*
X13198634Y-11074579D01*
X13274825Y-11036484D02*
X13274825Y-11074579D01*
X13570063Y-11312674D02*
X13560539Y-11303150D01*
X13560539Y-11303150D02*
X13541491Y-11274579D01*
X13541491Y-11274579D02*
X13531968Y-11255531D01*
X13531968Y-11255531D02*
X13522444Y-11226960D01*
X13522444Y-11226960D02*
X13512920Y-11179341D01*
X13512920Y-11179341D02*
X13512920Y-11141246D01*
X13512920Y-11141246D02*
X13522444Y-11093627D01*
X13522444Y-11093627D02*
X13531968Y-11065055D01*
X13531968Y-11065055D02*
X13541491Y-11046008D01*
X13541491Y-11046008D02*
X13560539Y-11017436D01*
X13560539Y-11017436D02*
X13570063Y-11007912D01*
X13636729Y-11055531D02*
X13646253Y-11046008D01*
X13646253Y-11046008D02*
X13665301Y-11036484D01*
X13665301Y-11036484D02*
X13712920Y-11036484D01*
X13712920Y-11036484D02*
X13731968Y-11046008D01*
X13731968Y-11046008D02*
X13741491Y-11055531D01*
X13741491Y-11055531D02*
X13751015Y-11074579D01*
X13751015Y-11074579D02*
X13751015Y-11093627D01*
X13751015Y-11093627D02*
X13741491Y-11122198D01*
X13741491Y-11122198D02*
X13627206Y-11236484D01*
X13627206Y-11236484D02*
X13751015Y-11236484D01*
X13989110Y-11236484D02*
X13989110Y-11036484D01*
X14074825Y-11236484D02*
X14074825Y-11131722D01*
X14074825Y-11131722D02*
X14065301Y-11112674D01*
X14065301Y-11112674D02*
X14046253Y-11103150D01*
X14046253Y-11103150D02*
X14017682Y-11103150D01*
X14017682Y-11103150D02*
X13998634Y-11112674D01*
X13998634Y-11112674D02*
X13989110Y-11122198D01*
X14198634Y-11236484D02*
X14179587Y-11226960D01*
X14179587Y-11226960D02*
X14170063Y-11217436D01*
X14170063Y-11217436D02*
X14160539Y-11198388D01*
X14160539Y-11198388D02*
X14160539Y-11141246D01*
X14160539Y-11141246D02*
X14170063Y-11122198D01*
X14170063Y-11122198D02*
X14179587Y-11112674D01*
X14179587Y-11112674D02*
X14198634Y-11103150D01*
X14198634Y-11103150D02*
X14227206Y-11103150D01*
X14227206Y-11103150D02*
X14246253Y-11112674D01*
X14246253Y-11112674D02*
X14255777Y-11122198D01*
X14255777Y-11122198D02*
X14265301Y-11141246D01*
X14265301Y-11141246D02*
X14265301Y-11198388D01*
X14265301Y-11198388D02*
X14255777Y-11217436D01*
X14255777Y-11217436D02*
X14246253Y-11226960D01*
X14246253Y-11226960D02*
X14227206Y-11236484D01*
X14227206Y-11236484D02*
X14198634Y-11236484D01*
X14379587Y-11236484D02*
X14360539Y-11226960D01*
X14360539Y-11226960D02*
X14351015Y-11207912D01*
X14351015Y-11207912D02*
X14351015Y-11036484D01*
X14531968Y-11226960D02*
X14512920Y-11236484D01*
X14512920Y-11236484D02*
X14474825Y-11236484D01*
X14474825Y-11236484D02*
X14455777Y-11226960D01*
X14455777Y-11226960D02*
X14446253Y-11207912D01*
X14446253Y-11207912D02*
X14446253Y-11131722D01*
X14446253Y-11131722D02*
X14455777Y-11112674D01*
X14455777Y-11112674D02*
X14474825Y-11103150D01*
X14474825Y-11103150D02*
X14512920Y-11103150D01*
X14512920Y-11103150D02*
X14531968Y-11112674D01*
X14531968Y-11112674D02*
X14541491Y-11131722D01*
X14541491Y-11131722D02*
X14541491Y-11150770D01*
X14541491Y-11150770D02*
X14446253Y-11169817D01*
X14617682Y-11226960D02*
X14636730Y-11236484D01*
X14636730Y-11236484D02*
X14674825Y-11236484D01*
X14674825Y-11236484D02*
X14693872Y-11226960D01*
X14693872Y-11226960D02*
X14703396Y-11207912D01*
X14703396Y-11207912D02*
X14703396Y-11198388D01*
X14703396Y-11198388D02*
X14693872Y-11179341D01*
X14693872Y-11179341D02*
X14674825Y-11169817D01*
X14674825Y-11169817D02*
X14646253Y-11169817D01*
X14646253Y-11169817D02*
X14627206Y-11160293D01*
X14627206Y-11160293D02*
X14617682Y-11141246D01*
X14617682Y-11141246D02*
X14617682Y-11131722D01*
X14617682Y-11131722D02*
X14627206Y-11112674D01*
X14627206Y-11112674D02*
X14646253Y-11103150D01*
X14646253Y-11103150D02*
X14674825Y-11103150D01*
X14674825Y-11103150D02*
X14693872Y-11112674D01*
X14770063Y-11312674D02*
X14779587Y-11303150D01*
X14779587Y-11303150D02*
X14798634Y-11274579D01*
X14798634Y-11274579D02*
X14808158Y-11255531D01*
X14808158Y-11255531D02*
X14817682Y-11226960D01*
X14817682Y-11226960D02*
X14827206Y-11179341D01*
X14827206Y-11179341D02*
X14827206Y-11141246D01*
X14827206Y-11141246D02*
X14817682Y-11093627D01*
X14817682Y-11093627D02*
X14808158Y-11065055D01*
X14808158Y-11065055D02*
X14798634Y-11046008D01*
X14798634Y-11046008D02*
X14779587Y-11017436D01*
X14779587Y-11017436D02*
X14770063Y-11007912D01*
X15131968Y-11312674D02*
X15122444Y-11303150D01*
X15122444Y-11303150D02*
X15103396Y-11274579D01*
X15103396Y-11274579D02*
X15093872Y-11255531D01*
X15093872Y-11255531D02*
X15084349Y-11226960D01*
X15084349Y-11226960D02*
X15074825Y-11179341D01*
X15074825Y-11179341D02*
X15074825Y-11141246D01*
X15074825Y-11141246D02*
X15084349Y-11093627D01*
X15084349Y-11093627D02*
X15093872Y-11065055D01*
X15093872Y-11065055D02*
X15103396Y-11046008D01*
X15103396Y-11046008D02*
X15122444Y-11017436D01*
X15122444Y-11017436D02*
X15131968Y-11007912D01*
X15208158Y-11103150D02*
X15208158Y-11236484D01*
X15208158Y-11122198D02*
X15217682Y-11112674D01*
X15217682Y-11112674D02*
X15236730Y-11103150D01*
X15236730Y-11103150D02*
X15265301Y-11103150D01*
X15265301Y-11103150D02*
X15284349Y-11112674D01*
X15284349Y-11112674D02*
X15293872Y-11131722D01*
X15293872Y-11131722D02*
X15293872Y-11236484D01*
X15417682Y-11236484D02*
X15398634Y-11226960D01*
X15398634Y-11226960D02*
X15389111Y-11217436D01*
X15389111Y-11217436D02*
X15379587Y-11198388D01*
X15379587Y-11198388D02*
X15379587Y-11141246D01*
X15379587Y-11141246D02*
X15389111Y-11122198D01*
X15389111Y-11122198D02*
X15398634Y-11112674D01*
X15398634Y-11112674D02*
X15417682Y-11103150D01*
X15417682Y-11103150D02*
X15446253Y-11103150D01*
X15446253Y-11103150D02*
X15465301Y-11112674D01*
X15465301Y-11112674D02*
X15474825Y-11122198D01*
X15474825Y-11122198D02*
X15484349Y-11141246D01*
X15484349Y-11141246D02*
X15484349Y-11198388D01*
X15484349Y-11198388D02*
X15474825Y-11217436D01*
X15474825Y-11217436D02*
X15465301Y-11226960D01*
X15465301Y-11226960D02*
X15446253Y-11236484D01*
X15446253Y-11236484D02*
X15417682Y-11236484D01*
X15541492Y-11103150D02*
X15617682Y-11103150D01*
X15570063Y-11036484D02*
X15570063Y-11207912D01*
X15570063Y-11207912D02*
X15579587Y-11226960D01*
X15579587Y-11226960D02*
X15598634Y-11236484D01*
X15598634Y-11236484D02*
X15617682Y-11236484D01*
X15836730Y-11103150D02*
X15836730Y-11303150D01*
X15836730Y-11112674D02*
X15855777Y-11103150D01*
X15855777Y-11103150D02*
X15893873Y-11103150D01*
X15893873Y-11103150D02*
X15912920Y-11112674D01*
X15912920Y-11112674D02*
X15922444Y-11122198D01*
X15922444Y-11122198D02*
X15931968Y-11141246D01*
X15931968Y-11141246D02*
X15931968Y-11198388D01*
X15931968Y-11198388D02*
X15922444Y-11217436D01*
X15922444Y-11217436D02*
X15912920Y-11226960D01*
X15912920Y-11226960D02*
X15893873Y-11236484D01*
X15893873Y-11236484D02*
X15855777Y-11236484D01*
X15855777Y-11236484D02*
X15836730Y-11226960D01*
X16046253Y-11236484D02*
X16027206Y-11226960D01*
X16027206Y-11226960D02*
X16017682Y-11207912D01*
X16017682Y-11207912D02*
X16017682Y-11036484D01*
X16208158Y-11236484D02*
X16208158Y-11131722D01*
X16208158Y-11131722D02*
X16198634Y-11112674D01*
X16198634Y-11112674D02*
X16179587Y-11103150D01*
X16179587Y-11103150D02*
X16141492Y-11103150D01*
X16141492Y-11103150D02*
X16122444Y-11112674D01*
X16208158Y-11226960D02*
X16189111Y-11236484D01*
X16189111Y-11236484D02*
X16141492Y-11236484D01*
X16141492Y-11236484D02*
X16122444Y-11226960D01*
X16122444Y-11226960D02*
X16112920Y-11207912D01*
X16112920Y-11207912D02*
X16112920Y-11188865D01*
X16112920Y-11188865D02*
X16122444Y-11169817D01*
X16122444Y-11169817D02*
X16141492Y-11160293D01*
X16141492Y-11160293D02*
X16189111Y-11160293D01*
X16189111Y-11160293D02*
X16208158Y-11150770D01*
X16274825Y-11103150D02*
X16351015Y-11103150D01*
X16303396Y-11036484D02*
X16303396Y-11207912D01*
X16303396Y-11207912D02*
X16312920Y-11226960D01*
X16312920Y-11226960D02*
X16331968Y-11236484D01*
X16331968Y-11236484D02*
X16351015Y-11236484D01*
X16493873Y-11226960D02*
X16474825Y-11236484D01*
X16474825Y-11236484D02*
X16436730Y-11236484D01*
X16436730Y-11236484D02*
X16417682Y-11226960D01*
X16417682Y-11226960D02*
X16408158Y-11207912D01*
X16408158Y-11207912D02*
X16408158Y-11131722D01*
X16408158Y-11131722D02*
X16417682Y-11112674D01*
X16417682Y-11112674D02*
X16436730Y-11103150D01*
X16436730Y-11103150D02*
X16474825Y-11103150D01*
X16474825Y-11103150D02*
X16493873Y-11112674D01*
X16493873Y-11112674D02*
X16503396Y-11131722D01*
X16503396Y-11131722D02*
X16503396Y-11150770D01*
X16503396Y-11150770D02*
X16408158Y-11169817D01*
X16674825Y-11236484D02*
X16674825Y-11036484D01*
X16674825Y-11226960D02*
X16655777Y-11236484D01*
X16655777Y-11236484D02*
X16617682Y-11236484D01*
X16617682Y-11236484D02*
X16598634Y-11226960D01*
X16598634Y-11226960D02*
X16589111Y-11217436D01*
X16589111Y-11217436D02*
X16579587Y-11198388D01*
X16579587Y-11198388D02*
X16579587Y-11141246D01*
X16579587Y-11141246D02*
X16589111Y-11122198D01*
X16589111Y-11122198D02*
X16598634Y-11112674D01*
X16598634Y-11112674D02*
X16617682Y-11103150D01*
X16617682Y-11103150D02*
X16655777Y-11103150D01*
X16655777Y-11103150D02*
X16674825Y-11112674D01*
X16751015Y-11312674D02*
X16760539Y-11303150D01*
X16760539Y-11303150D02*
X16779587Y-11274579D01*
X16779587Y-11274579D02*
X16789111Y-11255531D01*
X16789111Y-11255531D02*
X16798635Y-11226960D01*
X16798635Y-11226960D02*
X16808158Y-11179341D01*
X16808158Y-11179341D02*
X16808158Y-11141246D01*
X16808158Y-11141246D02*
X16798635Y-11093627D01*
X16798635Y-11093627D02*
X16789111Y-11065055D01*
X16789111Y-11065055D02*
X16779587Y-11046008D01*
X16779587Y-11046008D02*
X16760539Y-11017436D01*
X16760539Y-11017436D02*
X16751015Y-11007912D01*
X9995000Y-11425000D02*
G75*
G02*
X9795000Y-11425000I-100000J0D01*
G01*
X9795000Y-11425000D02*
G75*
G02*
X9995000Y-11425000I100000J0D01*
G01*
X10236729Y-11316484D02*
X10360539Y-11316484D01*
X10360539Y-11316484D02*
X10293872Y-11392674D01*
X10293872Y-11392674D02*
X10322444Y-11392674D01*
X10322444Y-11392674D02*
X10341491Y-11402198D01*
X10341491Y-11402198D02*
X10351015Y-11411722D01*
X10351015Y-11411722D02*
X10360539Y-11430769D01*
X10360539Y-11430769D02*
X10360539Y-11478388D01*
X10360539Y-11478388D02*
X10351015Y-11497436D01*
X10351015Y-11497436D02*
X10341491Y-11506960D01*
X10341491Y-11506960D02*
X10322444Y-11516484D01*
X10322444Y-11516484D02*
X10265301Y-11516484D01*
X10265301Y-11516484D02*
X10246253Y-11506960D01*
X10246253Y-11506960D02*
X10236729Y-11497436D01*
X10446253Y-11497436D02*
X10455777Y-11506960D01*
X10455777Y-11506960D02*
X10446253Y-11516484D01*
X10446253Y-11516484D02*
X10436729Y-11506960D01*
X10436729Y-11506960D02*
X10446253Y-11497436D01*
X10446253Y-11497436D02*
X10446253Y-11516484D01*
X10531967Y-11335531D02*
X10541491Y-11326008D01*
X10541491Y-11326008D02*
X10560539Y-11316484D01*
X10560539Y-11316484D02*
X10608158Y-11316484D01*
X10608158Y-11316484D02*
X10627205Y-11326008D01*
X10627205Y-11326008D02*
X10636729Y-11335531D01*
X10636729Y-11335531D02*
X10646253Y-11354579D01*
X10646253Y-11354579D02*
X10646253Y-11373627D01*
X10646253Y-11373627D02*
X10636729Y-11402198D01*
X10636729Y-11402198D02*
X10522444Y-11516484D01*
X10522444Y-11516484D02*
X10646253Y-11516484D01*
X10770063Y-11316484D02*
X10789110Y-11316484D01*
X10789110Y-11316484D02*
X10808158Y-11326008D01*
X10808158Y-11326008D02*
X10817682Y-11335531D01*
X10817682Y-11335531D02*
X10827205Y-11354579D01*
X10827205Y-11354579D02*
X10836729Y-11392674D01*
X10836729Y-11392674D02*
X10836729Y-11440293D01*
X10836729Y-11440293D02*
X10827205Y-11478388D01*
X10827205Y-11478388D02*
X10817682Y-11497436D01*
X10817682Y-11497436D02*
X10808158Y-11506960D01*
X10808158Y-11506960D02*
X10789110Y-11516484D01*
X10789110Y-11516484D02*
X10770063Y-11516484D01*
X10770063Y-11516484D02*
X10751015Y-11506960D01*
X10751015Y-11506960D02*
X10741491Y-11497436D01*
X10741491Y-11497436D02*
X10731967Y-11478388D01*
X10731967Y-11478388D02*
X10722444Y-11440293D01*
X10722444Y-11440293D02*
X10722444Y-11392674D01*
X10722444Y-11392674D02*
X10731967Y-11354579D01*
X10731967Y-11354579D02*
X10741491Y-11335531D01*
X10741491Y-11335531D02*
X10751015Y-11326008D01*
X10751015Y-11326008D02*
X10770063Y-11316484D01*
X10960539Y-11316484D02*
X10979586Y-11316484D01*
X10979586Y-11316484D02*
X10998634Y-11326008D01*
X10998634Y-11326008D02*
X11008158Y-11335531D01*
X11008158Y-11335531D02*
X11017682Y-11354579D01*
X11017682Y-11354579D02*
X11027205Y-11392674D01*
X11027205Y-11392674D02*
X11027205Y-11440293D01*
X11027205Y-11440293D02*
X11017682Y-11478388D01*
X11017682Y-11478388D02*
X11008158Y-11497436D01*
X11008158Y-11497436D02*
X10998634Y-11506960D01*
X10998634Y-11506960D02*
X10979586Y-11516484D01*
X10979586Y-11516484D02*
X10960539Y-11516484D01*
X10960539Y-11516484D02*
X10941491Y-11506960D01*
X10941491Y-11506960D02*
X10931967Y-11497436D01*
X10931967Y-11497436D02*
X10922444Y-11478388D01*
X10922444Y-11478388D02*
X10912920Y-11440293D01*
X10912920Y-11440293D02*
X10912920Y-11392674D01*
X10912920Y-11392674D02*
X10922444Y-11354579D01*
X10922444Y-11354579D02*
X10931967Y-11335531D01*
X10931967Y-11335531D02*
X10941491Y-11326008D01*
X10941491Y-11326008D02*
X10960539Y-11316484D01*
X11112920Y-11516484D02*
X11112920Y-11383150D01*
X11112920Y-11402198D02*
X11122444Y-11392674D01*
X11122444Y-11392674D02*
X11141491Y-11383150D01*
X11141491Y-11383150D02*
X11170063Y-11383150D01*
X11170063Y-11383150D02*
X11189110Y-11392674D01*
X11189110Y-11392674D02*
X11198634Y-11411722D01*
X11198634Y-11411722D02*
X11198634Y-11516484D01*
X11198634Y-11411722D02*
X11208158Y-11392674D01*
X11208158Y-11392674D02*
X11227205Y-11383150D01*
X11227205Y-11383150D02*
X11255777Y-11383150D01*
X11255777Y-11383150D02*
X11274824Y-11392674D01*
X11274824Y-11392674D02*
X11284348Y-11411722D01*
X11284348Y-11411722D02*
X11284348Y-11516484D01*
X11379586Y-11516484D02*
X11379586Y-11383150D01*
X11379586Y-11402198D02*
X11389110Y-11392674D01*
X11389110Y-11392674D02*
X11408158Y-11383150D01*
X11408158Y-11383150D02*
X11436729Y-11383150D01*
X11436729Y-11383150D02*
X11455777Y-11392674D01*
X11455777Y-11392674D02*
X11465301Y-11411722D01*
X11465301Y-11411722D02*
X11465301Y-11516484D01*
X11465301Y-11411722D02*
X11474824Y-11392674D01*
X11474824Y-11392674D02*
X11493872Y-11383150D01*
X11493872Y-11383150D02*
X11522443Y-11383150D01*
X11522443Y-11383150D02*
X11541491Y-11392674D01*
X11541491Y-11392674D02*
X11551015Y-11411722D01*
X11551015Y-11411722D02*
X11551015Y-11516484D01*
X11941491Y-11306960D02*
X11770063Y-11564103D01*
X12198634Y-11316484D02*
X12217682Y-11316484D01*
X12217682Y-11316484D02*
X12236729Y-11326008D01*
X12236729Y-11326008D02*
X12246253Y-11335531D01*
X12246253Y-11335531D02*
X12255777Y-11354579D01*
X12255777Y-11354579D02*
X12265301Y-11392674D01*
X12265301Y-11392674D02*
X12265301Y-11440293D01*
X12265301Y-11440293D02*
X12255777Y-11478388D01*
X12255777Y-11478388D02*
X12246253Y-11497436D01*
X12246253Y-11497436D02*
X12236729Y-11506960D01*
X12236729Y-11506960D02*
X12217682Y-11516484D01*
X12217682Y-11516484D02*
X12198634Y-11516484D01*
X12198634Y-11516484D02*
X12179586Y-11506960D01*
X12179586Y-11506960D02*
X12170063Y-11497436D01*
X12170063Y-11497436D02*
X12160539Y-11478388D01*
X12160539Y-11478388D02*
X12151015Y-11440293D01*
X12151015Y-11440293D02*
X12151015Y-11392674D01*
X12151015Y-11392674D02*
X12160539Y-11354579D01*
X12160539Y-11354579D02*
X12170063Y-11335531D01*
X12170063Y-11335531D02*
X12179586Y-11326008D01*
X12179586Y-11326008D02*
X12198634Y-11316484D01*
X12351015Y-11497436D02*
X12360539Y-11506960D01*
X12360539Y-11506960D02*
X12351015Y-11516484D01*
X12351015Y-11516484D02*
X12341491Y-11506960D01*
X12341491Y-11506960D02*
X12351015Y-11497436D01*
X12351015Y-11497436D02*
X12351015Y-11516484D01*
X12551015Y-11516484D02*
X12436729Y-11516484D01*
X12493872Y-11516484D02*
X12493872Y-11316484D01*
X12493872Y-11316484D02*
X12474825Y-11345055D01*
X12474825Y-11345055D02*
X12455777Y-11364103D01*
X12455777Y-11364103D02*
X12436729Y-11373627D01*
X12627206Y-11335531D02*
X12636729Y-11326008D01*
X12636729Y-11326008D02*
X12655777Y-11316484D01*
X12655777Y-11316484D02*
X12703396Y-11316484D01*
X12703396Y-11316484D02*
X12722444Y-11326008D01*
X12722444Y-11326008D02*
X12731967Y-11335531D01*
X12731967Y-11335531D02*
X12741491Y-11354579D01*
X12741491Y-11354579D02*
X12741491Y-11373627D01*
X12741491Y-11373627D02*
X12731967Y-11402198D01*
X12731967Y-11402198D02*
X12617682Y-11516484D01*
X12617682Y-11516484D02*
X12741491Y-11516484D01*
X12912920Y-11316484D02*
X12874825Y-11316484D01*
X12874825Y-11316484D02*
X12855777Y-11326008D01*
X12855777Y-11326008D02*
X12846253Y-11335531D01*
X12846253Y-11335531D02*
X12827206Y-11364103D01*
X12827206Y-11364103D02*
X12817682Y-11402198D01*
X12817682Y-11402198D02*
X12817682Y-11478388D01*
X12817682Y-11478388D02*
X12827206Y-11497436D01*
X12827206Y-11497436D02*
X12836729Y-11506960D01*
X12836729Y-11506960D02*
X12855777Y-11516484D01*
X12855777Y-11516484D02*
X12893872Y-11516484D01*
X12893872Y-11516484D02*
X12912920Y-11506960D01*
X12912920Y-11506960D02*
X12922444Y-11497436D01*
X12922444Y-11497436D02*
X12931967Y-11478388D01*
X12931967Y-11478388D02*
X12931967Y-11430769D01*
X12931967Y-11430769D02*
X12922444Y-11411722D01*
X12922444Y-11411722D02*
X12912920Y-11402198D01*
X12912920Y-11402198D02*
X12893872Y-11392674D01*
X12893872Y-11392674D02*
X12855777Y-11392674D01*
X12855777Y-11392674D02*
X12836729Y-11402198D01*
X12836729Y-11402198D02*
X12827206Y-11411722D01*
X12827206Y-11411722D02*
X12817682Y-11430769D01*
X13055777Y-11316484D02*
X13074825Y-11316484D01*
X13074825Y-11316484D02*
X13093872Y-11326008D01*
X13093872Y-11326008D02*
X13103396Y-11335531D01*
X13103396Y-11335531D02*
X13112920Y-11354579D01*
X13112920Y-11354579D02*
X13122444Y-11392674D01*
X13122444Y-11392674D02*
X13122444Y-11440293D01*
X13122444Y-11440293D02*
X13112920Y-11478388D01*
X13112920Y-11478388D02*
X13103396Y-11497436D01*
X13103396Y-11497436D02*
X13093872Y-11506960D01*
X13093872Y-11506960D02*
X13074825Y-11516484D01*
X13074825Y-11516484D02*
X13055777Y-11516484D01*
X13055777Y-11516484D02*
X13036729Y-11506960D01*
X13036729Y-11506960D02*
X13027206Y-11497436D01*
X13027206Y-11497436D02*
X13017682Y-11478388D01*
X13017682Y-11478388D02*
X13008158Y-11440293D01*
X13008158Y-11440293D02*
X13008158Y-11392674D01*
X13008158Y-11392674D02*
X13017682Y-11354579D01*
X13017682Y-11354579D02*
X13027206Y-11335531D01*
X13027206Y-11335531D02*
X13036729Y-11326008D01*
X13036729Y-11326008D02*
X13055777Y-11316484D01*
X13198634Y-11316484D02*
X13198634Y-11354579D01*
X13274825Y-11316484D02*
X13274825Y-11354579D01*
X13570063Y-11592674D02*
X13560539Y-11583150D01*
X13560539Y-11583150D02*
X13541491Y-11554579D01*
X13541491Y-11554579D02*
X13531968Y-11535531D01*
X13531968Y-11535531D02*
X13522444Y-11506960D01*
X13522444Y-11506960D02*
X13512920Y-11459341D01*
X13512920Y-11459341D02*
X13512920Y-11421246D01*
X13512920Y-11421246D02*
X13522444Y-11373627D01*
X13522444Y-11373627D02*
X13531968Y-11345055D01*
X13531968Y-11345055D02*
X13541491Y-11326008D01*
X13541491Y-11326008D02*
X13560539Y-11297436D01*
X13560539Y-11297436D02*
X13570063Y-11287912D01*
X13636729Y-11335531D02*
X13646253Y-11326008D01*
X13646253Y-11326008D02*
X13665301Y-11316484D01*
X13665301Y-11316484D02*
X13712920Y-11316484D01*
X13712920Y-11316484D02*
X13731968Y-11326008D01*
X13731968Y-11326008D02*
X13741491Y-11335531D01*
X13741491Y-11335531D02*
X13751015Y-11354579D01*
X13751015Y-11354579D02*
X13751015Y-11373627D01*
X13751015Y-11373627D02*
X13741491Y-11402198D01*
X13741491Y-11402198D02*
X13627206Y-11516484D01*
X13627206Y-11516484D02*
X13751015Y-11516484D01*
X13989110Y-11516484D02*
X13989110Y-11316484D01*
X14074825Y-11516484D02*
X14074825Y-11411722D01*
X14074825Y-11411722D02*
X14065301Y-11392674D01*
X14065301Y-11392674D02*
X14046253Y-11383150D01*
X14046253Y-11383150D02*
X14017682Y-11383150D01*
X14017682Y-11383150D02*
X13998634Y-11392674D01*
X13998634Y-11392674D02*
X13989110Y-11402198D01*
X14198634Y-11516484D02*
X14179587Y-11506960D01*
X14179587Y-11506960D02*
X14170063Y-11497436D01*
X14170063Y-11497436D02*
X14160539Y-11478388D01*
X14160539Y-11478388D02*
X14160539Y-11421246D01*
X14160539Y-11421246D02*
X14170063Y-11402198D01*
X14170063Y-11402198D02*
X14179587Y-11392674D01*
X14179587Y-11392674D02*
X14198634Y-11383150D01*
X14198634Y-11383150D02*
X14227206Y-11383150D01*
X14227206Y-11383150D02*
X14246253Y-11392674D01*
X14246253Y-11392674D02*
X14255777Y-11402198D01*
X14255777Y-11402198D02*
X14265301Y-11421246D01*
X14265301Y-11421246D02*
X14265301Y-11478388D01*
X14265301Y-11478388D02*
X14255777Y-11497436D01*
X14255777Y-11497436D02*
X14246253Y-11506960D01*
X14246253Y-11506960D02*
X14227206Y-11516484D01*
X14227206Y-11516484D02*
X14198634Y-11516484D01*
X14379587Y-11516484D02*
X14360539Y-11506960D01*
X14360539Y-11506960D02*
X14351015Y-11487912D01*
X14351015Y-11487912D02*
X14351015Y-11316484D01*
X14531968Y-11506960D02*
X14512920Y-11516484D01*
X14512920Y-11516484D02*
X14474825Y-11516484D01*
X14474825Y-11516484D02*
X14455777Y-11506960D01*
X14455777Y-11506960D02*
X14446253Y-11487912D01*
X14446253Y-11487912D02*
X14446253Y-11411722D01*
X14446253Y-11411722D02*
X14455777Y-11392674D01*
X14455777Y-11392674D02*
X14474825Y-11383150D01*
X14474825Y-11383150D02*
X14512920Y-11383150D01*
X14512920Y-11383150D02*
X14531968Y-11392674D01*
X14531968Y-11392674D02*
X14541491Y-11411722D01*
X14541491Y-11411722D02*
X14541491Y-11430769D01*
X14541491Y-11430769D02*
X14446253Y-11449817D01*
X14617682Y-11506960D02*
X14636730Y-11516484D01*
X14636730Y-11516484D02*
X14674825Y-11516484D01*
X14674825Y-11516484D02*
X14693872Y-11506960D01*
X14693872Y-11506960D02*
X14703396Y-11487912D01*
X14703396Y-11487912D02*
X14703396Y-11478388D01*
X14703396Y-11478388D02*
X14693872Y-11459341D01*
X14693872Y-11459341D02*
X14674825Y-11449817D01*
X14674825Y-11449817D02*
X14646253Y-11449817D01*
X14646253Y-11449817D02*
X14627206Y-11440293D01*
X14627206Y-11440293D02*
X14617682Y-11421246D01*
X14617682Y-11421246D02*
X14617682Y-11411722D01*
X14617682Y-11411722D02*
X14627206Y-11392674D01*
X14627206Y-11392674D02*
X14646253Y-11383150D01*
X14646253Y-11383150D02*
X14674825Y-11383150D01*
X14674825Y-11383150D02*
X14693872Y-11392674D01*
X14770063Y-11592674D02*
X14779587Y-11583150D01*
X14779587Y-11583150D02*
X14798634Y-11554579D01*
X14798634Y-11554579D02*
X14808158Y-11535531D01*
X14808158Y-11535531D02*
X14817682Y-11506960D01*
X14817682Y-11506960D02*
X14827206Y-11459341D01*
X14827206Y-11459341D02*
X14827206Y-11421246D01*
X14827206Y-11421246D02*
X14817682Y-11373627D01*
X14817682Y-11373627D02*
X14808158Y-11345055D01*
X14808158Y-11345055D02*
X14798634Y-11326008D01*
X14798634Y-11326008D02*
X14779587Y-11297436D01*
X14779587Y-11297436D02*
X14770063Y-11287912D01*
X15131968Y-11592674D02*
X15122444Y-11583150D01*
X15122444Y-11583150D02*
X15103396Y-11554579D01*
X15103396Y-11554579D02*
X15093872Y-11535531D01*
X15093872Y-11535531D02*
X15084349Y-11506960D01*
X15084349Y-11506960D02*
X15074825Y-11459341D01*
X15074825Y-11459341D02*
X15074825Y-11421246D01*
X15074825Y-11421246D02*
X15084349Y-11373627D01*
X15084349Y-11373627D02*
X15093872Y-11345055D01*
X15093872Y-11345055D02*
X15103396Y-11326008D01*
X15103396Y-11326008D02*
X15122444Y-11297436D01*
X15122444Y-11297436D02*
X15131968Y-11287912D01*
X15208158Y-11383150D02*
X15208158Y-11516484D01*
X15208158Y-11402198D02*
X15217682Y-11392674D01*
X15217682Y-11392674D02*
X15236730Y-11383150D01*
X15236730Y-11383150D02*
X15265301Y-11383150D01*
X15265301Y-11383150D02*
X15284349Y-11392674D01*
X15284349Y-11392674D02*
X15293872Y-11411722D01*
X15293872Y-11411722D02*
X15293872Y-11516484D01*
X15417682Y-11516484D02*
X15398634Y-11506960D01*
X15398634Y-11506960D02*
X15389111Y-11497436D01*
X15389111Y-11497436D02*
X15379587Y-11478388D01*
X15379587Y-11478388D02*
X15379587Y-11421246D01*
X15379587Y-11421246D02*
X15389111Y-11402198D01*
X15389111Y-11402198D02*
X15398634Y-11392674D01*
X15398634Y-11392674D02*
X15417682Y-11383150D01*
X15417682Y-11383150D02*
X15446253Y-11383150D01*
X15446253Y-11383150D02*
X15465301Y-11392674D01*
X15465301Y-11392674D02*
X15474825Y-11402198D01*
X15474825Y-11402198D02*
X15484349Y-11421246D01*
X15484349Y-11421246D02*
X15484349Y-11478388D01*
X15484349Y-11478388D02*
X15474825Y-11497436D01*
X15474825Y-11497436D02*
X15465301Y-11506960D01*
X15465301Y-11506960D02*
X15446253Y-11516484D01*
X15446253Y-11516484D02*
X15417682Y-11516484D01*
X15541492Y-11383150D02*
X15617682Y-11383150D01*
X15570063Y-11316484D02*
X15570063Y-11487912D01*
X15570063Y-11487912D02*
X15579587Y-11506960D01*
X15579587Y-11506960D02*
X15598634Y-11516484D01*
X15598634Y-11516484D02*
X15617682Y-11516484D01*
X15836730Y-11383150D02*
X15836730Y-11583150D01*
X15836730Y-11392674D02*
X15855777Y-11383150D01*
X15855777Y-11383150D02*
X15893873Y-11383150D01*
X15893873Y-11383150D02*
X15912920Y-11392674D01*
X15912920Y-11392674D02*
X15922444Y-11402198D01*
X15922444Y-11402198D02*
X15931968Y-11421246D01*
X15931968Y-11421246D02*
X15931968Y-11478388D01*
X15931968Y-11478388D02*
X15922444Y-11497436D01*
X15922444Y-11497436D02*
X15912920Y-11506960D01*
X15912920Y-11506960D02*
X15893873Y-11516484D01*
X15893873Y-11516484D02*
X15855777Y-11516484D01*
X15855777Y-11516484D02*
X15836730Y-11506960D01*
X16046253Y-11516484D02*
X16027206Y-11506960D01*
X16027206Y-11506960D02*
X16017682Y-11487912D01*
X16017682Y-11487912D02*
X16017682Y-11316484D01*
X16208158Y-11516484D02*
X16208158Y-11411722D01*
X16208158Y-11411722D02*
X16198634Y-11392674D01*
X16198634Y-11392674D02*
X16179587Y-11383150D01*
X16179587Y-11383150D02*
X16141492Y-11383150D01*
X16141492Y-11383150D02*
X16122444Y-11392674D01*
X16208158Y-11506960D02*
X16189111Y-11516484D01*
X16189111Y-11516484D02*
X16141492Y-11516484D01*
X16141492Y-11516484D02*
X16122444Y-11506960D01*
X16122444Y-11506960D02*
X16112920Y-11487912D01*
X16112920Y-11487912D02*
X16112920Y-11468865D01*
X16112920Y-11468865D02*
X16122444Y-11449817D01*
X16122444Y-11449817D02*
X16141492Y-11440293D01*
X16141492Y-11440293D02*
X16189111Y-11440293D01*
X16189111Y-11440293D02*
X16208158Y-11430769D01*
X16274825Y-11383150D02*
X16351015Y-11383150D01*
X16303396Y-11316484D02*
X16303396Y-11487912D01*
X16303396Y-11487912D02*
X16312920Y-11506960D01*
X16312920Y-11506960D02*
X16331968Y-11516484D01*
X16331968Y-11516484D02*
X16351015Y-11516484D01*
X16493873Y-11506960D02*
X16474825Y-11516484D01*
X16474825Y-11516484D02*
X16436730Y-11516484D01*
X16436730Y-11516484D02*
X16417682Y-11506960D01*
X16417682Y-11506960D02*
X16408158Y-11487912D01*
X16408158Y-11487912D02*
X16408158Y-11411722D01*
X16408158Y-11411722D02*
X16417682Y-11392674D01*
X16417682Y-11392674D02*
X16436730Y-11383150D01*
X16436730Y-11383150D02*
X16474825Y-11383150D01*
X16474825Y-11383150D02*
X16493873Y-11392674D01*
X16493873Y-11392674D02*
X16503396Y-11411722D01*
X16503396Y-11411722D02*
X16503396Y-11430769D01*
X16503396Y-11430769D02*
X16408158Y-11449817D01*
X16674825Y-11516484D02*
X16674825Y-11316484D01*
X16674825Y-11506960D02*
X16655777Y-11516484D01*
X16655777Y-11516484D02*
X16617682Y-11516484D01*
X16617682Y-11516484D02*
X16598634Y-11506960D01*
X16598634Y-11506960D02*
X16589111Y-11497436D01*
X16589111Y-11497436D02*
X16579587Y-11478388D01*
X16579587Y-11478388D02*
X16579587Y-11421246D01*
X16579587Y-11421246D02*
X16589111Y-11402198D01*
X16589111Y-11402198D02*
X16598634Y-11392674D01*
X16598634Y-11392674D02*
X16617682Y-11383150D01*
X16617682Y-11383150D02*
X16655777Y-11383150D01*
X16655777Y-11383150D02*
X16674825Y-11392674D01*
X16751015Y-11592674D02*
X16760539Y-11583150D01*
X16760539Y-11583150D02*
X16779587Y-11554579D01*
X16779587Y-11554579D02*
X16789111Y-11535531D01*
X16789111Y-11535531D02*
X16798635Y-11506960D01*
X16798635Y-11506960D02*
X16808158Y-11459341D01*
X16808158Y-11459341D02*
X16808158Y-11421246D01*
X16808158Y-11421246D02*
X16798635Y-11373627D01*
X16798635Y-11373627D02*
X16789111Y-11345055D01*
X16789111Y-11345055D02*
X16779587Y-11326008D01*
X16779587Y-11326008D02*
X16760539Y-11297436D01*
X16760539Y-11297436D02*
X16751015Y-11287912D01*
X9895000Y-11645000D02*
X9895000Y-11845000D01*
X9795000Y-11745000D02*
X9995000Y-11745000D01*
X10236729Y-11636484D02*
X10360539Y-11636484D01*
X10360539Y-11636484D02*
X10293872Y-11712674D01*
X10293872Y-11712674D02*
X10322444Y-11712674D01*
X10322444Y-11712674D02*
X10341491Y-11722198D01*
X10341491Y-11722198D02*
X10351015Y-11731722D01*
X10351015Y-11731722D02*
X10360539Y-11750769D01*
X10360539Y-11750769D02*
X10360539Y-11798388D01*
X10360539Y-11798388D02*
X10351015Y-11817436D01*
X10351015Y-11817436D02*
X10341491Y-11826960D01*
X10341491Y-11826960D02*
X10322444Y-11836484D01*
X10322444Y-11836484D02*
X10265301Y-11836484D01*
X10265301Y-11836484D02*
X10246253Y-11826960D01*
X10246253Y-11826960D02*
X10236729Y-11817436D01*
X10446253Y-11817436D02*
X10455777Y-11826960D01*
X10455777Y-11826960D02*
X10446253Y-11836484D01*
X10446253Y-11836484D02*
X10436729Y-11826960D01*
X10436729Y-11826960D02*
X10446253Y-11817436D01*
X10446253Y-11817436D02*
X10446253Y-11836484D01*
X10531967Y-11655531D02*
X10541491Y-11646008D01*
X10541491Y-11646008D02*
X10560539Y-11636484D01*
X10560539Y-11636484D02*
X10608158Y-11636484D01*
X10608158Y-11636484D02*
X10627205Y-11646008D01*
X10627205Y-11646008D02*
X10636729Y-11655531D01*
X10636729Y-11655531D02*
X10646253Y-11674579D01*
X10646253Y-11674579D02*
X10646253Y-11693627D01*
X10646253Y-11693627D02*
X10636729Y-11722198D01*
X10636729Y-11722198D02*
X10522444Y-11836484D01*
X10522444Y-11836484D02*
X10646253Y-11836484D01*
X10827205Y-11636484D02*
X10731967Y-11636484D01*
X10731967Y-11636484D02*
X10722444Y-11731722D01*
X10722444Y-11731722D02*
X10731967Y-11722198D01*
X10731967Y-11722198D02*
X10751015Y-11712674D01*
X10751015Y-11712674D02*
X10798634Y-11712674D01*
X10798634Y-11712674D02*
X10817682Y-11722198D01*
X10817682Y-11722198D02*
X10827205Y-11731722D01*
X10827205Y-11731722D02*
X10836729Y-11750769D01*
X10836729Y-11750769D02*
X10836729Y-11798388D01*
X10836729Y-11798388D02*
X10827205Y-11817436D01*
X10827205Y-11817436D02*
X10817682Y-11826960D01*
X10817682Y-11826960D02*
X10798634Y-11836484D01*
X10798634Y-11836484D02*
X10751015Y-11836484D01*
X10751015Y-11836484D02*
X10731967Y-11826960D01*
X10731967Y-11826960D02*
X10722444Y-11817436D01*
X10960539Y-11636484D02*
X10979586Y-11636484D01*
X10979586Y-11636484D02*
X10998634Y-11646008D01*
X10998634Y-11646008D02*
X11008158Y-11655531D01*
X11008158Y-11655531D02*
X11017682Y-11674579D01*
X11017682Y-11674579D02*
X11027205Y-11712674D01*
X11027205Y-11712674D02*
X11027205Y-11760293D01*
X11027205Y-11760293D02*
X11017682Y-11798388D01*
X11017682Y-11798388D02*
X11008158Y-11817436D01*
X11008158Y-11817436D02*
X10998634Y-11826960D01*
X10998634Y-11826960D02*
X10979586Y-11836484D01*
X10979586Y-11836484D02*
X10960539Y-11836484D01*
X10960539Y-11836484D02*
X10941491Y-11826960D01*
X10941491Y-11826960D02*
X10931967Y-11817436D01*
X10931967Y-11817436D02*
X10922444Y-11798388D01*
X10922444Y-11798388D02*
X10912920Y-11760293D01*
X10912920Y-11760293D02*
X10912920Y-11712674D01*
X10912920Y-11712674D02*
X10922444Y-11674579D01*
X10922444Y-11674579D02*
X10931967Y-11655531D01*
X10931967Y-11655531D02*
X10941491Y-11646008D01*
X10941491Y-11646008D02*
X10960539Y-11636484D01*
X11112920Y-11836484D02*
X11112920Y-11703150D01*
X11112920Y-11722198D02*
X11122444Y-11712674D01*
X11122444Y-11712674D02*
X11141491Y-11703150D01*
X11141491Y-11703150D02*
X11170063Y-11703150D01*
X11170063Y-11703150D02*
X11189110Y-11712674D01*
X11189110Y-11712674D02*
X11198634Y-11731722D01*
X11198634Y-11731722D02*
X11198634Y-11836484D01*
X11198634Y-11731722D02*
X11208158Y-11712674D01*
X11208158Y-11712674D02*
X11227205Y-11703150D01*
X11227205Y-11703150D02*
X11255777Y-11703150D01*
X11255777Y-11703150D02*
X11274824Y-11712674D01*
X11274824Y-11712674D02*
X11284348Y-11731722D01*
X11284348Y-11731722D02*
X11284348Y-11836484D01*
X11379586Y-11836484D02*
X11379586Y-11703150D01*
X11379586Y-11722198D02*
X11389110Y-11712674D01*
X11389110Y-11712674D02*
X11408158Y-11703150D01*
X11408158Y-11703150D02*
X11436729Y-11703150D01*
X11436729Y-11703150D02*
X11455777Y-11712674D01*
X11455777Y-11712674D02*
X11465301Y-11731722D01*
X11465301Y-11731722D02*
X11465301Y-11836484D01*
X11465301Y-11731722D02*
X11474824Y-11712674D01*
X11474824Y-11712674D02*
X11493872Y-11703150D01*
X11493872Y-11703150D02*
X11522443Y-11703150D01*
X11522443Y-11703150D02*
X11541491Y-11712674D01*
X11541491Y-11712674D02*
X11551015Y-11731722D01*
X11551015Y-11731722D02*
X11551015Y-11836484D01*
X11941491Y-11626960D02*
X11770063Y-11884103D01*
X12198634Y-11636484D02*
X12217682Y-11636484D01*
X12217682Y-11636484D02*
X12236729Y-11646008D01*
X12236729Y-11646008D02*
X12246253Y-11655531D01*
X12246253Y-11655531D02*
X12255777Y-11674579D01*
X12255777Y-11674579D02*
X12265301Y-11712674D01*
X12265301Y-11712674D02*
X12265301Y-11760293D01*
X12265301Y-11760293D02*
X12255777Y-11798388D01*
X12255777Y-11798388D02*
X12246253Y-11817436D01*
X12246253Y-11817436D02*
X12236729Y-11826960D01*
X12236729Y-11826960D02*
X12217682Y-11836484D01*
X12217682Y-11836484D02*
X12198634Y-11836484D01*
X12198634Y-11836484D02*
X12179586Y-11826960D01*
X12179586Y-11826960D02*
X12170063Y-11817436D01*
X12170063Y-11817436D02*
X12160539Y-11798388D01*
X12160539Y-11798388D02*
X12151015Y-11760293D01*
X12151015Y-11760293D02*
X12151015Y-11712674D01*
X12151015Y-11712674D02*
X12160539Y-11674579D01*
X12160539Y-11674579D02*
X12170063Y-11655531D01*
X12170063Y-11655531D02*
X12179586Y-11646008D01*
X12179586Y-11646008D02*
X12198634Y-11636484D01*
X12351015Y-11817436D02*
X12360539Y-11826960D01*
X12360539Y-11826960D02*
X12351015Y-11836484D01*
X12351015Y-11836484D02*
X12341491Y-11826960D01*
X12341491Y-11826960D02*
X12351015Y-11817436D01*
X12351015Y-11817436D02*
X12351015Y-11836484D01*
X12551015Y-11836484D02*
X12436729Y-11836484D01*
X12493872Y-11836484D02*
X12493872Y-11636484D01*
X12493872Y-11636484D02*
X12474825Y-11665055D01*
X12474825Y-11665055D02*
X12455777Y-11684103D01*
X12455777Y-11684103D02*
X12436729Y-11693627D01*
X12627206Y-11655531D02*
X12636729Y-11646008D01*
X12636729Y-11646008D02*
X12655777Y-11636484D01*
X12655777Y-11636484D02*
X12703396Y-11636484D01*
X12703396Y-11636484D02*
X12722444Y-11646008D01*
X12722444Y-11646008D02*
X12731967Y-11655531D01*
X12731967Y-11655531D02*
X12741491Y-11674579D01*
X12741491Y-11674579D02*
X12741491Y-11693627D01*
X12741491Y-11693627D02*
X12731967Y-11722198D01*
X12731967Y-11722198D02*
X12617682Y-11836484D01*
X12617682Y-11836484D02*
X12741491Y-11836484D01*
X12855777Y-11722198D02*
X12836729Y-11712674D01*
X12836729Y-11712674D02*
X12827206Y-11703150D01*
X12827206Y-11703150D02*
X12817682Y-11684103D01*
X12817682Y-11684103D02*
X12817682Y-11674579D01*
X12817682Y-11674579D02*
X12827206Y-11655531D01*
X12827206Y-11655531D02*
X12836729Y-11646008D01*
X12836729Y-11646008D02*
X12855777Y-11636484D01*
X12855777Y-11636484D02*
X12893872Y-11636484D01*
X12893872Y-11636484D02*
X12912920Y-11646008D01*
X12912920Y-11646008D02*
X12922444Y-11655531D01*
X12922444Y-11655531D02*
X12931967Y-11674579D01*
X12931967Y-11674579D02*
X12931967Y-11684103D01*
X12931967Y-11684103D02*
X12922444Y-11703150D01*
X12922444Y-11703150D02*
X12912920Y-11712674D01*
X12912920Y-11712674D02*
X12893872Y-11722198D01*
X12893872Y-11722198D02*
X12855777Y-11722198D01*
X12855777Y-11722198D02*
X12836729Y-11731722D01*
X12836729Y-11731722D02*
X12827206Y-11741246D01*
X12827206Y-11741246D02*
X12817682Y-11760293D01*
X12817682Y-11760293D02*
X12817682Y-11798388D01*
X12817682Y-11798388D02*
X12827206Y-11817436D01*
X12827206Y-11817436D02*
X12836729Y-11826960D01*
X12836729Y-11826960D02*
X12855777Y-11836484D01*
X12855777Y-11836484D02*
X12893872Y-11836484D01*
X12893872Y-11836484D02*
X12912920Y-11826960D01*
X12912920Y-11826960D02*
X12922444Y-11817436D01*
X12922444Y-11817436D02*
X12931967Y-11798388D01*
X12931967Y-11798388D02*
X12931967Y-11760293D01*
X12931967Y-11760293D02*
X12922444Y-11741246D01*
X12922444Y-11741246D02*
X12912920Y-11731722D01*
X12912920Y-11731722D02*
X12893872Y-11722198D01*
X13055777Y-11636484D02*
X13074825Y-11636484D01*
X13074825Y-11636484D02*
X13093872Y-11646008D01*
X13093872Y-11646008D02*
X13103396Y-11655531D01*
X13103396Y-11655531D02*
X13112920Y-11674579D01*
X13112920Y-11674579D02*
X13122444Y-11712674D01*
X13122444Y-11712674D02*
X13122444Y-11760293D01*
X13122444Y-11760293D02*
X13112920Y-11798388D01*
X13112920Y-11798388D02*
X13103396Y-11817436D01*
X13103396Y-11817436D02*
X13093872Y-11826960D01*
X13093872Y-11826960D02*
X13074825Y-11836484D01*
X13074825Y-11836484D02*
X13055777Y-11836484D01*
X13055777Y-11836484D02*
X13036729Y-11826960D01*
X13036729Y-11826960D02*
X13027206Y-11817436D01*
X13027206Y-11817436D02*
X13017682Y-11798388D01*
X13017682Y-11798388D02*
X13008158Y-11760293D01*
X13008158Y-11760293D02*
X13008158Y-11712674D01*
X13008158Y-11712674D02*
X13017682Y-11674579D01*
X13017682Y-11674579D02*
X13027206Y-11655531D01*
X13027206Y-11655531D02*
X13036729Y-11646008D01*
X13036729Y-11646008D02*
X13055777Y-11636484D01*
X13198634Y-11636484D02*
X13198634Y-11674579D01*
X13274825Y-11636484D02*
X13274825Y-11674579D01*
X13570063Y-11912674D02*
X13560539Y-11903150D01*
X13560539Y-11903150D02*
X13541491Y-11874579D01*
X13541491Y-11874579D02*
X13531968Y-11855531D01*
X13531968Y-11855531D02*
X13522444Y-11826960D01*
X13522444Y-11826960D02*
X13512920Y-11779341D01*
X13512920Y-11779341D02*
X13512920Y-11741246D01*
X13512920Y-11741246D02*
X13522444Y-11693627D01*
X13522444Y-11693627D02*
X13531968Y-11665055D01*
X13531968Y-11665055D02*
X13541491Y-11646008D01*
X13541491Y-11646008D02*
X13560539Y-11617436D01*
X13560539Y-11617436D02*
X13570063Y-11607912D01*
X13636729Y-11655531D02*
X13646253Y-11646008D01*
X13646253Y-11646008D02*
X13665301Y-11636484D01*
X13665301Y-11636484D02*
X13712920Y-11636484D01*
X13712920Y-11636484D02*
X13731968Y-11646008D01*
X13731968Y-11646008D02*
X13741491Y-11655531D01*
X13741491Y-11655531D02*
X13751015Y-11674579D01*
X13751015Y-11674579D02*
X13751015Y-11693627D01*
X13751015Y-11693627D02*
X13741491Y-11722198D01*
X13741491Y-11722198D02*
X13627206Y-11836484D01*
X13627206Y-11836484D02*
X13751015Y-11836484D01*
X13989110Y-11836484D02*
X13989110Y-11636484D01*
X14074825Y-11836484D02*
X14074825Y-11731722D01*
X14074825Y-11731722D02*
X14065301Y-11712674D01*
X14065301Y-11712674D02*
X14046253Y-11703150D01*
X14046253Y-11703150D02*
X14017682Y-11703150D01*
X14017682Y-11703150D02*
X13998634Y-11712674D01*
X13998634Y-11712674D02*
X13989110Y-11722198D01*
X14198634Y-11836484D02*
X14179587Y-11826960D01*
X14179587Y-11826960D02*
X14170063Y-11817436D01*
X14170063Y-11817436D02*
X14160539Y-11798388D01*
X14160539Y-11798388D02*
X14160539Y-11741246D01*
X14160539Y-11741246D02*
X14170063Y-11722198D01*
X14170063Y-11722198D02*
X14179587Y-11712674D01*
X14179587Y-11712674D02*
X14198634Y-11703150D01*
X14198634Y-11703150D02*
X14227206Y-11703150D01*
X14227206Y-11703150D02*
X14246253Y-11712674D01*
X14246253Y-11712674D02*
X14255777Y-11722198D01*
X14255777Y-11722198D02*
X14265301Y-11741246D01*
X14265301Y-11741246D02*
X14265301Y-11798388D01*
X14265301Y-11798388D02*
X14255777Y-11817436D01*
X14255777Y-11817436D02*
X14246253Y-11826960D01*
X14246253Y-11826960D02*
X14227206Y-11836484D01*
X14227206Y-11836484D02*
X14198634Y-11836484D01*
X14379587Y-11836484D02*
X14360539Y-11826960D01*
X14360539Y-11826960D02*
X14351015Y-11807912D01*
X14351015Y-11807912D02*
X14351015Y-11636484D01*
X14531968Y-11826960D02*
X14512920Y-11836484D01*
X14512920Y-11836484D02*
X14474825Y-11836484D01*
X14474825Y-11836484D02*
X14455777Y-11826960D01*
X14455777Y-11826960D02*
X14446253Y-11807912D01*
X14446253Y-11807912D02*
X14446253Y-11731722D01*
X14446253Y-11731722D02*
X14455777Y-11712674D01*
X14455777Y-11712674D02*
X14474825Y-11703150D01*
X14474825Y-11703150D02*
X14512920Y-11703150D01*
X14512920Y-11703150D02*
X14531968Y-11712674D01*
X14531968Y-11712674D02*
X14541491Y-11731722D01*
X14541491Y-11731722D02*
X14541491Y-11750769D01*
X14541491Y-11750769D02*
X14446253Y-11769817D01*
X14617682Y-11826960D02*
X14636730Y-11836484D01*
X14636730Y-11836484D02*
X14674825Y-11836484D01*
X14674825Y-11836484D02*
X14693872Y-11826960D01*
X14693872Y-11826960D02*
X14703396Y-11807912D01*
X14703396Y-11807912D02*
X14703396Y-11798388D01*
X14703396Y-11798388D02*
X14693872Y-11779341D01*
X14693872Y-11779341D02*
X14674825Y-11769817D01*
X14674825Y-11769817D02*
X14646253Y-11769817D01*
X14646253Y-11769817D02*
X14627206Y-11760293D01*
X14627206Y-11760293D02*
X14617682Y-11741246D01*
X14617682Y-11741246D02*
X14617682Y-11731722D01*
X14617682Y-11731722D02*
X14627206Y-11712674D01*
X14627206Y-11712674D02*
X14646253Y-11703150D01*
X14646253Y-11703150D02*
X14674825Y-11703150D01*
X14674825Y-11703150D02*
X14693872Y-11712674D01*
X14770063Y-11912674D02*
X14779587Y-11903150D01*
X14779587Y-11903150D02*
X14798634Y-11874579D01*
X14798634Y-11874579D02*
X14808158Y-11855531D01*
X14808158Y-11855531D02*
X14817682Y-11826960D01*
X14817682Y-11826960D02*
X14827206Y-11779341D01*
X14827206Y-11779341D02*
X14827206Y-11741246D01*
X14827206Y-11741246D02*
X14817682Y-11693627D01*
X14817682Y-11693627D02*
X14808158Y-11665055D01*
X14808158Y-11665055D02*
X14798634Y-11646008D01*
X14798634Y-11646008D02*
X14779587Y-11617436D01*
X14779587Y-11617436D02*
X14770063Y-11607912D01*
X15131968Y-11912674D02*
X15122444Y-11903150D01*
X15122444Y-11903150D02*
X15103396Y-11874579D01*
X15103396Y-11874579D02*
X15093872Y-11855531D01*
X15093872Y-11855531D02*
X15084349Y-11826960D01*
X15084349Y-11826960D02*
X15074825Y-11779341D01*
X15074825Y-11779341D02*
X15074825Y-11741246D01*
X15074825Y-11741246D02*
X15084349Y-11693627D01*
X15084349Y-11693627D02*
X15093872Y-11665055D01*
X15093872Y-11665055D02*
X15103396Y-11646008D01*
X15103396Y-11646008D02*
X15122444Y-11617436D01*
X15122444Y-11617436D02*
X15131968Y-11607912D01*
X15208158Y-11703150D02*
X15208158Y-11836484D01*
X15208158Y-11722198D02*
X15217682Y-11712674D01*
X15217682Y-11712674D02*
X15236730Y-11703150D01*
X15236730Y-11703150D02*
X15265301Y-11703150D01*
X15265301Y-11703150D02*
X15284349Y-11712674D01*
X15284349Y-11712674D02*
X15293872Y-11731722D01*
X15293872Y-11731722D02*
X15293872Y-11836484D01*
X15417682Y-11836484D02*
X15398634Y-11826960D01*
X15398634Y-11826960D02*
X15389111Y-11817436D01*
X15389111Y-11817436D02*
X15379587Y-11798388D01*
X15379587Y-11798388D02*
X15379587Y-11741246D01*
X15379587Y-11741246D02*
X15389111Y-11722198D01*
X15389111Y-11722198D02*
X15398634Y-11712674D01*
X15398634Y-11712674D02*
X15417682Y-11703150D01*
X15417682Y-11703150D02*
X15446253Y-11703150D01*
X15446253Y-11703150D02*
X15465301Y-11712674D01*
X15465301Y-11712674D02*
X15474825Y-11722198D01*
X15474825Y-11722198D02*
X15484349Y-11741246D01*
X15484349Y-11741246D02*
X15484349Y-11798388D01*
X15484349Y-11798388D02*
X15474825Y-11817436D01*
X15474825Y-11817436D02*
X15465301Y-11826960D01*
X15465301Y-11826960D02*
X15446253Y-11836484D01*
X15446253Y-11836484D02*
X15417682Y-11836484D01*
X15541492Y-11703150D02*
X15617682Y-11703150D01*
X15570063Y-11636484D02*
X15570063Y-11807912D01*
X15570063Y-11807912D02*
X15579587Y-11826960D01*
X15579587Y-11826960D02*
X15598634Y-11836484D01*
X15598634Y-11836484D02*
X15617682Y-11836484D01*
X15836730Y-11703150D02*
X15836730Y-11903150D01*
X15836730Y-11712674D02*
X15855777Y-11703150D01*
X15855777Y-11703150D02*
X15893873Y-11703150D01*
X15893873Y-11703150D02*
X15912920Y-11712674D01*
X15912920Y-11712674D02*
X15922444Y-11722198D01*
X15922444Y-11722198D02*
X15931968Y-11741246D01*
X15931968Y-11741246D02*
X15931968Y-11798388D01*
X15931968Y-11798388D02*
X15922444Y-11817436D01*
X15922444Y-11817436D02*
X15912920Y-11826960D01*
X15912920Y-11826960D02*
X15893873Y-11836484D01*
X15893873Y-11836484D02*
X15855777Y-11836484D01*
X15855777Y-11836484D02*
X15836730Y-11826960D01*
X16046253Y-11836484D02*
X16027206Y-11826960D01*
X16027206Y-11826960D02*
X16017682Y-11807912D01*
X16017682Y-11807912D02*
X16017682Y-11636484D01*
X16208158Y-11836484D02*
X16208158Y-11731722D01*
X16208158Y-11731722D02*
X16198634Y-11712674D01*
X16198634Y-11712674D02*
X16179587Y-11703150D01*
X16179587Y-11703150D02*
X16141492Y-11703150D01*
X16141492Y-11703150D02*
X16122444Y-11712674D01*
X16208158Y-11826960D02*
X16189111Y-11836484D01*
X16189111Y-11836484D02*
X16141492Y-11836484D01*
X16141492Y-11836484D02*
X16122444Y-11826960D01*
X16122444Y-11826960D02*
X16112920Y-11807912D01*
X16112920Y-11807912D02*
X16112920Y-11788865D01*
X16112920Y-11788865D02*
X16122444Y-11769817D01*
X16122444Y-11769817D02*
X16141492Y-11760293D01*
X16141492Y-11760293D02*
X16189111Y-11760293D01*
X16189111Y-11760293D02*
X16208158Y-11750769D01*
X16274825Y-11703150D02*
X16351015Y-11703150D01*
X16303396Y-11636484D02*
X16303396Y-11807912D01*
X16303396Y-11807912D02*
X16312920Y-11826960D01*
X16312920Y-11826960D02*
X16331968Y-11836484D01*
X16331968Y-11836484D02*
X16351015Y-11836484D01*
X16493873Y-11826960D02*
X16474825Y-11836484D01*
X16474825Y-11836484D02*
X16436730Y-11836484D01*
X16436730Y-11836484D02*
X16417682Y-11826960D01*
X16417682Y-11826960D02*
X16408158Y-11807912D01*
X16408158Y-11807912D02*
X16408158Y-11731722D01*
X16408158Y-11731722D02*
X16417682Y-11712674D01*
X16417682Y-11712674D02*
X16436730Y-11703150D01*
X16436730Y-11703150D02*
X16474825Y-11703150D01*
X16474825Y-11703150D02*
X16493873Y-11712674D01*
X16493873Y-11712674D02*
X16503396Y-11731722D01*
X16503396Y-11731722D02*
X16503396Y-11750769D01*
X16503396Y-11750769D02*
X16408158Y-11769817D01*
X16674825Y-11836484D02*
X16674825Y-11636484D01*
X16674825Y-11826960D02*
X16655777Y-11836484D01*
X16655777Y-11836484D02*
X16617682Y-11836484D01*
X16617682Y-11836484D02*
X16598634Y-11826960D01*
X16598634Y-11826960D02*
X16589111Y-11817436D01*
X16589111Y-11817436D02*
X16579587Y-11798388D01*
X16579587Y-11798388D02*
X16579587Y-11741246D01*
X16579587Y-11741246D02*
X16589111Y-11722198D01*
X16589111Y-11722198D02*
X16598634Y-11712674D01*
X16598634Y-11712674D02*
X16617682Y-11703150D01*
X16617682Y-11703150D02*
X16655777Y-11703150D01*
X16655777Y-11703150D02*
X16674825Y-11712674D01*
X16751015Y-11912674D02*
X16760539Y-11903150D01*
X16760539Y-11903150D02*
X16779587Y-11874579D01*
X16779587Y-11874579D02*
X16789111Y-11855531D01*
X16789111Y-11855531D02*
X16798635Y-11826960D01*
X16798635Y-11826960D02*
X16808158Y-11779341D01*
X16808158Y-11779341D02*
X16808158Y-11741246D01*
X16808158Y-11741246D02*
X16798635Y-11693627D01*
X16798635Y-11693627D02*
X16789111Y-11665055D01*
X16789111Y-11665055D02*
X16779587Y-11646008D01*
X16779587Y-11646008D02*
X16760539Y-11617436D01*
X16760539Y-11617436D02*
X16751015Y-11607912D01*
M02*
