G04 #@! TF.GenerationSoftware,KiCad,Pcbnew,8.0.1*
G04 #@! TF.CreationDate,2024-03-27T20:13:14+01:00*
G04 #@! TF.ProjectId,ETH1HMSR-SMS,45544831-484d-4535-922d-534d532e6b69,rev?*
G04 #@! TF.SameCoordinates,Original*
G04 #@! TF.FileFunction,Paste,Bot*
G04 #@! TF.FilePolarity,Positive*
%FSLAX46Y46*%
G04 Gerber Fmt 4.6, Leading zero omitted, Abs format (unit mm)*
G04 Created by KiCad (PCBNEW 8.0.1) date 2024-03-27 20:13:14*
%MOMM*%
%LPD*%
G01*
G04 APERTURE LIST*
G04 Aperture macros list*
%AMRoundRect*
0 Rectangle with rounded corners*
0 $1 Rounding radius*
0 $2 $3 $4 $5 $6 $7 $8 $9 X,Y pos of 4 corners*
0 Add a 4 corners polygon primitive as box body*
4,1,4,$2,$3,$4,$5,$6,$7,$8,$9,$2,$3,0*
0 Add four circle primitives for the rounded corners*
1,1,$1+$1,$2,$3*
1,1,$1+$1,$4,$5*
1,1,$1+$1,$6,$7*
1,1,$1+$1,$8,$9*
0 Add four rect primitives between the rounded corners*
20,1,$1+$1,$2,$3,$4,$5,0*
20,1,$1+$1,$4,$5,$6,$7,0*
20,1,$1+$1,$6,$7,$8,$9,0*
20,1,$1+$1,$8,$9,$2,$3,0*%
G04 Aperture macros list end*
%ADD10RoundRect,0.237500X-0.250000X-0.237500X0.250000X-0.237500X0.250000X0.237500X-0.250000X0.237500X0*%
%ADD11RoundRect,0.237500X0.300000X0.237500X-0.300000X0.237500X-0.300000X-0.237500X0.300000X-0.237500X0*%
%ADD12RoundRect,0.237500X0.237500X-0.300000X0.237500X0.300000X-0.237500X0.300000X-0.237500X-0.300000X0*%
%ADD13RoundRect,0.250000X-0.412500X-0.650000X0.412500X-0.650000X0.412500X0.650000X-0.412500X0.650000X0*%
%ADD14RoundRect,0.237500X0.237500X-0.250000X0.237500X0.250000X-0.237500X0.250000X-0.237500X-0.250000X0*%
%ADD15RoundRect,0.237500X-0.300000X-0.237500X0.300000X-0.237500X0.300000X0.237500X-0.300000X0.237500X0*%
%ADD16RoundRect,0.237500X-0.237500X0.250000X-0.237500X-0.250000X0.237500X-0.250000X0.237500X0.250000X0*%
%ADD17RoundRect,0.237500X0.250000X0.237500X-0.250000X0.237500X-0.250000X-0.237500X0.250000X-0.237500X0*%
%ADD18R,0.900000X0.400000*%
%ADD19RoundRect,0.237500X-0.237500X0.300000X-0.237500X-0.300000X0.237500X-0.300000X0.237500X0.300000X0*%
%ADD20R,2.000000X2.400000*%
%ADD21RoundRect,0.225000X-0.225000X-0.375000X0.225000X-0.375000X0.225000X0.375000X-0.225000X0.375000X0*%
%ADD22RoundRect,0.150000X0.150000X-0.587500X0.150000X0.587500X-0.150000X0.587500X-0.150000X-0.587500X0*%
%ADD23RoundRect,0.100000X-0.712500X-0.100000X0.712500X-0.100000X0.712500X0.100000X-0.712500X0.100000X0*%
%ADD24RoundRect,0.250000X0.275000X0.350000X-0.275000X0.350000X-0.275000X-0.350000X0.275000X-0.350000X0*%
%ADD25RoundRect,0.250000X-1.450000X0.400000X-1.450000X-0.400000X1.450000X-0.400000X1.450000X0.400000X0*%
G04 APERTURE END LIST*
D10*
G04 #@! TO.C,R508*
X133199500Y-89281000D03*
X135024500Y-89281000D03*
G04 #@! TD*
D11*
G04 #@! TO.C,C503*
X131037500Y-96393000D03*
X129312500Y-96393000D03*
G04 #@! TD*
D12*
G04 #@! TO.C,C411*
X151511000Y-67918500D03*
X151511000Y-66193500D03*
G04 #@! TD*
D13*
G04 #@! TO.C,C201*
X187667500Y-87630000D03*
X190792500Y-87630000D03*
G04 #@! TD*
D14*
G04 #@! TO.C,R405*
X158496000Y-83970500D03*
X158496000Y-82145500D03*
G04 #@! TD*
D11*
G04 #@! TO.C,C403*
X154405500Y-74930000D03*
X152680500Y-74930000D03*
G04 #@! TD*
D13*
G04 #@! TO.C,C202*
X187667500Y-90043000D03*
X190792500Y-90043000D03*
G04 #@! TD*
D15*
G04 #@! TO.C,C505*
X141123500Y-75946000D03*
X142848500Y-75946000D03*
G04 #@! TD*
D16*
G04 #@! TO.C,R311*
X176911000Y-82399500D03*
X176911000Y-84224500D03*
G04 #@! TD*
D12*
G04 #@! TO.C,C308*
X170307000Y-73760500D03*
X170307000Y-72035500D03*
G04 #@! TD*
D17*
G04 #@! TO.C,R505*
X130412500Y-80518000D03*
X128587500Y-80518000D03*
G04 #@! TD*
D15*
G04 #@! TO.C,C417*
X149251500Y-73025000D03*
X150976500Y-73025000D03*
G04 #@! TD*
D18*
G04 #@! TO.C,RN303*
X185205000Y-76130000D03*
X185205000Y-75330000D03*
X185205000Y-74530000D03*
X185205000Y-73730000D03*
X186905000Y-73730000D03*
X186905000Y-74530000D03*
X186905000Y-75330000D03*
X186905000Y-76130000D03*
G04 #@! TD*
D12*
G04 #@! TO.C,C409*
X153035000Y-67918500D03*
X153035000Y-66193500D03*
G04 #@! TD*
G04 #@! TO.C,C305*
X168783000Y-73760500D03*
X168783000Y-72035500D03*
G04 #@! TD*
D19*
G04 #@! TO.C,C401*
X160528000Y-76480500D03*
X160528000Y-78205500D03*
G04 #@! TD*
D11*
G04 #@! TO.C,C501*
X134974500Y-82042000D03*
X133249500Y-82042000D03*
G04 #@! TD*
D16*
G04 #@! TO.C,R317*
X176911000Y-78970500D03*
X176911000Y-80795500D03*
G04 #@! TD*
D20*
G04 #@! TO.C,Y401*
X155035000Y-79121000D03*
X151035000Y-79121000D03*
G04 #@! TD*
D14*
G04 #@! TO.C,R404*
X156972000Y-83970500D03*
X156972000Y-82145500D03*
G04 #@! TD*
D10*
G04 #@! TO.C,R502*
X128627500Y-87376000D03*
X130452500Y-87376000D03*
G04 #@! TD*
G04 #@! TO.C,R514*
X139168500Y-78994000D03*
X140993500Y-78994000D03*
G04 #@! TD*
D21*
G04 #@! TO.C,D202*
X180712000Y-90551000D03*
X184012000Y-90551000D03*
G04 #@! TD*
D15*
G04 #@! TO.C,C510*
X128677500Y-84074000D03*
X130402500Y-84074000D03*
G04 #@! TD*
D22*
G04 #@! TO.C,D201*
X185735000Y-97014500D03*
X183835000Y-97014500D03*
X184785000Y-95139500D03*
G04 #@! TD*
D10*
G04 #@! TO.C,R507*
X133199500Y-84582000D03*
X135024500Y-84582000D03*
G04 #@! TD*
D15*
G04 #@! TO.C,C508*
X139218500Y-89408000D03*
X140943500Y-89408000D03*
G04 #@! TD*
D19*
G04 #@! TO.C,C415*
X157099000Y-78258500D03*
X157099000Y-79983500D03*
G04 #@! TD*
G04 #@! TO.C,C408*
X145034000Y-89434500D03*
X145034000Y-91159500D03*
G04 #@! TD*
D15*
G04 #@! TO.C,C420*
X149251500Y-74676000D03*
X150976500Y-74676000D03*
G04 #@! TD*
D19*
G04 #@! TO.C,C406*
X145034000Y-76988500D03*
X145034000Y-78713500D03*
G04 #@! TD*
G04 #@! TO.C,C307*
X169926000Y-81941500D03*
X169926000Y-83666500D03*
G04 #@! TD*
G04 #@! TO.C,C418*
X146685000Y-89434500D03*
X146685000Y-91159500D03*
G04 #@! TD*
D12*
G04 #@! TO.C,C405*
X157734000Y-67918500D03*
X157734000Y-66193500D03*
G04 #@! TD*
G04 #@! TO.C,C304*
X171577000Y-69823500D03*
X171577000Y-68098500D03*
G04 #@! TD*
D17*
G04 #@! TO.C,R202*
X178966500Y-90551000D03*
X177141500Y-90551000D03*
G04 #@! TD*
D16*
G04 #@! TO.C,R401*
X164211000Y-68302500D03*
X164211000Y-70127500D03*
G04 #@! TD*
D12*
G04 #@! TO.C,C407*
X156210000Y-67918500D03*
X156210000Y-66193500D03*
G04 #@! TD*
D14*
G04 #@! TO.C,R403*
X160528000Y-81684500D03*
X160528000Y-79859500D03*
G04 #@! TD*
D23*
G04 #@! TO.C,U404*
X150922500Y-84033000D03*
X150922500Y-83383000D03*
X150922500Y-82733000D03*
X150922500Y-82083000D03*
X155147500Y-82083000D03*
X155147500Y-82733000D03*
X155147500Y-83383000D03*
X155147500Y-84033000D03*
G04 #@! TD*
D10*
G04 #@! TO.C,R513*
X139168500Y-80518000D03*
X140993500Y-80518000D03*
G04 #@! TD*
D15*
G04 #@! TO.C,C511*
X128677500Y-85725000D03*
X130402500Y-85725000D03*
G04 #@! TD*
D11*
G04 #@! TO.C,C502*
X134974500Y-77216000D03*
X133249500Y-77216000D03*
G04 #@! TD*
D19*
G04 #@! TO.C,C412*
X153035000Y-69495500D03*
X153035000Y-71220500D03*
G04 #@! TD*
D11*
G04 #@! TO.C,C312*
X177773500Y-77470000D03*
X176048500Y-77470000D03*
G04 #@! TD*
D15*
G04 #@! TO.C,C410*
X159030500Y-90297000D03*
X160755500Y-90297000D03*
G04 #@! TD*
D11*
G04 #@! TO.C,C507*
X139038500Y-75946000D03*
X137313500Y-75946000D03*
G04 #@! TD*
G04 #@! TO.C,C419*
X157326500Y-90297000D03*
X155601500Y-90297000D03*
G04 #@! TD*
D12*
G04 #@! TO.C,C311*
X182245000Y-70585500D03*
X182245000Y-68860500D03*
G04 #@! TD*
D19*
G04 #@! TO.C,C309*
X172212000Y-77750500D03*
X172212000Y-79475500D03*
G04 #@! TD*
G04 #@! TO.C,C414*
X154813000Y-96292500D03*
X154813000Y-98017500D03*
G04 #@! TD*
D11*
G04 #@! TO.C,C306*
X165708500Y-72644000D03*
X163983500Y-72644000D03*
G04 #@! TD*
D15*
G04 #@! TO.C,C413*
X156236500Y-74930000D03*
X157961500Y-74930000D03*
G04 #@! TD*
D24*
G04 #@! TO.C,FB401*
X147327000Y-74168000D03*
X145027000Y-74168000D03*
G04 #@! TD*
D17*
G04 #@! TO.C,R515*
X140993500Y-77470000D03*
X139168500Y-77470000D03*
G04 #@! TD*
D12*
G04 #@! TO.C,C402*
X162433000Y-67918500D03*
X162433000Y-66193500D03*
G04 #@! TD*
G04 #@! TO.C,C301*
X167513000Y-69823500D03*
X167513000Y-68098500D03*
G04 #@! TD*
D17*
G04 #@! TO.C,R503*
X130452500Y-78740000D03*
X128627500Y-78740000D03*
G04 #@! TD*
D19*
G04 #@! TO.C,C416*
X148971000Y-78258500D03*
X148971000Y-79983500D03*
G04 #@! TD*
D16*
G04 #@! TO.C,R312*
X172212000Y-71985500D03*
X172212000Y-73810500D03*
G04 #@! TD*
D18*
G04 #@! TO.C,RN301*
X165696000Y-74873000D03*
X165696000Y-75673000D03*
X165696000Y-76473000D03*
X165696000Y-77273000D03*
X163996000Y-77273000D03*
X163996000Y-76473000D03*
X163996000Y-75673000D03*
X163996000Y-74873000D03*
G04 #@! TD*
D12*
G04 #@! TO.C,C404*
X160909000Y-67918500D03*
X160909000Y-66193500D03*
G04 #@! TD*
D10*
G04 #@! TO.C,R504*
X128627500Y-76962000D03*
X130452500Y-76962000D03*
G04 #@! TD*
D17*
G04 #@! TO.C,R510*
X135024500Y-91567000D03*
X133199500Y-91567000D03*
G04 #@! TD*
D14*
G04 #@! TO.C,R318*
X176911000Y-70635500D03*
X176911000Y-68810500D03*
G04 #@! TD*
D10*
G04 #@! TO.C,R301*
X163933500Y-78867000D03*
X165758500Y-78867000D03*
G04 #@! TD*
D15*
G04 #@! TO.C,C509*
X128677500Y-82550000D03*
X130402500Y-82550000D03*
G04 #@! TD*
D17*
G04 #@! TO.C,R512*
X140993500Y-87503000D03*
X139168500Y-87503000D03*
G04 #@! TD*
D14*
G04 #@! TO.C,R402*
X152400000Y-98067500D03*
X152400000Y-96242500D03*
G04 #@! TD*
D19*
G04 #@! TO.C,C310*
X171450000Y-81941500D03*
X171450000Y-83666500D03*
G04 #@! TD*
D15*
G04 #@! TO.C,C421*
X152172500Y-85725000D03*
X153897500Y-85725000D03*
G04 #@! TD*
D17*
G04 #@! TO.C,R509*
X135024500Y-86868000D03*
X133199500Y-86868000D03*
G04 #@! TD*
D12*
G04 #@! TO.C,C302*
X167259000Y-73760500D03*
X167259000Y-72035500D03*
G04 #@! TD*
D25*
G04 #@! TO.C,F201*
X189484000Y-93406000D03*
X189484000Y-97856000D03*
G04 #@! TD*
M02*
