G04 #@! TF.GenerationSoftware,KiCad,Pcbnew,8.0.1*
G04 #@! TF.CreationDate,2024-03-27T20:13:15+01:00*
G04 #@! TF.ProjectId,ETH1HMSR-SMS,45544831-484d-4535-922d-534d532e6b69,rev?*
G04 #@! TF.SameCoordinates,Original*
G04 #@! TF.FileFunction,Legend,Bot*
G04 #@! TF.FilePolarity,Positive*
%FSLAX46Y46*%
G04 Gerber Fmt 4.6, Leading zero omitted, Abs format (unit mm)*
G04 Created by KiCad (PCBNEW 8.0.1) date 2024-03-27 20:13:15*
%MOMM*%
%LPD*%
G01*
G04 APERTURE LIST*
%ADD10C,0.500000*%
%ADD11C,0.150000*%
%ADD12C,0.300000*%
%ADD13C,0.120000*%
%ADD14C,0.381000*%
%ADD15C,0.200000*%
%ADD16C,0.450000*%
%ADD17C,0.250000*%
%ADD18C,0.400000*%
%ADD19C,0.000000*%
G04 APERTURE END LIST*
D10*
X197358000Y-93472000D02*
X198628000Y-93472000D01*
X197993000Y-89154000D02*
X197993000Y-87884000D01*
X197993000Y-94107000D02*
X197993000Y-92837000D01*
D11*
X121285000Y-67945000D02*
X121285000Y-66295000D01*
X121285000Y-65695000D02*
X121285000Y-64045000D01*
X121285000Y-63445000D02*
X121285000Y-61795000D01*
X121285000Y-61195000D02*
X121285000Y-60960000D01*
X121285000Y-104140000D02*
X121285000Y-102490000D01*
X121285000Y-101890000D02*
X121285000Y-100240000D01*
X121285000Y-99640000D02*
X121285000Y-97990000D01*
X121285000Y-97390000D02*
X121285000Y-97155000D01*
D12*
X198906917Y-84978400D02*
X197992632Y-84978400D01*
X198449774Y-85435542D02*
X198449774Y-84521257D01*
X197478346Y-84349828D02*
X197421203Y-84292685D01*
X197421203Y-84292685D02*
X197306918Y-84235542D01*
X197306918Y-84235542D02*
X197021203Y-84235542D01*
X197021203Y-84235542D02*
X196906918Y-84292685D01*
X196906918Y-84292685D02*
X196849775Y-84349828D01*
X196849775Y-84349828D02*
X196792632Y-84464114D01*
X196792632Y-84464114D02*
X196792632Y-84578400D01*
X196792632Y-84578400D02*
X196849775Y-84749828D01*
X196849775Y-84749828D02*
X197535489Y-85435542D01*
X197535489Y-85435542D02*
X196792632Y-85435542D01*
X195764061Y-84635542D02*
X195764061Y-85435542D01*
X196049775Y-84178400D02*
X196335489Y-85035542D01*
X196335489Y-85035542D02*
X195592632Y-85035542D01*
X194392632Y-84235542D02*
X193992632Y-85435542D01*
X193992632Y-85435542D02*
X193592632Y-84235542D01*
X193192632Y-85435542D02*
X193192632Y-84235542D01*
X193192632Y-84235542D02*
X192906918Y-84235542D01*
X192906918Y-84235542D02*
X192735489Y-84292685D01*
X192735489Y-84292685D02*
X192621204Y-84406971D01*
X192621204Y-84406971D02*
X192564061Y-84521257D01*
X192564061Y-84521257D02*
X192506918Y-84749828D01*
X192506918Y-84749828D02*
X192506918Y-84921257D01*
X192506918Y-84921257D02*
X192564061Y-85149828D01*
X192564061Y-85149828D02*
X192621204Y-85264114D01*
X192621204Y-85264114D02*
X192735489Y-85378400D01*
X192735489Y-85378400D02*
X192906918Y-85435542D01*
X192906918Y-85435542D02*
X193192632Y-85435542D01*
X191306918Y-85321257D02*
X191364061Y-85378400D01*
X191364061Y-85378400D02*
X191535489Y-85435542D01*
X191535489Y-85435542D02*
X191649775Y-85435542D01*
X191649775Y-85435542D02*
X191821204Y-85378400D01*
X191821204Y-85378400D02*
X191935489Y-85264114D01*
X191935489Y-85264114D02*
X191992632Y-85149828D01*
X191992632Y-85149828D02*
X192049775Y-84921257D01*
X192049775Y-84921257D02*
X192049775Y-84749828D01*
X192049775Y-84749828D02*
X191992632Y-84521257D01*
X191992632Y-84521257D02*
X191935489Y-84406971D01*
X191935489Y-84406971D02*
X191821204Y-84292685D01*
X191821204Y-84292685D02*
X191649775Y-84235542D01*
X191649775Y-84235542D02*
X191535489Y-84235542D01*
X191535489Y-84235542D02*
X191364061Y-84292685D01*
X191364061Y-84292685D02*
X191306918Y-84349828D01*
D13*
X134783428Y-88409331D02*
X134983428Y-88123617D01*
X135126285Y-88409331D02*
X135126285Y-87809331D01*
X135126285Y-87809331D02*
X134897714Y-87809331D01*
X134897714Y-87809331D02*
X134840571Y-87837902D01*
X134840571Y-87837902D02*
X134812000Y-87866474D01*
X134812000Y-87866474D02*
X134783428Y-87923617D01*
X134783428Y-87923617D02*
X134783428Y-88009331D01*
X134783428Y-88009331D02*
X134812000Y-88066474D01*
X134812000Y-88066474D02*
X134840571Y-88095045D01*
X134840571Y-88095045D02*
X134897714Y-88123617D01*
X134897714Y-88123617D02*
X135126285Y-88123617D01*
X134240571Y-87809331D02*
X134526285Y-87809331D01*
X134526285Y-87809331D02*
X134554857Y-88095045D01*
X134554857Y-88095045D02*
X134526285Y-88066474D01*
X134526285Y-88066474D02*
X134469143Y-88037902D01*
X134469143Y-88037902D02*
X134326285Y-88037902D01*
X134326285Y-88037902D02*
X134269143Y-88066474D01*
X134269143Y-88066474D02*
X134240571Y-88095045D01*
X134240571Y-88095045D02*
X134212000Y-88152188D01*
X134212000Y-88152188D02*
X134212000Y-88295045D01*
X134212000Y-88295045D02*
X134240571Y-88352188D01*
X134240571Y-88352188D02*
X134269143Y-88380760D01*
X134269143Y-88380760D02*
X134326285Y-88409331D01*
X134326285Y-88409331D02*
X134469143Y-88409331D01*
X134469143Y-88409331D02*
X134526285Y-88380760D01*
X134526285Y-88380760D02*
X134554857Y-88352188D01*
X133840571Y-87809331D02*
X133783428Y-87809331D01*
X133783428Y-87809331D02*
X133726285Y-87837902D01*
X133726285Y-87837902D02*
X133697714Y-87866474D01*
X133697714Y-87866474D02*
X133669142Y-87923617D01*
X133669142Y-87923617D02*
X133640571Y-88037902D01*
X133640571Y-88037902D02*
X133640571Y-88180760D01*
X133640571Y-88180760D02*
X133669142Y-88295045D01*
X133669142Y-88295045D02*
X133697714Y-88352188D01*
X133697714Y-88352188D02*
X133726285Y-88380760D01*
X133726285Y-88380760D02*
X133783428Y-88409331D01*
X133783428Y-88409331D02*
X133840571Y-88409331D01*
X133840571Y-88409331D02*
X133897714Y-88380760D01*
X133897714Y-88380760D02*
X133926285Y-88352188D01*
X133926285Y-88352188D02*
X133954856Y-88295045D01*
X133954856Y-88295045D02*
X133983428Y-88180760D01*
X133983428Y-88180760D02*
X133983428Y-88037902D01*
X133983428Y-88037902D02*
X133954856Y-87923617D01*
X133954856Y-87923617D02*
X133926285Y-87866474D01*
X133926285Y-87866474D02*
X133897714Y-87837902D01*
X133897714Y-87837902D02*
X133840571Y-87809331D01*
X133297713Y-88066474D02*
X133354856Y-88037902D01*
X133354856Y-88037902D02*
X133383427Y-88009331D01*
X133383427Y-88009331D02*
X133411999Y-87952188D01*
X133411999Y-87952188D02*
X133411999Y-87923617D01*
X133411999Y-87923617D02*
X133383427Y-87866474D01*
X133383427Y-87866474D02*
X133354856Y-87837902D01*
X133354856Y-87837902D02*
X133297713Y-87809331D01*
X133297713Y-87809331D02*
X133183427Y-87809331D01*
X133183427Y-87809331D02*
X133126285Y-87837902D01*
X133126285Y-87837902D02*
X133097713Y-87866474D01*
X133097713Y-87866474D02*
X133069142Y-87923617D01*
X133069142Y-87923617D02*
X133069142Y-87952188D01*
X133069142Y-87952188D02*
X133097713Y-88009331D01*
X133097713Y-88009331D02*
X133126285Y-88037902D01*
X133126285Y-88037902D02*
X133183427Y-88066474D01*
X133183427Y-88066474D02*
X133297713Y-88066474D01*
X133297713Y-88066474D02*
X133354856Y-88095045D01*
X133354856Y-88095045D02*
X133383427Y-88123617D01*
X133383427Y-88123617D02*
X133411999Y-88180760D01*
X133411999Y-88180760D02*
X133411999Y-88295045D01*
X133411999Y-88295045D02*
X133383427Y-88352188D01*
X133383427Y-88352188D02*
X133354856Y-88380760D01*
X133354856Y-88380760D02*
X133297713Y-88409331D01*
X133297713Y-88409331D02*
X133183427Y-88409331D01*
X133183427Y-88409331D02*
X133126285Y-88380760D01*
X133126285Y-88380760D02*
X133097713Y-88352188D01*
X133097713Y-88352188D02*
X133069142Y-88295045D01*
X133069142Y-88295045D02*
X133069142Y-88180760D01*
X133069142Y-88180760D02*
X133097713Y-88123617D01*
X133097713Y-88123617D02*
X133126285Y-88095045D01*
X133126285Y-88095045D02*
X133183427Y-88066474D01*
X130846428Y-95464188D02*
X130875000Y-95492760D01*
X130875000Y-95492760D02*
X130960714Y-95521331D01*
X130960714Y-95521331D02*
X131017857Y-95521331D01*
X131017857Y-95521331D02*
X131103571Y-95492760D01*
X131103571Y-95492760D02*
X131160714Y-95435617D01*
X131160714Y-95435617D02*
X131189285Y-95378474D01*
X131189285Y-95378474D02*
X131217857Y-95264188D01*
X131217857Y-95264188D02*
X131217857Y-95178474D01*
X131217857Y-95178474D02*
X131189285Y-95064188D01*
X131189285Y-95064188D02*
X131160714Y-95007045D01*
X131160714Y-95007045D02*
X131103571Y-94949902D01*
X131103571Y-94949902D02*
X131017857Y-94921331D01*
X131017857Y-94921331D02*
X130960714Y-94921331D01*
X130960714Y-94921331D02*
X130875000Y-94949902D01*
X130875000Y-94949902D02*
X130846428Y-94978474D01*
X130303571Y-94921331D02*
X130589285Y-94921331D01*
X130589285Y-94921331D02*
X130617857Y-95207045D01*
X130617857Y-95207045D02*
X130589285Y-95178474D01*
X130589285Y-95178474D02*
X130532143Y-95149902D01*
X130532143Y-95149902D02*
X130389285Y-95149902D01*
X130389285Y-95149902D02*
X130332143Y-95178474D01*
X130332143Y-95178474D02*
X130303571Y-95207045D01*
X130303571Y-95207045D02*
X130275000Y-95264188D01*
X130275000Y-95264188D02*
X130275000Y-95407045D01*
X130275000Y-95407045D02*
X130303571Y-95464188D01*
X130303571Y-95464188D02*
X130332143Y-95492760D01*
X130332143Y-95492760D02*
X130389285Y-95521331D01*
X130389285Y-95521331D02*
X130532143Y-95521331D01*
X130532143Y-95521331D02*
X130589285Y-95492760D01*
X130589285Y-95492760D02*
X130617857Y-95464188D01*
X129903571Y-94921331D02*
X129846428Y-94921331D01*
X129846428Y-94921331D02*
X129789285Y-94949902D01*
X129789285Y-94949902D02*
X129760714Y-94978474D01*
X129760714Y-94978474D02*
X129732142Y-95035617D01*
X129732142Y-95035617D02*
X129703571Y-95149902D01*
X129703571Y-95149902D02*
X129703571Y-95292760D01*
X129703571Y-95292760D02*
X129732142Y-95407045D01*
X129732142Y-95407045D02*
X129760714Y-95464188D01*
X129760714Y-95464188D02*
X129789285Y-95492760D01*
X129789285Y-95492760D02*
X129846428Y-95521331D01*
X129846428Y-95521331D02*
X129903571Y-95521331D01*
X129903571Y-95521331D02*
X129960714Y-95492760D01*
X129960714Y-95492760D02*
X129989285Y-95464188D01*
X129989285Y-95464188D02*
X130017856Y-95407045D01*
X130017856Y-95407045D02*
X130046428Y-95292760D01*
X130046428Y-95292760D02*
X130046428Y-95149902D01*
X130046428Y-95149902D02*
X130017856Y-95035617D01*
X130017856Y-95035617D02*
X129989285Y-94978474D01*
X129989285Y-94978474D02*
X129960714Y-94949902D01*
X129960714Y-94949902D02*
X129903571Y-94921331D01*
X129503570Y-94921331D02*
X129132142Y-94921331D01*
X129132142Y-94921331D02*
X129332142Y-95149902D01*
X129332142Y-95149902D02*
X129246427Y-95149902D01*
X129246427Y-95149902D02*
X129189285Y-95178474D01*
X129189285Y-95178474D02*
X129160713Y-95207045D01*
X129160713Y-95207045D02*
X129132142Y-95264188D01*
X129132142Y-95264188D02*
X129132142Y-95407045D01*
X129132142Y-95407045D02*
X129160713Y-95464188D01*
X129160713Y-95464188D02*
X129189285Y-95492760D01*
X129189285Y-95492760D02*
X129246427Y-95521331D01*
X129246427Y-95521331D02*
X129417856Y-95521331D01*
X129417856Y-95521331D02*
X129474999Y-95492760D01*
X129474999Y-95492760D02*
X129503570Y-95464188D01*
X150582188Y-66384571D02*
X150610760Y-66355999D01*
X150610760Y-66355999D02*
X150639331Y-66270285D01*
X150639331Y-66270285D02*
X150639331Y-66213142D01*
X150639331Y-66213142D02*
X150610760Y-66127428D01*
X150610760Y-66127428D02*
X150553617Y-66070285D01*
X150553617Y-66070285D02*
X150496474Y-66041714D01*
X150496474Y-66041714D02*
X150382188Y-66013142D01*
X150382188Y-66013142D02*
X150296474Y-66013142D01*
X150296474Y-66013142D02*
X150182188Y-66041714D01*
X150182188Y-66041714D02*
X150125045Y-66070285D01*
X150125045Y-66070285D02*
X150067902Y-66127428D01*
X150067902Y-66127428D02*
X150039331Y-66213142D01*
X150039331Y-66213142D02*
X150039331Y-66270285D01*
X150039331Y-66270285D02*
X150067902Y-66355999D01*
X150067902Y-66355999D02*
X150096474Y-66384571D01*
X150239331Y-66898857D02*
X150639331Y-66898857D01*
X150010760Y-66755999D02*
X150439331Y-66613142D01*
X150439331Y-66613142D02*
X150439331Y-66984571D01*
X150639331Y-67527428D02*
X150639331Y-67184571D01*
X150639331Y-67356000D02*
X150039331Y-67356000D01*
X150039331Y-67356000D02*
X150125045Y-67298857D01*
X150125045Y-67298857D02*
X150182188Y-67241714D01*
X150182188Y-67241714D02*
X150210760Y-67184571D01*
X150639331Y-68098857D02*
X150639331Y-67756000D01*
X150639331Y-67927429D02*
X150039331Y-67927429D01*
X150039331Y-67927429D02*
X150125045Y-67870286D01*
X150125045Y-67870286D02*
X150182188Y-67813143D01*
X150182188Y-67813143D02*
X150210760Y-67756000D01*
X189901428Y-86215188D02*
X189930000Y-86243760D01*
X189930000Y-86243760D02*
X190015714Y-86272331D01*
X190015714Y-86272331D02*
X190072857Y-86272331D01*
X190072857Y-86272331D02*
X190158571Y-86243760D01*
X190158571Y-86243760D02*
X190215714Y-86186617D01*
X190215714Y-86186617D02*
X190244285Y-86129474D01*
X190244285Y-86129474D02*
X190272857Y-86015188D01*
X190272857Y-86015188D02*
X190272857Y-85929474D01*
X190272857Y-85929474D02*
X190244285Y-85815188D01*
X190244285Y-85815188D02*
X190215714Y-85758045D01*
X190215714Y-85758045D02*
X190158571Y-85700902D01*
X190158571Y-85700902D02*
X190072857Y-85672331D01*
X190072857Y-85672331D02*
X190015714Y-85672331D01*
X190015714Y-85672331D02*
X189930000Y-85700902D01*
X189930000Y-85700902D02*
X189901428Y-85729474D01*
X189672857Y-85729474D02*
X189644285Y-85700902D01*
X189644285Y-85700902D02*
X189587143Y-85672331D01*
X189587143Y-85672331D02*
X189444285Y-85672331D01*
X189444285Y-85672331D02*
X189387143Y-85700902D01*
X189387143Y-85700902D02*
X189358571Y-85729474D01*
X189358571Y-85729474D02*
X189330000Y-85786617D01*
X189330000Y-85786617D02*
X189330000Y-85843760D01*
X189330000Y-85843760D02*
X189358571Y-85929474D01*
X189358571Y-85929474D02*
X189701428Y-86272331D01*
X189701428Y-86272331D02*
X189330000Y-86272331D01*
X188958571Y-85672331D02*
X188901428Y-85672331D01*
X188901428Y-85672331D02*
X188844285Y-85700902D01*
X188844285Y-85700902D02*
X188815714Y-85729474D01*
X188815714Y-85729474D02*
X188787142Y-85786617D01*
X188787142Y-85786617D02*
X188758571Y-85900902D01*
X188758571Y-85900902D02*
X188758571Y-86043760D01*
X188758571Y-86043760D02*
X188787142Y-86158045D01*
X188787142Y-86158045D02*
X188815714Y-86215188D01*
X188815714Y-86215188D02*
X188844285Y-86243760D01*
X188844285Y-86243760D02*
X188901428Y-86272331D01*
X188901428Y-86272331D02*
X188958571Y-86272331D01*
X188958571Y-86272331D02*
X189015714Y-86243760D01*
X189015714Y-86243760D02*
X189044285Y-86215188D01*
X189044285Y-86215188D02*
X189072856Y-86158045D01*
X189072856Y-86158045D02*
X189101428Y-86043760D01*
X189101428Y-86043760D02*
X189101428Y-85900902D01*
X189101428Y-85900902D02*
X189072856Y-85786617D01*
X189072856Y-85786617D02*
X189044285Y-85729474D01*
X189044285Y-85729474D02*
X189015714Y-85700902D01*
X189015714Y-85700902D02*
X188958571Y-85672331D01*
X188187142Y-86272331D02*
X188529999Y-86272331D01*
X188358570Y-86272331D02*
X188358570Y-85672331D01*
X188358570Y-85672331D02*
X188415713Y-85758045D01*
X188415713Y-85758045D02*
X188472856Y-85815188D01*
X188472856Y-85815188D02*
X188529999Y-85843760D01*
X159021331Y-85180571D02*
X158735617Y-84980571D01*
X159021331Y-84837714D02*
X158421331Y-84837714D01*
X158421331Y-84837714D02*
X158421331Y-85066285D01*
X158421331Y-85066285D02*
X158449902Y-85123428D01*
X158449902Y-85123428D02*
X158478474Y-85151999D01*
X158478474Y-85151999D02*
X158535617Y-85180571D01*
X158535617Y-85180571D02*
X158621331Y-85180571D01*
X158621331Y-85180571D02*
X158678474Y-85151999D01*
X158678474Y-85151999D02*
X158707045Y-85123428D01*
X158707045Y-85123428D02*
X158735617Y-85066285D01*
X158735617Y-85066285D02*
X158735617Y-84837714D01*
X158621331Y-85694857D02*
X159021331Y-85694857D01*
X158392760Y-85551999D02*
X158821331Y-85409142D01*
X158821331Y-85409142D02*
X158821331Y-85780571D01*
X158421331Y-86123428D02*
X158421331Y-86180571D01*
X158421331Y-86180571D02*
X158449902Y-86237714D01*
X158449902Y-86237714D02*
X158478474Y-86266286D01*
X158478474Y-86266286D02*
X158535617Y-86294857D01*
X158535617Y-86294857D02*
X158649902Y-86323428D01*
X158649902Y-86323428D02*
X158792760Y-86323428D01*
X158792760Y-86323428D02*
X158907045Y-86294857D01*
X158907045Y-86294857D02*
X158964188Y-86266286D01*
X158964188Y-86266286D02*
X158992760Y-86237714D01*
X158992760Y-86237714D02*
X159021331Y-86180571D01*
X159021331Y-86180571D02*
X159021331Y-86123428D01*
X159021331Y-86123428D02*
X158992760Y-86066286D01*
X158992760Y-86066286D02*
X158964188Y-86037714D01*
X158964188Y-86037714D02*
X158907045Y-86009143D01*
X158907045Y-86009143D02*
X158792760Y-85980571D01*
X158792760Y-85980571D02*
X158649902Y-85980571D01*
X158649902Y-85980571D02*
X158535617Y-86009143D01*
X158535617Y-86009143D02*
X158478474Y-86037714D01*
X158478474Y-86037714D02*
X158449902Y-86066286D01*
X158449902Y-86066286D02*
X158421331Y-86123428D01*
X158421331Y-86866286D02*
X158421331Y-86580572D01*
X158421331Y-86580572D02*
X158707045Y-86552000D01*
X158707045Y-86552000D02*
X158678474Y-86580572D01*
X158678474Y-86580572D02*
X158649902Y-86637715D01*
X158649902Y-86637715D02*
X158649902Y-86780572D01*
X158649902Y-86780572D02*
X158678474Y-86837715D01*
X158678474Y-86837715D02*
X158707045Y-86866286D01*
X158707045Y-86866286D02*
X158764188Y-86894857D01*
X158764188Y-86894857D02*
X158907045Y-86894857D01*
X158907045Y-86894857D02*
X158964188Y-86866286D01*
X158964188Y-86866286D02*
X158992760Y-86837715D01*
X158992760Y-86837715D02*
X159021331Y-86780572D01*
X159021331Y-86780572D02*
X159021331Y-86637715D01*
X159021331Y-86637715D02*
X158992760Y-86580572D01*
X158992760Y-86580572D02*
X158964188Y-86552000D01*
X154214428Y-74001188D02*
X154243000Y-74029760D01*
X154243000Y-74029760D02*
X154328714Y-74058331D01*
X154328714Y-74058331D02*
X154385857Y-74058331D01*
X154385857Y-74058331D02*
X154471571Y-74029760D01*
X154471571Y-74029760D02*
X154528714Y-73972617D01*
X154528714Y-73972617D02*
X154557285Y-73915474D01*
X154557285Y-73915474D02*
X154585857Y-73801188D01*
X154585857Y-73801188D02*
X154585857Y-73715474D01*
X154585857Y-73715474D02*
X154557285Y-73601188D01*
X154557285Y-73601188D02*
X154528714Y-73544045D01*
X154528714Y-73544045D02*
X154471571Y-73486902D01*
X154471571Y-73486902D02*
X154385857Y-73458331D01*
X154385857Y-73458331D02*
X154328714Y-73458331D01*
X154328714Y-73458331D02*
X154243000Y-73486902D01*
X154243000Y-73486902D02*
X154214428Y-73515474D01*
X153700143Y-73658331D02*
X153700143Y-74058331D01*
X153843000Y-73429760D02*
X153985857Y-73858331D01*
X153985857Y-73858331D02*
X153614428Y-73858331D01*
X153271571Y-73458331D02*
X153214428Y-73458331D01*
X153214428Y-73458331D02*
X153157285Y-73486902D01*
X153157285Y-73486902D02*
X153128714Y-73515474D01*
X153128714Y-73515474D02*
X153100142Y-73572617D01*
X153100142Y-73572617D02*
X153071571Y-73686902D01*
X153071571Y-73686902D02*
X153071571Y-73829760D01*
X153071571Y-73829760D02*
X153100142Y-73944045D01*
X153100142Y-73944045D02*
X153128714Y-74001188D01*
X153128714Y-74001188D02*
X153157285Y-74029760D01*
X153157285Y-74029760D02*
X153214428Y-74058331D01*
X153214428Y-74058331D02*
X153271571Y-74058331D01*
X153271571Y-74058331D02*
X153328714Y-74029760D01*
X153328714Y-74029760D02*
X153357285Y-74001188D01*
X153357285Y-74001188D02*
X153385856Y-73944045D01*
X153385856Y-73944045D02*
X153414428Y-73829760D01*
X153414428Y-73829760D02*
X153414428Y-73686902D01*
X153414428Y-73686902D02*
X153385856Y-73572617D01*
X153385856Y-73572617D02*
X153357285Y-73515474D01*
X153357285Y-73515474D02*
X153328714Y-73486902D01*
X153328714Y-73486902D02*
X153271571Y-73458331D01*
X152871570Y-73458331D02*
X152500142Y-73458331D01*
X152500142Y-73458331D02*
X152700142Y-73686902D01*
X152700142Y-73686902D02*
X152614427Y-73686902D01*
X152614427Y-73686902D02*
X152557285Y-73715474D01*
X152557285Y-73715474D02*
X152528713Y-73744045D01*
X152528713Y-73744045D02*
X152500142Y-73801188D01*
X152500142Y-73801188D02*
X152500142Y-73944045D01*
X152500142Y-73944045D02*
X152528713Y-74001188D01*
X152528713Y-74001188D02*
X152557285Y-74029760D01*
X152557285Y-74029760D02*
X152614427Y-74058331D01*
X152614427Y-74058331D02*
X152785856Y-74058331D01*
X152785856Y-74058331D02*
X152842999Y-74029760D01*
X152842999Y-74029760D02*
X152871570Y-74001188D01*
X189901428Y-91930188D02*
X189930000Y-91958760D01*
X189930000Y-91958760D02*
X190015714Y-91987331D01*
X190015714Y-91987331D02*
X190072857Y-91987331D01*
X190072857Y-91987331D02*
X190158571Y-91958760D01*
X190158571Y-91958760D02*
X190215714Y-91901617D01*
X190215714Y-91901617D02*
X190244285Y-91844474D01*
X190244285Y-91844474D02*
X190272857Y-91730188D01*
X190272857Y-91730188D02*
X190272857Y-91644474D01*
X190272857Y-91644474D02*
X190244285Y-91530188D01*
X190244285Y-91530188D02*
X190215714Y-91473045D01*
X190215714Y-91473045D02*
X190158571Y-91415902D01*
X190158571Y-91415902D02*
X190072857Y-91387331D01*
X190072857Y-91387331D02*
X190015714Y-91387331D01*
X190015714Y-91387331D02*
X189930000Y-91415902D01*
X189930000Y-91415902D02*
X189901428Y-91444474D01*
X189672857Y-91444474D02*
X189644285Y-91415902D01*
X189644285Y-91415902D02*
X189587143Y-91387331D01*
X189587143Y-91387331D02*
X189444285Y-91387331D01*
X189444285Y-91387331D02*
X189387143Y-91415902D01*
X189387143Y-91415902D02*
X189358571Y-91444474D01*
X189358571Y-91444474D02*
X189330000Y-91501617D01*
X189330000Y-91501617D02*
X189330000Y-91558760D01*
X189330000Y-91558760D02*
X189358571Y-91644474D01*
X189358571Y-91644474D02*
X189701428Y-91987331D01*
X189701428Y-91987331D02*
X189330000Y-91987331D01*
X188958571Y-91387331D02*
X188901428Y-91387331D01*
X188901428Y-91387331D02*
X188844285Y-91415902D01*
X188844285Y-91415902D02*
X188815714Y-91444474D01*
X188815714Y-91444474D02*
X188787142Y-91501617D01*
X188787142Y-91501617D02*
X188758571Y-91615902D01*
X188758571Y-91615902D02*
X188758571Y-91758760D01*
X188758571Y-91758760D02*
X188787142Y-91873045D01*
X188787142Y-91873045D02*
X188815714Y-91930188D01*
X188815714Y-91930188D02*
X188844285Y-91958760D01*
X188844285Y-91958760D02*
X188901428Y-91987331D01*
X188901428Y-91987331D02*
X188958571Y-91987331D01*
X188958571Y-91987331D02*
X189015714Y-91958760D01*
X189015714Y-91958760D02*
X189044285Y-91930188D01*
X189044285Y-91930188D02*
X189072856Y-91873045D01*
X189072856Y-91873045D02*
X189101428Y-91758760D01*
X189101428Y-91758760D02*
X189101428Y-91615902D01*
X189101428Y-91615902D02*
X189072856Y-91501617D01*
X189072856Y-91501617D02*
X189044285Y-91444474D01*
X189044285Y-91444474D02*
X189015714Y-91415902D01*
X189015714Y-91415902D02*
X188958571Y-91387331D01*
X188529999Y-91444474D02*
X188501427Y-91415902D01*
X188501427Y-91415902D02*
X188444285Y-91387331D01*
X188444285Y-91387331D02*
X188301427Y-91387331D01*
X188301427Y-91387331D02*
X188244285Y-91415902D01*
X188244285Y-91415902D02*
X188215713Y-91444474D01*
X188215713Y-91444474D02*
X188187142Y-91501617D01*
X188187142Y-91501617D02*
X188187142Y-91558760D01*
X188187142Y-91558760D02*
X188215713Y-91644474D01*
X188215713Y-91644474D02*
X188558570Y-91987331D01*
X188558570Y-91987331D02*
X188187142Y-91987331D01*
X142657428Y-75017188D02*
X142686000Y-75045760D01*
X142686000Y-75045760D02*
X142771714Y-75074331D01*
X142771714Y-75074331D02*
X142828857Y-75074331D01*
X142828857Y-75074331D02*
X142914571Y-75045760D01*
X142914571Y-75045760D02*
X142971714Y-74988617D01*
X142971714Y-74988617D02*
X143000285Y-74931474D01*
X143000285Y-74931474D02*
X143028857Y-74817188D01*
X143028857Y-74817188D02*
X143028857Y-74731474D01*
X143028857Y-74731474D02*
X143000285Y-74617188D01*
X143000285Y-74617188D02*
X142971714Y-74560045D01*
X142971714Y-74560045D02*
X142914571Y-74502902D01*
X142914571Y-74502902D02*
X142828857Y-74474331D01*
X142828857Y-74474331D02*
X142771714Y-74474331D01*
X142771714Y-74474331D02*
X142686000Y-74502902D01*
X142686000Y-74502902D02*
X142657428Y-74531474D01*
X142114571Y-74474331D02*
X142400285Y-74474331D01*
X142400285Y-74474331D02*
X142428857Y-74760045D01*
X142428857Y-74760045D02*
X142400285Y-74731474D01*
X142400285Y-74731474D02*
X142343143Y-74702902D01*
X142343143Y-74702902D02*
X142200285Y-74702902D01*
X142200285Y-74702902D02*
X142143143Y-74731474D01*
X142143143Y-74731474D02*
X142114571Y-74760045D01*
X142114571Y-74760045D02*
X142086000Y-74817188D01*
X142086000Y-74817188D02*
X142086000Y-74960045D01*
X142086000Y-74960045D02*
X142114571Y-75017188D01*
X142114571Y-75017188D02*
X142143143Y-75045760D01*
X142143143Y-75045760D02*
X142200285Y-75074331D01*
X142200285Y-75074331D02*
X142343143Y-75074331D01*
X142343143Y-75074331D02*
X142400285Y-75045760D01*
X142400285Y-75045760D02*
X142428857Y-75017188D01*
X141714571Y-74474331D02*
X141657428Y-74474331D01*
X141657428Y-74474331D02*
X141600285Y-74502902D01*
X141600285Y-74502902D02*
X141571714Y-74531474D01*
X141571714Y-74531474D02*
X141543142Y-74588617D01*
X141543142Y-74588617D02*
X141514571Y-74702902D01*
X141514571Y-74702902D02*
X141514571Y-74845760D01*
X141514571Y-74845760D02*
X141543142Y-74960045D01*
X141543142Y-74960045D02*
X141571714Y-75017188D01*
X141571714Y-75017188D02*
X141600285Y-75045760D01*
X141600285Y-75045760D02*
X141657428Y-75074331D01*
X141657428Y-75074331D02*
X141714571Y-75074331D01*
X141714571Y-75074331D02*
X141771714Y-75045760D01*
X141771714Y-75045760D02*
X141800285Y-75017188D01*
X141800285Y-75017188D02*
X141828856Y-74960045D01*
X141828856Y-74960045D02*
X141857428Y-74845760D01*
X141857428Y-74845760D02*
X141857428Y-74702902D01*
X141857428Y-74702902D02*
X141828856Y-74588617D01*
X141828856Y-74588617D02*
X141800285Y-74531474D01*
X141800285Y-74531474D02*
X141771714Y-74502902D01*
X141771714Y-74502902D02*
X141714571Y-74474331D01*
X140971713Y-74474331D02*
X141257427Y-74474331D01*
X141257427Y-74474331D02*
X141285999Y-74760045D01*
X141285999Y-74760045D02*
X141257427Y-74731474D01*
X141257427Y-74731474D02*
X141200285Y-74702902D01*
X141200285Y-74702902D02*
X141057427Y-74702902D01*
X141057427Y-74702902D02*
X141000285Y-74731474D01*
X141000285Y-74731474D02*
X140971713Y-74760045D01*
X140971713Y-74760045D02*
X140943142Y-74817188D01*
X140943142Y-74817188D02*
X140943142Y-74960045D01*
X140943142Y-74960045D02*
X140971713Y-75017188D01*
X140971713Y-75017188D02*
X141000285Y-75045760D01*
X141000285Y-75045760D02*
X141057427Y-75074331D01*
X141057427Y-75074331D02*
X141200285Y-75074331D01*
X141200285Y-75074331D02*
X141257427Y-75045760D01*
X141257427Y-75045760D02*
X141285999Y-75017188D01*
X178452331Y-82640571D02*
X178166617Y-82440571D01*
X178452331Y-82297714D02*
X177852331Y-82297714D01*
X177852331Y-82297714D02*
X177852331Y-82526285D01*
X177852331Y-82526285D02*
X177880902Y-82583428D01*
X177880902Y-82583428D02*
X177909474Y-82611999D01*
X177909474Y-82611999D02*
X177966617Y-82640571D01*
X177966617Y-82640571D02*
X178052331Y-82640571D01*
X178052331Y-82640571D02*
X178109474Y-82611999D01*
X178109474Y-82611999D02*
X178138045Y-82583428D01*
X178138045Y-82583428D02*
X178166617Y-82526285D01*
X178166617Y-82526285D02*
X178166617Y-82297714D01*
X177852331Y-82840571D02*
X177852331Y-83211999D01*
X177852331Y-83211999D02*
X178080902Y-83011999D01*
X178080902Y-83011999D02*
X178080902Y-83097714D01*
X178080902Y-83097714D02*
X178109474Y-83154857D01*
X178109474Y-83154857D02*
X178138045Y-83183428D01*
X178138045Y-83183428D02*
X178195188Y-83211999D01*
X178195188Y-83211999D02*
X178338045Y-83211999D01*
X178338045Y-83211999D02*
X178395188Y-83183428D01*
X178395188Y-83183428D02*
X178423760Y-83154857D01*
X178423760Y-83154857D02*
X178452331Y-83097714D01*
X178452331Y-83097714D02*
X178452331Y-82926285D01*
X178452331Y-82926285D02*
X178423760Y-82869142D01*
X178423760Y-82869142D02*
X178395188Y-82840571D01*
X178452331Y-83783428D02*
X178452331Y-83440571D01*
X178452331Y-83612000D02*
X177852331Y-83612000D01*
X177852331Y-83612000D02*
X177938045Y-83554857D01*
X177938045Y-83554857D02*
X177995188Y-83497714D01*
X177995188Y-83497714D02*
X178023760Y-83440571D01*
X178452331Y-84354857D02*
X178452331Y-84012000D01*
X178452331Y-84183429D02*
X177852331Y-84183429D01*
X177852331Y-84183429D02*
X177938045Y-84126286D01*
X177938045Y-84126286D02*
X177995188Y-84069143D01*
X177995188Y-84069143D02*
X178023760Y-84012000D01*
X170521188Y-69432571D02*
X170549760Y-69403999D01*
X170549760Y-69403999D02*
X170578331Y-69318285D01*
X170578331Y-69318285D02*
X170578331Y-69261142D01*
X170578331Y-69261142D02*
X170549760Y-69175428D01*
X170549760Y-69175428D02*
X170492617Y-69118285D01*
X170492617Y-69118285D02*
X170435474Y-69089714D01*
X170435474Y-69089714D02*
X170321188Y-69061142D01*
X170321188Y-69061142D02*
X170235474Y-69061142D01*
X170235474Y-69061142D02*
X170121188Y-69089714D01*
X170121188Y-69089714D02*
X170064045Y-69118285D01*
X170064045Y-69118285D02*
X170006902Y-69175428D01*
X170006902Y-69175428D02*
X169978331Y-69261142D01*
X169978331Y-69261142D02*
X169978331Y-69318285D01*
X169978331Y-69318285D02*
X170006902Y-69403999D01*
X170006902Y-69403999D02*
X170035474Y-69432571D01*
X169978331Y-69632571D02*
X169978331Y-70003999D01*
X169978331Y-70003999D02*
X170206902Y-69803999D01*
X170206902Y-69803999D02*
X170206902Y-69889714D01*
X170206902Y-69889714D02*
X170235474Y-69946857D01*
X170235474Y-69946857D02*
X170264045Y-69975428D01*
X170264045Y-69975428D02*
X170321188Y-70003999D01*
X170321188Y-70003999D02*
X170464045Y-70003999D01*
X170464045Y-70003999D02*
X170521188Y-69975428D01*
X170521188Y-69975428D02*
X170549760Y-69946857D01*
X170549760Y-69946857D02*
X170578331Y-69889714D01*
X170578331Y-69889714D02*
X170578331Y-69718285D01*
X170578331Y-69718285D02*
X170549760Y-69661142D01*
X170549760Y-69661142D02*
X170521188Y-69632571D01*
X169978331Y-70375428D02*
X169978331Y-70432571D01*
X169978331Y-70432571D02*
X170006902Y-70489714D01*
X170006902Y-70489714D02*
X170035474Y-70518286D01*
X170035474Y-70518286D02*
X170092617Y-70546857D01*
X170092617Y-70546857D02*
X170206902Y-70575428D01*
X170206902Y-70575428D02*
X170349760Y-70575428D01*
X170349760Y-70575428D02*
X170464045Y-70546857D01*
X170464045Y-70546857D02*
X170521188Y-70518286D01*
X170521188Y-70518286D02*
X170549760Y-70489714D01*
X170549760Y-70489714D02*
X170578331Y-70432571D01*
X170578331Y-70432571D02*
X170578331Y-70375428D01*
X170578331Y-70375428D02*
X170549760Y-70318286D01*
X170549760Y-70318286D02*
X170521188Y-70289714D01*
X170521188Y-70289714D02*
X170464045Y-70261143D01*
X170464045Y-70261143D02*
X170349760Y-70232571D01*
X170349760Y-70232571D02*
X170206902Y-70232571D01*
X170206902Y-70232571D02*
X170092617Y-70261143D01*
X170092617Y-70261143D02*
X170035474Y-70289714D01*
X170035474Y-70289714D02*
X170006902Y-70318286D01*
X170006902Y-70318286D02*
X169978331Y-70375428D01*
X170235474Y-70918286D02*
X170206902Y-70861143D01*
X170206902Y-70861143D02*
X170178331Y-70832572D01*
X170178331Y-70832572D02*
X170121188Y-70804000D01*
X170121188Y-70804000D02*
X170092617Y-70804000D01*
X170092617Y-70804000D02*
X170035474Y-70832572D01*
X170035474Y-70832572D02*
X170006902Y-70861143D01*
X170006902Y-70861143D02*
X169978331Y-70918286D01*
X169978331Y-70918286D02*
X169978331Y-71032572D01*
X169978331Y-71032572D02*
X170006902Y-71089715D01*
X170006902Y-71089715D02*
X170035474Y-71118286D01*
X170035474Y-71118286D02*
X170092617Y-71146857D01*
X170092617Y-71146857D02*
X170121188Y-71146857D01*
X170121188Y-71146857D02*
X170178331Y-71118286D01*
X170178331Y-71118286D02*
X170206902Y-71089715D01*
X170206902Y-71089715D02*
X170235474Y-71032572D01*
X170235474Y-71032572D02*
X170235474Y-70918286D01*
X170235474Y-70918286D02*
X170264045Y-70861143D01*
X170264045Y-70861143D02*
X170292617Y-70832572D01*
X170292617Y-70832572D02*
X170349760Y-70804000D01*
X170349760Y-70804000D02*
X170464045Y-70804000D01*
X170464045Y-70804000D02*
X170521188Y-70832572D01*
X170521188Y-70832572D02*
X170549760Y-70861143D01*
X170549760Y-70861143D02*
X170578331Y-70918286D01*
X170578331Y-70918286D02*
X170578331Y-71032572D01*
X170578331Y-71032572D02*
X170549760Y-71089715D01*
X170549760Y-71089715D02*
X170521188Y-71118286D01*
X170521188Y-71118286D02*
X170464045Y-71146857D01*
X170464045Y-71146857D02*
X170349760Y-71146857D01*
X170349760Y-71146857D02*
X170292617Y-71118286D01*
X170292617Y-71118286D02*
X170264045Y-71089715D01*
X170264045Y-71089715D02*
X170235474Y-71032572D01*
X126782428Y-80789331D02*
X126982428Y-80503617D01*
X127125285Y-80789331D02*
X127125285Y-80189331D01*
X127125285Y-80189331D02*
X126896714Y-80189331D01*
X126896714Y-80189331D02*
X126839571Y-80217902D01*
X126839571Y-80217902D02*
X126811000Y-80246474D01*
X126811000Y-80246474D02*
X126782428Y-80303617D01*
X126782428Y-80303617D02*
X126782428Y-80389331D01*
X126782428Y-80389331D02*
X126811000Y-80446474D01*
X126811000Y-80446474D02*
X126839571Y-80475045D01*
X126839571Y-80475045D02*
X126896714Y-80503617D01*
X126896714Y-80503617D02*
X127125285Y-80503617D01*
X126239571Y-80189331D02*
X126525285Y-80189331D01*
X126525285Y-80189331D02*
X126553857Y-80475045D01*
X126553857Y-80475045D02*
X126525285Y-80446474D01*
X126525285Y-80446474D02*
X126468143Y-80417902D01*
X126468143Y-80417902D02*
X126325285Y-80417902D01*
X126325285Y-80417902D02*
X126268143Y-80446474D01*
X126268143Y-80446474D02*
X126239571Y-80475045D01*
X126239571Y-80475045D02*
X126211000Y-80532188D01*
X126211000Y-80532188D02*
X126211000Y-80675045D01*
X126211000Y-80675045D02*
X126239571Y-80732188D01*
X126239571Y-80732188D02*
X126268143Y-80760760D01*
X126268143Y-80760760D02*
X126325285Y-80789331D01*
X126325285Y-80789331D02*
X126468143Y-80789331D01*
X126468143Y-80789331D02*
X126525285Y-80760760D01*
X126525285Y-80760760D02*
X126553857Y-80732188D01*
X125839571Y-80189331D02*
X125782428Y-80189331D01*
X125782428Y-80189331D02*
X125725285Y-80217902D01*
X125725285Y-80217902D02*
X125696714Y-80246474D01*
X125696714Y-80246474D02*
X125668142Y-80303617D01*
X125668142Y-80303617D02*
X125639571Y-80417902D01*
X125639571Y-80417902D02*
X125639571Y-80560760D01*
X125639571Y-80560760D02*
X125668142Y-80675045D01*
X125668142Y-80675045D02*
X125696714Y-80732188D01*
X125696714Y-80732188D02*
X125725285Y-80760760D01*
X125725285Y-80760760D02*
X125782428Y-80789331D01*
X125782428Y-80789331D02*
X125839571Y-80789331D01*
X125839571Y-80789331D02*
X125896714Y-80760760D01*
X125896714Y-80760760D02*
X125925285Y-80732188D01*
X125925285Y-80732188D02*
X125953856Y-80675045D01*
X125953856Y-80675045D02*
X125982428Y-80560760D01*
X125982428Y-80560760D02*
X125982428Y-80417902D01*
X125982428Y-80417902D02*
X125953856Y-80303617D01*
X125953856Y-80303617D02*
X125925285Y-80246474D01*
X125925285Y-80246474D02*
X125896714Y-80217902D01*
X125896714Y-80217902D02*
X125839571Y-80189331D01*
X125096713Y-80189331D02*
X125382427Y-80189331D01*
X125382427Y-80189331D02*
X125410999Y-80475045D01*
X125410999Y-80475045D02*
X125382427Y-80446474D01*
X125382427Y-80446474D02*
X125325285Y-80417902D01*
X125325285Y-80417902D02*
X125182427Y-80417902D01*
X125182427Y-80417902D02*
X125125285Y-80446474D01*
X125125285Y-80446474D02*
X125096713Y-80475045D01*
X125096713Y-80475045D02*
X125068142Y-80532188D01*
X125068142Y-80532188D02*
X125068142Y-80675045D01*
X125068142Y-80675045D02*
X125096713Y-80732188D01*
X125096713Y-80732188D02*
X125125285Y-80760760D01*
X125125285Y-80760760D02*
X125182427Y-80789331D01*
X125182427Y-80789331D02*
X125325285Y-80789331D01*
X125325285Y-80789331D02*
X125382427Y-80760760D01*
X125382427Y-80760760D02*
X125410999Y-80732188D01*
X151420428Y-72096188D02*
X151449000Y-72124760D01*
X151449000Y-72124760D02*
X151534714Y-72153331D01*
X151534714Y-72153331D02*
X151591857Y-72153331D01*
X151591857Y-72153331D02*
X151677571Y-72124760D01*
X151677571Y-72124760D02*
X151734714Y-72067617D01*
X151734714Y-72067617D02*
X151763285Y-72010474D01*
X151763285Y-72010474D02*
X151791857Y-71896188D01*
X151791857Y-71896188D02*
X151791857Y-71810474D01*
X151791857Y-71810474D02*
X151763285Y-71696188D01*
X151763285Y-71696188D02*
X151734714Y-71639045D01*
X151734714Y-71639045D02*
X151677571Y-71581902D01*
X151677571Y-71581902D02*
X151591857Y-71553331D01*
X151591857Y-71553331D02*
X151534714Y-71553331D01*
X151534714Y-71553331D02*
X151449000Y-71581902D01*
X151449000Y-71581902D02*
X151420428Y-71610474D01*
X150906143Y-71753331D02*
X150906143Y-72153331D01*
X151049000Y-71524760D02*
X151191857Y-71953331D01*
X151191857Y-71953331D02*
X150820428Y-71953331D01*
X150277571Y-72153331D02*
X150620428Y-72153331D01*
X150448999Y-72153331D02*
X150448999Y-71553331D01*
X150448999Y-71553331D02*
X150506142Y-71639045D01*
X150506142Y-71639045D02*
X150563285Y-71696188D01*
X150563285Y-71696188D02*
X150620428Y-71724760D01*
X150077570Y-71553331D02*
X149677570Y-71553331D01*
X149677570Y-71553331D02*
X149934713Y-72153331D01*
X187040714Y-77801331D02*
X187240714Y-77515617D01*
X187383571Y-77801331D02*
X187383571Y-77201331D01*
X187383571Y-77201331D02*
X187155000Y-77201331D01*
X187155000Y-77201331D02*
X187097857Y-77229902D01*
X187097857Y-77229902D02*
X187069286Y-77258474D01*
X187069286Y-77258474D02*
X187040714Y-77315617D01*
X187040714Y-77315617D02*
X187040714Y-77401331D01*
X187040714Y-77401331D02*
X187069286Y-77458474D01*
X187069286Y-77458474D02*
X187097857Y-77487045D01*
X187097857Y-77487045D02*
X187155000Y-77515617D01*
X187155000Y-77515617D02*
X187383571Y-77515617D01*
X186783571Y-77801331D02*
X186783571Y-77201331D01*
X186783571Y-77201331D02*
X186440714Y-77801331D01*
X186440714Y-77801331D02*
X186440714Y-77201331D01*
X186212143Y-77201331D02*
X185840715Y-77201331D01*
X185840715Y-77201331D02*
X186040715Y-77429902D01*
X186040715Y-77429902D02*
X185955000Y-77429902D01*
X185955000Y-77429902D02*
X185897858Y-77458474D01*
X185897858Y-77458474D02*
X185869286Y-77487045D01*
X185869286Y-77487045D02*
X185840715Y-77544188D01*
X185840715Y-77544188D02*
X185840715Y-77687045D01*
X185840715Y-77687045D02*
X185869286Y-77744188D01*
X185869286Y-77744188D02*
X185897858Y-77772760D01*
X185897858Y-77772760D02*
X185955000Y-77801331D01*
X185955000Y-77801331D02*
X186126429Y-77801331D01*
X186126429Y-77801331D02*
X186183572Y-77772760D01*
X186183572Y-77772760D02*
X186212143Y-77744188D01*
X185469286Y-77201331D02*
X185412143Y-77201331D01*
X185412143Y-77201331D02*
X185355000Y-77229902D01*
X185355000Y-77229902D02*
X185326429Y-77258474D01*
X185326429Y-77258474D02*
X185297857Y-77315617D01*
X185297857Y-77315617D02*
X185269286Y-77429902D01*
X185269286Y-77429902D02*
X185269286Y-77572760D01*
X185269286Y-77572760D02*
X185297857Y-77687045D01*
X185297857Y-77687045D02*
X185326429Y-77744188D01*
X185326429Y-77744188D02*
X185355000Y-77772760D01*
X185355000Y-77772760D02*
X185412143Y-77801331D01*
X185412143Y-77801331D02*
X185469286Y-77801331D01*
X185469286Y-77801331D02*
X185526429Y-77772760D01*
X185526429Y-77772760D02*
X185555000Y-77744188D01*
X185555000Y-77744188D02*
X185583571Y-77687045D01*
X185583571Y-77687045D02*
X185612143Y-77572760D01*
X185612143Y-77572760D02*
X185612143Y-77429902D01*
X185612143Y-77429902D02*
X185583571Y-77315617D01*
X185583571Y-77315617D02*
X185555000Y-77258474D01*
X185555000Y-77258474D02*
X185526429Y-77229902D01*
X185526429Y-77229902D02*
X185469286Y-77201331D01*
X185069285Y-77201331D02*
X184697857Y-77201331D01*
X184697857Y-77201331D02*
X184897857Y-77429902D01*
X184897857Y-77429902D02*
X184812142Y-77429902D01*
X184812142Y-77429902D02*
X184755000Y-77458474D01*
X184755000Y-77458474D02*
X184726428Y-77487045D01*
X184726428Y-77487045D02*
X184697857Y-77544188D01*
X184697857Y-77544188D02*
X184697857Y-77687045D01*
X184697857Y-77687045D02*
X184726428Y-77744188D01*
X184726428Y-77744188D02*
X184755000Y-77772760D01*
X184755000Y-77772760D02*
X184812142Y-77801331D01*
X184812142Y-77801331D02*
X184983571Y-77801331D01*
X184983571Y-77801331D02*
X185040714Y-77772760D01*
X185040714Y-77772760D02*
X185069285Y-77744188D01*
X154392188Y-65114571D02*
X154420760Y-65085999D01*
X154420760Y-65085999D02*
X154449331Y-65000285D01*
X154449331Y-65000285D02*
X154449331Y-64943142D01*
X154449331Y-64943142D02*
X154420760Y-64857428D01*
X154420760Y-64857428D02*
X154363617Y-64800285D01*
X154363617Y-64800285D02*
X154306474Y-64771714D01*
X154306474Y-64771714D02*
X154192188Y-64743142D01*
X154192188Y-64743142D02*
X154106474Y-64743142D01*
X154106474Y-64743142D02*
X153992188Y-64771714D01*
X153992188Y-64771714D02*
X153935045Y-64800285D01*
X153935045Y-64800285D02*
X153877902Y-64857428D01*
X153877902Y-64857428D02*
X153849331Y-64943142D01*
X153849331Y-64943142D02*
X153849331Y-65000285D01*
X153849331Y-65000285D02*
X153877902Y-65085999D01*
X153877902Y-65085999D02*
X153906474Y-65114571D01*
X154049331Y-65628857D02*
X154449331Y-65628857D01*
X153820760Y-65485999D02*
X154249331Y-65343142D01*
X154249331Y-65343142D02*
X154249331Y-65714571D01*
X153849331Y-66057428D02*
X153849331Y-66114571D01*
X153849331Y-66114571D02*
X153877902Y-66171714D01*
X153877902Y-66171714D02*
X153906474Y-66200286D01*
X153906474Y-66200286D02*
X153963617Y-66228857D01*
X153963617Y-66228857D02*
X154077902Y-66257428D01*
X154077902Y-66257428D02*
X154220760Y-66257428D01*
X154220760Y-66257428D02*
X154335045Y-66228857D01*
X154335045Y-66228857D02*
X154392188Y-66200286D01*
X154392188Y-66200286D02*
X154420760Y-66171714D01*
X154420760Y-66171714D02*
X154449331Y-66114571D01*
X154449331Y-66114571D02*
X154449331Y-66057428D01*
X154449331Y-66057428D02*
X154420760Y-66000286D01*
X154420760Y-66000286D02*
X154392188Y-65971714D01*
X154392188Y-65971714D02*
X154335045Y-65943143D01*
X154335045Y-65943143D02*
X154220760Y-65914571D01*
X154220760Y-65914571D02*
X154077902Y-65914571D01*
X154077902Y-65914571D02*
X153963617Y-65943143D01*
X153963617Y-65943143D02*
X153906474Y-65971714D01*
X153906474Y-65971714D02*
X153877902Y-66000286D01*
X153877902Y-66000286D02*
X153849331Y-66057428D01*
X154449331Y-66543143D02*
X154449331Y-66657429D01*
X154449331Y-66657429D02*
X154420760Y-66714572D01*
X154420760Y-66714572D02*
X154392188Y-66743143D01*
X154392188Y-66743143D02*
X154306474Y-66800286D01*
X154306474Y-66800286D02*
X154192188Y-66828857D01*
X154192188Y-66828857D02*
X153963617Y-66828857D01*
X153963617Y-66828857D02*
X153906474Y-66800286D01*
X153906474Y-66800286D02*
X153877902Y-66771715D01*
X153877902Y-66771715D02*
X153849331Y-66714572D01*
X153849331Y-66714572D02*
X153849331Y-66600286D01*
X153849331Y-66600286D02*
X153877902Y-66543143D01*
X153877902Y-66543143D02*
X153906474Y-66514572D01*
X153906474Y-66514572D02*
X153963617Y-66486000D01*
X153963617Y-66486000D02*
X154106474Y-66486000D01*
X154106474Y-66486000D02*
X154163617Y-66514572D01*
X154163617Y-66514572D02*
X154192188Y-66543143D01*
X154192188Y-66543143D02*
X154220760Y-66600286D01*
X154220760Y-66600286D02*
X154220760Y-66714572D01*
X154220760Y-66714572D02*
X154192188Y-66771715D01*
X154192188Y-66771715D02*
X154163617Y-66800286D01*
X154163617Y-66800286D02*
X154106474Y-66828857D01*
X169251188Y-69432571D02*
X169279760Y-69403999D01*
X169279760Y-69403999D02*
X169308331Y-69318285D01*
X169308331Y-69318285D02*
X169308331Y-69261142D01*
X169308331Y-69261142D02*
X169279760Y-69175428D01*
X169279760Y-69175428D02*
X169222617Y-69118285D01*
X169222617Y-69118285D02*
X169165474Y-69089714D01*
X169165474Y-69089714D02*
X169051188Y-69061142D01*
X169051188Y-69061142D02*
X168965474Y-69061142D01*
X168965474Y-69061142D02*
X168851188Y-69089714D01*
X168851188Y-69089714D02*
X168794045Y-69118285D01*
X168794045Y-69118285D02*
X168736902Y-69175428D01*
X168736902Y-69175428D02*
X168708331Y-69261142D01*
X168708331Y-69261142D02*
X168708331Y-69318285D01*
X168708331Y-69318285D02*
X168736902Y-69403999D01*
X168736902Y-69403999D02*
X168765474Y-69432571D01*
X168708331Y-69632571D02*
X168708331Y-70003999D01*
X168708331Y-70003999D02*
X168936902Y-69803999D01*
X168936902Y-69803999D02*
X168936902Y-69889714D01*
X168936902Y-69889714D02*
X168965474Y-69946857D01*
X168965474Y-69946857D02*
X168994045Y-69975428D01*
X168994045Y-69975428D02*
X169051188Y-70003999D01*
X169051188Y-70003999D02*
X169194045Y-70003999D01*
X169194045Y-70003999D02*
X169251188Y-69975428D01*
X169251188Y-69975428D02*
X169279760Y-69946857D01*
X169279760Y-69946857D02*
X169308331Y-69889714D01*
X169308331Y-69889714D02*
X169308331Y-69718285D01*
X169308331Y-69718285D02*
X169279760Y-69661142D01*
X169279760Y-69661142D02*
X169251188Y-69632571D01*
X168708331Y-70375428D02*
X168708331Y-70432571D01*
X168708331Y-70432571D02*
X168736902Y-70489714D01*
X168736902Y-70489714D02*
X168765474Y-70518286D01*
X168765474Y-70518286D02*
X168822617Y-70546857D01*
X168822617Y-70546857D02*
X168936902Y-70575428D01*
X168936902Y-70575428D02*
X169079760Y-70575428D01*
X169079760Y-70575428D02*
X169194045Y-70546857D01*
X169194045Y-70546857D02*
X169251188Y-70518286D01*
X169251188Y-70518286D02*
X169279760Y-70489714D01*
X169279760Y-70489714D02*
X169308331Y-70432571D01*
X169308331Y-70432571D02*
X169308331Y-70375428D01*
X169308331Y-70375428D02*
X169279760Y-70318286D01*
X169279760Y-70318286D02*
X169251188Y-70289714D01*
X169251188Y-70289714D02*
X169194045Y-70261143D01*
X169194045Y-70261143D02*
X169079760Y-70232571D01*
X169079760Y-70232571D02*
X168936902Y-70232571D01*
X168936902Y-70232571D02*
X168822617Y-70261143D01*
X168822617Y-70261143D02*
X168765474Y-70289714D01*
X168765474Y-70289714D02*
X168736902Y-70318286D01*
X168736902Y-70318286D02*
X168708331Y-70375428D01*
X168708331Y-71118286D02*
X168708331Y-70832572D01*
X168708331Y-70832572D02*
X168994045Y-70804000D01*
X168994045Y-70804000D02*
X168965474Y-70832572D01*
X168965474Y-70832572D02*
X168936902Y-70889715D01*
X168936902Y-70889715D02*
X168936902Y-71032572D01*
X168936902Y-71032572D02*
X168965474Y-71089715D01*
X168965474Y-71089715D02*
X168994045Y-71118286D01*
X168994045Y-71118286D02*
X169051188Y-71146857D01*
X169051188Y-71146857D02*
X169194045Y-71146857D01*
X169194045Y-71146857D02*
X169251188Y-71118286D01*
X169251188Y-71118286D02*
X169279760Y-71089715D01*
X169279760Y-71089715D02*
X169308331Y-71032572D01*
X169308331Y-71032572D02*
X169308331Y-70889715D01*
X169308331Y-70889715D02*
X169279760Y-70832572D01*
X169279760Y-70832572D02*
X169251188Y-70804000D01*
X161885188Y-76671571D02*
X161913760Y-76642999D01*
X161913760Y-76642999D02*
X161942331Y-76557285D01*
X161942331Y-76557285D02*
X161942331Y-76500142D01*
X161942331Y-76500142D02*
X161913760Y-76414428D01*
X161913760Y-76414428D02*
X161856617Y-76357285D01*
X161856617Y-76357285D02*
X161799474Y-76328714D01*
X161799474Y-76328714D02*
X161685188Y-76300142D01*
X161685188Y-76300142D02*
X161599474Y-76300142D01*
X161599474Y-76300142D02*
X161485188Y-76328714D01*
X161485188Y-76328714D02*
X161428045Y-76357285D01*
X161428045Y-76357285D02*
X161370902Y-76414428D01*
X161370902Y-76414428D02*
X161342331Y-76500142D01*
X161342331Y-76500142D02*
X161342331Y-76557285D01*
X161342331Y-76557285D02*
X161370902Y-76642999D01*
X161370902Y-76642999D02*
X161399474Y-76671571D01*
X161542331Y-77185857D02*
X161942331Y-77185857D01*
X161313760Y-77042999D02*
X161742331Y-76900142D01*
X161742331Y-76900142D02*
X161742331Y-77271571D01*
X161342331Y-77614428D02*
X161342331Y-77671571D01*
X161342331Y-77671571D02*
X161370902Y-77728714D01*
X161370902Y-77728714D02*
X161399474Y-77757286D01*
X161399474Y-77757286D02*
X161456617Y-77785857D01*
X161456617Y-77785857D02*
X161570902Y-77814428D01*
X161570902Y-77814428D02*
X161713760Y-77814428D01*
X161713760Y-77814428D02*
X161828045Y-77785857D01*
X161828045Y-77785857D02*
X161885188Y-77757286D01*
X161885188Y-77757286D02*
X161913760Y-77728714D01*
X161913760Y-77728714D02*
X161942331Y-77671571D01*
X161942331Y-77671571D02*
X161942331Y-77614428D01*
X161942331Y-77614428D02*
X161913760Y-77557286D01*
X161913760Y-77557286D02*
X161885188Y-77528714D01*
X161885188Y-77528714D02*
X161828045Y-77500143D01*
X161828045Y-77500143D02*
X161713760Y-77471571D01*
X161713760Y-77471571D02*
X161570902Y-77471571D01*
X161570902Y-77471571D02*
X161456617Y-77500143D01*
X161456617Y-77500143D02*
X161399474Y-77528714D01*
X161399474Y-77528714D02*
X161370902Y-77557286D01*
X161370902Y-77557286D02*
X161342331Y-77614428D01*
X161942331Y-78385857D02*
X161942331Y-78043000D01*
X161942331Y-78214429D02*
X161342331Y-78214429D01*
X161342331Y-78214429D02*
X161428045Y-78157286D01*
X161428045Y-78157286D02*
X161485188Y-78100143D01*
X161485188Y-78100143D02*
X161513760Y-78043000D01*
X134148428Y-81113188D02*
X134177000Y-81141760D01*
X134177000Y-81141760D02*
X134262714Y-81170331D01*
X134262714Y-81170331D02*
X134319857Y-81170331D01*
X134319857Y-81170331D02*
X134405571Y-81141760D01*
X134405571Y-81141760D02*
X134462714Y-81084617D01*
X134462714Y-81084617D02*
X134491285Y-81027474D01*
X134491285Y-81027474D02*
X134519857Y-80913188D01*
X134519857Y-80913188D02*
X134519857Y-80827474D01*
X134519857Y-80827474D02*
X134491285Y-80713188D01*
X134491285Y-80713188D02*
X134462714Y-80656045D01*
X134462714Y-80656045D02*
X134405571Y-80598902D01*
X134405571Y-80598902D02*
X134319857Y-80570331D01*
X134319857Y-80570331D02*
X134262714Y-80570331D01*
X134262714Y-80570331D02*
X134177000Y-80598902D01*
X134177000Y-80598902D02*
X134148428Y-80627474D01*
X133605571Y-80570331D02*
X133891285Y-80570331D01*
X133891285Y-80570331D02*
X133919857Y-80856045D01*
X133919857Y-80856045D02*
X133891285Y-80827474D01*
X133891285Y-80827474D02*
X133834143Y-80798902D01*
X133834143Y-80798902D02*
X133691285Y-80798902D01*
X133691285Y-80798902D02*
X133634143Y-80827474D01*
X133634143Y-80827474D02*
X133605571Y-80856045D01*
X133605571Y-80856045D02*
X133577000Y-80913188D01*
X133577000Y-80913188D02*
X133577000Y-81056045D01*
X133577000Y-81056045D02*
X133605571Y-81113188D01*
X133605571Y-81113188D02*
X133634143Y-81141760D01*
X133634143Y-81141760D02*
X133691285Y-81170331D01*
X133691285Y-81170331D02*
X133834143Y-81170331D01*
X133834143Y-81170331D02*
X133891285Y-81141760D01*
X133891285Y-81141760D02*
X133919857Y-81113188D01*
X133205571Y-80570331D02*
X133148428Y-80570331D01*
X133148428Y-80570331D02*
X133091285Y-80598902D01*
X133091285Y-80598902D02*
X133062714Y-80627474D01*
X133062714Y-80627474D02*
X133034142Y-80684617D01*
X133034142Y-80684617D02*
X133005571Y-80798902D01*
X133005571Y-80798902D02*
X133005571Y-80941760D01*
X133005571Y-80941760D02*
X133034142Y-81056045D01*
X133034142Y-81056045D02*
X133062714Y-81113188D01*
X133062714Y-81113188D02*
X133091285Y-81141760D01*
X133091285Y-81141760D02*
X133148428Y-81170331D01*
X133148428Y-81170331D02*
X133205571Y-81170331D01*
X133205571Y-81170331D02*
X133262714Y-81141760D01*
X133262714Y-81141760D02*
X133291285Y-81113188D01*
X133291285Y-81113188D02*
X133319856Y-81056045D01*
X133319856Y-81056045D02*
X133348428Y-80941760D01*
X133348428Y-80941760D02*
X133348428Y-80798902D01*
X133348428Y-80798902D02*
X133319856Y-80684617D01*
X133319856Y-80684617D02*
X133291285Y-80627474D01*
X133291285Y-80627474D02*
X133262714Y-80598902D01*
X133262714Y-80598902D02*
X133205571Y-80570331D01*
X132434142Y-81170331D02*
X132776999Y-81170331D01*
X132605570Y-81170331D02*
X132605570Y-80570331D01*
X132605570Y-80570331D02*
X132662713Y-80656045D01*
X132662713Y-80656045D02*
X132719856Y-80713188D01*
X132719856Y-80713188D02*
X132776999Y-80741760D01*
X178452331Y-79211571D02*
X178166617Y-79011571D01*
X178452331Y-78868714D02*
X177852331Y-78868714D01*
X177852331Y-78868714D02*
X177852331Y-79097285D01*
X177852331Y-79097285D02*
X177880902Y-79154428D01*
X177880902Y-79154428D02*
X177909474Y-79182999D01*
X177909474Y-79182999D02*
X177966617Y-79211571D01*
X177966617Y-79211571D02*
X178052331Y-79211571D01*
X178052331Y-79211571D02*
X178109474Y-79182999D01*
X178109474Y-79182999D02*
X178138045Y-79154428D01*
X178138045Y-79154428D02*
X178166617Y-79097285D01*
X178166617Y-79097285D02*
X178166617Y-78868714D01*
X177852331Y-79411571D02*
X177852331Y-79782999D01*
X177852331Y-79782999D02*
X178080902Y-79582999D01*
X178080902Y-79582999D02*
X178080902Y-79668714D01*
X178080902Y-79668714D02*
X178109474Y-79725857D01*
X178109474Y-79725857D02*
X178138045Y-79754428D01*
X178138045Y-79754428D02*
X178195188Y-79782999D01*
X178195188Y-79782999D02*
X178338045Y-79782999D01*
X178338045Y-79782999D02*
X178395188Y-79754428D01*
X178395188Y-79754428D02*
X178423760Y-79725857D01*
X178423760Y-79725857D02*
X178452331Y-79668714D01*
X178452331Y-79668714D02*
X178452331Y-79497285D01*
X178452331Y-79497285D02*
X178423760Y-79440142D01*
X178423760Y-79440142D02*
X178395188Y-79411571D01*
X178452331Y-80354428D02*
X178452331Y-80011571D01*
X178452331Y-80183000D02*
X177852331Y-80183000D01*
X177852331Y-80183000D02*
X177938045Y-80125857D01*
X177938045Y-80125857D02*
X177995188Y-80068714D01*
X177995188Y-80068714D02*
X178023760Y-80011571D01*
X177852331Y-80554429D02*
X177852331Y-80954429D01*
X177852331Y-80954429D02*
X178452331Y-80697286D01*
X153892143Y-76947617D02*
X153892143Y-77233331D01*
X154092143Y-76633331D02*
X153892143Y-76947617D01*
X153892143Y-76947617D02*
X153692143Y-76633331D01*
X153235000Y-76833331D02*
X153235000Y-77233331D01*
X153377857Y-76604760D02*
X153520714Y-77033331D01*
X153520714Y-77033331D02*
X153149285Y-77033331D01*
X152806428Y-76633331D02*
X152749285Y-76633331D01*
X152749285Y-76633331D02*
X152692142Y-76661902D01*
X152692142Y-76661902D02*
X152663571Y-76690474D01*
X152663571Y-76690474D02*
X152634999Y-76747617D01*
X152634999Y-76747617D02*
X152606428Y-76861902D01*
X152606428Y-76861902D02*
X152606428Y-77004760D01*
X152606428Y-77004760D02*
X152634999Y-77119045D01*
X152634999Y-77119045D02*
X152663571Y-77176188D01*
X152663571Y-77176188D02*
X152692142Y-77204760D01*
X152692142Y-77204760D02*
X152749285Y-77233331D01*
X152749285Y-77233331D02*
X152806428Y-77233331D01*
X152806428Y-77233331D02*
X152863571Y-77204760D01*
X152863571Y-77204760D02*
X152892142Y-77176188D01*
X152892142Y-77176188D02*
X152920713Y-77119045D01*
X152920713Y-77119045D02*
X152949285Y-77004760D01*
X152949285Y-77004760D02*
X152949285Y-76861902D01*
X152949285Y-76861902D02*
X152920713Y-76747617D01*
X152920713Y-76747617D02*
X152892142Y-76690474D01*
X152892142Y-76690474D02*
X152863571Y-76661902D01*
X152863571Y-76661902D02*
X152806428Y-76633331D01*
X152034999Y-77233331D02*
X152377856Y-77233331D01*
X152206427Y-77233331D02*
X152206427Y-76633331D01*
X152206427Y-76633331D02*
X152263570Y-76719045D01*
X152263570Y-76719045D02*
X152320713Y-76776188D01*
X152320713Y-76776188D02*
X152377856Y-76804760D01*
X157878331Y-85180571D02*
X157592617Y-84980571D01*
X157878331Y-84837714D02*
X157278331Y-84837714D01*
X157278331Y-84837714D02*
X157278331Y-85066285D01*
X157278331Y-85066285D02*
X157306902Y-85123428D01*
X157306902Y-85123428D02*
X157335474Y-85151999D01*
X157335474Y-85151999D02*
X157392617Y-85180571D01*
X157392617Y-85180571D02*
X157478331Y-85180571D01*
X157478331Y-85180571D02*
X157535474Y-85151999D01*
X157535474Y-85151999D02*
X157564045Y-85123428D01*
X157564045Y-85123428D02*
X157592617Y-85066285D01*
X157592617Y-85066285D02*
X157592617Y-84837714D01*
X157478331Y-85694857D02*
X157878331Y-85694857D01*
X157249760Y-85551999D02*
X157678331Y-85409142D01*
X157678331Y-85409142D02*
X157678331Y-85780571D01*
X157278331Y-86123428D02*
X157278331Y-86180571D01*
X157278331Y-86180571D02*
X157306902Y-86237714D01*
X157306902Y-86237714D02*
X157335474Y-86266286D01*
X157335474Y-86266286D02*
X157392617Y-86294857D01*
X157392617Y-86294857D02*
X157506902Y-86323428D01*
X157506902Y-86323428D02*
X157649760Y-86323428D01*
X157649760Y-86323428D02*
X157764045Y-86294857D01*
X157764045Y-86294857D02*
X157821188Y-86266286D01*
X157821188Y-86266286D02*
X157849760Y-86237714D01*
X157849760Y-86237714D02*
X157878331Y-86180571D01*
X157878331Y-86180571D02*
X157878331Y-86123428D01*
X157878331Y-86123428D02*
X157849760Y-86066286D01*
X157849760Y-86066286D02*
X157821188Y-86037714D01*
X157821188Y-86037714D02*
X157764045Y-86009143D01*
X157764045Y-86009143D02*
X157649760Y-85980571D01*
X157649760Y-85980571D02*
X157506902Y-85980571D01*
X157506902Y-85980571D02*
X157392617Y-86009143D01*
X157392617Y-86009143D02*
X157335474Y-86037714D01*
X157335474Y-86037714D02*
X157306902Y-86066286D01*
X157306902Y-86066286D02*
X157278331Y-86123428D01*
X157478331Y-86837715D02*
X157878331Y-86837715D01*
X157249760Y-86694857D02*
X157678331Y-86552000D01*
X157678331Y-86552000D02*
X157678331Y-86923429D01*
X126782428Y-87647331D02*
X126982428Y-87361617D01*
X127125285Y-87647331D02*
X127125285Y-87047331D01*
X127125285Y-87047331D02*
X126896714Y-87047331D01*
X126896714Y-87047331D02*
X126839571Y-87075902D01*
X126839571Y-87075902D02*
X126811000Y-87104474D01*
X126811000Y-87104474D02*
X126782428Y-87161617D01*
X126782428Y-87161617D02*
X126782428Y-87247331D01*
X126782428Y-87247331D02*
X126811000Y-87304474D01*
X126811000Y-87304474D02*
X126839571Y-87333045D01*
X126839571Y-87333045D02*
X126896714Y-87361617D01*
X126896714Y-87361617D02*
X127125285Y-87361617D01*
X126239571Y-87047331D02*
X126525285Y-87047331D01*
X126525285Y-87047331D02*
X126553857Y-87333045D01*
X126553857Y-87333045D02*
X126525285Y-87304474D01*
X126525285Y-87304474D02*
X126468143Y-87275902D01*
X126468143Y-87275902D02*
X126325285Y-87275902D01*
X126325285Y-87275902D02*
X126268143Y-87304474D01*
X126268143Y-87304474D02*
X126239571Y-87333045D01*
X126239571Y-87333045D02*
X126211000Y-87390188D01*
X126211000Y-87390188D02*
X126211000Y-87533045D01*
X126211000Y-87533045D02*
X126239571Y-87590188D01*
X126239571Y-87590188D02*
X126268143Y-87618760D01*
X126268143Y-87618760D02*
X126325285Y-87647331D01*
X126325285Y-87647331D02*
X126468143Y-87647331D01*
X126468143Y-87647331D02*
X126525285Y-87618760D01*
X126525285Y-87618760D02*
X126553857Y-87590188D01*
X125839571Y-87047331D02*
X125782428Y-87047331D01*
X125782428Y-87047331D02*
X125725285Y-87075902D01*
X125725285Y-87075902D02*
X125696714Y-87104474D01*
X125696714Y-87104474D02*
X125668142Y-87161617D01*
X125668142Y-87161617D02*
X125639571Y-87275902D01*
X125639571Y-87275902D02*
X125639571Y-87418760D01*
X125639571Y-87418760D02*
X125668142Y-87533045D01*
X125668142Y-87533045D02*
X125696714Y-87590188D01*
X125696714Y-87590188D02*
X125725285Y-87618760D01*
X125725285Y-87618760D02*
X125782428Y-87647331D01*
X125782428Y-87647331D02*
X125839571Y-87647331D01*
X125839571Y-87647331D02*
X125896714Y-87618760D01*
X125896714Y-87618760D02*
X125925285Y-87590188D01*
X125925285Y-87590188D02*
X125953856Y-87533045D01*
X125953856Y-87533045D02*
X125982428Y-87418760D01*
X125982428Y-87418760D02*
X125982428Y-87275902D01*
X125982428Y-87275902D02*
X125953856Y-87161617D01*
X125953856Y-87161617D02*
X125925285Y-87104474D01*
X125925285Y-87104474D02*
X125896714Y-87075902D01*
X125896714Y-87075902D02*
X125839571Y-87047331D01*
X125410999Y-87104474D02*
X125382427Y-87075902D01*
X125382427Y-87075902D02*
X125325285Y-87047331D01*
X125325285Y-87047331D02*
X125182427Y-87047331D01*
X125182427Y-87047331D02*
X125125285Y-87075902D01*
X125125285Y-87075902D02*
X125096713Y-87104474D01*
X125096713Y-87104474D02*
X125068142Y-87161617D01*
X125068142Y-87161617D02*
X125068142Y-87218760D01*
X125068142Y-87218760D02*
X125096713Y-87304474D01*
X125096713Y-87304474D02*
X125439570Y-87647331D01*
X125439570Y-87647331D02*
X125068142Y-87647331D01*
X137831428Y-79265331D02*
X138031428Y-78979617D01*
X138174285Y-79265331D02*
X138174285Y-78665331D01*
X138174285Y-78665331D02*
X137945714Y-78665331D01*
X137945714Y-78665331D02*
X137888571Y-78693902D01*
X137888571Y-78693902D02*
X137860000Y-78722474D01*
X137860000Y-78722474D02*
X137831428Y-78779617D01*
X137831428Y-78779617D02*
X137831428Y-78865331D01*
X137831428Y-78865331D02*
X137860000Y-78922474D01*
X137860000Y-78922474D02*
X137888571Y-78951045D01*
X137888571Y-78951045D02*
X137945714Y-78979617D01*
X137945714Y-78979617D02*
X138174285Y-78979617D01*
X137288571Y-78665331D02*
X137574285Y-78665331D01*
X137574285Y-78665331D02*
X137602857Y-78951045D01*
X137602857Y-78951045D02*
X137574285Y-78922474D01*
X137574285Y-78922474D02*
X137517143Y-78893902D01*
X137517143Y-78893902D02*
X137374285Y-78893902D01*
X137374285Y-78893902D02*
X137317143Y-78922474D01*
X137317143Y-78922474D02*
X137288571Y-78951045D01*
X137288571Y-78951045D02*
X137260000Y-79008188D01*
X137260000Y-79008188D02*
X137260000Y-79151045D01*
X137260000Y-79151045D02*
X137288571Y-79208188D01*
X137288571Y-79208188D02*
X137317143Y-79236760D01*
X137317143Y-79236760D02*
X137374285Y-79265331D01*
X137374285Y-79265331D02*
X137517143Y-79265331D01*
X137517143Y-79265331D02*
X137574285Y-79236760D01*
X137574285Y-79236760D02*
X137602857Y-79208188D01*
X136688571Y-79265331D02*
X137031428Y-79265331D01*
X136859999Y-79265331D02*
X136859999Y-78665331D01*
X136859999Y-78665331D02*
X136917142Y-78751045D01*
X136917142Y-78751045D02*
X136974285Y-78808188D01*
X136974285Y-78808188D02*
X137031428Y-78836760D01*
X136174285Y-78865331D02*
X136174285Y-79265331D01*
X136317142Y-78636760D02*
X136459999Y-79065331D01*
X136459999Y-79065331D02*
X136088570Y-79065331D01*
X183376285Y-92535331D02*
X183376285Y-91935331D01*
X183376285Y-91935331D02*
X183233428Y-91935331D01*
X183233428Y-91935331D02*
X183147714Y-91963902D01*
X183147714Y-91963902D02*
X183090571Y-92021045D01*
X183090571Y-92021045D02*
X183062000Y-92078188D01*
X183062000Y-92078188D02*
X183033428Y-92192474D01*
X183033428Y-92192474D02*
X183033428Y-92278188D01*
X183033428Y-92278188D02*
X183062000Y-92392474D01*
X183062000Y-92392474D02*
X183090571Y-92449617D01*
X183090571Y-92449617D02*
X183147714Y-92506760D01*
X183147714Y-92506760D02*
X183233428Y-92535331D01*
X183233428Y-92535331D02*
X183376285Y-92535331D01*
X182804857Y-91992474D02*
X182776285Y-91963902D01*
X182776285Y-91963902D02*
X182719143Y-91935331D01*
X182719143Y-91935331D02*
X182576285Y-91935331D01*
X182576285Y-91935331D02*
X182519143Y-91963902D01*
X182519143Y-91963902D02*
X182490571Y-91992474D01*
X182490571Y-91992474D02*
X182462000Y-92049617D01*
X182462000Y-92049617D02*
X182462000Y-92106760D01*
X182462000Y-92106760D02*
X182490571Y-92192474D01*
X182490571Y-92192474D02*
X182833428Y-92535331D01*
X182833428Y-92535331D02*
X182462000Y-92535331D01*
X182090571Y-91935331D02*
X182033428Y-91935331D01*
X182033428Y-91935331D02*
X181976285Y-91963902D01*
X181976285Y-91963902D02*
X181947714Y-91992474D01*
X181947714Y-91992474D02*
X181919142Y-92049617D01*
X181919142Y-92049617D02*
X181890571Y-92163902D01*
X181890571Y-92163902D02*
X181890571Y-92306760D01*
X181890571Y-92306760D02*
X181919142Y-92421045D01*
X181919142Y-92421045D02*
X181947714Y-92478188D01*
X181947714Y-92478188D02*
X181976285Y-92506760D01*
X181976285Y-92506760D02*
X182033428Y-92535331D01*
X182033428Y-92535331D02*
X182090571Y-92535331D01*
X182090571Y-92535331D02*
X182147714Y-92506760D01*
X182147714Y-92506760D02*
X182176285Y-92478188D01*
X182176285Y-92478188D02*
X182204856Y-92421045D01*
X182204856Y-92421045D02*
X182233428Y-92306760D01*
X182233428Y-92306760D02*
X182233428Y-92163902D01*
X182233428Y-92163902D02*
X182204856Y-92049617D01*
X182204856Y-92049617D02*
X182176285Y-91992474D01*
X182176285Y-91992474D02*
X182147714Y-91963902D01*
X182147714Y-91963902D02*
X182090571Y-91935331D01*
X181661999Y-91992474D02*
X181633427Y-91963902D01*
X181633427Y-91963902D02*
X181576285Y-91935331D01*
X181576285Y-91935331D02*
X181433427Y-91935331D01*
X181433427Y-91935331D02*
X181376285Y-91963902D01*
X181376285Y-91963902D02*
X181347713Y-91992474D01*
X181347713Y-91992474D02*
X181319142Y-92049617D01*
X181319142Y-92049617D02*
X181319142Y-92106760D01*
X181319142Y-92106760D02*
X181347713Y-92192474D01*
X181347713Y-92192474D02*
X181690570Y-92535331D01*
X181690570Y-92535331D02*
X181319142Y-92535331D01*
X126909428Y-84288188D02*
X126938000Y-84316760D01*
X126938000Y-84316760D02*
X127023714Y-84345331D01*
X127023714Y-84345331D02*
X127080857Y-84345331D01*
X127080857Y-84345331D02*
X127166571Y-84316760D01*
X127166571Y-84316760D02*
X127223714Y-84259617D01*
X127223714Y-84259617D02*
X127252285Y-84202474D01*
X127252285Y-84202474D02*
X127280857Y-84088188D01*
X127280857Y-84088188D02*
X127280857Y-84002474D01*
X127280857Y-84002474D02*
X127252285Y-83888188D01*
X127252285Y-83888188D02*
X127223714Y-83831045D01*
X127223714Y-83831045D02*
X127166571Y-83773902D01*
X127166571Y-83773902D02*
X127080857Y-83745331D01*
X127080857Y-83745331D02*
X127023714Y-83745331D01*
X127023714Y-83745331D02*
X126938000Y-83773902D01*
X126938000Y-83773902D02*
X126909428Y-83802474D01*
X126366571Y-83745331D02*
X126652285Y-83745331D01*
X126652285Y-83745331D02*
X126680857Y-84031045D01*
X126680857Y-84031045D02*
X126652285Y-84002474D01*
X126652285Y-84002474D02*
X126595143Y-83973902D01*
X126595143Y-83973902D02*
X126452285Y-83973902D01*
X126452285Y-83973902D02*
X126395143Y-84002474D01*
X126395143Y-84002474D02*
X126366571Y-84031045D01*
X126366571Y-84031045D02*
X126338000Y-84088188D01*
X126338000Y-84088188D02*
X126338000Y-84231045D01*
X126338000Y-84231045D02*
X126366571Y-84288188D01*
X126366571Y-84288188D02*
X126395143Y-84316760D01*
X126395143Y-84316760D02*
X126452285Y-84345331D01*
X126452285Y-84345331D02*
X126595143Y-84345331D01*
X126595143Y-84345331D02*
X126652285Y-84316760D01*
X126652285Y-84316760D02*
X126680857Y-84288188D01*
X125766571Y-84345331D02*
X126109428Y-84345331D01*
X125937999Y-84345331D02*
X125937999Y-83745331D01*
X125937999Y-83745331D02*
X125995142Y-83831045D01*
X125995142Y-83831045D02*
X126052285Y-83888188D01*
X126052285Y-83888188D02*
X126109428Y-83916760D01*
X125395142Y-83745331D02*
X125337999Y-83745331D01*
X125337999Y-83745331D02*
X125280856Y-83773902D01*
X125280856Y-83773902D02*
X125252285Y-83802474D01*
X125252285Y-83802474D02*
X125223713Y-83859617D01*
X125223713Y-83859617D02*
X125195142Y-83973902D01*
X125195142Y-83973902D02*
X125195142Y-84116760D01*
X125195142Y-84116760D02*
X125223713Y-84231045D01*
X125223713Y-84231045D02*
X125252285Y-84288188D01*
X125252285Y-84288188D02*
X125280856Y-84316760D01*
X125280856Y-84316760D02*
X125337999Y-84345331D01*
X125337999Y-84345331D02*
X125395142Y-84345331D01*
X125395142Y-84345331D02*
X125452285Y-84316760D01*
X125452285Y-84316760D02*
X125480856Y-84288188D01*
X125480856Y-84288188D02*
X125509427Y-84231045D01*
X125509427Y-84231045D02*
X125537999Y-84116760D01*
X125537999Y-84116760D02*
X125537999Y-83973902D01*
X125537999Y-83973902D02*
X125509427Y-83859617D01*
X125509427Y-83859617D02*
X125480856Y-83802474D01*
X125480856Y-83802474D02*
X125452285Y-83773902D01*
X125452285Y-83773902D02*
X125395142Y-83745331D01*
X185809286Y-98823330D02*
X185809286Y-98223330D01*
X185809286Y-98223330D02*
X185666429Y-98223330D01*
X185666429Y-98223330D02*
X185580715Y-98251901D01*
X185580715Y-98251901D02*
X185523572Y-98309044D01*
X185523572Y-98309044D02*
X185495001Y-98366187D01*
X185495001Y-98366187D02*
X185466429Y-98480473D01*
X185466429Y-98480473D02*
X185466429Y-98566187D01*
X185466429Y-98566187D02*
X185495001Y-98680473D01*
X185495001Y-98680473D02*
X185523572Y-98737616D01*
X185523572Y-98737616D02*
X185580715Y-98794759D01*
X185580715Y-98794759D02*
X185666429Y-98823330D01*
X185666429Y-98823330D02*
X185809286Y-98823330D01*
X185237858Y-98280473D02*
X185209286Y-98251901D01*
X185209286Y-98251901D02*
X185152144Y-98223330D01*
X185152144Y-98223330D02*
X185009286Y-98223330D01*
X185009286Y-98223330D02*
X184952144Y-98251901D01*
X184952144Y-98251901D02*
X184923572Y-98280473D01*
X184923572Y-98280473D02*
X184895001Y-98337616D01*
X184895001Y-98337616D02*
X184895001Y-98394759D01*
X184895001Y-98394759D02*
X184923572Y-98480473D01*
X184923572Y-98480473D02*
X185266429Y-98823330D01*
X185266429Y-98823330D02*
X184895001Y-98823330D01*
X184523572Y-98223330D02*
X184466429Y-98223330D01*
X184466429Y-98223330D02*
X184409286Y-98251901D01*
X184409286Y-98251901D02*
X184380715Y-98280473D01*
X184380715Y-98280473D02*
X184352143Y-98337616D01*
X184352143Y-98337616D02*
X184323572Y-98451901D01*
X184323572Y-98451901D02*
X184323572Y-98594759D01*
X184323572Y-98594759D02*
X184352143Y-98709044D01*
X184352143Y-98709044D02*
X184380715Y-98766187D01*
X184380715Y-98766187D02*
X184409286Y-98794759D01*
X184409286Y-98794759D02*
X184466429Y-98823330D01*
X184466429Y-98823330D02*
X184523572Y-98823330D01*
X184523572Y-98823330D02*
X184580715Y-98794759D01*
X184580715Y-98794759D02*
X184609286Y-98766187D01*
X184609286Y-98766187D02*
X184637857Y-98709044D01*
X184637857Y-98709044D02*
X184666429Y-98594759D01*
X184666429Y-98594759D02*
X184666429Y-98451901D01*
X184666429Y-98451901D02*
X184637857Y-98337616D01*
X184637857Y-98337616D02*
X184609286Y-98280473D01*
X184609286Y-98280473D02*
X184580715Y-98251901D01*
X184580715Y-98251901D02*
X184523572Y-98223330D01*
X183752143Y-98823330D02*
X184095000Y-98823330D01*
X183923571Y-98823330D02*
X183923571Y-98223330D01*
X183923571Y-98223330D02*
X183980714Y-98309044D01*
X183980714Y-98309044D02*
X184037857Y-98366187D01*
X184037857Y-98366187D02*
X184095000Y-98394759D01*
X134783428Y-83710331D02*
X134983428Y-83424617D01*
X135126285Y-83710331D02*
X135126285Y-83110331D01*
X135126285Y-83110331D02*
X134897714Y-83110331D01*
X134897714Y-83110331D02*
X134840571Y-83138902D01*
X134840571Y-83138902D02*
X134812000Y-83167474D01*
X134812000Y-83167474D02*
X134783428Y-83224617D01*
X134783428Y-83224617D02*
X134783428Y-83310331D01*
X134783428Y-83310331D02*
X134812000Y-83367474D01*
X134812000Y-83367474D02*
X134840571Y-83396045D01*
X134840571Y-83396045D02*
X134897714Y-83424617D01*
X134897714Y-83424617D02*
X135126285Y-83424617D01*
X134240571Y-83110331D02*
X134526285Y-83110331D01*
X134526285Y-83110331D02*
X134554857Y-83396045D01*
X134554857Y-83396045D02*
X134526285Y-83367474D01*
X134526285Y-83367474D02*
X134469143Y-83338902D01*
X134469143Y-83338902D02*
X134326285Y-83338902D01*
X134326285Y-83338902D02*
X134269143Y-83367474D01*
X134269143Y-83367474D02*
X134240571Y-83396045D01*
X134240571Y-83396045D02*
X134212000Y-83453188D01*
X134212000Y-83453188D02*
X134212000Y-83596045D01*
X134212000Y-83596045D02*
X134240571Y-83653188D01*
X134240571Y-83653188D02*
X134269143Y-83681760D01*
X134269143Y-83681760D02*
X134326285Y-83710331D01*
X134326285Y-83710331D02*
X134469143Y-83710331D01*
X134469143Y-83710331D02*
X134526285Y-83681760D01*
X134526285Y-83681760D02*
X134554857Y-83653188D01*
X133840571Y-83110331D02*
X133783428Y-83110331D01*
X133783428Y-83110331D02*
X133726285Y-83138902D01*
X133726285Y-83138902D02*
X133697714Y-83167474D01*
X133697714Y-83167474D02*
X133669142Y-83224617D01*
X133669142Y-83224617D02*
X133640571Y-83338902D01*
X133640571Y-83338902D02*
X133640571Y-83481760D01*
X133640571Y-83481760D02*
X133669142Y-83596045D01*
X133669142Y-83596045D02*
X133697714Y-83653188D01*
X133697714Y-83653188D02*
X133726285Y-83681760D01*
X133726285Y-83681760D02*
X133783428Y-83710331D01*
X133783428Y-83710331D02*
X133840571Y-83710331D01*
X133840571Y-83710331D02*
X133897714Y-83681760D01*
X133897714Y-83681760D02*
X133926285Y-83653188D01*
X133926285Y-83653188D02*
X133954856Y-83596045D01*
X133954856Y-83596045D02*
X133983428Y-83481760D01*
X133983428Y-83481760D02*
X133983428Y-83338902D01*
X133983428Y-83338902D02*
X133954856Y-83224617D01*
X133954856Y-83224617D02*
X133926285Y-83167474D01*
X133926285Y-83167474D02*
X133897714Y-83138902D01*
X133897714Y-83138902D02*
X133840571Y-83110331D01*
X133440570Y-83110331D02*
X133040570Y-83110331D01*
X133040570Y-83110331D02*
X133297713Y-83710331D01*
X140752428Y-90892188D02*
X140781000Y-90920760D01*
X140781000Y-90920760D02*
X140866714Y-90949331D01*
X140866714Y-90949331D02*
X140923857Y-90949331D01*
X140923857Y-90949331D02*
X141009571Y-90920760D01*
X141009571Y-90920760D02*
X141066714Y-90863617D01*
X141066714Y-90863617D02*
X141095285Y-90806474D01*
X141095285Y-90806474D02*
X141123857Y-90692188D01*
X141123857Y-90692188D02*
X141123857Y-90606474D01*
X141123857Y-90606474D02*
X141095285Y-90492188D01*
X141095285Y-90492188D02*
X141066714Y-90435045D01*
X141066714Y-90435045D02*
X141009571Y-90377902D01*
X141009571Y-90377902D02*
X140923857Y-90349331D01*
X140923857Y-90349331D02*
X140866714Y-90349331D01*
X140866714Y-90349331D02*
X140781000Y-90377902D01*
X140781000Y-90377902D02*
X140752428Y-90406474D01*
X140209571Y-90349331D02*
X140495285Y-90349331D01*
X140495285Y-90349331D02*
X140523857Y-90635045D01*
X140523857Y-90635045D02*
X140495285Y-90606474D01*
X140495285Y-90606474D02*
X140438143Y-90577902D01*
X140438143Y-90577902D02*
X140295285Y-90577902D01*
X140295285Y-90577902D02*
X140238143Y-90606474D01*
X140238143Y-90606474D02*
X140209571Y-90635045D01*
X140209571Y-90635045D02*
X140181000Y-90692188D01*
X140181000Y-90692188D02*
X140181000Y-90835045D01*
X140181000Y-90835045D02*
X140209571Y-90892188D01*
X140209571Y-90892188D02*
X140238143Y-90920760D01*
X140238143Y-90920760D02*
X140295285Y-90949331D01*
X140295285Y-90949331D02*
X140438143Y-90949331D01*
X140438143Y-90949331D02*
X140495285Y-90920760D01*
X140495285Y-90920760D02*
X140523857Y-90892188D01*
X139809571Y-90349331D02*
X139752428Y-90349331D01*
X139752428Y-90349331D02*
X139695285Y-90377902D01*
X139695285Y-90377902D02*
X139666714Y-90406474D01*
X139666714Y-90406474D02*
X139638142Y-90463617D01*
X139638142Y-90463617D02*
X139609571Y-90577902D01*
X139609571Y-90577902D02*
X139609571Y-90720760D01*
X139609571Y-90720760D02*
X139638142Y-90835045D01*
X139638142Y-90835045D02*
X139666714Y-90892188D01*
X139666714Y-90892188D02*
X139695285Y-90920760D01*
X139695285Y-90920760D02*
X139752428Y-90949331D01*
X139752428Y-90949331D02*
X139809571Y-90949331D01*
X139809571Y-90949331D02*
X139866714Y-90920760D01*
X139866714Y-90920760D02*
X139895285Y-90892188D01*
X139895285Y-90892188D02*
X139923856Y-90835045D01*
X139923856Y-90835045D02*
X139952428Y-90720760D01*
X139952428Y-90720760D02*
X139952428Y-90577902D01*
X139952428Y-90577902D02*
X139923856Y-90463617D01*
X139923856Y-90463617D02*
X139895285Y-90406474D01*
X139895285Y-90406474D02*
X139866714Y-90377902D01*
X139866714Y-90377902D02*
X139809571Y-90349331D01*
X139266713Y-90606474D02*
X139323856Y-90577902D01*
X139323856Y-90577902D02*
X139352427Y-90549331D01*
X139352427Y-90549331D02*
X139380999Y-90492188D01*
X139380999Y-90492188D02*
X139380999Y-90463617D01*
X139380999Y-90463617D02*
X139352427Y-90406474D01*
X139352427Y-90406474D02*
X139323856Y-90377902D01*
X139323856Y-90377902D02*
X139266713Y-90349331D01*
X139266713Y-90349331D02*
X139152427Y-90349331D01*
X139152427Y-90349331D02*
X139095285Y-90377902D01*
X139095285Y-90377902D02*
X139066713Y-90406474D01*
X139066713Y-90406474D02*
X139038142Y-90463617D01*
X139038142Y-90463617D02*
X139038142Y-90492188D01*
X139038142Y-90492188D02*
X139066713Y-90549331D01*
X139066713Y-90549331D02*
X139095285Y-90577902D01*
X139095285Y-90577902D02*
X139152427Y-90606474D01*
X139152427Y-90606474D02*
X139266713Y-90606474D01*
X139266713Y-90606474D02*
X139323856Y-90635045D01*
X139323856Y-90635045D02*
X139352427Y-90663617D01*
X139352427Y-90663617D02*
X139380999Y-90720760D01*
X139380999Y-90720760D02*
X139380999Y-90835045D01*
X139380999Y-90835045D02*
X139352427Y-90892188D01*
X139352427Y-90892188D02*
X139323856Y-90920760D01*
X139323856Y-90920760D02*
X139266713Y-90949331D01*
X139266713Y-90949331D02*
X139152427Y-90949331D01*
X139152427Y-90949331D02*
X139095285Y-90920760D01*
X139095285Y-90920760D02*
X139066713Y-90892188D01*
X139066713Y-90892188D02*
X139038142Y-90835045D01*
X139038142Y-90835045D02*
X139038142Y-90720760D01*
X139038142Y-90720760D02*
X139066713Y-90663617D01*
X139066713Y-90663617D02*
X139095285Y-90635045D01*
X139095285Y-90635045D02*
X139152427Y-90606474D01*
X158456188Y-78449571D02*
X158484760Y-78420999D01*
X158484760Y-78420999D02*
X158513331Y-78335285D01*
X158513331Y-78335285D02*
X158513331Y-78278142D01*
X158513331Y-78278142D02*
X158484760Y-78192428D01*
X158484760Y-78192428D02*
X158427617Y-78135285D01*
X158427617Y-78135285D02*
X158370474Y-78106714D01*
X158370474Y-78106714D02*
X158256188Y-78078142D01*
X158256188Y-78078142D02*
X158170474Y-78078142D01*
X158170474Y-78078142D02*
X158056188Y-78106714D01*
X158056188Y-78106714D02*
X157999045Y-78135285D01*
X157999045Y-78135285D02*
X157941902Y-78192428D01*
X157941902Y-78192428D02*
X157913331Y-78278142D01*
X157913331Y-78278142D02*
X157913331Y-78335285D01*
X157913331Y-78335285D02*
X157941902Y-78420999D01*
X157941902Y-78420999D02*
X157970474Y-78449571D01*
X158113331Y-78963857D02*
X158513331Y-78963857D01*
X157884760Y-78820999D02*
X158313331Y-78678142D01*
X158313331Y-78678142D02*
X158313331Y-79049571D01*
X158513331Y-79592428D02*
X158513331Y-79249571D01*
X158513331Y-79421000D02*
X157913331Y-79421000D01*
X157913331Y-79421000D02*
X157999045Y-79363857D01*
X157999045Y-79363857D02*
X158056188Y-79306714D01*
X158056188Y-79306714D02*
X158084760Y-79249571D01*
X157913331Y-80135286D02*
X157913331Y-79849572D01*
X157913331Y-79849572D02*
X158199045Y-79821000D01*
X158199045Y-79821000D02*
X158170474Y-79849572D01*
X158170474Y-79849572D02*
X158141902Y-79906715D01*
X158141902Y-79906715D02*
X158141902Y-80049572D01*
X158141902Y-80049572D02*
X158170474Y-80106715D01*
X158170474Y-80106715D02*
X158199045Y-80135286D01*
X158199045Y-80135286D02*
X158256188Y-80163857D01*
X158256188Y-80163857D02*
X158399045Y-80163857D01*
X158399045Y-80163857D02*
X158456188Y-80135286D01*
X158456188Y-80135286D02*
X158484760Y-80106715D01*
X158484760Y-80106715D02*
X158513331Y-80049572D01*
X158513331Y-80049572D02*
X158513331Y-79906715D01*
X158513331Y-79906715D02*
X158484760Y-79849572D01*
X158484760Y-79849572D02*
X158456188Y-79821000D01*
X144105188Y-89625571D02*
X144133760Y-89596999D01*
X144133760Y-89596999D02*
X144162331Y-89511285D01*
X144162331Y-89511285D02*
X144162331Y-89454142D01*
X144162331Y-89454142D02*
X144133760Y-89368428D01*
X144133760Y-89368428D02*
X144076617Y-89311285D01*
X144076617Y-89311285D02*
X144019474Y-89282714D01*
X144019474Y-89282714D02*
X143905188Y-89254142D01*
X143905188Y-89254142D02*
X143819474Y-89254142D01*
X143819474Y-89254142D02*
X143705188Y-89282714D01*
X143705188Y-89282714D02*
X143648045Y-89311285D01*
X143648045Y-89311285D02*
X143590902Y-89368428D01*
X143590902Y-89368428D02*
X143562331Y-89454142D01*
X143562331Y-89454142D02*
X143562331Y-89511285D01*
X143562331Y-89511285D02*
X143590902Y-89596999D01*
X143590902Y-89596999D02*
X143619474Y-89625571D01*
X143762331Y-90139857D02*
X144162331Y-90139857D01*
X143533760Y-89996999D02*
X143962331Y-89854142D01*
X143962331Y-89854142D02*
X143962331Y-90225571D01*
X143562331Y-90568428D02*
X143562331Y-90625571D01*
X143562331Y-90625571D02*
X143590902Y-90682714D01*
X143590902Y-90682714D02*
X143619474Y-90711286D01*
X143619474Y-90711286D02*
X143676617Y-90739857D01*
X143676617Y-90739857D02*
X143790902Y-90768428D01*
X143790902Y-90768428D02*
X143933760Y-90768428D01*
X143933760Y-90768428D02*
X144048045Y-90739857D01*
X144048045Y-90739857D02*
X144105188Y-90711286D01*
X144105188Y-90711286D02*
X144133760Y-90682714D01*
X144133760Y-90682714D02*
X144162331Y-90625571D01*
X144162331Y-90625571D02*
X144162331Y-90568428D01*
X144162331Y-90568428D02*
X144133760Y-90511286D01*
X144133760Y-90511286D02*
X144105188Y-90482714D01*
X144105188Y-90482714D02*
X144048045Y-90454143D01*
X144048045Y-90454143D02*
X143933760Y-90425571D01*
X143933760Y-90425571D02*
X143790902Y-90425571D01*
X143790902Y-90425571D02*
X143676617Y-90454143D01*
X143676617Y-90454143D02*
X143619474Y-90482714D01*
X143619474Y-90482714D02*
X143590902Y-90511286D01*
X143590902Y-90511286D02*
X143562331Y-90568428D01*
X143819474Y-91111286D02*
X143790902Y-91054143D01*
X143790902Y-91054143D02*
X143762331Y-91025572D01*
X143762331Y-91025572D02*
X143705188Y-90997000D01*
X143705188Y-90997000D02*
X143676617Y-90997000D01*
X143676617Y-90997000D02*
X143619474Y-91025572D01*
X143619474Y-91025572D02*
X143590902Y-91054143D01*
X143590902Y-91054143D02*
X143562331Y-91111286D01*
X143562331Y-91111286D02*
X143562331Y-91225572D01*
X143562331Y-91225572D02*
X143590902Y-91282715D01*
X143590902Y-91282715D02*
X143619474Y-91311286D01*
X143619474Y-91311286D02*
X143676617Y-91339857D01*
X143676617Y-91339857D02*
X143705188Y-91339857D01*
X143705188Y-91339857D02*
X143762331Y-91311286D01*
X143762331Y-91311286D02*
X143790902Y-91282715D01*
X143790902Y-91282715D02*
X143819474Y-91225572D01*
X143819474Y-91225572D02*
X143819474Y-91111286D01*
X143819474Y-91111286D02*
X143848045Y-91054143D01*
X143848045Y-91054143D02*
X143876617Y-91025572D01*
X143876617Y-91025572D02*
X143933760Y-90997000D01*
X143933760Y-90997000D02*
X144048045Y-90997000D01*
X144048045Y-90997000D02*
X144105188Y-91025572D01*
X144105188Y-91025572D02*
X144133760Y-91054143D01*
X144133760Y-91054143D02*
X144162331Y-91111286D01*
X144162331Y-91111286D02*
X144162331Y-91225572D01*
X144162331Y-91225572D02*
X144133760Y-91282715D01*
X144133760Y-91282715D02*
X144105188Y-91311286D01*
X144105188Y-91311286D02*
X144048045Y-91339857D01*
X144048045Y-91339857D02*
X143933760Y-91339857D01*
X143933760Y-91339857D02*
X143876617Y-91311286D01*
X143876617Y-91311286D02*
X143848045Y-91282715D01*
X143848045Y-91282715D02*
X143819474Y-91225572D01*
X150785428Y-76033188D02*
X150814000Y-76061760D01*
X150814000Y-76061760D02*
X150899714Y-76090331D01*
X150899714Y-76090331D02*
X150956857Y-76090331D01*
X150956857Y-76090331D02*
X151042571Y-76061760D01*
X151042571Y-76061760D02*
X151099714Y-76004617D01*
X151099714Y-76004617D02*
X151128285Y-75947474D01*
X151128285Y-75947474D02*
X151156857Y-75833188D01*
X151156857Y-75833188D02*
X151156857Y-75747474D01*
X151156857Y-75747474D02*
X151128285Y-75633188D01*
X151128285Y-75633188D02*
X151099714Y-75576045D01*
X151099714Y-75576045D02*
X151042571Y-75518902D01*
X151042571Y-75518902D02*
X150956857Y-75490331D01*
X150956857Y-75490331D02*
X150899714Y-75490331D01*
X150899714Y-75490331D02*
X150814000Y-75518902D01*
X150814000Y-75518902D02*
X150785428Y-75547474D01*
X150271143Y-75690331D02*
X150271143Y-76090331D01*
X150414000Y-75461760D02*
X150556857Y-75890331D01*
X150556857Y-75890331D02*
X150185428Y-75890331D01*
X149985428Y-75547474D02*
X149956856Y-75518902D01*
X149956856Y-75518902D02*
X149899714Y-75490331D01*
X149899714Y-75490331D02*
X149756856Y-75490331D01*
X149756856Y-75490331D02*
X149699714Y-75518902D01*
X149699714Y-75518902D02*
X149671142Y-75547474D01*
X149671142Y-75547474D02*
X149642571Y-75604617D01*
X149642571Y-75604617D02*
X149642571Y-75661760D01*
X149642571Y-75661760D02*
X149671142Y-75747474D01*
X149671142Y-75747474D02*
X150013999Y-76090331D01*
X150013999Y-76090331D02*
X149642571Y-76090331D01*
X149271142Y-75490331D02*
X149213999Y-75490331D01*
X149213999Y-75490331D02*
X149156856Y-75518902D01*
X149156856Y-75518902D02*
X149128285Y-75547474D01*
X149128285Y-75547474D02*
X149099713Y-75604617D01*
X149099713Y-75604617D02*
X149071142Y-75718902D01*
X149071142Y-75718902D02*
X149071142Y-75861760D01*
X149071142Y-75861760D02*
X149099713Y-75976045D01*
X149099713Y-75976045D02*
X149128285Y-76033188D01*
X149128285Y-76033188D02*
X149156856Y-76061760D01*
X149156856Y-76061760D02*
X149213999Y-76090331D01*
X149213999Y-76090331D02*
X149271142Y-76090331D01*
X149271142Y-76090331D02*
X149328285Y-76061760D01*
X149328285Y-76061760D02*
X149356856Y-76033188D01*
X149356856Y-76033188D02*
X149385427Y-75976045D01*
X149385427Y-75976045D02*
X149413999Y-75861760D01*
X149413999Y-75861760D02*
X149413999Y-75718902D01*
X149413999Y-75718902D02*
X149385427Y-75604617D01*
X149385427Y-75604617D02*
X149356856Y-75547474D01*
X149356856Y-75547474D02*
X149328285Y-75518902D01*
X149328285Y-75518902D02*
X149271142Y-75490331D01*
X144105188Y-78068571D02*
X144133760Y-78039999D01*
X144133760Y-78039999D02*
X144162331Y-77954285D01*
X144162331Y-77954285D02*
X144162331Y-77897142D01*
X144162331Y-77897142D02*
X144133760Y-77811428D01*
X144133760Y-77811428D02*
X144076617Y-77754285D01*
X144076617Y-77754285D02*
X144019474Y-77725714D01*
X144019474Y-77725714D02*
X143905188Y-77697142D01*
X143905188Y-77697142D02*
X143819474Y-77697142D01*
X143819474Y-77697142D02*
X143705188Y-77725714D01*
X143705188Y-77725714D02*
X143648045Y-77754285D01*
X143648045Y-77754285D02*
X143590902Y-77811428D01*
X143590902Y-77811428D02*
X143562331Y-77897142D01*
X143562331Y-77897142D02*
X143562331Y-77954285D01*
X143562331Y-77954285D02*
X143590902Y-78039999D01*
X143590902Y-78039999D02*
X143619474Y-78068571D01*
X143762331Y-78582857D02*
X144162331Y-78582857D01*
X143533760Y-78439999D02*
X143962331Y-78297142D01*
X143962331Y-78297142D02*
X143962331Y-78668571D01*
X143562331Y-79011428D02*
X143562331Y-79068571D01*
X143562331Y-79068571D02*
X143590902Y-79125714D01*
X143590902Y-79125714D02*
X143619474Y-79154286D01*
X143619474Y-79154286D02*
X143676617Y-79182857D01*
X143676617Y-79182857D02*
X143790902Y-79211428D01*
X143790902Y-79211428D02*
X143933760Y-79211428D01*
X143933760Y-79211428D02*
X144048045Y-79182857D01*
X144048045Y-79182857D02*
X144105188Y-79154286D01*
X144105188Y-79154286D02*
X144133760Y-79125714D01*
X144133760Y-79125714D02*
X144162331Y-79068571D01*
X144162331Y-79068571D02*
X144162331Y-79011428D01*
X144162331Y-79011428D02*
X144133760Y-78954286D01*
X144133760Y-78954286D02*
X144105188Y-78925714D01*
X144105188Y-78925714D02*
X144048045Y-78897143D01*
X144048045Y-78897143D02*
X143933760Y-78868571D01*
X143933760Y-78868571D02*
X143790902Y-78868571D01*
X143790902Y-78868571D02*
X143676617Y-78897143D01*
X143676617Y-78897143D02*
X143619474Y-78925714D01*
X143619474Y-78925714D02*
X143590902Y-78954286D01*
X143590902Y-78954286D02*
X143562331Y-79011428D01*
X143562331Y-79725715D02*
X143562331Y-79611429D01*
X143562331Y-79611429D02*
X143590902Y-79554286D01*
X143590902Y-79554286D02*
X143619474Y-79525715D01*
X143619474Y-79525715D02*
X143705188Y-79468572D01*
X143705188Y-79468572D02*
X143819474Y-79440000D01*
X143819474Y-79440000D02*
X144048045Y-79440000D01*
X144048045Y-79440000D02*
X144105188Y-79468572D01*
X144105188Y-79468572D02*
X144133760Y-79497143D01*
X144133760Y-79497143D02*
X144162331Y-79554286D01*
X144162331Y-79554286D02*
X144162331Y-79668572D01*
X144162331Y-79668572D02*
X144133760Y-79725715D01*
X144133760Y-79725715D02*
X144105188Y-79754286D01*
X144105188Y-79754286D02*
X144048045Y-79782857D01*
X144048045Y-79782857D02*
X143905188Y-79782857D01*
X143905188Y-79782857D02*
X143848045Y-79754286D01*
X143848045Y-79754286D02*
X143819474Y-79725715D01*
X143819474Y-79725715D02*
X143790902Y-79668572D01*
X143790902Y-79668572D02*
X143790902Y-79554286D01*
X143790902Y-79554286D02*
X143819474Y-79497143D01*
X143819474Y-79497143D02*
X143848045Y-79468572D01*
X143848045Y-79468572D02*
X143905188Y-79440000D01*
X168997188Y-82132571D02*
X169025760Y-82103999D01*
X169025760Y-82103999D02*
X169054331Y-82018285D01*
X169054331Y-82018285D02*
X169054331Y-81961142D01*
X169054331Y-81961142D02*
X169025760Y-81875428D01*
X169025760Y-81875428D02*
X168968617Y-81818285D01*
X168968617Y-81818285D02*
X168911474Y-81789714D01*
X168911474Y-81789714D02*
X168797188Y-81761142D01*
X168797188Y-81761142D02*
X168711474Y-81761142D01*
X168711474Y-81761142D02*
X168597188Y-81789714D01*
X168597188Y-81789714D02*
X168540045Y-81818285D01*
X168540045Y-81818285D02*
X168482902Y-81875428D01*
X168482902Y-81875428D02*
X168454331Y-81961142D01*
X168454331Y-81961142D02*
X168454331Y-82018285D01*
X168454331Y-82018285D02*
X168482902Y-82103999D01*
X168482902Y-82103999D02*
X168511474Y-82132571D01*
X168454331Y-82332571D02*
X168454331Y-82703999D01*
X168454331Y-82703999D02*
X168682902Y-82503999D01*
X168682902Y-82503999D02*
X168682902Y-82589714D01*
X168682902Y-82589714D02*
X168711474Y-82646857D01*
X168711474Y-82646857D02*
X168740045Y-82675428D01*
X168740045Y-82675428D02*
X168797188Y-82703999D01*
X168797188Y-82703999D02*
X168940045Y-82703999D01*
X168940045Y-82703999D02*
X168997188Y-82675428D01*
X168997188Y-82675428D02*
X169025760Y-82646857D01*
X169025760Y-82646857D02*
X169054331Y-82589714D01*
X169054331Y-82589714D02*
X169054331Y-82418285D01*
X169054331Y-82418285D02*
X169025760Y-82361142D01*
X169025760Y-82361142D02*
X168997188Y-82332571D01*
X168454331Y-83075428D02*
X168454331Y-83132571D01*
X168454331Y-83132571D02*
X168482902Y-83189714D01*
X168482902Y-83189714D02*
X168511474Y-83218286D01*
X168511474Y-83218286D02*
X168568617Y-83246857D01*
X168568617Y-83246857D02*
X168682902Y-83275428D01*
X168682902Y-83275428D02*
X168825760Y-83275428D01*
X168825760Y-83275428D02*
X168940045Y-83246857D01*
X168940045Y-83246857D02*
X168997188Y-83218286D01*
X168997188Y-83218286D02*
X169025760Y-83189714D01*
X169025760Y-83189714D02*
X169054331Y-83132571D01*
X169054331Y-83132571D02*
X169054331Y-83075428D01*
X169054331Y-83075428D02*
X169025760Y-83018286D01*
X169025760Y-83018286D02*
X168997188Y-82989714D01*
X168997188Y-82989714D02*
X168940045Y-82961143D01*
X168940045Y-82961143D02*
X168825760Y-82932571D01*
X168825760Y-82932571D02*
X168682902Y-82932571D01*
X168682902Y-82932571D02*
X168568617Y-82961143D01*
X168568617Y-82961143D02*
X168511474Y-82989714D01*
X168511474Y-82989714D02*
X168482902Y-83018286D01*
X168482902Y-83018286D02*
X168454331Y-83075428D01*
X168454331Y-83475429D02*
X168454331Y-83875429D01*
X168454331Y-83875429D02*
X169054331Y-83618286D01*
X148042188Y-89625571D02*
X148070760Y-89596999D01*
X148070760Y-89596999D02*
X148099331Y-89511285D01*
X148099331Y-89511285D02*
X148099331Y-89454142D01*
X148099331Y-89454142D02*
X148070760Y-89368428D01*
X148070760Y-89368428D02*
X148013617Y-89311285D01*
X148013617Y-89311285D02*
X147956474Y-89282714D01*
X147956474Y-89282714D02*
X147842188Y-89254142D01*
X147842188Y-89254142D02*
X147756474Y-89254142D01*
X147756474Y-89254142D02*
X147642188Y-89282714D01*
X147642188Y-89282714D02*
X147585045Y-89311285D01*
X147585045Y-89311285D02*
X147527902Y-89368428D01*
X147527902Y-89368428D02*
X147499331Y-89454142D01*
X147499331Y-89454142D02*
X147499331Y-89511285D01*
X147499331Y-89511285D02*
X147527902Y-89596999D01*
X147527902Y-89596999D02*
X147556474Y-89625571D01*
X147699331Y-90139857D02*
X148099331Y-90139857D01*
X147470760Y-89996999D02*
X147899331Y-89854142D01*
X147899331Y-89854142D02*
X147899331Y-90225571D01*
X148099331Y-90768428D02*
X148099331Y-90425571D01*
X148099331Y-90597000D02*
X147499331Y-90597000D01*
X147499331Y-90597000D02*
X147585045Y-90539857D01*
X147585045Y-90539857D02*
X147642188Y-90482714D01*
X147642188Y-90482714D02*
X147670760Y-90425571D01*
X147756474Y-91111286D02*
X147727902Y-91054143D01*
X147727902Y-91054143D02*
X147699331Y-91025572D01*
X147699331Y-91025572D02*
X147642188Y-90997000D01*
X147642188Y-90997000D02*
X147613617Y-90997000D01*
X147613617Y-90997000D02*
X147556474Y-91025572D01*
X147556474Y-91025572D02*
X147527902Y-91054143D01*
X147527902Y-91054143D02*
X147499331Y-91111286D01*
X147499331Y-91111286D02*
X147499331Y-91225572D01*
X147499331Y-91225572D02*
X147527902Y-91282715D01*
X147527902Y-91282715D02*
X147556474Y-91311286D01*
X147556474Y-91311286D02*
X147613617Y-91339857D01*
X147613617Y-91339857D02*
X147642188Y-91339857D01*
X147642188Y-91339857D02*
X147699331Y-91311286D01*
X147699331Y-91311286D02*
X147727902Y-91282715D01*
X147727902Y-91282715D02*
X147756474Y-91225572D01*
X147756474Y-91225572D02*
X147756474Y-91111286D01*
X147756474Y-91111286D02*
X147785045Y-91054143D01*
X147785045Y-91054143D02*
X147813617Y-91025572D01*
X147813617Y-91025572D02*
X147870760Y-90997000D01*
X147870760Y-90997000D02*
X147985045Y-90997000D01*
X147985045Y-90997000D02*
X148042188Y-91025572D01*
X148042188Y-91025572D02*
X148070760Y-91054143D01*
X148070760Y-91054143D02*
X148099331Y-91111286D01*
X148099331Y-91111286D02*
X148099331Y-91225572D01*
X148099331Y-91225572D02*
X148070760Y-91282715D01*
X148070760Y-91282715D02*
X148042188Y-91311286D01*
X148042188Y-91311286D02*
X147985045Y-91339857D01*
X147985045Y-91339857D02*
X147870760Y-91339857D01*
X147870760Y-91339857D02*
X147813617Y-91311286D01*
X147813617Y-91311286D02*
X147785045Y-91282715D01*
X147785045Y-91282715D02*
X147756474Y-91225572D01*
X159091188Y-66384571D02*
X159119760Y-66355999D01*
X159119760Y-66355999D02*
X159148331Y-66270285D01*
X159148331Y-66270285D02*
X159148331Y-66213142D01*
X159148331Y-66213142D02*
X159119760Y-66127428D01*
X159119760Y-66127428D02*
X159062617Y-66070285D01*
X159062617Y-66070285D02*
X159005474Y-66041714D01*
X159005474Y-66041714D02*
X158891188Y-66013142D01*
X158891188Y-66013142D02*
X158805474Y-66013142D01*
X158805474Y-66013142D02*
X158691188Y-66041714D01*
X158691188Y-66041714D02*
X158634045Y-66070285D01*
X158634045Y-66070285D02*
X158576902Y-66127428D01*
X158576902Y-66127428D02*
X158548331Y-66213142D01*
X158548331Y-66213142D02*
X158548331Y-66270285D01*
X158548331Y-66270285D02*
X158576902Y-66355999D01*
X158576902Y-66355999D02*
X158605474Y-66384571D01*
X158748331Y-66898857D02*
X159148331Y-66898857D01*
X158519760Y-66755999D02*
X158948331Y-66613142D01*
X158948331Y-66613142D02*
X158948331Y-66984571D01*
X158548331Y-67327428D02*
X158548331Y-67384571D01*
X158548331Y-67384571D02*
X158576902Y-67441714D01*
X158576902Y-67441714D02*
X158605474Y-67470286D01*
X158605474Y-67470286D02*
X158662617Y-67498857D01*
X158662617Y-67498857D02*
X158776902Y-67527428D01*
X158776902Y-67527428D02*
X158919760Y-67527428D01*
X158919760Y-67527428D02*
X159034045Y-67498857D01*
X159034045Y-67498857D02*
X159091188Y-67470286D01*
X159091188Y-67470286D02*
X159119760Y-67441714D01*
X159119760Y-67441714D02*
X159148331Y-67384571D01*
X159148331Y-67384571D02*
X159148331Y-67327428D01*
X159148331Y-67327428D02*
X159119760Y-67270286D01*
X159119760Y-67270286D02*
X159091188Y-67241714D01*
X159091188Y-67241714D02*
X159034045Y-67213143D01*
X159034045Y-67213143D02*
X158919760Y-67184571D01*
X158919760Y-67184571D02*
X158776902Y-67184571D01*
X158776902Y-67184571D02*
X158662617Y-67213143D01*
X158662617Y-67213143D02*
X158605474Y-67241714D01*
X158605474Y-67241714D02*
X158576902Y-67270286D01*
X158576902Y-67270286D02*
X158548331Y-67327428D01*
X158548331Y-68070286D02*
X158548331Y-67784572D01*
X158548331Y-67784572D02*
X158834045Y-67756000D01*
X158834045Y-67756000D02*
X158805474Y-67784572D01*
X158805474Y-67784572D02*
X158776902Y-67841715D01*
X158776902Y-67841715D02*
X158776902Y-67984572D01*
X158776902Y-67984572D02*
X158805474Y-68041715D01*
X158805474Y-68041715D02*
X158834045Y-68070286D01*
X158834045Y-68070286D02*
X158891188Y-68098857D01*
X158891188Y-68098857D02*
X159034045Y-68098857D01*
X159034045Y-68098857D02*
X159091188Y-68070286D01*
X159091188Y-68070286D02*
X159119760Y-68041715D01*
X159119760Y-68041715D02*
X159148331Y-67984572D01*
X159148331Y-67984572D02*
X159148331Y-67841715D01*
X159148331Y-67841715D02*
X159119760Y-67784572D01*
X159119760Y-67784572D02*
X159091188Y-67756000D01*
X172934188Y-68289571D02*
X172962760Y-68260999D01*
X172962760Y-68260999D02*
X172991331Y-68175285D01*
X172991331Y-68175285D02*
X172991331Y-68118142D01*
X172991331Y-68118142D02*
X172962760Y-68032428D01*
X172962760Y-68032428D02*
X172905617Y-67975285D01*
X172905617Y-67975285D02*
X172848474Y-67946714D01*
X172848474Y-67946714D02*
X172734188Y-67918142D01*
X172734188Y-67918142D02*
X172648474Y-67918142D01*
X172648474Y-67918142D02*
X172534188Y-67946714D01*
X172534188Y-67946714D02*
X172477045Y-67975285D01*
X172477045Y-67975285D02*
X172419902Y-68032428D01*
X172419902Y-68032428D02*
X172391331Y-68118142D01*
X172391331Y-68118142D02*
X172391331Y-68175285D01*
X172391331Y-68175285D02*
X172419902Y-68260999D01*
X172419902Y-68260999D02*
X172448474Y-68289571D01*
X172391331Y-68489571D02*
X172391331Y-68860999D01*
X172391331Y-68860999D02*
X172619902Y-68660999D01*
X172619902Y-68660999D02*
X172619902Y-68746714D01*
X172619902Y-68746714D02*
X172648474Y-68803857D01*
X172648474Y-68803857D02*
X172677045Y-68832428D01*
X172677045Y-68832428D02*
X172734188Y-68860999D01*
X172734188Y-68860999D02*
X172877045Y-68860999D01*
X172877045Y-68860999D02*
X172934188Y-68832428D01*
X172934188Y-68832428D02*
X172962760Y-68803857D01*
X172962760Y-68803857D02*
X172991331Y-68746714D01*
X172991331Y-68746714D02*
X172991331Y-68575285D01*
X172991331Y-68575285D02*
X172962760Y-68518142D01*
X172962760Y-68518142D02*
X172934188Y-68489571D01*
X172391331Y-69232428D02*
X172391331Y-69289571D01*
X172391331Y-69289571D02*
X172419902Y-69346714D01*
X172419902Y-69346714D02*
X172448474Y-69375286D01*
X172448474Y-69375286D02*
X172505617Y-69403857D01*
X172505617Y-69403857D02*
X172619902Y-69432428D01*
X172619902Y-69432428D02*
X172762760Y-69432428D01*
X172762760Y-69432428D02*
X172877045Y-69403857D01*
X172877045Y-69403857D02*
X172934188Y-69375286D01*
X172934188Y-69375286D02*
X172962760Y-69346714D01*
X172962760Y-69346714D02*
X172991331Y-69289571D01*
X172991331Y-69289571D02*
X172991331Y-69232428D01*
X172991331Y-69232428D02*
X172962760Y-69175286D01*
X172962760Y-69175286D02*
X172934188Y-69146714D01*
X172934188Y-69146714D02*
X172877045Y-69118143D01*
X172877045Y-69118143D02*
X172762760Y-69089571D01*
X172762760Y-69089571D02*
X172619902Y-69089571D01*
X172619902Y-69089571D02*
X172505617Y-69118143D01*
X172505617Y-69118143D02*
X172448474Y-69146714D01*
X172448474Y-69146714D02*
X172419902Y-69175286D01*
X172419902Y-69175286D02*
X172391331Y-69232428D01*
X172591331Y-69946715D02*
X172991331Y-69946715D01*
X172362760Y-69803857D02*
X172791331Y-69661000D01*
X172791331Y-69661000D02*
X172791331Y-70032429D01*
X178725428Y-92092331D02*
X178925428Y-91806617D01*
X179068285Y-92092331D02*
X179068285Y-91492331D01*
X179068285Y-91492331D02*
X178839714Y-91492331D01*
X178839714Y-91492331D02*
X178782571Y-91520902D01*
X178782571Y-91520902D02*
X178754000Y-91549474D01*
X178754000Y-91549474D02*
X178725428Y-91606617D01*
X178725428Y-91606617D02*
X178725428Y-91692331D01*
X178725428Y-91692331D02*
X178754000Y-91749474D01*
X178754000Y-91749474D02*
X178782571Y-91778045D01*
X178782571Y-91778045D02*
X178839714Y-91806617D01*
X178839714Y-91806617D02*
X179068285Y-91806617D01*
X178496857Y-91549474D02*
X178468285Y-91520902D01*
X178468285Y-91520902D02*
X178411143Y-91492331D01*
X178411143Y-91492331D02*
X178268285Y-91492331D01*
X178268285Y-91492331D02*
X178211143Y-91520902D01*
X178211143Y-91520902D02*
X178182571Y-91549474D01*
X178182571Y-91549474D02*
X178154000Y-91606617D01*
X178154000Y-91606617D02*
X178154000Y-91663760D01*
X178154000Y-91663760D02*
X178182571Y-91749474D01*
X178182571Y-91749474D02*
X178525428Y-92092331D01*
X178525428Y-92092331D02*
X178154000Y-92092331D01*
X177782571Y-91492331D02*
X177725428Y-91492331D01*
X177725428Y-91492331D02*
X177668285Y-91520902D01*
X177668285Y-91520902D02*
X177639714Y-91549474D01*
X177639714Y-91549474D02*
X177611142Y-91606617D01*
X177611142Y-91606617D02*
X177582571Y-91720902D01*
X177582571Y-91720902D02*
X177582571Y-91863760D01*
X177582571Y-91863760D02*
X177611142Y-91978045D01*
X177611142Y-91978045D02*
X177639714Y-92035188D01*
X177639714Y-92035188D02*
X177668285Y-92063760D01*
X177668285Y-92063760D02*
X177725428Y-92092331D01*
X177725428Y-92092331D02*
X177782571Y-92092331D01*
X177782571Y-92092331D02*
X177839714Y-92063760D01*
X177839714Y-92063760D02*
X177868285Y-92035188D01*
X177868285Y-92035188D02*
X177896856Y-91978045D01*
X177896856Y-91978045D02*
X177925428Y-91863760D01*
X177925428Y-91863760D02*
X177925428Y-91720902D01*
X177925428Y-91720902D02*
X177896856Y-91606617D01*
X177896856Y-91606617D02*
X177868285Y-91549474D01*
X177868285Y-91549474D02*
X177839714Y-91520902D01*
X177839714Y-91520902D02*
X177782571Y-91492331D01*
X177353999Y-91549474D02*
X177325427Y-91520902D01*
X177325427Y-91520902D02*
X177268285Y-91492331D01*
X177268285Y-91492331D02*
X177125427Y-91492331D01*
X177125427Y-91492331D02*
X177068285Y-91520902D01*
X177068285Y-91520902D02*
X177039713Y-91549474D01*
X177039713Y-91549474D02*
X177011142Y-91606617D01*
X177011142Y-91606617D02*
X177011142Y-91663760D01*
X177011142Y-91663760D02*
X177039713Y-91749474D01*
X177039713Y-91749474D02*
X177382570Y-92092331D01*
X177382570Y-92092331D02*
X177011142Y-92092331D01*
X165625331Y-68543571D02*
X165339617Y-68343571D01*
X165625331Y-68200714D02*
X165025331Y-68200714D01*
X165025331Y-68200714D02*
X165025331Y-68429285D01*
X165025331Y-68429285D02*
X165053902Y-68486428D01*
X165053902Y-68486428D02*
X165082474Y-68514999D01*
X165082474Y-68514999D02*
X165139617Y-68543571D01*
X165139617Y-68543571D02*
X165225331Y-68543571D01*
X165225331Y-68543571D02*
X165282474Y-68514999D01*
X165282474Y-68514999D02*
X165311045Y-68486428D01*
X165311045Y-68486428D02*
X165339617Y-68429285D01*
X165339617Y-68429285D02*
X165339617Y-68200714D01*
X165225331Y-69057857D02*
X165625331Y-69057857D01*
X164996760Y-68914999D02*
X165425331Y-68772142D01*
X165425331Y-68772142D02*
X165425331Y-69143571D01*
X165025331Y-69486428D02*
X165025331Y-69543571D01*
X165025331Y-69543571D02*
X165053902Y-69600714D01*
X165053902Y-69600714D02*
X165082474Y-69629286D01*
X165082474Y-69629286D02*
X165139617Y-69657857D01*
X165139617Y-69657857D02*
X165253902Y-69686428D01*
X165253902Y-69686428D02*
X165396760Y-69686428D01*
X165396760Y-69686428D02*
X165511045Y-69657857D01*
X165511045Y-69657857D02*
X165568188Y-69629286D01*
X165568188Y-69629286D02*
X165596760Y-69600714D01*
X165596760Y-69600714D02*
X165625331Y-69543571D01*
X165625331Y-69543571D02*
X165625331Y-69486428D01*
X165625331Y-69486428D02*
X165596760Y-69429286D01*
X165596760Y-69429286D02*
X165568188Y-69400714D01*
X165568188Y-69400714D02*
X165511045Y-69372143D01*
X165511045Y-69372143D02*
X165396760Y-69343571D01*
X165396760Y-69343571D02*
X165253902Y-69343571D01*
X165253902Y-69343571D02*
X165139617Y-69372143D01*
X165139617Y-69372143D02*
X165082474Y-69400714D01*
X165082474Y-69400714D02*
X165053902Y-69429286D01*
X165053902Y-69429286D02*
X165025331Y-69486428D01*
X165625331Y-70257857D02*
X165625331Y-69915000D01*
X165625331Y-70086429D02*
X165025331Y-70086429D01*
X165025331Y-70086429D02*
X165111045Y-70029286D01*
X165111045Y-70029286D02*
X165168188Y-69972143D01*
X165168188Y-69972143D02*
X165196760Y-69915000D01*
X156424188Y-69305571D02*
X156452760Y-69276999D01*
X156452760Y-69276999D02*
X156481331Y-69191285D01*
X156481331Y-69191285D02*
X156481331Y-69134142D01*
X156481331Y-69134142D02*
X156452760Y-69048428D01*
X156452760Y-69048428D02*
X156395617Y-68991285D01*
X156395617Y-68991285D02*
X156338474Y-68962714D01*
X156338474Y-68962714D02*
X156224188Y-68934142D01*
X156224188Y-68934142D02*
X156138474Y-68934142D01*
X156138474Y-68934142D02*
X156024188Y-68962714D01*
X156024188Y-68962714D02*
X155967045Y-68991285D01*
X155967045Y-68991285D02*
X155909902Y-69048428D01*
X155909902Y-69048428D02*
X155881331Y-69134142D01*
X155881331Y-69134142D02*
X155881331Y-69191285D01*
X155881331Y-69191285D02*
X155909902Y-69276999D01*
X155909902Y-69276999D02*
X155938474Y-69305571D01*
X156081331Y-69819857D02*
X156481331Y-69819857D01*
X155852760Y-69676999D02*
X156281331Y-69534142D01*
X156281331Y-69534142D02*
X156281331Y-69905571D01*
X155881331Y-70248428D02*
X155881331Y-70305571D01*
X155881331Y-70305571D02*
X155909902Y-70362714D01*
X155909902Y-70362714D02*
X155938474Y-70391286D01*
X155938474Y-70391286D02*
X155995617Y-70419857D01*
X155995617Y-70419857D02*
X156109902Y-70448428D01*
X156109902Y-70448428D02*
X156252760Y-70448428D01*
X156252760Y-70448428D02*
X156367045Y-70419857D01*
X156367045Y-70419857D02*
X156424188Y-70391286D01*
X156424188Y-70391286D02*
X156452760Y-70362714D01*
X156452760Y-70362714D02*
X156481331Y-70305571D01*
X156481331Y-70305571D02*
X156481331Y-70248428D01*
X156481331Y-70248428D02*
X156452760Y-70191286D01*
X156452760Y-70191286D02*
X156424188Y-70162714D01*
X156424188Y-70162714D02*
X156367045Y-70134143D01*
X156367045Y-70134143D02*
X156252760Y-70105571D01*
X156252760Y-70105571D02*
X156109902Y-70105571D01*
X156109902Y-70105571D02*
X155995617Y-70134143D01*
X155995617Y-70134143D02*
X155938474Y-70162714D01*
X155938474Y-70162714D02*
X155909902Y-70191286D01*
X155909902Y-70191286D02*
X155881331Y-70248428D01*
X155881331Y-70648429D02*
X155881331Y-71048429D01*
X155881331Y-71048429D02*
X156481331Y-70791286D01*
X162069331Y-80100571D02*
X161783617Y-79900571D01*
X162069331Y-79757714D02*
X161469331Y-79757714D01*
X161469331Y-79757714D02*
X161469331Y-79986285D01*
X161469331Y-79986285D02*
X161497902Y-80043428D01*
X161497902Y-80043428D02*
X161526474Y-80071999D01*
X161526474Y-80071999D02*
X161583617Y-80100571D01*
X161583617Y-80100571D02*
X161669331Y-80100571D01*
X161669331Y-80100571D02*
X161726474Y-80071999D01*
X161726474Y-80071999D02*
X161755045Y-80043428D01*
X161755045Y-80043428D02*
X161783617Y-79986285D01*
X161783617Y-79986285D02*
X161783617Y-79757714D01*
X161669331Y-80614857D02*
X162069331Y-80614857D01*
X161440760Y-80471999D02*
X161869331Y-80329142D01*
X161869331Y-80329142D02*
X161869331Y-80700571D01*
X161469331Y-81043428D02*
X161469331Y-81100571D01*
X161469331Y-81100571D02*
X161497902Y-81157714D01*
X161497902Y-81157714D02*
X161526474Y-81186286D01*
X161526474Y-81186286D02*
X161583617Y-81214857D01*
X161583617Y-81214857D02*
X161697902Y-81243428D01*
X161697902Y-81243428D02*
X161840760Y-81243428D01*
X161840760Y-81243428D02*
X161955045Y-81214857D01*
X161955045Y-81214857D02*
X162012188Y-81186286D01*
X162012188Y-81186286D02*
X162040760Y-81157714D01*
X162040760Y-81157714D02*
X162069331Y-81100571D01*
X162069331Y-81100571D02*
X162069331Y-81043428D01*
X162069331Y-81043428D02*
X162040760Y-80986286D01*
X162040760Y-80986286D02*
X162012188Y-80957714D01*
X162012188Y-80957714D02*
X161955045Y-80929143D01*
X161955045Y-80929143D02*
X161840760Y-80900571D01*
X161840760Y-80900571D02*
X161697902Y-80900571D01*
X161697902Y-80900571D02*
X161583617Y-80929143D01*
X161583617Y-80929143D02*
X161526474Y-80957714D01*
X161526474Y-80957714D02*
X161497902Y-80986286D01*
X161497902Y-80986286D02*
X161469331Y-81043428D01*
X161469331Y-81443429D02*
X161469331Y-81814857D01*
X161469331Y-81814857D02*
X161697902Y-81614857D01*
X161697902Y-81614857D02*
X161697902Y-81700572D01*
X161697902Y-81700572D02*
X161726474Y-81757715D01*
X161726474Y-81757715D02*
X161755045Y-81786286D01*
X161755045Y-81786286D02*
X161812188Y-81814857D01*
X161812188Y-81814857D02*
X161955045Y-81814857D01*
X161955045Y-81814857D02*
X162012188Y-81786286D01*
X162012188Y-81786286D02*
X162040760Y-81757715D01*
X162040760Y-81757715D02*
X162069331Y-81700572D01*
X162069331Y-81700572D02*
X162069331Y-81529143D01*
X162069331Y-81529143D02*
X162040760Y-81472000D01*
X162040760Y-81472000D02*
X162012188Y-81443429D01*
X149150331Y-82029428D02*
X149636045Y-82029428D01*
X149636045Y-82029428D02*
X149693188Y-82057999D01*
X149693188Y-82057999D02*
X149721760Y-82086571D01*
X149721760Y-82086571D02*
X149750331Y-82143713D01*
X149750331Y-82143713D02*
X149750331Y-82257999D01*
X149750331Y-82257999D02*
X149721760Y-82315142D01*
X149721760Y-82315142D02*
X149693188Y-82343713D01*
X149693188Y-82343713D02*
X149636045Y-82372285D01*
X149636045Y-82372285D02*
X149150331Y-82372285D01*
X149350331Y-82915142D02*
X149750331Y-82915142D01*
X149121760Y-82772284D02*
X149550331Y-82629427D01*
X149550331Y-82629427D02*
X149550331Y-83000856D01*
X149150331Y-83343713D02*
X149150331Y-83400856D01*
X149150331Y-83400856D02*
X149178902Y-83457999D01*
X149178902Y-83457999D02*
X149207474Y-83486571D01*
X149207474Y-83486571D02*
X149264617Y-83515142D01*
X149264617Y-83515142D02*
X149378902Y-83543713D01*
X149378902Y-83543713D02*
X149521760Y-83543713D01*
X149521760Y-83543713D02*
X149636045Y-83515142D01*
X149636045Y-83515142D02*
X149693188Y-83486571D01*
X149693188Y-83486571D02*
X149721760Y-83457999D01*
X149721760Y-83457999D02*
X149750331Y-83400856D01*
X149750331Y-83400856D02*
X149750331Y-83343713D01*
X149750331Y-83343713D02*
X149721760Y-83286571D01*
X149721760Y-83286571D02*
X149693188Y-83257999D01*
X149693188Y-83257999D02*
X149636045Y-83229428D01*
X149636045Y-83229428D02*
X149521760Y-83200856D01*
X149521760Y-83200856D02*
X149378902Y-83200856D01*
X149378902Y-83200856D02*
X149264617Y-83229428D01*
X149264617Y-83229428D02*
X149207474Y-83257999D01*
X149207474Y-83257999D02*
X149178902Y-83286571D01*
X149178902Y-83286571D02*
X149150331Y-83343713D01*
X149350331Y-84058000D02*
X149750331Y-84058000D01*
X149121760Y-83915142D02*
X149550331Y-83772285D01*
X149550331Y-83772285D02*
X149550331Y-84143714D01*
X137831428Y-80789331D02*
X138031428Y-80503617D01*
X138174285Y-80789331D02*
X138174285Y-80189331D01*
X138174285Y-80189331D02*
X137945714Y-80189331D01*
X137945714Y-80189331D02*
X137888571Y-80217902D01*
X137888571Y-80217902D02*
X137860000Y-80246474D01*
X137860000Y-80246474D02*
X137831428Y-80303617D01*
X137831428Y-80303617D02*
X137831428Y-80389331D01*
X137831428Y-80389331D02*
X137860000Y-80446474D01*
X137860000Y-80446474D02*
X137888571Y-80475045D01*
X137888571Y-80475045D02*
X137945714Y-80503617D01*
X137945714Y-80503617D02*
X138174285Y-80503617D01*
X137288571Y-80189331D02*
X137574285Y-80189331D01*
X137574285Y-80189331D02*
X137602857Y-80475045D01*
X137602857Y-80475045D02*
X137574285Y-80446474D01*
X137574285Y-80446474D02*
X137517143Y-80417902D01*
X137517143Y-80417902D02*
X137374285Y-80417902D01*
X137374285Y-80417902D02*
X137317143Y-80446474D01*
X137317143Y-80446474D02*
X137288571Y-80475045D01*
X137288571Y-80475045D02*
X137260000Y-80532188D01*
X137260000Y-80532188D02*
X137260000Y-80675045D01*
X137260000Y-80675045D02*
X137288571Y-80732188D01*
X137288571Y-80732188D02*
X137317143Y-80760760D01*
X137317143Y-80760760D02*
X137374285Y-80789331D01*
X137374285Y-80789331D02*
X137517143Y-80789331D01*
X137517143Y-80789331D02*
X137574285Y-80760760D01*
X137574285Y-80760760D02*
X137602857Y-80732188D01*
X136688571Y-80789331D02*
X137031428Y-80789331D01*
X136859999Y-80789331D02*
X136859999Y-80189331D01*
X136859999Y-80189331D02*
X136917142Y-80275045D01*
X136917142Y-80275045D02*
X136974285Y-80332188D01*
X136974285Y-80332188D02*
X137031428Y-80360760D01*
X136488570Y-80189331D02*
X136117142Y-80189331D01*
X136117142Y-80189331D02*
X136317142Y-80417902D01*
X136317142Y-80417902D02*
X136231427Y-80417902D01*
X136231427Y-80417902D02*
X136174285Y-80446474D01*
X136174285Y-80446474D02*
X136145713Y-80475045D01*
X136145713Y-80475045D02*
X136117142Y-80532188D01*
X136117142Y-80532188D02*
X136117142Y-80675045D01*
X136117142Y-80675045D02*
X136145713Y-80732188D01*
X136145713Y-80732188D02*
X136174285Y-80760760D01*
X136174285Y-80760760D02*
X136231427Y-80789331D01*
X136231427Y-80789331D02*
X136402856Y-80789331D01*
X136402856Y-80789331D02*
X136459999Y-80760760D01*
X136459999Y-80760760D02*
X136488570Y-80732188D01*
X127036428Y-85964188D02*
X127065000Y-85992760D01*
X127065000Y-85992760D02*
X127150714Y-86021331D01*
X127150714Y-86021331D02*
X127207857Y-86021331D01*
X127207857Y-86021331D02*
X127293571Y-85992760D01*
X127293571Y-85992760D02*
X127350714Y-85935617D01*
X127350714Y-85935617D02*
X127379285Y-85878474D01*
X127379285Y-85878474D02*
X127407857Y-85764188D01*
X127407857Y-85764188D02*
X127407857Y-85678474D01*
X127407857Y-85678474D02*
X127379285Y-85564188D01*
X127379285Y-85564188D02*
X127350714Y-85507045D01*
X127350714Y-85507045D02*
X127293571Y-85449902D01*
X127293571Y-85449902D02*
X127207857Y-85421331D01*
X127207857Y-85421331D02*
X127150714Y-85421331D01*
X127150714Y-85421331D02*
X127065000Y-85449902D01*
X127065000Y-85449902D02*
X127036428Y-85478474D01*
X126493571Y-85421331D02*
X126779285Y-85421331D01*
X126779285Y-85421331D02*
X126807857Y-85707045D01*
X126807857Y-85707045D02*
X126779285Y-85678474D01*
X126779285Y-85678474D02*
X126722143Y-85649902D01*
X126722143Y-85649902D02*
X126579285Y-85649902D01*
X126579285Y-85649902D02*
X126522143Y-85678474D01*
X126522143Y-85678474D02*
X126493571Y-85707045D01*
X126493571Y-85707045D02*
X126465000Y-85764188D01*
X126465000Y-85764188D02*
X126465000Y-85907045D01*
X126465000Y-85907045D02*
X126493571Y-85964188D01*
X126493571Y-85964188D02*
X126522143Y-85992760D01*
X126522143Y-85992760D02*
X126579285Y-86021331D01*
X126579285Y-86021331D02*
X126722143Y-86021331D01*
X126722143Y-86021331D02*
X126779285Y-85992760D01*
X126779285Y-85992760D02*
X126807857Y-85964188D01*
X125893571Y-86021331D02*
X126236428Y-86021331D01*
X126064999Y-86021331D02*
X126064999Y-85421331D01*
X126064999Y-85421331D02*
X126122142Y-85507045D01*
X126122142Y-85507045D02*
X126179285Y-85564188D01*
X126179285Y-85564188D02*
X126236428Y-85592760D01*
X125322142Y-86021331D02*
X125664999Y-86021331D01*
X125493570Y-86021331D02*
X125493570Y-85421331D01*
X125493570Y-85421331D02*
X125550713Y-85507045D01*
X125550713Y-85507045D02*
X125607856Y-85564188D01*
X125607856Y-85564188D02*
X125664999Y-85592760D01*
X134021428Y-78700188D02*
X134050000Y-78728760D01*
X134050000Y-78728760D02*
X134135714Y-78757331D01*
X134135714Y-78757331D02*
X134192857Y-78757331D01*
X134192857Y-78757331D02*
X134278571Y-78728760D01*
X134278571Y-78728760D02*
X134335714Y-78671617D01*
X134335714Y-78671617D02*
X134364285Y-78614474D01*
X134364285Y-78614474D02*
X134392857Y-78500188D01*
X134392857Y-78500188D02*
X134392857Y-78414474D01*
X134392857Y-78414474D02*
X134364285Y-78300188D01*
X134364285Y-78300188D02*
X134335714Y-78243045D01*
X134335714Y-78243045D02*
X134278571Y-78185902D01*
X134278571Y-78185902D02*
X134192857Y-78157331D01*
X134192857Y-78157331D02*
X134135714Y-78157331D01*
X134135714Y-78157331D02*
X134050000Y-78185902D01*
X134050000Y-78185902D02*
X134021428Y-78214474D01*
X133478571Y-78157331D02*
X133764285Y-78157331D01*
X133764285Y-78157331D02*
X133792857Y-78443045D01*
X133792857Y-78443045D02*
X133764285Y-78414474D01*
X133764285Y-78414474D02*
X133707143Y-78385902D01*
X133707143Y-78385902D02*
X133564285Y-78385902D01*
X133564285Y-78385902D02*
X133507143Y-78414474D01*
X133507143Y-78414474D02*
X133478571Y-78443045D01*
X133478571Y-78443045D02*
X133450000Y-78500188D01*
X133450000Y-78500188D02*
X133450000Y-78643045D01*
X133450000Y-78643045D02*
X133478571Y-78700188D01*
X133478571Y-78700188D02*
X133507143Y-78728760D01*
X133507143Y-78728760D02*
X133564285Y-78757331D01*
X133564285Y-78757331D02*
X133707143Y-78757331D01*
X133707143Y-78757331D02*
X133764285Y-78728760D01*
X133764285Y-78728760D02*
X133792857Y-78700188D01*
X133078571Y-78157331D02*
X133021428Y-78157331D01*
X133021428Y-78157331D02*
X132964285Y-78185902D01*
X132964285Y-78185902D02*
X132935714Y-78214474D01*
X132935714Y-78214474D02*
X132907142Y-78271617D01*
X132907142Y-78271617D02*
X132878571Y-78385902D01*
X132878571Y-78385902D02*
X132878571Y-78528760D01*
X132878571Y-78528760D02*
X132907142Y-78643045D01*
X132907142Y-78643045D02*
X132935714Y-78700188D01*
X132935714Y-78700188D02*
X132964285Y-78728760D01*
X132964285Y-78728760D02*
X133021428Y-78757331D01*
X133021428Y-78757331D02*
X133078571Y-78757331D01*
X133078571Y-78757331D02*
X133135714Y-78728760D01*
X133135714Y-78728760D02*
X133164285Y-78700188D01*
X133164285Y-78700188D02*
X133192856Y-78643045D01*
X133192856Y-78643045D02*
X133221428Y-78528760D01*
X133221428Y-78528760D02*
X133221428Y-78385902D01*
X133221428Y-78385902D02*
X133192856Y-78271617D01*
X133192856Y-78271617D02*
X133164285Y-78214474D01*
X133164285Y-78214474D02*
X133135714Y-78185902D01*
X133135714Y-78185902D02*
X133078571Y-78157331D01*
X132649999Y-78214474D02*
X132621427Y-78185902D01*
X132621427Y-78185902D02*
X132564285Y-78157331D01*
X132564285Y-78157331D02*
X132421427Y-78157331D01*
X132421427Y-78157331D02*
X132364285Y-78185902D01*
X132364285Y-78185902D02*
X132335713Y-78214474D01*
X132335713Y-78214474D02*
X132307142Y-78271617D01*
X132307142Y-78271617D02*
X132307142Y-78328760D01*
X132307142Y-78328760D02*
X132335713Y-78414474D01*
X132335713Y-78414474D02*
X132678570Y-78757331D01*
X132678570Y-78757331D02*
X132307142Y-78757331D01*
X154519188Y-70321571D02*
X154547760Y-70292999D01*
X154547760Y-70292999D02*
X154576331Y-70207285D01*
X154576331Y-70207285D02*
X154576331Y-70150142D01*
X154576331Y-70150142D02*
X154547760Y-70064428D01*
X154547760Y-70064428D02*
X154490617Y-70007285D01*
X154490617Y-70007285D02*
X154433474Y-69978714D01*
X154433474Y-69978714D02*
X154319188Y-69950142D01*
X154319188Y-69950142D02*
X154233474Y-69950142D01*
X154233474Y-69950142D02*
X154119188Y-69978714D01*
X154119188Y-69978714D02*
X154062045Y-70007285D01*
X154062045Y-70007285D02*
X154004902Y-70064428D01*
X154004902Y-70064428D02*
X153976331Y-70150142D01*
X153976331Y-70150142D02*
X153976331Y-70207285D01*
X153976331Y-70207285D02*
X154004902Y-70292999D01*
X154004902Y-70292999D02*
X154033474Y-70321571D01*
X154176331Y-70835857D02*
X154576331Y-70835857D01*
X153947760Y-70692999D02*
X154376331Y-70550142D01*
X154376331Y-70550142D02*
X154376331Y-70921571D01*
X154576331Y-71464428D02*
X154576331Y-71121571D01*
X154576331Y-71293000D02*
X153976331Y-71293000D01*
X153976331Y-71293000D02*
X154062045Y-71235857D01*
X154062045Y-71235857D02*
X154119188Y-71178714D01*
X154119188Y-71178714D02*
X154147760Y-71121571D01*
X154033474Y-71693000D02*
X154004902Y-71721572D01*
X154004902Y-71721572D02*
X153976331Y-71778715D01*
X153976331Y-71778715D02*
X153976331Y-71921572D01*
X153976331Y-71921572D02*
X154004902Y-71978715D01*
X154004902Y-71978715D02*
X154033474Y-72007286D01*
X154033474Y-72007286D02*
X154090617Y-72035857D01*
X154090617Y-72035857D02*
X154147760Y-72035857D01*
X154147760Y-72035857D02*
X154233474Y-72007286D01*
X154233474Y-72007286D02*
X154576331Y-71664429D01*
X154576331Y-71664429D02*
X154576331Y-72035857D01*
X177582428Y-76541188D02*
X177611000Y-76569760D01*
X177611000Y-76569760D02*
X177696714Y-76598331D01*
X177696714Y-76598331D02*
X177753857Y-76598331D01*
X177753857Y-76598331D02*
X177839571Y-76569760D01*
X177839571Y-76569760D02*
X177896714Y-76512617D01*
X177896714Y-76512617D02*
X177925285Y-76455474D01*
X177925285Y-76455474D02*
X177953857Y-76341188D01*
X177953857Y-76341188D02*
X177953857Y-76255474D01*
X177953857Y-76255474D02*
X177925285Y-76141188D01*
X177925285Y-76141188D02*
X177896714Y-76084045D01*
X177896714Y-76084045D02*
X177839571Y-76026902D01*
X177839571Y-76026902D02*
X177753857Y-75998331D01*
X177753857Y-75998331D02*
X177696714Y-75998331D01*
X177696714Y-75998331D02*
X177611000Y-76026902D01*
X177611000Y-76026902D02*
X177582428Y-76055474D01*
X177382428Y-75998331D02*
X177011000Y-75998331D01*
X177011000Y-75998331D02*
X177211000Y-76226902D01*
X177211000Y-76226902D02*
X177125285Y-76226902D01*
X177125285Y-76226902D02*
X177068143Y-76255474D01*
X177068143Y-76255474D02*
X177039571Y-76284045D01*
X177039571Y-76284045D02*
X177011000Y-76341188D01*
X177011000Y-76341188D02*
X177011000Y-76484045D01*
X177011000Y-76484045D02*
X177039571Y-76541188D01*
X177039571Y-76541188D02*
X177068143Y-76569760D01*
X177068143Y-76569760D02*
X177125285Y-76598331D01*
X177125285Y-76598331D02*
X177296714Y-76598331D01*
X177296714Y-76598331D02*
X177353857Y-76569760D01*
X177353857Y-76569760D02*
X177382428Y-76541188D01*
X176439571Y-76598331D02*
X176782428Y-76598331D01*
X176610999Y-76598331D02*
X176610999Y-75998331D01*
X176610999Y-75998331D02*
X176668142Y-76084045D01*
X176668142Y-76084045D02*
X176725285Y-76141188D01*
X176725285Y-76141188D02*
X176782428Y-76169760D01*
X176210999Y-76055474D02*
X176182427Y-76026902D01*
X176182427Y-76026902D02*
X176125285Y-75998331D01*
X176125285Y-75998331D02*
X175982427Y-75998331D01*
X175982427Y-75998331D02*
X175925285Y-76026902D01*
X175925285Y-76026902D02*
X175896713Y-76055474D01*
X175896713Y-76055474D02*
X175868142Y-76112617D01*
X175868142Y-76112617D02*
X175868142Y-76169760D01*
X175868142Y-76169760D02*
X175896713Y-76255474D01*
X175896713Y-76255474D02*
X176239570Y-76598331D01*
X176239570Y-76598331D02*
X175868142Y-76598331D01*
X160564428Y-91781188D02*
X160593000Y-91809760D01*
X160593000Y-91809760D02*
X160678714Y-91838331D01*
X160678714Y-91838331D02*
X160735857Y-91838331D01*
X160735857Y-91838331D02*
X160821571Y-91809760D01*
X160821571Y-91809760D02*
X160878714Y-91752617D01*
X160878714Y-91752617D02*
X160907285Y-91695474D01*
X160907285Y-91695474D02*
X160935857Y-91581188D01*
X160935857Y-91581188D02*
X160935857Y-91495474D01*
X160935857Y-91495474D02*
X160907285Y-91381188D01*
X160907285Y-91381188D02*
X160878714Y-91324045D01*
X160878714Y-91324045D02*
X160821571Y-91266902D01*
X160821571Y-91266902D02*
X160735857Y-91238331D01*
X160735857Y-91238331D02*
X160678714Y-91238331D01*
X160678714Y-91238331D02*
X160593000Y-91266902D01*
X160593000Y-91266902D02*
X160564428Y-91295474D01*
X160050143Y-91438331D02*
X160050143Y-91838331D01*
X160193000Y-91209760D02*
X160335857Y-91638331D01*
X160335857Y-91638331D02*
X159964428Y-91638331D01*
X159421571Y-91838331D02*
X159764428Y-91838331D01*
X159592999Y-91838331D02*
X159592999Y-91238331D01*
X159592999Y-91238331D02*
X159650142Y-91324045D01*
X159650142Y-91324045D02*
X159707285Y-91381188D01*
X159707285Y-91381188D02*
X159764428Y-91409760D01*
X159050142Y-91238331D02*
X158992999Y-91238331D01*
X158992999Y-91238331D02*
X158935856Y-91266902D01*
X158935856Y-91266902D02*
X158907285Y-91295474D01*
X158907285Y-91295474D02*
X158878713Y-91352617D01*
X158878713Y-91352617D02*
X158850142Y-91466902D01*
X158850142Y-91466902D02*
X158850142Y-91609760D01*
X158850142Y-91609760D02*
X158878713Y-91724045D01*
X158878713Y-91724045D02*
X158907285Y-91781188D01*
X158907285Y-91781188D02*
X158935856Y-91809760D01*
X158935856Y-91809760D02*
X158992999Y-91838331D01*
X158992999Y-91838331D02*
X159050142Y-91838331D01*
X159050142Y-91838331D02*
X159107285Y-91809760D01*
X159107285Y-91809760D02*
X159135856Y-91781188D01*
X159135856Y-91781188D02*
X159164427Y-91724045D01*
X159164427Y-91724045D02*
X159192999Y-91609760D01*
X159192999Y-91609760D02*
X159192999Y-91466902D01*
X159192999Y-91466902D02*
X159164427Y-91352617D01*
X159164427Y-91352617D02*
X159135856Y-91295474D01*
X159135856Y-91295474D02*
X159107285Y-91266902D01*
X159107285Y-91266902D02*
X159050142Y-91238331D01*
X138466428Y-75017188D02*
X138495000Y-75045760D01*
X138495000Y-75045760D02*
X138580714Y-75074331D01*
X138580714Y-75074331D02*
X138637857Y-75074331D01*
X138637857Y-75074331D02*
X138723571Y-75045760D01*
X138723571Y-75045760D02*
X138780714Y-74988617D01*
X138780714Y-74988617D02*
X138809285Y-74931474D01*
X138809285Y-74931474D02*
X138837857Y-74817188D01*
X138837857Y-74817188D02*
X138837857Y-74731474D01*
X138837857Y-74731474D02*
X138809285Y-74617188D01*
X138809285Y-74617188D02*
X138780714Y-74560045D01*
X138780714Y-74560045D02*
X138723571Y-74502902D01*
X138723571Y-74502902D02*
X138637857Y-74474331D01*
X138637857Y-74474331D02*
X138580714Y-74474331D01*
X138580714Y-74474331D02*
X138495000Y-74502902D01*
X138495000Y-74502902D02*
X138466428Y-74531474D01*
X137923571Y-74474331D02*
X138209285Y-74474331D01*
X138209285Y-74474331D02*
X138237857Y-74760045D01*
X138237857Y-74760045D02*
X138209285Y-74731474D01*
X138209285Y-74731474D02*
X138152143Y-74702902D01*
X138152143Y-74702902D02*
X138009285Y-74702902D01*
X138009285Y-74702902D02*
X137952143Y-74731474D01*
X137952143Y-74731474D02*
X137923571Y-74760045D01*
X137923571Y-74760045D02*
X137895000Y-74817188D01*
X137895000Y-74817188D02*
X137895000Y-74960045D01*
X137895000Y-74960045D02*
X137923571Y-75017188D01*
X137923571Y-75017188D02*
X137952143Y-75045760D01*
X137952143Y-75045760D02*
X138009285Y-75074331D01*
X138009285Y-75074331D02*
X138152143Y-75074331D01*
X138152143Y-75074331D02*
X138209285Y-75045760D01*
X138209285Y-75045760D02*
X138237857Y-75017188D01*
X137523571Y-74474331D02*
X137466428Y-74474331D01*
X137466428Y-74474331D02*
X137409285Y-74502902D01*
X137409285Y-74502902D02*
X137380714Y-74531474D01*
X137380714Y-74531474D02*
X137352142Y-74588617D01*
X137352142Y-74588617D02*
X137323571Y-74702902D01*
X137323571Y-74702902D02*
X137323571Y-74845760D01*
X137323571Y-74845760D02*
X137352142Y-74960045D01*
X137352142Y-74960045D02*
X137380714Y-75017188D01*
X137380714Y-75017188D02*
X137409285Y-75045760D01*
X137409285Y-75045760D02*
X137466428Y-75074331D01*
X137466428Y-75074331D02*
X137523571Y-75074331D01*
X137523571Y-75074331D02*
X137580714Y-75045760D01*
X137580714Y-75045760D02*
X137609285Y-75017188D01*
X137609285Y-75017188D02*
X137637856Y-74960045D01*
X137637856Y-74960045D02*
X137666428Y-74845760D01*
X137666428Y-74845760D02*
X137666428Y-74702902D01*
X137666428Y-74702902D02*
X137637856Y-74588617D01*
X137637856Y-74588617D02*
X137609285Y-74531474D01*
X137609285Y-74531474D02*
X137580714Y-74502902D01*
X137580714Y-74502902D02*
X137523571Y-74474331D01*
X137123570Y-74474331D02*
X136723570Y-74474331D01*
X136723570Y-74474331D02*
X136980713Y-75074331D01*
X157135428Y-91781188D02*
X157164000Y-91809760D01*
X157164000Y-91809760D02*
X157249714Y-91838331D01*
X157249714Y-91838331D02*
X157306857Y-91838331D01*
X157306857Y-91838331D02*
X157392571Y-91809760D01*
X157392571Y-91809760D02*
X157449714Y-91752617D01*
X157449714Y-91752617D02*
X157478285Y-91695474D01*
X157478285Y-91695474D02*
X157506857Y-91581188D01*
X157506857Y-91581188D02*
X157506857Y-91495474D01*
X157506857Y-91495474D02*
X157478285Y-91381188D01*
X157478285Y-91381188D02*
X157449714Y-91324045D01*
X157449714Y-91324045D02*
X157392571Y-91266902D01*
X157392571Y-91266902D02*
X157306857Y-91238331D01*
X157306857Y-91238331D02*
X157249714Y-91238331D01*
X157249714Y-91238331D02*
X157164000Y-91266902D01*
X157164000Y-91266902D02*
X157135428Y-91295474D01*
X156621143Y-91438331D02*
X156621143Y-91838331D01*
X156764000Y-91209760D02*
X156906857Y-91638331D01*
X156906857Y-91638331D02*
X156535428Y-91638331D01*
X155992571Y-91838331D02*
X156335428Y-91838331D01*
X156163999Y-91838331D02*
X156163999Y-91238331D01*
X156163999Y-91238331D02*
X156221142Y-91324045D01*
X156221142Y-91324045D02*
X156278285Y-91381188D01*
X156278285Y-91381188D02*
X156335428Y-91409760D01*
X155706856Y-91838331D02*
X155592570Y-91838331D01*
X155592570Y-91838331D02*
X155535427Y-91809760D01*
X155535427Y-91809760D02*
X155506856Y-91781188D01*
X155506856Y-91781188D02*
X155449713Y-91695474D01*
X155449713Y-91695474D02*
X155421142Y-91581188D01*
X155421142Y-91581188D02*
X155421142Y-91352617D01*
X155421142Y-91352617D02*
X155449713Y-91295474D01*
X155449713Y-91295474D02*
X155478285Y-91266902D01*
X155478285Y-91266902D02*
X155535427Y-91238331D01*
X155535427Y-91238331D02*
X155649713Y-91238331D01*
X155649713Y-91238331D02*
X155706856Y-91266902D01*
X155706856Y-91266902D02*
X155735427Y-91295474D01*
X155735427Y-91295474D02*
X155763999Y-91352617D01*
X155763999Y-91352617D02*
X155763999Y-91495474D01*
X155763999Y-91495474D02*
X155735427Y-91552617D01*
X155735427Y-91552617D02*
X155706856Y-91581188D01*
X155706856Y-91581188D02*
X155649713Y-91609760D01*
X155649713Y-91609760D02*
X155535427Y-91609760D01*
X155535427Y-91609760D02*
X155478285Y-91581188D01*
X155478285Y-91581188D02*
X155449713Y-91552617D01*
X155449713Y-91552617D02*
X155421142Y-91495474D01*
X183729188Y-69051571D02*
X183757760Y-69022999D01*
X183757760Y-69022999D02*
X183786331Y-68937285D01*
X183786331Y-68937285D02*
X183786331Y-68880142D01*
X183786331Y-68880142D02*
X183757760Y-68794428D01*
X183757760Y-68794428D02*
X183700617Y-68737285D01*
X183700617Y-68737285D02*
X183643474Y-68708714D01*
X183643474Y-68708714D02*
X183529188Y-68680142D01*
X183529188Y-68680142D02*
X183443474Y-68680142D01*
X183443474Y-68680142D02*
X183329188Y-68708714D01*
X183329188Y-68708714D02*
X183272045Y-68737285D01*
X183272045Y-68737285D02*
X183214902Y-68794428D01*
X183214902Y-68794428D02*
X183186331Y-68880142D01*
X183186331Y-68880142D02*
X183186331Y-68937285D01*
X183186331Y-68937285D02*
X183214902Y-69022999D01*
X183214902Y-69022999D02*
X183243474Y-69051571D01*
X183186331Y-69251571D02*
X183186331Y-69622999D01*
X183186331Y-69622999D02*
X183414902Y-69422999D01*
X183414902Y-69422999D02*
X183414902Y-69508714D01*
X183414902Y-69508714D02*
X183443474Y-69565857D01*
X183443474Y-69565857D02*
X183472045Y-69594428D01*
X183472045Y-69594428D02*
X183529188Y-69622999D01*
X183529188Y-69622999D02*
X183672045Y-69622999D01*
X183672045Y-69622999D02*
X183729188Y-69594428D01*
X183729188Y-69594428D02*
X183757760Y-69565857D01*
X183757760Y-69565857D02*
X183786331Y-69508714D01*
X183786331Y-69508714D02*
X183786331Y-69337285D01*
X183786331Y-69337285D02*
X183757760Y-69280142D01*
X183757760Y-69280142D02*
X183729188Y-69251571D01*
X183786331Y-70194428D02*
X183786331Y-69851571D01*
X183786331Y-70023000D02*
X183186331Y-70023000D01*
X183186331Y-70023000D02*
X183272045Y-69965857D01*
X183272045Y-69965857D02*
X183329188Y-69908714D01*
X183329188Y-69908714D02*
X183357760Y-69851571D01*
X183786331Y-70765857D02*
X183786331Y-70423000D01*
X183786331Y-70594429D02*
X183186331Y-70594429D01*
X183186331Y-70594429D02*
X183272045Y-70537286D01*
X183272045Y-70537286D02*
X183329188Y-70480143D01*
X183329188Y-70480143D02*
X183357760Y-70423000D01*
X173569188Y-78449571D02*
X173597760Y-78420999D01*
X173597760Y-78420999D02*
X173626331Y-78335285D01*
X173626331Y-78335285D02*
X173626331Y-78278142D01*
X173626331Y-78278142D02*
X173597760Y-78192428D01*
X173597760Y-78192428D02*
X173540617Y-78135285D01*
X173540617Y-78135285D02*
X173483474Y-78106714D01*
X173483474Y-78106714D02*
X173369188Y-78078142D01*
X173369188Y-78078142D02*
X173283474Y-78078142D01*
X173283474Y-78078142D02*
X173169188Y-78106714D01*
X173169188Y-78106714D02*
X173112045Y-78135285D01*
X173112045Y-78135285D02*
X173054902Y-78192428D01*
X173054902Y-78192428D02*
X173026331Y-78278142D01*
X173026331Y-78278142D02*
X173026331Y-78335285D01*
X173026331Y-78335285D02*
X173054902Y-78420999D01*
X173054902Y-78420999D02*
X173083474Y-78449571D01*
X173026331Y-78649571D02*
X173026331Y-79020999D01*
X173026331Y-79020999D02*
X173254902Y-78820999D01*
X173254902Y-78820999D02*
X173254902Y-78906714D01*
X173254902Y-78906714D02*
X173283474Y-78963857D01*
X173283474Y-78963857D02*
X173312045Y-78992428D01*
X173312045Y-78992428D02*
X173369188Y-79020999D01*
X173369188Y-79020999D02*
X173512045Y-79020999D01*
X173512045Y-79020999D02*
X173569188Y-78992428D01*
X173569188Y-78992428D02*
X173597760Y-78963857D01*
X173597760Y-78963857D02*
X173626331Y-78906714D01*
X173626331Y-78906714D02*
X173626331Y-78735285D01*
X173626331Y-78735285D02*
X173597760Y-78678142D01*
X173597760Y-78678142D02*
X173569188Y-78649571D01*
X173026331Y-79392428D02*
X173026331Y-79449571D01*
X173026331Y-79449571D02*
X173054902Y-79506714D01*
X173054902Y-79506714D02*
X173083474Y-79535286D01*
X173083474Y-79535286D02*
X173140617Y-79563857D01*
X173140617Y-79563857D02*
X173254902Y-79592428D01*
X173254902Y-79592428D02*
X173397760Y-79592428D01*
X173397760Y-79592428D02*
X173512045Y-79563857D01*
X173512045Y-79563857D02*
X173569188Y-79535286D01*
X173569188Y-79535286D02*
X173597760Y-79506714D01*
X173597760Y-79506714D02*
X173626331Y-79449571D01*
X173626331Y-79449571D02*
X173626331Y-79392428D01*
X173626331Y-79392428D02*
X173597760Y-79335286D01*
X173597760Y-79335286D02*
X173569188Y-79306714D01*
X173569188Y-79306714D02*
X173512045Y-79278143D01*
X173512045Y-79278143D02*
X173397760Y-79249571D01*
X173397760Y-79249571D02*
X173254902Y-79249571D01*
X173254902Y-79249571D02*
X173140617Y-79278143D01*
X173140617Y-79278143D02*
X173083474Y-79306714D01*
X173083474Y-79306714D02*
X173054902Y-79335286D01*
X173054902Y-79335286D02*
X173026331Y-79392428D01*
X173626331Y-79878143D02*
X173626331Y-79992429D01*
X173626331Y-79992429D02*
X173597760Y-80049572D01*
X173597760Y-80049572D02*
X173569188Y-80078143D01*
X173569188Y-80078143D02*
X173483474Y-80135286D01*
X173483474Y-80135286D02*
X173369188Y-80163857D01*
X173369188Y-80163857D02*
X173140617Y-80163857D01*
X173140617Y-80163857D02*
X173083474Y-80135286D01*
X173083474Y-80135286D02*
X173054902Y-80106715D01*
X173054902Y-80106715D02*
X173026331Y-80049572D01*
X173026331Y-80049572D02*
X173026331Y-79935286D01*
X173026331Y-79935286D02*
X173054902Y-79878143D01*
X173054902Y-79878143D02*
X173083474Y-79849572D01*
X173083474Y-79849572D02*
X173140617Y-79821000D01*
X173140617Y-79821000D02*
X173283474Y-79821000D01*
X173283474Y-79821000D02*
X173340617Y-79849572D01*
X173340617Y-79849572D02*
X173369188Y-79878143D01*
X173369188Y-79878143D02*
X173397760Y-79935286D01*
X173397760Y-79935286D02*
X173397760Y-80049572D01*
X173397760Y-80049572D02*
X173369188Y-80106715D01*
X173369188Y-80106715D02*
X173340617Y-80135286D01*
X173340617Y-80135286D02*
X173283474Y-80163857D01*
X156297188Y-96483571D02*
X156325760Y-96454999D01*
X156325760Y-96454999D02*
X156354331Y-96369285D01*
X156354331Y-96369285D02*
X156354331Y-96312142D01*
X156354331Y-96312142D02*
X156325760Y-96226428D01*
X156325760Y-96226428D02*
X156268617Y-96169285D01*
X156268617Y-96169285D02*
X156211474Y-96140714D01*
X156211474Y-96140714D02*
X156097188Y-96112142D01*
X156097188Y-96112142D02*
X156011474Y-96112142D01*
X156011474Y-96112142D02*
X155897188Y-96140714D01*
X155897188Y-96140714D02*
X155840045Y-96169285D01*
X155840045Y-96169285D02*
X155782902Y-96226428D01*
X155782902Y-96226428D02*
X155754331Y-96312142D01*
X155754331Y-96312142D02*
X155754331Y-96369285D01*
X155754331Y-96369285D02*
X155782902Y-96454999D01*
X155782902Y-96454999D02*
X155811474Y-96483571D01*
X155954331Y-96997857D02*
X156354331Y-96997857D01*
X155725760Y-96854999D02*
X156154331Y-96712142D01*
X156154331Y-96712142D02*
X156154331Y-97083571D01*
X156354331Y-97626428D02*
X156354331Y-97283571D01*
X156354331Y-97455000D02*
X155754331Y-97455000D01*
X155754331Y-97455000D02*
X155840045Y-97397857D01*
X155840045Y-97397857D02*
X155897188Y-97340714D01*
X155897188Y-97340714D02*
X155925760Y-97283571D01*
X155954331Y-98140715D02*
X156354331Y-98140715D01*
X155725760Y-97997857D02*
X156154331Y-97855000D01*
X156154331Y-97855000D02*
X156154331Y-98226429D01*
X162596428Y-72858188D02*
X162625000Y-72886760D01*
X162625000Y-72886760D02*
X162710714Y-72915331D01*
X162710714Y-72915331D02*
X162767857Y-72915331D01*
X162767857Y-72915331D02*
X162853571Y-72886760D01*
X162853571Y-72886760D02*
X162910714Y-72829617D01*
X162910714Y-72829617D02*
X162939285Y-72772474D01*
X162939285Y-72772474D02*
X162967857Y-72658188D01*
X162967857Y-72658188D02*
X162967857Y-72572474D01*
X162967857Y-72572474D02*
X162939285Y-72458188D01*
X162939285Y-72458188D02*
X162910714Y-72401045D01*
X162910714Y-72401045D02*
X162853571Y-72343902D01*
X162853571Y-72343902D02*
X162767857Y-72315331D01*
X162767857Y-72315331D02*
X162710714Y-72315331D01*
X162710714Y-72315331D02*
X162625000Y-72343902D01*
X162625000Y-72343902D02*
X162596428Y-72372474D01*
X162396428Y-72315331D02*
X162025000Y-72315331D01*
X162025000Y-72315331D02*
X162225000Y-72543902D01*
X162225000Y-72543902D02*
X162139285Y-72543902D01*
X162139285Y-72543902D02*
X162082143Y-72572474D01*
X162082143Y-72572474D02*
X162053571Y-72601045D01*
X162053571Y-72601045D02*
X162025000Y-72658188D01*
X162025000Y-72658188D02*
X162025000Y-72801045D01*
X162025000Y-72801045D02*
X162053571Y-72858188D01*
X162053571Y-72858188D02*
X162082143Y-72886760D01*
X162082143Y-72886760D02*
X162139285Y-72915331D01*
X162139285Y-72915331D02*
X162310714Y-72915331D01*
X162310714Y-72915331D02*
X162367857Y-72886760D01*
X162367857Y-72886760D02*
X162396428Y-72858188D01*
X161653571Y-72315331D02*
X161596428Y-72315331D01*
X161596428Y-72315331D02*
X161539285Y-72343902D01*
X161539285Y-72343902D02*
X161510714Y-72372474D01*
X161510714Y-72372474D02*
X161482142Y-72429617D01*
X161482142Y-72429617D02*
X161453571Y-72543902D01*
X161453571Y-72543902D02*
X161453571Y-72686760D01*
X161453571Y-72686760D02*
X161482142Y-72801045D01*
X161482142Y-72801045D02*
X161510714Y-72858188D01*
X161510714Y-72858188D02*
X161539285Y-72886760D01*
X161539285Y-72886760D02*
X161596428Y-72915331D01*
X161596428Y-72915331D02*
X161653571Y-72915331D01*
X161653571Y-72915331D02*
X161710714Y-72886760D01*
X161710714Y-72886760D02*
X161739285Y-72858188D01*
X161739285Y-72858188D02*
X161767856Y-72801045D01*
X161767856Y-72801045D02*
X161796428Y-72686760D01*
X161796428Y-72686760D02*
X161796428Y-72543902D01*
X161796428Y-72543902D02*
X161767856Y-72429617D01*
X161767856Y-72429617D02*
X161739285Y-72372474D01*
X161739285Y-72372474D02*
X161710714Y-72343902D01*
X161710714Y-72343902D02*
X161653571Y-72315331D01*
X160939285Y-72315331D02*
X161053570Y-72315331D01*
X161053570Y-72315331D02*
X161110713Y-72343902D01*
X161110713Y-72343902D02*
X161139285Y-72372474D01*
X161139285Y-72372474D02*
X161196427Y-72458188D01*
X161196427Y-72458188D02*
X161224999Y-72572474D01*
X161224999Y-72572474D02*
X161224999Y-72801045D01*
X161224999Y-72801045D02*
X161196427Y-72858188D01*
X161196427Y-72858188D02*
X161167856Y-72886760D01*
X161167856Y-72886760D02*
X161110713Y-72915331D01*
X161110713Y-72915331D02*
X160996427Y-72915331D01*
X160996427Y-72915331D02*
X160939285Y-72886760D01*
X160939285Y-72886760D02*
X160910713Y-72858188D01*
X160910713Y-72858188D02*
X160882142Y-72801045D01*
X160882142Y-72801045D02*
X160882142Y-72658188D01*
X160882142Y-72658188D02*
X160910713Y-72601045D01*
X160910713Y-72601045D02*
X160939285Y-72572474D01*
X160939285Y-72572474D02*
X160996427Y-72543902D01*
X160996427Y-72543902D02*
X161110713Y-72543902D01*
X161110713Y-72543902D02*
X161167856Y-72572474D01*
X161167856Y-72572474D02*
X161196427Y-72601045D01*
X161196427Y-72601045D02*
X161224999Y-72658188D01*
X157516428Y-74001188D02*
X157545000Y-74029760D01*
X157545000Y-74029760D02*
X157630714Y-74058331D01*
X157630714Y-74058331D02*
X157687857Y-74058331D01*
X157687857Y-74058331D02*
X157773571Y-74029760D01*
X157773571Y-74029760D02*
X157830714Y-73972617D01*
X157830714Y-73972617D02*
X157859285Y-73915474D01*
X157859285Y-73915474D02*
X157887857Y-73801188D01*
X157887857Y-73801188D02*
X157887857Y-73715474D01*
X157887857Y-73715474D02*
X157859285Y-73601188D01*
X157859285Y-73601188D02*
X157830714Y-73544045D01*
X157830714Y-73544045D02*
X157773571Y-73486902D01*
X157773571Y-73486902D02*
X157687857Y-73458331D01*
X157687857Y-73458331D02*
X157630714Y-73458331D01*
X157630714Y-73458331D02*
X157545000Y-73486902D01*
X157545000Y-73486902D02*
X157516428Y-73515474D01*
X157002143Y-73658331D02*
X157002143Y-74058331D01*
X157145000Y-73429760D02*
X157287857Y-73858331D01*
X157287857Y-73858331D02*
X156916428Y-73858331D01*
X156373571Y-74058331D02*
X156716428Y-74058331D01*
X156544999Y-74058331D02*
X156544999Y-73458331D01*
X156544999Y-73458331D02*
X156602142Y-73544045D01*
X156602142Y-73544045D02*
X156659285Y-73601188D01*
X156659285Y-73601188D02*
X156716428Y-73629760D01*
X156173570Y-73458331D02*
X155802142Y-73458331D01*
X155802142Y-73458331D02*
X156002142Y-73686902D01*
X156002142Y-73686902D02*
X155916427Y-73686902D01*
X155916427Y-73686902D02*
X155859285Y-73715474D01*
X155859285Y-73715474D02*
X155830713Y-73744045D01*
X155830713Y-73744045D02*
X155802142Y-73801188D01*
X155802142Y-73801188D02*
X155802142Y-73944045D01*
X155802142Y-73944045D02*
X155830713Y-74001188D01*
X155830713Y-74001188D02*
X155859285Y-74029760D01*
X155859285Y-74029760D02*
X155916427Y-74058331D01*
X155916427Y-74058331D02*
X156087856Y-74058331D01*
X156087856Y-74058331D02*
X156144999Y-74029760D01*
X156144999Y-74029760D02*
X156173570Y-74001188D01*
X147248428Y-72855045D02*
X147448428Y-72855045D01*
X147448428Y-73169331D02*
X147448428Y-72569331D01*
X147448428Y-72569331D02*
X147162714Y-72569331D01*
X146734142Y-72855045D02*
X146648428Y-72883617D01*
X146648428Y-72883617D02*
X146619857Y-72912188D01*
X146619857Y-72912188D02*
X146591285Y-72969331D01*
X146591285Y-72969331D02*
X146591285Y-73055045D01*
X146591285Y-73055045D02*
X146619857Y-73112188D01*
X146619857Y-73112188D02*
X146648428Y-73140760D01*
X146648428Y-73140760D02*
X146705571Y-73169331D01*
X146705571Y-73169331D02*
X146934142Y-73169331D01*
X146934142Y-73169331D02*
X146934142Y-72569331D01*
X146934142Y-72569331D02*
X146734142Y-72569331D01*
X146734142Y-72569331D02*
X146677000Y-72597902D01*
X146677000Y-72597902D02*
X146648428Y-72626474D01*
X146648428Y-72626474D02*
X146619857Y-72683617D01*
X146619857Y-72683617D02*
X146619857Y-72740760D01*
X146619857Y-72740760D02*
X146648428Y-72797902D01*
X146648428Y-72797902D02*
X146677000Y-72826474D01*
X146677000Y-72826474D02*
X146734142Y-72855045D01*
X146734142Y-72855045D02*
X146934142Y-72855045D01*
X146077000Y-72769331D02*
X146077000Y-73169331D01*
X146219857Y-72540760D02*
X146362714Y-72969331D01*
X146362714Y-72969331D02*
X145991285Y-72969331D01*
X145648428Y-72569331D02*
X145591285Y-72569331D01*
X145591285Y-72569331D02*
X145534142Y-72597902D01*
X145534142Y-72597902D02*
X145505571Y-72626474D01*
X145505571Y-72626474D02*
X145476999Y-72683617D01*
X145476999Y-72683617D02*
X145448428Y-72797902D01*
X145448428Y-72797902D02*
X145448428Y-72940760D01*
X145448428Y-72940760D02*
X145476999Y-73055045D01*
X145476999Y-73055045D02*
X145505571Y-73112188D01*
X145505571Y-73112188D02*
X145534142Y-73140760D01*
X145534142Y-73140760D02*
X145591285Y-73169331D01*
X145591285Y-73169331D02*
X145648428Y-73169331D01*
X145648428Y-73169331D02*
X145705571Y-73140760D01*
X145705571Y-73140760D02*
X145734142Y-73112188D01*
X145734142Y-73112188D02*
X145762713Y-73055045D01*
X145762713Y-73055045D02*
X145791285Y-72940760D01*
X145791285Y-72940760D02*
X145791285Y-72797902D01*
X145791285Y-72797902D02*
X145762713Y-72683617D01*
X145762713Y-72683617D02*
X145734142Y-72626474D01*
X145734142Y-72626474D02*
X145705571Y-72597902D01*
X145705571Y-72597902D02*
X145648428Y-72569331D01*
X144876999Y-73169331D02*
X145219856Y-73169331D01*
X145048427Y-73169331D02*
X145048427Y-72569331D01*
X145048427Y-72569331D02*
X145105570Y-72655045D01*
X145105570Y-72655045D02*
X145162713Y-72712188D01*
X145162713Y-72712188D02*
X145219856Y-72740760D01*
X137831428Y-77741331D02*
X138031428Y-77455617D01*
X138174285Y-77741331D02*
X138174285Y-77141331D01*
X138174285Y-77141331D02*
X137945714Y-77141331D01*
X137945714Y-77141331D02*
X137888571Y-77169902D01*
X137888571Y-77169902D02*
X137860000Y-77198474D01*
X137860000Y-77198474D02*
X137831428Y-77255617D01*
X137831428Y-77255617D02*
X137831428Y-77341331D01*
X137831428Y-77341331D02*
X137860000Y-77398474D01*
X137860000Y-77398474D02*
X137888571Y-77427045D01*
X137888571Y-77427045D02*
X137945714Y-77455617D01*
X137945714Y-77455617D02*
X138174285Y-77455617D01*
X137288571Y-77141331D02*
X137574285Y-77141331D01*
X137574285Y-77141331D02*
X137602857Y-77427045D01*
X137602857Y-77427045D02*
X137574285Y-77398474D01*
X137574285Y-77398474D02*
X137517143Y-77369902D01*
X137517143Y-77369902D02*
X137374285Y-77369902D01*
X137374285Y-77369902D02*
X137317143Y-77398474D01*
X137317143Y-77398474D02*
X137288571Y-77427045D01*
X137288571Y-77427045D02*
X137260000Y-77484188D01*
X137260000Y-77484188D02*
X137260000Y-77627045D01*
X137260000Y-77627045D02*
X137288571Y-77684188D01*
X137288571Y-77684188D02*
X137317143Y-77712760D01*
X137317143Y-77712760D02*
X137374285Y-77741331D01*
X137374285Y-77741331D02*
X137517143Y-77741331D01*
X137517143Y-77741331D02*
X137574285Y-77712760D01*
X137574285Y-77712760D02*
X137602857Y-77684188D01*
X136688571Y-77741331D02*
X137031428Y-77741331D01*
X136859999Y-77741331D02*
X136859999Y-77141331D01*
X136859999Y-77141331D02*
X136917142Y-77227045D01*
X136917142Y-77227045D02*
X136974285Y-77284188D01*
X136974285Y-77284188D02*
X137031428Y-77312760D01*
X136145713Y-77141331D02*
X136431427Y-77141331D01*
X136431427Y-77141331D02*
X136459999Y-77427045D01*
X136459999Y-77427045D02*
X136431427Y-77398474D01*
X136431427Y-77398474D02*
X136374285Y-77369902D01*
X136374285Y-77369902D02*
X136231427Y-77369902D01*
X136231427Y-77369902D02*
X136174285Y-77398474D01*
X136174285Y-77398474D02*
X136145713Y-77427045D01*
X136145713Y-77427045D02*
X136117142Y-77484188D01*
X136117142Y-77484188D02*
X136117142Y-77627045D01*
X136117142Y-77627045D02*
X136145713Y-77684188D01*
X136145713Y-77684188D02*
X136174285Y-77712760D01*
X136174285Y-77712760D02*
X136231427Y-77741331D01*
X136231427Y-77741331D02*
X136374285Y-77741331D01*
X136374285Y-77741331D02*
X136431427Y-77712760D01*
X136431427Y-77712760D02*
X136459999Y-77684188D01*
X162647188Y-69305571D02*
X162675760Y-69276999D01*
X162675760Y-69276999D02*
X162704331Y-69191285D01*
X162704331Y-69191285D02*
X162704331Y-69134142D01*
X162704331Y-69134142D02*
X162675760Y-69048428D01*
X162675760Y-69048428D02*
X162618617Y-68991285D01*
X162618617Y-68991285D02*
X162561474Y-68962714D01*
X162561474Y-68962714D02*
X162447188Y-68934142D01*
X162447188Y-68934142D02*
X162361474Y-68934142D01*
X162361474Y-68934142D02*
X162247188Y-68962714D01*
X162247188Y-68962714D02*
X162190045Y-68991285D01*
X162190045Y-68991285D02*
X162132902Y-69048428D01*
X162132902Y-69048428D02*
X162104331Y-69134142D01*
X162104331Y-69134142D02*
X162104331Y-69191285D01*
X162104331Y-69191285D02*
X162132902Y-69276999D01*
X162132902Y-69276999D02*
X162161474Y-69305571D01*
X162304331Y-69819857D02*
X162704331Y-69819857D01*
X162075760Y-69676999D02*
X162504331Y-69534142D01*
X162504331Y-69534142D02*
X162504331Y-69905571D01*
X162104331Y-70248428D02*
X162104331Y-70305571D01*
X162104331Y-70305571D02*
X162132902Y-70362714D01*
X162132902Y-70362714D02*
X162161474Y-70391286D01*
X162161474Y-70391286D02*
X162218617Y-70419857D01*
X162218617Y-70419857D02*
X162332902Y-70448428D01*
X162332902Y-70448428D02*
X162475760Y-70448428D01*
X162475760Y-70448428D02*
X162590045Y-70419857D01*
X162590045Y-70419857D02*
X162647188Y-70391286D01*
X162647188Y-70391286D02*
X162675760Y-70362714D01*
X162675760Y-70362714D02*
X162704331Y-70305571D01*
X162704331Y-70305571D02*
X162704331Y-70248428D01*
X162704331Y-70248428D02*
X162675760Y-70191286D01*
X162675760Y-70191286D02*
X162647188Y-70162714D01*
X162647188Y-70162714D02*
X162590045Y-70134143D01*
X162590045Y-70134143D02*
X162475760Y-70105571D01*
X162475760Y-70105571D02*
X162332902Y-70105571D01*
X162332902Y-70105571D02*
X162218617Y-70134143D01*
X162218617Y-70134143D02*
X162161474Y-70162714D01*
X162161474Y-70162714D02*
X162132902Y-70191286D01*
X162132902Y-70191286D02*
X162104331Y-70248428D01*
X162161474Y-70677000D02*
X162132902Y-70705572D01*
X162132902Y-70705572D02*
X162104331Y-70762715D01*
X162104331Y-70762715D02*
X162104331Y-70905572D01*
X162104331Y-70905572D02*
X162132902Y-70962715D01*
X162132902Y-70962715D02*
X162161474Y-70991286D01*
X162161474Y-70991286D02*
X162218617Y-71019857D01*
X162218617Y-71019857D02*
X162275760Y-71019857D01*
X162275760Y-71019857D02*
X162361474Y-70991286D01*
X162361474Y-70991286D02*
X162704331Y-70648429D01*
X162704331Y-70648429D02*
X162704331Y-71019857D01*
X166584188Y-68289571D02*
X166612760Y-68260999D01*
X166612760Y-68260999D02*
X166641331Y-68175285D01*
X166641331Y-68175285D02*
X166641331Y-68118142D01*
X166641331Y-68118142D02*
X166612760Y-68032428D01*
X166612760Y-68032428D02*
X166555617Y-67975285D01*
X166555617Y-67975285D02*
X166498474Y-67946714D01*
X166498474Y-67946714D02*
X166384188Y-67918142D01*
X166384188Y-67918142D02*
X166298474Y-67918142D01*
X166298474Y-67918142D02*
X166184188Y-67946714D01*
X166184188Y-67946714D02*
X166127045Y-67975285D01*
X166127045Y-67975285D02*
X166069902Y-68032428D01*
X166069902Y-68032428D02*
X166041331Y-68118142D01*
X166041331Y-68118142D02*
X166041331Y-68175285D01*
X166041331Y-68175285D02*
X166069902Y-68260999D01*
X166069902Y-68260999D02*
X166098474Y-68289571D01*
X166041331Y-68489571D02*
X166041331Y-68860999D01*
X166041331Y-68860999D02*
X166269902Y-68660999D01*
X166269902Y-68660999D02*
X166269902Y-68746714D01*
X166269902Y-68746714D02*
X166298474Y-68803857D01*
X166298474Y-68803857D02*
X166327045Y-68832428D01*
X166327045Y-68832428D02*
X166384188Y-68860999D01*
X166384188Y-68860999D02*
X166527045Y-68860999D01*
X166527045Y-68860999D02*
X166584188Y-68832428D01*
X166584188Y-68832428D02*
X166612760Y-68803857D01*
X166612760Y-68803857D02*
X166641331Y-68746714D01*
X166641331Y-68746714D02*
X166641331Y-68575285D01*
X166641331Y-68575285D02*
X166612760Y-68518142D01*
X166612760Y-68518142D02*
X166584188Y-68489571D01*
X166041331Y-69232428D02*
X166041331Y-69289571D01*
X166041331Y-69289571D02*
X166069902Y-69346714D01*
X166069902Y-69346714D02*
X166098474Y-69375286D01*
X166098474Y-69375286D02*
X166155617Y-69403857D01*
X166155617Y-69403857D02*
X166269902Y-69432428D01*
X166269902Y-69432428D02*
X166412760Y-69432428D01*
X166412760Y-69432428D02*
X166527045Y-69403857D01*
X166527045Y-69403857D02*
X166584188Y-69375286D01*
X166584188Y-69375286D02*
X166612760Y-69346714D01*
X166612760Y-69346714D02*
X166641331Y-69289571D01*
X166641331Y-69289571D02*
X166641331Y-69232428D01*
X166641331Y-69232428D02*
X166612760Y-69175286D01*
X166612760Y-69175286D02*
X166584188Y-69146714D01*
X166584188Y-69146714D02*
X166527045Y-69118143D01*
X166527045Y-69118143D02*
X166412760Y-69089571D01*
X166412760Y-69089571D02*
X166269902Y-69089571D01*
X166269902Y-69089571D02*
X166155617Y-69118143D01*
X166155617Y-69118143D02*
X166098474Y-69146714D01*
X166098474Y-69146714D02*
X166069902Y-69175286D01*
X166069902Y-69175286D02*
X166041331Y-69232428D01*
X166641331Y-70003857D02*
X166641331Y-69661000D01*
X166641331Y-69832429D02*
X166041331Y-69832429D01*
X166041331Y-69832429D02*
X166127045Y-69775286D01*
X166127045Y-69775286D02*
X166184188Y-69718143D01*
X166184188Y-69718143D02*
X166212760Y-69661000D01*
X126909428Y-79011331D02*
X127109428Y-78725617D01*
X127252285Y-79011331D02*
X127252285Y-78411331D01*
X127252285Y-78411331D02*
X127023714Y-78411331D01*
X127023714Y-78411331D02*
X126966571Y-78439902D01*
X126966571Y-78439902D02*
X126938000Y-78468474D01*
X126938000Y-78468474D02*
X126909428Y-78525617D01*
X126909428Y-78525617D02*
X126909428Y-78611331D01*
X126909428Y-78611331D02*
X126938000Y-78668474D01*
X126938000Y-78668474D02*
X126966571Y-78697045D01*
X126966571Y-78697045D02*
X127023714Y-78725617D01*
X127023714Y-78725617D02*
X127252285Y-78725617D01*
X126366571Y-78411331D02*
X126652285Y-78411331D01*
X126652285Y-78411331D02*
X126680857Y-78697045D01*
X126680857Y-78697045D02*
X126652285Y-78668474D01*
X126652285Y-78668474D02*
X126595143Y-78639902D01*
X126595143Y-78639902D02*
X126452285Y-78639902D01*
X126452285Y-78639902D02*
X126395143Y-78668474D01*
X126395143Y-78668474D02*
X126366571Y-78697045D01*
X126366571Y-78697045D02*
X126338000Y-78754188D01*
X126338000Y-78754188D02*
X126338000Y-78897045D01*
X126338000Y-78897045D02*
X126366571Y-78954188D01*
X126366571Y-78954188D02*
X126395143Y-78982760D01*
X126395143Y-78982760D02*
X126452285Y-79011331D01*
X126452285Y-79011331D02*
X126595143Y-79011331D01*
X126595143Y-79011331D02*
X126652285Y-78982760D01*
X126652285Y-78982760D02*
X126680857Y-78954188D01*
X125966571Y-78411331D02*
X125909428Y-78411331D01*
X125909428Y-78411331D02*
X125852285Y-78439902D01*
X125852285Y-78439902D02*
X125823714Y-78468474D01*
X125823714Y-78468474D02*
X125795142Y-78525617D01*
X125795142Y-78525617D02*
X125766571Y-78639902D01*
X125766571Y-78639902D02*
X125766571Y-78782760D01*
X125766571Y-78782760D02*
X125795142Y-78897045D01*
X125795142Y-78897045D02*
X125823714Y-78954188D01*
X125823714Y-78954188D02*
X125852285Y-78982760D01*
X125852285Y-78982760D02*
X125909428Y-79011331D01*
X125909428Y-79011331D02*
X125966571Y-79011331D01*
X125966571Y-79011331D02*
X126023714Y-78982760D01*
X126023714Y-78982760D02*
X126052285Y-78954188D01*
X126052285Y-78954188D02*
X126080856Y-78897045D01*
X126080856Y-78897045D02*
X126109428Y-78782760D01*
X126109428Y-78782760D02*
X126109428Y-78639902D01*
X126109428Y-78639902D02*
X126080856Y-78525617D01*
X126080856Y-78525617D02*
X126052285Y-78468474D01*
X126052285Y-78468474D02*
X126023714Y-78439902D01*
X126023714Y-78439902D02*
X125966571Y-78411331D01*
X125566570Y-78411331D02*
X125195142Y-78411331D01*
X125195142Y-78411331D02*
X125395142Y-78639902D01*
X125395142Y-78639902D02*
X125309427Y-78639902D01*
X125309427Y-78639902D02*
X125252285Y-78668474D01*
X125252285Y-78668474D02*
X125223713Y-78697045D01*
X125223713Y-78697045D02*
X125195142Y-78754188D01*
X125195142Y-78754188D02*
X125195142Y-78897045D01*
X125195142Y-78897045D02*
X125223713Y-78954188D01*
X125223713Y-78954188D02*
X125252285Y-78982760D01*
X125252285Y-78982760D02*
X125309427Y-79011331D01*
X125309427Y-79011331D02*
X125480856Y-79011331D01*
X125480856Y-79011331D02*
X125537999Y-78982760D01*
X125537999Y-78982760D02*
X125566570Y-78954188D01*
X148042188Y-80608571D02*
X148070760Y-80579999D01*
X148070760Y-80579999D02*
X148099331Y-80494285D01*
X148099331Y-80494285D02*
X148099331Y-80437142D01*
X148099331Y-80437142D02*
X148070760Y-80351428D01*
X148070760Y-80351428D02*
X148013617Y-80294285D01*
X148013617Y-80294285D02*
X147956474Y-80265714D01*
X147956474Y-80265714D02*
X147842188Y-80237142D01*
X147842188Y-80237142D02*
X147756474Y-80237142D01*
X147756474Y-80237142D02*
X147642188Y-80265714D01*
X147642188Y-80265714D02*
X147585045Y-80294285D01*
X147585045Y-80294285D02*
X147527902Y-80351428D01*
X147527902Y-80351428D02*
X147499331Y-80437142D01*
X147499331Y-80437142D02*
X147499331Y-80494285D01*
X147499331Y-80494285D02*
X147527902Y-80579999D01*
X147527902Y-80579999D02*
X147556474Y-80608571D01*
X147699331Y-81122857D02*
X148099331Y-81122857D01*
X147470760Y-80979999D02*
X147899331Y-80837142D01*
X147899331Y-80837142D02*
X147899331Y-81208571D01*
X148099331Y-81751428D02*
X148099331Y-81408571D01*
X148099331Y-81580000D02*
X147499331Y-81580000D01*
X147499331Y-81580000D02*
X147585045Y-81522857D01*
X147585045Y-81522857D02*
X147642188Y-81465714D01*
X147642188Y-81465714D02*
X147670760Y-81408571D01*
X147499331Y-82265715D02*
X147499331Y-82151429D01*
X147499331Y-82151429D02*
X147527902Y-82094286D01*
X147527902Y-82094286D02*
X147556474Y-82065715D01*
X147556474Y-82065715D02*
X147642188Y-82008572D01*
X147642188Y-82008572D02*
X147756474Y-81980000D01*
X147756474Y-81980000D02*
X147985045Y-81980000D01*
X147985045Y-81980000D02*
X148042188Y-82008572D01*
X148042188Y-82008572D02*
X148070760Y-82037143D01*
X148070760Y-82037143D02*
X148099331Y-82094286D01*
X148099331Y-82094286D02*
X148099331Y-82208572D01*
X148099331Y-82208572D02*
X148070760Y-82265715D01*
X148070760Y-82265715D02*
X148042188Y-82294286D01*
X148042188Y-82294286D02*
X147985045Y-82322857D01*
X147985045Y-82322857D02*
X147842188Y-82322857D01*
X147842188Y-82322857D02*
X147785045Y-82294286D01*
X147785045Y-82294286D02*
X147756474Y-82265715D01*
X147756474Y-82265715D02*
X147727902Y-82208572D01*
X147727902Y-82208572D02*
X147727902Y-82094286D01*
X147727902Y-82094286D02*
X147756474Y-82037143D01*
X147756474Y-82037143D02*
X147785045Y-82008572D01*
X147785045Y-82008572D02*
X147842188Y-81980000D01*
X173626331Y-72226571D02*
X173340617Y-72026571D01*
X173626331Y-71883714D02*
X173026331Y-71883714D01*
X173026331Y-71883714D02*
X173026331Y-72112285D01*
X173026331Y-72112285D02*
X173054902Y-72169428D01*
X173054902Y-72169428D02*
X173083474Y-72197999D01*
X173083474Y-72197999D02*
X173140617Y-72226571D01*
X173140617Y-72226571D02*
X173226331Y-72226571D01*
X173226331Y-72226571D02*
X173283474Y-72197999D01*
X173283474Y-72197999D02*
X173312045Y-72169428D01*
X173312045Y-72169428D02*
X173340617Y-72112285D01*
X173340617Y-72112285D02*
X173340617Y-71883714D01*
X173026331Y-72426571D02*
X173026331Y-72797999D01*
X173026331Y-72797999D02*
X173254902Y-72597999D01*
X173254902Y-72597999D02*
X173254902Y-72683714D01*
X173254902Y-72683714D02*
X173283474Y-72740857D01*
X173283474Y-72740857D02*
X173312045Y-72769428D01*
X173312045Y-72769428D02*
X173369188Y-72797999D01*
X173369188Y-72797999D02*
X173512045Y-72797999D01*
X173512045Y-72797999D02*
X173569188Y-72769428D01*
X173569188Y-72769428D02*
X173597760Y-72740857D01*
X173597760Y-72740857D02*
X173626331Y-72683714D01*
X173626331Y-72683714D02*
X173626331Y-72512285D01*
X173626331Y-72512285D02*
X173597760Y-72455142D01*
X173597760Y-72455142D02*
X173569188Y-72426571D01*
X173626331Y-73369428D02*
X173626331Y-73026571D01*
X173626331Y-73198000D02*
X173026331Y-73198000D01*
X173026331Y-73198000D02*
X173112045Y-73140857D01*
X173112045Y-73140857D02*
X173169188Y-73083714D01*
X173169188Y-73083714D02*
X173197760Y-73026571D01*
X173083474Y-73598000D02*
X173054902Y-73626572D01*
X173054902Y-73626572D02*
X173026331Y-73683715D01*
X173026331Y-73683715D02*
X173026331Y-73826572D01*
X173026331Y-73826572D02*
X173054902Y-73883715D01*
X173054902Y-73883715D02*
X173083474Y-73912286D01*
X173083474Y-73912286D02*
X173140617Y-73940857D01*
X173140617Y-73940857D02*
X173197760Y-73940857D01*
X173197760Y-73940857D02*
X173283474Y-73912286D01*
X173283474Y-73912286D02*
X173626331Y-73569429D01*
X173626331Y-73569429D02*
X173626331Y-73940857D01*
X165831714Y-74058331D02*
X166031714Y-73772617D01*
X166174571Y-74058331D02*
X166174571Y-73458331D01*
X166174571Y-73458331D02*
X165946000Y-73458331D01*
X165946000Y-73458331D02*
X165888857Y-73486902D01*
X165888857Y-73486902D02*
X165860286Y-73515474D01*
X165860286Y-73515474D02*
X165831714Y-73572617D01*
X165831714Y-73572617D02*
X165831714Y-73658331D01*
X165831714Y-73658331D02*
X165860286Y-73715474D01*
X165860286Y-73715474D02*
X165888857Y-73744045D01*
X165888857Y-73744045D02*
X165946000Y-73772617D01*
X165946000Y-73772617D02*
X166174571Y-73772617D01*
X165574571Y-74058331D02*
X165574571Y-73458331D01*
X165574571Y-73458331D02*
X165231714Y-74058331D01*
X165231714Y-74058331D02*
X165231714Y-73458331D01*
X165003143Y-73458331D02*
X164631715Y-73458331D01*
X164631715Y-73458331D02*
X164831715Y-73686902D01*
X164831715Y-73686902D02*
X164746000Y-73686902D01*
X164746000Y-73686902D02*
X164688858Y-73715474D01*
X164688858Y-73715474D02*
X164660286Y-73744045D01*
X164660286Y-73744045D02*
X164631715Y-73801188D01*
X164631715Y-73801188D02*
X164631715Y-73944045D01*
X164631715Y-73944045D02*
X164660286Y-74001188D01*
X164660286Y-74001188D02*
X164688858Y-74029760D01*
X164688858Y-74029760D02*
X164746000Y-74058331D01*
X164746000Y-74058331D02*
X164917429Y-74058331D01*
X164917429Y-74058331D02*
X164974572Y-74029760D01*
X164974572Y-74029760D02*
X165003143Y-74001188D01*
X164260286Y-73458331D02*
X164203143Y-73458331D01*
X164203143Y-73458331D02*
X164146000Y-73486902D01*
X164146000Y-73486902D02*
X164117429Y-73515474D01*
X164117429Y-73515474D02*
X164088857Y-73572617D01*
X164088857Y-73572617D02*
X164060286Y-73686902D01*
X164060286Y-73686902D02*
X164060286Y-73829760D01*
X164060286Y-73829760D02*
X164088857Y-73944045D01*
X164088857Y-73944045D02*
X164117429Y-74001188D01*
X164117429Y-74001188D02*
X164146000Y-74029760D01*
X164146000Y-74029760D02*
X164203143Y-74058331D01*
X164203143Y-74058331D02*
X164260286Y-74058331D01*
X164260286Y-74058331D02*
X164317429Y-74029760D01*
X164317429Y-74029760D02*
X164346000Y-74001188D01*
X164346000Y-74001188D02*
X164374571Y-73944045D01*
X164374571Y-73944045D02*
X164403143Y-73829760D01*
X164403143Y-73829760D02*
X164403143Y-73686902D01*
X164403143Y-73686902D02*
X164374571Y-73572617D01*
X164374571Y-73572617D02*
X164346000Y-73515474D01*
X164346000Y-73515474D02*
X164317429Y-73486902D01*
X164317429Y-73486902D02*
X164260286Y-73458331D01*
X163488857Y-74058331D02*
X163831714Y-74058331D01*
X163660285Y-74058331D02*
X163660285Y-73458331D01*
X163660285Y-73458331D02*
X163717428Y-73544045D01*
X163717428Y-73544045D02*
X163774571Y-73601188D01*
X163774571Y-73601188D02*
X163831714Y-73629760D01*
X159980188Y-66384571D02*
X160008760Y-66355999D01*
X160008760Y-66355999D02*
X160037331Y-66270285D01*
X160037331Y-66270285D02*
X160037331Y-66213142D01*
X160037331Y-66213142D02*
X160008760Y-66127428D01*
X160008760Y-66127428D02*
X159951617Y-66070285D01*
X159951617Y-66070285D02*
X159894474Y-66041714D01*
X159894474Y-66041714D02*
X159780188Y-66013142D01*
X159780188Y-66013142D02*
X159694474Y-66013142D01*
X159694474Y-66013142D02*
X159580188Y-66041714D01*
X159580188Y-66041714D02*
X159523045Y-66070285D01*
X159523045Y-66070285D02*
X159465902Y-66127428D01*
X159465902Y-66127428D02*
X159437331Y-66213142D01*
X159437331Y-66213142D02*
X159437331Y-66270285D01*
X159437331Y-66270285D02*
X159465902Y-66355999D01*
X159465902Y-66355999D02*
X159494474Y-66384571D01*
X159637331Y-66898857D02*
X160037331Y-66898857D01*
X159408760Y-66755999D02*
X159837331Y-66613142D01*
X159837331Y-66613142D02*
X159837331Y-66984571D01*
X159437331Y-67327428D02*
X159437331Y-67384571D01*
X159437331Y-67384571D02*
X159465902Y-67441714D01*
X159465902Y-67441714D02*
X159494474Y-67470286D01*
X159494474Y-67470286D02*
X159551617Y-67498857D01*
X159551617Y-67498857D02*
X159665902Y-67527428D01*
X159665902Y-67527428D02*
X159808760Y-67527428D01*
X159808760Y-67527428D02*
X159923045Y-67498857D01*
X159923045Y-67498857D02*
X159980188Y-67470286D01*
X159980188Y-67470286D02*
X160008760Y-67441714D01*
X160008760Y-67441714D02*
X160037331Y-67384571D01*
X160037331Y-67384571D02*
X160037331Y-67327428D01*
X160037331Y-67327428D02*
X160008760Y-67270286D01*
X160008760Y-67270286D02*
X159980188Y-67241714D01*
X159980188Y-67241714D02*
X159923045Y-67213143D01*
X159923045Y-67213143D02*
X159808760Y-67184571D01*
X159808760Y-67184571D02*
X159665902Y-67184571D01*
X159665902Y-67184571D02*
X159551617Y-67213143D01*
X159551617Y-67213143D02*
X159494474Y-67241714D01*
X159494474Y-67241714D02*
X159465902Y-67270286D01*
X159465902Y-67270286D02*
X159437331Y-67327428D01*
X159637331Y-68041715D02*
X160037331Y-68041715D01*
X159408760Y-67898857D02*
X159837331Y-67756000D01*
X159837331Y-67756000D02*
X159837331Y-68127429D01*
X127036428Y-77233331D02*
X127236428Y-76947617D01*
X127379285Y-77233331D02*
X127379285Y-76633331D01*
X127379285Y-76633331D02*
X127150714Y-76633331D01*
X127150714Y-76633331D02*
X127093571Y-76661902D01*
X127093571Y-76661902D02*
X127065000Y-76690474D01*
X127065000Y-76690474D02*
X127036428Y-76747617D01*
X127036428Y-76747617D02*
X127036428Y-76833331D01*
X127036428Y-76833331D02*
X127065000Y-76890474D01*
X127065000Y-76890474D02*
X127093571Y-76919045D01*
X127093571Y-76919045D02*
X127150714Y-76947617D01*
X127150714Y-76947617D02*
X127379285Y-76947617D01*
X126493571Y-76633331D02*
X126779285Y-76633331D01*
X126779285Y-76633331D02*
X126807857Y-76919045D01*
X126807857Y-76919045D02*
X126779285Y-76890474D01*
X126779285Y-76890474D02*
X126722143Y-76861902D01*
X126722143Y-76861902D02*
X126579285Y-76861902D01*
X126579285Y-76861902D02*
X126522143Y-76890474D01*
X126522143Y-76890474D02*
X126493571Y-76919045D01*
X126493571Y-76919045D02*
X126465000Y-76976188D01*
X126465000Y-76976188D02*
X126465000Y-77119045D01*
X126465000Y-77119045D02*
X126493571Y-77176188D01*
X126493571Y-77176188D02*
X126522143Y-77204760D01*
X126522143Y-77204760D02*
X126579285Y-77233331D01*
X126579285Y-77233331D02*
X126722143Y-77233331D01*
X126722143Y-77233331D02*
X126779285Y-77204760D01*
X126779285Y-77204760D02*
X126807857Y-77176188D01*
X126093571Y-76633331D02*
X126036428Y-76633331D01*
X126036428Y-76633331D02*
X125979285Y-76661902D01*
X125979285Y-76661902D02*
X125950714Y-76690474D01*
X125950714Y-76690474D02*
X125922142Y-76747617D01*
X125922142Y-76747617D02*
X125893571Y-76861902D01*
X125893571Y-76861902D02*
X125893571Y-77004760D01*
X125893571Y-77004760D02*
X125922142Y-77119045D01*
X125922142Y-77119045D02*
X125950714Y-77176188D01*
X125950714Y-77176188D02*
X125979285Y-77204760D01*
X125979285Y-77204760D02*
X126036428Y-77233331D01*
X126036428Y-77233331D02*
X126093571Y-77233331D01*
X126093571Y-77233331D02*
X126150714Y-77204760D01*
X126150714Y-77204760D02*
X126179285Y-77176188D01*
X126179285Y-77176188D02*
X126207856Y-77119045D01*
X126207856Y-77119045D02*
X126236428Y-77004760D01*
X126236428Y-77004760D02*
X126236428Y-76861902D01*
X126236428Y-76861902D02*
X126207856Y-76747617D01*
X126207856Y-76747617D02*
X126179285Y-76690474D01*
X126179285Y-76690474D02*
X126150714Y-76661902D01*
X126150714Y-76661902D02*
X126093571Y-76633331D01*
X125379285Y-76833331D02*
X125379285Y-77233331D01*
X125522142Y-76604760D02*
X125664999Y-77033331D01*
X125664999Y-77033331D02*
X125293570Y-77033331D01*
X134783428Y-90695331D02*
X134983428Y-90409617D01*
X135126285Y-90695331D02*
X135126285Y-90095331D01*
X135126285Y-90095331D02*
X134897714Y-90095331D01*
X134897714Y-90095331D02*
X134840571Y-90123902D01*
X134840571Y-90123902D02*
X134812000Y-90152474D01*
X134812000Y-90152474D02*
X134783428Y-90209617D01*
X134783428Y-90209617D02*
X134783428Y-90295331D01*
X134783428Y-90295331D02*
X134812000Y-90352474D01*
X134812000Y-90352474D02*
X134840571Y-90381045D01*
X134840571Y-90381045D02*
X134897714Y-90409617D01*
X134897714Y-90409617D02*
X135126285Y-90409617D01*
X134240571Y-90095331D02*
X134526285Y-90095331D01*
X134526285Y-90095331D02*
X134554857Y-90381045D01*
X134554857Y-90381045D02*
X134526285Y-90352474D01*
X134526285Y-90352474D02*
X134469143Y-90323902D01*
X134469143Y-90323902D02*
X134326285Y-90323902D01*
X134326285Y-90323902D02*
X134269143Y-90352474D01*
X134269143Y-90352474D02*
X134240571Y-90381045D01*
X134240571Y-90381045D02*
X134212000Y-90438188D01*
X134212000Y-90438188D02*
X134212000Y-90581045D01*
X134212000Y-90581045D02*
X134240571Y-90638188D01*
X134240571Y-90638188D02*
X134269143Y-90666760D01*
X134269143Y-90666760D02*
X134326285Y-90695331D01*
X134326285Y-90695331D02*
X134469143Y-90695331D01*
X134469143Y-90695331D02*
X134526285Y-90666760D01*
X134526285Y-90666760D02*
X134554857Y-90638188D01*
X133640571Y-90695331D02*
X133983428Y-90695331D01*
X133811999Y-90695331D02*
X133811999Y-90095331D01*
X133811999Y-90095331D02*
X133869142Y-90181045D01*
X133869142Y-90181045D02*
X133926285Y-90238188D01*
X133926285Y-90238188D02*
X133983428Y-90266760D01*
X133269142Y-90095331D02*
X133211999Y-90095331D01*
X133211999Y-90095331D02*
X133154856Y-90123902D01*
X133154856Y-90123902D02*
X133126285Y-90152474D01*
X133126285Y-90152474D02*
X133097713Y-90209617D01*
X133097713Y-90209617D02*
X133069142Y-90323902D01*
X133069142Y-90323902D02*
X133069142Y-90466760D01*
X133069142Y-90466760D02*
X133097713Y-90581045D01*
X133097713Y-90581045D02*
X133126285Y-90638188D01*
X133126285Y-90638188D02*
X133154856Y-90666760D01*
X133154856Y-90666760D02*
X133211999Y-90695331D01*
X133211999Y-90695331D02*
X133269142Y-90695331D01*
X133269142Y-90695331D02*
X133326285Y-90666760D01*
X133326285Y-90666760D02*
X133354856Y-90638188D01*
X133354856Y-90638188D02*
X133383427Y-90581045D01*
X133383427Y-90581045D02*
X133411999Y-90466760D01*
X133411999Y-90466760D02*
X133411999Y-90323902D01*
X133411999Y-90323902D02*
X133383427Y-90209617D01*
X133383427Y-90209617D02*
X133354856Y-90152474D01*
X133354856Y-90152474D02*
X133326285Y-90123902D01*
X133326285Y-90123902D02*
X133269142Y-90095331D01*
X178452331Y-69051571D02*
X178166617Y-68851571D01*
X178452331Y-68708714D02*
X177852331Y-68708714D01*
X177852331Y-68708714D02*
X177852331Y-68937285D01*
X177852331Y-68937285D02*
X177880902Y-68994428D01*
X177880902Y-68994428D02*
X177909474Y-69022999D01*
X177909474Y-69022999D02*
X177966617Y-69051571D01*
X177966617Y-69051571D02*
X178052331Y-69051571D01*
X178052331Y-69051571D02*
X178109474Y-69022999D01*
X178109474Y-69022999D02*
X178138045Y-68994428D01*
X178138045Y-68994428D02*
X178166617Y-68937285D01*
X178166617Y-68937285D02*
X178166617Y-68708714D01*
X177852331Y-69251571D02*
X177852331Y-69622999D01*
X177852331Y-69622999D02*
X178080902Y-69422999D01*
X178080902Y-69422999D02*
X178080902Y-69508714D01*
X178080902Y-69508714D02*
X178109474Y-69565857D01*
X178109474Y-69565857D02*
X178138045Y-69594428D01*
X178138045Y-69594428D02*
X178195188Y-69622999D01*
X178195188Y-69622999D02*
X178338045Y-69622999D01*
X178338045Y-69622999D02*
X178395188Y-69594428D01*
X178395188Y-69594428D02*
X178423760Y-69565857D01*
X178423760Y-69565857D02*
X178452331Y-69508714D01*
X178452331Y-69508714D02*
X178452331Y-69337285D01*
X178452331Y-69337285D02*
X178423760Y-69280142D01*
X178423760Y-69280142D02*
X178395188Y-69251571D01*
X178452331Y-70194428D02*
X178452331Y-69851571D01*
X178452331Y-70023000D02*
X177852331Y-70023000D01*
X177852331Y-70023000D02*
X177938045Y-69965857D01*
X177938045Y-69965857D02*
X177995188Y-69908714D01*
X177995188Y-69908714D02*
X178023760Y-69851571D01*
X178109474Y-70537286D02*
X178080902Y-70480143D01*
X178080902Y-70480143D02*
X178052331Y-70451572D01*
X178052331Y-70451572D02*
X177995188Y-70423000D01*
X177995188Y-70423000D02*
X177966617Y-70423000D01*
X177966617Y-70423000D02*
X177909474Y-70451572D01*
X177909474Y-70451572D02*
X177880902Y-70480143D01*
X177880902Y-70480143D02*
X177852331Y-70537286D01*
X177852331Y-70537286D02*
X177852331Y-70651572D01*
X177852331Y-70651572D02*
X177880902Y-70708715D01*
X177880902Y-70708715D02*
X177909474Y-70737286D01*
X177909474Y-70737286D02*
X177966617Y-70765857D01*
X177966617Y-70765857D02*
X177995188Y-70765857D01*
X177995188Y-70765857D02*
X178052331Y-70737286D01*
X178052331Y-70737286D02*
X178080902Y-70708715D01*
X178080902Y-70708715D02*
X178109474Y-70651572D01*
X178109474Y-70651572D02*
X178109474Y-70537286D01*
X178109474Y-70537286D02*
X178138045Y-70480143D01*
X178138045Y-70480143D02*
X178166617Y-70451572D01*
X178166617Y-70451572D02*
X178223760Y-70423000D01*
X178223760Y-70423000D02*
X178338045Y-70423000D01*
X178338045Y-70423000D02*
X178395188Y-70451572D01*
X178395188Y-70451572D02*
X178423760Y-70480143D01*
X178423760Y-70480143D02*
X178452331Y-70537286D01*
X178452331Y-70537286D02*
X178452331Y-70651572D01*
X178452331Y-70651572D02*
X178423760Y-70708715D01*
X178423760Y-70708715D02*
X178395188Y-70737286D01*
X178395188Y-70737286D02*
X178338045Y-70765857D01*
X178338045Y-70765857D02*
X178223760Y-70765857D01*
X178223760Y-70765857D02*
X178166617Y-70737286D01*
X178166617Y-70737286D02*
X178138045Y-70708715D01*
X178138045Y-70708715D02*
X178109474Y-70651572D01*
X165517428Y-80408331D02*
X165717428Y-80122617D01*
X165860285Y-80408331D02*
X165860285Y-79808331D01*
X165860285Y-79808331D02*
X165631714Y-79808331D01*
X165631714Y-79808331D02*
X165574571Y-79836902D01*
X165574571Y-79836902D02*
X165546000Y-79865474D01*
X165546000Y-79865474D02*
X165517428Y-79922617D01*
X165517428Y-79922617D02*
X165517428Y-80008331D01*
X165517428Y-80008331D02*
X165546000Y-80065474D01*
X165546000Y-80065474D02*
X165574571Y-80094045D01*
X165574571Y-80094045D02*
X165631714Y-80122617D01*
X165631714Y-80122617D02*
X165860285Y-80122617D01*
X165317428Y-79808331D02*
X164946000Y-79808331D01*
X164946000Y-79808331D02*
X165146000Y-80036902D01*
X165146000Y-80036902D02*
X165060285Y-80036902D01*
X165060285Y-80036902D02*
X165003143Y-80065474D01*
X165003143Y-80065474D02*
X164974571Y-80094045D01*
X164974571Y-80094045D02*
X164946000Y-80151188D01*
X164946000Y-80151188D02*
X164946000Y-80294045D01*
X164946000Y-80294045D02*
X164974571Y-80351188D01*
X164974571Y-80351188D02*
X165003143Y-80379760D01*
X165003143Y-80379760D02*
X165060285Y-80408331D01*
X165060285Y-80408331D02*
X165231714Y-80408331D01*
X165231714Y-80408331D02*
X165288857Y-80379760D01*
X165288857Y-80379760D02*
X165317428Y-80351188D01*
X164574571Y-79808331D02*
X164517428Y-79808331D01*
X164517428Y-79808331D02*
X164460285Y-79836902D01*
X164460285Y-79836902D02*
X164431714Y-79865474D01*
X164431714Y-79865474D02*
X164403142Y-79922617D01*
X164403142Y-79922617D02*
X164374571Y-80036902D01*
X164374571Y-80036902D02*
X164374571Y-80179760D01*
X164374571Y-80179760D02*
X164403142Y-80294045D01*
X164403142Y-80294045D02*
X164431714Y-80351188D01*
X164431714Y-80351188D02*
X164460285Y-80379760D01*
X164460285Y-80379760D02*
X164517428Y-80408331D01*
X164517428Y-80408331D02*
X164574571Y-80408331D01*
X164574571Y-80408331D02*
X164631714Y-80379760D01*
X164631714Y-80379760D02*
X164660285Y-80351188D01*
X164660285Y-80351188D02*
X164688856Y-80294045D01*
X164688856Y-80294045D02*
X164717428Y-80179760D01*
X164717428Y-80179760D02*
X164717428Y-80036902D01*
X164717428Y-80036902D02*
X164688856Y-79922617D01*
X164688856Y-79922617D02*
X164660285Y-79865474D01*
X164660285Y-79865474D02*
X164631714Y-79836902D01*
X164631714Y-79836902D02*
X164574571Y-79808331D01*
X163803142Y-80408331D02*
X164145999Y-80408331D01*
X163974570Y-80408331D02*
X163974570Y-79808331D01*
X163974570Y-79808331D02*
X164031713Y-79894045D01*
X164031713Y-79894045D02*
X164088856Y-79951188D01*
X164088856Y-79951188D02*
X164145999Y-79979760D01*
X127036428Y-82764188D02*
X127065000Y-82792760D01*
X127065000Y-82792760D02*
X127150714Y-82821331D01*
X127150714Y-82821331D02*
X127207857Y-82821331D01*
X127207857Y-82821331D02*
X127293571Y-82792760D01*
X127293571Y-82792760D02*
X127350714Y-82735617D01*
X127350714Y-82735617D02*
X127379285Y-82678474D01*
X127379285Y-82678474D02*
X127407857Y-82564188D01*
X127407857Y-82564188D02*
X127407857Y-82478474D01*
X127407857Y-82478474D02*
X127379285Y-82364188D01*
X127379285Y-82364188D02*
X127350714Y-82307045D01*
X127350714Y-82307045D02*
X127293571Y-82249902D01*
X127293571Y-82249902D02*
X127207857Y-82221331D01*
X127207857Y-82221331D02*
X127150714Y-82221331D01*
X127150714Y-82221331D02*
X127065000Y-82249902D01*
X127065000Y-82249902D02*
X127036428Y-82278474D01*
X126493571Y-82221331D02*
X126779285Y-82221331D01*
X126779285Y-82221331D02*
X126807857Y-82507045D01*
X126807857Y-82507045D02*
X126779285Y-82478474D01*
X126779285Y-82478474D02*
X126722143Y-82449902D01*
X126722143Y-82449902D02*
X126579285Y-82449902D01*
X126579285Y-82449902D02*
X126522143Y-82478474D01*
X126522143Y-82478474D02*
X126493571Y-82507045D01*
X126493571Y-82507045D02*
X126465000Y-82564188D01*
X126465000Y-82564188D02*
X126465000Y-82707045D01*
X126465000Y-82707045D02*
X126493571Y-82764188D01*
X126493571Y-82764188D02*
X126522143Y-82792760D01*
X126522143Y-82792760D02*
X126579285Y-82821331D01*
X126579285Y-82821331D02*
X126722143Y-82821331D01*
X126722143Y-82821331D02*
X126779285Y-82792760D01*
X126779285Y-82792760D02*
X126807857Y-82764188D01*
X126093571Y-82221331D02*
X126036428Y-82221331D01*
X126036428Y-82221331D02*
X125979285Y-82249902D01*
X125979285Y-82249902D02*
X125950714Y-82278474D01*
X125950714Y-82278474D02*
X125922142Y-82335617D01*
X125922142Y-82335617D02*
X125893571Y-82449902D01*
X125893571Y-82449902D02*
X125893571Y-82592760D01*
X125893571Y-82592760D02*
X125922142Y-82707045D01*
X125922142Y-82707045D02*
X125950714Y-82764188D01*
X125950714Y-82764188D02*
X125979285Y-82792760D01*
X125979285Y-82792760D02*
X126036428Y-82821331D01*
X126036428Y-82821331D02*
X126093571Y-82821331D01*
X126093571Y-82821331D02*
X126150714Y-82792760D01*
X126150714Y-82792760D02*
X126179285Y-82764188D01*
X126179285Y-82764188D02*
X126207856Y-82707045D01*
X126207856Y-82707045D02*
X126236428Y-82592760D01*
X126236428Y-82592760D02*
X126236428Y-82449902D01*
X126236428Y-82449902D02*
X126207856Y-82335617D01*
X126207856Y-82335617D02*
X126179285Y-82278474D01*
X126179285Y-82278474D02*
X126150714Y-82249902D01*
X126150714Y-82249902D02*
X126093571Y-82221331D01*
X125607856Y-82821331D02*
X125493570Y-82821331D01*
X125493570Y-82821331D02*
X125436427Y-82792760D01*
X125436427Y-82792760D02*
X125407856Y-82764188D01*
X125407856Y-82764188D02*
X125350713Y-82678474D01*
X125350713Y-82678474D02*
X125322142Y-82564188D01*
X125322142Y-82564188D02*
X125322142Y-82335617D01*
X125322142Y-82335617D02*
X125350713Y-82278474D01*
X125350713Y-82278474D02*
X125379285Y-82249902D01*
X125379285Y-82249902D02*
X125436427Y-82221331D01*
X125436427Y-82221331D02*
X125550713Y-82221331D01*
X125550713Y-82221331D02*
X125607856Y-82249902D01*
X125607856Y-82249902D02*
X125636427Y-82278474D01*
X125636427Y-82278474D02*
X125664999Y-82335617D01*
X125664999Y-82335617D02*
X125664999Y-82478474D01*
X125664999Y-82478474D02*
X125636427Y-82535617D01*
X125636427Y-82535617D02*
X125607856Y-82564188D01*
X125607856Y-82564188D02*
X125550713Y-82592760D01*
X125550713Y-82592760D02*
X125436427Y-82592760D01*
X125436427Y-82592760D02*
X125379285Y-82564188D01*
X125379285Y-82564188D02*
X125350713Y-82535617D01*
X125350713Y-82535617D02*
X125322142Y-82478474D01*
X140752428Y-86631331D02*
X140952428Y-86345617D01*
X141095285Y-86631331D02*
X141095285Y-86031331D01*
X141095285Y-86031331D02*
X140866714Y-86031331D01*
X140866714Y-86031331D02*
X140809571Y-86059902D01*
X140809571Y-86059902D02*
X140781000Y-86088474D01*
X140781000Y-86088474D02*
X140752428Y-86145617D01*
X140752428Y-86145617D02*
X140752428Y-86231331D01*
X140752428Y-86231331D02*
X140781000Y-86288474D01*
X140781000Y-86288474D02*
X140809571Y-86317045D01*
X140809571Y-86317045D02*
X140866714Y-86345617D01*
X140866714Y-86345617D02*
X141095285Y-86345617D01*
X140209571Y-86031331D02*
X140495285Y-86031331D01*
X140495285Y-86031331D02*
X140523857Y-86317045D01*
X140523857Y-86317045D02*
X140495285Y-86288474D01*
X140495285Y-86288474D02*
X140438143Y-86259902D01*
X140438143Y-86259902D02*
X140295285Y-86259902D01*
X140295285Y-86259902D02*
X140238143Y-86288474D01*
X140238143Y-86288474D02*
X140209571Y-86317045D01*
X140209571Y-86317045D02*
X140181000Y-86374188D01*
X140181000Y-86374188D02*
X140181000Y-86517045D01*
X140181000Y-86517045D02*
X140209571Y-86574188D01*
X140209571Y-86574188D02*
X140238143Y-86602760D01*
X140238143Y-86602760D02*
X140295285Y-86631331D01*
X140295285Y-86631331D02*
X140438143Y-86631331D01*
X140438143Y-86631331D02*
X140495285Y-86602760D01*
X140495285Y-86602760D02*
X140523857Y-86574188D01*
X139609571Y-86631331D02*
X139952428Y-86631331D01*
X139780999Y-86631331D02*
X139780999Y-86031331D01*
X139780999Y-86031331D02*
X139838142Y-86117045D01*
X139838142Y-86117045D02*
X139895285Y-86174188D01*
X139895285Y-86174188D02*
X139952428Y-86202760D01*
X139380999Y-86088474D02*
X139352427Y-86059902D01*
X139352427Y-86059902D02*
X139295285Y-86031331D01*
X139295285Y-86031331D02*
X139152427Y-86031331D01*
X139152427Y-86031331D02*
X139095285Y-86059902D01*
X139095285Y-86059902D02*
X139066713Y-86088474D01*
X139066713Y-86088474D02*
X139038142Y-86145617D01*
X139038142Y-86145617D02*
X139038142Y-86202760D01*
X139038142Y-86202760D02*
X139066713Y-86288474D01*
X139066713Y-86288474D02*
X139409570Y-86631331D01*
X139409570Y-86631331D02*
X139038142Y-86631331D01*
X153941331Y-96483571D02*
X153655617Y-96283571D01*
X153941331Y-96140714D02*
X153341331Y-96140714D01*
X153341331Y-96140714D02*
X153341331Y-96369285D01*
X153341331Y-96369285D02*
X153369902Y-96426428D01*
X153369902Y-96426428D02*
X153398474Y-96454999D01*
X153398474Y-96454999D02*
X153455617Y-96483571D01*
X153455617Y-96483571D02*
X153541331Y-96483571D01*
X153541331Y-96483571D02*
X153598474Y-96454999D01*
X153598474Y-96454999D02*
X153627045Y-96426428D01*
X153627045Y-96426428D02*
X153655617Y-96369285D01*
X153655617Y-96369285D02*
X153655617Y-96140714D01*
X153541331Y-96997857D02*
X153941331Y-96997857D01*
X153312760Y-96854999D02*
X153741331Y-96712142D01*
X153741331Y-96712142D02*
X153741331Y-97083571D01*
X153341331Y-97426428D02*
X153341331Y-97483571D01*
X153341331Y-97483571D02*
X153369902Y-97540714D01*
X153369902Y-97540714D02*
X153398474Y-97569286D01*
X153398474Y-97569286D02*
X153455617Y-97597857D01*
X153455617Y-97597857D02*
X153569902Y-97626428D01*
X153569902Y-97626428D02*
X153712760Y-97626428D01*
X153712760Y-97626428D02*
X153827045Y-97597857D01*
X153827045Y-97597857D02*
X153884188Y-97569286D01*
X153884188Y-97569286D02*
X153912760Y-97540714D01*
X153912760Y-97540714D02*
X153941331Y-97483571D01*
X153941331Y-97483571D02*
X153941331Y-97426428D01*
X153941331Y-97426428D02*
X153912760Y-97369286D01*
X153912760Y-97369286D02*
X153884188Y-97340714D01*
X153884188Y-97340714D02*
X153827045Y-97312143D01*
X153827045Y-97312143D02*
X153712760Y-97283571D01*
X153712760Y-97283571D02*
X153569902Y-97283571D01*
X153569902Y-97283571D02*
X153455617Y-97312143D01*
X153455617Y-97312143D02*
X153398474Y-97340714D01*
X153398474Y-97340714D02*
X153369902Y-97369286D01*
X153369902Y-97369286D02*
X153341331Y-97426428D01*
X153398474Y-97855000D02*
X153369902Y-97883572D01*
X153369902Y-97883572D02*
X153341331Y-97940715D01*
X153341331Y-97940715D02*
X153341331Y-98083572D01*
X153341331Y-98083572D02*
X153369902Y-98140715D01*
X153369902Y-98140715D02*
X153398474Y-98169286D01*
X153398474Y-98169286D02*
X153455617Y-98197857D01*
X153455617Y-98197857D02*
X153512760Y-98197857D01*
X153512760Y-98197857D02*
X153598474Y-98169286D01*
X153598474Y-98169286D02*
X153941331Y-97826429D01*
X153941331Y-97826429D02*
X153941331Y-98197857D01*
X172807188Y-82132571D02*
X172835760Y-82103999D01*
X172835760Y-82103999D02*
X172864331Y-82018285D01*
X172864331Y-82018285D02*
X172864331Y-81961142D01*
X172864331Y-81961142D02*
X172835760Y-81875428D01*
X172835760Y-81875428D02*
X172778617Y-81818285D01*
X172778617Y-81818285D02*
X172721474Y-81789714D01*
X172721474Y-81789714D02*
X172607188Y-81761142D01*
X172607188Y-81761142D02*
X172521474Y-81761142D01*
X172521474Y-81761142D02*
X172407188Y-81789714D01*
X172407188Y-81789714D02*
X172350045Y-81818285D01*
X172350045Y-81818285D02*
X172292902Y-81875428D01*
X172292902Y-81875428D02*
X172264331Y-81961142D01*
X172264331Y-81961142D02*
X172264331Y-82018285D01*
X172264331Y-82018285D02*
X172292902Y-82103999D01*
X172292902Y-82103999D02*
X172321474Y-82132571D01*
X172264331Y-82332571D02*
X172264331Y-82703999D01*
X172264331Y-82703999D02*
X172492902Y-82503999D01*
X172492902Y-82503999D02*
X172492902Y-82589714D01*
X172492902Y-82589714D02*
X172521474Y-82646857D01*
X172521474Y-82646857D02*
X172550045Y-82675428D01*
X172550045Y-82675428D02*
X172607188Y-82703999D01*
X172607188Y-82703999D02*
X172750045Y-82703999D01*
X172750045Y-82703999D02*
X172807188Y-82675428D01*
X172807188Y-82675428D02*
X172835760Y-82646857D01*
X172835760Y-82646857D02*
X172864331Y-82589714D01*
X172864331Y-82589714D02*
X172864331Y-82418285D01*
X172864331Y-82418285D02*
X172835760Y-82361142D01*
X172835760Y-82361142D02*
X172807188Y-82332571D01*
X172864331Y-83275428D02*
X172864331Y-82932571D01*
X172864331Y-83104000D02*
X172264331Y-83104000D01*
X172264331Y-83104000D02*
X172350045Y-83046857D01*
X172350045Y-83046857D02*
X172407188Y-82989714D01*
X172407188Y-82989714D02*
X172435760Y-82932571D01*
X172264331Y-83646857D02*
X172264331Y-83704000D01*
X172264331Y-83704000D02*
X172292902Y-83761143D01*
X172292902Y-83761143D02*
X172321474Y-83789715D01*
X172321474Y-83789715D02*
X172378617Y-83818286D01*
X172378617Y-83818286D02*
X172492902Y-83846857D01*
X172492902Y-83846857D02*
X172635760Y-83846857D01*
X172635760Y-83846857D02*
X172750045Y-83818286D01*
X172750045Y-83818286D02*
X172807188Y-83789715D01*
X172807188Y-83789715D02*
X172835760Y-83761143D01*
X172835760Y-83761143D02*
X172864331Y-83704000D01*
X172864331Y-83704000D02*
X172864331Y-83646857D01*
X172864331Y-83646857D02*
X172835760Y-83589715D01*
X172835760Y-83589715D02*
X172807188Y-83561143D01*
X172807188Y-83561143D02*
X172750045Y-83532572D01*
X172750045Y-83532572D02*
X172635760Y-83504000D01*
X172635760Y-83504000D02*
X172492902Y-83504000D01*
X172492902Y-83504000D02*
X172378617Y-83532572D01*
X172378617Y-83532572D02*
X172321474Y-83561143D01*
X172321474Y-83561143D02*
X172292902Y-83589715D01*
X172292902Y-83589715D02*
X172264331Y-83646857D01*
X153706428Y-87082188D02*
X153735000Y-87110760D01*
X153735000Y-87110760D02*
X153820714Y-87139331D01*
X153820714Y-87139331D02*
X153877857Y-87139331D01*
X153877857Y-87139331D02*
X153963571Y-87110760D01*
X153963571Y-87110760D02*
X154020714Y-87053617D01*
X154020714Y-87053617D02*
X154049285Y-86996474D01*
X154049285Y-86996474D02*
X154077857Y-86882188D01*
X154077857Y-86882188D02*
X154077857Y-86796474D01*
X154077857Y-86796474D02*
X154049285Y-86682188D01*
X154049285Y-86682188D02*
X154020714Y-86625045D01*
X154020714Y-86625045D02*
X153963571Y-86567902D01*
X153963571Y-86567902D02*
X153877857Y-86539331D01*
X153877857Y-86539331D02*
X153820714Y-86539331D01*
X153820714Y-86539331D02*
X153735000Y-86567902D01*
X153735000Y-86567902D02*
X153706428Y-86596474D01*
X153192143Y-86739331D02*
X153192143Y-87139331D01*
X153335000Y-86510760D02*
X153477857Y-86939331D01*
X153477857Y-86939331D02*
X153106428Y-86939331D01*
X152906428Y-86596474D02*
X152877856Y-86567902D01*
X152877856Y-86567902D02*
X152820714Y-86539331D01*
X152820714Y-86539331D02*
X152677856Y-86539331D01*
X152677856Y-86539331D02*
X152620714Y-86567902D01*
X152620714Y-86567902D02*
X152592142Y-86596474D01*
X152592142Y-86596474D02*
X152563571Y-86653617D01*
X152563571Y-86653617D02*
X152563571Y-86710760D01*
X152563571Y-86710760D02*
X152592142Y-86796474D01*
X152592142Y-86796474D02*
X152934999Y-87139331D01*
X152934999Y-87139331D02*
X152563571Y-87139331D01*
X151992142Y-87139331D02*
X152334999Y-87139331D01*
X152163570Y-87139331D02*
X152163570Y-86539331D01*
X152163570Y-86539331D02*
X152220713Y-86625045D01*
X152220713Y-86625045D02*
X152277856Y-86682188D01*
X152277856Y-86682188D02*
X152334999Y-86710760D01*
X134783428Y-85996331D02*
X134983428Y-85710617D01*
X135126285Y-85996331D02*
X135126285Y-85396331D01*
X135126285Y-85396331D02*
X134897714Y-85396331D01*
X134897714Y-85396331D02*
X134840571Y-85424902D01*
X134840571Y-85424902D02*
X134812000Y-85453474D01*
X134812000Y-85453474D02*
X134783428Y-85510617D01*
X134783428Y-85510617D02*
X134783428Y-85596331D01*
X134783428Y-85596331D02*
X134812000Y-85653474D01*
X134812000Y-85653474D02*
X134840571Y-85682045D01*
X134840571Y-85682045D02*
X134897714Y-85710617D01*
X134897714Y-85710617D02*
X135126285Y-85710617D01*
X134240571Y-85396331D02*
X134526285Y-85396331D01*
X134526285Y-85396331D02*
X134554857Y-85682045D01*
X134554857Y-85682045D02*
X134526285Y-85653474D01*
X134526285Y-85653474D02*
X134469143Y-85624902D01*
X134469143Y-85624902D02*
X134326285Y-85624902D01*
X134326285Y-85624902D02*
X134269143Y-85653474D01*
X134269143Y-85653474D02*
X134240571Y-85682045D01*
X134240571Y-85682045D02*
X134212000Y-85739188D01*
X134212000Y-85739188D02*
X134212000Y-85882045D01*
X134212000Y-85882045D02*
X134240571Y-85939188D01*
X134240571Y-85939188D02*
X134269143Y-85967760D01*
X134269143Y-85967760D02*
X134326285Y-85996331D01*
X134326285Y-85996331D02*
X134469143Y-85996331D01*
X134469143Y-85996331D02*
X134526285Y-85967760D01*
X134526285Y-85967760D02*
X134554857Y-85939188D01*
X133840571Y-85396331D02*
X133783428Y-85396331D01*
X133783428Y-85396331D02*
X133726285Y-85424902D01*
X133726285Y-85424902D02*
X133697714Y-85453474D01*
X133697714Y-85453474D02*
X133669142Y-85510617D01*
X133669142Y-85510617D02*
X133640571Y-85624902D01*
X133640571Y-85624902D02*
X133640571Y-85767760D01*
X133640571Y-85767760D02*
X133669142Y-85882045D01*
X133669142Y-85882045D02*
X133697714Y-85939188D01*
X133697714Y-85939188D02*
X133726285Y-85967760D01*
X133726285Y-85967760D02*
X133783428Y-85996331D01*
X133783428Y-85996331D02*
X133840571Y-85996331D01*
X133840571Y-85996331D02*
X133897714Y-85967760D01*
X133897714Y-85967760D02*
X133926285Y-85939188D01*
X133926285Y-85939188D02*
X133954856Y-85882045D01*
X133954856Y-85882045D02*
X133983428Y-85767760D01*
X133983428Y-85767760D02*
X133983428Y-85624902D01*
X133983428Y-85624902D02*
X133954856Y-85510617D01*
X133954856Y-85510617D02*
X133926285Y-85453474D01*
X133926285Y-85453474D02*
X133897714Y-85424902D01*
X133897714Y-85424902D02*
X133840571Y-85396331D01*
X133354856Y-85996331D02*
X133240570Y-85996331D01*
X133240570Y-85996331D02*
X133183427Y-85967760D01*
X133183427Y-85967760D02*
X133154856Y-85939188D01*
X133154856Y-85939188D02*
X133097713Y-85853474D01*
X133097713Y-85853474D02*
X133069142Y-85739188D01*
X133069142Y-85739188D02*
X133069142Y-85510617D01*
X133069142Y-85510617D02*
X133097713Y-85453474D01*
X133097713Y-85453474D02*
X133126285Y-85424902D01*
X133126285Y-85424902D02*
X133183427Y-85396331D01*
X133183427Y-85396331D02*
X133297713Y-85396331D01*
X133297713Y-85396331D02*
X133354856Y-85424902D01*
X133354856Y-85424902D02*
X133383427Y-85453474D01*
X133383427Y-85453474D02*
X133411999Y-85510617D01*
X133411999Y-85510617D02*
X133411999Y-85653474D01*
X133411999Y-85653474D02*
X133383427Y-85710617D01*
X133383427Y-85710617D02*
X133354856Y-85739188D01*
X133354856Y-85739188D02*
X133297713Y-85767760D01*
X133297713Y-85767760D02*
X133183427Y-85767760D01*
X133183427Y-85767760D02*
X133126285Y-85739188D01*
X133126285Y-85739188D02*
X133097713Y-85710617D01*
X133097713Y-85710617D02*
X133069142Y-85653474D01*
X168362188Y-75147571D02*
X168390760Y-75118999D01*
X168390760Y-75118999D02*
X168419331Y-75033285D01*
X168419331Y-75033285D02*
X168419331Y-74976142D01*
X168419331Y-74976142D02*
X168390760Y-74890428D01*
X168390760Y-74890428D02*
X168333617Y-74833285D01*
X168333617Y-74833285D02*
X168276474Y-74804714D01*
X168276474Y-74804714D02*
X168162188Y-74776142D01*
X168162188Y-74776142D02*
X168076474Y-74776142D01*
X168076474Y-74776142D02*
X167962188Y-74804714D01*
X167962188Y-74804714D02*
X167905045Y-74833285D01*
X167905045Y-74833285D02*
X167847902Y-74890428D01*
X167847902Y-74890428D02*
X167819331Y-74976142D01*
X167819331Y-74976142D02*
X167819331Y-75033285D01*
X167819331Y-75033285D02*
X167847902Y-75118999D01*
X167847902Y-75118999D02*
X167876474Y-75147571D01*
X167819331Y-75347571D02*
X167819331Y-75718999D01*
X167819331Y-75718999D02*
X168047902Y-75518999D01*
X168047902Y-75518999D02*
X168047902Y-75604714D01*
X168047902Y-75604714D02*
X168076474Y-75661857D01*
X168076474Y-75661857D02*
X168105045Y-75690428D01*
X168105045Y-75690428D02*
X168162188Y-75718999D01*
X168162188Y-75718999D02*
X168305045Y-75718999D01*
X168305045Y-75718999D02*
X168362188Y-75690428D01*
X168362188Y-75690428D02*
X168390760Y-75661857D01*
X168390760Y-75661857D02*
X168419331Y-75604714D01*
X168419331Y-75604714D02*
X168419331Y-75433285D01*
X168419331Y-75433285D02*
X168390760Y-75376142D01*
X168390760Y-75376142D02*
X168362188Y-75347571D01*
X167819331Y-76090428D02*
X167819331Y-76147571D01*
X167819331Y-76147571D02*
X167847902Y-76204714D01*
X167847902Y-76204714D02*
X167876474Y-76233286D01*
X167876474Y-76233286D02*
X167933617Y-76261857D01*
X167933617Y-76261857D02*
X168047902Y-76290428D01*
X168047902Y-76290428D02*
X168190760Y-76290428D01*
X168190760Y-76290428D02*
X168305045Y-76261857D01*
X168305045Y-76261857D02*
X168362188Y-76233286D01*
X168362188Y-76233286D02*
X168390760Y-76204714D01*
X168390760Y-76204714D02*
X168419331Y-76147571D01*
X168419331Y-76147571D02*
X168419331Y-76090428D01*
X168419331Y-76090428D02*
X168390760Y-76033286D01*
X168390760Y-76033286D02*
X168362188Y-76004714D01*
X168362188Y-76004714D02*
X168305045Y-75976143D01*
X168305045Y-75976143D02*
X168190760Y-75947571D01*
X168190760Y-75947571D02*
X168047902Y-75947571D01*
X168047902Y-75947571D02*
X167933617Y-75976143D01*
X167933617Y-75976143D02*
X167876474Y-76004714D01*
X167876474Y-76004714D02*
X167847902Y-76033286D01*
X167847902Y-76033286D02*
X167819331Y-76090428D01*
X167876474Y-76519000D02*
X167847902Y-76547572D01*
X167847902Y-76547572D02*
X167819331Y-76604715D01*
X167819331Y-76604715D02*
X167819331Y-76747572D01*
X167819331Y-76747572D02*
X167847902Y-76804715D01*
X167847902Y-76804715D02*
X167876474Y-76833286D01*
X167876474Y-76833286D02*
X167933617Y-76861857D01*
X167933617Y-76861857D02*
X167990760Y-76861857D01*
X167990760Y-76861857D02*
X168076474Y-76833286D01*
X168076474Y-76833286D02*
X168419331Y-76490429D01*
X168419331Y-76490429D02*
X168419331Y-76861857D01*
X191981045Y-94859571D02*
X191981045Y-94659571D01*
X192295331Y-94659571D02*
X191695331Y-94659571D01*
X191695331Y-94659571D02*
X191695331Y-94945285D01*
X191752474Y-95145285D02*
X191723902Y-95173857D01*
X191723902Y-95173857D02*
X191695331Y-95231000D01*
X191695331Y-95231000D02*
X191695331Y-95373857D01*
X191695331Y-95373857D02*
X191723902Y-95431000D01*
X191723902Y-95431000D02*
X191752474Y-95459571D01*
X191752474Y-95459571D02*
X191809617Y-95488142D01*
X191809617Y-95488142D02*
X191866760Y-95488142D01*
X191866760Y-95488142D02*
X191952474Y-95459571D01*
X191952474Y-95459571D02*
X192295331Y-95116714D01*
X192295331Y-95116714D02*
X192295331Y-95488142D01*
X191695331Y-95859571D02*
X191695331Y-95916714D01*
X191695331Y-95916714D02*
X191723902Y-95973857D01*
X191723902Y-95973857D02*
X191752474Y-96002429D01*
X191752474Y-96002429D02*
X191809617Y-96031000D01*
X191809617Y-96031000D02*
X191923902Y-96059571D01*
X191923902Y-96059571D02*
X192066760Y-96059571D01*
X192066760Y-96059571D02*
X192181045Y-96031000D01*
X192181045Y-96031000D02*
X192238188Y-96002429D01*
X192238188Y-96002429D02*
X192266760Y-95973857D01*
X192266760Y-95973857D02*
X192295331Y-95916714D01*
X192295331Y-95916714D02*
X192295331Y-95859571D01*
X192295331Y-95859571D02*
X192266760Y-95802429D01*
X192266760Y-95802429D02*
X192238188Y-95773857D01*
X192238188Y-95773857D02*
X192181045Y-95745286D01*
X192181045Y-95745286D02*
X192066760Y-95716714D01*
X192066760Y-95716714D02*
X191923902Y-95716714D01*
X191923902Y-95716714D02*
X191809617Y-95745286D01*
X191809617Y-95745286D02*
X191752474Y-95773857D01*
X191752474Y-95773857D02*
X191723902Y-95802429D01*
X191723902Y-95802429D02*
X191695331Y-95859571D01*
X192295331Y-96631000D02*
X192295331Y-96288143D01*
X192295331Y-96459572D02*
X191695331Y-96459572D01*
X191695331Y-96459572D02*
X191781045Y-96402429D01*
X191781045Y-96402429D02*
X191838188Y-96345286D01*
X191838188Y-96345286D02*
X191866760Y-96288143D01*
G04 #@! TO.C,R508*
X134366724Y-88758500D02*
X133857276Y-88758500D01*
X134366724Y-89803500D02*
X133857276Y-89803500D01*
G04 #@! TO.C,C503*
X130028733Y-95883000D02*
X130321267Y-95883000D01*
X130028733Y-96903000D02*
X130321267Y-96903000D01*
G04 #@! TO.C,C411*
X151001000Y-66909733D02*
X151001000Y-67202267D01*
X152021000Y-66909733D02*
X152021000Y-67202267D01*
G04 #@! TO.C,C201*
X189941252Y-86720000D02*
X188518748Y-86720000D01*
X189941252Y-88540000D02*
X188518748Y-88540000D01*
G04 #@! TO.C,R405*
X157973500Y-82803276D02*
X157973500Y-83312724D01*
X159018500Y-82803276D02*
X159018500Y-83312724D01*
G04 #@! TO.C,C403*
X153396733Y-74420000D02*
X153689267Y-74420000D01*
X153396733Y-75440000D02*
X153689267Y-75440000D01*
G04 #@! TO.C,C202*
X189941252Y-89133000D02*
X188518748Y-89133000D01*
X189941252Y-90953000D02*
X188518748Y-90953000D01*
G04 #@! TO.C,C505*
X142132267Y-75436000D02*
X141839733Y-75436000D01*
X142132267Y-76456000D02*
X141839733Y-76456000D01*
D14*
G04 #@! TO.C,REF\u002A\u002A*
X108903048Y-68230028D02*
X112903000Y-61310000D01*
D15*
X109126681Y-67800734D02*
X109393000Y-68210000D01*
X112743000Y-61730000D02*
X113053000Y-61730000D01*
D14*
X112903048Y-61309972D02*
X116903000Y-68230000D01*
D15*
X116679322Y-67800736D02*
X116413000Y-68210000D01*
D14*
X116903000Y-68230000D02*
X108903000Y-68230000D01*
D16*
X113128000Y-63270000D02*
G75*
G02*
X112678000Y-63270000I-225000J0D01*
G01*
X112678000Y-63270000D02*
G75*
G02*
X113128000Y-63270000I225000J0D01*
G01*
D17*
X113028000Y-66270000D02*
G75*
G02*
X112778000Y-66270000I-125000J0D01*
G01*
X112778000Y-66270000D02*
G75*
G02*
X113028000Y-66270000I125000J0D01*
G01*
D18*
X113103000Y-67270000D02*
G75*
G02*
X112703000Y-67270000I-200000J0D01*
G01*
X112703000Y-67270000D02*
G75*
G02*
X113103000Y-67270000I200000J0D01*
G01*
D19*
G36*
X113153000Y-66270000D02*
G01*
X112653000Y-66270000D01*
X112453000Y-63270000D01*
X113353000Y-63270000D01*
X113153000Y-66270000D01*
G37*
D13*
G04 #@! TO.C,R311*
X176388500Y-83566724D02*
X176388500Y-83057276D01*
X177433500Y-83566724D02*
X177433500Y-83057276D01*
G04 #@! TO.C,C308*
X169797000Y-72751733D02*
X169797000Y-73044267D01*
X170817000Y-72751733D02*
X170817000Y-73044267D01*
G04 #@! TO.C,R505*
X129245276Y-79995500D02*
X129754724Y-79995500D01*
X129245276Y-81040500D02*
X129754724Y-81040500D01*
G04 #@! TO.C,C417*
X150260267Y-72515000D02*
X149967733Y-72515000D01*
X150260267Y-73535000D02*
X149967733Y-73535000D01*
G04 #@! TO.C,RN303*
X185655000Y-73210000D02*
X186455000Y-73210000D01*
X185655000Y-76650000D02*
X186455000Y-76650000D01*
G04 #@! TO.C,C409*
X152525000Y-66909733D02*
X152525000Y-67202267D01*
X153545000Y-66909733D02*
X153545000Y-67202267D01*
G04 #@! TO.C,C305*
X168273000Y-72751733D02*
X168273000Y-73044267D01*
X169293000Y-72751733D02*
X169293000Y-73044267D01*
G04 #@! TO.C,C401*
X160018000Y-77489267D02*
X160018000Y-77196733D01*
X161038000Y-77489267D02*
X161038000Y-77196733D01*
G04 #@! TO.C,C501*
X133965733Y-81532000D02*
X134258267Y-81532000D01*
X133965733Y-82552000D02*
X134258267Y-82552000D01*
G04 #@! TO.C,R317*
X176388500Y-80137724D02*
X176388500Y-79628276D01*
X177433500Y-80137724D02*
X177433500Y-79628276D01*
G04 #@! TO.C,Y401*
X150535000Y-77521000D02*
X155535000Y-77521000D01*
X150535000Y-77721000D02*
X150535000Y-77521000D01*
X150535000Y-80521000D02*
X150535000Y-80721000D01*
X150535000Y-80721000D02*
X155535000Y-80721000D01*
X155535000Y-77721000D02*
X155535000Y-77521000D01*
X155535000Y-80521000D02*
X155535000Y-80721000D01*
G04 #@! TO.C,R404*
X156449500Y-82803276D02*
X156449500Y-83312724D01*
X157494500Y-82803276D02*
X157494500Y-83312724D01*
G04 #@! TO.C,R502*
X129794724Y-86853500D02*
X129285276Y-86853500D01*
X129794724Y-87898500D02*
X129285276Y-87898500D01*
G04 #@! TO.C,R514*
X140335724Y-78471500D02*
X139826276Y-78471500D01*
X140335724Y-79516500D02*
X139826276Y-79516500D01*
G04 #@! TO.C,D202*
X180002000Y-89551000D02*
X180002000Y-91551000D01*
X184012000Y-89551000D02*
X180002000Y-89551000D01*
X184012000Y-91551000D02*
X180002000Y-91551000D01*
G04 #@! TO.C,C510*
X129686267Y-83564000D02*
X129393733Y-83564000D01*
X129686267Y-84584000D02*
X129393733Y-84584000D01*
G04 #@! TO.C,D201*
X183225000Y-95427000D02*
X183225000Y-96077000D01*
X183225000Y-96727000D02*
X183225000Y-96077000D01*
X186345000Y-95427000D02*
X186345000Y-96077000D01*
X186345000Y-96727000D02*
X186345000Y-96077000D01*
X186625000Y-97479500D02*
X186295000Y-97239500D01*
X186625000Y-96999500D01*
X186625000Y-97479500D01*
G36*
X186625000Y-97479500D02*
G01*
X186295000Y-97239500D01*
X186625000Y-96999500D01*
X186625000Y-97479500D01*
G37*
G04 #@! TO.C,R507*
X134366724Y-84059500D02*
X133857276Y-84059500D01*
X134366724Y-85104500D02*
X133857276Y-85104500D01*
G04 #@! TO.C,C508*
X140227267Y-88898000D02*
X139934733Y-88898000D01*
X140227267Y-89918000D02*
X139934733Y-89918000D01*
G04 #@! TO.C,C415*
X156589000Y-79267267D02*
X156589000Y-78974733D01*
X157609000Y-79267267D02*
X157609000Y-78974733D01*
G04 #@! TO.C,C408*
X144524000Y-90443267D02*
X144524000Y-90150733D01*
X145544000Y-90443267D02*
X145544000Y-90150733D01*
G04 #@! TO.C,C420*
X150260267Y-74166000D02*
X149967733Y-74166000D01*
X150260267Y-75186000D02*
X149967733Y-75186000D01*
G04 #@! TO.C,C406*
X144524000Y-77997267D02*
X144524000Y-77704733D01*
X145544000Y-77997267D02*
X145544000Y-77704733D01*
G04 #@! TO.C,C307*
X169416000Y-82950267D02*
X169416000Y-82657733D01*
X170436000Y-82950267D02*
X170436000Y-82657733D01*
G04 #@! TO.C,C418*
X146175000Y-90443267D02*
X146175000Y-90150733D01*
X147195000Y-90443267D02*
X147195000Y-90150733D01*
G04 #@! TO.C,C405*
X157224000Y-66909733D02*
X157224000Y-67202267D01*
X158244000Y-66909733D02*
X158244000Y-67202267D01*
G04 #@! TO.C,C304*
X171067000Y-68814733D02*
X171067000Y-69107267D01*
X172087000Y-68814733D02*
X172087000Y-69107267D01*
G04 #@! TO.C,R202*
X177799276Y-90028500D02*
X178308724Y-90028500D01*
X177799276Y-91073500D02*
X178308724Y-91073500D01*
G04 #@! TO.C,R401*
X163688500Y-69469724D02*
X163688500Y-68960276D01*
X164733500Y-69469724D02*
X164733500Y-68960276D01*
G04 #@! TO.C,C407*
X155700000Y-66909733D02*
X155700000Y-67202267D01*
X156720000Y-66909733D02*
X156720000Y-67202267D01*
G04 #@! TO.C,R403*
X160005500Y-80517276D02*
X160005500Y-81026724D01*
X161050500Y-80517276D02*
X161050500Y-81026724D01*
G04 #@! TO.C,U404*
X151535000Y-81448000D02*
X153035000Y-81448000D01*
X151535000Y-84668000D02*
X153035000Y-84668000D01*
X154535000Y-81448000D02*
X153035000Y-81448000D01*
X154535000Y-84668000D02*
X153035000Y-84668000D01*
X151062500Y-84823000D02*
X150582500Y-84823000D01*
X150822500Y-84493000D01*
X151062500Y-84823000D01*
G36*
X151062500Y-84823000D02*
G01*
X150582500Y-84823000D01*
X150822500Y-84493000D01*
X151062500Y-84823000D01*
G37*
G04 #@! TO.C,R513*
X140335724Y-79995500D02*
X139826276Y-79995500D01*
X140335724Y-81040500D02*
X139826276Y-81040500D01*
G04 #@! TO.C,C511*
X129686267Y-85215000D02*
X129393733Y-85215000D01*
X129686267Y-86235000D02*
X129393733Y-86235000D01*
G04 #@! TO.C,C502*
X133965733Y-76706000D02*
X134258267Y-76706000D01*
X133965733Y-77726000D02*
X134258267Y-77726000D01*
G04 #@! TO.C,C412*
X152525000Y-70504267D02*
X152525000Y-70211733D01*
X153545000Y-70504267D02*
X153545000Y-70211733D01*
G04 #@! TO.C,C312*
X176764733Y-76960000D02*
X177057267Y-76960000D01*
X176764733Y-77980000D02*
X177057267Y-77980000D01*
G04 #@! TO.C,C410*
X160039267Y-89787000D02*
X159746733Y-89787000D01*
X160039267Y-90807000D02*
X159746733Y-90807000D01*
G04 #@! TO.C,C507*
X138029733Y-75436000D02*
X138322267Y-75436000D01*
X138029733Y-76456000D02*
X138322267Y-76456000D01*
G04 #@! TO.C,C419*
X156317733Y-89787000D02*
X156610267Y-89787000D01*
X156317733Y-90807000D02*
X156610267Y-90807000D01*
G04 #@! TO.C,C311*
X181735000Y-69576733D02*
X181735000Y-69869267D01*
X182755000Y-69576733D02*
X182755000Y-69869267D01*
G04 #@! TO.C,C309*
X171702000Y-78759267D02*
X171702000Y-78466733D01*
X172722000Y-78759267D02*
X172722000Y-78466733D01*
G04 #@! TO.C,C414*
X154303000Y-97301267D02*
X154303000Y-97008733D01*
X155323000Y-97301267D02*
X155323000Y-97008733D01*
G04 #@! TO.C,C306*
X164699733Y-72134000D02*
X164992267Y-72134000D01*
X164699733Y-73154000D02*
X164992267Y-73154000D01*
G04 #@! TO.C,C413*
X157245267Y-74420000D02*
X156952733Y-74420000D01*
X157245267Y-75440000D02*
X156952733Y-75440000D01*
G04 #@! TO.C,FB401*
X145766758Y-73608000D02*
X146587242Y-73608000D01*
X145766758Y-74728000D02*
X146587242Y-74728000D01*
G04 #@! TO.C,R515*
X139826276Y-76947500D02*
X140335724Y-76947500D01*
X139826276Y-77992500D02*
X140335724Y-77992500D01*
G04 #@! TO.C,C402*
X161923000Y-66909733D02*
X161923000Y-67202267D01*
X162943000Y-66909733D02*
X162943000Y-67202267D01*
G04 #@! TO.C,C301*
X167003000Y-68814733D02*
X167003000Y-69107267D01*
X168023000Y-68814733D02*
X168023000Y-69107267D01*
G04 #@! TO.C,R503*
X129285276Y-78217500D02*
X129794724Y-78217500D01*
X129285276Y-79262500D02*
X129794724Y-79262500D01*
G04 #@! TO.C,C416*
X148461000Y-79267267D02*
X148461000Y-78974733D01*
X149481000Y-79267267D02*
X149481000Y-78974733D01*
G04 #@! TO.C,R312*
X171689500Y-73152724D02*
X171689500Y-72643276D01*
X172734500Y-73152724D02*
X172734500Y-72643276D01*
G04 #@! TO.C,RN301*
X165246000Y-74353000D02*
X164446000Y-74353000D01*
X165246000Y-77793000D02*
X164446000Y-77793000D01*
G04 #@! TO.C,C404*
X160399000Y-66909733D02*
X160399000Y-67202267D01*
X161419000Y-66909733D02*
X161419000Y-67202267D01*
G04 #@! TO.C,R504*
X129794724Y-76439500D02*
X129285276Y-76439500D01*
X129794724Y-77484500D02*
X129285276Y-77484500D01*
G04 #@! TO.C,R510*
X133857276Y-91044500D02*
X134366724Y-91044500D01*
X133857276Y-92089500D02*
X134366724Y-92089500D01*
G04 #@! TO.C,R318*
X176388500Y-69468276D02*
X176388500Y-69977724D01*
X177433500Y-69468276D02*
X177433500Y-69977724D01*
G04 #@! TO.C,R301*
X165100724Y-78344500D02*
X164591276Y-78344500D01*
X165100724Y-79389500D02*
X164591276Y-79389500D01*
G04 #@! TO.C,C509*
X129686267Y-82040000D02*
X129393733Y-82040000D01*
X129686267Y-83060000D02*
X129393733Y-83060000D01*
G04 #@! TO.C,R512*
X139826276Y-86980500D02*
X140335724Y-86980500D01*
X139826276Y-88025500D02*
X140335724Y-88025500D01*
G04 #@! TO.C,R402*
X151877500Y-96900276D02*
X151877500Y-97409724D01*
X152922500Y-96900276D02*
X152922500Y-97409724D01*
G04 #@! TO.C,C310*
X170940000Y-82950267D02*
X170940000Y-82657733D01*
X171960000Y-82950267D02*
X171960000Y-82657733D01*
G04 #@! TO.C,C421*
X153181267Y-85215000D02*
X152888733Y-85215000D01*
X153181267Y-86235000D02*
X152888733Y-86235000D01*
G04 #@! TO.C,R509*
X133857276Y-86345500D02*
X134366724Y-86345500D01*
X133857276Y-87390500D02*
X134366724Y-87390500D01*
G04 #@! TO.C,C302*
X166749000Y-72751733D02*
X166749000Y-73044267D01*
X167769000Y-72751733D02*
X167769000Y-73044267D01*
G04 #@! TO.C,F201*
X187774000Y-97017252D02*
X187774000Y-94244748D01*
X191194000Y-97017252D02*
X191194000Y-94244748D01*
G04 #@! TD*
M02*
