M48
; DRILL file {KiCad 8.0.1} date 2024-03-27T20:13:23+0100
; FORMAT={-:-/ absolute / inch / decimal}
; #@! TF.CreationDate,2024-03-27T20:13:23+01:00
; #@! TF.GenerationSoftware,Kicad,Pcbnew,8.0.1
; #@! TF.FileFunction,Plated,1,4,PTH
FMAT,2
INCH
; #@! TA.AperFunction,Plated,PTH,ViaDrill
T1C0.0079
; #@! TA.AperFunction,Plated,PTH,ComponentDrill
T2C0.0079
; #@! TA.AperFunction,Plated,PTH,ViaDrill
T3C0.0197
; #@! TA.AperFunction,Plated,PTH,ComponentDrill
T4C0.0256
; #@! TA.AperFunction,Plated,PTH,ComponentDrill
T5C0.0354
; #@! TA.AperFunction,Plated,PTH,ComponentDrill
T6C0.0394
; #@! TA.AperFunction,Plated,PTH,ComponentDrill
T7C0.0402
; #@! TA.AperFunction,Plated,PTH,ComponentDrill
T8C0.0512
; #@! TA.AperFunction,Plated,PTH,ComponentDrill
T9C0.0551
; #@! TA.AperFunction,Plated,PTH,ComponentDrill
T10C0.0630
; #@! TA.AperFunction,Plated,PTH,ComponentDrill
T11C0.1252
; #@! TA.AperFunction,Plated,PTH,ComponentDrill
T12C0.1260
%
G90
G05
T1
X5.018Y-3.123
X5.022Y-3.273
X5.023Y-3.073
X5.023Y-3.173
X5.023Y-3.323
X5.023Y-3.423
X5.04Y-3.51
X5.045Y-3.373
X5.16Y-3.12
X5.18Y-3.705
X5.21Y-3.375
X5.22Y-3.705
X5.26Y-3.705
X5.26Y-3.885
X5.2626Y-3.5226
X5.265Y-2.995
X5.2676Y-3.3376
X5.3Y-3.705
X5.3Y-3.885
X5.314Y-3.079
X5.315Y-3.19
X5.34Y-3.705
X5.34Y-3.885
X5.345Y-3.375
X5.35Y-3.56
X5.4086Y-3.224
X5.4275Y-3.62
X5.4766Y-3.185
X5.4795Y-3.8205
X5.49Y-2.95
X5.49Y-3.305
X5.5Y-3.05
X5.5Y-3.52
X5.515Y-3.18
X5.5278Y-2.95
X5.54Y-3.345
X5.548Y-2.87
X5.5509Y-3.0809
X5.5775Y-3.345
X5.579Y-3.176
X5.6Y-3.55
X5.71Y-3.505
X5.755Y-3.1909
X5.76Y-3.04
X5.76Y-3.4075
X5.76Y-3.47
X5.762Y-3.224
X5.77Y-3.11
X5.77Y-3.15
X5.79Y-3.185
X5.8Y-3.03
X5.805Y-3.43
X5.815Y-3.13
X5.842Y-2.894
X5.845Y-3.03
X5.87Y-2.82
X5.88Y-3.01
X5.93Y-3.03
X5.965Y-2.56
X5.995Y-3.115
X5.9972Y-2.674
X6.0Y-3.835
X6.025Y-2.56
X6.025Y-2.715
X6.025Y-3.285
X6.0544Y-2.9944
X6.055Y-3.115
X6.07Y-2.73
X6.075Y-2.7
X6.09Y-2.6466
X6.09Y-3.375
X6.0912Y-2.9962
X6.14Y-3.4027
X6.15Y-2.56
X6.1528Y-2.99
X6.165Y-3.42
X6.18Y-3.205
X6.19Y-2.725
X6.19Y-3.44
X6.2Y-3.495
X6.21Y-2.56
X6.23Y-3.61
X6.2315Y-3.475
X6.235Y-3.02
X6.2376Y-2.7124
X6.24Y-3.205
X6.2562Y-2.905
X6.26Y-3.515
X6.27Y-3.0073
X6.2709Y-3.1909
X6.275Y-2.745
X6.275Y-3.1319
X6.29Y-2.875
X6.3124Y-2.715
X6.335Y-2.56
X6.39Y-2.9793
X6.395Y-2.56
X6.4156Y-3.0506
X6.424Y-2.9478
X6.424Y-3.01
X6.445Y-3.785
X6.445Y-3.825
X6.445Y-3.865
X6.4544Y-3.0715
X6.465Y-2.66
X6.465Y-2.81
X6.485Y-3.785
X6.485Y-3.825
X6.485Y-3.865
X6.495Y-3.0096
X6.5022Y-2.9478
X6.5031Y-3.0442
X6.505Y-3.515
X6.505Y-3.545
X6.505Y-3.575
X6.545Y-2.98
X6.545Y-3.36
X6.55Y-2.86
X6.57Y-2.97
X6.5727Y-3.0442
X6.585Y-3.36
X6.59Y-3.005
X6.595Y-2.7725
X6.6237Y-3.0713
X6.625Y-3.36
X6.645Y-3.65
X6.645Y-3.68
X6.645Y-3.71
X6.67Y-3.125
X6.675Y-3.65
X6.675Y-3.68
X6.675Y-3.71
X6.6852Y-3.1
X6.69Y-3.19
X6.72Y-3.19
X6.7245Y-3.1005
X6.725Y-3.36
X6.73Y-3.13
X6.74Y-2.855
X6.745Y-2.885
X6.75Y-3.19
X6.755Y-2.7775
X6.765Y-3.36
X6.77Y-2.93
X6.775Y-3.72
X6.78Y-3.085
X6.7876Y-3.7574
X6.805Y-3.36
X6.82Y-3.18
X6.825Y-3.865
X6.835Y-2.9999
X6.835Y-3.0294
X6.855Y-3.72
X7.07Y-3.715
X7.1676Y-3.8524
X7.245Y-3.675
X7.275Y-3.675
X7.3076Y-3.675
X7.4Y-3.905
X7.44Y-3.905
X7.48Y-3.905
X7.52Y-3.905
T2
X6.6556Y-2.9556
X6.6556Y-2.995
X6.6556Y-3.0344
X6.695Y-2.9556
X6.695Y-2.995
X6.695Y-3.0344
X6.7344Y-2.9556
X6.7344Y-2.995
X6.7344Y-3.0344
T3
X4.3Y-2.9
X4.3Y-3.6
X4.4Y-2.9
X4.4Y-3.0
X4.4Y-3.1
X4.4Y-3.4
X4.4Y-3.5
X4.4Y-3.6
X4.5Y-2.9
X4.5Y-3.0
X4.5Y-3.5
X4.5Y-3.6
X4.6Y-2.9
X4.6Y-3.0
X4.6Y-3.5
X4.6Y-3.6
T4
X5.7246Y-3.7996
X5.7246Y-3.8496
X5.7746Y-3.7996
X5.7746Y-3.8496
X5.8246Y-3.7996
X5.8246Y-3.8496
X5.8746Y-3.7996
X5.8746Y-3.8496
X5.9246Y-3.7996
X5.9246Y-3.8496
T5
X7.075Y-2.82
X7.075Y-2.92
X7.075Y-3.02
X7.075Y-3.12
X7.175Y-2.87
X7.175Y-2.97
X7.175Y-3.07
X7.175Y-3.17
T6
X7.0454Y-3.4613
X7.1454Y-3.4613
X7.2454Y-3.4613
T7
X6.8848Y-2.7798
X6.8848Y-2.8798
X6.8848Y-3.1102
X6.8848Y-3.2102
T8
X7.672Y-3.4766
X7.672Y-3.6734
T9
X4.2744Y-3.0606
X4.2744Y-3.4354
T10
X7.3049Y-2.684
X7.3049Y-3.306
T11
X5.7662Y-2.7319
X6.2638Y-3.7681
T12
X4.0748Y-2.5
X4.0748Y-3.9961
X7.7362Y-2.5
X7.7362Y-3.9961
M30
