%TF.GenerationSoftware,KiCad,Pcbnew,8.0.2*%
%TF.CreationDate,2024-07-12T07:55:06+02:00*%
%TF.ProjectId,ETH1HMSR-SMS,45544831-484d-4535-922d-534d532e6b69,rev?*%
%TF.SameCoordinates,Original*%
%TF.FileFunction,Drillmap*%
%TF.FilePolarity,Positive*%
%FSLAX45Y45*%
G04 Gerber Fmt 4.5, Leading zero omitted, Abs format (unit mm)*
G04 Created by KiCad (PCBNEW 8.0.2) date 2024-07-12 07:55:06*
%MOMM*%
%LPD*%
G01*
G04 APERTURE LIST*
%ADD10C,0.100000*%
%ADD11C,0.200000*%
%ADD12C,0.102000*%
%ADD13C,0.130000*%
%ADD14C,0.140000*%
%ADD15C,0.160000*%
%ADD16C,0.318000*%
%ADD17C,0.320000*%
G04 APERTURE END LIST*
D10*
X12300000Y-9248400D02*
X12300000Y-7248900D01*
X11950000Y-7248900D02*
X11950000Y-9248400D01*
X10000000Y-6000000D02*
X20000000Y-6000000D01*
X20000000Y-10500000D01*
X10000000Y-10500000D01*
X10000000Y-6000000D01*
X11950000Y-7248900D02*
G75*
G02*
X12300000Y-7248900I175000J0D01*
G01*
X12300000Y-9248400D02*
G75*
G02*
X11950000Y-9248400I-175000J0D01*
G01*
D11*
D10*
X12735800Y-7922500D02*
X12755800Y-7942500D01*
X12755800Y-7922500D02*
X12735800Y-7942500D01*
X12791600Y-8049500D02*
X12811600Y-8069500D01*
X12811600Y-8049500D02*
X12791600Y-8069500D01*
X12791600Y-8684500D02*
X12811600Y-8704500D01*
X12811600Y-8684500D02*
X12791600Y-8704500D01*
X12791600Y-8905400D02*
X12811600Y-8925400D01*
X12811600Y-8905400D02*
X12791600Y-8925400D01*
X12804300Y-8303500D02*
X12824300Y-8323500D01*
X12824300Y-8303500D02*
X12804300Y-8323500D01*
X12804300Y-8430500D02*
X12824300Y-8450500D01*
X12824300Y-8430500D02*
X12804300Y-8450500D01*
X12804300Y-8557500D02*
X12824300Y-8577500D01*
X12824300Y-8557500D02*
X12804300Y-8577500D01*
X12850100Y-7795500D02*
X12870100Y-7815500D01*
X12870100Y-7795500D02*
X12850100Y-7815500D01*
X13096400Y-7914800D02*
X13116400Y-7934800D01*
X13116400Y-7914800D02*
X13096400Y-7934800D01*
X13177680Y-8351680D02*
X13197680Y-8371680D01*
X13197680Y-8351680D02*
X13177680Y-8371680D01*
X13198000Y-8467500D02*
X13218000Y-8487500D01*
X13218000Y-8467500D02*
X13198000Y-8487500D01*
X13223400Y-8562500D02*
X13243400Y-8582500D01*
X13243400Y-8562500D02*
X13223400Y-8582500D01*
X13236100Y-7864000D02*
X13256100Y-7884000D01*
X13256100Y-7864000D02*
X13236100Y-7884000D01*
X13248800Y-9032400D02*
X13268800Y-9052400D01*
X13268800Y-9032400D02*
X13248800Y-9052400D01*
X13350400Y-9400700D02*
X13370400Y-9420700D01*
X13370400Y-9400700D02*
X13350400Y-9420700D01*
X13350400Y-9857900D02*
X13370400Y-9877900D01*
X13370400Y-9857900D02*
X13350400Y-9877900D01*
X13357000Y-8937400D02*
X13377000Y-8957400D01*
X13377000Y-8937400D02*
X13357000Y-8957400D01*
X13363100Y-7597300D02*
X13383100Y-7617300D01*
X13383100Y-7597300D02*
X13363100Y-7617300D01*
X13452000Y-9400700D02*
X13472000Y-9420700D01*
X13472000Y-9400700D02*
X13452000Y-9420700D01*
X13452000Y-9857900D02*
X13472000Y-9877900D01*
X13472000Y-9857900D02*
X13452000Y-9877900D01*
X13487450Y-7810550D02*
X13507450Y-7830550D01*
X13507450Y-7810550D02*
X13487450Y-7830550D01*
X13490100Y-8092600D02*
X13510100Y-8112600D01*
X13510100Y-8092600D02*
X13490100Y-8112600D01*
X13553600Y-9400700D02*
X13573600Y-9420700D01*
X13573600Y-9400700D02*
X13553600Y-9420700D01*
X13553600Y-9857900D02*
X13573600Y-9877900D01*
X13573600Y-9857900D02*
X13553600Y-9877900D01*
X13566300Y-8562500D02*
X13586300Y-8582500D01*
X13586300Y-8562500D02*
X13566300Y-8582500D01*
X13579000Y-9032400D02*
X13599000Y-9052400D01*
X13599000Y-9032400D02*
X13579000Y-9052400D01*
X13706000Y-8178960D02*
X13726000Y-8198960D01*
X13726000Y-8178960D02*
X13706000Y-8198960D01*
X13756800Y-7800500D02*
X13776800Y-7820500D01*
X13776800Y-7800500D02*
X13756800Y-7820500D01*
X13764420Y-9040020D02*
X13784420Y-9060020D01*
X13784420Y-9040020D02*
X13764420Y-9060020D01*
X13794900Y-8728550D02*
X13814900Y-8748550D01*
X13814900Y-8728550D02*
X13794900Y-8748550D01*
X13881450Y-8384700D02*
X13901450Y-8404700D01*
X13901450Y-8384700D02*
X13881450Y-8404700D01*
X13887900Y-8084000D02*
X13907900Y-8104000D01*
X13907900Y-8084000D02*
X13887900Y-8104000D01*
X13896500Y-7470300D02*
X13916500Y-7490300D01*
X13916500Y-7470300D02*
X13896500Y-7490300D01*
X13908000Y-9694000D02*
X13928000Y-9714000D01*
X13928000Y-9694000D02*
X13908000Y-9714000D01*
X13953650Y-9019700D02*
X13973650Y-9039700D01*
X13973650Y-9019700D02*
X13953650Y-9039700D01*
X13972700Y-8740300D02*
X13992700Y-8760300D01*
X13992700Y-8740300D02*
X13972700Y-8760300D01*
X13980320Y-7262020D02*
X14000320Y-7282020D01*
X14000320Y-7262020D02*
X13980320Y-7282020D01*
X13990594Y-8084735D02*
X14010594Y-8104735D01*
X14010594Y-8084735D02*
X13990594Y-8104735D01*
X14017150Y-8511700D02*
X14037150Y-8531700D01*
X14037150Y-8511700D02*
X14017150Y-8531700D01*
X14087000Y-7444900D02*
X14107000Y-7464900D01*
X14107000Y-7444900D02*
X14087000Y-7464900D01*
X14089350Y-7815550D02*
X14109350Y-7835550D01*
X14109350Y-7815550D02*
X14089350Y-7835550D01*
X14141900Y-8050400D02*
X14161900Y-8070400D01*
X14161900Y-8050400D02*
X14141900Y-8070400D01*
X14201300Y-8930800D02*
X14221300Y-8950800D01*
X14221300Y-8930800D02*
X14201300Y-8950800D01*
X14315600Y-7686200D02*
X14335600Y-7706200D01*
X14335600Y-7686200D02*
X14315600Y-7706200D01*
X14315600Y-8003700D02*
X14335600Y-8023700D01*
X14335600Y-8003700D02*
X14315600Y-8023700D01*
X14315600Y-8206900D02*
X14335600Y-8226900D01*
X14335600Y-8206900D02*
X14315600Y-8226900D01*
X14341000Y-8105300D02*
X14361000Y-8125300D01*
X14361000Y-8105300D02*
X14341000Y-8125300D01*
X14353700Y-8791100D02*
X14373700Y-8811100D01*
X14373700Y-8791100D02*
X14353700Y-8811100D01*
X14366400Y-7394100D02*
X14386400Y-7414100D01*
X14386400Y-7394100D02*
X14366400Y-7414100D01*
X14493400Y-8892700D02*
X14513400Y-8912700D01*
X14513400Y-8892700D02*
X14493400Y-8912700D01*
X14493400Y-9235600D02*
X14513400Y-9255600D01*
X14513400Y-9235600D02*
X14493400Y-9255600D01*
X14620400Y-8803800D02*
X14640400Y-8823800D01*
X14640400Y-8803800D02*
X14620400Y-8823800D01*
X14633100Y-7698900D02*
X14653100Y-7718900D01*
X14653100Y-7698900D02*
X14633100Y-7718900D01*
X14645800Y-7889400D02*
X14665800Y-7909400D01*
X14665800Y-7889400D02*
X14645800Y-7909400D01*
X14645800Y-7991000D02*
X14665800Y-8011000D01*
X14665800Y-7991000D02*
X14645800Y-8011000D01*
X14722000Y-7686200D02*
X14742000Y-7706200D01*
X14742000Y-7686200D02*
X14722000Y-7706200D01*
X14734700Y-8702200D02*
X14754700Y-8722200D01*
X14754700Y-8702200D02*
X14734700Y-8722200D01*
X14760100Y-7940200D02*
X14780100Y-7960200D01*
X14780100Y-7940200D02*
X14760100Y-7960200D01*
X14810900Y-7330600D02*
X14830900Y-7350600D01*
X14830900Y-7330600D02*
X14810900Y-7350600D01*
X14836300Y-7686200D02*
X14856300Y-7706200D01*
X14856300Y-7686200D02*
X14836300Y-7706200D01*
X14912500Y-7203600D02*
X14932500Y-7223600D01*
X14932500Y-7203600D02*
X14912500Y-7223600D01*
X14925200Y-7635400D02*
X14945200Y-7655400D01*
X14945200Y-7635400D02*
X14925200Y-7655400D01*
X15052200Y-7686200D02*
X15072200Y-7706200D01*
X15072200Y-7686200D02*
X15052200Y-7706200D01*
X15077600Y-8562500D02*
X15097600Y-8582500D01*
X15097600Y-8562500D02*
X15077600Y-8582500D01*
X15082250Y-8143400D02*
X15102250Y-8163400D01*
X15102250Y-8143400D02*
X15082250Y-8163400D01*
X15141100Y-6492400D02*
X15161100Y-6512400D01*
X15161100Y-6492400D02*
X15141100Y-6512400D01*
X15191900Y-7902100D02*
X15211900Y-7922100D01*
X15211900Y-7902100D02*
X15191900Y-7922100D01*
X15222900Y-6781850D02*
X15242900Y-6801850D01*
X15242900Y-6781850D02*
X15222900Y-6801850D01*
X15230000Y-9730900D02*
X15250000Y-9750900D01*
X15250000Y-9730900D02*
X15230000Y-9750900D01*
X15293500Y-6492400D02*
X15313500Y-6512400D01*
X15313500Y-6492400D02*
X15293500Y-6512400D01*
X15293500Y-6886100D02*
X15313500Y-6906100D01*
X15313500Y-6886100D02*
X15293500Y-6906100D01*
X15293500Y-8333900D02*
X15313500Y-8353900D01*
X15313500Y-8333900D02*
X15293500Y-8353900D01*
X15368100Y-7595700D02*
X15388100Y-7615700D01*
X15388100Y-7595700D02*
X15368100Y-7615700D01*
X15395100Y-7902100D02*
X15415100Y-7922100D01*
X15415100Y-7902100D02*
X15395100Y-7922100D01*
X15426100Y-6842400D02*
X15446100Y-6862400D01*
X15446100Y-6842400D02*
X15426100Y-6862400D01*
X15433200Y-6712400D02*
X15453200Y-6732400D01*
X15453200Y-6712400D02*
X15433200Y-6732400D01*
X15435550Y-6968300D02*
X15455550Y-6988300D01*
X15455550Y-6968300D02*
X15435550Y-6988300D01*
X15458600Y-8562500D02*
X15478600Y-8582500D01*
X15478600Y-8562500D02*
X15458600Y-8582500D01*
X15461659Y-7600359D02*
X15481659Y-7620359D01*
X15481659Y-7600359D02*
X15461659Y-7620359D01*
X15522100Y-8829200D02*
X15542100Y-8849200D01*
X15542100Y-8829200D02*
X15522100Y-8849200D01*
X15585600Y-8632750D02*
X15605600Y-8652750D01*
X15605600Y-8632750D02*
X15585600Y-8652750D01*
X15611000Y-6492400D02*
X15631000Y-6512400D01*
X15631000Y-6492400D02*
X15611000Y-6512400D01*
X15618100Y-7584600D02*
X15638100Y-7604600D01*
X15638100Y-7584600D02*
X15618100Y-7604600D01*
X15649100Y-8676800D02*
X15669100Y-8696800D01*
X15669100Y-8676800D02*
X15649100Y-8696800D01*
X15687200Y-8130700D02*
X15707200Y-8150700D01*
X15707200Y-8130700D02*
X15687200Y-8150700D01*
X15712600Y-8727600D02*
X15732600Y-8747600D01*
X15732600Y-8727600D02*
X15712600Y-8747600D01*
X15738000Y-6898800D02*
X15758000Y-6918800D01*
X15758000Y-6898800D02*
X15738000Y-6918800D01*
X15738000Y-8867300D02*
X15758000Y-8887300D01*
X15758000Y-8867300D02*
X15738000Y-8887300D01*
X15763400Y-6492400D02*
X15783400Y-6512400D01*
X15783400Y-6492400D02*
X15763400Y-6512400D01*
X15814200Y-9159400D02*
X15834200Y-9179400D01*
X15834200Y-9159400D02*
X15814200Y-9179400D01*
X15818100Y-8816500D02*
X15838100Y-8836500D01*
X15838100Y-8816500D02*
X15818100Y-8836500D01*
X15826900Y-7660800D02*
X15846900Y-7680800D01*
X15846900Y-7660800D02*
X15826900Y-7680800D01*
X15839600Y-8130700D02*
X15859600Y-8150700D01*
X15859600Y-8130700D02*
X15839600Y-8150700D01*
X15858900Y-6898800D02*
X15878900Y-6918800D01*
X15878900Y-6898800D02*
X15858900Y-6918800D01*
X15893050Y-8920750D02*
X15913050Y-8940750D01*
X15913050Y-8920750D02*
X15893050Y-8940750D01*
X15915800Y-7628650D02*
X15935800Y-7648650D01*
X15935800Y-7628650D02*
X15915800Y-7648650D01*
X15918200Y-8095000D02*
X15938200Y-8115000D01*
X15938200Y-8095000D02*
X15918200Y-8115000D01*
X15928500Y-7945000D02*
X15948500Y-7965000D01*
X15948500Y-7945000D02*
X15928500Y-7965000D01*
X15953900Y-6936900D02*
X15973900Y-6956900D01*
X15973900Y-6936900D02*
X15953900Y-6956900D01*
X15953900Y-7203600D02*
X15973900Y-7223600D01*
X15973900Y-7203600D02*
X15953900Y-7223600D01*
X16048900Y-6898800D02*
X16068900Y-6918800D01*
X16068900Y-6898800D02*
X16048900Y-6918800D01*
X16055500Y-7343300D02*
X16075500Y-7363300D01*
X16075500Y-7343300D02*
X16055500Y-7363300D01*
X16080900Y-6492400D02*
X16100900Y-6512400D01*
X16100900Y-6492400D02*
X16080900Y-6512400D01*
X16220600Y-7557300D02*
X16240600Y-7577300D01*
X16240600Y-7557300D02*
X16220600Y-7577300D01*
X16233300Y-6492400D02*
X16253300Y-6512400D01*
X16253300Y-6492400D02*
X16233300Y-6512400D01*
X16284100Y-7381400D02*
X16304100Y-7401400D01*
X16304100Y-7381400D02*
X16284100Y-7401400D01*
X16285650Y-7738550D02*
X16305650Y-7758550D01*
X16305650Y-7738550D02*
X16285650Y-7758550D01*
X16306900Y-7477300D02*
X16326900Y-7497300D01*
X16326900Y-7477300D02*
X16306900Y-7497300D01*
X16306900Y-7635400D02*
X16326900Y-7655400D01*
X16326900Y-7635400D02*
X16306900Y-7655400D01*
X16384289Y-7791500D02*
X16404289Y-7811500D01*
X16404289Y-7791500D02*
X16384289Y-7811500D01*
X16411100Y-6746400D02*
X16431100Y-6766400D01*
X16431100Y-6746400D02*
X16411100Y-6766400D01*
X16411100Y-7114700D02*
X16431100Y-7134700D01*
X16431100Y-7114700D02*
X16411100Y-7134700D01*
X16487239Y-7634263D02*
X16507239Y-7654263D01*
X16507239Y-7634263D02*
X16487239Y-7654263D01*
X16505700Y-7477300D02*
X16525700Y-7497300D01*
X16525700Y-7477300D02*
X16505700Y-7497300D01*
X16507850Y-7722300D02*
X16527850Y-7742300D01*
X16527850Y-7722300D02*
X16507850Y-7742300D01*
X16614300Y-7254400D02*
X16634300Y-7274400D01*
X16634300Y-7254400D02*
X16614300Y-7274400D01*
X16614300Y-7559200D02*
X16634300Y-7579200D01*
X16634300Y-7559200D02*
X16614300Y-7579200D01*
X16677800Y-7533800D02*
X16697800Y-7553800D01*
X16697800Y-7533800D02*
X16677800Y-7553800D01*
X16684550Y-7722300D02*
X16704550Y-7742300D01*
X16704550Y-7722300D02*
X16684550Y-7742300D01*
X16715900Y-9629300D02*
X16735900Y-9649300D01*
X16735900Y-9629300D02*
X16715900Y-9649300D01*
X16715900Y-9718200D02*
X16735900Y-9738200D01*
X16735900Y-9718200D02*
X16715900Y-9738200D01*
X16715900Y-9807100D02*
X16735900Y-9827100D01*
X16735900Y-9807100D02*
X16715900Y-9827100D01*
X16728600Y-7622700D02*
X16748600Y-7642700D01*
X16748600Y-7622700D02*
X16728600Y-7642700D01*
X16741300Y-6670200D02*
X16761300Y-6690200D01*
X16761300Y-6670200D02*
X16741300Y-6690200D01*
X16741300Y-7032100D02*
X16761300Y-7052100D01*
X16761300Y-7032100D02*
X16741300Y-7052100D01*
X16814250Y-7791050D02*
X16834250Y-7811050D01*
X16834250Y-7791050D02*
X16814250Y-7811050D01*
X16919100Y-8511700D02*
X16939100Y-8531700D01*
X16939100Y-8511700D02*
X16919100Y-8531700D01*
X16919100Y-8587900D02*
X16939100Y-8607900D01*
X16939100Y-8587900D02*
X16919100Y-8607900D01*
X16931800Y-7927500D02*
X16951800Y-7947500D01*
X16951800Y-7927500D02*
X16931800Y-7947500D01*
X16970300Y-7864000D02*
X16990300Y-7884000D01*
X16990300Y-7864000D02*
X16970300Y-7884000D01*
X16982600Y-8092600D02*
X17002600Y-8112600D01*
X17002600Y-8092600D02*
X16982600Y-8112600D01*
X17008000Y-8511700D02*
X17028000Y-8531700D01*
X17028000Y-8511700D02*
X17008000Y-8531700D01*
X17008000Y-8587900D02*
X17028000Y-8607900D01*
X17028000Y-8587900D02*
X17008000Y-8607900D01*
X17058800Y-7952900D02*
X17078800Y-7972900D01*
X17078800Y-7952900D02*
X17058800Y-7972900D01*
X17058800Y-8092600D02*
X17078800Y-8112600D01*
X17078800Y-8092600D02*
X17058800Y-8112600D01*
X17070300Y-7865200D02*
X17090300Y-7885200D01*
X17090300Y-7865200D02*
X17070300Y-7885200D01*
X17096900Y-8511700D02*
X17116900Y-8531700D01*
X17116900Y-8511700D02*
X17096900Y-8531700D01*
X17096900Y-8587900D02*
X17116900Y-8607900D01*
X17116900Y-8587900D02*
X17096900Y-8607900D01*
X17109600Y-7241700D02*
X17129600Y-7261700D01*
X17129600Y-7241700D02*
X17109600Y-7261700D01*
X17122300Y-7317900D02*
X17142300Y-7337900D01*
X17142300Y-7317900D02*
X17122300Y-7337900D01*
X17147700Y-6670200D02*
X17167700Y-6690200D01*
X17167700Y-6670200D02*
X17147700Y-6690200D01*
X17147700Y-7044800D02*
X17167700Y-7064800D01*
X17167700Y-7044800D02*
X17147700Y-7064800D01*
X17185800Y-7432200D02*
X17205800Y-7452200D01*
X17205800Y-7432200D02*
X17185800Y-7452200D01*
X17211200Y-7813200D02*
X17231200Y-7833200D01*
X17231200Y-7813200D02*
X17211200Y-7833200D01*
X17312800Y-8067200D02*
X17332800Y-8087200D01*
X17332800Y-8067200D02*
X17312800Y-8087200D01*
X17350900Y-7609800D02*
X17370900Y-7629800D01*
X17370900Y-7609800D02*
X17350900Y-7629800D01*
X17350900Y-7684800D02*
X17370900Y-7704800D01*
X17370900Y-7684800D02*
X17350900Y-7704800D01*
X17947800Y-9426100D02*
X17967800Y-9446100D01*
X17967800Y-9426100D02*
X17947800Y-9446100D01*
X18195700Y-9775100D02*
X18215700Y-9795100D01*
X18215700Y-9775100D02*
X18195700Y-9795100D01*
X18392300Y-9324500D02*
X18412300Y-9344500D01*
X18412300Y-9324500D02*
X18392300Y-9344500D01*
X18468500Y-9324500D02*
X18488500Y-9344500D01*
X18488500Y-9324500D02*
X18468500Y-9344500D01*
X18551300Y-9324500D02*
X18571300Y-9344500D01*
X18571300Y-9324500D02*
X18551300Y-9344500D01*
X18887600Y-9908700D02*
X18907600Y-9928700D01*
X18907600Y-9908700D02*
X18887600Y-9928700D01*
X18989200Y-9908700D02*
X19009200Y-9928700D01*
X19009200Y-9908700D02*
X18989200Y-9928700D01*
X19090800Y-9908700D02*
X19110800Y-9928700D01*
X19110800Y-9908700D02*
X19090800Y-9928700D01*
X16915300Y-7507300D02*
G75*
G02*
X16895300Y-7507300I-10000J0D01*
G01*
X16895300Y-7507300D02*
G75*
G02*
X16915300Y-7507300I10000J0D01*
G01*
X16915300Y-7607300D02*
G75*
G02*
X16895300Y-7607300I-10000J0D01*
G01*
X16895300Y-7607300D02*
G75*
G02*
X16915300Y-7607300I10000J0D01*
G01*
X16915300Y-7707300D02*
G75*
G02*
X16895300Y-7707300I-10000J0D01*
G01*
X16895300Y-7707300D02*
G75*
G02*
X16915300Y-7707300I10000J0D01*
G01*
X17015300Y-7507300D02*
G75*
G02*
X16995300Y-7507300I-10000J0D01*
G01*
X16995300Y-7507300D02*
G75*
G02*
X17015300Y-7507300I10000J0D01*
G01*
X17015300Y-7607300D02*
G75*
G02*
X16995300Y-7607300I-10000J0D01*
G01*
X16995300Y-7607300D02*
G75*
G02*
X17015300Y-7607300I10000J0D01*
G01*
X17015300Y-7707300D02*
G75*
G02*
X16995300Y-7707300I-10000J0D01*
G01*
X16995300Y-7707300D02*
G75*
G02*
X17015300Y-7707300I10000J0D01*
G01*
X17115300Y-7507300D02*
G75*
G02*
X17095300Y-7507300I-10000J0D01*
G01*
X17095300Y-7507300D02*
G75*
G02*
X17115300Y-7507300I10000J0D01*
G01*
X17115300Y-7607300D02*
G75*
G02*
X17095300Y-7607300I-10000J0D01*
G01*
X17095300Y-7607300D02*
G75*
G02*
X17115300Y-7607300I10000J0D01*
G01*
X17115300Y-7707300D02*
G75*
G02*
X17095300Y-7707300I-10000J0D01*
G01*
X17095300Y-7707300D02*
G75*
G02*
X17115300Y-7707300I10000J0D01*
G01*
X10922000Y-7341000D02*
X10922000Y-7391000D01*
X10897000Y-7366000D02*
X10947000Y-7366000D01*
X10922000Y-9119000D02*
X10922000Y-9169000D01*
X10897000Y-9144000D02*
X10947000Y-9144000D01*
X11176000Y-7341000D02*
X11176000Y-7391000D01*
X11151000Y-7366000D02*
X11201000Y-7366000D01*
X11176000Y-7595000D02*
X11176000Y-7645000D01*
X11151000Y-7620000D02*
X11201000Y-7620000D01*
X11176000Y-8865000D02*
X11176000Y-8915000D01*
X11151000Y-8890000D02*
X11201000Y-8890000D01*
X11176000Y-9119000D02*
X11176000Y-9169000D01*
X11151000Y-9144000D02*
X11201000Y-9144000D01*
X11430000Y-7341000D02*
X11430000Y-7391000D01*
X11405000Y-7366000D02*
X11455000Y-7366000D01*
X11430000Y-7595000D02*
X11430000Y-7645000D01*
X11405000Y-7620000D02*
X11455000Y-7620000D01*
X11430000Y-8865000D02*
X11430000Y-8915000D01*
X11405000Y-8890000D02*
X11455000Y-8890000D01*
X11430000Y-9119000D02*
X11430000Y-9169000D01*
X11405000Y-9144000D02*
X11455000Y-9144000D01*
X11684000Y-7341000D02*
X11684000Y-7391000D01*
X11659000Y-7366000D02*
X11709000Y-7366000D01*
X11684000Y-7595000D02*
X11684000Y-7645000D01*
X11659000Y-7620000D02*
X11709000Y-7620000D01*
X11684000Y-8865000D02*
X11684000Y-8915000D01*
X11659000Y-8890000D02*
X11709000Y-8890000D01*
X11684000Y-9119000D02*
X11684000Y-9169000D01*
X11659000Y-9144000D02*
X11709000Y-9144000D01*
X14563481Y-9673981D02*
X14563481Y-9628019D01*
X14517519Y-9628019D01*
X14517519Y-9673981D01*
X14563481Y-9673981D01*
X14563481Y-9800981D02*
X14563481Y-9755019D01*
X14517519Y-9755019D01*
X14517519Y-9800981D01*
X14563481Y-9800981D01*
X14690481Y-9673981D02*
X14690481Y-9628019D01*
X14644519Y-9628019D01*
X14644519Y-9673981D01*
X14690481Y-9673981D01*
X14690481Y-9800981D02*
X14690481Y-9755019D01*
X14644519Y-9755019D01*
X14644519Y-9800981D01*
X14690481Y-9800981D01*
X14817481Y-9673981D02*
X14817481Y-9628019D01*
X14771519Y-9628019D01*
X14771519Y-9673981D01*
X14817481Y-9673981D01*
X14817481Y-9800981D02*
X14817481Y-9755019D01*
X14771519Y-9755019D01*
X14771519Y-9800981D01*
X14817481Y-9800981D01*
X14944481Y-9673981D02*
X14944481Y-9628019D01*
X14898519Y-9628019D01*
X14898519Y-9673981D01*
X14944481Y-9673981D01*
X14944481Y-9800981D02*
X14944481Y-9755019D01*
X14898519Y-9755019D01*
X14898519Y-9800981D01*
X14944481Y-9800981D01*
X15071481Y-9673981D02*
X15071481Y-9628019D01*
X15025519Y-9628019D01*
X15025519Y-9673981D01*
X15071481Y-9673981D01*
X15071481Y-9800981D02*
X15071481Y-9755019D01*
X15025519Y-9755019D01*
X15025519Y-9800981D01*
X15071481Y-9800981D01*
X17980000Y-7205000D02*
X18025000Y-7160000D01*
X17980000Y-7115000D01*
X17935000Y-7160000D01*
X17980000Y-7205000D01*
X17980000Y-7459000D02*
X18025000Y-7414000D01*
X17980000Y-7369000D01*
X17935000Y-7414000D01*
X17980000Y-7459000D01*
X17980000Y-7713000D02*
X18025000Y-7668000D01*
X17980000Y-7623000D01*
X17935000Y-7668000D01*
X17980000Y-7713000D01*
X17980000Y-7967000D02*
X18025000Y-7922000D01*
X17980000Y-7877000D01*
X17935000Y-7922000D01*
X17980000Y-7967000D01*
X18234000Y-7332000D02*
X18279000Y-7287000D01*
X18234000Y-7242000D01*
X18189000Y-7287000D01*
X18234000Y-7332000D01*
X18234000Y-7586000D02*
X18279000Y-7541000D01*
X18234000Y-7496000D01*
X18189000Y-7541000D01*
X18234000Y-7586000D01*
X18234000Y-7840000D02*
X18279000Y-7795000D01*
X18234000Y-7750000D01*
X18189000Y-7795000D01*
X18234000Y-7840000D01*
X18234000Y-8094000D02*
X18279000Y-8049000D01*
X18234000Y-8004000D01*
X18189000Y-8049000D01*
X18234000Y-8094000D01*
X17845250Y-8741750D02*
X17945250Y-8841750D01*
X17945250Y-8741750D02*
X17845250Y-8841750D01*
X17945250Y-8791750D02*
G75*
G02*
X17845250Y-8791750I-50000J0D01*
G01*
X17845250Y-8791750D02*
G75*
G02*
X17945250Y-8791750I50000J0D01*
G01*
X18099250Y-8741750D02*
X18199250Y-8841750D01*
X18199250Y-8741750D02*
X18099250Y-8841750D01*
X18199250Y-8791750D02*
G75*
G02*
X18099250Y-8791750I-50000J0D01*
G01*
X18099250Y-8791750D02*
G75*
G02*
X18199250Y-8791750I50000J0D01*
G01*
X18353250Y-8741750D02*
X18453250Y-8841750D01*
X18453250Y-8741750D02*
X18353250Y-8841750D01*
X18453250Y-8791750D02*
G75*
G02*
X18353250Y-8791750I-50000J0D01*
G01*
X18353250Y-8791750D02*
G75*
G02*
X18453250Y-8791750I50000J0D01*
G01*
D12*
X17446000Y-7007000D02*
X17548000Y-7109000D01*
X17548000Y-7007000D02*
X17446000Y-7109000D01*
X17497000Y-7007000D02*
X17497000Y-7109000D01*
X17446000Y-7058000D02*
X17548000Y-7058000D01*
X17446000Y-7261000D02*
X17548000Y-7363000D01*
X17548000Y-7261000D02*
X17446000Y-7363000D01*
X17497000Y-7261000D02*
X17497000Y-7363000D01*
X17446000Y-7312000D02*
X17548000Y-7312000D01*
X17446000Y-7846000D02*
X17548000Y-7948000D01*
X17548000Y-7846000D02*
X17446000Y-7948000D01*
X17497000Y-7846000D02*
X17497000Y-7948000D01*
X17446000Y-7897000D02*
X17548000Y-7897000D01*
X17446000Y-8100000D02*
X17548000Y-8202000D01*
X17548000Y-8100000D02*
X17446000Y-8202000D01*
X17497000Y-8100000D02*
X17497000Y-8202000D01*
X17446000Y-8151000D02*
X17548000Y-8151000D01*
D13*
X19415000Y-8765000D02*
X19545000Y-8895000D01*
X19545000Y-8765000D02*
X19415000Y-8895000D01*
X19525962Y-8875962D02*
X19525962Y-8784038D01*
X19434038Y-8784038D01*
X19434038Y-8875962D01*
X19525962Y-8875962D01*
X19415000Y-9265000D02*
X19545000Y-9395000D01*
X19545000Y-9265000D02*
X19415000Y-9395000D01*
X19525962Y-9375962D02*
X19525962Y-9284038D01*
X19434038Y-9284038D01*
X19434038Y-9375962D01*
X19525962Y-9375962D01*
D14*
X10787000Y-7704000D02*
X10927000Y-7844000D01*
X10927000Y-7704000D02*
X10787000Y-7844000D01*
X10857000Y-7844000D02*
X10927000Y-7774000D01*
X10857000Y-7704000D01*
X10787000Y-7774000D01*
X10857000Y-7844000D01*
X10787000Y-8656000D02*
X10927000Y-8796000D01*
X10927000Y-8656000D02*
X10787000Y-8796000D01*
X10857000Y-8796000D02*
X10927000Y-8726000D01*
X10857000Y-8656000D01*
X10787000Y-8726000D01*
X10857000Y-8796000D01*
D15*
X18564000Y-6734500D02*
X18564000Y-6894500D01*
X18484000Y-6814500D02*
X18644000Y-6814500D01*
X18644000Y-6814500D02*
G75*
G02*
X18484000Y-6814500I-80000J0D01*
G01*
X18484000Y-6814500D02*
G75*
G02*
X18644000Y-6814500I80000J0D01*
G01*
X18564000Y-8314500D02*
X18564000Y-8474500D01*
X18484000Y-8394500D02*
X18644000Y-8394500D01*
X18644000Y-8394500D02*
G75*
G02*
X18484000Y-8394500I-80000J0D01*
G01*
X18484000Y-8394500D02*
G75*
G02*
X18644000Y-8394500I80000J0D01*
G01*
D16*
X14758531Y-7051431D02*
X14758531Y-6826569D01*
X14533669Y-6826569D01*
X14533669Y-7051431D01*
X14758531Y-7051431D01*
X14805100Y-6939000D02*
G75*
G02*
X14487100Y-6939000I-159000J0D01*
G01*
X14487100Y-6939000D02*
G75*
G02*
X14805100Y-6939000I159000J0D01*
G01*
X16022531Y-9683431D02*
X16022531Y-9458569D01*
X15797669Y-9458569D01*
X15797669Y-9683431D01*
X16022531Y-9683431D01*
X16069100Y-9571000D02*
G75*
G02*
X15751100Y-9571000I-159000J0D01*
G01*
X15751100Y-9571000D02*
G75*
G02*
X16069100Y-9571000I159000J0D01*
G01*
D17*
X19650000Y-6510000D02*
X19810000Y-6350000D01*
X19650000Y-6190000D01*
X19490000Y-6350000D01*
X19650000Y-6510000D01*
X19810000Y-6350000D02*
G75*
G02*
X19490000Y-6350000I-160000J0D01*
G01*
X19490000Y-6350000D02*
G75*
G02*
X19810000Y-6350000I160000J0D01*
G01*
X19650000Y-10310000D02*
X19810000Y-10150000D01*
X19650000Y-9990000D01*
X19490000Y-10150000D01*
X19650000Y-10310000D01*
X19810000Y-10150000D02*
G75*
G02*
X19490000Y-10150000I-160000J0D01*
G01*
X19490000Y-10150000D02*
G75*
G02*
X19810000Y-10150000I160000J0D01*
G01*
D11*
X10255777Y-10816484D02*
X10255777Y-10616484D01*
X10255777Y-10616484D02*
X10303396Y-10616484D01*
X10303396Y-10616484D02*
X10331967Y-10626008D01*
X10331967Y-10626008D02*
X10351015Y-10645055D01*
X10351015Y-10645055D02*
X10360539Y-10664103D01*
X10360539Y-10664103D02*
X10370063Y-10702198D01*
X10370063Y-10702198D02*
X10370063Y-10730770D01*
X10370063Y-10730770D02*
X10360539Y-10768865D01*
X10360539Y-10768865D02*
X10351015Y-10787912D01*
X10351015Y-10787912D02*
X10331967Y-10806960D01*
X10331967Y-10806960D02*
X10303396Y-10816484D01*
X10303396Y-10816484D02*
X10255777Y-10816484D01*
X10455777Y-10816484D02*
X10455777Y-10683150D01*
X10455777Y-10721246D02*
X10465301Y-10702198D01*
X10465301Y-10702198D02*
X10474824Y-10692674D01*
X10474824Y-10692674D02*
X10493872Y-10683150D01*
X10493872Y-10683150D02*
X10512920Y-10683150D01*
X10579586Y-10816484D02*
X10579586Y-10683150D01*
X10579586Y-10616484D02*
X10570063Y-10626008D01*
X10570063Y-10626008D02*
X10579586Y-10635531D01*
X10579586Y-10635531D02*
X10589110Y-10626008D01*
X10589110Y-10626008D02*
X10579586Y-10616484D01*
X10579586Y-10616484D02*
X10579586Y-10635531D01*
X10703396Y-10816484D02*
X10684348Y-10806960D01*
X10684348Y-10806960D02*
X10674824Y-10787912D01*
X10674824Y-10787912D02*
X10674824Y-10616484D01*
X10808158Y-10816484D02*
X10789110Y-10806960D01*
X10789110Y-10806960D02*
X10779586Y-10787912D01*
X10779586Y-10787912D02*
X10779586Y-10616484D01*
X11036729Y-10816484D02*
X11036729Y-10616484D01*
X11036729Y-10616484D02*
X11103396Y-10759341D01*
X11103396Y-10759341D02*
X11170063Y-10616484D01*
X11170063Y-10616484D02*
X11170063Y-10816484D01*
X11351015Y-10816484D02*
X11351015Y-10711722D01*
X11351015Y-10711722D02*
X11341491Y-10692674D01*
X11341491Y-10692674D02*
X11322443Y-10683150D01*
X11322443Y-10683150D02*
X11284348Y-10683150D01*
X11284348Y-10683150D02*
X11265301Y-10692674D01*
X11351015Y-10806960D02*
X11331967Y-10816484D01*
X11331967Y-10816484D02*
X11284348Y-10816484D01*
X11284348Y-10816484D02*
X11265301Y-10806960D01*
X11265301Y-10806960D02*
X11255777Y-10787912D01*
X11255777Y-10787912D02*
X11255777Y-10768865D01*
X11255777Y-10768865D02*
X11265301Y-10749817D01*
X11265301Y-10749817D02*
X11284348Y-10740293D01*
X11284348Y-10740293D02*
X11331967Y-10740293D01*
X11331967Y-10740293D02*
X11351015Y-10730770D01*
X11446253Y-10683150D02*
X11446253Y-10883150D01*
X11446253Y-10692674D02*
X11465301Y-10683150D01*
X11465301Y-10683150D02*
X11503396Y-10683150D01*
X11503396Y-10683150D02*
X11522443Y-10692674D01*
X11522443Y-10692674D02*
X11531967Y-10702198D01*
X11531967Y-10702198D02*
X11541491Y-10721246D01*
X11541491Y-10721246D02*
X11541491Y-10778389D01*
X11541491Y-10778389D02*
X11531967Y-10797436D01*
X11531967Y-10797436D02*
X11522443Y-10806960D01*
X11522443Y-10806960D02*
X11503396Y-10816484D01*
X11503396Y-10816484D02*
X11465301Y-10816484D01*
X11465301Y-10816484D02*
X11446253Y-10806960D01*
X11627205Y-10797436D02*
X11636729Y-10806960D01*
X11636729Y-10806960D02*
X11627205Y-10816484D01*
X11627205Y-10816484D02*
X11617682Y-10806960D01*
X11617682Y-10806960D02*
X11627205Y-10797436D01*
X11627205Y-10797436D02*
X11627205Y-10816484D01*
X11627205Y-10692674D02*
X11636729Y-10702198D01*
X11636729Y-10702198D02*
X11627205Y-10711722D01*
X11627205Y-10711722D02*
X11617682Y-10702198D01*
X11617682Y-10702198D02*
X11627205Y-10692674D01*
X11627205Y-10692674D02*
X11627205Y-10711722D01*
D10*
X9975000Y-11135000D02*
X9995000Y-11155000D01*
X9995000Y-11135000D02*
X9975000Y-11155000D01*
D11*
X10293872Y-11036484D02*
X10312920Y-11036484D01*
X10312920Y-11036484D02*
X10331967Y-11046008D01*
X10331967Y-11046008D02*
X10341491Y-11055531D01*
X10341491Y-11055531D02*
X10351015Y-11074579D01*
X10351015Y-11074579D02*
X10360539Y-11112674D01*
X10360539Y-11112674D02*
X10360539Y-11160293D01*
X10360539Y-11160293D02*
X10351015Y-11198388D01*
X10351015Y-11198388D02*
X10341491Y-11217436D01*
X10341491Y-11217436D02*
X10331967Y-11226960D01*
X10331967Y-11226960D02*
X10312920Y-11236484D01*
X10312920Y-11236484D02*
X10293872Y-11236484D01*
X10293872Y-11236484D02*
X10274824Y-11226960D01*
X10274824Y-11226960D02*
X10265301Y-11217436D01*
X10265301Y-11217436D02*
X10255777Y-11198388D01*
X10255777Y-11198388D02*
X10246253Y-11160293D01*
X10246253Y-11160293D02*
X10246253Y-11112674D01*
X10246253Y-11112674D02*
X10255777Y-11074579D01*
X10255777Y-11074579D02*
X10265301Y-11055531D01*
X10265301Y-11055531D02*
X10274824Y-11046008D01*
X10274824Y-11046008D02*
X10293872Y-11036484D01*
X10446253Y-11217436D02*
X10455777Y-11226960D01*
X10455777Y-11226960D02*
X10446253Y-11236484D01*
X10446253Y-11236484D02*
X10436729Y-11226960D01*
X10436729Y-11226960D02*
X10446253Y-11217436D01*
X10446253Y-11217436D02*
X10446253Y-11236484D01*
X10531967Y-11055531D02*
X10541491Y-11046008D01*
X10541491Y-11046008D02*
X10560539Y-11036484D01*
X10560539Y-11036484D02*
X10608158Y-11036484D01*
X10608158Y-11036484D02*
X10627205Y-11046008D01*
X10627205Y-11046008D02*
X10636729Y-11055531D01*
X10636729Y-11055531D02*
X10646253Y-11074579D01*
X10646253Y-11074579D02*
X10646253Y-11093627D01*
X10646253Y-11093627D02*
X10636729Y-11122198D01*
X10636729Y-11122198D02*
X10522444Y-11236484D01*
X10522444Y-11236484D02*
X10646253Y-11236484D01*
X10770063Y-11036484D02*
X10789110Y-11036484D01*
X10789110Y-11036484D02*
X10808158Y-11046008D01*
X10808158Y-11046008D02*
X10817682Y-11055531D01*
X10817682Y-11055531D02*
X10827205Y-11074579D01*
X10827205Y-11074579D02*
X10836729Y-11112674D01*
X10836729Y-11112674D02*
X10836729Y-11160293D01*
X10836729Y-11160293D02*
X10827205Y-11198388D01*
X10827205Y-11198388D02*
X10817682Y-11217436D01*
X10817682Y-11217436D02*
X10808158Y-11226960D01*
X10808158Y-11226960D02*
X10789110Y-11236484D01*
X10789110Y-11236484D02*
X10770063Y-11236484D01*
X10770063Y-11236484D02*
X10751015Y-11226960D01*
X10751015Y-11226960D02*
X10741491Y-11217436D01*
X10741491Y-11217436D02*
X10731967Y-11198388D01*
X10731967Y-11198388D02*
X10722444Y-11160293D01*
X10722444Y-11160293D02*
X10722444Y-11112674D01*
X10722444Y-11112674D02*
X10731967Y-11074579D01*
X10731967Y-11074579D02*
X10741491Y-11055531D01*
X10741491Y-11055531D02*
X10751015Y-11046008D01*
X10751015Y-11046008D02*
X10770063Y-11036484D01*
X10960539Y-11036484D02*
X10979586Y-11036484D01*
X10979586Y-11036484D02*
X10998634Y-11046008D01*
X10998634Y-11046008D02*
X11008158Y-11055531D01*
X11008158Y-11055531D02*
X11017682Y-11074579D01*
X11017682Y-11074579D02*
X11027205Y-11112674D01*
X11027205Y-11112674D02*
X11027205Y-11160293D01*
X11027205Y-11160293D02*
X11017682Y-11198388D01*
X11017682Y-11198388D02*
X11008158Y-11217436D01*
X11008158Y-11217436D02*
X10998634Y-11226960D01*
X10998634Y-11226960D02*
X10979586Y-11236484D01*
X10979586Y-11236484D02*
X10960539Y-11236484D01*
X10960539Y-11236484D02*
X10941491Y-11226960D01*
X10941491Y-11226960D02*
X10931967Y-11217436D01*
X10931967Y-11217436D02*
X10922444Y-11198388D01*
X10922444Y-11198388D02*
X10912920Y-11160293D01*
X10912920Y-11160293D02*
X10912920Y-11112674D01*
X10912920Y-11112674D02*
X10922444Y-11074579D01*
X10922444Y-11074579D02*
X10931967Y-11055531D01*
X10931967Y-11055531D02*
X10941491Y-11046008D01*
X10941491Y-11046008D02*
X10960539Y-11036484D01*
X11112920Y-11236484D02*
X11112920Y-11103150D01*
X11112920Y-11122198D02*
X11122444Y-11112674D01*
X11122444Y-11112674D02*
X11141491Y-11103150D01*
X11141491Y-11103150D02*
X11170063Y-11103150D01*
X11170063Y-11103150D02*
X11189110Y-11112674D01*
X11189110Y-11112674D02*
X11198634Y-11131722D01*
X11198634Y-11131722D02*
X11198634Y-11236484D01*
X11198634Y-11131722D02*
X11208158Y-11112674D01*
X11208158Y-11112674D02*
X11227205Y-11103150D01*
X11227205Y-11103150D02*
X11255777Y-11103150D01*
X11255777Y-11103150D02*
X11274824Y-11112674D01*
X11274824Y-11112674D02*
X11284348Y-11131722D01*
X11284348Y-11131722D02*
X11284348Y-11236484D01*
X11379586Y-11236484D02*
X11379586Y-11103150D01*
X11379586Y-11122198D02*
X11389110Y-11112674D01*
X11389110Y-11112674D02*
X11408158Y-11103150D01*
X11408158Y-11103150D02*
X11436729Y-11103150D01*
X11436729Y-11103150D02*
X11455777Y-11112674D01*
X11455777Y-11112674D02*
X11465301Y-11131722D01*
X11465301Y-11131722D02*
X11465301Y-11236484D01*
X11465301Y-11131722D02*
X11474824Y-11112674D01*
X11474824Y-11112674D02*
X11493872Y-11103150D01*
X11493872Y-11103150D02*
X11522443Y-11103150D01*
X11522443Y-11103150D02*
X11541491Y-11112674D01*
X11541491Y-11112674D02*
X11551015Y-11131722D01*
X11551015Y-11131722D02*
X11551015Y-11236484D01*
X11941491Y-11026960D02*
X11770063Y-11284103D01*
X12198634Y-11036484D02*
X12217682Y-11036484D01*
X12217682Y-11036484D02*
X12236729Y-11046008D01*
X12236729Y-11046008D02*
X12246253Y-11055531D01*
X12246253Y-11055531D02*
X12255777Y-11074579D01*
X12255777Y-11074579D02*
X12265301Y-11112674D01*
X12265301Y-11112674D02*
X12265301Y-11160293D01*
X12265301Y-11160293D02*
X12255777Y-11198388D01*
X12255777Y-11198388D02*
X12246253Y-11217436D01*
X12246253Y-11217436D02*
X12236729Y-11226960D01*
X12236729Y-11226960D02*
X12217682Y-11236484D01*
X12217682Y-11236484D02*
X12198634Y-11236484D01*
X12198634Y-11236484D02*
X12179586Y-11226960D01*
X12179586Y-11226960D02*
X12170063Y-11217436D01*
X12170063Y-11217436D02*
X12160539Y-11198388D01*
X12160539Y-11198388D02*
X12151015Y-11160293D01*
X12151015Y-11160293D02*
X12151015Y-11112674D01*
X12151015Y-11112674D02*
X12160539Y-11074579D01*
X12160539Y-11074579D02*
X12170063Y-11055531D01*
X12170063Y-11055531D02*
X12179586Y-11046008D01*
X12179586Y-11046008D02*
X12198634Y-11036484D01*
X12351015Y-11217436D02*
X12360539Y-11226960D01*
X12360539Y-11226960D02*
X12351015Y-11236484D01*
X12351015Y-11236484D02*
X12341491Y-11226960D01*
X12341491Y-11226960D02*
X12351015Y-11217436D01*
X12351015Y-11217436D02*
X12351015Y-11236484D01*
X12484348Y-11036484D02*
X12503396Y-11036484D01*
X12503396Y-11036484D02*
X12522444Y-11046008D01*
X12522444Y-11046008D02*
X12531967Y-11055531D01*
X12531967Y-11055531D02*
X12541491Y-11074579D01*
X12541491Y-11074579D02*
X12551015Y-11112674D01*
X12551015Y-11112674D02*
X12551015Y-11160293D01*
X12551015Y-11160293D02*
X12541491Y-11198388D01*
X12541491Y-11198388D02*
X12531967Y-11217436D01*
X12531967Y-11217436D02*
X12522444Y-11226960D01*
X12522444Y-11226960D02*
X12503396Y-11236484D01*
X12503396Y-11236484D02*
X12484348Y-11236484D01*
X12484348Y-11236484D02*
X12465301Y-11226960D01*
X12465301Y-11226960D02*
X12455777Y-11217436D01*
X12455777Y-11217436D02*
X12446253Y-11198388D01*
X12446253Y-11198388D02*
X12436729Y-11160293D01*
X12436729Y-11160293D02*
X12436729Y-11112674D01*
X12436729Y-11112674D02*
X12446253Y-11074579D01*
X12446253Y-11074579D02*
X12455777Y-11055531D01*
X12455777Y-11055531D02*
X12465301Y-11046008D01*
X12465301Y-11046008D02*
X12484348Y-11036484D01*
X12674825Y-11036484D02*
X12693872Y-11036484D01*
X12693872Y-11036484D02*
X12712920Y-11046008D01*
X12712920Y-11046008D02*
X12722444Y-11055531D01*
X12722444Y-11055531D02*
X12731967Y-11074579D01*
X12731967Y-11074579D02*
X12741491Y-11112674D01*
X12741491Y-11112674D02*
X12741491Y-11160293D01*
X12741491Y-11160293D02*
X12731967Y-11198388D01*
X12731967Y-11198388D02*
X12722444Y-11217436D01*
X12722444Y-11217436D02*
X12712920Y-11226960D01*
X12712920Y-11226960D02*
X12693872Y-11236484D01*
X12693872Y-11236484D02*
X12674825Y-11236484D01*
X12674825Y-11236484D02*
X12655777Y-11226960D01*
X12655777Y-11226960D02*
X12646253Y-11217436D01*
X12646253Y-11217436D02*
X12636729Y-11198388D01*
X12636729Y-11198388D02*
X12627206Y-11160293D01*
X12627206Y-11160293D02*
X12627206Y-11112674D01*
X12627206Y-11112674D02*
X12636729Y-11074579D01*
X12636729Y-11074579D02*
X12646253Y-11055531D01*
X12646253Y-11055531D02*
X12655777Y-11046008D01*
X12655777Y-11046008D02*
X12674825Y-11036484D01*
X12808158Y-11036484D02*
X12941491Y-11036484D01*
X12941491Y-11036484D02*
X12855777Y-11236484D01*
X13027206Y-11236484D02*
X13065301Y-11236484D01*
X13065301Y-11236484D02*
X13084348Y-11226960D01*
X13084348Y-11226960D02*
X13093872Y-11217436D01*
X13093872Y-11217436D02*
X13112920Y-11188865D01*
X13112920Y-11188865D02*
X13122444Y-11150770D01*
X13122444Y-11150770D02*
X13122444Y-11074579D01*
X13122444Y-11074579D02*
X13112920Y-11055531D01*
X13112920Y-11055531D02*
X13103396Y-11046008D01*
X13103396Y-11046008D02*
X13084348Y-11036484D01*
X13084348Y-11036484D02*
X13046253Y-11036484D01*
X13046253Y-11036484D02*
X13027206Y-11046008D01*
X13027206Y-11046008D02*
X13017682Y-11055531D01*
X13017682Y-11055531D02*
X13008158Y-11074579D01*
X13008158Y-11074579D02*
X13008158Y-11122198D01*
X13008158Y-11122198D02*
X13017682Y-11141246D01*
X13017682Y-11141246D02*
X13027206Y-11150770D01*
X13027206Y-11150770D02*
X13046253Y-11160293D01*
X13046253Y-11160293D02*
X13084348Y-11160293D01*
X13084348Y-11160293D02*
X13103396Y-11150770D01*
X13103396Y-11150770D02*
X13112920Y-11141246D01*
X13112920Y-11141246D02*
X13122444Y-11122198D01*
X13198634Y-11036484D02*
X13198634Y-11074579D01*
X13274825Y-11036484D02*
X13274825Y-11074579D01*
X13570063Y-11312674D02*
X13560539Y-11303150D01*
X13560539Y-11303150D02*
X13541491Y-11274579D01*
X13541491Y-11274579D02*
X13531968Y-11255531D01*
X13531968Y-11255531D02*
X13522444Y-11226960D01*
X13522444Y-11226960D02*
X13512920Y-11179341D01*
X13512920Y-11179341D02*
X13512920Y-11141246D01*
X13512920Y-11141246D02*
X13522444Y-11093627D01*
X13522444Y-11093627D02*
X13531968Y-11065055D01*
X13531968Y-11065055D02*
X13541491Y-11046008D01*
X13541491Y-11046008D02*
X13560539Y-11017436D01*
X13560539Y-11017436D02*
X13570063Y-11007912D01*
X13751015Y-11236484D02*
X13636729Y-11236484D01*
X13693872Y-11236484D02*
X13693872Y-11036484D01*
X13693872Y-11036484D02*
X13674825Y-11065055D01*
X13674825Y-11065055D02*
X13655777Y-11084103D01*
X13655777Y-11084103D02*
X13636729Y-11093627D01*
X13931968Y-11036484D02*
X13836729Y-11036484D01*
X13836729Y-11036484D02*
X13827206Y-11131722D01*
X13827206Y-11131722D02*
X13836729Y-11122198D01*
X13836729Y-11122198D02*
X13855777Y-11112674D01*
X13855777Y-11112674D02*
X13903396Y-11112674D01*
X13903396Y-11112674D02*
X13922444Y-11122198D01*
X13922444Y-11122198D02*
X13931968Y-11131722D01*
X13931968Y-11131722D02*
X13941491Y-11150770D01*
X13941491Y-11150770D02*
X13941491Y-11198388D01*
X13941491Y-11198388D02*
X13931968Y-11217436D01*
X13931968Y-11217436D02*
X13922444Y-11226960D01*
X13922444Y-11226960D02*
X13903396Y-11236484D01*
X13903396Y-11236484D02*
X13855777Y-11236484D01*
X13855777Y-11236484D02*
X13836729Y-11226960D01*
X13836729Y-11226960D02*
X13827206Y-11217436D01*
X14122444Y-11036484D02*
X14027206Y-11036484D01*
X14027206Y-11036484D02*
X14017682Y-11131722D01*
X14017682Y-11131722D02*
X14027206Y-11122198D01*
X14027206Y-11122198D02*
X14046253Y-11112674D01*
X14046253Y-11112674D02*
X14093872Y-11112674D01*
X14093872Y-11112674D02*
X14112920Y-11122198D01*
X14112920Y-11122198D02*
X14122444Y-11131722D01*
X14122444Y-11131722D02*
X14131968Y-11150770D01*
X14131968Y-11150770D02*
X14131968Y-11198388D01*
X14131968Y-11198388D02*
X14122444Y-11217436D01*
X14122444Y-11217436D02*
X14112920Y-11226960D01*
X14112920Y-11226960D02*
X14093872Y-11236484D01*
X14093872Y-11236484D02*
X14046253Y-11236484D01*
X14046253Y-11236484D02*
X14027206Y-11226960D01*
X14027206Y-11226960D02*
X14017682Y-11217436D01*
X14370063Y-11236484D02*
X14370063Y-11036484D01*
X14455777Y-11236484D02*
X14455777Y-11131722D01*
X14455777Y-11131722D02*
X14446253Y-11112674D01*
X14446253Y-11112674D02*
X14427206Y-11103150D01*
X14427206Y-11103150D02*
X14398634Y-11103150D01*
X14398634Y-11103150D02*
X14379587Y-11112674D01*
X14379587Y-11112674D02*
X14370063Y-11122198D01*
X14579587Y-11236484D02*
X14560539Y-11226960D01*
X14560539Y-11226960D02*
X14551015Y-11217436D01*
X14551015Y-11217436D02*
X14541491Y-11198388D01*
X14541491Y-11198388D02*
X14541491Y-11141246D01*
X14541491Y-11141246D02*
X14551015Y-11122198D01*
X14551015Y-11122198D02*
X14560539Y-11112674D01*
X14560539Y-11112674D02*
X14579587Y-11103150D01*
X14579587Y-11103150D02*
X14608158Y-11103150D01*
X14608158Y-11103150D02*
X14627206Y-11112674D01*
X14627206Y-11112674D02*
X14636730Y-11122198D01*
X14636730Y-11122198D02*
X14646253Y-11141246D01*
X14646253Y-11141246D02*
X14646253Y-11198388D01*
X14646253Y-11198388D02*
X14636730Y-11217436D01*
X14636730Y-11217436D02*
X14627206Y-11226960D01*
X14627206Y-11226960D02*
X14608158Y-11236484D01*
X14608158Y-11236484D02*
X14579587Y-11236484D01*
X14760539Y-11236484D02*
X14741491Y-11226960D01*
X14741491Y-11226960D02*
X14731968Y-11207912D01*
X14731968Y-11207912D02*
X14731968Y-11036484D01*
X14912920Y-11226960D02*
X14893872Y-11236484D01*
X14893872Y-11236484D02*
X14855777Y-11236484D01*
X14855777Y-11236484D02*
X14836730Y-11226960D01*
X14836730Y-11226960D02*
X14827206Y-11207912D01*
X14827206Y-11207912D02*
X14827206Y-11131722D01*
X14827206Y-11131722D02*
X14836730Y-11112674D01*
X14836730Y-11112674D02*
X14855777Y-11103150D01*
X14855777Y-11103150D02*
X14893872Y-11103150D01*
X14893872Y-11103150D02*
X14912920Y-11112674D01*
X14912920Y-11112674D02*
X14922444Y-11131722D01*
X14922444Y-11131722D02*
X14922444Y-11150770D01*
X14922444Y-11150770D02*
X14827206Y-11169817D01*
X14998634Y-11226960D02*
X15017682Y-11236484D01*
X15017682Y-11236484D02*
X15055777Y-11236484D01*
X15055777Y-11236484D02*
X15074825Y-11226960D01*
X15074825Y-11226960D02*
X15084349Y-11207912D01*
X15084349Y-11207912D02*
X15084349Y-11198388D01*
X15084349Y-11198388D02*
X15074825Y-11179341D01*
X15074825Y-11179341D02*
X15055777Y-11169817D01*
X15055777Y-11169817D02*
X15027206Y-11169817D01*
X15027206Y-11169817D02*
X15008158Y-11160293D01*
X15008158Y-11160293D02*
X14998634Y-11141246D01*
X14998634Y-11141246D02*
X14998634Y-11131722D01*
X14998634Y-11131722D02*
X15008158Y-11112674D01*
X15008158Y-11112674D02*
X15027206Y-11103150D01*
X15027206Y-11103150D02*
X15055777Y-11103150D01*
X15055777Y-11103150D02*
X15074825Y-11112674D01*
X15151015Y-11312674D02*
X15160539Y-11303150D01*
X15160539Y-11303150D02*
X15179587Y-11274579D01*
X15179587Y-11274579D02*
X15189111Y-11255531D01*
X15189111Y-11255531D02*
X15198634Y-11226960D01*
X15198634Y-11226960D02*
X15208158Y-11179341D01*
X15208158Y-11179341D02*
X15208158Y-11141246D01*
X15208158Y-11141246D02*
X15198634Y-11093627D01*
X15198634Y-11093627D02*
X15189111Y-11065055D01*
X15189111Y-11065055D02*
X15179587Y-11046008D01*
X15179587Y-11046008D02*
X15160539Y-11017436D01*
X15160539Y-11017436D02*
X15151015Y-11007912D01*
D10*
X9995000Y-11409000D02*
G75*
G02*
X9975000Y-11409000I-10000J0D01*
G01*
X9975000Y-11409000D02*
G75*
G02*
X9995000Y-11409000I10000J0D01*
G01*
D11*
X10293872Y-11300484D02*
X10312920Y-11300484D01*
X10312920Y-11300484D02*
X10331967Y-11310008D01*
X10331967Y-11310008D02*
X10341491Y-11319531D01*
X10341491Y-11319531D02*
X10351015Y-11338579D01*
X10351015Y-11338579D02*
X10360539Y-11376674D01*
X10360539Y-11376674D02*
X10360539Y-11424293D01*
X10360539Y-11424293D02*
X10351015Y-11462388D01*
X10351015Y-11462388D02*
X10341491Y-11481436D01*
X10341491Y-11481436D02*
X10331967Y-11490960D01*
X10331967Y-11490960D02*
X10312920Y-11500484D01*
X10312920Y-11500484D02*
X10293872Y-11500484D01*
X10293872Y-11500484D02*
X10274824Y-11490960D01*
X10274824Y-11490960D02*
X10265301Y-11481436D01*
X10265301Y-11481436D02*
X10255777Y-11462388D01*
X10255777Y-11462388D02*
X10246253Y-11424293D01*
X10246253Y-11424293D02*
X10246253Y-11376674D01*
X10246253Y-11376674D02*
X10255777Y-11338579D01*
X10255777Y-11338579D02*
X10265301Y-11319531D01*
X10265301Y-11319531D02*
X10274824Y-11310008D01*
X10274824Y-11310008D02*
X10293872Y-11300484D01*
X10446253Y-11481436D02*
X10455777Y-11490960D01*
X10455777Y-11490960D02*
X10446253Y-11500484D01*
X10446253Y-11500484D02*
X10436729Y-11490960D01*
X10436729Y-11490960D02*
X10446253Y-11481436D01*
X10446253Y-11481436D02*
X10446253Y-11500484D01*
X10531967Y-11319531D02*
X10541491Y-11310008D01*
X10541491Y-11310008D02*
X10560539Y-11300484D01*
X10560539Y-11300484D02*
X10608158Y-11300484D01*
X10608158Y-11300484D02*
X10627205Y-11310008D01*
X10627205Y-11310008D02*
X10636729Y-11319531D01*
X10636729Y-11319531D02*
X10646253Y-11338579D01*
X10646253Y-11338579D02*
X10646253Y-11357627D01*
X10646253Y-11357627D02*
X10636729Y-11386198D01*
X10636729Y-11386198D02*
X10522444Y-11500484D01*
X10522444Y-11500484D02*
X10646253Y-11500484D01*
X10770063Y-11300484D02*
X10789110Y-11300484D01*
X10789110Y-11300484D02*
X10808158Y-11310008D01*
X10808158Y-11310008D02*
X10817682Y-11319531D01*
X10817682Y-11319531D02*
X10827205Y-11338579D01*
X10827205Y-11338579D02*
X10836729Y-11376674D01*
X10836729Y-11376674D02*
X10836729Y-11424293D01*
X10836729Y-11424293D02*
X10827205Y-11462388D01*
X10827205Y-11462388D02*
X10817682Y-11481436D01*
X10817682Y-11481436D02*
X10808158Y-11490960D01*
X10808158Y-11490960D02*
X10789110Y-11500484D01*
X10789110Y-11500484D02*
X10770063Y-11500484D01*
X10770063Y-11500484D02*
X10751015Y-11490960D01*
X10751015Y-11490960D02*
X10741491Y-11481436D01*
X10741491Y-11481436D02*
X10731967Y-11462388D01*
X10731967Y-11462388D02*
X10722444Y-11424293D01*
X10722444Y-11424293D02*
X10722444Y-11376674D01*
X10722444Y-11376674D02*
X10731967Y-11338579D01*
X10731967Y-11338579D02*
X10741491Y-11319531D01*
X10741491Y-11319531D02*
X10751015Y-11310008D01*
X10751015Y-11310008D02*
X10770063Y-11300484D01*
X10960539Y-11300484D02*
X10979586Y-11300484D01*
X10979586Y-11300484D02*
X10998634Y-11310008D01*
X10998634Y-11310008D02*
X11008158Y-11319531D01*
X11008158Y-11319531D02*
X11017682Y-11338579D01*
X11017682Y-11338579D02*
X11027205Y-11376674D01*
X11027205Y-11376674D02*
X11027205Y-11424293D01*
X11027205Y-11424293D02*
X11017682Y-11462388D01*
X11017682Y-11462388D02*
X11008158Y-11481436D01*
X11008158Y-11481436D02*
X10998634Y-11490960D01*
X10998634Y-11490960D02*
X10979586Y-11500484D01*
X10979586Y-11500484D02*
X10960539Y-11500484D01*
X10960539Y-11500484D02*
X10941491Y-11490960D01*
X10941491Y-11490960D02*
X10931967Y-11481436D01*
X10931967Y-11481436D02*
X10922444Y-11462388D01*
X10922444Y-11462388D02*
X10912920Y-11424293D01*
X10912920Y-11424293D02*
X10912920Y-11376674D01*
X10912920Y-11376674D02*
X10922444Y-11338579D01*
X10922444Y-11338579D02*
X10931967Y-11319531D01*
X10931967Y-11319531D02*
X10941491Y-11310008D01*
X10941491Y-11310008D02*
X10960539Y-11300484D01*
X11112920Y-11500484D02*
X11112920Y-11367150D01*
X11112920Y-11386198D02*
X11122444Y-11376674D01*
X11122444Y-11376674D02*
X11141491Y-11367150D01*
X11141491Y-11367150D02*
X11170063Y-11367150D01*
X11170063Y-11367150D02*
X11189110Y-11376674D01*
X11189110Y-11376674D02*
X11198634Y-11395722D01*
X11198634Y-11395722D02*
X11198634Y-11500484D01*
X11198634Y-11395722D02*
X11208158Y-11376674D01*
X11208158Y-11376674D02*
X11227205Y-11367150D01*
X11227205Y-11367150D02*
X11255777Y-11367150D01*
X11255777Y-11367150D02*
X11274824Y-11376674D01*
X11274824Y-11376674D02*
X11284348Y-11395722D01*
X11284348Y-11395722D02*
X11284348Y-11500484D01*
X11379586Y-11500484D02*
X11379586Y-11367150D01*
X11379586Y-11386198D02*
X11389110Y-11376674D01*
X11389110Y-11376674D02*
X11408158Y-11367150D01*
X11408158Y-11367150D02*
X11436729Y-11367150D01*
X11436729Y-11367150D02*
X11455777Y-11376674D01*
X11455777Y-11376674D02*
X11465301Y-11395722D01*
X11465301Y-11395722D02*
X11465301Y-11500484D01*
X11465301Y-11395722D02*
X11474824Y-11376674D01*
X11474824Y-11376674D02*
X11493872Y-11367150D01*
X11493872Y-11367150D02*
X11522443Y-11367150D01*
X11522443Y-11367150D02*
X11541491Y-11376674D01*
X11541491Y-11376674D02*
X11551015Y-11395722D01*
X11551015Y-11395722D02*
X11551015Y-11500484D01*
X11941491Y-11290960D02*
X11770063Y-11548103D01*
X12198634Y-11300484D02*
X12217682Y-11300484D01*
X12217682Y-11300484D02*
X12236729Y-11310008D01*
X12236729Y-11310008D02*
X12246253Y-11319531D01*
X12246253Y-11319531D02*
X12255777Y-11338579D01*
X12255777Y-11338579D02*
X12265301Y-11376674D01*
X12265301Y-11376674D02*
X12265301Y-11424293D01*
X12265301Y-11424293D02*
X12255777Y-11462388D01*
X12255777Y-11462388D02*
X12246253Y-11481436D01*
X12246253Y-11481436D02*
X12236729Y-11490960D01*
X12236729Y-11490960D02*
X12217682Y-11500484D01*
X12217682Y-11500484D02*
X12198634Y-11500484D01*
X12198634Y-11500484D02*
X12179586Y-11490960D01*
X12179586Y-11490960D02*
X12170063Y-11481436D01*
X12170063Y-11481436D02*
X12160539Y-11462388D01*
X12160539Y-11462388D02*
X12151015Y-11424293D01*
X12151015Y-11424293D02*
X12151015Y-11376674D01*
X12151015Y-11376674D02*
X12160539Y-11338579D01*
X12160539Y-11338579D02*
X12170063Y-11319531D01*
X12170063Y-11319531D02*
X12179586Y-11310008D01*
X12179586Y-11310008D02*
X12198634Y-11300484D01*
X12351015Y-11481436D02*
X12360539Y-11490960D01*
X12360539Y-11490960D02*
X12351015Y-11500484D01*
X12351015Y-11500484D02*
X12341491Y-11490960D01*
X12341491Y-11490960D02*
X12351015Y-11481436D01*
X12351015Y-11481436D02*
X12351015Y-11500484D01*
X12484348Y-11300484D02*
X12503396Y-11300484D01*
X12503396Y-11300484D02*
X12522444Y-11310008D01*
X12522444Y-11310008D02*
X12531967Y-11319531D01*
X12531967Y-11319531D02*
X12541491Y-11338579D01*
X12541491Y-11338579D02*
X12551015Y-11376674D01*
X12551015Y-11376674D02*
X12551015Y-11424293D01*
X12551015Y-11424293D02*
X12541491Y-11462388D01*
X12541491Y-11462388D02*
X12531967Y-11481436D01*
X12531967Y-11481436D02*
X12522444Y-11490960D01*
X12522444Y-11490960D02*
X12503396Y-11500484D01*
X12503396Y-11500484D02*
X12484348Y-11500484D01*
X12484348Y-11500484D02*
X12465301Y-11490960D01*
X12465301Y-11490960D02*
X12455777Y-11481436D01*
X12455777Y-11481436D02*
X12446253Y-11462388D01*
X12446253Y-11462388D02*
X12436729Y-11424293D01*
X12436729Y-11424293D02*
X12436729Y-11376674D01*
X12436729Y-11376674D02*
X12446253Y-11338579D01*
X12446253Y-11338579D02*
X12455777Y-11319531D01*
X12455777Y-11319531D02*
X12465301Y-11310008D01*
X12465301Y-11310008D02*
X12484348Y-11300484D01*
X12674825Y-11300484D02*
X12693872Y-11300484D01*
X12693872Y-11300484D02*
X12712920Y-11310008D01*
X12712920Y-11310008D02*
X12722444Y-11319531D01*
X12722444Y-11319531D02*
X12731967Y-11338579D01*
X12731967Y-11338579D02*
X12741491Y-11376674D01*
X12741491Y-11376674D02*
X12741491Y-11424293D01*
X12741491Y-11424293D02*
X12731967Y-11462388D01*
X12731967Y-11462388D02*
X12722444Y-11481436D01*
X12722444Y-11481436D02*
X12712920Y-11490960D01*
X12712920Y-11490960D02*
X12693872Y-11500484D01*
X12693872Y-11500484D02*
X12674825Y-11500484D01*
X12674825Y-11500484D02*
X12655777Y-11490960D01*
X12655777Y-11490960D02*
X12646253Y-11481436D01*
X12646253Y-11481436D02*
X12636729Y-11462388D01*
X12636729Y-11462388D02*
X12627206Y-11424293D01*
X12627206Y-11424293D02*
X12627206Y-11376674D01*
X12627206Y-11376674D02*
X12636729Y-11338579D01*
X12636729Y-11338579D02*
X12646253Y-11319531D01*
X12646253Y-11319531D02*
X12655777Y-11310008D01*
X12655777Y-11310008D02*
X12674825Y-11300484D01*
X12808158Y-11300484D02*
X12941491Y-11300484D01*
X12941491Y-11300484D02*
X12855777Y-11500484D01*
X13027206Y-11500484D02*
X13065301Y-11500484D01*
X13065301Y-11500484D02*
X13084348Y-11490960D01*
X13084348Y-11490960D02*
X13093872Y-11481436D01*
X13093872Y-11481436D02*
X13112920Y-11452865D01*
X13112920Y-11452865D02*
X13122444Y-11414769D01*
X13122444Y-11414769D02*
X13122444Y-11338579D01*
X13122444Y-11338579D02*
X13112920Y-11319531D01*
X13112920Y-11319531D02*
X13103396Y-11310008D01*
X13103396Y-11310008D02*
X13084348Y-11300484D01*
X13084348Y-11300484D02*
X13046253Y-11300484D01*
X13046253Y-11300484D02*
X13027206Y-11310008D01*
X13027206Y-11310008D02*
X13017682Y-11319531D01*
X13017682Y-11319531D02*
X13008158Y-11338579D01*
X13008158Y-11338579D02*
X13008158Y-11386198D01*
X13008158Y-11386198D02*
X13017682Y-11405246D01*
X13017682Y-11405246D02*
X13027206Y-11414769D01*
X13027206Y-11414769D02*
X13046253Y-11424293D01*
X13046253Y-11424293D02*
X13084348Y-11424293D01*
X13084348Y-11424293D02*
X13103396Y-11414769D01*
X13103396Y-11414769D02*
X13112920Y-11405246D01*
X13112920Y-11405246D02*
X13122444Y-11386198D01*
X13198634Y-11300484D02*
X13198634Y-11338579D01*
X13274825Y-11300484D02*
X13274825Y-11338579D01*
X13570063Y-11576674D02*
X13560539Y-11567150D01*
X13560539Y-11567150D02*
X13541491Y-11538579D01*
X13541491Y-11538579D02*
X13531968Y-11519531D01*
X13531968Y-11519531D02*
X13522444Y-11490960D01*
X13522444Y-11490960D02*
X13512920Y-11443341D01*
X13512920Y-11443341D02*
X13512920Y-11405246D01*
X13512920Y-11405246D02*
X13522444Y-11357627D01*
X13522444Y-11357627D02*
X13531968Y-11329055D01*
X13531968Y-11329055D02*
X13541491Y-11310008D01*
X13541491Y-11310008D02*
X13560539Y-11281436D01*
X13560539Y-11281436D02*
X13570063Y-11271912D01*
X13655777Y-11500484D02*
X13693872Y-11500484D01*
X13693872Y-11500484D02*
X13712920Y-11490960D01*
X13712920Y-11490960D02*
X13722444Y-11481436D01*
X13722444Y-11481436D02*
X13741491Y-11452865D01*
X13741491Y-11452865D02*
X13751015Y-11414769D01*
X13751015Y-11414769D02*
X13751015Y-11338579D01*
X13751015Y-11338579D02*
X13741491Y-11319531D01*
X13741491Y-11319531D02*
X13731968Y-11310008D01*
X13731968Y-11310008D02*
X13712920Y-11300484D01*
X13712920Y-11300484D02*
X13674825Y-11300484D01*
X13674825Y-11300484D02*
X13655777Y-11310008D01*
X13655777Y-11310008D02*
X13646253Y-11319531D01*
X13646253Y-11319531D02*
X13636729Y-11338579D01*
X13636729Y-11338579D02*
X13636729Y-11386198D01*
X13636729Y-11386198D02*
X13646253Y-11405246D01*
X13646253Y-11405246D02*
X13655777Y-11414769D01*
X13655777Y-11414769D02*
X13674825Y-11424293D01*
X13674825Y-11424293D02*
X13712920Y-11424293D01*
X13712920Y-11424293D02*
X13731968Y-11414769D01*
X13731968Y-11414769D02*
X13741491Y-11405246D01*
X13741491Y-11405246D02*
X13751015Y-11386198D01*
X13989110Y-11500484D02*
X13989110Y-11300484D01*
X14074825Y-11500484D02*
X14074825Y-11395722D01*
X14074825Y-11395722D02*
X14065301Y-11376674D01*
X14065301Y-11376674D02*
X14046253Y-11367150D01*
X14046253Y-11367150D02*
X14017682Y-11367150D01*
X14017682Y-11367150D02*
X13998634Y-11376674D01*
X13998634Y-11376674D02*
X13989110Y-11386198D01*
X14198634Y-11500484D02*
X14179587Y-11490960D01*
X14179587Y-11490960D02*
X14170063Y-11481436D01*
X14170063Y-11481436D02*
X14160539Y-11462388D01*
X14160539Y-11462388D02*
X14160539Y-11405246D01*
X14160539Y-11405246D02*
X14170063Y-11386198D01*
X14170063Y-11386198D02*
X14179587Y-11376674D01*
X14179587Y-11376674D02*
X14198634Y-11367150D01*
X14198634Y-11367150D02*
X14227206Y-11367150D01*
X14227206Y-11367150D02*
X14246253Y-11376674D01*
X14246253Y-11376674D02*
X14255777Y-11386198D01*
X14255777Y-11386198D02*
X14265301Y-11405246D01*
X14265301Y-11405246D02*
X14265301Y-11462388D01*
X14265301Y-11462388D02*
X14255777Y-11481436D01*
X14255777Y-11481436D02*
X14246253Y-11490960D01*
X14246253Y-11490960D02*
X14227206Y-11500484D01*
X14227206Y-11500484D02*
X14198634Y-11500484D01*
X14379587Y-11500484D02*
X14360539Y-11490960D01*
X14360539Y-11490960D02*
X14351015Y-11471912D01*
X14351015Y-11471912D02*
X14351015Y-11300484D01*
X14531968Y-11490960D02*
X14512920Y-11500484D01*
X14512920Y-11500484D02*
X14474825Y-11500484D01*
X14474825Y-11500484D02*
X14455777Y-11490960D01*
X14455777Y-11490960D02*
X14446253Y-11471912D01*
X14446253Y-11471912D02*
X14446253Y-11395722D01*
X14446253Y-11395722D02*
X14455777Y-11376674D01*
X14455777Y-11376674D02*
X14474825Y-11367150D01*
X14474825Y-11367150D02*
X14512920Y-11367150D01*
X14512920Y-11367150D02*
X14531968Y-11376674D01*
X14531968Y-11376674D02*
X14541491Y-11395722D01*
X14541491Y-11395722D02*
X14541491Y-11414769D01*
X14541491Y-11414769D02*
X14446253Y-11433817D01*
X14617682Y-11490960D02*
X14636730Y-11500484D01*
X14636730Y-11500484D02*
X14674825Y-11500484D01*
X14674825Y-11500484D02*
X14693872Y-11490960D01*
X14693872Y-11490960D02*
X14703396Y-11471912D01*
X14703396Y-11471912D02*
X14703396Y-11462388D01*
X14703396Y-11462388D02*
X14693872Y-11443341D01*
X14693872Y-11443341D02*
X14674825Y-11433817D01*
X14674825Y-11433817D02*
X14646253Y-11433817D01*
X14646253Y-11433817D02*
X14627206Y-11424293D01*
X14627206Y-11424293D02*
X14617682Y-11405246D01*
X14617682Y-11405246D02*
X14617682Y-11395722D01*
X14617682Y-11395722D02*
X14627206Y-11376674D01*
X14627206Y-11376674D02*
X14646253Y-11367150D01*
X14646253Y-11367150D02*
X14674825Y-11367150D01*
X14674825Y-11367150D02*
X14693872Y-11376674D01*
X14770063Y-11576674D02*
X14779587Y-11567150D01*
X14779587Y-11567150D02*
X14798634Y-11538579D01*
X14798634Y-11538579D02*
X14808158Y-11519531D01*
X14808158Y-11519531D02*
X14817682Y-11490960D01*
X14817682Y-11490960D02*
X14827206Y-11443341D01*
X14827206Y-11443341D02*
X14827206Y-11405246D01*
X14827206Y-11405246D02*
X14817682Y-11357627D01*
X14817682Y-11357627D02*
X14808158Y-11329055D01*
X14808158Y-11329055D02*
X14798634Y-11310008D01*
X14798634Y-11310008D02*
X14779587Y-11281436D01*
X14779587Y-11281436D02*
X14770063Y-11271912D01*
D10*
X9970000Y-11648000D02*
X9970000Y-11698000D01*
X9945000Y-11673000D02*
X9995000Y-11673000D01*
D11*
X10293872Y-11564484D02*
X10312920Y-11564484D01*
X10312920Y-11564484D02*
X10331967Y-11574008D01*
X10331967Y-11574008D02*
X10341491Y-11583531D01*
X10341491Y-11583531D02*
X10351015Y-11602579D01*
X10351015Y-11602579D02*
X10360539Y-11640674D01*
X10360539Y-11640674D02*
X10360539Y-11688293D01*
X10360539Y-11688293D02*
X10351015Y-11726388D01*
X10351015Y-11726388D02*
X10341491Y-11745436D01*
X10341491Y-11745436D02*
X10331967Y-11754960D01*
X10331967Y-11754960D02*
X10312920Y-11764484D01*
X10312920Y-11764484D02*
X10293872Y-11764484D01*
X10293872Y-11764484D02*
X10274824Y-11754960D01*
X10274824Y-11754960D02*
X10265301Y-11745436D01*
X10265301Y-11745436D02*
X10255777Y-11726388D01*
X10255777Y-11726388D02*
X10246253Y-11688293D01*
X10246253Y-11688293D02*
X10246253Y-11640674D01*
X10246253Y-11640674D02*
X10255777Y-11602579D01*
X10255777Y-11602579D02*
X10265301Y-11583531D01*
X10265301Y-11583531D02*
X10274824Y-11574008D01*
X10274824Y-11574008D02*
X10293872Y-11564484D01*
X10446253Y-11745436D02*
X10455777Y-11754960D01*
X10455777Y-11754960D02*
X10446253Y-11764484D01*
X10446253Y-11764484D02*
X10436729Y-11754960D01*
X10436729Y-11754960D02*
X10446253Y-11745436D01*
X10446253Y-11745436D02*
X10446253Y-11764484D01*
X10636729Y-11564484D02*
X10541491Y-11564484D01*
X10541491Y-11564484D02*
X10531967Y-11659722D01*
X10531967Y-11659722D02*
X10541491Y-11650198D01*
X10541491Y-11650198D02*
X10560539Y-11640674D01*
X10560539Y-11640674D02*
X10608158Y-11640674D01*
X10608158Y-11640674D02*
X10627205Y-11650198D01*
X10627205Y-11650198D02*
X10636729Y-11659722D01*
X10636729Y-11659722D02*
X10646253Y-11678769D01*
X10646253Y-11678769D02*
X10646253Y-11726388D01*
X10646253Y-11726388D02*
X10636729Y-11745436D01*
X10636729Y-11745436D02*
X10627205Y-11754960D01*
X10627205Y-11754960D02*
X10608158Y-11764484D01*
X10608158Y-11764484D02*
X10560539Y-11764484D01*
X10560539Y-11764484D02*
X10541491Y-11754960D01*
X10541491Y-11754960D02*
X10531967Y-11745436D01*
X10770063Y-11564484D02*
X10789110Y-11564484D01*
X10789110Y-11564484D02*
X10808158Y-11574008D01*
X10808158Y-11574008D02*
X10817682Y-11583531D01*
X10817682Y-11583531D02*
X10827205Y-11602579D01*
X10827205Y-11602579D02*
X10836729Y-11640674D01*
X10836729Y-11640674D02*
X10836729Y-11688293D01*
X10836729Y-11688293D02*
X10827205Y-11726388D01*
X10827205Y-11726388D02*
X10817682Y-11745436D01*
X10817682Y-11745436D02*
X10808158Y-11754960D01*
X10808158Y-11754960D02*
X10789110Y-11764484D01*
X10789110Y-11764484D02*
X10770063Y-11764484D01*
X10770063Y-11764484D02*
X10751015Y-11754960D01*
X10751015Y-11754960D02*
X10741491Y-11745436D01*
X10741491Y-11745436D02*
X10731967Y-11726388D01*
X10731967Y-11726388D02*
X10722444Y-11688293D01*
X10722444Y-11688293D02*
X10722444Y-11640674D01*
X10722444Y-11640674D02*
X10731967Y-11602579D01*
X10731967Y-11602579D02*
X10741491Y-11583531D01*
X10741491Y-11583531D02*
X10751015Y-11574008D01*
X10751015Y-11574008D02*
X10770063Y-11564484D01*
X10960539Y-11564484D02*
X10979586Y-11564484D01*
X10979586Y-11564484D02*
X10998634Y-11574008D01*
X10998634Y-11574008D02*
X11008158Y-11583531D01*
X11008158Y-11583531D02*
X11017682Y-11602579D01*
X11017682Y-11602579D02*
X11027205Y-11640674D01*
X11027205Y-11640674D02*
X11027205Y-11688293D01*
X11027205Y-11688293D02*
X11017682Y-11726388D01*
X11017682Y-11726388D02*
X11008158Y-11745436D01*
X11008158Y-11745436D02*
X10998634Y-11754960D01*
X10998634Y-11754960D02*
X10979586Y-11764484D01*
X10979586Y-11764484D02*
X10960539Y-11764484D01*
X10960539Y-11764484D02*
X10941491Y-11754960D01*
X10941491Y-11754960D02*
X10931967Y-11745436D01*
X10931967Y-11745436D02*
X10922444Y-11726388D01*
X10922444Y-11726388D02*
X10912920Y-11688293D01*
X10912920Y-11688293D02*
X10912920Y-11640674D01*
X10912920Y-11640674D02*
X10922444Y-11602579D01*
X10922444Y-11602579D02*
X10931967Y-11583531D01*
X10931967Y-11583531D02*
X10941491Y-11574008D01*
X10941491Y-11574008D02*
X10960539Y-11564484D01*
X11112920Y-11764484D02*
X11112920Y-11631150D01*
X11112920Y-11650198D02*
X11122444Y-11640674D01*
X11122444Y-11640674D02*
X11141491Y-11631150D01*
X11141491Y-11631150D02*
X11170063Y-11631150D01*
X11170063Y-11631150D02*
X11189110Y-11640674D01*
X11189110Y-11640674D02*
X11198634Y-11659722D01*
X11198634Y-11659722D02*
X11198634Y-11764484D01*
X11198634Y-11659722D02*
X11208158Y-11640674D01*
X11208158Y-11640674D02*
X11227205Y-11631150D01*
X11227205Y-11631150D02*
X11255777Y-11631150D01*
X11255777Y-11631150D02*
X11274824Y-11640674D01*
X11274824Y-11640674D02*
X11284348Y-11659722D01*
X11284348Y-11659722D02*
X11284348Y-11764484D01*
X11379586Y-11764484D02*
X11379586Y-11631150D01*
X11379586Y-11650198D02*
X11389110Y-11640674D01*
X11389110Y-11640674D02*
X11408158Y-11631150D01*
X11408158Y-11631150D02*
X11436729Y-11631150D01*
X11436729Y-11631150D02*
X11455777Y-11640674D01*
X11455777Y-11640674D02*
X11465301Y-11659722D01*
X11465301Y-11659722D02*
X11465301Y-11764484D01*
X11465301Y-11659722D02*
X11474824Y-11640674D01*
X11474824Y-11640674D02*
X11493872Y-11631150D01*
X11493872Y-11631150D02*
X11522443Y-11631150D01*
X11522443Y-11631150D02*
X11541491Y-11640674D01*
X11541491Y-11640674D02*
X11551015Y-11659722D01*
X11551015Y-11659722D02*
X11551015Y-11764484D01*
X11941491Y-11554960D02*
X11770063Y-11812103D01*
X12198634Y-11564484D02*
X12217682Y-11564484D01*
X12217682Y-11564484D02*
X12236729Y-11574008D01*
X12236729Y-11574008D02*
X12246253Y-11583531D01*
X12246253Y-11583531D02*
X12255777Y-11602579D01*
X12255777Y-11602579D02*
X12265301Y-11640674D01*
X12265301Y-11640674D02*
X12265301Y-11688293D01*
X12265301Y-11688293D02*
X12255777Y-11726388D01*
X12255777Y-11726388D02*
X12246253Y-11745436D01*
X12246253Y-11745436D02*
X12236729Y-11754960D01*
X12236729Y-11754960D02*
X12217682Y-11764484D01*
X12217682Y-11764484D02*
X12198634Y-11764484D01*
X12198634Y-11764484D02*
X12179586Y-11754960D01*
X12179586Y-11754960D02*
X12170063Y-11745436D01*
X12170063Y-11745436D02*
X12160539Y-11726388D01*
X12160539Y-11726388D02*
X12151015Y-11688293D01*
X12151015Y-11688293D02*
X12151015Y-11640674D01*
X12151015Y-11640674D02*
X12160539Y-11602579D01*
X12160539Y-11602579D02*
X12170063Y-11583531D01*
X12170063Y-11583531D02*
X12179586Y-11574008D01*
X12179586Y-11574008D02*
X12198634Y-11564484D01*
X12351015Y-11745436D02*
X12360539Y-11754960D01*
X12360539Y-11754960D02*
X12351015Y-11764484D01*
X12351015Y-11764484D02*
X12341491Y-11754960D01*
X12341491Y-11754960D02*
X12351015Y-11745436D01*
X12351015Y-11745436D02*
X12351015Y-11764484D01*
X12484348Y-11564484D02*
X12503396Y-11564484D01*
X12503396Y-11564484D02*
X12522444Y-11574008D01*
X12522444Y-11574008D02*
X12531967Y-11583531D01*
X12531967Y-11583531D02*
X12541491Y-11602579D01*
X12541491Y-11602579D02*
X12551015Y-11640674D01*
X12551015Y-11640674D02*
X12551015Y-11688293D01*
X12551015Y-11688293D02*
X12541491Y-11726388D01*
X12541491Y-11726388D02*
X12531967Y-11745436D01*
X12531967Y-11745436D02*
X12522444Y-11754960D01*
X12522444Y-11754960D02*
X12503396Y-11764484D01*
X12503396Y-11764484D02*
X12484348Y-11764484D01*
X12484348Y-11764484D02*
X12465301Y-11754960D01*
X12465301Y-11754960D02*
X12455777Y-11745436D01*
X12455777Y-11745436D02*
X12446253Y-11726388D01*
X12446253Y-11726388D02*
X12436729Y-11688293D01*
X12436729Y-11688293D02*
X12436729Y-11640674D01*
X12436729Y-11640674D02*
X12446253Y-11602579D01*
X12446253Y-11602579D02*
X12455777Y-11583531D01*
X12455777Y-11583531D02*
X12465301Y-11574008D01*
X12465301Y-11574008D02*
X12484348Y-11564484D01*
X12741491Y-11764484D02*
X12627206Y-11764484D01*
X12684348Y-11764484D02*
X12684348Y-11564484D01*
X12684348Y-11564484D02*
X12665301Y-11593055D01*
X12665301Y-11593055D02*
X12646253Y-11612103D01*
X12646253Y-11612103D02*
X12627206Y-11621627D01*
X12836729Y-11764484D02*
X12874825Y-11764484D01*
X12874825Y-11764484D02*
X12893872Y-11754960D01*
X12893872Y-11754960D02*
X12903396Y-11745436D01*
X12903396Y-11745436D02*
X12922444Y-11716865D01*
X12922444Y-11716865D02*
X12931967Y-11678769D01*
X12931967Y-11678769D02*
X12931967Y-11602579D01*
X12931967Y-11602579D02*
X12922444Y-11583531D01*
X12922444Y-11583531D02*
X12912920Y-11574008D01*
X12912920Y-11574008D02*
X12893872Y-11564484D01*
X12893872Y-11564484D02*
X12855777Y-11564484D01*
X12855777Y-11564484D02*
X12836729Y-11574008D01*
X12836729Y-11574008D02*
X12827206Y-11583531D01*
X12827206Y-11583531D02*
X12817682Y-11602579D01*
X12817682Y-11602579D02*
X12817682Y-11650198D01*
X12817682Y-11650198D02*
X12827206Y-11669246D01*
X12827206Y-11669246D02*
X12836729Y-11678769D01*
X12836729Y-11678769D02*
X12855777Y-11688293D01*
X12855777Y-11688293D02*
X12893872Y-11688293D01*
X12893872Y-11688293D02*
X12912920Y-11678769D01*
X12912920Y-11678769D02*
X12922444Y-11669246D01*
X12922444Y-11669246D02*
X12931967Y-11650198D01*
X12998634Y-11564484D02*
X13131967Y-11564484D01*
X13131967Y-11564484D02*
X13046253Y-11764484D01*
X13198634Y-11564484D02*
X13198634Y-11602579D01*
X13274825Y-11564484D02*
X13274825Y-11602579D01*
X13570063Y-11840674D02*
X13560539Y-11831150D01*
X13560539Y-11831150D02*
X13541491Y-11802579D01*
X13541491Y-11802579D02*
X13531968Y-11783531D01*
X13531968Y-11783531D02*
X13522444Y-11754960D01*
X13522444Y-11754960D02*
X13512920Y-11707341D01*
X13512920Y-11707341D02*
X13512920Y-11669246D01*
X13512920Y-11669246D02*
X13522444Y-11621627D01*
X13522444Y-11621627D02*
X13531968Y-11593055D01*
X13531968Y-11593055D02*
X13541491Y-11574008D01*
X13541491Y-11574008D02*
X13560539Y-11545436D01*
X13560539Y-11545436D02*
X13570063Y-11535912D01*
X13751015Y-11764484D02*
X13636729Y-11764484D01*
X13693872Y-11764484D02*
X13693872Y-11564484D01*
X13693872Y-11564484D02*
X13674825Y-11593055D01*
X13674825Y-11593055D02*
X13655777Y-11612103D01*
X13655777Y-11612103D02*
X13636729Y-11621627D01*
X13922444Y-11631150D02*
X13922444Y-11764484D01*
X13874825Y-11554960D02*
X13827206Y-11697817D01*
X13827206Y-11697817D02*
X13951015Y-11697817D01*
X14179587Y-11764484D02*
X14179587Y-11564484D01*
X14265301Y-11764484D02*
X14265301Y-11659722D01*
X14265301Y-11659722D02*
X14255777Y-11640674D01*
X14255777Y-11640674D02*
X14236730Y-11631150D01*
X14236730Y-11631150D02*
X14208158Y-11631150D01*
X14208158Y-11631150D02*
X14189110Y-11640674D01*
X14189110Y-11640674D02*
X14179587Y-11650198D01*
X14389110Y-11764484D02*
X14370063Y-11754960D01*
X14370063Y-11754960D02*
X14360539Y-11745436D01*
X14360539Y-11745436D02*
X14351015Y-11726388D01*
X14351015Y-11726388D02*
X14351015Y-11669246D01*
X14351015Y-11669246D02*
X14360539Y-11650198D01*
X14360539Y-11650198D02*
X14370063Y-11640674D01*
X14370063Y-11640674D02*
X14389110Y-11631150D01*
X14389110Y-11631150D02*
X14417682Y-11631150D01*
X14417682Y-11631150D02*
X14436730Y-11640674D01*
X14436730Y-11640674D02*
X14446253Y-11650198D01*
X14446253Y-11650198D02*
X14455777Y-11669246D01*
X14455777Y-11669246D02*
X14455777Y-11726388D01*
X14455777Y-11726388D02*
X14446253Y-11745436D01*
X14446253Y-11745436D02*
X14436730Y-11754960D01*
X14436730Y-11754960D02*
X14417682Y-11764484D01*
X14417682Y-11764484D02*
X14389110Y-11764484D01*
X14570063Y-11764484D02*
X14551015Y-11754960D01*
X14551015Y-11754960D02*
X14541491Y-11735912D01*
X14541491Y-11735912D02*
X14541491Y-11564484D01*
X14722444Y-11754960D02*
X14703396Y-11764484D01*
X14703396Y-11764484D02*
X14665301Y-11764484D01*
X14665301Y-11764484D02*
X14646253Y-11754960D01*
X14646253Y-11754960D02*
X14636730Y-11735912D01*
X14636730Y-11735912D02*
X14636730Y-11659722D01*
X14636730Y-11659722D02*
X14646253Y-11640674D01*
X14646253Y-11640674D02*
X14665301Y-11631150D01*
X14665301Y-11631150D02*
X14703396Y-11631150D01*
X14703396Y-11631150D02*
X14722444Y-11640674D01*
X14722444Y-11640674D02*
X14731968Y-11659722D01*
X14731968Y-11659722D02*
X14731968Y-11678769D01*
X14731968Y-11678769D02*
X14636730Y-11697817D01*
X14808158Y-11754960D02*
X14827206Y-11764484D01*
X14827206Y-11764484D02*
X14865301Y-11764484D01*
X14865301Y-11764484D02*
X14884349Y-11754960D01*
X14884349Y-11754960D02*
X14893872Y-11735912D01*
X14893872Y-11735912D02*
X14893872Y-11726388D01*
X14893872Y-11726388D02*
X14884349Y-11707341D01*
X14884349Y-11707341D02*
X14865301Y-11697817D01*
X14865301Y-11697817D02*
X14836730Y-11697817D01*
X14836730Y-11697817D02*
X14817682Y-11688293D01*
X14817682Y-11688293D02*
X14808158Y-11669246D01*
X14808158Y-11669246D02*
X14808158Y-11659722D01*
X14808158Y-11659722D02*
X14817682Y-11640674D01*
X14817682Y-11640674D02*
X14836730Y-11631150D01*
X14836730Y-11631150D02*
X14865301Y-11631150D01*
X14865301Y-11631150D02*
X14884349Y-11640674D01*
X14960539Y-11840674D02*
X14970063Y-11831150D01*
X14970063Y-11831150D02*
X14989111Y-11802579D01*
X14989111Y-11802579D02*
X14998634Y-11783531D01*
X14998634Y-11783531D02*
X15008158Y-11754960D01*
X15008158Y-11754960D02*
X15017682Y-11707341D01*
X15017682Y-11707341D02*
X15017682Y-11669246D01*
X15017682Y-11669246D02*
X15008158Y-11621627D01*
X15008158Y-11621627D02*
X14998634Y-11593055D01*
X14998634Y-11593055D02*
X14989111Y-11574008D01*
X14989111Y-11574008D02*
X14970063Y-11545436D01*
X14970063Y-11545436D02*
X14960539Y-11535912D01*
D10*
X9985481Y-11959981D02*
X9985481Y-11914019D01*
X9939519Y-11914019D01*
X9939519Y-11959981D01*
X9985481Y-11959981D01*
D11*
X10293872Y-11828484D02*
X10312920Y-11828484D01*
X10312920Y-11828484D02*
X10331967Y-11838008D01*
X10331967Y-11838008D02*
X10341491Y-11847531D01*
X10341491Y-11847531D02*
X10351015Y-11866579D01*
X10351015Y-11866579D02*
X10360539Y-11904674D01*
X10360539Y-11904674D02*
X10360539Y-11952293D01*
X10360539Y-11952293D02*
X10351015Y-11990388D01*
X10351015Y-11990388D02*
X10341491Y-12009436D01*
X10341491Y-12009436D02*
X10331967Y-12018960D01*
X10331967Y-12018960D02*
X10312920Y-12028484D01*
X10312920Y-12028484D02*
X10293872Y-12028484D01*
X10293872Y-12028484D02*
X10274824Y-12018960D01*
X10274824Y-12018960D02*
X10265301Y-12009436D01*
X10265301Y-12009436D02*
X10255777Y-11990388D01*
X10255777Y-11990388D02*
X10246253Y-11952293D01*
X10246253Y-11952293D02*
X10246253Y-11904674D01*
X10246253Y-11904674D02*
X10255777Y-11866579D01*
X10255777Y-11866579D02*
X10265301Y-11847531D01*
X10265301Y-11847531D02*
X10274824Y-11838008D01*
X10274824Y-11838008D02*
X10293872Y-11828484D01*
X10446253Y-12009436D02*
X10455777Y-12018960D01*
X10455777Y-12018960D02*
X10446253Y-12028484D01*
X10446253Y-12028484D02*
X10436729Y-12018960D01*
X10436729Y-12018960D02*
X10446253Y-12009436D01*
X10446253Y-12009436D02*
X10446253Y-12028484D01*
X10627205Y-11828484D02*
X10589110Y-11828484D01*
X10589110Y-11828484D02*
X10570063Y-11838008D01*
X10570063Y-11838008D02*
X10560539Y-11847531D01*
X10560539Y-11847531D02*
X10541491Y-11876103D01*
X10541491Y-11876103D02*
X10531967Y-11914198D01*
X10531967Y-11914198D02*
X10531967Y-11990388D01*
X10531967Y-11990388D02*
X10541491Y-12009436D01*
X10541491Y-12009436D02*
X10551015Y-12018960D01*
X10551015Y-12018960D02*
X10570063Y-12028484D01*
X10570063Y-12028484D02*
X10608158Y-12028484D01*
X10608158Y-12028484D02*
X10627205Y-12018960D01*
X10627205Y-12018960D02*
X10636729Y-12009436D01*
X10636729Y-12009436D02*
X10646253Y-11990388D01*
X10646253Y-11990388D02*
X10646253Y-11942769D01*
X10646253Y-11942769D02*
X10636729Y-11923722D01*
X10636729Y-11923722D02*
X10627205Y-11914198D01*
X10627205Y-11914198D02*
X10608158Y-11904674D01*
X10608158Y-11904674D02*
X10570063Y-11904674D01*
X10570063Y-11904674D02*
X10551015Y-11914198D01*
X10551015Y-11914198D02*
X10541491Y-11923722D01*
X10541491Y-11923722D02*
X10531967Y-11942769D01*
X10827205Y-11828484D02*
X10731967Y-11828484D01*
X10731967Y-11828484D02*
X10722444Y-11923722D01*
X10722444Y-11923722D02*
X10731967Y-11914198D01*
X10731967Y-11914198D02*
X10751015Y-11904674D01*
X10751015Y-11904674D02*
X10798634Y-11904674D01*
X10798634Y-11904674D02*
X10817682Y-11914198D01*
X10817682Y-11914198D02*
X10827205Y-11923722D01*
X10827205Y-11923722D02*
X10836729Y-11942769D01*
X10836729Y-11942769D02*
X10836729Y-11990388D01*
X10836729Y-11990388D02*
X10827205Y-12009436D01*
X10827205Y-12009436D02*
X10817682Y-12018960D01*
X10817682Y-12018960D02*
X10798634Y-12028484D01*
X10798634Y-12028484D02*
X10751015Y-12028484D01*
X10751015Y-12028484D02*
X10731967Y-12018960D01*
X10731967Y-12018960D02*
X10722444Y-12009436D01*
X10960539Y-11828484D02*
X10979586Y-11828484D01*
X10979586Y-11828484D02*
X10998634Y-11838008D01*
X10998634Y-11838008D02*
X11008158Y-11847531D01*
X11008158Y-11847531D02*
X11017682Y-11866579D01*
X11017682Y-11866579D02*
X11027205Y-11904674D01*
X11027205Y-11904674D02*
X11027205Y-11952293D01*
X11027205Y-11952293D02*
X11017682Y-11990388D01*
X11017682Y-11990388D02*
X11008158Y-12009436D01*
X11008158Y-12009436D02*
X10998634Y-12018960D01*
X10998634Y-12018960D02*
X10979586Y-12028484D01*
X10979586Y-12028484D02*
X10960539Y-12028484D01*
X10960539Y-12028484D02*
X10941491Y-12018960D01*
X10941491Y-12018960D02*
X10931967Y-12009436D01*
X10931967Y-12009436D02*
X10922444Y-11990388D01*
X10922444Y-11990388D02*
X10912920Y-11952293D01*
X10912920Y-11952293D02*
X10912920Y-11904674D01*
X10912920Y-11904674D02*
X10922444Y-11866579D01*
X10922444Y-11866579D02*
X10931967Y-11847531D01*
X10931967Y-11847531D02*
X10941491Y-11838008D01*
X10941491Y-11838008D02*
X10960539Y-11828484D01*
X11112920Y-12028484D02*
X11112920Y-11895150D01*
X11112920Y-11914198D02*
X11122444Y-11904674D01*
X11122444Y-11904674D02*
X11141491Y-11895150D01*
X11141491Y-11895150D02*
X11170063Y-11895150D01*
X11170063Y-11895150D02*
X11189110Y-11904674D01*
X11189110Y-11904674D02*
X11198634Y-11923722D01*
X11198634Y-11923722D02*
X11198634Y-12028484D01*
X11198634Y-11923722D02*
X11208158Y-11904674D01*
X11208158Y-11904674D02*
X11227205Y-11895150D01*
X11227205Y-11895150D02*
X11255777Y-11895150D01*
X11255777Y-11895150D02*
X11274824Y-11904674D01*
X11274824Y-11904674D02*
X11284348Y-11923722D01*
X11284348Y-11923722D02*
X11284348Y-12028484D01*
X11379586Y-12028484D02*
X11379586Y-11895150D01*
X11379586Y-11914198D02*
X11389110Y-11904674D01*
X11389110Y-11904674D02*
X11408158Y-11895150D01*
X11408158Y-11895150D02*
X11436729Y-11895150D01*
X11436729Y-11895150D02*
X11455777Y-11904674D01*
X11455777Y-11904674D02*
X11465301Y-11923722D01*
X11465301Y-11923722D02*
X11465301Y-12028484D01*
X11465301Y-11923722D02*
X11474824Y-11904674D01*
X11474824Y-11904674D02*
X11493872Y-11895150D01*
X11493872Y-11895150D02*
X11522443Y-11895150D01*
X11522443Y-11895150D02*
X11541491Y-11904674D01*
X11541491Y-11904674D02*
X11551015Y-11923722D01*
X11551015Y-11923722D02*
X11551015Y-12028484D01*
X11941491Y-11818960D02*
X11770063Y-12076103D01*
X12198634Y-11828484D02*
X12217682Y-11828484D01*
X12217682Y-11828484D02*
X12236729Y-11838008D01*
X12236729Y-11838008D02*
X12246253Y-11847531D01*
X12246253Y-11847531D02*
X12255777Y-11866579D01*
X12255777Y-11866579D02*
X12265301Y-11904674D01*
X12265301Y-11904674D02*
X12265301Y-11952293D01*
X12265301Y-11952293D02*
X12255777Y-11990388D01*
X12255777Y-11990388D02*
X12246253Y-12009436D01*
X12246253Y-12009436D02*
X12236729Y-12018960D01*
X12236729Y-12018960D02*
X12217682Y-12028484D01*
X12217682Y-12028484D02*
X12198634Y-12028484D01*
X12198634Y-12028484D02*
X12179586Y-12018960D01*
X12179586Y-12018960D02*
X12170063Y-12009436D01*
X12170063Y-12009436D02*
X12160539Y-11990388D01*
X12160539Y-11990388D02*
X12151015Y-11952293D01*
X12151015Y-11952293D02*
X12151015Y-11904674D01*
X12151015Y-11904674D02*
X12160539Y-11866579D01*
X12160539Y-11866579D02*
X12170063Y-11847531D01*
X12170063Y-11847531D02*
X12179586Y-11838008D01*
X12179586Y-11838008D02*
X12198634Y-11828484D01*
X12351015Y-12009436D02*
X12360539Y-12018960D01*
X12360539Y-12018960D02*
X12351015Y-12028484D01*
X12351015Y-12028484D02*
X12341491Y-12018960D01*
X12341491Y-12018960D02*
X12351015Y-12009436D01*
X12351015Y-12009436D02*
X12351015Y-12028484D01*
X12484348Y-11828484D02*
X12503396Y-11828484D01*
X12503396Y-11828484D02*
X12522444Y-11838008D01*
X12522444Y-11838008D02*
X12531967Y-11847531D01*
X12531967Y-11847531D02*
X12541491Y-11866579D01*
X12541491Y-11866579D02*
X12551015Y-11904674D01*
X12551015Y-11904674D02*
X12551015Y-11952293D01*
X12551015Y-11952293D02*
X12541491Y-11990388D01*
X12541491Y-11990388D02*
X12531967Y-12009436D01*
X12531967Y-12009436D02*
X12522444Y-12018960D01*
X12522444Y-12018960D02*
X12503396Y-12028484D01*
X12503396Y-12028484D02*
X12484348Y-12028484D01*
X12484348Y-12028484D02*
X12465301Y-12018960D01*
X12465301Y-12018960D02*
X12455777Y-12009436D01*
X12455777Y-12009436D02*
X12446253Y-11990388D01*
X12446253Y-11990388D02*
X12436729Y-11952293D01*
X12436729Y-11952293D02*
X12436729Y-11904674D01*
X12436729Y-11904674D02*
X12446253Y-11866579D01*
X12446253Y-11866579D02*
X12455777Y-11847531D01*
X12455777Y-11847531D02*
X12465301Y-11838008D01*
X12465301Y-11838008D02*
X12484348Y-11828484D01*
X12627206Y-11847531D02*
X12636729Y-11838008D01*
X12636729Y-11838008D02*
X12655777Y-11828484D01*
X12655777Y-11828484D02*
X12703396Y-11828484D01*
X12703396Y-11828484D02*
X12722444Y-11838008D01*
X12722444Y-11838008D02*
X12731967Y-11847531D01*
X12731967Y-11847531D02*
X12741491Y-11866579D01*
X12741491Y-11866579D02*
X12741491Y-11885627D01*
X12741491Y-11885627D02*
X12731967Y-11914198D01*
X12731967Y-11914198D02*
X12617682Y-12028484D01*
X12617682Y-12028484D02*
X12741491Y-12028484D01*
X12922444Y-11828484D02*
X12827206Y-11828484D01*
X12827206Y-11828484D02*
X12817682Y-11923722D01*
X12817682Y-11923722D02*
X12827206Y-11914198D01*
X12827206Y-11914198D02*
X12846253Y-11904674D01*
X12846253Y-11904674D02*
X12893872Y-11904674D01*
X12893872Y-11904674D02*
X12912920Y-11914198D01*
X12912920Y-11914198D02*
X12922444Y-11923722D01*
X12922444Y-11923722D02*
X12931967Y-11942769D01*
X12931967Y-11942769D02*
X12931967Y-11990388D01*
X12931967Y-11990388D02*
X12922444Y-12009436D01*
X12922444Y-12009436D02*
X12912920Y-12018960D01*
X12912920Y-12018960D02*
X12893872Y-12028484D01*
X12893872Y-12028484D02*
X12846253Y-12028484D01*
X12846253Y-12028484D02*
X12827206Y-12018960D01*
X12827206Y-12018960D02*
X12817682Y-12009436D01*
X13103396Y-11828484D02*
X13065301Y-11828484D01*
X13065301Y-11828484D02*
X13046253Y-11838008D01*
X13046253Y-11838008D02*
X13036729Y-11847531D01*
X13036729Y-11847531D02*
X13017682Y-11876103D01*
X13017682Y-11876103D02*
X13008158Y-11914198D01*
X13008158Y-11914198D02*
X13008158Y-11990388D01*
X13008158Y-11990388D02*
X13017682Y-12009436D01*
X13017682Y-12009436D02*
X13027206Y-12018960D01*
X13027206Y-12018960D02*
X13046253Y-12028484D01*
X13046253Y-12028484D02*
X13084348Y-12028484D01*
X13084348Y-12028484D02*
X13103396Y-12018960D01*
X13103396Y-12018960D02*
X13112920Y-12009436D01*
X13112920Y-12009436D02*
X13122444Y-11990388D01*
X13122444Y-11990388D02*
X13122444Y-11942769D01*
X13122444Y-11942769D02*
X13112920Y-11923722D01*
X13112920Y-11923722D02*
X13103396Y-11914198D01*
X13103396Y-11914198D02*
X13084348Y-11904674D01*
X13084348Y-11904674D02*
X13046253Y-11904674D01*
X13046253Y-11904674D02*
X13027206Y-11914198D01*
X13027206Y-11914198D02*
X13017682Y-11923722D01*
X13017682Y-11923722D02*
X13008158Y-11942769D01*
X13198634Y-11828484D02*
X13198634Y-11866579D01*
X13274825Y-11828484D02*
X13274825Y-11866579D01*
X13570063Y-12104674D02*
X13560539Y-12095150D01*
X13560539Y-12095150D02*
X13541491Y-12066579D01*
X13541491Y-12066579D02*
X13531968Y-12047531D01*
X13531968Y-12047531D02*
X13522444Y-12018960D01*
X13522444Y-12018960D02*
X13512920Y-11971341D01*
X13512920Y-11971341D02*
X13512920Y-11933246D01*
X13512920Y-11933246D02*
X13522444Y-11885627D01*
X13522444Y-11885627D02*
X13531968Y-11857055D01*
X13531968Y-11857055D02*
X13541491Y-11838008D01*
X13541491Y-11838008D02*
X13560539Y-11809436D01*
X13560539Y-11809436D02*
X13570063Y-11799912D01*
X13751015Y-12028484D02*
X13636729Y-12028484D01*
X13693872Y-12028484D02*
X13693872Y-11828484D01*
X13693872Y-11828484D02*
X13674825Y-11857055D01*
X13674825Y-11857055D02*
X13655777Y-11876103D01*
X13655777Y-11876103D02*
X13636729Y-11885627D01*
X13874825Y-11828484D02*
X13893872Y-11828484D01*
X13893872Y-11828484D02*
X13912920Y-11838008D01*
X13912920Y-11838008D02*
X13922444Y-11847531D01*
X13922444Y-11847531D02*
X13931968Y-11866579D01*
X13931968Y-11866579D02*
X13941491Y-11904674D01*
X13941491Y-11904674D02*
X13941491Y-11952293D01*
X13941491Y-11952293D02*
X13931968Y-11990388D01*
X13931968Y-11990388D02*
X13922444Y-12009436D01*
X13922444Y-12009436D02*
X13912920Y-12018960D01*
X13912920Y-12018960D02*
X13893872Y-12028484D01*
X13893872Y-12028484D02*
X13874825Y-12028484D01*
X13874825Y-12028484D02*
X13855777Y-12018960D01*
X13855777Y-12018960D02*
X13846253Y-12009436D01*
X13846253Y-12009436D02*
X13836729Y-11990388D01*
X13836729Y-11990388D02*
X13827206Y-11952293D01*
X13827206Y-11952293D02*
X13827206Y-11904674D01*
X13827206Y-11904674D02*
X13836729Y-11866579D01*
X13836729Y-11866579D02*
X13846253Y-11847531D01*
X13846253Y-11847531D02*
X13855777Y-11838008D01*
X13855777Y-11838008D02*
X13874825Y-11828484D01*
X14179587Y-12028484D02*
X14179587Y-11828484D01*
X14265301Y-12028484D02*
X14265301Y-11923722D01*
X14265301Y-11923722D02*
X14255777Y-11904674D01*
X14255777Y-11904674D02*
X14236730Y-11895150D01*
X14236730Y-11895150D02*
X14208158Y-11895150D01*
X14208158Y-11895150D02*
X14189110Y-11904674D01*
X14189110Y-11904674D02*
X14179587Y-11914198D01*
X14389110Y-12028484D02*
X14370063Y-12018960D01*
X14370063Y-12018960D02*
X14360539Y-12009436D01*
X14360539Y-12009436D02*
X14351015Y-11990388D01*
X14351015Y-11990388D02*
X14351015Y-11933246D01*
X14351015Y-11933246D02*
X14360539Y-11914198D01*
X14360539Y-11914198D02*
X14370063Y-11904674D01*
X14370063Y-11904674D02*
X14389110Y-11895150D01*
X14389110Y-11895150D02*
X14417682Y-11895150D01*
X14417682Y-11895150D02*
X14436730Y-11904674D01*
X14436730Y-11904674D02*
X14446253Y-11914198D01*
X14446253Y-11914198D02*
X14455777Y-11933246D01*
X14455777Y-11933246D02*
X14455777Y-11990388D01*
X14455777Y-11990388D02*
X14446253Y-12009436D01*
X14446253Y-12009436D02*
X14436730Y-12018960D01*
X14436730Y-12018960D02*
X14417682Y-12028484D01*
X14417682Y-12028484D02*
X14389110Y-12028484D01*
X14570063Y-12028484D02*
X14551015Y-12018960D01*
X14551015Y-12018960D02*
X14541491Y-11999912D01*
X14541491Y-11999912D02*
X14541491Y-11828484D01*
X14722444Y-12018960D02*
X14703396Y-12028484D01*
X14703396Y-12028484D02*
X14665301Y-12028484D01*
X14665301Y-12028484D02*
X14646253Y-12018960D01*
X14646253Y-12018960D02*
X14636730Y-11999912D01*
X14636730Y-11999912D02*
X14636730Y-11923722D01*
X14636730Y-11923722D02*
X14646253Y-11904674D01*
X14646253Y-11904674D02*
X14665301Y-11895150D01*
X14665301Y-11895150D02*
X14703396Y-11895150D01*
X14703396Y-11895150D02*
X14722444Y-11904674D01*
X14722444Y-11904674D02*
X14731968Y-11923722D01*
X14731968Y-11923722D02*
X14731968Y-11942769D01*
X14731968Y-11942769D02*
X14636730Y-11961817D01*
X14808158Y-12018960D02*
X14827206Y-12028484D01*
X14827206Y-12028484D02*
X14865301Y-12028484D01*
X14865301Y-12028484D02*
X14884349Y-12018960D01*
X14884349Y-12018960D02*
X14893872Y-11999912D01*
X14893872Y-11999912D02*
X14893872Y-11990388D01*
X14893872Y-11990388D02*
X14884349Y-11971341D01*
X14884349Y-11971341D02*
X14865301Y-11961817D01*
X14865301Y-11961817D02*
X14836730Y-11961817D01*
X14836730Y-11961817D02*
X14817682Y-11952293D01*
X14817682Y-11952293D02*
X14808158Y-11933246D01*
X14808158Y-11933246D02*
X14808158Y-11923722D01*
X14808158Y-11923722D02*
X14817682Y-11904674D01*
X14817682Y-11904674D02*
X14836730Y-11895150D01*
X14836730Y-11895150D02*
X14865301Y-11895150D01*
X14865301Y-11895150D02*
X14884349Y-11904674D01*
X14960539Y-12104674D02*
X14970063Y-12095150D01*
X14970063Y-12095150D02*
X14989111Y-12066579D01*
X14989111Y-12066579D02*
X14998634Y-12047531D01*
X14998634Y-12047531D02*
X15008158Y-12018960D01*
X15008158Y-12018960D02*
X15017682Y-11971341D01*
X15017682Y-11971341D02*
X15017682Y-11933246D01*
X15017682Y-11933246D02*
X15008158Y-11885627D01*
X15008158Y-11885627D02*
X14998634Y-11857055D01*
X14998634Y-11857055D02*
X14989111Y-11838008D01*
X14989111Y-11838008D02*
X14970063Y-11809436D01*
X14970063Y-11809436D02*
X14960539Y-11799912D01*
D10*
X9950000Y-12246000D02*
X9995000Y-12201000D01*
X9950000Y-12156000D01*
X9905000Y-12201000D01*
X9950000Y-12246000D01*
D11*
X10293872Y-12092484D02*
X10312920Y-12092484D01*
X10312920Y-12092484D02*
X10331967Y-12102008D01*
X10331967Y-12102008D02*
X10341491Y-12111531D01*
X10341491Y-12111531D02*
X10351015Y-12130579D01*
X10351015Y-12130579D02*
X10360539Y-12168674D01*
X10360539Y-12168674D02*
X10360539Y-12216293D01*
X10360539Y-12216293D02*
X10351015Y-12254388D01*
X10351015Y-12254388D02*
X10341491Y-12273436D01*
X10341491Y-12273436D02*
X10331967Y-12282960D01*
X10331967Y-12282960D02*
X10312920Y-12292484D01*
X10312920Y-12292484D02*
X10293872Y-12292484D01*
X10293872Y-12292484D02*
X10274824Y-12282960D01*
X10274824Y-12282960D02*
X10265301Y-12273436D01*
X10265301Y-12273436D02*
X10255777Y-12254388D01*
X10255777Y-12254388D02*
X10246253Y-12216293D01*
X10246253Y-12216293D02*
X10246253Y-12168674D01*
X10246253Y-12168674D02*
X10255777Y-12130579D01*
X10255777Y-12130579D02*
X10265301Y-12111531D01*
X10265301Y-12111531D02*
X10274824Y-12102008D01*
X10274824Y-12102008D02*
X10293872Y-12092484D01*
X10446253Y-12273436D02*
X10455777Y-12282960D01*
X10455777Y-12282960D02*
X10446253Y-12292484D01*
X10446253Y-12292484D02*
X10436729Y-12282960D01*
X10436729Y-12282960D02*
X10446253Y-12273436D01*
X10446253Y-12273436D02*
X10446253Y-12292484D01*
X10551015Y-12292484D02*
X10589110Y-12292484D01*
X10589110Y-12292484D02*
X10608158Y-12282960D01*
X10608158Y-12282960D02*
X10617682Y-12273436D01*
X10617682Y-12273436D02*
X10636729Y-12244865D01*
X10636729Y-12244865D02*
X10646253Y-12206769D01*
X10646253Y-12206769D02*
X10646253Y-12130579D01*
X10646253Y-12130579D02*
X10636729Y-12111531D01*
X10636729Y-12111531D02*
X10627205Y-12102008D01*
X10627205Y-12102008D02*
X10608158Y-12092484D01*
X10608158Y-12092484D02*
X10570063Y-12092484D01*
X10570063Y-12092484D02*
X10551015Y-12102008D01*
X10551015Y-12102008D02*
X10541491Y-12111531D01*
X10541491Y-12111531D02*
X10531967Y-12130579D01*
X10531967Y-12130579D02*
X10531967Y-12178198D01*
X10531967Y-12178198D02*
X10541491Y-12197246D01*
X10541491Y-12197246D02*
X10551015Y-12206769D01*
X10551015Y-12206769D02*
X10570063Y-12216293D01*
X10570063Y-12216293D02*
X10608158Y-12216293D01*
X10608158Y-12216293D02*
X10627205Y-12206769D01*
X10627205Y-12206769D02*
X10636729Y-12197246D01*
X10636729Y-12197246D02*
X10646253Y-12178198D01*
X10770063Y-12092484D02*
X10789110Y-12092484D01*
X10789110Y-12092484D02*
X10808158Y-12102008D01*
X10808158Y-12102008D02*
X10817682Y-12111531D01*
X10817682Y-12111531D02*
X10827205Y-12130579D01*
X10827205Y-12130579D02*
X10836729Y-12168674D01*
X10836729Y-12168674D02*
X10836729Y-12216293D01*
X10836729Y-12216293D02*
X10827205Y-12254388D01*
X10827205Y-12254388D02*
X10817682Y-12273436D01*
X10817682Y-12273436D02*
X10808158Y-12282960D01*
X10808158Y-12282960D02*
X10789110Y-12292484D01*
X10789110Y-12292484D02*
X10770063Y-12292484D01*
X10770063Y-12292484D02*
X10751015Y-12282960D01*
X10751015Y-12282960D02*
X10741491Y-12273436D01*
X10741491Y-12273436D02*
X10731967Y-12254388D01*
X10731967Y-12254388D02*
X10722444Y-12216293D01*
X10722444Y-12216293D02*
X10722444Y-12168674D01*
X10722444Y-12168674D02*
X10731967Y-12130579D01*
X10731967Y-12130579D02*
X10741491Y-12111531D01*
X10741491Y-12111531D02*
X10751015Y-12102008D01*
X10751015Y-12102008D02*
X10770063Y-12092484D01*
X10960539Y-12092484D02*
X10979586Y-12092484D01*
X10979586Y-12092484D02*
X10998634Y-12102008D01*
X10998634Y-12102008D02*
X11008158Y-12111531D01*
X11008158Y-12111531D02*
X11017682Y-12130579D01*
X11017682Y-12130579D02*
X11027205Y-12168674D01*
X11027205Y-12168674D02*
X11027205Y-12216293D01*
X11027205Y-12216293D02*
X11017682Y-12254388D01*
X11017682Y-12254388D02*
X11008158Y-12273436D01*
X11008158Y-12273436D02*
X10998634Y-12282960D01*
X10998634Y-12282960D02*
X10979586Y-12292484D01*
X10979586Y-12292484D02*
X10960539Y-12292484D01*
X10960539Y-12292484D02*
X10941491Y-12282960D01*
X10941491Y-12282960D02*
X10931967Y-12273436D01*
X10931967Y-12273436D02*
X10922444Y-12254388D01*
X10922444Y-12254388D02*
X10912920Y-12216293D01*
X10912920Y-12216293D02*
X10912920Y-12168674D01*
X10912920Y-12168674D02*
X10922444Y-12130579D01*
X10922444Y-12130579D02*
X10931967Y-12111531D01*
X10931967Y-12111531D02*
X10941491Y-12102008D01*
X10941491Y-12102008D02*
X10960539Y-12092484D01*
X11112920Y-12292484D02*
X11112920Y-12159150D01*
X11112920Y-12178198D02*
X11122444Y-12168674D01*
X11122444Y-12168674D02*
X11141491Y-12159150D01*
X11141491Y-12159150D02*
X11170063Y-12159150D01*
X11170063Y-12159150D02*
X11189110Y-12168674D01*
X11189110Y-12168674D02*
X11198634Y-12187722D01*
X11198634Y-12187722D02*
X11198634Y-12292484D01*
X11198634Y-12187722D02*
X11208158Y-12168674D01*
X11208158Y-12168674D02*
X11227205Y-12159150D01*
X11227205Y-12159150D02*
X11255777Y-12159150D01*
X11255777Y-12159150D02*
X11274824Y-12168674D01*
X11274824Y-12168674D02*
X11284348Y-12187722D01*
X11284348Y-12187722D02*
X11284348Y-12292484D01*
X11379586Y-12292484D02*
X11379586Y-12159150D01*
X11379586Y-12178198D02*
X11389110Y-12168674D01*
X11389110Y-12168674D02*
X11408158Y-12159150D01*
X11408158Y-12159150D02*
X11436729Y-12159150D01*
X11436729Y-12159150D02*
X11455777Y-12168674D01*
X11455777Y-12168674D02*
X11465301Y-12187722D01*
X11465301Y-12187722D02*
X11465301Y-12292484D01*
X11465301Y-12187722D02*
X11474824Y-12168674D01*
X11474824Y-12168674D02*
X11493872Y-12159150D01*
X11493872Y-12159150D02*
X11522443Y-12159150D01*
X11522443Y-12159150D02*
X11541491Y-12168674D01*
X11541491Y-12168674D02*
X11551015Y-12187722D01*
X11551015Y-12187722D02*
X11551015Y-12292484D01*
X11941491Y-12082960D02*
X11770063Y-12340103D01*
X12198634Y-12092484D02*
X12217682Y-12092484D01*
X12217682Y-12092484D02*
X12236729Y-12102008D01*
X12236729Y-12102008D02*
X12246253Y-12111531D01*
X12246253Y-12111531D02*
X12255777Y-12130579D01*
X12255777Y-12130579D02*
X12265301Y-12168674D01*
X12265301Y-12168674D02*
X12265301Y-12216293D01*
X12265301Y-12216293D02*
X12255777Y-12254388D01*
X12255777Y-12254388D02*
X12246253Y-12273436D01*
X12246253Y-12273436D02*
X12236729Y-12282960D01*
X12236729Y-12282960D02*
X12217682Y-12292484D01*
X12217682Y-12292484D02*
X12198634Y-12292484D01*
X12198634Y-12292484D02*
X12179586Y-12282960D01*
X12179586Y-12282960D02*
X12170063Y-12273436D01*
X12170063Y-12273436D02*
X12160539Y-12254388D01*
X12160539Y-12254388D02*
X12151015Y-12216293D01*
X12151015Y-12216293D02*
X12151015Y-12168674D01*
X12151015Y-12168674D02*
X12160539Y-12130579D01*
X12160539Y-12130579D02*
X12170063Y-12111531D01*
X12170063Y-12111531D02*
X12179586Y-12102008D01*
X12179586Y-12102008D02*
X12198634Y-12092484D01*
X12351015Y-12273436D02*
X12360539Y-12282960D01*
X12360539Y-12282960D02*
X12351015Y-12292484D01*
X12351015Y-12292484D02*
X12341491Y-12282960D01*
X12341491Y-12282960D02*
X12351015Y-12273436D01*
X12351015Y-12273436D02*
X12351015Y-12292484D01*
X12484348Y-12092484D02*
X12503396Y-12092484D01*
X12503396Y-12092484D02*
X12522444Y-12102008D01*
X12522444Y-12102008D02*
X12531967Y-12111531D01*
X12531967Y-12111531D02*
X12541491Y-12130579D01*
X12541491Y-12130579D02*
X12551015Y-12168674D01*
X12551015Y-12168674D02*
X12551015Y-12216293D01*
X12551015Y-12216293D02*
X12541491Y-12254388D01*
X12541491Y-12254388D02*
X12531967Y-12273436D01*
X12531967Y-12273436D02*
X12522444Y-12282960D01*
X12522444Y-12282960D02*
X12503396Y-12292484D01*
X12503396Y-12292484D02*
X12484348Y-12292484D01*
X12484348Y-12292484D02*
X12465301Y-12282960D01*
X12465301Y-12282960D02*
X12455777Y-12273436D01*
X12455777Y-12273436D02*
X12446253Y-12254388D01*
X12446253Y-12254388D02*
X12436729Y-12216293D01*
X12436729Y-12216293D02*
X12436729Y-12168674D01*
X12436729Y-12168674D02*
X12446253Y-12130579D01*
X12446253Y-12130579D02*
X12455777Y-12111531D01*
X12455777Y-12111531D02*
X12465301Y-12102008D01*
X12465301Y-12102008D02*
X12484348Y-12092484D01*
X12617682Y-12092484D02*
X12741491Y-12092484D01*
X12741491Y-12092484D02*
X12674825Y-12168674D01*
X12674825Y-12168674D02*
X12703396Y-12168674D01*
X12703396Y-12168674D02*
X12722444Y-12178198D01*
X12722444Y-12178198D02*
X12731967Y-12187722D01*
X12731967Y-12187722D02*
X12741491Y-12206769D01*
X12741491Y-12206769D02*
X12741491Y-12254388D01*
X12741491Y-12254388D02*
X12731967Y-12273436D01*
X12731967Y-12273436D02*
X12722444Y-12282960D01*
X12722444Y-12282960D02*
X12703396Y-12292484D01*
X12703396Y-12292484D02*
X12646253Y-12292484D01*
X12646253Y-12292484D02*
X12627206Y-12282960D01*
X12627206Y-12282960D02*
X12617682Y-12273436D01*
X12922444Y-12092484D02*
X12827206Y-12092484D01*
X12827206Y-12092484D02*
X12817682Y-12187722D01*
X12817682Y-12187722D02*
X12827206Y-12178198D01*
X12827206Y-12178198D02*
X12846253Y-12168674D01*
X12846253Y-12168674D02*
X12893872Y-12168674D01*
X12893872Y-12168674D02*
X12912920Y-12178198D01*
X12912920Y-12178198D02*
X12922444Y-12187722D01*
X12922444Y-12187722D02*
X12931967Y-12206769D01*
X12931967Y-12206769D02*
X12931967Y-12254388D01*
X12931967Y-12254388D02*
X12922444Y-12273436D01*
X12922444Y-12273436D02*
X12912920Y-12282960D01*
X12912920Y-12282960D02*
X12893872Y-12292484D01*
X12893872Y-12292484D02*
X12846253Y-12292484D01*
X12846253Y-12292484D02*
X12827206Y-12282960D01*
X12827206Y-12282960D02*
X12817682Y-12273436D01*
X13103396Y-12159150D02*
X13103396Y-12292484D01*
X13055777Y-12082960D02*
X13008158Y-12225817D01*
X13008158Y-12225817D02*
X13131967Y-12225817D01*
X13198634Y-12092484D02*
X13198634Y-12130579D01*
X13274825Y-12092484D02*
X13274825Y-12130579D01*
X13570063Y-12368674D02*
X13560539Y-12359150D01*
X13560539Y-12359150D02*
X13541491Y-12330579D01*
X13541491Y-12330579D02*
X13531968Y-12311531D01*
X13531968Y-12311531D02*
X13522444Y-12282960D01*
X13522444Y-12282960D02*
X13512920Y-12235341D01*
X13512920Y-12235341D02*
X13512920Y-12197246D01*
X13512920Y-12197246D02*
X13522444Y-12149627D01*
X13522444Y-12149627D02*
X13531968Y-12121055D01*
X13531968Y-12121055D02*
X13541491Y-12102008D01*
X13541491Y-12102008D02*
X13560539Y-12073436D01*
X13560539Y-12073436D02*
X13570063Y-12063912D01*
X13674825Y-12178198D02*
X13655777Y-12168674D01*
X13655777Y-12168674D02*
X13646253Y-12159150D01*
X13646253Y-12159150D02*
X13636729Y-12140103D01*
X13636729Y-12140103D02*
X13636729Y-12130579D01*
X13636729Y-12130579D02*
X13646253Y-12111531D01*
X13646253Y-12111531D02*
X13655777Y-12102008D01*
X13655777Y-12102008D02*
X13674825Y-12092484D01*
X13674825Y-12092484D02*
X13712920Y-12092484D01*
X13712920Y-12092484D02*
X13731968Y-12102008D01*
X13731968Y-12102008D02*
X13741491Y-12111531D01*
X13741491Y-12111531D02*
X13751015Y-12130579D01*
X13751015Y-12130579D02*
X13751015Y-12140103D01*
X13751015Y-12140103D02*
X13741491Y-12159150D01*
X13741491Y-12159150D02*
X13731968Y-12168674D01*
X13731968Y-12168674D02*
X13712920Y-12178198D01*
X13712920Y-12178198D02*
X13674825Y-12178198D01*
X13674825Y-12178198D02*
X13655777Y-12187722D01*
X13655777Y-12187722D02*
X13646253Y-12197246D01*
X13646253Y-12197246D02*
X13636729Y-12216293D01*
X13636729Y-12216293D02*
X13636729Y-12254388D01*
X13636729Y-12254388D02*
X13646253Y-12273436D01*
X13646253Y-12273436D02*
X13655777Y-12282960D01*
X13655777Y-12282960D02*
X13674825Y-12292484D01*
X13674825Y-12292484D02*
X13712920Y-12292484D01*
X13712920Y-12292484D02*
X13731968Y-12282960D01*
X13731968Y-12282960D02*
X13741491Y-12273436D01*
X13741491Y-12273436D02*
X13751015Y-12254388D01*
X13751015Y-12254388D02*
X13751015Y-12216293D01*
X13751015Y-12216293D02*
X13741491Y-12197246D01*
X13741491Y-12197246D02*
X13731968Y-12187722D01*
X13731968Y-12187722D02*
X13712920Y-12178198D01*
X13989110Y-12292484D02*
X13989110Y-12092484D01*
X14074825Y-12292484D02*
X14074825Y-12187722D01*
X14074825Y-12187722D02*
X14065301Y-12168674D01*
X14065301Y-12168674D02*
X14046253Y-12159150D01*
X14046253Y-12159150D02*
X14017682Y-12159150D01*
X14017682Y-12159150D02*
X13998634Y-12168674D01*
X13998634Y-12168674D02*
X13989110Y-12178198D01*
X14198634Y-12292484D02*
X14179587Y-12282960D01*
X14179587Y-12282960D02*
X14170063Y-12273436D01*
X14170063Y-12273436D02*
X14160539Y-12254388D01*
X14160539Y-12254388D02*
X14160539Y-12197246D01*
X14160539Y-12197246D02*
X14170063Y-12178198D01*
X14170063Y-12178198D02*
X14179587Y-12168674D01*
X14179587Y-12168674D02*
X14198634Y-12159150D01*
X14198634Y-12159150D02*
X14227206Y-12159150D01*
X14227206Y-12159150D02*
X14246253Y-12168674D01*
X14246253Y-12168674D02*
X14255777Y-12178198D01*
X14255777Y-12178198D02*
X14265301Y-12197246D01*
X14265301Y-12197246D02*
X14265301Y-12254388D01*
X14265301Y-12254388D02*
X14255777Y-12273436D01*
X14255777Y-12273436D02*
X14246253Y-12282960D01*
X14246253Y-12282960D02*
X14227206Y-12292484D01*
X14227206Y-12292484D02*
X14198634Y-12292484D01*
X14379587Y-12292484D02*
X14360539Y-12282960D01*
X14360539Y-12282960D02*
X14351015Y-12263912D01*
X14351015Y-12263912D02*
X14351015Y-12092484D01*
X14531968Y-12282960D02*
X14512920Y-12292484D01*
X14512920Y-12292484D02*
X14474825Y-12292484D01*
X14474825Y-12292484D02*
X14455777Y-12282960D01*
X14455777Y-12282960D02*
X14446253Y-12263912D01*
X14446253Y-12263912D02*
X14446253Y-12187722D01*
X14446253Y-12187722D02*
X14455777Y-12168674D01*
X14455777Y-12168674D02*
X14474825Y-12159150D01*
X14474825Y-12159150D02*
X14512920Y-12159150D01*
X14512920Y-12159150D02*
X14531968Y-12168674D01*
X14531968Y-12168674D02*
X14541491Y-12187722D01*
X14541491Y-12187722D02*
X14541491Y-12206769D01*
X14541491Y-12206769D02*
X14446253Y-12225817D01*
X14617682Y-12282960D02*
X14636730Y-12292484D01*
X14636730Y-12292484D02*
X14674825Y-12292484D01*
X14674825Y-12292484D02*
X14693872Y-12282960D01*
X14693872Y-12282960D02*
X14703396Y-12263912D01*
X14703396Y-12263912D02*
X14703396Y-12254388D01*
X14703396Y-12254388D02*
X14693872Y-12235341D01*
X14693872Y-12235341D02*
X14674825Y-12225817D01*
X14674825Y-12225817D02*
X14646253Y-12225817D01*
X14646253Y-12225817D02*
X14627206Y-12216293D01*
X14627206Y-12216293D02*
X14617682Y-12197246D01*
X14617682Y-12197246D02*
X14617682Y-12187722D01*
X14617682Y-12187722D02*
X14627206Y-12168674D01*
X14627206Y-12168674D02*
X14646253Y-12159150D01*
X14646253Y-12159150D02*
X14674825Y-12159150D01*
X14674825Y-12159150D02*
X14693872Y-12168674D01*
X14770063Y-12368674D02*
X14779587Y-12359150D01*
X14779587Y-12359150D02*
X14798634Y-12330579D01*
X14798634Y-12330579D02*
X14808158Y-12311531D01*
X14808158Y-12311531D02*
X14817682Y-12282960D01*
X14817682Y-12282960D02*
X14827206Y-12235341D01*
X14827206Y-12235341D02*
X14827206Y-12197246D01*
X14827206Y-12197246D02*
X14817682Y-12149627D01*
X14817682Y-12149627D02*
X14808158Y-12121055D01*
X14808158Y-12121055D02*
X14798634Y-12102008D01*
X14798634Y-12102008D02*
X14779587Y-12073436D01*
X14779587Y-12073436D02*
X14770063Y-12063912D01*
D10*
X9895000Y-12415000D02*
X9995000Y-12515000D01*
X9995000Y-12415000D02*
X9895000Y-12515000D01*
X9995000Y-12465000D02*
G75*
G02*
X9895000Y-12465000I-50000J0D01*
G01*
X9895000Y-12465000D02*
G75*
G02*
X9995000Y-12465000I50000J0D01*
G01*
D11*
X10360539Y-12556484D02*
X10246253Y-12556484D01*
X10303396Y-12556484D02*
X10303396Y-12356484D01*
X10303396Y-12356484D02*
X10284348Y-12385055D01*
X10284348Y-12385055D02*
X10265301Y-12404103D01*
X10265301Y-12404103D02*
X10246253Y-12413627D01*
X10446253Y-12537436D02*
X10455777Y-12546960D01*
X10455777Y-12546960D02*
X10446253Y-12556484D01*
X10446253Y-12556484D02*
X10436729Y-12546960D01*
X10436729Y-12546960D02*
X10446253Y-12537436D01*
X10446253Y-12537436D02*
X10446253Y-12556484D01*
X10579586Y-12356484D02*
X10598634Y-12356484D01*
X10598634Y-12356484D02*
X10617682Y-12366008D01*
X10617682Y-12366008D02*
X10627205Y-12375531D01*
X10627205Y-12375531D02*
X10636729Y-12394579D01*
X10636729Y-12394579D02*
X10646253Y-12432674D01*
X10646253Y-12432674D02*
X10646253Y-12480293D01*
X10646253Y-12480293D02*
X10636729Y-12518388D01*
X10636729Y-12518388D02*
X10627205Y-12537436D01*
X10627205Y-12537436D02*
X10617682Y-12546960D01*
X10617682Y-12546960D02*
X10598634Y-12556484D01*
X10598634Y-12556484D02*
X10579586Y-12556484D01*
X10579586Y-12556484D02*
X10560539Y-12546960D01*
X10560539Y-12546960D02*
X10551015Y-12537436D01*
X10551015Y-12537436D02*
X10541491Y-12518388D01*
X10541491Y-12518388D02*
X10531967Y-12480293D01*
X10531967Y-12480293D02*
X10531967Y-12432674D01*
X10531967Y-12432674D02*
X10541491Y-12394579D01*
X10541491Y-12394579D02*
X10551015Y-12375531D01*
X10551015Y-12375531D02*
X10560539Y-12366008D01*
X10560539Y-12366008D02*
X10579586Y-12356484D01*
X10770063Y-12356484D02*
X10789110Y-12356484D01*
X10789110Y-12356484D02*
X10808158Y-12366008D01*
X10808158Y-12366008D02*
X10817682Y-12375531D01*
X10817682Y-12375531D02*
X10827205Y-12394579D01*
X10827205Y-12394579D02*
X10836729Y-12432674D01*
X10836729Y-12432674D02*
X10836729Y-12480293D01*
X10836729Y-12480293D02*
X10827205Y-12518388D01*
X10827205Y-12518388D02*
X10817682Y-12537436D01*
X10817682Y-12537436D02*
X10808158Y-12546960D01*
X10808158Y-12546960D02*
X10789110Y-12556484D01*
X10789110Y-12556484D02*
X10770063Y-12556484D01*
X10770063Y-12556484D02*
X10751015Y-12546960D01*
X10751015Y-12546960D02*
X10741491Y-12537436D01*
X10741491Y-12537436D02*
X10731967Y-12518388D01*
X10731967Y-12518388D02*
X10722444Y-12480293D01*
X10722444Y-12480293D02*
X10722444Y-12432674D01*
X10722444Y-12432674D02*
X10731967Y-12394579D01*
X10731967Y-12394579D02*
X10741491Y-12375531D01*
X10741491Y-12375531D02*
X10751015Y-12366008D01*
X10751015Y-12366008D02*
X10770063Y-12356484D01*
X10960539Y-12356484D02*
X10979586Y-12356484D01*
X10979586Y-12356484D02*
X10998634Y-12366008D01*
X10998634Y-12366008D02*
X11008158Y-12375531D01*
X11008158Y-12375531D02*
X11017682Y-12394579D01*
X11017682Y-12394579D02*
X11027205Y-12432674D01*
X11027205Y-12432674D02*
X11027205Y-12480293D01*
X11027205Y-12480293D02*
X11017682Y-12518388D01*
X11017682Y-12518388D02*
X11008158Y-12537436D01*
X11008158Y-12537436D02*
X10998634Y-12546960D01*
X10998634Y-12546960D02*
X10979586Y-12556484D01*
X10979586Y-12556484D02*
X10960539Y-12556484D01*
X10960539Y-12556484D02*
X10941491Y-12546960D01*
X10941491Y-12546960D02*
X10931967Y-12537436D01*
X10931967Y-12537436D02*
X10922444Y-12518388D01*
X10922444Y-12518388D02*
X10912920Y-12480293D01*
X10912920Y-12480293D02*
X10912920Y-12432674D01*
X10912920Y-12432674D02*
X10922444Y-12394579D01*
X10922444Y-12394579D02*
X10931967Y-12375531D01*
X10931967Y-12375531D02*
X10941491Y-12366008D01*
X10941491Y-12366008D02*
X10960539Y-12356484D01*
X11112920Y-12556484D02*
X11112920Y-12423150D01*
X11112920Y-12442198D02*
X11122444Y-12432674D01*
X11122444Y-12432674D02*
X11141491Y-12423150D01*
X11141491Y-12423150D02*
X11170063Y-12423150D01*
X11170063Y-12423150D02*
X11189110Y-12432674D01*
X11189110Y-12432674D02*
X11198634Y-12451722D01*
X11198634Y-12451722D02*
X11198634Y-12556484D01*
X11198634Y-12451722D02*
X11208158Y-12432674D01*
X11208158Y-12432674D02*
X11227205Y-12423150D01*
X11227205Y-12423150D02*
X11255777Y-12423150D01*
X11255777Y-12423150D02*
X11274824Y-12432674D01*
X11274824Y-12432674D02*
X11284348Y-12451722D01*
X11284348Y-12451722D02*
X11284348Y-12556484D01*
X11379586Y-12556484D02*
X11379586Y-12423150D01*
X11379586Y-12442198D02*
X11389110Y-12432674D01*
X11389110Y-12432674D02*
X11408158Y-12423150D01*
X11408158Y-12423150D02*
X11436729Y-12423150D01*
X11436729Y-12423150D02*
X11455777Y-12432674D01*
X11455777Y-12432674D02*
X11465301Y-12451722D01*
X11465301Y-12451722D02*
X11465301Y-12556484D01*
X11465301Y-12451722D02*
X11474824Y-12432674D01*
X11474824Y-12432674D02*
X11493872Y-12423150D01*
X11493872Y-12423150D02*
X11522443Y-12423150D01*
X11522443Y-12423150D02*
X11541491Y-12432674D01*
X11541491Y-12432674D02*
X11551015Y-12451722D01*
X11551015Y-12451722D02*
X11551015Y-12556484D01*
X11941491Y-12346960D02*
X11770063Y-12604103D01*
X12198634Y-12356484D02*
X12217682Y-12356484D01*
X12217682Y-12356484D02*
X12236729Y-12366008D01*
X12236729Y-12366008D02*
X12246253Y-12375531D01*
X12246253Y-12375531D02*
X12255777Y-12394579D01*
X12255777Y-12394579D02*
X12265301Y-12432674D01*
X12265301Y-12432674D02*
X12265301Y-12480293D01*
X12265301Y-12480293D02*
X12255777Y-12518388D01*
X12255777Y-12518388D02*
X12246253Y-12537436D01*
X12246253Y-12537436D02*
X12236729Y-12546960D01*
X12236729Y-12546960D02*
X12217682Y-12556484D01*
X12217682Y-12556484D02*
X12198634Y-12556484D01*
X12198634Y-12556484D02*
X12179586Y-12546960D01*
X12179586Y-12546960D02*
X12170063Y-12537436D01*
X12170063Y-12537436D02*
X12160539Y-12518388D01*
X12160539Y-12518388D02*
X12151015Y-12480293D01*
X12151015Y-12480293D02*
X12151015Y-12432674D01*
X12151015Y-12432674D02*
X12160539Y-12394579D01*
X12160539Y-12394579D02*
X12170063Y-12375531D01*
X12170063Y-12375531D02*
X12179586Y-12366008D01*
X12179586Y-12366008D02*
X12198634Y-12356484D01*
X12351015Y-12537436D02*
X12360539Y-12546960D01*
X12360539Y-12546960D02*
X12351015Y-12556484D01*
X12351015Y-12556484D02*
X12341491Y-12546960D01*
X12341491Y-12546960D02*
X12351015Y-12537436D01*
X12351015Y-12537436D02*
X12351015Y-12556484D01*
X12484348Y-12356484D02*
X12503396Y-12356484D01*
X12503396Y-12356484D02*
X12522444Y-12366008D01*
X12522444Y-12366008D02*
X12531967Y-12375531D01*
X12531967Y-12375531D02*
X12541491Y-12394579D01*
X12541491Y-12394579D02*
X12551015Y-12432674D01*
X12551015Y-12432674D02*
X12551015Y-12480293D01*
X12551015Y-12480293D02*
X12541491Y-12518388D01*
X12541491Y-12518388D02*
X12531967Y-12537436D01*
X12531967Y-12537436D02*
X12522444Y-12546960D01*
X12522444Y-12546960D02*
X12503396Y-12556484D01*
X12503396Y-12556484D02*
X12484348Y-12556484D01*
X12484348Y-12556484D02*
X12465301Y-12546960D01*
X12465301Y-12546960D02*
X12455777Y-12537436D01*
X12455777Y-12537436D02*
X12446253Y-12518388D01*
X12446253Y-12518388D02*
X12436729Y-12480293D01*
X12436729Y-12480293D02*
X12436729Y-12432674D01*
X12436729Y-12432674D02*
X12446253Y-12394579D01*
X12446253Y-12394579D02*
X12455777Y-12375531D01*
X12455777Y-12375531D02*
X12465301Y-12366008D01*
X12465301Y-12366008D02*
X12484348Y-12356484D01*
X12617682Y-12356484D02*
X12741491Y-12356484D01*
X12741491Y-12356484D02*
X12674825Y-12432674D01*
X12674825Y-12432674D02*
X12703396Y-12432674D01*
X12703396Y-12432674D02*
X12722444Y-12442198D01*
X12722444Y-12442198D02*
X12731967Y-12451722D01*
X12731967Y-12451722D02*
X12741491Y-12470769D01*
X12741491Y-12470769D02*
X12741491Y-12518388D01*
X12741491Y-12518388D02*
X12731967Y-12537436D01*
X12731967Y-12537436D02*
X12722444Y-12546960D01*
X12722444Y-12546960D02*
X12703396Y-12556484D01*
X12703396Y-12556484D02*
X12646253Y-12556484D01*
X12646253Y-12556484D02*
X12627206Y-12546960D01*
X12627206Y-12546960D02*
X12617682Y-12537436D01*
X12836729Y-12556484D02*
X12874825Y-12556484D01*
X12874825Y-12556484D02*
X12893872Y-12546960D01*
X12893872Y-12546960D02*
X12903396Y-12537436D01*
X12903396Y-12537436D02*
X12922444Y-12508865D01*
X12922444Y-12508865D02*
X12931967Y-12470769D01*
X12931967Y-12470769D02*
X12931967Y-12394579D01*
X12931967Y-12394579D02*
X12922444Y-12375531D01*
X12922444Y-12375531D02*
X12912920Y-12366008D01*
X12912920Y-12366008D02*
X12893872Y-12356484D01*
X12893872Y-12356484D02*
X12855777Y-12356484D01*
X12855777Y-12356484D02*
X12836729Y-12366008D01*
X12836729Y-12366008D02*
X12827206Y-12375531D01*
X12827206Y-12375531D02*
X12817682Y-12394579D01*
X12817682Y-12394579D02*
X12817682Y-12442198D01*
X12817682Y-12442198D02*
X12827206Y-12461246D01*
X12827206Y-12461246D02*
X12836729Y-12470769D01*
X12836729Y-12470769D02*
X12855777Y-12480293D01*
X12855777Y-12480293D02*
X12893872Y-12480293D01*
X12893872Y-12480293D02*
X12912920Y-12470769D01*
X12912920Y-12470769D02*
X12922444Y-12461246D01*
X12922444Y-12461246D02*
X12931967Y-12442198D01*
X13103396Y-12423150D02*
X13103396Y-12556484D01*
X13055777Y-12346960D02*
X13008158Y-12489817D01*
X13008158Y-12489817D02*
X13131967Y-12489817D01*
X13198634Y-12356484D02*
X13198634Y-12394579D01*
X13274825Y-12356484D02*
X13274825Y-12394579D01*
X13570063Y-12632674D02*
X13560539Y-12623150D01*
X13560539Y-12623150D02*
X13541491Y-12594579D01*
X13541491Y-12594579D02*
X13531968Y-12575531D01*
X13531968Y-12575531D02*
X13522444Y-12546960D01*
X13522444Y-12546960D02*
X13512920Y-12499341D01*
X13512920Y-12499341D02*
X13512920Y-12461246D01*
X13512920Y-12461246D02*
X13522444Y-12413627D01*
X13522444Y-12413627D02*
X13531968Y-12385055D01*
X13531968Y-12385055D02*
X13541491Y-12366008D01*
X13541491Y-12366008D02*
X13560539Y-12337436D01*
X13560539Y-12337436D02*
X13570063Y-12327912D01*
X13627206Y-12356484D02*
X13751015Y-12356484D01*
X13751015Y-12356484D02*
X13684348Y-12432674D01*
X13684348Y-12432674D02*
X13712920Y-12432674D01*
X13712920Y-12432674D02*
X13731968Y-12442198D01*
X13731968Y-12442198D02*
X13741491Y-12451722D01*
X13741491Y-12451722D02*
X13751015Y-12470769D01*
X13751015Y-12470769D02*
X13751015Y-12518388D01*
X13751015Y-12518388D02*
X13741491Y-12537436D01*
X13741491Y-12537436D02*
X13731968Y-12546960D01*
X13731968Y-12546960D02*
X13712920Y-12556484D01*
X13712920Y-12556484D02*
X13655777Y-12556484D01*
X13655777Y-12556484D02*
X13636729Y-12546960D01*
X13636729Y-12546960D02*
X13627206Y-12537436D01*
X13989110Y-12556484D02*
X13989110Y-12356484D01*
X14074825Y-12556484D02*
X14074825Y-12451722D01*
X14074825Y-12451722D02*
X14065301Y-12432674D01*
X14065301Y-12432674D02*
X14046253Y-12423150D01*
X14046253Y-12423150D02*
X14017682Y-12423150D01*
X14017682Y-12423150D02*
X13998634Y-12432674D01*
X13998634Y-12432674D02*
X13989110Y-12442198D01*
X14198634Y-12556484D02*
X14179587Y-12546960D01*
X14179587Y-12546960D02*
X14170063Y-12537436D01*
X14170063Y-12537436D02*
X14160539Y-12518388D01*
X14160539Y-12518388D02*
X14160539Y-12461246D01*
X14160539Y-12461246D02*
X14170063Y-12442198D01*
X14170063Y-12442198D02*
X14179587Y-12432674D01*
X14179587Y-12432674D02*
X14198634Y-12423150D01*
X14198634Y-12423150D02*
X14227206Y-12423150D01*
X14227206Y-12423150D02*
X14246253Y-12432674D01*
X14246253Y-12432674D02*
X14255777Y-12442198D01*
X14255777Y-12442198D02*
X14265301Y-12461246D01*
X14265301Y-12461246D02*
X14265301Y-12518388D01*
X14265301Y-12518388D02*
X14255777Y-12537436D01*
X14255777Y-12537436D02*
X14246253Y-12546960D01*
X14246253Y-12546960D02*
X14227206Y-12556484D01*
X14227206Y-12556484D02*
X14198634Y-12556484D01*
X14379587Y-12556484D02*
X14360539Y-12546960D01*
X14360539Y-12546960D02*
X14351015Y-12527912D01*
X14351015Y-12527912D02*
X14351015Y-12356484D01*
X14531968Y-12546960D02*
X14512920Y-12556484D01*
X14512920Y-12556484D02*
X14474825Y-12556484D01*
X14474825Y-12556484D02*
X14455777Y-12546960D01*
X14455777Y-12546960D02*
X14446253Y-12527912D01*
X14446253Y-12527912D02*
X14446253Y-12451722D01*
X14446253Y-12451722D02*
X14455777Y-12432674D01*
X14455777Y-12432674D02*
X14474825Y-12423150D01*
X14474825Y-12423150D02*
X14512920Y-12423150D01*
X14512920Y-12423150D02*
X14531968Y-12432674D01*
X14531968Y-12432674D02*
X14541491Y-12451722D01*
X14541491Y-12451722D02*
X14541491Y-12470769D01*
X14541491Y-12470769D02*
X14446253Y-12489817D01*
X14617682Y-12546960D02*
X14636730Y-12556484D01*
X14636730Y-12556484D02*
X14674825Y-12556484D01*
X14674825Y-12556484D02*
X14693872Y-12546960D01*
X14693872Y-12546960D02*
X14703396Y-12527912D01*
X14703396Y-12527912D02*
X14703396Y-12518388D01*
X14703396Y-12518388D02*
X14693872Y-12499341D01*
X14693872Y-12499341D02*
X14674825Y-12489817D01*
X14674825Y-12489817D02*
X14646253Y-12489817D01*
X14646253Y-12489817D02*
X14627206Y-12480293D01*
X14627206Y-12480293D02*
X14617682Y-12461246D01*
X14617682Y-12461246D02*
X14617682Y-12451722D01*
X14617682Y-12451722D02*
X14627206Y-12432674D01*
X14627206Y-12432674D02*
X14646253Y-12423150D01*
X14646253Y-12423150D02*
X14674825Y-12423150D01*
X14674825Y-12423150D02*
X14693872Y-12432674D01*
X14770063Y-12632674D02*
X14779587Y-12623150D01*
X14779587Y-12623150D02*
X14798634Y-12594579D01*
X14798634Y-12594579D02*
X14808158Y-12575531D01*
X14808158Y-12575531D02*
X14817682Y-12546960D01*
X14817682Y-12546960D02*
X14827206Y-12499341D01*
X14827206Y-12499341D02*
X14827206Y-12461246D01*
X14827206Y-12461246D02*
X14817682Y-12413627D01*
X14817682Y-12413627D02*
X14808158Y-12385055D01*
X14808158Y-12385055D02*
X14798634Y-12366008D01*
X14798634Y-12366008D02*
X14779587Y-12337436D01*
X14779587Y-12337436D02*
X14770063Y-12327912D01*
D12*
X9893000Y-12678000D02*
X9995000Y-12780000D01*
X9995000Y-12678000D02*
X9893000Y-12780000D01*
X9944000Y-12678000D02*
X9944000Y-12780000D01*
X9893000Y-12729000D02*
X9995000Y-12729000D01*
D11*
X10360539Y-12820484D02*
X10246253Y-12820484D01*
X10303396Y-12820484D02*
X10303396Y-12620484D01*
X10303396Y-12620484D02*
X10284348Y-12649055D01*
X10284348Y-12649055D02*
X10265301Y-12668103D01*
X10265301Y-12668103D02*
X10246253Y-12677627D01*
X10446253Y-12801436D02*
X10455777Y-12810960D01*
X10455777Y-12810960D02*
X10446253Y-12820484D01*
X10446253Y-12820484D02*
X10436729Y-12810960D01*
X10436729Y-12810960D02*
X10446253Y-12801436D01*
X10446253Y-12801436D02*
X10446253Y-12820484D01*
X10579586Y-12620484D02*
X10598634Y-12620484D01*
X10598634Y-12620484D02*
X10617682Y-12630008D01*
X10617682Y-12630008D02*
X10627205Y-12639531D01*
X10627205Y-12639531D02*
X10636729Y-12658579D01*
X10636729Y-12658579D02*
X10646253Y-12696674D01*
X10646253Y-12696674D02*
X10646253Y-12744293D01*
X10646253Y-12744293D02*
X10636729Y-12782388D01*
X10636729Y-12782388D02*
X10627205Y-12801436D01*
X10627205Y-12801436D02*
X10617682Y-12810960D01*
X10617682Y-12810960D02*
X10598634Y-12820484D01*
X10598634Y-12820484D02*
X10579586Y-12820484D01*
X10579586Y-12820484D02*
X10560539Y-12810960D01*
X10560539Y-12810960D02*
X10551015Y-12801436D01*
X10551015Y-12801436D02*
X10541491Y-12782388D01*
X10541491Y-12782388D02*
X10531967Y-12744293D01*
X10531967Y-12744293D02*
X10531967Y-12696674D01*
X10531967Y-12696674D02*
X10541491Y-12658579D01*
X10541491Y-12658579D02*
X10551015Y-12639531D01*
X10551015Y-12639531D02*
X10560539Y-12630008D01*
X10560539Y-12630008D02*
X10579586Y-12620484D01*
X10722444Y-12639531D02*
X10731967Y-12630008D01*
X10731967Y-12630008D02*
X10751015Y-12620484D01*
X10751015Y-12620484D02*
X10798634Y-12620484D01*
X10798634Y-12620484D02*
X10817682Y-12630008D01*
X10817682Y-12630008D02*
X10827205Y-12639531D01*
X10827205Y-12639531D02*
X10836729Y-12658579D01*
X10836729Y-12658579D02*
X10836729Y-12677627D01*
X10836729Y-12677627D02*
X10827205Y-12706198D01*
X10827205Y-12706198D02*
X10712920Y-12820484D01*
X10712920Y-12820484D02*
X10836729Y-12820484D01*
X10960539Y-12620484D02*
X10979586Y-12620484D01*
X10979586Y-12620484D02*
X10998634Y-12630008D01*
X10998634Y-12630008D02*
X11008158Y-12639531D01*
X11008158Y-12639531D02*
X11017682Y-12658579D01*
X11017682Y-12658579D02*
X11027205Y-12696674D01*
X11027205Y-12696674D02*
X11027205Y-12744293D01*
X11027205Y-12744293D02*
X11017682Y-12782388D01*
X11017682Y-12782388D02*
X11008158Y-12801436D01*
X11008158Y-12801436D02*
X10998634Y-12810960D01*
X10998634Y-12810960D02*
X10979586Y-12820484D01*
X10979586Y-12820484D02*
X10960539Y-12820484D01*
X10960539Y-12820484D02*
X10941491Y-12810960D01*
X10941491Y-12810960D02*
X10931967Y-12801436D01*
X10931967Y-12801436D02*
X10922444Y-12782388D01*
X10922444Y-12782388D02*
X10912920Y-12744293D01*
X10912920Y-12744293D02*
X10912920Y-12696674D01*
X10912920Y-12696674D02*
X10922444Y-12658579D01*
X10922444Y-12658579D02*
X10931967Y-12639531D01*
X10931967Y-12639531D02*
X10941491Y-12630008D01*
X10941491Y-12630008D02*
X10960539Y-12620484D01*
X11112920Y-12820484D02*
X11112920Y-12687150D01*
X11112920Y-12706198D02*
X11122444Y-12696674D01*
X11122444Y-12696674D02*
X11141491Y-12687150D01*
X11141491Y-12687150D02*
X11170063Y-12687150D01*
X11170063Y-12687150D02*
X11189110Y-12696674D01*
X11189110Y-12696674D02*
X11198634Y-12715722D01*
X11198634Y-12715722D02*
X11198634Y-12820484D01*
X11198634Y-12715722D02*
X11208158Y-12696674D01*
X11208158Y-12696674D02*
X11227205Y-12687150D01*
X11227205Y-12687150D02*
X11255777Y-12687150D01*
X11255777Y-12687150D02*
X11274824Y-12696674D01*
X11274824Y-12696674D02*
X11284348Y-12715722D01*
X11284348Y-12715722D02*
X11284348Y-12820484D01*
X11379586Y-12820484D02*
X11379586Y-12687150D01*
X11379586Y-12706198D02*
X11389110Y-12696674D01*
X11389110Y-12696674D02*
X11408158Y-12687150D01*
X11408158Y-12687150D02*
X11436729Y-12687150D01*
X11436729Y-12687150D02*
X11455777Y-12696674D01*
X11455777Y-12696674D02*
X11465301Y-12715722D01*
X11465301Y-12715722D02*
X11465301Y-12820484D01*
X11465301Y-12715722D02*
X11474824Y-12696674D01*
X11474824Y-12696674D02*
X11493872Y-12687150D01*
X11493872Y-12687150D02*
X11522443Y-12687150D01*
X11522443Y-12687150D02*
X11541491Y-12696674D01*
X11541491Y-12696674D02*
X11551015Y-12715722D01*
X11551015Y-12715722D02*
X11551015Y-12820484D01*
X11941491Y-12610960D02*
X11770063Y-12868103D01*
X12198634Y-12620484D02*
X12217682Y-12620484D01*
X12217682Y-12620484D02*
X12236729Y-12630008D01*
X12236729Y-12630008D02*
X12246253Y-12639531D01*
X12246253Y-12639531D02*
X12255777Y-12658579D01*
X12255777Y-12658579D02*
X12265301Y-12696674D01*
X12265301Y-12696674D02*
X12265301Y-12744293D01*
X12265301Y-12744293D02*
X12255777Y-12782388D01*
X12255777Y-12782388D02*
X12246253Y-12801436D01*
X12246253Y-12801436D02*
X12236729Y-12810960D01*
X12236729Y-12810960D02*
X12217682Y-12820484D01*
X12217682Y-12820484D02*
X12198634Y-12820484D01*
X12198634Y-12820484D02*
X12179586Y-12810960D01*
X12179586Y-12810960D02*
X12170063Y-12801436D01*
X12170063Y-12801436D02*
X12160539Y-12782388D01*
X12160539Y-12782388D02*
X12151015Y-12744293D01*
X12151015Y-12744293D02*
X12151015Y-12696674D01*
X12151015Y-12696674D02*
X12160539Y-12658579D01*
X12160539Y-12658579D02*
X12170063Y-12639531D01*
X12170063Y-12639531D02*
X12179586Y-12630008D01*
X12179586Y-12630008D02*
X12198634Y-12620484D01*
X12351015Y-12801436D02*
X12360539Y-12810960D01*
X12360539Y-12810960D02*
X12351015Y-12820484D01*
X12351015Y-12820484D02*
X12341491Y-12810960D01*
X12341491Y-12810960D02*
X12351015Y-12801436D01*
X12351015Y-12801436D02*
X12351015Y-12820484D01*
X12484348Y-12620484D02*
X12503396Y-12620484D01*
X12503396Y-12620484D02*
X12522444Y-12630008D01*
X12522444Y-12630008D02*
X12531967Y-12639531D01*
X12531967Y-12639531D02*
X12541491Y-12658579D01*
X12541491Y-12658579D02*
X12551015Y-12696674D01*
X12551015Y-12696674D02*
X12551015Y-12744293D01*
X12551015Y-12744293D02*
X12541491Y-12782388D01*
X12541491Y-12782388D02*
X12531967Y-12801436D01*
X12531967Y-12801436D02*
X12522444Y-12810960D01*
X12522444Y-12810960D02*
X12503396Y-12820484D01*
X12503396Y-12820484D02*
X12484348Y-12820484D01*
X12484348Y-12820484D02*
X12465301Y-12810960D01*
X12465301Y-12810960D02*
X12455777Y-12801436D01*
X12455777Y-12801436D02*
X12446253Y-12782388D01*
X12446253Y-12782388D02*
X12436729Y-12744293D01*
X12436729Y-12744293D02*
X12436729Y-12696674D01*
X12436729Y-12696674D02*
X12446253Y-12658579D01*
X12446253Y-12658579D02*
X12455777Y-12639531D01*
X12455777Y-12639531D02*
X12465301Y-12630008D01*
X12465301Y-12630008D02*
X12484348Y-12620484D01*
X12722444Y-12687150D02*
X12722444Y-12820484D01*
X12674825Y-12610960D02*
X12627206Y-12753817D01*
X12627206Y-12753817D02*
X12751015Y-12753817D01*
X12865301Y-12620484D02*
X12884348Y-12620484D01*
X12884348Y-12620484D02*
X12903396Y-12630008D01*
X12903396Y-12630008D02*
X12912920Y-12639531D01*
X12912920Y-12639531D02*
X12922444Y-12658579D01*
X12922444Y-12658579D02*
X12931967Y-12696674D01*
X12931967Y-12696674D02*
X12931967Y-12744293D01*
X12931967Y-12744293D02*
X12922444Y-12782388D01*
X12922444Y-12782388D02*
X12912920Y-12801436D01*
X12912920Y-12801436D02*
X12903396Y-12810960D01*
X12903396Y-12810960D02*
X12884348Y-12820484D01*
X12884348Y-12820484D02*
X12865301Y-12820484D01*
X12865301Y-12820484D02*
X12846253Y-12810960D01*
X12846253Y-12810960D02*
X12836729Y-12801436D01*
X12836729Y-12801436D02*
X12827206Y-12782388D01*
X12827206Y-12782388D02*
X12817682Y-12744293D01*
X12817682Y-12744293D02*
X12817682Y-12696674D01*
X12817682Y-12696674D02*
X12827206Y-12658579D01*
X12827206Y-12658579D02*
X12836729Y-12639531D01*
X12836729Y-12639531D02*
X12846253Y-12630008D01*
X12846253Y-12630008D02*
X12865301Y-12620484D01*
X13008158Y-12639531D02*
X13017682Y-12630008D01*
X13017682Y-12630008D02*
X13036729Y-12620484D01*
X13036729Y-12620484D02*
X13084348Y-12620484D01*
X13084348Y-12620484D02*
X13103396Y-12630008D01*
X13103396Y-12630008D02*
X13112920Y-12639531D01*
X13112920Y-12639531D02*
X13122444Y-12658579D01*
X13122444Y-12658579D02*
X13122444Y-12677627D01*
X13122444Y-12677627D02*
X13112920Y-12706198D01*
X13112920Y-12706198D02*
X12998634Y-12820484D01*
X12998634Y-12820484D02*
X13122444Y-12820484D01*
X13198634Y-12620484D02*
X13198634Y-12658579D01*
X13274825Y-12620484D02*
X13274825Y-12658579D01*
X13570063Y-12896674D02*
X13560539Y-12887150D01*
X13560539Y-12887150D02*
X13541491Y-12858579D01*
X13541491Y-12858579D02*
X13531968Y-12839531D01*
X13531968Y-12839531D02*
X13522444Y-12810960D01*
X13522444Y-12810960D02*
X13512920Y-12763341D01*
X13512920Y-12763341D02*
X13512920Y-12725246D01*
X13512920Y-12725246D02*
X13522444Y-12677627D01*
X13522444Y-12677627D02*
X13531968Y-12649055D01*
X13531968Y-12649055D02*
X13541491Y-12630008D01*
X13541491Y-12630008D02*
X13560539Y-12601436D01*
X13560539Y-12601436D02*
X13570063Y-12591912D01*
X13731968Y-12687150D02*
X13731968Y-12820484D01*
X13684348Y-12610960D02*
X13636729Y-12753817D01*
X13636729Y-12753817D02*
X13760539Y-12753817D01*
X13989110Y-12820484D02*
X13989110Y-12620484D01*
X14074825Y-12820484D02*
X14074825Y-12715722D01*
X14074825Y-12715722D02*
X14065301Y-12696674D01*
X14065301Y-12696674D02*
X14046253Y-12687150D01*
X14046253Y-12687150D02*
X14017682Y-12687150D01*
X14017682Y-12687150D02*
X13998634Y-12696674D01*
X13998634Y-12696674D02*
X13989110Y-12706198D01*
X14198634Y-12820484D02*
X14179587Y-12810960D01*
X14179587Y-12810960D02*
X14170063Y-12801436D01*
X14170063Y-12801436D02*
X14160539Y-12782388D01*
X14160539Y-12782388D02*
X14160539Y-12725246D01*
X14160539Y-12725246D02*
X14170063Y-12706198D01*
X14170063Y-12706198D02*
X14179587Y-12696674D01*
X14179587Y-12696674D02*
X14198634Y-12687150D01*
X14198634Y-12687150D02*
X14227206Y-12687150D01*
X14227206Y-12687150D02*
X14246253Y-12696674D01*
X14246253Y-12696674D02*
X14255777Y-12706198D01*
X14255777Y-12706198D02*
X14265301Y-12725246D01*
X14265301Y-12725246D02*
X14265301Y-12782388D01*
X14265301Y-12782388D02*
X14255777Y-12801436D01*
X14255777Y-12801436D02*
X14246253Y-12810960D01*
X14246253Y-12810960D02*
X14227206Y-12820484D01*
X14227206Y-12820484D02*
X14198634Y-12820484D01*
X14379587Y-12820484D02*
X14360539Y-12810960D01*
X14360539Y-12810960D02*
X14351015Y-12791912D01*
X14351015Y-12791912D02*
X14351015Y-12620484D01*
X14531968Y-12810960D02*
X14512920Y-12820484D01*
X14512920Y-12820484D02*
X14474825Y-12820484D01*
X14474825Y-12820484D02*
X14455777Y-12810960D01*
X14455777Y-12810960D02*
X14446253Y-12791912D01*
X14446253Y-12791912D02*
X14446253Y-12715722D01*
X14446253Y-12715722D02*
X14455777Y-12696674D01*
X14455777Y-12696674D02*
X14474825Y-12687150D01*
X14474825Y-12687150D02*
X14512920Y-12687150D01*
X14512920Y-12687150D02*
X14531968Y-12696674D01*
X14531968Y-12696674D02*
X14541491Y-12715722D01*
X14541491Y-12715722D02*
X14541491Y-12734769D01*
X14541491Y-12734769D02*
X14446253Y-12753817D01*
X14617682Y-12810960D02*
X14636730Y-12820484D01*
X14636730Y-12820484D02*
X14674825Y-12820484D01*
X14674825Y-12820484D02*
X14693872Y-12810960D01*
X14693872Y-12810960D02*
X14703396Y-12791912D01*
X14703396Y-12791912D02*
X14703396Y-12782388D01*
X14703396Y-12782388D02*
X14693872Y-12763341D01*
X14693872Y-12763341D02*
X14674825Y-12753817D01*
X14674825Y-12753817D02*
X14646253Y-12753817D01*
X14646253Y-12753817D02*
X14627206Y-12744293D01*
X14627206Y-12744293D02*
X14617682Y-12725246D01*
X14617682Y-12725246D02*
X14617682Y-12715722D01*
X14617682Y-12715722D02*
X14627206Y-12696674D01*
X14627206Y-12696674D02*
X14646253Y-12687150D01*
X14646253Y-12687150D02*
X14674825Y-12687150D01*
X14674825Y-12687150D02*
X14693872Y-12696674D01*
X14770063Y-12896674D02*
X14779587Y-12887150D01*
X14779587Y-12887150D02*
X14798634Y-12858579D01*
X14798634Y-12858579D02*
X14808158Y-12839531D01*
X14808158Y-12839531D02*
X14817682Y-12810960D01*
X14817682Y-12810960D02*
X14827206Y-12763341D01*
X14827206Y-12763341D02*
X14827206Y-12725246D01*
X14827206Y-12725246D02*
X14817682Y-12677627D01*
X14817682Y-12677627D02*
X14808158Y-12649055D01*
X14808158Y-12649055D02*
X14798634Y-12630008D01*
X14798634Y-12630008D02*
X14779587Y-12601436D01*
X14779587Y-12601436D02*
X14770063Y-12591912D01*
D13*
X9865000Y-12928000D02*
X9995000Y-13058000D01*
X9995000Y-12928000D02*
X9865000Y-13058000D01*
X9975962Y-13038962D02*
X9975962Y-12947038D01*
X9884038Y-12947038D01*
X9884038Y-13038962D01*
X9975962Y-13038962D01*
D11*
X10360539Y-13084484D02*
X10246253Y-13084484D01*
X10303396Y-13084484D02*
X10303396Y-12884484D01*
X10303396Y-12884484D02*
X10284348Y-12913055D01*
X10284348Y-12913055D02*
X10265301Y-12932103D01*
X10265301Y-12932103D02*
X10246253Y-12941627D01*
X10446253Y-13065436D02*
X10455777Y-13074960D01*
X10455777Y-13074960D02*
X10446253Y-13084484D01*
X10446253Y-13084484D02*
X10436729Y-13074960D01*
X10436729Y-13074960D02*
X10446253Y-13065436D01*
X10446253Y-13065436D02*
X10446253Y-13084484D01*
X10522444Y-12884484D02*
X10646253Y-12884484D01*
X10646253Y-12884484D02*
X10579586Y-12960674D01*
X10579586Y-12960674D02*
X10608158Y-12960674D01*
X10608158Y-12960674D02*
X10627205Y-12970198D01*
X10627205Y-12970198D02*
X10636729Y-12979722D01*
X10636729Y-12979722D02*
X10646253Y-12998769D01*
X10646253Y-12998769D02*
X10646253Y-13046388D01*
X10646253Y-13046388D02*
X10636729Y-13065436D01*
X10636729Y-13065436D02*
X10627205Y-13074960D01*
X10627205Y-13074960D02*
X10608158Y-13084484D01*
X10608158Y-13084484D02*
X10551015Y-13084484D01*
X10551015Y-13084484D02*
X10531967Y-13074960D01*
X10531967Y-13074960D02*
X10522444Y-13065436D01*
X10770063Y-12884484D02*
X10789110Y-12884484D01*
X10789110Y-12884484D02*
X10808158Y-12894008D01*
X10808158Y-12894008D02*
X10817682Y-12903531D01*
X10817682Y-12903531D02*
X10827205Y-12922579D01*
X10827205Y-12922579D02*
X10836729Y-12960674D01*
X10836729Y-12960674D02*
X10836729Y-13008293D01*
X10836729Y-13008293D02*
X10827205Y-13046388D01*
X10827205Y-13046388D02*
X10817682Y-13065436D01*
X10817682Y-13065436D02*
X10808158Y-13074960D01*
X10808158Y-13074960D02*
X10789110Y-13084484D01*
X10789110Y-13084484D02*
X10770063Y-13084484D01*
X10770063Y-13084484D02*
X10751015Y-13074960D01*
X10751015Y-13074960D02*
X10741491Y-13065436D01*
X10741491Y-13065436D02*
X10731967Y-13046388D01*
X10731967Y-13046388D02*
X10722444Y-13008293D01*
X10722444Y-13008293D02*
X10722444Y-12960674D01*
X10722444Y-12960674D02*
X10731967Y-12922579D01*
X10731967Y-12922579D02*
X10741491Y-12903531D01*
X10741491Y-12903531D02*
X10751015Y-12894008D01*
X10751015Y-12894008D02*
X10770063Y-12884484D01*
X10960539Y-12884484D02*
X10979586Y-12884484D01*
X10979586Y-12884484D02*
X10998634Y-12894008D01*
X10998634Y-12894008D02*
X11008158Y-12903531D01*
X11008158Y-12903531D02*
X11017682Y-12922579D01*
X11017682Y-12922579D02*
X11027205Y-12960674D01*
X11027205Y-12960674D02*
X11027205Y-13008293D01*
X11027205Y-13008293D02*
X11017682Y-13046388D01*
X11017682Y-13046388D02*
X11008158Y-13065436D01*
X11008158Y-13065436D02*
X10998634Y-13074960D01*
X10998634Y-13074960D02*
X10979586Y-13084484D01*
X10979586Y-13084484D02*
X10960539Y-13084484D01*
X10960539Y-13084484D02*
X10941491Y-13074960D01*
X10941491Y-13074960D02*
X10931967Y-13065436D01*
X10931967Y-13065436D02*
X10922444Y-13046388D01*
X10922444Y-13046388D02*
X10912920Y-13008293D01*
X10912920Y-13008293D02*
X10912920Y-12960674D01*
X10912920Y-12960674D02*
X10922444Y-12922579D01*
X10922444Y-12922579D02*
X10931967Y-12903531D01*
X10931967Y-12903531D02*
X10941491Y-12894008D01*
X10941491Y-12894008D02*
X10960539Y-12884484D01*
X11112920Y-13084484D02*
X11112920Y-12951150D01*
X11112920Y-12970198D02*
X11122444Y-12960674D01*
X11122444Y-12960674D02*
X11141491Y-12951150D01*
X11141491Y-12951150D02*
X11170063Y-12951150D01*
X11170063Y-12951150D02*
X11189110Y-12960674D01*
X11189110Y-12960674D02*
X11198634Y-12979722D01*
X11198634Y-12979722D02*
X11198634Y-13084484D01*
X11198634Y-12979722D02*
X11208158Y-12960674D01*
X11208158Y-12960674D02*
X11227205Y-12951150D01*
X11227205Y-12951150D02*
X11255777Y-12951150D01*
X11255777Y-12951150D02*
X11274824Y-12960674D01*
X11274824Y-12960674D02*
X11284348Y-12979722D01*
X11284348Y-12979722D02*
X11284348Y-13084484D01*
X11379586Y-13084484D02*
X11379586Y-12951150D01*
X11379586Y-12970198D02*
X11389110Y-12960674D01*
X11389110Y-12960674D02*
X11408158Y-12951150D01*
X11408158Y-12951150D02*
X11436729Y-12951150D01*
X11436729Y-12951150D02*
X11455777Y-12960674D01*
X11455777Y-12960674D02*
X11465301Y-12979722D01*
X11465301Y-12979722D02*
X11465301Y-13084484D01*
X11465301Y-12979722D02*
X11474824Y-12960674D01*
X11474824Y-12960674D02*
X11493872Y-12951150D01*
X11493872Y-12951150D02*
X11522443Y-12951150D01*
X11522443Y-12951150D02*
X11541491Y-12960674D01*
X11541491Y-12960674D02*
X11551015Y-12979722D01*
X11551015Y-12979722D02*
X11551015Y-13084484D01*
X11941491Y-12874960D02*
X11770063Y-13132103D01*
X12198634Y-12884484D02*
X12217682Y-12884484D01*
X12217682Y-12884484D02*
X12236729Y-12894008D01*
X12236729Y-12894008D02*
X12246253Y-12903531D01*
X12246253Y-12903531D02*
X12255777Y-12922579D01*
X12255777Y-12922579D02*
X12265301Y-12960674D01*
X12265301Y-12960674D02*
X12265301Y-13008293D01*
X12265301Y-13008293D02*
X12255777Y-13046388D01*
X12255777Y-13046388D02*
X12246253Y-13065436D01*
X12246253Y-13065436D02*
X12236729Y-13074960D01*
X12236729Y-13074960D02*
X12217682Y-13084484D01*
X12217682Y-13084484D02*
X12198634Y-13084484D01*
X12198634Y-13084484D02*
X12179586Y-13074960D01*
X12179586Y-13074960D02*
X12170063Y-13065436D01*
X12170063Y-13065436D02*
X12160539Y-13046388D01*
X12160539Y-13046388D02*
X12151015Y-13008293D01*
X12151015Y-13008293D02*
X12151015Y-12960674D01*
X12151015Y-12960674D02*
X12160539Y-12922579D01*
X12160539Y-12922579D02*
X12170063Y-12903531D01*
X12170063Y-12903531D02*
X12179586Y-12894008D01*
X12179586Y-12894008D02*
X12198634Y-12884484D01*
X12351015Y-13065436D02*
X12360539Y-13074960D01*
X12360539Y-13074960D02*
X12351015Y-13084484D01*
X12351015Y-13084484D02*
X12341491Y-13074960D01*
X12341491Y-13074960D02*
X12351015Y-13065436D01*
X12351015Y-13065436D02*
X12351015Y-13084484D01*
X12484348Y-12884484D02*
X12503396Y-12884484D01*
X12503396Y-12884484D02*
X12522444Y-12894008D01*
X12522444Y-12894008D02*
X12531967Y-12903531D01*
X12531967Y-12903531D02*
X12541491Y-12922579D01*
X12541491Y-12922579D02*
X12551015Y-12960674D01*
X12551015Y-12960674D02*
X12551015Y-13008293D01*
X12551015Y-13008293D02*
X12541491Y-13046388D01*
X12541491Y-13046388D02*
X12531967Y-13065436D01*
X12531967Y-13065436D02*
X12522444Y-13074960D01*
X12522444Y-13074960D02*
X12503396Y-13084484D01*
X12503396Y-13084484D02*
X12484348Y-13084484D01*
X12484348Y-13084484D02*
X12465301Y-13074960D01*
X12465301Y-13074960D02*
X12455777Y-13065436D01*
X12455777Y-13065436D02*
X12446253Y-13046388D01*
X12446253Y-13046388D02*
X12436729Y-13008293D01*
X12436729Y-13008293D02*
X12436729Y-12960674D01*
X12436729Y-12960674D02*
X12446253Y-12922579D01*
X12446253Y-12922579D02*
X12455777Y-12903531D01*
X12455777Y-12903531D02*
X12465301Y-12894008D01*
X12465301Y-12894008D02*
X12484348Y-12884484D01*
X12731967Y-12884484D02*
X12636729Y-12884484D01*
X12636729Y-12884484D02*
X12627206Y-12979722D01*
X12627206Y-12979722D02*
X12636729Y-12970198D01*
X12636729Y-12970198D02*
X12655777Y-12960674D01*
X12655777Y-12960674D02*
X12703396Y-12960674D01*
X12703396Y-12960674D02*
X12722444Y-12970198D01*
X12722444Y-12970198D02*
X12731967Y-12979722D01*
X12731967Y-12979722D02*
X12741491Y-12998769D01*
X12741491Y-12998769D02*
X12741491Y-13046388D01*
X12741491Y-13046388D02*
X12731967Y-13065436D01*
X12731967Y-13065436D02*
X12722444Y-13074960D01*
X12722444Y-13074960D02*
X12703396Y-13084484D01*
X12703396Y-13084484D02*
X12655777Y-13084484D01*
X12655777Y-13084484D02*
X12636729Y-13074960D01*
X12636729Y-13074960D02*
X12627206Y-13065436D01*
X12931967Y-13084484D02*
X12817682Y-13084484D01*
X12874825Y-13084484D02*
X12874825Y-12884484D01*
X12874825Y-12884484D02*
X12855777Y-12913055D01*
X12855777Y-12913055D02*
X12836729Y-12932103D01*
X12836729Y-12932103D02*
X12817682Y-12941627D01*
X13008158Y-12903531D02*
X13017682Y-12894008D01*
X13017682Y-12894008D02*
X13036729Y-12884484D01*
X13036729Y-12884484D02*
X13084348Y-12884484D01*
X13084348Y-12884484D02*
X13103396Y-12894008D01*
X13103396Y-12894008D02*
X13112920Y-12903531D01*
X13112920Y-12903531D02*
X13122444Y-12922579D01*
X13122444Y-12922579D02*
X13122444Y-12941627D01*
X13122444Y-12941627D02*
X13112920Y-12970198D01*
X13112920Y-12970198D02*
X12998634Y-13084484D01*
X12998634Y-13084484D02*
X13122444Y-13084484D01*
X13198634Y-12884484D02*
X13198634Y-12922579D01*
X13274825Y-12884484D02*
X13274825Y-12922579D01*
X13570063Y-13160674D02*
X13560539Y-13151150D01*
X13560539Y-13151150D02*
X13541491Y-13122579D01*
X13541491Y-13122579D02*
X13531968Y-13103531D01*
X13531968Y-13103531D02*
X13522444Y-13074960D01*
X13522444Y-13074960D02*
X13512920Y-13027341D01*
X13512920Y-13027341D02*
X13512920Y-12989246D01*
X13512920Y-12989246D02*
X13522444Y-12941627D01*
X13522444Y-12941627D02*
X13531968Y-12913055D01*
X13531968Y-12913055D02*
X13541491Y-12894008D01*
X13541491Y-12894008D02*
X13560539Y-12865436D01*
X13560539Y-12865436D02*
X13570063Y-12855912D01*
X13636729Y-12903531D02*
X13646253Y-12894008D01*
X13646253Y-12894008D02*
X13665301Y-12884484D01*
X13665301Y-12884484D02*
X13712920Y-12884484D01*
X13712920Y-12884484D02*
X13731968Y-12894008D01*
X13731968Y-12894008D02*
X13741491Y-12903531D01*
X13741491Y-12903531D02*
X13751015Y-12922579D01*
X13751015Y-12922579D02*
X13751015Y-12941627D01*
X13751015Y-12941627D02*
X13741491Y-12970198D01*
X13741491Y-12970198D02*
X13627206Y-13084484D01*
X13627206Y-13084484D02*
X13751015Y-13084484D01*
X13989110Y-13084484D02*
X13989110Y-12884484D01*
X14074825Y-13084484D02*
X14074825Y-12979722D01*
X14074825Y-12979722D02*
X14065301Y-12960674D01*
X14065301Y-12960674D02*
X14046253Y-12951150D01*
X14046253Y-12951150D02*
X14017682Y-12951150D01*
X14017682Y-12951150D02*
X13998634Y-12960674D01*
X13998634Y-12960674D02*
X13989110Y-12970198D01*
X14198634Y-13084484D02*
X14179587Y-13074960D01*
X14179587Y-13074960D02*
X14170063Y-13065436D01*
X14170063Y-13065436D02*
X14160539Y-13046388D01*
X14160539Y-13046388D02*
X14160539Y-12989246D01*
X14160539Y-12989246D02*
X14170063Y-12970198D01*
X14170063Y-12970198D02*
X14179587Y-12960674D01*
X14179587Y-12960674D02*
X14198634Y-12951150D01*
X14198634Y-12951150D02*
X14227206Y-12951150D01*
X14227206Y-12951150D02*
X14246253Y-12960674D01*
X14246253Y-12960674D02*
X14255777Y-12970198D01*
X14255777Y-12970198D02*
X14265301Y-12989246D01*
X14265301Y-12989246D02*
X14265301Y-13046388D01*
X14265301Y-13046388D02*
X14255777Y-13065436D01*
X14255777Y-13065436D02*
X14246253Y-13074960D01*
X14246253Y-13074960D02*
X14227206Y-13084484D01*
X14227206Y-13084484D02*
X14198634Y-13084484D01*
X14379587Y-13084484D02*
X14360539Y-13074960D01*
X14360539Y-13074960D02*
X14351015Y-13055912D01*
X14351015Y-13055912D02*
X14351015Y-12884484D01*
X14531968Y-13074960D02*
X14512920Y-13084484D01*
X14512920Y-13084484D02*
X14474825Y-13084484D01*
X14474825Y-13084484D02*
X14455777Y-13074960D01*
X14455777Y-13074960D02*
X14446253Y-13055912D01*
X14446253Y-13055912D02*
X14446253Y-12979722D01*
X14446253Y-12979722D02*
X14455777Y-12960674D01*
X14455777Y-12960674D02*
X14474825Y-12951150D01*
X14474825Y-12951150D02*
X14512920Y-12951150D01*
X14512920Y-12951150D02*
X14531968Y-12960674D01*
X14531968Y-12960674D02*
X14541491Y-12979722D01*
X14541491Y-12979722D02*
X14541491Y-12998769D01*
X14541491Y-12998769D02*
X14446253Y-13017817D01*
X14617682Y-13074960D02*
X14636730Y-13084484D01*
X14636730Y-13084484D02*
X14674825Y-13084484D01*
X14674825Y-13084484D02*
X14693872Y-13074960D01*
X14693872Y-13074960D02*
X14703396Y-13055912D01*
X14703396Y-13055912D02*
X14703396Y-13046388D01*
X14703396Y-13046388D02*
X14693872Y-13027341D01*
X14693872Y-13027341D02*
X14674825Y-13017817D01*
X14674825Y-13017817D02*
X14646253Y-13017817D01*
X14646253Y-13017817D02*
X14627206Y-13008293D01*
X14627206Y-13008293D02*
X14617682Y-12989246D01*
X14617682Y-12989246D02*
X14617682Y-12979722D01*
X14617682Y-12979722D02*
X14627206Y-12960674D01*
X14627206Y-12960674D02*
X14646253Y-12951150D01*
X14646253Y-12951150D02*
X14674825Y-12951150D01*
X14674825Y-12951150D02*
X14693872Y-12960674D01*
X14770063Y-13160674D02*
X14779587Y-13151150D01*
X14779587Y-13151150D02*
X14798634Y-13122579D01*
X14798634Y-13122579D02*
X14808158Y-13103531D01*
X14808158Y-13103531D02*
X14817682Y-13074960D01*
X14817682Y-13074960D02*
X14827206Y-13027341D01*
X14827206Y-13027341D02*
X14827206Y-12989246D01*
X14827206Y-12989246D02*
X14817682Y-12941627D01*
X14817682Y-12941627D02*
X14808158Y-12913055D01*
X14808158Y-12913055D02*
X14798634Y-12894008D01*
X14798634Y-12894008D02*
X14779587Y-12865436D01*
X14779587Y-12865436D02*
X14770063Y-12855912D01*
D14*
X9855000Y-13187000D02*
X9995000Y-13327000D01*
X9995000Y-13187000D02*
X9855000Y-13327000D01*
X9925000Y-13327000D02*
X9995000Y-13257000D01*
X9925000Y-13187000D01*
X9855000Y-13257000D01*
X9925000Y-13327000D01*
D11*
X10360539Y-13348484D02*
X10246253Y-13348484D01*
X10303396Y-13348484D02*
X10303396Y-13148484D01*
X10303396Y-13148484D02*
X10284348Y-13177055D01*
X10284348Y-13177055D02*
X10265301Y-13196103D01*
X10265301Y-13196103D02*
X10246253Y-13205627D01*
X10446253Y-13329436D02*
X10455777Y-13338960D01*
X10455777Y-13338960D02*
X10446253Y-13348484D01*
X10446253Y-13348484D02*
X10436729Y-13338960D01*
X10436729Y-13338960D02*
X10446253Y-13329436D01*
X10446253Y-13329436D02*
X10446253Y-13348484D01*
X10627205Y-13215150D02*
X10627205Y-13348484D01*
X10579586Y-13138960D02*
X10531967Y-13281817D01*
X10531967Y-13281817D02*
X10655777Y-13281817D01*
X10770063Y-13148484D02*
X10789110Y-13148484D01*
X10789110Y-13148484D02*
X10808158Y-13158008D01*
X10808158Y-13158008D02*
X10817682Y-13167531D01*
X10817682Y-13167531D02*
X10827205Y-13186579D01*
X10827205Y-13186579D02*
X10836729Y-13224674D01*
X10836729Y-13224674D02*
X10836729Y-13272293D01*
X10836729Y-13272293D02*
X10827205Y-13310388D01*
X10827205Y-13310388D02*
X10817682Y-13329436D01*
X10817682Y-13329436D02*
X10808158Y-13338960D01*
X10808158Y-13338960D02*
X10789110Y-13348484D01*
X10789110Y-13348484D02*
X10770063Y-13348484D01*
X10770063Y-13348484D02*
X10751015Y-13338960D01*
X10751015Y-13338960D02*
X10741491Y-13329436D01*
X10741491Y-13329436D02*
X10731967Y-13310388D01*
X10731967Y-13310388D02*
X10722444Y-13272293D01*
X10722444Y-13272293D02*
X10722444Y-13224674D01*
X10722444Y-13224674D02*
X10731967Y-13186579D01*
X10731967Y-13186579D02*
X10741491Y-13167531D01*
X10741491Y-13167531D02*
X10751015Y-13158008D01*
X10751015Y-13158008D02*
X10770063Y-13148484D01*
X10960539Y-13148484D02*
X10979586Y-13148484D01*
X10979586Y-13148484D02*
X10998634Y-13158008D01*
X10998634Y-13158008D02*
X11008158Y-13167531D01*
X11008158Y-13167531D02*
X11017682Y-13186579D01*
X11017682Y-13186579D02*
X11027205Y-13224674D01*
X11027205Y-13224674D02*
X11027205Y-13272293D01*
X11027205Y-13272293D02*
X11017682Y-13310388D01*
X11017682Y-13310388D02*
X11008158Y-13329436D01*
X11008158Y-13329436D02*
X10998634Y-13338960D01*
X10998634Y-13338960D02*
X10979586Y-13348484D01*
X10979586Y-13348484D02*
X10960539Y-13348484D01*
X10960539Y-13348484D02*
X10941491Y-13338960D01*
X10941491Y-13338960D02*
X10931967Y-13329436D01*
X10931967Y-13329436D02*
X10922444Y-13310388D01*
X10922444Y-13310388D02*
X10912920Y-13272293D01*
X10912920Y-13272293D02*
X10912920Y-13224674D01*
X10912920Y-13224674D02*
X10922444Y-13186579D01*
X10922444Y-13186579D02*
X10931967Y-13167531D01*
X10931967Y-13167531D02*
X10941491Y-13158008D01*
X10941491Y-13158008D02*
X10960539Y-13148484D01*
X11112920Y-13348484D02*
X11112920Y-13215150D01*
X11112920Y-13234198D02*
X11122444Y-13224674D01*
X11122444Y-13224674D02*
X11141491Y-13215150D01*
X11141491Y-13215150D02*
X11170063Y-13215150D01*
X11170063Y-13215150D02*
X11189110Y-13224674D01*
X11189110Y-13224674D02*
X11198634Y-13243722D01*
X11198634Y-13243722D02*
X11198634Y-13348484D01*
X11198634Y-13243722D02*
X11208158Y-13224674D01*
X11208158Y-13224674D02*
X11227205Y-13215150D01*
X11227205Y-13215150D02*
X11255777Y-13215150D01*
X11255777Y-13215150D02*
X11274824Y-13224674D01*
X11274824Y-13224674D02*
X11284348Y-13243722D01*
X11284348Y-13243722D02*
X11284348Y-13348484D01*
X11379586Y-13348484D02*
X11379586Y-13215150D01*
X11379586Y-13234198D02*
X11389110Y-13224674D01*
X11389110Y-13224674D02*
X11408158Y-13215150D01*
X11408158Y-13215150D02*
X11436729Y-13215150D01*
X11436729Y-13215150D02*
X11455777Y-13224674D01*
X11455777Y-13224674D02*
X11465301Y-13243722D01*
X11465301Y-13243722D02*
X11465301Y-13348484D01*
X11465301Y-13243722D02*
X11474824Y-13224674D01*
X11474824Y-13224674D02*
X11493872Y-13215150D01*
X11493872Y-13215150D02*
X11522443Y-13215150D01*
X11522443Y-13215150D02*
X11541491Y-13224674D01*
X11541491Y-13224674D02*
X11551015Y-13243722D01*
X11551015Y-13243722D02*
X11551015Y-13348484D01*
X11941491Y-13138960D02*
X11770063Y-13396103D01*
X12198634Y-13148484D02*
X12217682Y-13148484D01*
X12217682Y-13148484D02*
X12236729Y-13158008D01*
X12236729Y-13158008D02*
X12246253Y-13167531D01*
X12246253Y-13167531D02*
X12255777Y-13186579D01*
X12255777Y-13186579D02*
X12265301Y-13224674D01*
X12265301Y-13224674D02*
X12265301Y-13272293D01*
X12265301Y-13272293D02*
X12255777Y-13310388D01*
X12255777Y-13310388D02*
X12246253Y-13329436D01*
X12246253Y-13329436D02*
X12236729Y-13338960D01*
X12236729Y-13338960D02*
X12217682Y-13348484D01*
X12217682Y-13348484D02*
X12198634Y-13348484D01*
X12198634Y-13348484D02*
X12179586Y-13338960D01*
X12179586Y-13338960D02*
X12170063Y-13329436D01*
X12170063Y-13329436D02*
X12160539Y-13310388D01*
X12160539Y-13310388D02*
X12151015Y-13272293D01*
X12151015Y-13272293D02*
X12151015Y-13224674D01*
X12151015Y-13224674D02*
X12160539Y-13186579D01*
X12160539Y-13186579D02*
X12170063Y-13167531D01*
X12170063Y-13167531D02*
X12179586Y-13158008D01*
X12179586Y-13158008D02*
X12198634Y-13148484D01*
X12351015Y-13329436D02*
X12360539Y-13338960D01*
X12360539Y-13338960D02*
X12351015Y-13348484D01*
X12351015Y-13348484D02*
X12341491Y-13338960D01*
X12341491Y-13338960D02*
X12351015Y-13329436D01*
X12351015Y-13329436D02*
X12351015Y-13348484D01*
X12484348Y-13148484D02*
X12503396Y-13148484D01*
X12503396Y-13148484D02*
X12522444Y-13158008D01*
X12522444Y-13158008D02*
X12531967Y-13167531D01*
X12531967Y-13167531D02*
X12541491Y-13186579D01*
X12541491Y-13186579D02*
X12551015Y-13224674D01*
X12551015Y-13224674D02*
X12551015Y-13272293D01*
X12551015Y-13272293D02*
X12541491Y-13310388D01*
X12541491Y-13310388D02*
X12531967Y-13329436D01*
X12531967Y-13329436D02*
X12522444Y-13338960D01*
X12522444Y-13338960D02*
X12503396Y-13348484D01*
X12503396Y-13348484D02*
X12484348Y-13348484D01*
X12484348Y-13348484D02*
X12465301Y-13338960D01*
X12465301Y-13338960D02*
X12455777Y-13329436D01*
X12455777Y-13329436D02*
X12446253Y-13310388D01*
X12446253Y-13310388D02*
X12436729Y-13272293D01*
X12436729Y-13272293D02*
X12436729Y-13224674D01*
X12436729Y-13224674D02*
X12446253Y-13186579D01*
X12446253Y-13186579D02*
X12455777Y-13167531D01*
X12455777Y-13167531D02*
X12465301Y-13158008D01*
X12465301Y-13158008D02*
X12484348Y-13148484D01*
X12731967Y-13148484D02*
X12636729Y-13148484D01*
X12636729Y-13148484D02*
X12627206Y-13243722D01*
X12627206Y-13243722D02*
X12636729Y-13234198D01*
X12636729Y-13234198D02*
X12655777Y-13224674D01*
X12655777Y-13224674D02*
X12703396Y-13224674D01*
X12703396Y-13224674D02*
X12722444Y-13234198D01*
X12722444Y-13234198D02*
X12731967Y-13243722D01*
X12731967Y-13243722D02*
X12741491Y-13262769D01*
X12741491Y-13262769D02*
X12741491Y-13310388D01*
X12741491Y-13310388D02*
X12731967Y-13329436D01*
X12731967Y-13329436D02*
X12722444Y-13338960D01*
X12722444Y-13338960D02*
X12703396Y-13348484D01*
X12703396Y-13348484D02*
X12655777Y-13348484D01*
X12655777Y-13348484D02*
X12636729Y-13338960D01*
X12636729Y-13338960D02*
X12627206Y-13329436D01*
X12922444Y-13148484D02*
X12827206Y-13148484D01*
X12827206Y-13148484D02*
X12817682Y-13243722D01*
X12817682Y-13243722D02*
X12827206Y-13234198D01*
X12827206Y-13234198D02*
X12846253Y-13224674D01*
X12846253Y-13224674D02*
X12893872Y-13224674D01*
X12893872Y-13224674D02*
X12912920Y-13234198D01*
X12912920Y-13234198D02*
X12922444Y-13243722D01*
X12922444Y-13243722D02*
X12931967Y-13262769D01*
X12931967Y-13262769D02*
X12931967Y-13310388D01*
X12931967Y-13310388D02*
X12922444Y-13329436D01*
X12922444Y-13329436D02*
X12912920Y-13338960D01*
X12912920Y-13338960D02*
X12893872Y-13348484D01*
X12893872Y-13348484D02*
X12846253Y-13348484D01*
X12846253Y-13348484D02*
X12827206Y-13338960D01*
X12827206Y-13338960D02*
X12817682Y-13329436D01*
X13122444Y-13348484D02*
X13008158Y-13348484D01*
X13065301Y-13348484D02*
X13065301Y-13148484D01*
X13065301Y-13148484D02*
X13046253Y-13177055D01*
X13046253Y-13177055D02*
X13027206Y-13196103D01*
X13027206Y-13196103D02*
X13008158Y-13205627D01*
X13198634Y-13148484D02*
X13198634Y-13186579D01*
X13274825Y-13148484D02*
X13274825Y-13186579D01*
X13570063Y-13424674D02*
X13560539Y-13415150D01*
X13560539Y-13415150D02*
X13541491Y-13386579D01*
X13541491Y-13386579D02*
X13531968Y-13367531D01*
X13531968Y-13367531D02*
X13522444Y-13338960D01*
X13522444Y-13338960D02*
X13512920Y-13291341D01*
X13512920Y-13291341D02*
X13512920Y-13253246D01*
X13512920Y-13253246D02*
X13522444Y-13205627D01*
X13522444Y-13205627D02*
X13531968Y-13177055D01*
X13531968Y-13177055D02*
X13541491Y-13158008D01*
X13541491Y-13158008D02*
X13560539Y-13129436D01*
X13560539Y-13129436D02*
X13570063Y-13119912D01*
X13636729Y-13167531D02*
X13646253Y-13158008D01*
X13646253Y-13158008D02*
X13665301Y-13148484D01*
X13665301Y-13148484D02*
X13712920Y-13148484D01*
X13712920Y-13148484D02*
X13731968Y-13158008D01*
X13731968Y-13158008D02*
X13741491Y-13167531D01*
X13741491Y-13167531D02*
X13751015Y-13186579D01*
X13751015Y-13186579D02*
X13751015Y-13205627D01*
X13751015Y-13205627D02*
X13741491Y-13234198D01*
X13741491Y-13234198D02*
X13627206Y-13348484D01*
X13627206Y-13348484D02*
X13751015Y-13348484D01*
X13989110Y-13348484D02*
X13989110Y-13148484D01*
X14074825Y-13348484D02*
X14074825Y-13243722D01*
X14074825Y-13243722D02*
X14065301Y-13224674D01*
X14065301Y-13224674D02*
X14046253Y-13215150D01*
X14046253Y-13215150D02*
X14017682Y-13215150D01*
X14017682Y-13215150D02*
X13998634Y-13224674D01*
X13998634Y-13224674D02*
X13989110Y-13234198D01*
X14198634Y-13348484D02*
X14179587Y-13338960D01*
X14179587Y-13338960D02*
X14170063Y-13329436D01*
X14170063Y-13329436D02*
X14160539Y-13310388D01*
X14160539Y-13310388D02*
X14160539Y-13253246D01*
X14160539Y-13253246D02*
X14170063Y-13234198D01*
X14170063Y-13234198D02*
X14179587Y-13224674D01*
X14179587Y-13224674D02*
X14198634Y-13215150D01*
X14198634Y-13215150D02*
X14227206Y-13215150D01*
X14227206Y-13215150D02*
X14246253Y-13224674D01*
X14246253Y-13224674D02*
X14255777Y-13234198D01*
X14255777Y-13234198D02*
X14265301Y-13253246D01*
X14265301Y-13253246D02*
X14265301Y-13310388D01*
X14265301Y-13310388D02*
X14255777Y-13329436D01*
X14255777Y-13329436D02*
X14246253Y-13338960D01*
X14246253Y-13338960D02*
X14227206Y-13348484D01*
X14227206Y-13348484D02*
X14198634Y-13348484D01*
X14379587Y-13348484D02*
X14360539Y-13338960D01*
X14360539Y-13338960D02*
X14351015Y-13319912D01*
X14351015Y-13319912D02*
X14351015Y-13148484D01*
X14531968Y-13338960D02*
X14512920Y-13348484D01*
X14512920Y-13348484D02*
X14474825Y-13348484D01*
X14474825Y-13348484D02*
X14455777Y-13338960D01*
X14455777Y-13338960D02*
X14446253Y-13319912D01*
X14446253Y-13319912D02*
X14446253Y-13243722D01*
X14446253Y-13243722D02*
X14455777Y-13224674D01*
X14455777Y-13224674D02*
X14474825Y-13215150D01*
X14474825Y-13215150D02*
X14512920Y-13215150D01*
X14512920Y-13215150D02*
X14531968Y-13224674D01*
X14531968Y-13224674D02*
X14541491Y-13243722D01*
X14541491Y-13243722D02*
X14541491Y-13262769D01*
X14541491Y-13262769D02*
X14446253Y-13281817D01*
X14617682Y-13338960D02*
X14636730Y-13348484D01*
X14636730Y-13348484D02*
X14674825Y-13348484D01*
X14674825Y-13348484D02*
X14693872Y-13338960D01*
X14693872Y-13338960D02*
X14703396Y-13319912D01*
X14703396Y-13319912D02*
X14703396Y-13310388D01*
X14703396Y-13310388D02*
X14693872Y-13291341D01*
X14693872Y-13291341D02*
X14674825Y-13281817D01*
X14674825Y-13281817D02*
X14646253Y-13281817D01*
X14646253Y-13281817D02*
X14627206Y-13272293D01*
X14627206Y-13272293D02*
X14617682Y-13253246D01*
X14617682Y-13253246D02*
X14617682Y-13243722D01*
X14617682Y-13243722D02*
X14627206Y-13224674D01*
X14627206Y-13224674D02*
X14646253Y-13215150D01*
X14646253Y-13215150D02*
X14674825Y-13215150D01*
X14674825Y-13215150D02*
X14693872Y-13224674D01*
X14770063Y-13424674D02*
X14779587Y-13415150D01*
X14779587Y-13415150D02*
X14798634Y-13386579D01*
X14798634Y-13386579D02*
X14808158Y-13367531D01*
X14808158Y-13367531D02*
X14817682Y-13338960D01*
X14817682Y-13338960D02*
X14827206Y-13291341D01*
X14827206Y-13291341D02*
X14827206Y-13253246D01*
X14827206Y-13253246D02*
X14817682Y-13205627D01*
X14817682Y-13205627D02*
X14808158Y-13177055D01*
X14808158Y-13177055D02*
X14798634Y-13158008D01*
X14798634Y-13158008D02*
X14779587Y-13129436D01*
X14779587Y-13129436D02*
X14770063Y-13119912D01*
D15*
X9915000Y-13441000D02*
X9915000Y-13601000D01*
X9835000Y-13521000D02*
X9995000Y-13521000D01*
X9995000Y-13521000D02*
G75*
G02*
X9835000Y-13521000I-80000J0D01*
G01*
X9835000Y-13521000D02*
G75*
G02*
X9995000Y-13521000I80000J0D01*
G01*
D11*
X10360539Y-13612484D02*
X10246253Y-13612484D01*
X10303396Y-13612484D02*
X10303396Y-13412484D01*
X10303396Y-13412484D02*
X10284348Y-13441055D01*
X10284348Y-13441055D02*
X10265301Y-13460103D01*
X10265301Y-13460103D02*
X10246253Y-13469627D01*
X10446253Y-13593436D02*
X10455777Y-13602960D01*
X10455777Y-13602960D02*
X10446253Y-13612484D01*
X10446253Y-13612484D02*
X10436729Y-13602960D01*
X10436729Y-13602960D02*
X10446253Y-13593436D01*
X10446253Y-13593436D02*
X10446253Y-13612484D01*
X10627205Y-13412484D02*
X10589110Y-13412484D01*
X10589110Y-13412484D02*
X10570063Y-13422008D01*
X10570063Y-13422008D02*
X10560539Y-13431531D01*
X10560539Y-13431531D02*
X10541491Y-13460103D01*
X10541491Y-13460103D02*
X10531967Y-13498198D01*
X10531967Y-13498198D02*
X10531967Y-13574388D01*
X10531967Y-13574388D02*
X10541491Y-13593436D01*
X10541491Y-13593436D02*
X10551015Y-13602960D01*
X10551015Y-13602960D02*
X10570063Y-13612484D01*
X10570063Y-13612484D02*
X10608158Y-13612484D01*
X10608158Y-13612484D02*
X10627205Y-13602960D01*
X10627205Y-13602960D02*
X10636729Y-13593436D01*
X10636729Y-13593436D02*
X10646253Y-13574388D01*
X10646253Y-13574388D02*
X10646253Y-13526769D01*
X10646253Y-13526769D02*
X10636729Y-13507722D01*
X10636729Y-13507722D02*
X10627205Y-13498198D01*
X10627205Y-13498198D02*
X10608158Y-13488674D01*
X10608158Y-13488674D02*
X10570063Y-13488674D01*
X10570063Y-13488674D02*
X10551015Y-13498198D01*
X10551015Y-13498198D02*
X10541491Y-13507722D01*
X10541491Y-13507722D02*
X10531967Y-13526769D01*
X10770063Y-13412484D02*
X10789110Y-13412484D01*
X10789110Y-13412484D02*
X10808158Y-13422008D01*
X10808158Y-13422008D02*
X10817682Y-13431531D01*
X10817682Y-13431531D02*
X10827205Y-13450579D01*
X10827205Y-13450579D02*
X10836729Y-13488674D01*
X10836729Y-13488674D02*
X10836729Y-13536293D01*
X10836729Y-13536293D02*
X10827205Y-13574388D01*
X10827205Y-13574388D02*
X10817682Y-13593436D01*
X10817682Y-13593436D02*
X10808158Y-13602960D01*
X10808158Y-13602960D02*
X10789110Y-13612484D01*
X10789110Y-13612484D02*
X10770063Y-13612484D01*
X10770063Y-13612484D02*
X10751015Y-13602960D01*
X10751015Y-13602960D02*
X10741491Y-13593436D01*
X10741491Y-13593436D02*
X10731967Y-13574388D01*
X10731967Y-13574388D02*
X10722444Y-13536293D01*
X10722444Y-13536293D02*
X10722444Y-13488674D01*
X10722444Y-13488674D02*
X10731967Y-13450579D01*
X10731967Y-13450579D02*
X10741491Y-13431531D01*
X10741491Y-13431531D02*
X10751015Y-13422008D01*
X10751015Y-13422008D02*
X10770063Y-13412484D01*
X10960539Y-13412484D02*
X10979586Y-13412484D01*
X10979586Y-13412484D02*
X10998634Y-13422008D01*
X10998634Y-13422008D02*
X11008158Y-13431531D01*
X11008158Y-13431531D02*
X11017682Y-13450579D01*
X11017682Y-13450579D02*
X11027205Y-13488674D01*
X11027205Y-13488674D02*
X11027205Y-13536293D01*
X11027205Y-13536293D02*
X11017682Y-13574388D01*
X11017682Y-13574388D02*
X11008158Y-13593436D01*
X11008158Y-13593436D02*
X10998634Y-13602960D01*
X10998634Y-13602960D02*
X10979586Y-13612484D01*
X10979586Y-13612484D02*
X10960539Y-13612484D01*
X10960539Y-13612484D02*
X10941491Y-13602960D01*
X10941491Y-13602960D02*
X10931967Y-13593436D01*
X10931967Y-13593436D02*
X10922444Y-13574388D01*
X10922444Y-13574388D02*
X10912920Y-13536293D01*
X10912920Y-13536293D02*
X10912920Y-13488674D01*
X10912920Y-13488674D02*
X10922444Y-13450579D01*
X10922444Y-13450579D02*
X10931967Y-13431531D01*
X10931967Y-13431531D02*
X10941491Y-13422008D01*
X10941491Y-13422008D02*
X10960539Y-13412484D01*
X11112920Y-13612484D02*
X11112920Y-13479150D01*
X11112920Y-13498198D02*
X11122444Y-13488674D01*
X11122444Y-13488674D02*
X11141491Y-13479150D01*
X11141491Y-13479150D02*
X11170063Y-13479150D01*
X11170063Y-13479150D02*
X11189110Y-13488674D01*
X11189110Y-13488674D02*
X11198634Y-13507722D01*
X11198634Y-13507722D02*
X11198634Y-13612484D01*
X11198634Y-13507722D02*
X11208158Y-13488674D01*
X11208158Y-13488674D02*
X11227205Y-13479150D01*
X11227205Y-13479150D02*
X11255777Y-13479150D01*
X11255777Y-13479150D02*
X11274824Y-13488674D01*
X11274824Y-13488674D02*
X11284348Y-13507722D01*
X11284348Y-13507722D02*
X11284348Y-13612484D01*
X11379586Y-13612484D02*
X11379586Y-13479150D01*
X11379586Y-13498198D02*
X11389110Y-13488674D01*
X11389110Y-13488674D02*
X11408158Y-13479150D01*
X11408158Y-13479150D02*
X11436729Y-13479150D01*
X11436729Y-13479150D02*
X11455777Y-13488674D01*
X11455777Y-13488674D02*
X11465301Y-13507722D01*
X11465301Y-13507722D02*
X11465301Y-13612484D01*
X11465301Y-13507722D02*
X11474824Y-13488674D01*
X11474824Y-13488674D02*
X11493872Y-13479150D01*
X11493872Y-13479150D02*
X11522443Y-13479150D01*
X11522443Y-13479150D02*
X11541491Y-13488674D01*
X11541491Y-13488674D02*
X11551015Y-13507722D01*
X11551015Y-13507722D02*
X11551015Y-13612484D01*
X11941491Y-13402960D02*
X11770063Y-13660103D01*
X12198634Y-13412484D02*
X12217682Y-13412484D01*
X12217682Y-13412484D02*
X12236729Y-13422008D01*
X12236729Y-13422008D02*
X12246253Y-13431531D01*
X12246253Y-13431531D02*
X12255777Y-13450579D01*
X12255777Y-13450579D02*
X12265301Y-13488674D01*
X12265301Y-13488674D02*
X12265301Y-13536293D01*
X12265301Y-13536293D02*
X12255777Y-13574388D01*
X12255777Y-13574388D02*
X12246253Y-13593436D01*
X12246253Y-13593436D02*
X12236729Y-13602960D01*
X12236729Y-13602960D02*
X12217682Y-13612484D01*
X12217682Y-13612484D02*
X12198634Y-13612484D01*
X12198634Y-13612484D02*
X12179586Y-13602960D01*
X12179586Y-13602960D02*
X12170063Y-13593436D01*
X12170063Y-13593436D02*
X12160539Y-13574388D01*
X12160539Y-13574388D02*
X12151015Y-13536293D01*
X12151015Y-13536293D02*
X12151015Y-13488674D01*
X12151015Y-13488674D02*
X12160539Y-13450579D01*
X12160539Y-13450579D02*
X12170063Y-13431531D01*
X12170063Y-13431531D02*
X12179586Y-13422008D01*
X12179586Y-13422008D02*
X12198634Y-13412484D01*
X12351015Y-13593436D02*
X12360539Y-13602960D01*
X12360539Y-13602960D02*
X12351015Y-13612484D01*
X12351015Y-13612484D02*
X12341491Y-13602960D01*
X12341491Y-13602960D02*
X12351015Y-13593436D01*
X12351015Y-13593436D02*
X12351015Y-13612484D01*
X12484348Y-13412484D02*
X12503396Y-13412484D01*
X12503396Y-13412484D02*
X12522444Y-13422008D01*
X12522444Y-13422008D02*
X12531967Y-13431531D01*
X12531967Y-13431531D02*
X12541491Y-13450579D01*
X12541491Y-13450579D02*
X12551015Y-13488674D01*
X12551015Y-13488674D02*
X12551015Y-13536293D01*
X12551015Y-13536293D02*
X12541491Y-13574388D01*
X12541491Y-13574388D02*
X12531967Y-13593436D01*
X12531967Y-13593436D02*
X12522444Y-13602960D01*
X12522444Y-13602960D02*
X12503396Y-13612484D01*
X12503396Y-13612484D02*
X12484348Y-13612484D01*
X12484348Y-13612484D02*
X12465301Y-13602960D01*
X12465301Y-13602960D02*
X12455777Y-13593436D01*
X12455777Y-13593436D02*
X12446253Y-13574388D01*
X12446253Y-13574388D02*
X12436729Y-13536293D01*
X12436729Y-13536293D02*
X12436729Y-13488674D01*
X12436729Y-13488674D02*
X12446253Y-13450579D01*
X12446253Y-13450579D02*
X12455777Y-13431531D01*
X12455777Y-13431531D02*
X12465301Y-13422008D01*
X12465301Y-13422008D02*
X12484348Y-13412484D01*
X12722444Y-13412484D02*
X12684348Y-13412484D01*
X12684348Y-13412484D02*
X12665301Y-13422008D01*
X12665301Y-13422008D02*
X12655777Y-13431531D01*
X12655777Y-13431531D02*
X12636729Y-13460103D01*
X12636729Y-13460103D02*
X12627206Y-13498198D01*
X12627206Y-13498198D02*
X12627206Y-13574388D01*
X12627206Y-13574388D02*
X12636729Y-13593436D01*
X12636729Y-13593436D02*
X12646253Y-13602960D01*
X12646253Y-13602960D02*
X12665301Y-13612484D01*
X12665301Y-13612484D02*
X12703396Y-13612484D01*
X12703396Y-13612484D02*
X12722444Y-13602960D01*
X12722444Y-13602960D02*
X12731967Y-13593436D01*
X12731967Y-13593436D02*
X12741491Y-13574388D01*
X12741491Y-13574388D02*
X12741491Y-13526769D01*
X12741491Y-13526769D02*
X12731967Y-13507722D01*
X12731967Y-13507722D02*
X12722444Y-13498198D01*
X12722444Y-13498198D02*
X12703396Y-13488674D01*
X12703396Y-13488674D02*
X12665301Y-13488674D01*
X12665301Y-13488674D02*
X12646253Y-13498198D01*
X12646253Y-13498198D02*
X12636729Y-13507722D01*
X12636729Y-13507722D02*
X12627206Y-13526769D01*
X12808158Y-13412484D02*
X12931967Y-13412484D01*
X12931967Y-13412484D02*
X12865301Y-13488674D01*
X12865301Y-13488674D02*
X12893872Y-13488674D01*
X12893872Y-13488674D02*
X12912920Y-13498198D01*
X12912920Y-13498198D02*
X12922444Y-13507722D01*
X12922444Y-13507722D02*
X12931967Y-13526769D01*
X12931967Y-13526769D02*
X12931967Y-13574388D01*
X12931967Y-13574388D02*
X12922444Y-13593436D01*
X12922444Y-13593436D02*
X12912920Y-13602960D01*
X12912920Y-13602960D02*
X12893872Y-13612484D01*
X12893872Y-13612484D02*
X12836729Y-13612484D01*
X12836729Y-13612484D02*
X12817682Y-13602960D01*
X12817682Y-13602960D02*
X12808158Y-13593436D01*
X13055777Y-13412484D02*
X13074825Y-13412484D01*
X13074825Y-13412484D02*
X13093872Y-13422008D01*
X13093872Y-13422008D02*
X13103396Y-13431531D01*
X13103396Y-13431531D02*
X13112920Y-13450579D01*
X13112920Y-13450579D02*
X13122444Y-13488674D01*
X13122444Y-13488674D02*
X13122444Y-13536293D01*
X13122444Y-13536293D02*
X13112920Y-13574388D01*
X13112920Y-13574388D02*
X13103396Y-13593436D01*
X13103396Y-13593436D02*
X13093872Y-13602960D01*
X13093872Y-13602960D02*
X13074825Y-13612484D01*
X13074825Y-13612484D02*
X13055777Y-13612484D01*
X13055777Y-13612484D02*
X13036729Y-13602960D01*
X13036729Y-13602960D02*
X13027206Y-13593436D01*
X13027206Y-13593436D02*
X13017682Y-13574388D01*
X13017682Y-13574388D02*
X13008158Y-13536293D01*
X13008158Y-13536293D02*
X13008158Y-13488674D01*
X13008158Y-13488674D02*
X13017682Y-13450579D01*
X13017682Y-13450579D02*
X13027206Y-13431531D01*
X13027206Y-13431531D02*
X13036729Y-13422008D01*
X13036729Y-13422008D02*
X13055777Y-13412484D01*
X13198634Y-13412484D02*
X13198634Y-13450579D01*
X13274825Y-13412484D02*
X13274825Y-13450579D01*
X13570063Y-13688674D02*
X13560539Y-13679150D01*
X13560539Y-13679150D02*
X13541491Y-13650579D01*
X13541491Y-13650579D02*
X13531968Y-13631531D01*
X13531968Y-13631531D02*
X13522444Y-13602960D01*
X13522444Y-13602960D02*
X13512920Y-13555341D01*
X13512920Y-13555341D02*
X13512920Y-13517246D01*
X13512920Y-13517246D02*
X13522444Y-13469627D01*
X13522444Y-13469627D02*
X13531968Y-13441055D01*
X13531968Y-13441055D02*
X13541491Y-13422008D01*
X13541491Y-13422008D02*
X13560539Y-13393436D01*
X13560539Y-13393436D02*
X13570063Y-13383912D01*
X13636729Y-13431531D02*
X13646253Y-13422008D01*
X13646253Y-13422008D02*
X13665301Y-13412484D01*
X13665301Y-13412484D02*
X13712920Y-13412484D01*
X13712920Y-13412484D02*
X13731968Y-13422008D01*
X13731968Y-13422008D02*
X13741491Y-13431531D01*
X13741491Y-13431531D02*
X13751015Y-13450579D01*
X13751015Y-13450579D02*
X13751015Y-13469627D01*
X13751015Y-13469627D02*
X13741491Y-13498198D01*
X13741491Y-13498198D02*
X13627206Y-13612484D01*
X13627206Y-13612484D02*
X13751015Y-13612484D01*
X13989110Y-13612484D02*
X13989110Y-13412484D01*
X14074825Y-13612484D02*
X14074825Y-13507722D01*
X14074825Y-13507722D02*
X14065301Y-13488674D01*
X14065301Y-13488674D02*
X14046253Y-13479150D01*
X14046253Y-13479150D02*
X14017682Y-13479150D01*
X14017682Y-13479150D02*
X13998634Y-13488674D01*
X13998634Y-13488674D02*
X13989110Y-13498198D01*
X14198634Y-13612484D02*
X14179587Y-13602960D01*
X14179587Y-13602960D02*
X14170063Y-13593436D01*
X14170063Y-13593436D02*
X14160539Y-13574388D01*
X14160539Y-13574388D02*
X14160539Y-13517246D01*
X14160539Y-13517246D02*
X14170063Y-13498198D01*
X14170063Y-13498198D02*
X14179587Y-13488674D01*
X14179587Y-13488674D02*
X14198634Y-13479150D01*
X14198634Y-13479150D02*
X14227206Y-13479150D01*
X14227206Y-13479150D02*
X14246253Y-13488674D01*
X14246253Y-13488674D02*
X14255777Y-13498198D01*
X14255777Y-13498198D02*
X14265301Y-13517246D01*
X14265301Y-13517246D02*
X14265301Y-13574388D01*
X14265301Y-13574388D02*
X14255777Y-13593436D01*
X14255777Y-13593436D02*
X14246253Y-13602960D01*
X14246253Y-13602960D02*
X14227206Y-13612484D01*
X14227206Y-13612484D02*
X14198634Y-13612484D01*
X14379587Y-13612484D02*
X14360539Y-13602960D01*
X14360539Y-13602960D02*
X14351015Y-13583912D01*
X14351015Y-13583912D02*
X14351015Y-13412484D01*
X14531968Y-13602960D02*
X14512920Y-13612484D01*
X14512920Y-13612484D02*
X14474825Y-13612484D01*
X14474825Y-13612484D02*
X14455777Y-13602960D01*
X14455777Y-13602960D02*
X14446253Y-13583912D01*
X14446253Y-13583912D02*
X14446253Y-13507722D01*
X14446253Y-13507722D02*
X14455777Y-13488674D01*
X14455777Y-13488674D02*
X14474825Y-13479150D01*
X14474825Y-13479150D02*
X14512920Y-13479150D01*
X14512920Y-13479150D02*
X14531968Y-13488674D01*
X14531968Y-13488674D02*
X14541491Y-13507722D01*
X14541491Y-13507722D02*
X14541491Y-13526769D01*
X14541491Y-13526769D02*
X14446253Y-13545817D01*
X14617682Y-13602960D02*
X14636730Y-13612484D01*
X14636730Y-13612484D02*
X14674825Y-13612484D01*
X14674825Y-13612484D02*
X14693872Y-13602960D01*
X14693872Y-13602960D02*
X14703396Y-13583912D01*
X14703396Y-13583912D02*
X14703396Y-13574388D01*
X14703396Y-13574388D02*
X14693872Y-13555341D01*
X14693872Y-13555341D02*
X14674825Y-13545817D01*
X14674825Y-13545817D02*
X14646253Y-13545817D01*
X14646253Y-13545817D02*
X14627206Y-13536293D01*
X14627206Y-13536293D02*
X14617682Y-13517246D01*
X14617682Y-13517246D02*
X14617682Y-13507722D01*
X14617682Y-13507722D02*
X14627206Y-13488674D01*
X14627206Y-13488674D02*
X14646253Y-13479150D01*
X14646253Y-13479150D02*
X14674825Y-13479150D01*
X14674825Y-13479150D02*
X14693872Y-13488674D01*
X14770063Y-13688674D02*
X14779587Y-13679150D01*
X14779587Y-13679150D02*
X14798634Y-13650579D01*
X14798634Y-13650579D02*
X14808158Y-13631531D01*
X14808158Y-13631531D02*
X14817682Y-13602960D01*
X14817682Y-13602960D02*
X14827206Y-13555341D01*
X14827206Y-13555341D02*
X14827206Y-13517246D01*
X14827206Y-13517246D02*
X14817682Y-13469627D01*
X14817682Y-13469627D02*
X14808158Y-13441055D01*
X14808158Y-13441055D02*
X14798634Y-13422008D01*
X14798634Y-13422008D02*
X14779587Y-13393436D01*
X14779587Y-13393436D02*
X14770063Y-13383912D01*
X9965711Y-13871711D02*
X9965711Y-13730289D01*
X9824289Y-13730289D01*
X9824289Y-13871711D01*
X9965711Y-13871711D01*
X9995000Y-13801000D02*
G75*
G02*
X9795000Y-13801000I-100000J0D01*
G01*
X9795000Y-13801000D02*
G75*
G02*
X9995000Y-13801000I100000J0D01*
G01*
X10236729Y-13692484D02*
X10360539Y-13692484D01*
X10360539Y-13692484D02*
X10293872Y-13768674D01*
X10293872Y-13768674D02*
X10322444Y-13768674D01*
X10322444Y-13768674D02*
X10341491Y-13778198D01*
X10341491Y-13778198D02*
X10351015Y-13787722D01*
X10351015Y-13787722D02*
X10360539Y-13806769D01*
X10360539Y-13806769D02*
X10360539Y-13854388D01*
X10360539Y-13854388D02*
X10351015Y-13873436D01*
X10351015Y-13873436D02*
X10341491Y-13882960D01*
X10341491Y-13882960D02*
X10322444Y-13892484D01*
X10322444Y-13892484D02*
X10265301Y-13892484D01*
X10265301Y-13892484D02*
X10246253Y-13882960D01*
X10246253Y-13882960D02*
X10236729Y-13873436D01*
X10446253Y-13873436D02*
X10455777Y-13882960D01*
X10455777Y-13882960D02*
X10446253Y-13892484D01*
X10446253Y-13892484D02*
X10436729Y-13882960D01*
X10436729Y-13882960D02*
X10446253Y-13873436D01*
X10446253Y-13873436D02*
X10446253Y-13892484D01*
X10646253Y-13892484D02*
X10531967Y-13892484D01*
X10589110Y-13892484D02*
X10589110Y-13692484D01*
X10589110Y-13692484D02*
X10570063Y-13721055D01*
X10570063Y-13721055D02*
X10551015Y-13740103D01*
X10551015Y-13740103D02*
X10531967Y-13749627D01*
X10760539Y-13778198D02*
X10741491Y-13768674D01*
X10741491Y-13768674D02*
X10731967Y-13759150D01*
X10731967Y-13759150D02*
X10722444Y-13740103D01*
X10722444Y-13740103D02*
X10722444Y-13730579D01*
X10722444Y-13730579D02*
X10731967Y-13711531D01*
X10731967Y-13711531D02*
X10741491Y-13702008D01*
X10741491Y-13702008D02*
X10760539Y-13692484D01*
X10760539Y-13692484D02*
X10798634Y-13692484D01*
X10798634Y-13692484D02*
X10817682Y-13702008D01*
X10817682Y-13702008D02*
X10827205Y-13711531D01*
X10827205Y-13711531D02*
X10836729Y-13730579D01*
X10836729Y-13730579D02*
X10836729Y-13740103D01*
X10836729Y-13740103D02*
X10827205Y-13759150D01*
X10827205Y-13759150D02*
X10817682Y-13768674D01*
X10817682Y-13768674D02*
X10798634Y-13778198D01*
X10798634Y-13778198D02*
X10760539Y-13778198D01*
X10760539Y-13778198D02*
X10741491Y-13787722D01*
X10741491Y-13787722D02*
X10731967Y-13797246D01*
X10731967Y-13797246D02*
X10722444Y-13816293D01*
X10722444Y-13816293D02*
X10722444Y-13854388D01*
X10722444Y-13854388D02*
X10731967Y-13873436D01*
X10731967Y-13873436D02*
X10741491Y-13882960D01*
X10741491Y-13882960D02*
X10760539Y-13892484D01*
X10760539Y-13892484D02*
X10798634Y-13892484D01*
X10798634Y-13892484D02*
X10817682Y-13882960D01*
X10817682Y-13882960D02*
X10827205Y-13873436D01*
X10827205Y-13873436D02*
X10836729Y-13854388D01*
X10836729Y-13854388D02*
X10836729Y-13816293D01*
X10836729Y-13816293D02*
X10827205Y-13797246D01*
X10827205Y-13797246D02*
X10817682Y-13787722D01*
X10817682Y-13787722D02*
X10798634Y-13778198D01*
X10960539Y-13692484D02*
X10979586Y-13692484D01*
X10979586Y-13692484D02*
X10998634Y-13702008D01*
X10998634Y-13702008D02*
X11008158Y-13711531D01*
X11008158Y-13711531D02*
X11017682Y-13730579D01*
X11017682Y-13730579D02*
X11027205Y-13768674D01*
X11027205Y-13768674D02*
X11027205Y-13816293D01*
X11027205Y-13816293D02*
X11017682Y-13854388D01*
X11017682Y-13854388D02*
X11008158Y-13873436D01*
X11008158Y-13873436D02*
X10998634Y-13882960D01*
X10998634Y-13882960D02*
X10979586Y-13892484D01*
X10979586Y-13892484D02*
X10960539Y-13892484D01*
X10960539Y-13892484D02*
X10941491Y-13882960D01*
X10941491Y-13882960D02*
X10931967Y-13873436D01*
X10931967Y-13873436D02*
X10922444Y-13854388D01*
X10922444Y-13854388D02*
X10912920Y-13816293D01*
X10912920Y-13816293D02*
X10912920Y-13768674D01*
X10912920Y-13768674D02*
X10922444Y-13730579D01*
X10922444Y-13730579D02*
X10931967Y-13711531D01*
X10931967Y-13711531D02*
X10941491Y-13702008D01*
X10941491Y-13702008D02*
X10960539Y-13692484D01*
X11112920Y-13892484D02*
X11112920Y-13759150D01*
X11112920Y-13778198D02*
X11122444Y-13768674D01*
X11122444Y-13768674D02*
X11141491Y-13759150D01*
X11141491Y-13759150D02*
X11170063Y-13759150D01*
X11170063Y-13759150D02*
X11189110Y-13768674D01*
X11189110Y-13768674D02*
X11198634Y-13787722D01*
X11198634Y-13787722D02*
X11198634Y-13892484D01*
X11198634Y-13787722D02*
X11208158Y-13768674D01*
X11208158Y-13768674D02*
X11227205Y-13759150D01*
X11227205Y-13759150D02*
X11255777Y-13759150D01*
X11255777Y-13759150D02*
X11274824Y-13768674D01*
X11274824Y-13768674D02*
X11284348Y-13787722D01*
X11284348Y-13787722D02*
X11284348Y-13892484D01*
X11379586Y-13892484D02*
X11379586Y-13759150D01*
X11379586Y-13778198D02*
X11389110Y-13768674D01*
X11389110Y-13768674D02*
X11408158Y-13759150D01*
X11408158Y-13759150D02*
X11436729Y-13759150D01*
X11436729Y-13759150D02*
X11455777Y-13768674D01*
X11455777Y-13768674D02*
X11465301Y-13787722D01*
X11465301Y-13787722D02*
X11465301Y-13892484D01*
X11465301Y-13787722D02*
X11474824Y-13768674D01*
X11474824Y-13768674D02*
X11493872Y-13759150D01*
X11493872Y-13759150D02*
X11522443Y-13759150D01*
X11522443Y-13759150D02*
X11541491Y-13768674D01*
X11541491Y-13768674D02*
X11551015Y-13787722D01*
X11551015Y-13787722D02*
X11551015Y-13892484D01*
X11941491Y-13682960D02*
X11770063Y-13940103D01*
X12198634Y-13692484D02*
X12217682Y-13692484D01*
X12217682Y-13692484D02*
X12236729Y-13702008D01*
X12236729Y-13702008D02*
X12246253Y-13711531D01*
X12246253Y-13711531D02*
X12255777Y-13730579D01*
X12255777Y-13730579D02*
X12265301Y-13768674D01*
X12265301Y-13768674D02*
X12265301Y-13816293D01*
X12265301Y-13816293D02*
X12255777Y-13854388D01*
X12255777Y-13854388D02*
X12246253Y-13873436D01*
X12246253Y-13873436D02*
X12236729Y-13882960D01*
X12236729Y-13882960D02*
X12217682Y-13892484D01*
X12217682Y-13892484D02*
X12198634Y-13892484D01*
X12198634Y-13892484D02*
X12179586Y-13882960D01*
X12179586Y-13882960D02*
X12170063Y-13873436D01*
X12170063Y-13873436D02*
X12160539Y-13854388D01*
X12160539Y-13854388D02*
X12151015Y-13816293D01*
X12151015Y-13816293D02*
X12151015Y-13768674D01*
X12151015Y-13768674D02*
X12160539Y-13730579D01*
X12160539Y-13730579D02*
X12170063Y-13711531D01*
X12170063Y-13711531D02*
X12179586Y-13702008D01*
X12179586Y-13702008D02*
X12198634Y-13692484D01*
X12351015Y-13873436D02*
X12360539Y-13882960D01*
X12360539Y-13882960D02*
X12351015Y-13892484D01*
X12351015Y-13892484D02*
X12341491Y-13882960D01*
X12341491Y-13882960D02*
X12351015Y-13873436D01*
X12351015Y-13873436D02*
X12351015Y-13892484D01*
X12551015Y-13892484D02*
X12436729Y-13892484D01*
X12493872Y-13892484D02*
X12493872Y-13692484D01*
X12493872Y-13692484D02*
X12474825Y-13721055D01*
X12474825Y-13721055D02*
X12455777Y-13740103D01*
X12455777Y-13740103D02*
X12436729Y-13749627D01*
X12627206Y-13711531D02*
X12636729Y-13702008D01*
X12636729Y-13702008D02*
X12655777Y-13692484D01*
X12655777Y-13692484D02*
X12703396Y-13692484D01*
X12703396Y-13692484D02*
X12722444Y-13702008D01*
X12722444Y-13702008D02*
X12731967Y-13711531D01*
X12731967Y-13711531D02*
X12741491Y-13730579D01*
X12741491Y-13730579D02*
X12741491Y-13749627D01*
X12741491Y-13749627D02*
X12731967Y-13778198D01*
X12731967Y-13778198D02*
X12617682Y-13892484D01*
X12617682Y-13892484D02*
X12741491Y-13892484D01*
X12922444Y-13692484D02*
X12827206Y-13692484D01*
X12827206Y-13692484D02*
X12817682Y-13787722D01*
X12817682Y-13787722D02*
X12827206Y-13778198D01*
X12827206Y-13778198D02*
X12846253Y-13768674D01*
X12846253Y-13768674D02*
X12893872Y-13768674D01*
X12893872Y-13768674D02*
X12912920Y-13778198D01*
X12912920Y-13778198D02*
X12922444Y-13787722D01*
X12922444Y-13787722D02*
X12931967Y-13806769D01*
X12931967Y-13806769D02*
X12931967Y-13854388D01*
X12931967Y-13854388D02*
X12922444Y-13873436D01*
X12922444Y-13873436D02*
X12912920Y-13882960D01*
X12912920Y-13882960D02*
X12893872Y-13892484D01*
X12893872Y-13892484D02*
X12846253Y-13892484D01*
X12846253Y-13892484D02*
X12827206Y-13882960D01*
X12827206Y-13882960D02*
X12817682Y-13873436D01*
X13008158Y-13711531D02*
X13017682Y-13702008D01*
X13017682Y-13702008D02*
X13036729Y-13692484D01*
X13036729Y-13692484D02*
X13084348Y-13692484D01*
X13084348Y-13692484D02*
X13103396Y-13702008D01*
X13103396Y-13702008D02*
X13112920Y-13711531D01*
X13112920Y-13711531D02*
X13122444Y-13730579D01*
X13122444Y-13730579D02*
X13122444Y-13749627D01*
X13122444Y-13749627D02*
X13112920Y-13778198D01*
X13112920Y-13778198D02*
X12998634Y-13892484D01*
X12998634Y-13892484D02*
X13122444Y-13892484D01*
X13198634Y-13692484D02*
X13198634Y-13730579D01*
X13274825Y-13692484D02*
X13274825Y-13730579D01*
X13570063Y-13968674D02*
X13560539Y-13959150D01*
X13560539Y-13959150D02*
X13541491Y-13930579D01*
X13541491Y-13930579D02*
X13531968Y-13911531D01*
X13531968Y-13911531D02*
X13522444Y-13882960D01*
X13522444Y-13882960D02*
X13512920Y-13835341D01*
X13512920Y-13835341D02*
X13512920Y-13797246D01*
X13512920Y-13797246D02*
X13522444Y-13749627D01*
X13522444Y-13749627D02*
X13531968Y-13721055D01*
X13531968Y-13721055D02*
X13541491Y-13702008D01*
X13541491Y-13702008D02*
X13560539Y-13673436D01*
X13560539Y-13673436D02*
X13570063Y-13663912D01*
X13636729Y-13711531D02*
X13646253Y-13702008D01*
X13646253Y-13702008D02*
X13665301Y-13692484D01*
X13665301Y-13692484D02*
X13712920Y-13692484D01*
X13712920Y-13692484D02*
X13731968Y-13702008D01*
X13731968Y-13702008D02*
X13741491Y-13711531D01*
X13741491Y-13711531D02*
X13751015Y-13730579D01*
X13751015Y-13730579D02*
X13751015Y-13749627D01*
X13751015Y-13749627D02*
X13741491Y-13778198D01*
X13741491Y-13778198D02*
X13627206Y-13892484D01*
X13627206Y-13892484D02*
X13751015Y-13892484D01*
X13989110Y-13892484D02*
X13989110Y-13692484D01*
X14074825Y-13892484D02*
X14074825Y-13787722D01*
X14074825Y-13787722D02*
X14065301Y-13768674D01*
X14065301Y-13768674D02*
X14046253Y-13759150D01*
X14046253Y-13759150D02*
X14017682Y-13759150D01*
X14017682Y-13759150D02*
X13998634Y-13768674D01*
X13998634Y-13768674D02*
X13989110Y-13778198D01*
X14198634Y-13892484D02*
X14179587Y-13882960D01*
X14179587Y-13882960D02*
X14170063Y-13873436D01*
X14170063Y-13873436D02*
X14160539Y-13854388D01*
X14160539Y-13854388D02*
X14160539Y-13797246D01*
X14160539Y-13797246D02*
X14170063Y-13778198D01*
X14170063Y-13778198D02*
X14179587Y-13768674D01*
X14179587Y-13768674D02*
X14198634Y-13759150D01*
X14198634Y-13759150D02*
X14227206Y-13759150D01*
X14227206Y-13759150D02*
X14246253Y-13768674D01*
X14246253Y-13768674D02*
X14255777Y-13778198D01*
X14255777Y-13778198D02*
X14265301Y-13797246D01*
X14265301Y-13797246D02*
X14265301Y-13854388D01*
X14265301Y-13854388D02*
X14255777Y-13873436D01*
X14255777Y-13873436D02*
X14246253Y-13882960D01*
X14246253Y-13882960D02*
X14227206Y-13892484D01*
X14227206Y-13892484D02*
X14198634Y-13892484D01*
X14379587Y-13892484D02*
X14360539Y-13882960D01*
X14360539Y-13882960D02*
X14351015Y-13863912D01*
X14351015Y-13863912D02*
X14351015Y-13692484D01*
X14531968Y-13882960D02*
X14512920Y-13892484D01*
X14512920Y-13892484D02*
X14474825Y-13892484D01*
X14474825Y-13892484D02*
X14455777Y-13882960D01*
X14455777Y-13882960D02*
X14446253Y-13863912D01*
X14446253Y-13863912D02*
X14446253Y-13787722D01*
X14446253Y-13787722D02*
X14455777Y-13768674D01*
X14455777Y-13768674D02*
X14474825Y-13759150D01*
X14474825Y-13759150D02*
X14512920Y-13759150D01*
X14512920Y-13759150D02*
X14531968Y-13768674D01*
X14531968Y-13768674D02*
X14541491Y-13787722D01*
X14541491Y-13787722D02*
X14541491Y-13806769D01*
X14541491Y-13806769D02*
X14446253Y-13825817D01*
X14617682Y-13882960D02*
X14636730Y-13892484D01*
X14636730Y-13892484D02*
X14674825Y-13892484D01*
X14674825Y-13892484D02*
X14693872Y-13882960D01*
X14693872Y-13882960D02*
X14703396Y-13863912D01*
X14703396Y-13863912D02*
X14703396Y-13854388D01*
X14703396Y-13854388D02*
X14693872Y-13835341D01*
X14693872Y-13835341D02*
X14674825Y-13825817D01*
X14674825Y-13825817D02*
X14646253Y-13825817D01*
X14646253Y-13825817D02*
X14627206Y-13816293D01*
X14627206Y-13816293D02*
X14617682Y-13797246D01*
X14617682Y-13797246D02*
X14617682Y-13787722D01*
X14617682Y-13787722D02*
X14627206Y-13768674D01*
X14627206Y-13768674D02*
X14646253Y-13759150D01*
X14646253Y-13759150D02*
X14674825Y-13759150D01*
X14674825Y-13759150D02*
X14693872Y-13768674D01*
X14770063Y-13968674D02*
X14779587Y-13959150D01*
X14779587Y-13959150D02*
X14798634Y-13930579D01*
X14798634Y-13930579D02*
X14808158Y-13911531D01*
X14808158Y-13911531D02*
X14817682Y-13882960D01*
X14817682Y-13882960D02*
X14827206Y-13835341D01*
X14827206Y-13835341D02*
X14827206Y-13797246D01*
X14827206Y-13797246D02*
X14817682Y-13749627D01*
X14817682Y-13749627D02*
X14808158Y-13721055D01*
X14808158Y-13721055D02*
X14798634Y-13702008D01*
X14798634Y-13702008D02*
X14779587Y-13673436D01*
X14779587Y-13673436D02*
X14770063Y-13663912D01*
X9895000Y-14221000D02*
X9995000Y-14121000D01*
X9895000Y-14021000D01*
X9795000Y-14121000D01*
X9895000Y-14221000D01*
X9995000Y-14121000D02*
G75*
G02*
X9795000Y-14121000I-100000J0D01*
G01*
X9795000Y-14121000D02*
G75*
G02*
X9995000Y-14121000I100000J0D01*
G01*
X10236729Y-14012484D02*
X10360539Y-14012484D01*
X10360539Y-14012484D02*
X10293872Y-14088674D01*
X10293872Y-14088674D02*
X10322444Y-14088674D01*
X10322444Y-14088674D02*
X10341491Y-14098198D01*
X10341491Y-14098198D02*
X10351015Y-14107722D01*
X10351015Y-14107722D02*
X10360539Y-14126769D01*
X10360539Y-14126769D02*
X10360539Y-14174388D01*
X10360539Y-14174388D02*
X10351015Y-14193436D01*
X10351015Y-14193436D02*
X10341491Y-14202960D01*
X10341491Y-14202960D02*
X10322444Y-14212484D01*
X10322444Y-14212484D02*
X10265301Y-14212484D01*
X10265301Y-14212484D02*
X10246253Y-14202960D01*
X10246253Y-14202960D02*
X10236729Y-14193436D01*
X10446253Y-14193436D02*
X10455777Y-14202960D01*
X10455777Y-14202960D02*
X10446253Y-14212484D01*
X10446253Y-14212484D02*
X10436729Y-14202960D01*
X10436729Y-14202960D02*
X10446253Y-14193436D01*
X10446253Y-14193436D02*
X10446253Y-14212484D01*
X10531967Y-14031531D02*
X10541491Y-14022008D01*
X10541491Y-14022008D02*
X10560539Y-14012484D01*
X10560539Y-14012484D02*
X10608158Y-14012484D01*
X10608158Y-14012484D02*
X10627205Y-14022008D01*
X10627205Y-14022008D02*
X10636729Y-14031531D01*
X10636729Y-14031531D02*
X10646253Y-14050579D01*
X10646253Y-14050579D02*
X10646253Y-14069627D01*
X10646253Y-14069627D02*
X10636729Y-14098198D01*
X10636729Y-14098198D02*
X10522444Y-14212484D01*
X10522444Y-14212484D02*
X10646253Y-14212484D01*
X10770063Y-14012484D02*
X10789110Y-14012484D01*
X10789110Y-14012484D02*
X10808158Y-14022008D01*
X10808158Y-14022008D02*
X10817682Y-14031531D01*
X10817682Y-14031531D02*
X10827205Y-14050579D01*
X10827205Y-14050579D02*
X10836729Y-14088674D01*
X10836729Y-14088674D02*
X10836729Y-14136293D01*
X10836729Y-14136293D02*
X10827205Y-14174388D01*
X10827205Y-14174388D02*
X10817682Y-14193436D01*
X10817682Y-14193436D02*
X10808158Y-14202960D01*
X10808158Y-14202960D02*
X10789110Y-14212484D01*
X10789110Y-14212484D02*
X10770063Y-14212484D01*
X10770063Y-14212484D02*
X10751015Y-14202960D01*
X10751015Y-14202960D02*
X10741491Y-14193436D01*
X10741491Y-14193436D02*
X10731967Y-14174388D01*
X10731967Y-14174388D02*
X10722444Y-14136293D01*
X10722444Y-14136293D02*
X10722444Y-14088674D01*
X10722444Y-14088674D02*
X10731967Y-14050579D01*
X10731967Y-14050579D02*
X10741491Y-14031531D01*
X10741491Y-14031531D02*
X10751015Y-14022008D01*
X10751015Y-14022008D02*
X10770063Y-14012484D01*
X10960539Y-14012484D02*
X10979586Y-14012484D01*
X10979586Y-14012484D02*
X10998634Y-14022008D01*
X10998634Y-14022008D02*
X11008158Y-14031531D01*
X11008158Y-14031531D02*
X11017682Y-14050579D01*
X11017682Y-14050579D02*
X11027205Y-14088674D01*
X11027205Y-14088674D02*
X11027205Y-14136293D01*
X11027205Y-14136293D02*
X11017682Y-14174388D01*
X11017682Y-14174388D02*
X11008158Y-14193436D01*
X11008158Y-14193436D02*
X10998634Y-14202960D01*
X10998634Y-14202960D02*
X10979586Y-14212484D01*
X10979586Y-14212484D02*
X10960539Y-14212484D01*
X10960539Y-14212484D02*
X10941491Y-14202960D01*
X10941491Y-14202960D02*
X10931967Y-14193436D01*
X10931967Y-14193436D02*
X10922444Y-14174388D01*
X10922444Y-14174388D02*
X10912920Y-14136293D01*
X10912920Y-14136293D02*
X10912920Y-14088674D01*
X10912920Y-14088674D02*
X10922444Y-14050579D01*
X10922444Y-14050579D02*
X10931967Y-14031531D01*
X10931967Y-14031531D02*
X10941491Y-14022008D01*
X10941491Y-14022008D02*
X10960539Y-14012484D01*
X11112920Y-14212484D02*
X11112920Y-14079150D01*
X11112920Y-14098198D02*
X11122444Y-14088674D01*
X11122444Y-14088674D02*
X11141491Y-14079150D01*
X11141491Y-14079150D02*
X11170063Y-14079150D01*
X11170063Y-14079150D02*
X11189110Y-14088674D01*
X11189110Y-14088674D02*
X11198634Y-14107722D01*
X11198634Y-14107722D02*
X11198634Y-14212484D01*
X11198634Y-14107722D02*
X11208158Y-14088674D01*
X11208158Y-14088674D02*
X11227205Y-14079150D01*
X11227205Y-14079150D02*
X11255777Y-14079150D01*
X11255777Y-14079150D02*
X11274824Y-14088674D01*
X11274824Y-14088674D02*
X11284348Y-14107722D01*
X11284348Y-14107722D02*
X11284348Y-14212484D01*
X11379586Y-14212484D02*
X11379586Y-14079150D01*
X11379586Y-14098198D02*
X11389110Y-14088674D01*
X11389110Y-14088674D02*
X11408158Y-14079150D01*
X11408158Y-14079150D02*
X11436729Y-14079150D01*
X11436729Y-14079150D02*
X11455777Y-14088674D01*
X11455777Y-14088674D02*
X11465301Y-14107722D01*
X11465301Y-14107722D02*
X11465301Y-14212484D01*
X11465301Y-14107722D02*
X11474824Y-14088674D01*
X11474824Y-14088674D02*
X11493872Y-14079150D01*
X11493872Y-14079150D02*
X11522443Y-14079150D01*
X11522443Y-14079150D02*
X11541491Y-14088674D01*
X11541491Y-14088674D02*
X11551015Y-14107722D01*
X11551015Y-14107722D02*
X11551015Y-14212484D01*
X11941491Y-14002960D02*
X11770063Y-14260103D01*
X12198634Y-14012484D02*
X12217682Y-14012484D01*
X12217682Y-14012484D02*
X12236729Y-14022008D01*
X12236729Y-14022008D02*
X12246253Y-14031531D01*
X12246253Y-14031531D02*
X12255777Y-14050579D01*
X12255777Y-14050579D02*
X12265301Y-14088674D01*
X12265301Y-14088674D02*
X12265301Y-14136293D01*
X12265301Y-14136293D02*
X12255777Y-14174388D01*
X12255777Y-14174388D02*
X12246253Y-14193436D01*
X12246253Y-14193436D02*
X12236729Y-14202960D01*
X12236729Y-14202960D02*
X12217682Y-14212484D01*
X12217682Y-14212484D02*
X12198634Y-14212484D01*
X12198634Y-14212484D02*
X12179586Y-14202960D01*
X12179586Y-14202960D02*
X12170063Y-14193436D01*
X12170063Y-14193436D02*
X12160539Y-14174388D01*
X12160539Y-14174388D02*
X12151015Y-14136293D01*
X12151015Y-14136293D02*
X12151015Y-14088674D01*
X12151015Y-14088674D02*
X12160539Y-14050579D01*
X12160539Y-14050579D02*
X12170063Y-14031531D01*
X12170063Y-14031531D02*
X12179586Y-14022008D01*
X12179586Y-14022008D02*
X12198634Y-14012484D01*
X12351015Y-14193436D02*
X12360539Y-14202960D01*
X12360539Y-14202960D02*
X12351015Y-14212484D01*
X12351015Y-14212484D02*
X12341491Y-14202960D01*
X12341491Y-14202960D02*
X12351015Y-14193436D01*
X12351015Y-14193436D02*
X12351015Y-14212484D01*
X12551015Y-14212484D02*
X12436729Y-14212484D01*
X12493872Y-14212484D02*
X12493872Y-14012484D01*
X12493872Y-14012484D02*
X12474825Y-14041055D01*
X12474825Y-14041055D02*
X12455777Y-14060103D01*
X12455777Y-14060103D02*
X12436729Y-14069627D01*
X12627206Y-14031531D02*
X12636729Y-14022008D01*
X12636729Y-14022008D02*
X12655777Y-14012484D01*
X12655777Y-14012484D02*
X12703396Y-14012484D01*
X12703396Y-14012484D02*
X12722444Y-14022008D01*
X12722444Y-14022008D02*
X12731967Y-14031531D01*
X12731967Y-14031531D02*
X12741491Y-14050579D01*
X12741491Y-14050579D02*
X12741491Y-14069627D01*
X12741491Y-14069627D02*
X12731967Y-14098198D01*
X12731967Y-14098198D02*
X12617682Y-14212484D01*
X12617682Y-14212484D02*
X12741491Y-14212484D01*
X12912920Y-14012484D02*
X12874825Y-14012484D01*
X12874825Y-14012484D02*
X12855777Y-14022008D01*
X12855777Y-14022008D02*
X12846253Y-14031531D01*
X12846253Y-14031531D02*
X12827206Y-14060103D01*
X12827206Y-14060103D02*
X12817682Y-14098198D01*
X12817682Y-14098198D02*
X12817682Y-14174388D01*
X12817682Y-14174388D02*
X12827206Y-14193436D01*
X12827206Y-14193436D02*
X12836729Y-14202960D01*
X12836729Y-14202960D02*
X12855777Y-14212484D01*
X12855777Y-14212484D02*
X12893872Y-14212484D01*
X12893872Y-14212484D02*
X12912920Y-14202960D01*
X12912920Y-14202960D02*
X12922444Y-14193436D01*
X12922444Y-14193436D02*
X12931967Y-14174388D01*
X12931967Y-14174388D02*
X12931967Y-14126769D01*
X12931967Y-14126769D02*
X12922444Y-14107722D01*
X12922444Y-14107722D02*
X12912920Y-14098198D01*
X12912920Y-14098198D02*
X12893872Y-14088674D01*
X12893872Y-14088674D02*
X12855777Y-14088674D01*
X12855777Y-14088674D02*
X12836729Y-14098198D01*
X12836729Y-14098198D02*
X12827206Y-14107722D01*
X12827206Y-14107722D02*
X12817682Y-14126769D01*
X13055777Y-14012484D02*
X13074825Y-14012484D01*
X13074825Y-14012484D02*
X13093872Y-14022008D01*
X13093872Y-14022008D02*
X13103396Y-14031531D01*
X13103396Y-14031531D02*
X13112920Y-14050579D01*
X13112920Y-14050579D02*
X13122444Y-14088674D01*
X13122444Y-14088674D02*
X13122444Y-14136293D01*
X13122444Y-14136293D02*
X13112920Y-14174388D01*
X13112920Y-14174388D02*
X13103396Y-14193436D01*
X13103396Y-14193436D02*
X13093872Y-14202960D01*
X13093872Y-14202960D02*
X13074825Y-14212484D01*
X13074825Y-14212484D02*
X13055777Y-14212484D01*
X13055777Y-14212484D02*
X13036729Y-14202960D01*
X13036729Y-14202960D02*
X13027206Y-14193436D01*
X13027206Y-14193436D02*
X13017682Y-14174388D01*
X13017682Y-14174388D02*
X13008158Y-14136293D01*
X13008158Y-14136293D02*
X13008158Y-14088674D01*
X13008158Y-14088674D02*
X13017682Y-14050579D01*
X13017682Y-14050579D02*
X13027206Y-14031531D01*
X13027206Y-14031531D02*
X13036729Y-14022008D01*
X13036729Y-14022008D02*
X13055777Y-14012484D01*
X13198634Y-14012484D02*
X13198634Y-14050579D01*
X13274825Y-14012484D02*
X13274825Y-14050579D01*
X13570063Y-14288674D02*
X13560539Y-14279150D01*
X13560539Y-14279150D02*
X13541491Y-14250579D01*
X13541491Y-14250579D02*
X13531968Y-14231531D01*
X13531968Y-14231531D02*
X13522444Y-14202960D01*
X13522444Y-14202960D02*
X13512920Y-14155341D01*
X13512920Y-14155341D02*
X13512920Y-14117246D01*
X13512920Y-14117246D02*
X13522444Y-14069627D01*
X13522444Y-14069627D02*
X13531968Y-14041055D01*
X13531968Y-14041055D02*
X13541491Y-14022008D01*
X13541491Y-14022008D02*
X13560539Y-13993436D01*
X13560539Y-13993436D02*
X13570063Y-13983912D01*
X13636729Y-14031531D02*
X13646253Y-14022008D01*
X13646253Y-14022008D02*
X13665301Y-14012484D01*
X13665301Y-14012484D02*
X13712920Y-14012484D01*
X13712920Y-14012484D02*
X13731968Y-14022008D01*
X13731968Y-14022008D02*
X13741491Y-14031531D01*
X13741491Y-14031531D02*
X13751015Y-14050579D01*
X13751015Y-14050579D02*
X13751015Y-14069627D01*
X13751015Y-14069627D02*
X13741491Y-14098198D01*
X13741491Y-14098198D02*
X13627206Y-14212484D01*
X13627206Y-14212484D02*
X13751015Y-14212484D01*
X13989110Y-14212484D02*
X13989110Y-14012484D01*
X14074825Y-14212484D02*
X14074825Y-14107722D01*
X14074825Y-14107722D02*
X14065301Y-14088674D01*
X14065301Y-14088674D02*
X14046253Y-14079150D01*
X14046253Y-14079150D02*
X14017682Y-14079150D01*
X14017682Y-14079150D02*
X13998634Y-14088674D01*
X13998634Y-14088674D02*
X13989110Y-14098198D01*
X14198634Y-14212484D02*
X14179587Y-14202960D01*
X14179587Y-14202960D02*
X14170063Y-14193436D01*
X14170063Y-14193436D02*
X14160539Y-14174388D01*
X14160539Y-14174388D02*
X14160539Y-14117246D01*
X14160539Y-14117246D02*
X14170063Y-14098198D01*
X14170063Y-14098198D02*
X14179587Y-14088674D01*
X14179587Y-14088674D02*
X14198634Y-14079150D01*
X14198634Y-14079150D02*
X14227206Y-14079150D01*
X14227206Y-14079150D02*
X14246253Y-14088674D01*
X14246253Y-14088674D02*
X14255777Y-14098198D01*
X14255777Y-14098198D02*
X14265301Y-14117246D01*
X14265301Y-14117246D02*
X14265301Y-14174388D01*
X14265301Y-14174388D02*
X14255777Y-14193436D01*
X14255777Y-14193436D02*
X14246253Y-14202960D01*
X14246253Y-14202960D02*
X14227206Y-14212484D01*
X14227206Y-14212484D02*
X14198634Y-14212484D01*
X14379587Y-14212484D02*
X14360539Y-14202960D01*
X14360539Y-14202960D02*
X14351015Y-14183912D01*
X14351015Y-14183912D02*
X14351015Y-14012484D01*
X14531968Y-14202960D02*
X14512920Y-14212484D01*
X14512920Y-14212484D02*
X14474825Y-14212484D01*
X14474825Y-14212484D02*
X14455777Y-14202960D01*
X14455777Y-14202960D02*
X14446253Y-14183912D01*
X14446253Y-14183912D02*
X14446253Y-14107722D01*
X14446253Y-14107722D02*
X14455777Y-14088674D01*
X14455777Y-14088674D02*
X14474825Y-14079150D01*
X14474825Y-14079150D02*
X14512920Y-14079150D01*
X14512920Y-14079150D02*
X14531968Y-14088674D01*
X14531968Y-14088674D02*
X14541491Y-14107722D01*
X14541491Y-14107722D02*
X14541491Y-14126769D01*
X14541491Y-14126769D02*
X14446253Y-14145817D01*
X14617682Y-14202960D02*
X14636730Y-14212484D01*
X14636730Y-14212484D02*
X14674825Y-14212484D01*
X14674825Y-14212484D02*
X14693872Y-14202960D01*
X14693872Y-14202960D02*
X14703396Y-14183912D01*
X14703396Y-14183912D02*
X14703396Y-14174388D01*
X14703396Y-14174388D02*
X14693872Y-14155341D01*
X14693872Y-14155341D02*
X14674825Y-14145817D01*
X14674825Y-14145817D02*
X14646253Y-14145817D01*
X14646253Y-14145817D02*
X14627206Y-14136293D01*
X14627206Y-14136293D02*
X14617682Y-14117246D01*
X14617682Y-14117246D02*
X14617682Y-14107722D01*
X14617682Y-14107722D02*
X14627206Y-14088674D01*
X14627206Y-14088674D02*
X14646253Y-14079150D01*
X14646253Y-14079150D02*
X14674825Y-14079150D01*
X14674825Y-14079150D02*
X14693872Y-14088674D01*
X14770063Y-14288674D02*
X14779587Y-14279150D01*
X14779587Y-14279150D02*
X14798634Y-14250579D01*
X14798634Y-14250579D02*
X14808158Y-14231531D01*
X14808158Y-14231531D02*
X14817682Y-14202960D01*
X14817682Y-14202960D02*
X14827206Y-14155341D01*
X14827206Y-14155341D02*
X14827206Y-14117246D01*
X14827206Y-14117246D02*
X14817682Y-14069627D01*
X14817682Y-14069627D02*
X14808158Y-14041055D01*
X14808158Y-14041055D02*
X14798634Y-14022008D01*
X14798634Y-14022008D02*
X14779587Y-13993436D01*
X14779587Y-13993436D02*
X14770063Y-13983912D01*
M02*
