G04 #@! TF.GenerationSoftware,KiCad,Pcbnew,8.0.1*
G04 #@! TF.CreationDate,2024-03-27T20:13:14+01:00*
G04 #@! TF.ProjectId,ETH1HMSR-SMS,45544831-484d-4535-922d-534d532e6b69,rev?*
G04 #@! TF.SameCoordinates,Original*
G04 #@! TF.FileFunction,Legend,Top*
G04 #@! TF.FilePolarity,Positive*
%FSLAX46Y46*%
G04 Gerber Fmt 4.6, Leading zero omitted, Abs format (unit mm)*
G04 Created by KiCad (PCBNEW 8.0.1) date 2024-03-27 20:13:14*
%MOMM*%
%LPD*%
G01*
G04 APERTURE LIST*
%ADD10C,0.150000*%
%ADD11C,0.500000*%
%ADD12C,0.200000*%
%ADD13C,0.300000*%
%ADD14C,0.120000*%
%ADD15C,0.100000*%
%ADD16C,0.381000*%
%ADD17C,0.450000*%
%ADD18C,0.250000*%
%ADD19C,0.400000*%
%ADD20C,0.000000*%
G04 APERTURE END LIST*
D10*
X121285000Y-104140000D02*
X121285000Y-102490000D01*
X121285000Y-101890000D02*
X121285000Y-100240000D01*
X121285000Y-99640000D02*
X121285000Y-97990000D01*
X121285000Y-97390000D02*
X121285000Y-97155000D01*
X121285000Y-67945000D02*
X121285000Y-66295000D01*
X121285000Y-65695000D02*
X121285000Y-64045000D01*
X121285000Y-63445000D02*
X121285000Y-61795000D01*
X121285000Y-61195000D02*
X121285000Y-60960000D01*
D11*
X198628000Y-98044000D02*
X198628000Y-96774000D01*
X197993000Y-97409000D02*
X199263000Y-97409000D01*
D12*
X189853673Y-97276266D02*
X190615578Y-97276266D01*
X190234625Y-97657219D02*
X190234625Y-96895314D01*
X191044149Y-96752457D02*
X191091768Y-96704838D01*
X191091768Y-96704838D02*
X191187006Y-96657219D01*
X191187006Y-96657219D02*
X191425101Y-96657219D01*
X191425101Y-96657219D02*
X191520339Y-96704838D01*
X191520339Y-96704838D02*
X191567958Y-96752457D01*
X191567958Y-96752457D02*
X191615577Y-96847695D01*
X191615577Y-96847695D02*
X191615577Y-96942933D01*
X191615577Y-96942933D02*
X191567958Y-97085790D01*
X191567958Y-97085790D02*
X190996530Y-97657219D01*
X190996530Y-97657219D02*
X191615577Y-97657219D01*
X192472720Y-96990552D02*
X192472720Y-97657219D01*
X192234625Y-96609600D02*
X191996530Y-97323885D01*
X191996530Y-97323885D02*
X192615577Y-97323885D01*
X193615578Y-96657219D02*
X193948911Y-97657219D01*
X193948911Y-97657219D02*
X194282244Y-96657219D01*
X194615578Y-97657219D02*
X194615578Y-96657219D01*
X194615578Y-96657219D02*
X194853673Y-96657219D01*
X194853673Y-96657219D02*
X194996530Y-96704838D01*
X194996530Y-96704838D02*
X195091768Y-96800076D01*
X195091768Y-96800076D02*
X195139387Y-96895314D01*
X195139387Y-96895314D02*
X195187006Y-97085790D01*
X195187006Y-97085790D02*
X195187006Y-97228647D01*
X195187006Y-97228647D02*
X195139387Y-97419123D01*
X195139387Y-97419123D02*
X195091768Y-97514361D01*
X195091768Y-97514361D02*
X194996530Y-97609600D01*
X194996530Y-97609600D02*
X194853673Y-97657219D01*
X194853673Y-97657219D02*
X194615578Y-97657219D01*
X196187006Y-97561980D02*
X196139387Y-97609600D01*
X196139387Y-97609600D02*
X195996530Y-97657219D01*
X195996530Y-97657219D02*
X195901292Y-97657219D01*
X195901292Y-97657219D02*
X195758435Y-97609600D01*
X195758435Y-97609600D02*
X195663197Y-97514361D01*
X195663197Y-97514361D02*
X195615578Y-97419123D01*
X195615578Y-97419123D02*
X195567959Y-97228647D01*
X195567959Y-97228647D02*
X195567959Y-97085790D01*
X195567959Y-97085790D02*
X195615578Y-96895314D01*
X195615578Y-96895314D02*
X195663197Y-96800076D01*
X195663197Y-96800076D02*
X195758435Y-96704838D01*
X195758435Y-96704838D02*
X195901292Y-96657219D01*
X195901292Y-96657219D02*
X195996530Y-96657219D01*
X195996530Y-96657219D02*
X196139387Y-96704838D01*
X196139387Y-96704838D02*
X196187006Y-96752457D01*
D13*
X141114427Y-63665971D02*
X141042999Y-63737400D01*
X141042999Y-63737400D02*
X140828713Y-63808828D01*
X140828713Y-63808828D02*
X140685856Y-63808828D01*
X140685856Y-63808828D02*
X140471570Y-63737400D01*
X140471570Y-63737400D02*
X140328713Y-63594542D01*
X140328713Y-63594542D02*
X140257284Y-63451685D01*
X140257284Y-63451685D02*
X140185856Y-63165971D01*
X140185856Y-63165971D02*
X140185856Y-62951685D01*
X140185856Y-62951685D02*
X140257284Y-62665971D01*
X140257284Y-62665971D02*
X140328713Y-62523114D01*
X140328713Y-62523114D02*
X140471570Y-62380257D01*
X140471570Y-62380257D02*
X140685856Y-62308828D01*
X140685856Y-62308828D02*
X140828713Y-62308828D01*
X140828713Y-62308828D02*
X141042999Y-62380257D01*
X141042999Y-62380257D02*
X141114427Y-62451685D01*
X141757284Y-62308828D02*
X141757284Y-63523114D01*
X141757284Y-63523114D02*
X141828713Y-63665971D01*
X141828713Y-63665971D02*
X141900142Y-63737400D01*
X141900142Y-63737400D02*
X142042999Y-63808828D01*
X142042999Y-63808828D02*
X142328713Y-63808828D01*
X142328713Y-63808828D02*
X142471570Y-63737400D01*
X142471570Y-63737400D02*
X142542999Y-63665971D01*
X142542999Y-63665971D02*
X142614427Y-63523114D01*
X142614427Y-63523114D02*
X142614427Y-62308828D01*
X144185856Y-63808828D02*
X143685856Y-63094542D01*
X143328713Y-63808828D02*
X143328713Y-62308828D01*
X143328713Y-62308828D02*
X143900142Y-62308828D01*
X143900142Y-62308828D02*
X144042999Y-62380257D01*
X144042999Y-62380257D02*
X144114428Y-62451685D01*
X144114428Y-62451685D02*
X144185856Y-62594542D01*
X144185856Y-62594542D02*
X144185856Y-62808828D01*
X144185856Y-62808828D02*
X144114428Y-62951685D01*
X144114428Y-62951685D02*
X144042999Y-63023114D01*
X144042999Y-63023114D02*
X143900142Y-63094542D01*
X143900142Y-63094542D02*
X143328713Y-63094542D01*
X145685856Y-63808828D02*
X145185856Y-63094542D01*
X144828713Y-63808828D02*
X144828713Y-62308828D01*
X144828713Y-62308828D02*
X145400142Y-62308828D01*
X145400142Y-62308828D02*
X145542999Y-62380257D01*
X145542999Y-62380257D02*
X145614428Y-62451685D01*
X145614428Y-62451685D02*
X145685856Y-62594542D01*
X145685856Y-62594542D02*
X145685856Y-62808828D01*
X145685856Y-62808828D02*
X145614428Y-62951685D01*
X145614428Y-62951685D02*
X145542999Y-63023114D01*
X145542999Y-63023114D02*
X145400142Y-63094542D01*
X145400142Y-63094542D02*
X144828713Y-63094542D01*
X146328713Y-63023114D02*
X146828713Y-63023114D01*
X147042999Y-63808828D02*
X146328713Y-63808828D01*
X146328713Y-63808828D02*
X146328713Y-62308828D01*
X146328713Y-62308828D02*
X147042999Y-62308828D01*
X147685856Y-63808828D02*
X147685856Y-62308828D01*
X147685856Y-62308828D02*
X148542999Y-63808828D01*
X148542999Y-63808828D02*
X148542999Y-62308828D01*
X149043000Y-62308828D02*
X149900143Y-62308828D01*
X149471571Y-63808828D02*
X149471571Y-62308828D01*
X151542999Y-63808828D02*
X151542999Y-62308828D01*
X151542999Y-62308828D02*
X152042999Y-63380257D01*
X152042999Y-63380257D02*
X152542999Y-62308828D01*
X152542999Y-62308828D02*
X152542999Y-63808828D01*
X153257285Y-63023114D02*
X153757285Y-63023114D01*
X153971571Y-63808828D02*
X153257285Y-63808828D01*
X153257285Y-63808828D02*
X153257285Y-62308828D01*
X153257285Y-62308828D02*
X153971571Y-62308828D01*
X154543000Y-63380257D02*
X155257286Y-63380257D01*
X154400143Y-63808828D02*
X154900143Y-62308828D01*
X154900143Y-62308828D02*
X155400143Y-63808828D01*
X155828714Y-63737400D02*
X156043000Y-63808828D01*
X156043000Y-63808828D02*
X156400142Y-63808828D01*
X156400142Y-63808828D02*
X156543000Y-63737400D01*
X156543000Y-63737400D02*
X156614428Y-63665971D01*
X156614428Y-63665971D02*
X156685857Y-63523114D01*
X156685857Y-63523114D02*
X156685857Y-63380257D01*
X156685857Y-63380257D02*
X156614428Y-63237400D01*
X156614428Y-63237400D02*
X156543000Y-63165971D01*
X156543000Y-63165971D02*
X156400142Y-63094542D01*
X156400142Y-63094542D02*
X156114428Y-63023114D01*
X156114428Y-63023114D02*
X155971571Y-62951685D01*
X155971571Y-62951685D02*
X155900142Y-62880257D01*
X155900142Y-62880257D02*
X155828714Y-62737400D01*
X155828714Y-62737400D02*
X155828714Y-62594542D01*
X155828714Y-62594542D02*
X155900142Y-62451685D01*
X155900142Y-62451685D02*
X155971571Y-62380257D01*
X155971571Y-62380257D02*
X156114428Y-62308828D01*
X156114428Y-62308828D02*
X156471571Y-62308828D01*
X156471571Y-62308828D02*
X156685857Y-62380257D01*
X157328713Y-62308828D02*
X157328713Y-63523114D01*
X157328713Y-63523114D02*
X157400142Y-63665971D01*
X157400142Y-63665971D02*
X157471571Y-63737400D01*
X157471571Y-63737400D02*
X157614428Y-63808828D01*
X157614428Y-63808828D02*
X157900142Y-63808828D01*
X157900142Y-63808828D02*
X158042999Y-63737400D01*
X158042999Y-63737400D02*
X158114428Y-63665971D01*
X158114428Y-63665971D02*
X158185856Y-63523114D01*
X158185856Y-63523114D02*
X158185856Y-62308828D01*
X159757285Y-63808828D02*
X159257285Y-63094542D01*
X158900142Y-63808828D02*
X158900142Y-62308828D01*
X158900142Y-62308828D02*
X159471571Y-62308828D01*
X159471571Y-62308828D02*
X159614428Y-62380257D01*
X159614428Y-62380257D02*
X159685857Y-62451685D01*
X159685857Y-62451685D02*
X159757285Y-62594542D01*
X159757285Y-62594542D02*
X159757285Y-62808828D01*
X159757285Y-62808828D02*
X159685857Y-62951685D01*
X159685857Y-62951685D02*
X159614428Y-63023114D01*
X159614428Y-63023114D02*
X159471571Y-63094542D01*
X159471571Y-63094542D02*
X158900142Y-63094542D01*
X160400142Y-63023114D02*
X160900142Y-63023114D01*
X161114428Y-63808828D02*
X160400142Y-63808828D01*
X160400142Y-63808828D02*
X160400142Y-62308828D01*
X160400142Y-62308828D02*
X161114428Y-62308828D01*
X161757285Y-63808828D02*
X161757285Y-62308828D01*
X161757285Y-62308828D02*
X162257285Y-63380257D01*
X162257285Y-63380257D02*
X162757285Y-62308828D01*
X162757285Y-62308828D02*
X162757285Y-63808828D01*
X163471571Y-63023114D02*
X163971571Y-63023114D01*
X164185857Y-63808828D02*
X163471571Y-63808828D01*
X163471571Y-63808828D02*
X163471571Y-62308828D01*
X163471571Y-62308828D02*
X164185857Y-62308828D01*
X164828714Y-63808828D02*
X164828714Y-62308828D01*
X164828714Y-62308828D02*
X165685857Y-63808828D01*
X165685857Y-63808828D02*
X165685857Y-62308828D01*
X166185858Y-62308828D02*
X167043001Y-62308828D01*
X166614429Y-63808828D02*
X166614429Y-62308828D01*
D10*
X129321160Y-101565292D02*
X129587826Y-101565292D01*
X129702112Y-101984340D02*
X129321160Y-101984340D01*
X129321160Y-101984340D02*
X129321160Y-101184340D01*
X129321160Y-101184340D02*
X129702112Y-101184340D01*
X129930684Y-101184340D02*
X130387827Y-101184340D01*
X130159255Y-101984340D02*
X130159255Y-101184340D01*
X130654494Y-101984340D02*
X130654494Y-101184340D01*
X130654494Y-101565292D02*
X131111637Y-101565292D01*
X131111637Y-101984340D02*
X131111637Y-101184340D01*
X131911636Y-101984340D02*
X131454493Y-101984340D01*
X131683065Y-101984340D02*
X131683065Y-101184340D01*
X131683065Y-101184340D02*
X131606874Y-101298625D01*
X131606874Y-101298625D02*
X131530684Y-101374816D01*
X131530684Y-101374816D02*
X131454493Y-101412911D01*
X132254494Y-101984340D02*
X132254494Y-101184340D01*
X132254494Y-101565292D02*
X132711637Y-101565292D01*
X132711637Y-101984340D02*
X132711637Y-101184340D01*
X133092589Y-101984340D02*
X133092589Y-101184340D01*
X133092589Y-101184340D02*
X133359255Y-101755768D01*
X133359255Y-101755768D02*
X133625922Y-101184340D01*
X133625922Y-101184340D02*
X133625922Y-101984340D01*
X133968779Y-101946245D02*
X134083065Y-101984340D01*
X134083065Y-101984340D02*
X134273541Y-101984340D01*
X134273541Y-101984340D02*
X134349732Y-101946245D01*
X134349732Y-101946245D02*
X134387827Y-101908149D01*
X134387827Y-101908149D02*
X134425922Y-101831959D01*
X134425922Y-101831959D02*
X134425922Y-101755768D01*
X134425922Y-101755768D02*
X134387827Y-101679578D01*
X134387827Y-101679578D02*
X134349732Y-101641483D01*
X134349732Y-101641483D02*
X134273541Y-101603387D01*
X134273541Y-101603387D02*
X134121160Y-101565292D01*
X134121160Y-101565292D02*
X134044970Y-101527197D01*
X134044970Y-101527197D02*
X134006875Y-101489102D01*
X134006875Y-101489102D02*
X133968779Y-101412911D01*
X133968779Y-101412911D02*
X133968779Y-101336721D01*
X133968779Y-101336721D02*
X134006875Y-101260530D01*
X134006875Y-101260530D02*
X134044970Y-101222435D01*
X134044970Y-101222435D02*
X134121160Y-101184340D01*
X134121160Y-101184340D02*
X134311637Y-101184340D01*
X134311637Y-101184340D02*
X134425922Y-101222435D01*
X135225923Y-101984340D02*
X134959256Y-101603387D01*
X134768780Y-101984340D02*
X134768780Y-101184340D01*
X134768780Y-101184340D02*
X135073542Y-101184340D01*
X135073542Y-101184340D02*
X135149732Y-101222435D01*
X135149732Y-101222435D02*
X135187827Y-101260530D01*
X135187827Y-101260530D02*
X135225923Y-101336721D01*
X135225923Y-101336721D02*
X135225923Y-101451006D01*
X135225923Y-101451006D02*
X135187827Y-101527197D01*
X135187827Y-101527197D02*
X135149732Y-101565292D01*
X135149732Y-101565292D02*
X135073542Y-101603387D01*
X135073542Y-101603387D02*
X134768780Y-101603387D01*
X135568780Y-101679578D02*
X136178304Y-101679578D01*
X136521160Y-101946245D02*
X136635446Y-101984340D01*
X136635446Y-101984340D02*
X136825922Y-101984340D01*
X136825922Y-101984340D02*
X136902113Y-101946245D01*
X136902113Y-101946245D02*
X136940208Y-101908149D01*
X136940208Y-101908149D02*
X136978303Y-101831959D01*
X136978303Y-101831959D02*
X136978303Y-101755768D01*
X136978303Y-101755768D02*
X136940208Y-101679578D01*
X136940208Y-101679578D02*
X136902113Y-101641483D01*
X136902113Y-101641483D02*
X136825922Y-101603387D01*
X136825922Y-101603387D02*
X136673541Y-101565292D01*
X136673541Y-101565292D02*
X136597351Y-101527197D01*
X136597351Y-101527197D02*
X136559256Y-101489102D01*
X136559256Y-101489102D02*
X136521160Y-101412911D01*
X136521160Y-101412911D02*
X136521160Y-101336721D01*
X136521160Y-101336721D02*
X136559256Y-101260530D01*
X136559256Y-101260530D02*
X136597351Y-101222435D01*
X136597351Y-101222435D02*
X136673541Y-101184340D01*
X136673541Y-101184340D02*
X136864018Y-101184340D01*
X136864018Y-101184340D02*
X136978303Y-101222435D01*
X137321161Y-101984340D02*
X137321161Y-101184340D01*
X137321161Y-101184340D02*
X137587827Y-101755768D01*
X137587827Y-101755768D02*
X137854494Y-101184340D01*
X137854494Y-101184340D02*
X137854494Y-101984340D01*
X138197351Y-101946245D02*
X138311637Y-101984340D01*
X138311637Y-101984340D02*
X138502113Y-101984340D01*
X138502113Y-101984340D02*
X138578304Y-101946245D01*
X138578304Y-101946245D02*
X138616399Y-101908149D01*
X138616399Y-101908149D02*
X138654494Y-101831959D01*
X138654494Y-101831959D02*
X138654494Y-101755768D01*
X138654494Y-101755768D02*
X138616399Y-101679578D01*
X138616399Y-101679578D02*
X138578304Y-101641483D01*
X138578304Y-101641483D02*
X138502113Y-101603387D01*
X138502113Y-101603387D02*
X138349732Y-101565292D01*
X138349732Y-101565292D02*
X138273542Y-101527197D01*
X138273542Y-101527197D02*
X138235447Y-101489102D01*
X138235447Y-101489102D02*
X138197351Y-101412911D01*
X138197351Y-101412911D02*
X138197351Y-101336721D01*
X138197351Y-101336721D02*
X138235447Y-101260530D01*
X138235447Y-101260530D02*
X138273542Y-101222435D01*
X138273542Y-101222435D02*
X138349732Y-101184340D01*
X138349732Y-101184340D02*
X138540209Y-101184340D01*
X138540209Y-101184340D02*
X138654494Y-101222435D01*
X129321160Y-103272295D02*
X129321160Y-102472295D01*
X129321160Y-102472295D02*
X129511636Y-102472295D01*
X129511636Y-102472295D02*
X129625922Y-102510390D01*
X129625922Y-102510390D02*
X129702112Y-102586580D01*
X129702112Y-102586580D02*
X129740207Y-102662771D01*
X129740207Y-102662771D02*
X129778303Y-102815152D01*
X129778303Y-102815152D02*
X129778303Y-102929438D01*
X129778303Y-102929438D02*
X129740207Y-103081819D01*
X129740207Y-103081819D02*
X129702112Y-103158009D01*
X129702112Y-103158009D02*
X129625922Y-103234200D01*
X129625922Y-103234200D02*
X129511636Y-103272295D01*
X129511636Y-103272295D02*
X129321160Y-103272295D01*
X130425922Y-103234200D02*
X130349731Y-103272295D01*
X130349731Y-103272295D02*
X130197350Y-103272295D01*
X130197350Y-103272295D02*
X130121160Y-103234200D01*
X130121160Y-103234200D02*
X130083064Y-103158009D01*
X130083064Y-103158009D02*
X130083064Y-102853247D01*
X130083064Y-102853247D02*
X130121160Y-102777057D01*
X130121160Y-102777057D02*
X130197350Y-102738961D01*
X130197350Y-102738961D02*
X130349731Y-102738961D01*
X130349731Y-102738961D02*
X130425922Y-102777057D01*
X130425922Y-102777057D02*
X130464017Y-102853247D01*
X130464017Y-102853247D02*
X130464017Y-102929438D01*
X130464017Y-102929438D02*
X130083064Y-103005628D01*
X130692588Y-102738961D02*
X130997350Y-102738961D01*
X130806874Y-103272295D02*
X130806874Y-102586580D01*
X130806874Y-102586580D02*
X130844969Y-102510390D01*
X130844969Y-102510390D02*
X130921159Y-102472295D01*
X130921159Y-102472295D02*
X130997350Y-102472295D01*
X131606874Y-103272295D02*
X131606874Y-102853247D01*
X131606874Y-102853247D02*
X131568779Y-102777057D01*
X131568779Y-102777057D02*
X131492588Y-102738961D01*
X131492588Y-102738961D02*
X131340207Y-102738961D01*
X131340207Y-102738961D02*
X131264017Y-102777057D01*
X131606874Y-103234200D02*
X131530683Y-103272295D01*
X131530683Y-103272295D02*
X131340207Y-103272295D01*
X131340207Y-103272295D02*
X131264017Y-103234200D01*
X131264017Y-103234200D02*
X131225921Y-103158009D01*
X131225921Y-103158009D02*
X131225921Y-103081819D01*
X131225921Y-103081819D02*
X131264017Y-103005628D01*
X131264017Y-103005628D02*
X131340207Y-102967533D01*
X131340207Y-102967533D02*
X131530683Y-102967533D01*
X131530683Y-102967533D02*
X131606874Y-102929438D01*
X132330684Y-102738961D02*
X132330684Y-103272295D01*
X131987827Y-102738961D02*
X131987827Y-103158009D01*
X131987827Y-103158009D02*
X132025922Y-103234200D01*
X132025922Y-103234200D02*
X132102112Y-103272295D01*
X132102112Y-103272295D02*
X132216398Y-103272295D01*
X132216398Y-103272295D02*
X132292589Y-103234200D01*
X132292589Y-103234200D02*
X132330684Y-103196104D01*
X132825922Y-103272295D02*
X132749732Y-103234200D01*
X132749732Y-103234200D02*
X132711637Y-103158009D01*
X132711637Y-103158009D02*
X132711637Y-102472295D01*
X133016399Y-102738961D02*
X133321161Y-102738961D01*
X133130685Y-102472295D02*
X133130685Y-103158009D01*
X133130685Y-103158009D02*
X133168780Y-103234200D01*
X133168780Y-103234200D02*
X133244970Y-103272295D01*
X133244970Y-103272295D02*
X133321161Y-103272295D01*
X134197352Y-103272295D02*
X134197352Y-102472295D01*
X134578304Y-103272295D02*
X134578304Y-102472295D01*
X134578304Y-102472295D02*
X134883066Y-102472295D01*
X134883066Y-102472295D02*
X134959256Y-102510390D01*
X134959256Y-102510390D02*
X134997351Y-102548485D01*
X134997351Y-102548485D02*
X135035447Y-102624676D01*
X135035447Y-102624676D02*
X135035447Y-102738961D01*
X135035447Y-102738961D02*
X134997351Y-102815152D01*
X134997351Y-102815152D02*
X134959256Y-102853247D01*
X134959256Y-102853247D02*
X134883066Y-102891342D01*
X134883066Y-102891342D02*
X134578304Y-102891342D01*
X135987828Y-103196104D02*
X136025923Y-103234200D01*
X136025923Y-103234200D02*
X135987828Y-103272295D01*
X135987828Y-103272295D02*
X135949732Y-103234200D01*
X135949732Y-103234200D02*
X135987828Y-103196104D01*
X135987828Y-103196104D02*
X135987828Y-103272295D01*
X135987828Y-102777057D02*
X136025923Y-102815152D01*
X136025923Y-102815152D02*
X135987828Y-102853247D01*
X135987828Y-102853247D02*
X135949732Y-102815152D01*
X135949732Y-102815152D02*
X135987828Y-102777057D01*
X135987828Y-102777057D02*
X135987828Y-102853247D01*
X137397351Y-103272295D02*
X136940208Y-103272295D01*
X137168780Y-103272295D02*
X137168780Y-102472295D01*
X137168780Y-102472295D02*
X137092589Y-102586580D01*
X137092589Y-102586580D02*
X137016399Y-102662771D01*
X137016399Y-102662771D02*
X136940208Y-102700866D01*
X137778304Y-103272295D02*
X137930685Y-103272295D01*
X137930685Y-103272295D02*
X138006875Y-103234200D01*
X138006875Y-103234200D02*
X138044971Y-103196104D01*
X138044971Y-103196104D02*
X138121161Y-103081819D01*
X138121161Y-103081819D02*
X138159256Y-102929438D01*
X138159256Y-102929438D02*
X138159256Y-102624676D01*
X138159256Y-102624676D02*
X138121161Y-102548485D01*
X138121161Y-102548485D02*
X138083066Y-102510390D01*
X138083066Y-102510390D02*
X138006875Y-102472295D01*
X138006875Y-102472295D02*
X137854494Y-102472295D01*
X137854494Y-102472295D02*
X137778304Y-102510390D01*
X137778304Y-102510390D02*
X137740209Y-102548485D01*
X137740209Y-102548485D02*
X137702113Y-102624676D01*
X137702113Y-102624676D02*
X137702113Y-102815152D01*
X137702113Y-102815152D02*
X137740209Y-102891342D01*
X137740209Y-102891342D02*
X137778304Y-102929438D01*
X137778304Y-102929438D02*
X137854494Y-102967533D01*
X137854494Y-102967533D02*
X138006875Y-102967533D01*
X138006875Y-102967533D02*
X138083066Y-102929438D01*
X138083066Y-102929438D02*
X138121161Y-102891342D01*
X138121161Y-102891342D02*
X138159256Y-102815152D01*
X138464018Y-102548485D02*
X138502114Y-102510390D01*
X138502114Y-102510390D02*
X138578304Y-102472295D01*
X138578304Y-102472295D02*
X138768780Y-102472295D01*
X138768780Y-102472295D02*
X138844971Y-102510390D01*
X138844971Y-102510390D02*
X138883066Y-102548485D01*
X138883066Y-102548485D02*
X138921161Y-102624676D01*
X138921161Y-102624676D02*
X138921161Y-102700866D01*
X138921161Y-102700866D02*
X138883066Y-102815152D01*
X138883066Y-102815152D02*
X138425923Y-103272295D01*
X138425923Y-103272295D02*
X138921161Y-103272295D01*
X139264019Y-103196104D02*
X139302114Y-103234200D01*
X139302114Y-103234200D02*
X139264019Y-103272295D01*
X139264019Y-103272295D02*
X139225923Y-103234200D01*
X139225923Y-103234200D02*
X139264019Y-103196104D01*
X139264019Y-103196104D02*
X139264019Y-103272295D01*
X140064018Y-103272295D02*
X139606875Y-103272295D01*
X139835447Y-103272295D02*
X139835447Y-102472295D01*
X139835447Y-102472295D02*
X139759256Y-102586580D01*
X139759256Y-102586580D02*
X139683066Y-102662771D01*
X139683066Y-102662771D02*
X139606875Y-102700866D01*
X140749733Y-102472295D02*
X140597352Y-102472295D01*
X140597352Y-102472295D02*
X140521161Y-102510390D01*
X140521161Y-102510390D02*
X140483066Y-102548485D01*
X140483066Y-102548485D02*
X140406876Y-102662771D01*
X140406876Y-102662771D02*
X140368780Y-102815152D01*
X140368780Y-102815152D02*
X140368780Y-103119914D01*
X140368780Y-103119914D02*
X140406876Y-103196104D01*
X140406876Y-103196104D02*
X140444971Y-103234200D01*
X140444971Y-103234200D02*
X140521161Y-103272295D01*
X140521161Y-103272295D02*
X140673542Y-103272295D01*
X140673542Y-103272295D02*
X140749733Y-103234200D01*
X140749733Y-103234200D02*
X140787828Y-103196104D01*
X140787828Y-103196104D02*
X140825923Y-103119914D01*
X140825923Y-103119914D02*
X140825923Y-102929438D01*
X140825923Y-102929438D02*
X140787828Y-102853247D01*
X140787828Y-102853247D02*
X140749733Y-102815152D01*
X140749733Y-102815152D02*
X140673542Y-102777057D01*
X140673542Y-102777057D02*
X140521161Y-102777057D01*
X140521161Y-102777057D02*
X140444971Y-102815152D01*
X140444971Y-102815152D02*
X140406876Y-102853247D01*
X140406876Y-102853247D02*
X140368780Y-102929438D01*
X141283066Y-102815152D02*
X141206876Y-102777057D01*
X141206876Y-102777057D02*
X141168781Y-102738961D01*
X141168781Y-102738961D02*
X141130685Y-102662771D01*
X141130685Y-102662771D02*
X141130685Y-102624676D01*
X141130685Y-102624676D02*
X141168781Y-102548485D01*
X141168781Y-102548485D02*
X141206876Y-102510390D01*
X141206876Y-102510390D02*
X141283066Y-102472295D01*
X141283066Y-102472295D02*
X141435447Y-102472295D01*
X141435447Y-102472295D02*
X141511638Y-102510390D01*
X141511638Y-102510390D02*
X141549733Y-102548485D01*
X141549733Y-102548485D02*
X141587828Y-102624676D01*
X141587828Y-102624676D02*
X141587828Y-102662771D01*
X141587828Y-102662771D02*
X141549733Y-102738961D01*
X141549733Y-102738961D02*
X141511638Y-102777057D01*
X141511638Y-102777057D02*
X141435447Y-102815152D01*
X141435447Y-102815152D02*
X141283066Y-102815152D01*
X141283066Y-102815152D02*
X141206876Y-102853247D01*
X141206876Y-102853247D02*
X141168781Y-102891342D01*
X141168781Y-102891342D02*
X141130685Y-102967533D01*
X141130685Y-102967533D02*
X141130685Y-103119914D01*
X141130685Y-103119914D02*
X141168781Y-103196104D01*
X141168781Y-103196104D02*
X141206876Y-103234200D01*
X141206876Y-103234200D02*
X141283066Y-103272295D01*
X141283066Y-103272295D02*
X141435447Y-103272295D01*
X141435447Y-103272295D02*
X141511638Y-103234200D01*
X141511638Y-103234200D02*
X141549733Y-103196104D01*
X141549733Y-103196104D02*
X141587828Y-103119914D01*
X141587828Y-103119914D02*
X141587828Y-102967533D01*
X141587828Y-102967533D02*
X141549733Y-102891342D01*
X141549733Y-102891342D02*
X141511638Y-102853247D01*
X141511638Y-102853247D02*
X141435447Y-102815152D01*
X141930686Y-103196104D02*
X141968781Y-103234200D01*
X141968781Y-103234200D02*
X141930686Y-103272295D01*
X141930686Y-103272295D02*
X141892590Y-103234200D01*
X141892590Y-103234200D02*
X141930686Y-103196104D01*
X141930686Y-103196104D02*
X141930686Y-103272295D01*
X142730685Y-103272295D02*
X142273542Y-103272295D01*
X142502114Y-103272295D02*
X142502114Y-102472295D01*
X142502114Y-102472295D02*
X142425923Y-102586580D01*
X142425923Y-102586580D02*
X142349733Y-102662771D01*
X142349733Y-102662771D02*
X142273542Y-102700866D01*
X143073543Y-103196104D02*
X143111638Y-103234200D01*
X143111638Y-103234200D02*
X143073543Y-103272295D01*
X143073543Y-103272295D02*
X143035447Y-103234200D01*
X143035447Y-103234200D02*
X143073543Y-103196104D01*
X143073543Y-103196104D02*
X143073543Y-103272295D01*
X143873542Y-103272295D02*
X143416399Y-103272295D01*
X143644971Y-103272295D02*
X143644971Y-102472295D01*
X143644971Y-102472295D02*
X143568780Y-102586580D01*
X143568780Y-102586580D02*
X143492590Y-102662771D01*
X143492590Y-102662771D02*
X143416399Y-102700866D01*
X144140209Y-102472295D02*
X144673543Y-102472295D01*
X144673543Y-102472295D02*
X144330685Y-103272295D01*
D14*
X131716331Y-91409714D02*
X131430617Y-91609714D01*
X131716331Y-91752571D02*
X131116331Y-91752571D01*
X131116331Y-91752571D02*
X131116331Y-91524000D01*
X131116331Y-91524000D02*
X131144902Y-91466857D01*
X131144902Y-91466857D02*
X131173474Y-91438286D01*
X131173474Y-91438286D02*
X131230617Y-91409714D01*
X131230617Y-91409714D02*
X131316331Y-91409714D01*
X131316331Y-91409714D02*
X131373474Y-91438286D01*
X131373474Y-91438286D02*
X131402045Y-91466857D01*
X131402045Y-91466857D02*
X131430617Y-91524000D01*
X131430617Y-91524000D02*
X131430617Y-91752571D01*
X131716331Y-91152571D02*
X131116331Y-91152571D01*
X131116331Y-91152571D02*
X131716331Y-90809714D01*
X131716331Y-90809714D02*
X131116331Y-90809714D01*
X131116331Y-90238286D02*
X131116331Y-90524000D01*
X131116331Y-90524000D02*
X131402045Y-90552572D01*
X131402045Y-90552572D02*
X131373474Y-90524000D01*
X131373474Y-90524000D02*
X131344902Y-90466858D01*
X131344902Y-90466858D02*
X131344902Y-90324000D01*
X131344902Y-90324000D02*
X131373474Y-90266858D01*
X131373474Y-90266858D02*
X131402045Y-90238286D01*
X131402045Y-90238286D02*
X131459188Y-90209715D01*
X131459188Y-90209715D02*
X131602045Y-90209715D01*
X131602045Y-90209715D02*
X131659188Y-90238286D01*
X131659188Y-90238286D02*
X131687760Y-90266858D01*
X131687760Y-90266858D02*
X131716331Y-90324000D01*
X131716331Y-90324000D02*
X131716331Y-90466858D01*
X131716331Y-90466858D02*
X131687760Y-90524000D01*
X131687760Y-90524000D02*
X131659188Y-90552572D01*
X131116331Y-89838286D02*
X131116331Y-89781143D01*
X131116331Y-89781143D02*
X131144902Y-89724000D01*
X131144902Y-89724000D02*
X131173474Y-89695429D01*
X131173474Y-89695429D02*
X131230617Y-89666857D01*
X131230617Y-89666857D02*
X131344902Y-89638286D01*
X131344902Y-89638286D02*
X131487760Y-89638286D01*
X131487760Y-89638286D02*
X131602045Y-89666857D01*
X131602045Y-89666857D02*
X131659188Y-89695429D01*
X131659188Y-89695429D02*
X131687760Y-89724000D01*
X131687760Y-89724000D02*
X131716331Y-89781143D01*
X131716331Y-89781143D02*
X131716331Y-89838286D01*
X131716331Y-89838286D02*
X131687760Y-89895429D01*
X131687760Y-89895429D02*
X131659188Y-89924000D01*
X131659188Y-89924000D02*
X131602045Y-89952571D01*
X131602045Y-89952571D02*
X131487760Y-89981143D01*
X131487760Y-89981143D02*
X131344902Y-89981143D01*
X131344902Y-89981143D02*
X131230617Y-89952571D01*
X131230617Y-89952571D02*
X131173474Y-89924000D01*
X131173474Y-89924000D02*
X131144902Y-89895429D01*
X131144902Y-89895429D02*
X131116331Y-89838286D01*
X131173474Y-89409714D02*
X131144902Y-89381142D01*
X131144902Y-89381142D02*
X131116331Y-89324000D01*
X131116331Y-89324000D02*
X131116331Y-89181142D01*
X131116331Y-89181142D02*
X131144902Y-89124000D01*
X131144902Y-89124000D02*
X131173474Y-89095428D01*
X131173474Y-89095428D02*
X131230617Y-89066857D01*
X131230617Y-89066857D02*
X131287760Y-89066857D01*
X131287760Y-89066857D02*
X131373474Y-89095428D01*
X131373474Y-89095428D02*
X131716331Y-89438285D01*
X131716331Y-89438285D02*
X131716331Y-89066857D01*
X136450331Y-80022571D02*
X136936045Y-80022571D01*
X136936045Y-80022571D02*
X136993188Y-79994000D01*
X136993188Y-79994000D02*
X137021760Y-79965429D01*
X137021760Y-79965429D02*
X137050331Y-79908286D01*
X137050331Y-79908286D02*
X137050331Y-79794000D01*
X137050331Y-79794000D02*
X137021760Y-79736857D01*
X137021760Y-79736857D02*
X136993188Y-79708286D01*
X136993188Y-79708286D02*
X136936045Y-79679714D01*
X136936045Y-79679714D02*
X136450331Y-79679714D01*
X136450331Y-79108286D02*
X136450331Y-79394000D01*
X136450331Y-79394000D02*
X136736045Y-79422572D01*
X136736045Y-79422572D02*
X136707474Y-79394000D01*
X136707474Y-79394000D02*
X136678902Y-79336858D01*
X136678902Y-79336858D02*
X136678902Y-79194000D01*
X136678902Y-79194000D02*
X136707474Y-79136858D01*
X136707474Y-79136858D02*
X136736045Y-79108286D01*
X136736045Y-79108286D02*
X136793188Y-79079715D01*
X136793188Y-79079715D02*
X136936045Y-79079715D01*
X136936045Y-79079715D02*
X136993188Y-79108286D01*
X136993188Y-79108286D02*
X137021760Y-79136858D01*
X137021760Y-79136858D02*
X137050331Y-79194000D01*
X137050331Y-79194000D02*
X137050331Y-79336858D01*
X137050331Y-79336858D02*
X137021760Y-79394000D01*
X137021760Y-79394000D02*
X136993188Y-79422572D01*
X136450331Y-78708286D02*
X136450331Y-78651143D01*
X136450331Y-78651143D02*
X136478902Y-78594000D01*
X136478902Y-78594000D02*
X136507474Y-78565429D01*
X136507474Y-78565429D02*
X136564617Y-78536857D01*
X136564617Y-78536857D02*
X136678902Y-78508286D01*
X136678902Y-78508286D02*
X136821760Y-78508286D01*
X136821760Y-78508286D02*
X136936045Y-78536857D01*
X136936045Y-78536857D02*
X136993188Y-78565429D01*
X136993188Y-78565429D02*
X137021760Y-78594000D01*
X137021760Y-78594000D02*
X137050331Y-78651143D01*
X137050331Y-78651143D02*
X137050331Y-78708286D01*
X137050331Y-78708286D02*
X137021760Y-78765429D01*
X137021760Y-78765429D02*
X136993188Y-78794000D01*
X136993188Y-78794000D02*
X136936045Y-78822571D01*
X136936045Y-78822571D02*
X136821760Y-78851143D01*
X136821760Y-78851143D02*
X136678902Y-78851143D01*
X136678902Y-78851143D02*
X136564617Y-78822571D01*
X136564617Y-78822571D02*
X136507474Y-78794000D01*
X136507474Y-78794000D02*
X136478902Y-78765429D01*
X136478902Y-78765429D02*
X136450331Y-78708286D01*
X136450331Y-78308285D02*
X136450331Y-77936857D01*
X136450331Y-77936857D02*
X136678902Y-78136857D01*
X136678902Y-78136857D02*
X136678902Y-78051142D01*
X136678902Y-78051142D02*
X136707474Y-77994000D01*
X136707474Y-77994000D02*
X136736045Y-77965428D01*
X136736045Y-77965428D02*
X136793188Y-77936857D01*
X136793188Y-77936857D02*
X136936045Y-77936857D01*
X136936045Y-77936857D02*
X136993188Y-77965428D01*
X136993188Y-77965428D02*
X137021760Y-77994000D01*
X137021760Y-77994000D02*
X137050331Y-78051142D01*
X137050331Y-78051142D02*
X137050331Y-78222571D01*
X137050331Y-78222571D02*
X137021760Y-78279714D01*
X137021760Y-78279714D02*
X136993188Y-78308285D01*
X188393331Y-91195429D02*
X188821902Y-91195429D01*
X188821902Y-91195429D02*
X188907617Y-91224000D01*
X188907617Y-91224000D02*
X188964760Y-91281143D01*
X188964760Y-91281143D02*
X188993331Y-91366857D01*
X188993331Y-91366857D02*
X188993331Y-91424000D01*
X188450474Y-90938286D02*
X188421902Y-90909714D01*
X188421902Y-90909714D02*
X188393331Y-90852572D01*
X188393331Y-90852572D02*
X188393331Y-90709714D01*
X188393331Y-90709714D02*
X188421902Y-90652572D01*
X188421902Y-90652572D02*
X188450474Y-90624000D01*
X188450474Y-90624000D02*
X188507617Y-90595429D01*
X188507617Y-90595429D02*
X188564760Y-90595429D01*
X188564760Y-90595429D02*
X188650474Y-90624000D01*
X188650474Y-90624000D02*
X188993331Y-90966857D01*
X188993331Y-90966857D02*
X188993331Y-90595429D01*
X188393331Y-90224000D02*
X188393331Y-90166857D01*
X188393331Y-90166857D02*
X188421902Y-90109714D01*
X188421902Y-90109714D02*
X188450474Y-90081143D01*
X188450474Y-90081143D02*
X188507617Y-90052571D01*
X188507617Y-90052571D02*
X188621902Y-90024000D01*
X188621902Y-90024000D02*
X188764760Y-90024000D01*
X188764760Y-90024000D02*
X188879045Y-90052571D01*
X188879045Y-90052571D02*
X188936188Y-90081143D01*
X188936188Y-90081143D02*
X188964760Y-90109714D01*
X188964760Y-90109714D02*
X188993331Y-90166857D01*
X188993331Y-90166857D02*
X188993331Y-90224000D01*
X188993331Y-90224000D02*
X188964760Y-90281143D01*
X188964760Y-90281143D02*
X188936188Y-90309714D01*
X188936188Y-90309714D02*
X188879045Y-90338285D01*
X188879045Y-90338285D02*
X188764760Y-90366857D01*
X188764760Y-90366857D02*
X188621902Y-90366857D01*
X188621902Y-90366857D02*
X188507617Y-90338285D01*
X188507617Y-90338285D02*
X188450474Y-90309714D01*
X188450474Y-90309714D02*
X188421902Y-90281143D01*
X188421902Y-90281143D02*
X188393331Y-90224000D01*
X188993331Y-89452571D02*
X188993331Y-89795428D01*
X188993331Y-89623999D02*
X188393331Y-89623999D01*
X188393331Y-89623999D02*
X188479045Y-89681142D01*
X188479045Y-89681142D02*
X188536188Y-89738285D01*
X188536188Y-89738285D02*
X188564760Y-89795428D01*
X138771188Y-69632428D02*
X138799760Y-69661000D01*
X138799760Y-69661000D02*
X138828331Y-69746714D01*
X138828331Y-69746714D02*
X138828331Y-69803857D01*
X138828331Y-69803857D02*
X138799760Y-69889571D01*
X138799760Y-69889571D02*
X138742617Y-69946714D01*
X138742617Y-69946714D02*
X138685474Y-69975285D01*
X138685474Y-69975285D02*
X138571188Y-70003857D01*
X138571188Y-70003857D02*
X138485474Y-70003857D01*
X138485474Y-70003857D02*
X138371188Y-69975285D01*
X138371188Y-69975285D02*
X138314045Y-69946714D01*
X138314045Y-69946714D02*
X138256902Y-69889571D01*
X138256902Y-69889571D02*
X138228331Y-69803857D01*
X138228331Y-69803857D02*
X138228331Y-69746714D01*
X138228331Y-69746714D02*
X138256902Y-69661000D01*
X138256902Y-69661000D02*
X138285474Y-69632428D01*
X138228331Y-69089571D02*
X138228331Y-69375285D01*
X138228331Y-69375285D02*
X138514045Y-69403857D01*
X138514045Y-69403857D02*
X138485474Y-69375285D01*
X138485474Y-69375285D02*
X138456902Y-69318143D01*
X138456902Y-69318143D02*
X138456902Y-69175285D01*
X138456902Y-69175285D02*
X138485474Y-69118143D01*
X138485474Y-69118143D02*
X138514045Y-69089571D01*
X138514045Y-69089571D02*
X138571188Y-69061000D01*
X138571188Y-69061000D02*
X138714045Y-69061000D01*
X138714045Y-69061000D02*
X138771188Y-69089571D01*
X138771188Y-69089571D02*
X138799760Y-69118143D01*
X138799760Y-69118143D02*
X138828331Y-69175285D01*
X138828331Y-69175285D02*
X138828331Y-69318143D01*
X138828331Y-69318143D02*
X138799760Y-69375285D01*
X138799760Y-69375285D02*
X138771188Y-69403857D01*
X138828331Y-68489571D02*
X138828331Y-68832428D01*
X138828331Y-68660999D02*
X138228331Y-68660999D01*
X138228331Y-68660999D02*
X138314045Y-68718142D01*
X138314045Y-68718142D02*
X138371188Y-68775285D01*
X138371188Y-68775285D02*
X138399760Y-68832428D01*
X138285474Y-68260999D02*
X138256902Y-68232427D01*
X138256902Y-68232427D02*
X138228331Y-68175285D01*
X138228331Y-68175285D02*
X138228331Y-68032427D01*
X138228331Y-68032427D02*
X138256902Y-67975285D01*
X138256902Y-67975285D02*
X138285474Y-67946713D01*
X138285474Y-67946713D02*
X138342617Y-67918142D01*
X138342617Y-67918142D02*
X138399760Y-67918142D01*
X138399760Y-67918142D02*
X138485474Y-67946713D01*
X138485474Y-67946713D02*
X138828331Y-68289570D01*
X138828331Y-68289570D02*
X138828331Y-67918142D01*
X171915045Y-84256428D02*
X171915045Y-84456428D01*
X172229331Y-84456428D02*
X171629331Y-84456428D01*
X171629331Y-84456428D02*
X171629331Y-84170714D01*
X171915045Y-83742142D02*
X171943617Y-83656428D01*
X171943617Y-83656428D02*
X171972188Y-83627857D01*
X171972188Y-83627857D02*
X172029331Y-83599285D01*
X172029331Y-83599285D02*
X172115045Y-83599285D01*
X172115045Y-83599285D02*
X172172188Y-83627857D01*
X172172188Y-83627857D02*
X172200760Y-83656428D01*
X172200760Y-83656428D02*
X172229331Y-83713571D01*
X172229331Y-83713571D02*
X172229331Y-83942142D01*
X172229331Y-83942142D02*
X171629331Y-83942142D01*
X171629331Y-83942142D02*
X171629331Y-83742142D01*
X171629331Y-83742142D02*
X171657902Y-83685000D01*
X171657902Y-83685000D02*
X171686474Y-83656428D01*
X171686474Y-83656428D02*
X171743617Y-83627857D01*
X171743617Y-83627857D02*
X171800760Y-83627857D01*
X171800760Y-83627857D02*
X171857902Y-83656428D01*
X171857902Y-83656428D02*
X171886474Y-83685000D01*
X171886474Y-83685000D02*
X171915045Y-83742142D01*
X171915045Y-83742142D02*
X171915045Y-83942142D01*
X171629331Y-83399285D02*
X171629331Y-83027857D01*
X171629331Y-83027857D02*
X171857902Y-83227857D01*
X171857902Y-83227857D02*
X171857902Y-83142142D01*
X171857902Y-83142142D02*
X171886474Y-83085000D01*
X171886474Y-83085000D02*
X171915045Y-83056428D01*
X171915045Y-83056428D02*
X171972188Y-83027857D01*
X171972188Y-83027857D02*
X172115045Y-83027857D01*
X172115045Y-83027857D02*
X172172188Y-83056428D01*
X172172188Y-83056428D02*
X172200760Y-83085000D01*
X172200760Y-83085000D02*
X172229331Y-83142142D01*
X172229331Y-83142142D02*
X172229331Y-83313571D01*
X172229331Y-83313571D02*
X172200760Y-83370714D01*
X172200760Y-83370714D02*
X172172188Y-83399285D01*
X171629331Y-82656428D02*
X171629331Y-82599285D01*
X171629331Y-82599285D02*
X171657902Y-82542142D01*
X171657902Y-82542142D02*
X171686474Y-82513571D01*
X171686474Y-82513571D02*
X171743617Y-82484999D01*
X171743617Y-82484999D02*
X171857902Y-82456428D01*
X171857902Y-82456428D02*
X172000760Y-82456428D01*
X172000760Y-82456428D02*
X172115045Y-82484999D01*
X172115045Y-82484999D02*
X172172188Y-82513571D01*
X172172188Y-82513571D02*
X172200760Y-82542142D01*
X172200760Y-82542142D02*
X172229331Y-82599285D01*
X172229331Y-82599285D02*
X172229331Y-82656428D01*
X172229331Y-82656428D02*
X172200760Y-82713571D01*
X172200760Y-82713571D02*
X172172188Y-82742142D01*
X172172188Y-82742142D02*
X172115045Y-82770713D01*
X172115045Y-82770713D02*
X172000760Y-82799285D01*
X172000760Y-82799285D02*
X171857902Y-82799285D01*
X171857902Y-82799285D02*
X171743617Y-82770713D01*
X171743617Y-82770713D02*
X171686474Y-82742142D01*
X171686474Y-82742142D02*
X171657902Y-82713571D01*
X171657902Y-82713571D02*
X171629331Y-82656428D01*
X172229331Y-81884999D02*
X172229331Y-82227856D01*
X172229331Y-82056427D02*
X171629331Y-82056427D01*
X171629331Y-82056427D02*
X171715045Y-82113570D01*
X171715045Y-82113570D02*
X171772188Y-82170713D01*
X171772188Y-82170713D02*
X171800760Y-82227856D01*
X140860331Y-97407285D02*
X140260331Y-97407285D01*
X140260331Y-97407285D02*
X140260331Y-97264428D01*
X140260331Y-97264428D02*
X140288902Y-97178714D01*
X140288902Y-97178714D02*
X140346045Y-97121571D01*
X140346045Y-97121571D02*
X140403188Y-97093000D01*
X140403188Y-97093000D02*
X140517474Y-97064428D01*
X140517474Y-97064428D02*
X140603188Y-97064428D01*
X140603188Y-97064428D02*
X140717474Y-97093000D01*
X140717474Y-97093000D02*
X140774617Y-97121571D01*
X140774617Y-97121571D02*
X140831760Y-97178714D01*
X140831760Y-97178714D02*
X140860331Y-97264428D01*
X140860331Y-97264428D02*
X140860331Y-97407285D01*
X140460331Y-96550143D02*
X140860331Y-96550143D01*
X140231760Y-96693000D02*
X140660331Y-96835857D01*
X140660331Y-96835857D02*
X140660331Y-96464428D01*
X140260331Y-96121571D02*
X140260331Y-96064428D01*
X140260331Y-96064428D02*
X140288902Y-96007285D01*
X140288902Y-96007285D02*
X140317474Y-95978714D01*
X140317474Y-95978714D02*
X140374617Y-95950142D01*
X140374617Y-95950142D02*
X140488902Y-95921571D01*
X140488902Y-95921571D02*
X140631760Y-95921571D01*
X140631760Y-95921571D02*
X140746045Y-95950142D01*
X140746045Y-95950142D02*
X140803188Y-95978714D01*
X140803188Y-95978714D02*
X140831760Y-96007285D01*
X140831760Y-96007285D02*
X140860331Y-96064428D01*
X140860331Y-96064428D02*
X140860331Y-96121571D01*
X140860331Y-96121571D02*
X140831760Y-96178714D01*
X140831760Y-96178714D02*
X140803188Y-96207285D01*
X140803188Y-96207285D02*
X140746045Y-96235856D01*
X140746045Y-96235856D02*
X140631760Y-96264428D01*
X140631760Y-96264428D02*
X140488902Y-96264428D01*
X140488902Y-96264428D02*
X140374617Y-96235856D01*
X140374617Y-96235856D02*
X140317474Y-96207285D01*
X140317474Y-96207285D02*
X140288902Y-96178714D01*
X140288902Y-96178714D02*
X140260331Y-96121571D01*
X140860331Y-95350142D02*
X140860331Y-95692999D01*
X140860331Y-95521570D02*
X140260331Y-95521570D01*
X140260331Y-95521570D02*
X140346045Y-95578713D01*
X140346045Y-95578713D02*
X140403188Y-95635856D01*
X140403188Y-95635856D02*
X140431760Y-95692999D01*
X146829331Y-94076714D02*
X146543617Y-94276714D01*
X146829331Y-94419571D02*
X146229331Y-94419571D01*
X146229331Y-94419571D02*
X146229331Y-94191000D01*
X146229331Y-94191000D02*
X146257902Y-94133857D01*
X146257902Y-94133857D02*
X146286474Y-94105286D01*
X146286474Y-94105286D02*
X146343617Y-94076714D01*
X146343617Y-94076714D02*
X146429331Y-94076714D01*
X146429331Y-94076714D02*
X146486474Y-94105286D01*
X146486474Y-94105286D02*
X146515045Y-94133857D01*
X146515045Y-94133857D02*
X146543617Y-94191000D01*
X146543617Y-94191000D02*
X146543617Y-94419571D01*
X146829331Y-93819571D02*
X146229331Y-93819571D01*
X146229331Y-93819571D02*
X146829331Y-93476714D01*
X146829331Y-93476714D02*
X146229331Y-93476714D01*
X146429331Y-92933858D02*
X146829331Y-92933858D01*
X146200760Y-93076715D02*
X146629331Y-93219572D01*
X146629331Y-93219572D02*
X146629331Y-92848143D01*
X146229331Y-92505286D02*
X146229331Y-92448143D01*
X146229331Y-92448143D02*
X146257902Y-92391000D01*
X146257902Y-92391000D02*
X146286474Y-92362429D01*
X146286474Y-92362429D02*
X146343617Y-92333857D01*
X146343617Y-92333857D02*
X146457902Y-92305286D01*
X146457902Y-92305286D02*
X146600760Y-92305286D01*
X146600760Y-92305286D02*
X146715045Y-92333857D01*
X146715045Y-92333857D02*
X146772188Y-92362429D01*
X146772188Y-92362429D02*
X146800760Y-92391000D01*
X146800760Y-92391000D02*
X146829331Y-92448143D01*
X146829331Y-92448143D02*
X146829331Y-92505286D01*
X146829331Y-92505286D02*
X146800760Y-92562429D01*
X146800760Y-92562429D02*
X146772188Y-92591000D01*
X146772188Y-92591000D02*
X146715045Y-92619571D01*
X146715045Y-92619571D02*
X146600760Y-92648143D01*
X146600760Y-92648143D02*
X146457902Y-92648143D01*
X146457902Y-92648143D02*
X146343617Y-92619571D01*
X146343617Y-92619571D02*
X146286474Y-92591000D01*
X146286474Y-92591000D02*
X146257902Y-92562429D01*
X146257902Y-92562429D02*
X146229331Y-92505286D01*
X146829331Y-91733857D02*
X146829331Y-92076714D01*
X146829331Y-91905285D02*
X146229331Y-91905285D01*
X146229331Y-91905285D02*
X146315045Y-91962428D01*
X146315045Y-91962428D02*
X146372188Y-92019571D01*
X146372188Y-92019571D02*
X146400760Y-92076714D01*
X165949188Y-95286428D02*
X165977760Y-95315000D01*
X165977760Y-95315000D02*
X166006331Y-95400714D01*
X166006331Y-95400714D02*
X166006331Y-95457857D01*
X166006331Y-95457857D02*
X165977760Y-95543571D01*
X165977760Y-95543571D02*
X165920617Y-95600714D01*
X165920617Y-95600714D02*
X165863474Y-95629285D01*
X165863474Y-95629285D02*
X165749188Y-95657857D01*
X165749188Y-95657857D02*
X165663474Y-95657857D01*
X165663474Y-95657857D02*
X165549188Y-95629285D01*
X165549188Y-95629285D02*
X165492045Y-95600714D01*
X165492045Y-95600714D02*
X165434902Y-95543571D01*
X165434902Y-95543571D02*
X165406331Y-95457857D01*
X165406331Y-95457857D02*
X165406331Y-95400714D01*
X165406331Y-95400714D02*
X165434902Y-95315000D01*
X165434902Y-95315000D02*
X165463474Y-95286428D01*
X165463474Y-95057857D02*
X165434902Y-95029285D01*
X165434902Y-95029285D02*
X165406331Y-94972143D01*
X165406331Y-94972143D02*
X165406331Y-94829285D01*
X165406331Y-94829285D02*
X165434902Y-94772143D01*
X165434902Y-94772143D02*
X165463474Y-94743571D01*
X165463474Y-94743571D02*
X165520617Y-94715000D01*
X165520617Y-94715000D02*
X165577760Y-94715000D01*
X165577760Y-94715000D02*
X165663474Y-94743571D01*
X165663474Y-94743571D02*
X166006331Y-95086428D01*
X166006331Y-95086428D02*
X166006331Y-94715000D01*
X165406331Y-94343571D02*
X165406331Y-94286428D01*
X165406331Y-94286428D02*
X165434902Y-94229285D01*
X165434902Y-94229285D02*
X165463474Y-94200714D01*
X165463474Y-94200714D02*
X165520617Y-94172142D01*
X165520617Y-94172142D02*
X165634902Y-94143571D01*
X165634902Y-94143571D02*
X165777760Y-94143571D01*
X165777760Y-94143571D02*
X165892045Y-94172142D01*
X165892045Y-94172142D02*
X165949188Y-94200714D01*
X165949188Y-94200714D02*
X165977760Y-94229285D01*
X165977760Y-94229285D02*
X166006331Y-94286428D01*
X166006331Y-94286428D02*
X166006331Y-94343571D01*
X166006331Y-94343571D02*
X165977760Y-94400714D01*
X165977760Y-94400714D02*
X165949188Y-94429285D01*
X165949188Y-94429285D02*
X165892045Y-94457856D01*
X165892045Y-94457856D02*
X165777760Y-94486428D01*
X165777760Y-94486428D02*
X165634902Y-94486428D01*
X165634902Y-94486428D02*
X165520617Y-94457856D01*
X165520617Y-94457856D02*
X165463474Y-94429285D01*
X165463474Y-94429285D02*
X165434902Y-94400714D01*
X165434902Y-94400714D02*
X165406331Y-94343571D01*
X165606331Y-93629285D02*
X166006331Y-93629285D01*
X165377760Y-93772142D02*
X165806331Y-93914999D01*
X165806331Y-93914999D02*
X165806331Y-93543570D01*
X175933570Y-66727331D02*
X175933570Y-67155902D01*
X175933570Y-67155902D02*
X175904999Y-67241617D01*
X175904999Y-67241617D02*
X175847856Y-67298760D01*
X175847856Y-67298760D02*
X175762142Y-67327331D01*
X175762142Y-67327331D02*
X175704999Y-67327331D01*
X176162142Y-66727331D02*
X176533570Y-66727331D01*
X176533570Y-66727331D02*
X176333570Y-66955902D01*
X176333570Y-66955902D02*
X176419285Y-66955902D01*
X176419285Y-66955902D02*
X176476428Y-66984474D01*
X176476428Y-66984474D02*
X176504999Y-67013045D01*
X176504999Y-67013045D02*
X176533570Y-67070188D01*
X176533570Y-67070188D02*
X176533570Y-67213045D01*
X176533570Y-67213045D02*
X176504999Y-67270188D01*
X176504999Y-67270188D02*
X176476428Y-67298760D01*
X176476428Y-67298760D02*
X176419285Y-67327331D01*
X176419285Y-67327331D02*
X176247856Y-67327331D01*
X176247856Y-67327331D02*
X176190713Y-67298760D01*
X176190713Y-67298760D02*
X176162142Y-67270188D01*
X176904999Y-66727331D02*
X176962142Y-66727331D01*
X176962142Y-66727331D02*
X177019285Y-66755902D01*
X177019285Y-66755902D02*
X177047857Y-66784474D01*
X177047857Y-66784474D02*
X177076428Y-66841617D01*
X177076428Y-66841617D02*
X177104999Y-66955902D01*
X177104999Y-66955902D02*
X177104999Y-67098760D01*
X177104999Y-67098760D02*
X177076428Y-67213045D01*
X177076428Y-67213045D02*
X177047857Y-67270188D01*
X177047857Y-67270188D02*
X177019285Y-67298760D01*
X177019285Y-67298760D02*
X176962142Y-67327331D01*
X176962142Y-67327331D02*
X176904999Y-67327331D01*
X176904999Y-67327331D02*
X176847857Y-67298760D01*
X176847857Y-67298760D02*
X176819285Y-67270188D01*
X176819285Y-67270188D02*
X176790714Y-67213045D01*
X176790714Y-67213045D02*
X176762142Y-67098760D01*
X176762142Y-67098760D02*
X176762142Y-66955902D01*
X176762142Y-66955902D02*
X176790714Y-66841617D01*
X176790714Y-66841617D02*
X176819285Y-66784474D01*
X176819285Y-66784474D02*
X176847857Y-66755902D01*
X176847857Y-66755902D02*
X176904999Y-66727331D01*
X177676428Y-67327331D02*
X177333571Y-67327331D01*
X177505000Y-67327331D02*
X177505000Y-66727331D01*
X177505000Y-66727331D02*
X177447857Y-66813045D01*
X177447857Y-66813045D02*
X177390714Y-66870188D01*
X177390714Y-66870188D02*
X177333571Y-66898760D01*
X185680428Y-99007474D02*
X185623285Y-98978902D01*
X185623285Y-98978902D02*
X185566142Y-98921760D01*
X185566142Y-98921760D02*
X185480428Y-98836045D01*
X185480428Y-98836045D02*
X185423285Y-98807474D01*
X185423285Y-98807474D02*
X185366142Y-98807474D01*
X185394713Y-98950331D02*
X185337571Y-98921760D01*
X185337571Y-98921760D02*
X185280428Y-98864617D01*
X185280428Y-98864617D02*
X185251856Y-98750331D01*
X185251856Y-98750331D02*
X185251856Y-98550331D01*
X185251856Y-98550331D02*
X185280428Y-98436045D01*
X185280428Y-98436045D02*
X185337571Y-98378902D01*
X185337571Y-98378902D02*
X185394713Y-98350331D01*
X185394713Y-98350331D02*
X185508999Y-98350331D01*
X185508999Y-98350331D02*
X185566142Y-98378902D01*
X185566142Y-98378902D02*
X185623285Y-98436045D01*
X185623285Y-98436045D02*
X185651856Y-98550331D01*
X185651856Y-98550331D02*
X185651856Y-98750331D01*
X185651856Y-98750331D02*
X185623285Y-98864617D01*
X185623285Y-98864617D02*
X185566142Y-98921760D01*
X185566142Y-98921760D02*
X185508999Y-98950331D01*
X185508999Y-98950331D02*
X185394713Y-98950331D01*
X185880427Y-98407474D02*
X185908999Y-98378902D01*
X185908999Y-98378902D02*
X185966142Y-98350331D01*
X185966142Y-98350331D02*
X186108999Y-98350331D01*
X186108999Y-98350331D02*
X186166142Y-98378902D01*
X186166142Y-98378902D02*
X186194713Y-98407474D01*
X186194713Y-98407474D02*
X186223284Y-98464617D01*
X186223284Y-98464617D02*
X186223284Y-98521760D01*
X186223284Y-98521760D02*
X186194713Y-98607474D01*
X186194713Y-98607474D02*
X185851856Y-98950331D01*
X185851856Y-98950331D02*
X186223284Y-98950331D01*
X186594713Y-98350331D02*
X186651856Y-98350331D01*
X186651856Y-98350331D02*
X186708999Y-98378902D01*
X186708999Y-98378902D02*
X186737571Y-98407474D01*
X186737571Y-98407474D02*
X186766142Y-98464617D01*
X186766142Y-98464617D02*
X186794713Y-98578902D01*
X186794713Y-98578902D02*
X186794713Y-98721760D01*
X186794713Y-98721760D02*
X186766142Y-98836045D01*
X186766142Y-98836045D02*
X186737571Y-98893188D01*
X186737571Y-98893188D02*
X186708999Y-98921760D01*
X186708999Y-98921760D02*
X186651856Y-98950331D01*
X186651856Y-98950331D02*
X186594713Y-98950331D01*
X186594713Y-98950331D02*
X186537571Y-98921760D01*
X186537571Y-98921760D02*
X186508999Y-98893188D01*
X186508999Y-98893188D02*
X186480428Y-98836045D01*
X186480428Y-98836045D02*
X186451856Y-98721760D01*
X186451856Y-98721760D02*
X186451856Y-98578902D01*
X186451856Y-98578902D02*
X186480428Y-98464617D01*
X186480428Y-98464617D02*
X186508999Y-98407474D01*
X186508999Y-98407474D02*
X186537571Y-98378902D01*
X186537571Y-98378902D02*
X186594713Y-98350331D01*
X187366142Y-98950331D02*
X187023285Y-98950331D01*
X187194714Y-98950331D02*
X187194714Y-98350331D01*
X187194714Y-98350331D02*
X187137571Y-98436045D01*
X187137571Y-98436045D02*
X187080428Y-98493188D01*
X187080428Y-98493188D02*
X187023285Y-98521760D01*
X130516188Y-87285428D02*
X130544760Y-87314000D01*
X130544760Y-87314000D02*
X130573331Y-87399714D01*
X130573331Y-87399714D02*
X130573331Y-87456857D01*
X130573331Y-87456857D02*
X130544760Y-87542571D01*
X130544760Y-87542571D02*
X130487617Y-87599714D01*
X130487617Y-87599714D02*
X130430474Y-87628285D01*
X130430474Y-87628285D02*
X130316188Y-87656857D01*
X130316188Y-87656857D02*
X130230474Y-87656857D01*
X130230474Y-87656857D02*
X130116188Y-87628285D01*
X130116188Y-87628285D02*
X130059045Y-87599714D01*
X130059045Y-87599714D02*
X130001902Y-87542571D01*
X130001902Y-87542571D02*
X129973331Y-87456857D01*
X129973331Y-87456857D02*
X129973331Y-87399714D01*
X129973331Y-87399714D02*
X130001902Y-87314000D01*
X130001902Y-87314000D02*
X130030474Y-87285428D01*
X129973331Y-86742571D02*
X129973331Y-87028285D01*
X129973331Y-87028285D02*
X130259045Y-87056857D01*
X130259045Y-87056857D02*
X130230474Y-87028285D01*
X130230474Y-87028285D02*
X130201902Y-86971143D01*
X130201902Y-86971143D02*
X130201902Y-86828285D01*
X130201902Y-86828285D02*
X130230474Y-86771143D01*
X130230474Y-86771143D02*
X130259045Y-86742571D01*
X130259045Y-86742571D02*
X130316188Y-86714000D01*
X130316188Y-86714000D02*
X130459045Y-86714000D01*
X130459045Y-86714000D02*
X130516188Y-86742571D01*
X130516188Y-86742571D02*
X130544760Y-86771143D01*
X130544760Y-86771143D02*
X130573331Y-86828285D01*
X130573331Y-86828285D02*
X130573331Y-86971143D01*
X130573331Y-86971143D02*
X130544760Y-87028285D01*
X130544760Y-87028285D02*
X130516188Y-87056857D01*
X129973331Y-86342571D02*
X129973331Y-86285428D01*
X129973331Y-86285428D02*
X130001902Y-86228285D01*
X130001902Y-86228285D02*
X130030474Y-86199714D01*
X130030474Y-86199714D02*
X130087617Y-86171142D01*
X130087617Y-86171142D02*
X130201902Y-86142571D01*
X130201902Y-86142571D02*
X130344760Y-86142571D01*
X130344760Y-86142571D02*
X130459045Y-86171142D01*
X130459045Y-86171142D02*
X130516188Y-86199714D01*
X130516188Y-86199714D02*
X130544760Y-86228285D01*
X130544760Y-86228285D02*
X130573331Y-86285428D01*
X130573331Y-86285428D02*
X130573331Y-86342571D01*
X130573331Y-86342571D02*
X130544760Y-86399714D01*
X130544760Y-86399714D02*
X130516188Y-86428285D01*
X130516188Y-86428285D02*
X130459045Y-86456856D01*
X130459045Y-86456856D02*
X130344760Y-86485428D01*
X130344760Y-86485428D02*
X130201902Y-86485428D01*
X130201902Y-86485428D02*
X130087617Y-86456856D01*
X130087617Y-86456856D02*
X130030474Y-86428285D01*
X130030474Y-86428285D02*
X130001902Y-86399714D01*
X130001902Y-86399714D02*
X129973331Y-86342571D01*
X130173331Y-85628285D02*
X130573331Y-85628285D01*
X129944760Y-85771142D02*
X130373331Y-85913999D01*
X130373331Y-85913999D02*
X130373331Y-85542570D01*
X128995571Y-94448188D02*
X128966999Y-94476760D01*
X128966999Y-94476760D02*
X128881285Y-94505331D01*
X128881285Y-94505331D02*
X128824142Y-94505331D01*
X128824142Y-94505331D02*
X128738428Y-94476760D01*
X128738428Y-94476760D02*
X128681285Y-94419617D01*
X128681285Y-94419617D02*
X128652714Y-94362474D01*
X128652714Y-94362474D02*
X128624142Y-94248188D01*
X128624142Y-94248188D02*
X128624142Y-94162474D01*
X128624142Y-94162474D02*
X128652714Y-94048188D01*
X128652714Y-94048188D02*
X128681285Y-93991045D01*
X128681285Y-93991045D02*
X128738428Y-93933902D01*
X128738428Y-93933902D02*
X128824142Y-93905331D01*
X128824142Y-93905331D02*
X128881285Y-93905331D01*
X128881285Y-93905331D02*
X128966999Y-93933902D01*
X128966999Y-93933902D02*
X128995571Y-93962474D01*
X129538428Y-93905331D02*
X129252714Y-93905331D01*
X129252714Y-93905331D02*
X129224142Y-94191045D01*
X129224142Y-94191045D02*
X129252714Y-94162474D01*
X129252714Y-94162474D02*
X129309857Y-94133902D01*
X129309857Y-94133902D02*
X129452714Y-94133902D01*
X129452714Y-94133902D02*
X129509857Y-94162474D01*
X129509857Y-94162474D02*
X129538428Y-94191045D01*
X129538428Y-94191045D02*
X129566999Y-94248188D01*
X129566999Y-94248188D02*
X129566999Y-94391045D01*
X129566999Y-94391045D02*
X129538428Y-94448188D01*
X129538428Y-94448188D02*
X129509857Y-94476760D01*
X129509857Y-94476760D02*
X129452714Y-94505331D01*
X129452714Y-94505331D02*
X129309857Y-94505331D01*
X129309857Y-94505331D02*
X129252714Y-94476760D01*
X129252714Y-94476760D02*
X129224142Y-94448188D01*
X129938428Y-93905331D02*
X129995571Y-93905331D01*
X129995571Y-93905331D02*
X130052714Y-93933902D01*
X130052714Y-93933902D02*
X130081286Y-93962474D01*
X130081286Y-93962474D02*
X130109857Y-94019617D01*
X130109857Y-94019617D02*
X130138428Y-94133902D01*
X130138428Y-94133902D02*
X130138428Y-94276760D01*
X130138428Y-94276760D02*
X130109857Y-94391045D01*
X130109857Y-94391045D02*
X130081286Y-94448188D01*
X130081286Y-94448188D02*
X130052714Y-94476760D01*
X130052714Y-94476760D02*
X129995571Y-94505331D01*
X129995571Y-94505331D02*
X129938428Y-94505331D01*
X129938428Y-94505331D02*
X129881286Y-94476760D01*
X129881286Y-94476760D02*
X129852714Y-94448188D01*
X129852714Y-94448188D02*
X129824143Y-94391045D01*
X129824143Y-94391045D02*
X129795571Y-94276760D01*
X129795571Y-94276760D02*
X129795571Y-94133902D01*
X129795571Y-94133902D02*
X129824143Y-94019617D01*
X129824143Y-94019617D02*
X129852714Y-93962474D01*
X129852714Y-93962474D02*
X129881286Y-93933902D01*
X129881286Y-93933902D02*
X129938428Y-93905331D01*
X130652715Y-93905331D02*
X130538429Y-93905331D01*
X130538429Y-93905331D02*
X130481286Y-93933902D01*
X130481286Y-93933902D02*
X130452715Y-93962474D01*
X130452715Y-93962474D02*
X130395572Y-94048188D01*
X130395572Y-94048188D02*
X130367000Y-94162474D01*
X130367000Y-94162474D02*
X130367000Y-94391045D01*
X130367000Y-94391045D02*
X130395572Y-94448188D01*
X130395572Y-94448188D02*
X130424143Y-94476760D01*
X130424143Y-94476760D02*
X130481286Y-94505331D01*
X130481286Y-94505331D02*
X130595572Y-94505331D01*
X130595572Y-94505331D02*
X130652715Y-94476760D01*
X130652715Y-94476760D02*
X130681286Y-94448188D01*
X130681286Y-94448188D02*
X130709857Y-94391045D01*
X130709857Y-94391045D02*
X130709857Y-94248188D01*
X130709857Y-94248188D02*
X130681286Y-94191045D01*
X130681286Y-94191045D02*
X130652715Y-94162474D01*
X130652715Y-94162474D02*
X130595572Y-94133902D01*
X130595572Y-94133902D02*
X130481286Y-94133902D01*
X130481286Y-94133902D02*
X130424143Y-94162474D01*
X130424143Y-94162474D02*
X130395572Y-94191045D01*
X130395572Y-94191045D02*
X130367000Y-94248188D01*
X164174571Y-80408331D02*
X163974571Y-80122617D01*
X163831714Y-80408331D02*
X163831714Y-79808331D01*
X163831714Y-79808331D02*
X164060285Y-79808331D01*
X164060285Y-79808331D02*
X164117428Y-79836902D01*
X164117428Y-79836902D02*
X164145999Y-79865474D01*
X164145999Y-79865474D02*
X164174571Y-79922617D01*
X164174571Y-79922617D02*
X164174571Y-80008331D01*
X164174571Y-80008331D02*
X164145999Y-80065474D01*
X164145999Y-80065474D02*
X164117428Y-80094045D01*
X164117428Y-80094045D02*
X164060285Y-80122617D01*
X164060285Y-80122617D02*
X163831714Y-80122617D01*
X164374571Y-79808331D02*
X164745999Y-79808331D01*
X164745999Y-79808331D02*
X164545999Y-80036902D01*
X164545999Y-80036902D02*
X164631714Y-80036902D01*
X164631714Y-80036902D02*
X164688857Y-80065474D01*
X164688857Y-80065474D02*
X164717428Y-80094045D01*
X164717428Y-80094045D02*
X164745999Y-80151188D01*
X164745999Y-80151188D02*
X164745999Y-80294045D01*
X164745999Y-80294045D02*
X164717428Y-80351188D01*
X164717428Y-80351188D02*
X164688857Y-80379760D01*
X164688857Y-80379760D02*
X164631714Y-80408331D01*
X164631714Y-80408331D02*
X164460285Y-80408331D01*
X164460285Y-80408331D02*
X164403142Y-80379760D01*
X164403142Y-80379760D02*
X164374571Y-80351188D01*
X165317428Y-80408331D02*
X164974571Y-80408331D01*
X165146000Y-80408331D02*
X165146000Y-79808331D01*
X165146000Y-79808331D02*
X165088857Y-79894045D01*
X165088857Y-79894045D02*
X165031714Y-79951188D01*
X165031714Y-79951188D02*
X164974571Y-79979760D01*
X165688857Y-79808331D02*
X165746000Y-79808331D01*
X165746000Y-79808331D02*
X165803143Y-79836902D01*
X165803143Y-79836902D02*
X165831715Y-79865474D01*
X165831715Y-79865474D02*
X165860286Y-79922617D01*
X165860286Y-79922617D02*
X165888857Y-80036902D01*
X165888857Y-80036902D02*
X165888857Y-80179760D01*
X165888857Y-80179760D02*
X165860286Y-80294045D01*
X165860286Y-80294045D02*
X165831715Y-80351188D01*
X165831715Y-80351188D02*
X165803143Y-80379760D01*
X165803143Y-80379760D02*
X165746000Y-80408331D01*
X165746000Y-80408331D02*
X165688857Y-80408331D01*
X165688857Y-80408331D02*
X165631715Y-80379760D01*
X165631715Y-80379760D02*
X165603143Y-80351188D01*
X165603143Y-80351188D02*
X165574572Y-80294045D01*
X165574572Y-80294045D02*
X165546000Y-80179760D01*
X165546000Y-80179760D02*
X165546000Y-80036902D01*
X165546000Y-80036902D02*
X165574572Y-79922617D01*
X165574572Y-79922617D02*
X165603143Y-79865474D01*
X165603143Y-79865474D02*
X165631715Y-79836902D01*
X165631715Y-79836902D02*
X165688857Y-79808331D01*
X129465331Y-80657571D02*
X129951045Y-80657571D01*
X129951045Y-80657571D02*
X130008188Y-80629000D01*
X130008188Y-80629000D02*
X130036760Y-80600429D01*
X130036760Y-80600429D02*
X130065331Y-80543286D01*
X130065331Y-80543286D02*
X130065331Y-80429000D01*
X130065331Y-80429000D02*
X130036760Y-80371857D01*
X130036760Y-80371857D02*
X130008188Y-80343286D01*
X130008188Y-80343286D02*
X129951045Y-80314714D01*
X129951045Y-80314714D02*
X129465331Y-80314714D01*
X129465331Y-79743286D02*
X129465331Y-80029000D01*
X129465331Y-80029000D02*
X129751045Y-80057572D01*
X129751045Y-80057572D02*
X129722474Y-80029000D01*
X129722474Y-80029000D02*
X129693902Y-79971858D01*
X129693902Y-79971858D02*
X129693902Y-79829000D01*
X129693902Y-79829000D02*
X129722474Y-79771858D01*
X129722474Y-79771858D02*
X129751045Y-79743286D01*
X129751045Y-79743286D02*
X129808188Y-79714715D01*
X129808188Y-79714715D02*
X129951045Y-79714715D01*
X129951045Y-79714715D02*
X130008188Y-79743286D01*
X130008188Y-79743286D02*
X130036760Y-79771858D01*
X130036760Y-79771858D02*
X130065331Y-79829000D01*
X130065331Y-79829000D02*
X130065331Y-79971858D01*
X130065331Y-79971858D02*
X130036760Y-80029000D01*
X130036760Y-80029000D02*
X130008188Y-80057572D01*
X129465331Y-79343286D02*
X129465331Y-79286143D01*
X129465331Y-79286143D02*
X129493902Y-79229000D01*
X129493902Y-79229000D02*
X129522474Y-79200429D01*
X129522474Y-79200429D02*
X129579617Y-79171857D01*
X129579617Y-79171857D02*
X129693902Y-79143286D01*
X129693902Y-79143286D02*
X129836760Y-79143286D01*
X129836760Y-79143286D02*
X129951045Y-79171857D01*
X129951045Y-79171857D02*
X130008188Y-79200429D01*
X130008188Y-79200429D02*
X130036760Y-79229000D01*
X130036760Y-79229000D02*
X130065331Y-79286143D01*
X130065331Y-79286143D02*
X130065331Y-79343286D01*
X130065331Y-79343286D02*
X130036760Y-79400429D01*
X130036760Y-79400429D02*
X130008188Y-79429000D01*
X130008188Y-79429000D02*
X129951045Y-79457571D01*
X129951045Y-79457571D02*
X129836760Y-79486143D01*
X129836760Y-79486143D02*
X129693902Y-79486143D01*
X129693902Y-79486143D02*
X129579617Y-79457571D01*
X129579617Y-79457571D02*
X129522474Y-79429000D01*
X129522474Y-79429000D02*
X129493902Y-79400429D01*
X129493902Y-79400429D02*
X129465331Y-79343286D01*
X129665331Y-78629000D02*
X130065331Y-78629000D01*
X129436760Y-78771857D02*
X129865331Y-78914714D01*
X129865331Y-78914714D02*
X129865331Y-78543285D01*
X165190571Y-71715188D02*
X165161999Y-71743760D01*
X165161999Y-71743760D02*
X165076285Y-71772331D01*
X165076285Y-71772331D02*
X165019142Y-71772331D01*
X165019142Y-71772331D02*
X164933428Y-71743760D01*
X164933428Y-71743760D02*
X164876285Y-71686617D01*
X164876285Y-71686617D02*
X164847714Y-71629474D01*
X164847714Y-71629474D02*
X164819142Y-71515188D01*
X164819142Y-71515188D02*
X164819142Y-71429474D01*
X164819142Y-71429474D02*
X164847714Y-71315188D01*
X164847714Y-71315188D02*
X164876285Y-71258045D01*
X164876285Y-71258045D02*
X164933428Y-71200902D01*
X164933428Y-71200902D02*
X165019142Y-71172331D01*
X165019142Y-71172331D02*
X165076285Y-71172331D01*
X165076285Y-71172331D02*
X165161999Y-71200902D01*
X165161999Y-71200902D02*
X165190571Y-71229474D01*
X165390571Y-71172331D02*
X165761999Y-71172331D01*
X165761999Y-71172331D02*
X165561999Y-71400902D01*
X165561999Y-71400902D02*
X165647714Y-71400902D01*
X165647714Y-71400902D02*
X165704857Y-71429474D01*
X165704857Y-71429474D02*
X165733428Y-71458045D01*
X165733428Y-71458045D02*
X165761999Y-71515188D01*
X165761999Y-71515188D02*
X165761999Y-71658045D01*
X165761999Y-71658045D02*
X165733428Y-71715188D01*
X165733428Y-71715188D02*
X165704857Y-71743760D01*
X165704857Y-71743760D02*
X165647714Y-71772331D01*
X165647714Y-71772331D02*
X165476285Y-71772331D01*
X165476285Y-71772331D02*
X165419142Y-71743760D01*
X165419142Y-71743760D02*
X165390571Y-71715188D01*
X166133428Y-71172331D02*
X166190571Y-71172331D01*
X166190571Y-71172331D02*
X166247714Y-71200902D01*
X166247714Y-71200902D02*
X166276286Y-71229474D01*
X166276286Y-71229474D02*
X166304857Y-71286617D01*
X166304857Y-71286617D02*
X166333428Y-71400902D01*
X166333428Y-71400902D02*
X166333428Y-71543760D01*
X166333428Y-71543760D02*
X166304857Y-71658045D01*
X166304857Y-71658045D02*
X166276286Y-71715188D01*
X166276286Y-71715188D02*
X166247714Y-71743760D01*
X166247714Y-71743760D02*
X166190571Y-71772331D01*
X166190571Y-71772331D02*
X166133428Y-71772331D01*
X166133428Y-71772331D02*
X166076286Y-71743760D01*
X166076286Y-71743760D02*
X166047714Y-71715188D01*
X166047714Y-71715188D02*
X166019143Y-71658045D01*
X166019143Y-71658045D02*
X165990571Y-71543760D01*
X165990571Y-71543760D02*
X165990571Y-71400902D01*
X165990571Y-71400902D02*
X166019143Y-71286617D01*
X166019143Y-71286617D02*
X166047714Y-71229474D01*
X166047714Y-71229474D02*
X166076286Y-71200902D01*
X166076286Y-71200902D02*
X166133428Y-71172331D01*
X166533429Y-71172331D02*
X166904857Y-71172331D01*
X166904857Y-71172331D02*
X166704857Y-71400902D01*
X166704857Y-71400902D02*
X166790572Y-71400902D01*
X166790572Y-71400902D02*
X166847715Y-71429474D01*
X166847715Y-71429474D02*
X166876286Y-71458045D01*
X166876286Y-71458045D02*
X166904857Y-71515188D01*
X166904857Y-71515188D02*
X166904857Y-71658045D01*
X166904857Y-71658045D02*
X166876286Y-71715188D01*
X166876286Y-71715188D02*
X166847715Y-71743760D01*
X166847715Y-71743760D02*
X166790572Y-71772331D01*
X166790572Y-71772331D02*
X166619143Y-71772331D01*
X166619143Y-71772331D02*
X166562000Y-71743760D01*
X166562000Y-71743760D02*
X166533429Y-71715188D01*
X168687856Y-71613617D02*
X168687856Y-71899331D01*
X168487856Y-71299331D02*
X168687856Y-71613617D01*
X168687856Y-71613617D02*
X168887856Y-71299331D01*
X169030714Y-71299331D02*
X169402142Y-71299331D01*
X169402142Y-71299331D02*
X169202142Y-71527902D01*
X169202142Y-71527902D02*
X169287857Y-71527902D01*
X169287857Y-71527902D02*
X169345000Y-71556474D01*
X169345000Y-71556474D02*
X169373571Y-71585045D01*
X169373571Y-71585045D02*
X169402142Y-71642188D01*
X169402142Y-71642188D02*
X169402142Y-71785045D01*
X169402142Y-71785045D02*
X169373571Y-71842188D01*
X169373571Y-71842188D02*
X169345000Y-71870760D01*
X169345000Y-71870760D02*
X169287857Y-71899331D01*
X169287857Y-71899331D02*
X169116428Y-71899331D01*
X169116428Y-71899331D02*
X169059285Y-71870760D01*
X169059285Y-71870760D02*
X169030714Y-71842188D01*
X169773571Y-71299331D02*
X169830714Y-71299331D01*
X169830714Y-71299331D02*
X169887857Y-71327902D01*
X169887857Y-71327902D02*
X169916429Y-71356474D01*
X169916429Y-71356474D02*
X169945000Y-71413617D01*
X169945000Y-71413617D02*
X169973571Y-71527902D01*
X169973571Y-71527902D02*
X169973571Y-71670760D01*
X169973571Y-71670760D02*
X169945000Y-71785045D01*
X169945000Y-71785045D02*
X169916429Y-71842188D01*
X169916429Y-71842188D02*
X169887857Y-71870760D01*
X169887857Y-71870760D02*
X169830714Y-71899331D01*
X169830714Y-71899331D02*
X169773571Y-71899331D01*
X169773571Y-71899331D02*
X169716429Y-71870760D01*
X169716429Y-71870760D02*
X169687857Y-71842188D01*
X169687857Y-71842188D02*
X169659286Y-71785045D01*
X169659286Y-71785045D02*
X169630714Y-71670760D01*
X169630714Y-71670760D02*
X169630714Y-71527902D01*
X169630714Y-71527902D02*
X169659286Y-71413617D01*
X169659286Y-71413617D02*
X169687857Y-71356474D01*
X169687857Y-71356474D02*
X169716429Y-71327902D01*
X169716429Y-71327902D02*
X169773571Y-71299331D01*
X170545000Y-71899331D02*
X170202143Y-71899331D01*
X170373572Y-71899331D02*
X170373572Y-71299331D01*
X170373572Y-71299331D02*
X170316429Y-71385045D01*
X170316429Y-71385045D02*
X170259286Y-71442188D01*
X170259286Y-71442188D02*
X170202143Y-71470760D01*
X106543570Y-71426331D02*
X106543570Y-71854902D01*
X106543570Y-71854902D02*
X106514999Y-71940617D01*
X106514999Y-71940617D02*
X106457856Y-71997760D01*
X106457856Y-71997760D02*
X106372142Y-72026331D01*
X106372142Y-72026331D02*
X106314999Y-72026331D01*
X107114999Y-71426331D02*
X106829285Y-71426331D01*
X106829285Y-71426331D02*
X106800713Y-71712045D01*
X106800713Y-71712045D02*
X106829285Y-71683474D01*
X106829285Y-71683474D02*
X106886428Y-71654902D01*
X106886428Y-71654902D02*
X107029285Y-71654902D01*
X107029285Y-71654902D02*
X107086428Y-71683474D01*
X107086428Y-71683474D02*
X107114999Y-71712045D01*
X107114999Y-71712045D02*
X107143570Y-71769188D01*
X107143570Y-71769188D02*
X107143570Y-71912045D01*
X107143570Y-71912045D02*
X107114999Y-71969188D01*
X107114999Y-71969188D02*
X107086428Y-71997760D01*
X107086428Y-71997760D02*
X107029285Y-72026331D01*
X107029285Y-72026331D02*
X106886428Y-72026331D01*
X106886428Y-72026331D02*
X106829285Y-71997760D01*
X106829285Y-71997760D02*
X106800713Y-71969188D01*
X107514999Y-71426331D02*
X107572142Y-71426331D01*
X107572142Y-71426331D02*
X107629285Y-71454902D01*
X107629285Y-71454902D02*
X107657857Y-71483474D01*
X107657857Y-71483474D02*
X107686428Y-71540617D01*
X107686428Y-71540617D02*
X107714999Y-71654902D01*
X107714999Y-71654902D02*
X107714999Y-71797760D01*
X107714999Y-71797760D02*
X107686428Y-71912045D01*
X107686428Y-71912045D02*
X107657857Y-71969188D01*
X107657857Y-71969188D02*
X107629285Y-71997760D01*
X107629285Y-71997760D02*
X107572142Y-72026331D01*
X107572142Y-72026331D02*
X107514999Y-72026331D01*
X107514999Y-72026331D02*
X107457857Y-71997760D01*
X107457857Y-71997760D02*
X107429285Y-71969188D01*
X107429285Y-71969188D02*
X107400714Y-71912045D01*
X107400714Y-71912045D02*
X107372142Y-71797760D01*
X107372142Y-71797760D02*
X107372142Y-71654902D01*
X107372142Y-71654902D02*
X107400714Y-71540617D01*
X107400714Y-71540617D02*
X107429285Y-71483474D01*
X107429285Y-71483474D02*
X107457857Y-71454902D01*
X107457857Y-71454902D02*
X107514999Y-71426331D01*
X108286428Y-72026331D02*
X107943571Y-72026331D01*
X108115000Y-72026331D02*
X108115000Y-71426331D01*
X108115000Y-71426331D02*
X108057857Y-71512045D01*
X108057857Y-71512045D02*
X108000714Y-71569188D01*
X108000714Y-71569188D02*
X107943571Y-71597760D01*
X135974045Y-97464428D02*
X135974045Y-97664428D01*
X136288331Y-97664428D02*
X135688331Y-97664428D01*
X135688331Y-97664428D02*
X135688331Y-97378714D01*
X135974045Y-96950142D02*
X136002617Y-96864428D01*
X136002617Y-96864428D02*
X136031188Y-96835857D01*
X136031188Y-96835857D02*
X136088331Y-96807285D01*
X136088331Y-96807285D02*
X136174045Y-96807285D01*
X136174045Y-96807285D02*
X136231188Y-96835857D01*
X136231188Y-96835857D02*
X136259760Y-96864428D01*
X136259760Y-96864428D02*
X136288331Y-96921571D01*
X136288331Y-96921571D02*
X136288331Y-97150142D01*
X136288331Y-97150142D02*
X135688331Y-97150142D01*
X135688331Y-97150142D02*
X135688331Y-96950142D01*
X135688331Y-96950142D02*
X135716902Y-96893000D01*
X135716902Y-96893000D02*
X135745474Y-96864428D01*
X135745474Y-96864428D02*
X135802617Y-96835857D01*
X135802617Y-96835857D02*
X135859760Y-96835857D01*
X135859760Y-96835857D02*
X135916902Y-96864428D01*
X135916902Y-96864428D02*
X135945474Y-96893000D01*
X135945474Y-96893000D02*
X135974045Y-96950142D01*
X135974045Y-96950142D02*
X135974045Y-97150142D01*
X135688331Y-96264428D02*
X135688331Y-96550142D01*
X135688331Y-96550142D02*
X135974045Y-96578714D01*
X135974045Y-96578714D02*
X135945474Y-96550142D01*
X135945474Y-96550142D02*
X135916902Y-96493000D01*
X135916902Y-96493000D02*
X135916902Y-96350142D01*
X135916902Y-96350142D02*
X135945474Y-96293000D01*
X135945474Y-96293000D02*
X135974045Y-96264428D01*
X135974045Y-96264428D02*
X136031188Y-96235857D01*
X136031188Y-96235857D02*
X136174045Y-96235857D01*
X136174045Y-96235857D02*
X136231188Y-96264428D01*
X136231188Y-96264428D02*
X136259760Y-96293000D01*
X136259760Y-96293000D02*
X136288331Y-96350142D01*
X136288331Y-96350142D02*
X136288331Y-96493000D01*
X136288331Y-96493000D02*
X136259760Y-96550142D01*
X136259760Y-96550142D02*
X136231188Y-96578714D01*
X135688331Y-95864428D02*
X135688331Y-95807285D01*
X135688331Y-95807285D02*
X135716902Y-95750142D01*
X135716902Y-95750142D02*
X135745474Y-95721571D01*
X135745474Y-95721571D02*
X135802617Y-95692999D01*
X135802617Y-95692999D02*
X135916902Y-95664428D01*
X135916902Y-95664428D02*
X136059760Y-95664428D01*
X136059760Y-95664428D02*
X136174045Y-95692999D01*
X136174045Y-95692999D02*
X136231188Y-95721571D01*
X136231188Y-95721571D02*
X136259760Y-95750142D01*
X136259760Y-95750142D02*
X136288331Y-95807285D01*
X136288331Y-95807285D02*
X136288331Y-95864428D01*
X136288331Y-95864428D02*
X136259760Y-95921571D01*
X136259760Y-95921571D02*
X136231188Y-95950142D01*
X136231188Y-95950142D02*
X136174045Y-95978713D01*
X136174045Y-95978713D02*
X136059760Y-96007285D01*
X136059760Y-96007285D02*
X135916902Y-96007285D01*
X135916902Y-96007285D02*
X135802617Y-95978713D01*
X135802617Y-95978713D02*
X135745474Y-95950142D01*
X135745474Y-95950142D02*
X135716902Y-95921571D01*
X135716902Y-95921571D02*
X135688331Y-95864428D01*
X136288331Y-95092999D02*
X136288331Y-95435856D01*
X136288331Y-95264427D02*
X135688331Y-95264427D01*
X135688331Y-95264427D02*
X135774045Y-95321570D01*
X135774045Y-95321570D02*
X135831188Y-95378713D01*
X135831188Y-95378713D02*
X135859760Y-95435856D01*
X143381331Y-97916429D02*
X143809902Y-97916429D01*
X143809902Y-97916429D02*
X143895617Y-97945000D01*
X143895617Y-97945000D02*
X143952760Y-98002143D01*
X143952760Y-98002143D02*
X143981331Y-98087857D01*
X143981331Y-98087857D02*
X143981331Y-98145000D01*
X143581331Y-97373572D02*
X143981331Y-97373572D01*
X143352760Y-97516429D02*
X143781331Y-97659286D01*
X143781331Y-97659286D02*
X143781331Y-97287857D01*
X143381331Y-96945000D02*
X143381331Y-96887857D01*
X143381331Y-96887857D02*
X143409902Y-96830714D01*
X143409902Y-96830714D02*
X143438474Y-96802143D01*
X143438474Y-96802143D02*
X143495617Y-96773571D01*
X143495617Y-96773571D02*
X143609902Y-96745000D01*
X143609902Y-96745000D02*
X143752760Y-96745000D01*
X143752760Y-96745000D02*
X143867045Y-96773571D01*
X143867045Y-96773571D02*
X143924188Y-96802143D01*
X143924188Y-96802143D02*
X143952760Y-96830714D01*
X143952760Y-96830714D02*
X143981331Y-96887857D01*
X143981331Y-96887857D02*
X143981331Y-96945000D01*
X143981331Y-96945000D02*
X143952760Y-97002143D01*
X143952760Y-97002143D02*
X143924188Y-97030714D01*
X143924188Y-97030714D02*
X143867045Y-97059285D01*
X143867045Y-97059285D02*
X143752760Y-97087857D01*
X143752760Y-97087857D02*
X143609902Y-97087857D01*
X143609902Y-97087857D02*
X143495617Y-97059285D01*
X143495617Y-97059285D02*
X143438474Y-97030714D01*
X143438474Y-97030714D02*
X143409902Y-97002143D01*
X143409902Y-97002143D02*
X143381331Y-96945000D01*
X143981331Y-96173571D02*
X143981331Y-96516428D01*
X143981331Y-96344999D02*
X143381331Y-96344999D01*
X143381331Y-96344999D02*
X143467045Y-96402142D01*
X143467045Y-96402142D02*
X143524188Y-96459285D01*
X143524188Y-96459285D02*
X143552760Y-96516428D01*
X171032571Y-99872331D02*
X170832571Y-99586617D01*
X170689714Y-99872331D02*
X170689714Y-99272331D01*
X170689714Y-99272331D02*
X170918285Y-99272331D01*
X170918285Y-99272331D02*
X170975428Y-99300902D01*
X170975428Y-99300902D02*
X171003999Y-99329474D01*
X171003999Y-99329474D02*
X171032571Y-99386617D01*
X171032571Y-99386617D02*
X171032571Y-99472331D01*
X171032571Y-99472331D02*
X171003999Y-99529474D01*
X171003999Y-99529474D02*
X170975428Y-99558045D01*
X170975428Y-99558045D02*
X170918285Y-99586617D01*
X170918285Y-99586617D02*
X170689714Y-99586617D01*
X171261142Y-99329474D02*
X171289714Y-99300902D01*
X171289714Y-99300902D02*
X171346857Y-99272331D01*
X171346857Y-99272331D02*
X171489714Y-99272331D01*
X171489714Y-99272331D02*
X171546857Y-99300902D01*
X171546857Y-99300902D02*
X171575428Y-99329474D01*
X171575428Y-99329474D02*
X171603999Y-99386617D01*
X171603999Y-99386617D02*
X171603999Y-99443760D01*
X171603999Y-99443760D02*
X171575428Y-99529474D01*
X171575428Y-99529474D02*
X171232571Y-99872331D01*
X171232571Y-99872331D02*
X171603999Y-99872331D01*
X171975428Y-99272331D02*
X172032571Y-99272331D01*
X172032571Y-99272331D02*
X172089714Y-99300902D01*
X172089714Y-99300902D02*
X172118286Y-99329474D01*
X172118286Y-99329474D02*
X172146857Y-99386617D01*
X172146857Y-99386617D02*
X172175428Y-99500902D01*
X172175428Y-99500902D02*
X172175428Y-99643760D01*
X172175428Y-99643760D02*
X172146857Y-99758045D01*
X172146857Y-99758045D02*
X172118286Y-99815188D01*
X172118286Y-99815188D02*
X172089714Y-99843760D01*
X172089714Y-99843760D02*
X172032571Y-99872331D01*
X172032571Y-99872331D02*
X171975428Y-99872331D01*
X171975428Y-99872331D02*
X171918286Y-99843760D01*
X171918286Y-99843760D02*
X171889714Y-99815188D01*
X171889714Y-99815188D02*
X171861143Y-99758045D01*
X171861143Y-99758045D02*
X171832571Y-99643760D01*
X171832571Y-99643760D02*
X171832571Y-99500902D01*
X171832571Y-99500902D02*
X171861143Y-99386617D01*
X171861143Y-99386617D02*
X171889714Y-99329474D01*
X171889714Y-99329474D02*
X171918286Y-99300902D01*
X171918286Y-99300902D02*
X171975428Y-99272331D01*
X172375429Y-99272331D02*
X172746857Y-99272331D01*
X172746857Y-99272331D02*
X172546857Y-99500902D01*
X172546857Y-99500902D02*
X172632572Y-99500902D01*
X172632572Y-99500902D02*
X172689715Y-99529474D01*
X172689715Y-99529474D02*
X172718286Y-99558045D01*
X172718286Y-99558045D02*
X172746857Y-99615188D01*
X172746857Y-99615188D02*
X172746857Y-99758045D01*
X172746857Y-99758045D02*
X172718286Y-99815188D01*
X172718286Y-99815188D02*
X172689715Y-99843760D01*
X172689715Y-99843760D02*
X172632572Y-99872331D01*
X172632572Y-99872331D02*
X172461143Y-99872331D01*
X172461143Y-99872331D02*
X172404000Y-99843760D01*
X172404000Y-99843760D02*
X172375429Y-99815188D01*
X151752428Y-91619331D02*
X151752428Y-92105045D01*
X151752428Y-92105045D02*
X151780999Y-92162188D01*
X151780999Y-92162188D02*
X151809571Y-92190760D01*
X151809571Y-92190760D02*
X151866713Y-92219331D01*
X151866713Y-92219331D02*
X151980999Y-92219331D01*
X151980999Y-92219331D02*
X152038142Y-92190760D01*
X152038142Y-92190760D02*
X152066713Y-92162188D01*
X152066713Y-92162188D02*
X152095285Y-92105045D01*
X152095285Y-92105045D02*
X152095285Y-91619331D01*
X152638142Y-91819331D02*
X152638142Y-92219331D01*
X152495284Y-91590760D02*
X152352427Y-92019331D01*
X152352427Y-92019331D02*
X152723856Y-92019331D01*
X153066713Y-91619331D02*
X153123856Y-91619331D01*
X153123856Y-91619331D02*
X153180999Y-91647902D01*
X153180999Y-91647902D02*
X153209571Y-91676474D01*
X153209571Y-91676474D02*
X153238142Y-91733617D01*
X153238142Y-91733617D02*
X153266713Y-91847902D01*
X153266713Y-91847902D02*
X153266713Y-91990760D01*
X153266713Y-91990760D02*
X153238142Y-92105045D01*
X153238142Y-92105045D02*
X153209571Y-92162188D01*
X153209571Y-92162188D02*
X153180999Y-92190760D01*
X153180999Y-92190760D02*
X153123856Y-92219331D01*
X153123856Y-92219331D02*
X153066713Y-92219331D01*
X153066713Y-92219331D02*
X153009571Y-92190760D01*
X153009571Y-92190760D02*
X152980999Y-92162188D01*
X152980999Y-92162188D02*
X152952428Y-92105045D01*
X152952428Y-92105045D02*
X152923856Y-91990760D01*
X152923856Y-91990760D02*
X152923856Y-91847902D01*
X152923856Y-91847902D02*
X152952428Y-91733617D01*
X152952428Y-91733617D02*
X152980999Y-91676474D01*
X152980999Y-91676474D02*
X153009571Y-91647902D01*
X153009571Y-91647902D02*
X153066713Y-91619331D01*
X153466714Y-91619331D02*
X153838142Y-91619331D01*
X153838142Y-91619331D02*
X153638142Y-91847902D01*
X153638142Y-91847902D02*
X153723857Y-91847902D01*
X153723857Y-91847902D02*
X153781000Y-91876474D01*
X153781000Y-91876474D02*
X153809571Y-91905045D01*
X153809571Y-91905045D02*
X153838142Y-91962188D01*
X153838142Y-91962188D02*
X153838142Y-92105045D01*
X153838142Y-92105045D02*
X153809571Y-92162188D01*
X153809571Y-92162188D02*
X153781000Y-92190760D01*
X153781000Y-92190760D02*
X153723857Y-92219331D01*
X153723857Y-92219331D02*
X153552428Y-92219331D01*
X153552428Y-92219331D02*
X153495285Y-92190760D01*
X153495285Y-92190760D02*
X153466714Y-92162188D01*
X136450331Y-89547571D02*
X136936045Y-89547571D01*
X136936045Y-89547571D02*
X136993188Y-89519000D01*
X136993188Y-89519000D02*
X137021760Y-89490429D01*
X137021760Y-89490429D02*
X137050331Y-89433286D01*
X137050331Y-89433286D02*
X137050331Y-89319000D01*
X137050331Y-89319000D02*
X137021760Y-89261857D01*
X137021760Y-89261857D02*
X136993188Y-89233286D01*
X136993188Y-89233286D02*
X136936045Y-89204714D01*
X136936045Y-89204714D02*
X136450331Y-89204714D01*
X136450331Y-88633286D02*
X136450331Y-88919000D01*
X136450331Y-88919000D02*
X136736045Y-88947572D01*
X136736045Y-88947572D02*
X136707474Y-88919000D01*
X136707474Y-88919000D02*
X136678902Y-88861858D01*
X136678902Y-88861858D02*
X136678902Y-88719000D01*
X136678902Y-88719000D02*
X136707474Y-88661858D01*
X136707474Y-88661858D02*
X136736045Y-88633286D01*
X136736045Y-88633286D02*
X136793188Y-88604715D01*
X136793188Y-88604715D02*
X136936045Y-88604715D01*
X136936045Y-88604715D02*
X136993188Y-88633286D01*
X136993188Y-88633286D02*
X137021760Y-88661858D01*
X137021760Y-88661858D02*
X137050331Y-88719000D01*
X137050331Y-88719000D02*
X137050331Y-88861858D01*
X137050331Y-88861858D02*
X137021760Y-88919000D01*
X137021760Y-88919000D02*
X136993188Y-88947572D01*
X136450331Y-88233286D02*
X136450331Y-88176143D01*
X136450331Y-88176143D02*
X136478902Y-88119000D01*
X136478902Y-88119000D02*
X136507474Y-88090429D01*
X136507474Y-88090429D02*
X136564617Y-88061857D01*
X136564617Y-88061857D02*
X136678902Y-88033286D01*
X136678902Y-88033286D02*
X136821760Y-88033286D01*
X136821760Y-88033286D02*
X136936045Y-88061857D01*
X136936045Y-88061857D02*
X136993188Y-88090429D01*
X136993188Y-88090429D02*
X137021760Y-88119000D01*
X137021760Y-88119000D02*
X137050331Y-88176143D01*
X137050331Y-88176143D02*
X137050331Y-88233286D01*
X137050331Y-88233286D02*
X137021760Y-88290429D01*
X137021760Y-88290429D02*
X136993188Y-88319000D01*
X136993188Y-88319000D02*
X136936045Y-88347571D01*
X136936045Y-88347571D02*
X136821760Y-88376143D01*
X136821760Y-88376143D02*
X136678902Y-88376143D01*
X136678902Y-88376143D02*
X136564617Y-88347571D01*
X136564617Y-88347571D02*
X136507474Y-88319000D01*
X136507474Y-88319000D02*
X136478902Y-88290429D01*
X136478902Y-88290429D02*
X136450331Y-88233286D01*
X136507474Y-87804714D02*
X136478902Y-87776142D01*
X136478902Y-87776142D02*
X136450331Y-87719000D01*
X136450331Y-87719000D02*
X136450331Y-87576142D01*
X136450331Y-87576142D02*
X136478902Y-87519000D01*
X136478902Y-87519000D02*
X136507474Y-87490428D01*
X136507474Y-87490428D02*
X136564617Y-87461857D01*
X136564617Y-87461857D02*
X136621760Y-87461857D01*
X136621760Y-87461857D02*
X136707474Y-87490428D01*
X136707474Y-87490428D02*
X137050331Y-87833285D01*
X137050331Y-87833285D02*
X137050331Y-87461857D01*
X155084331Y-72426428D02*
X154798617Y-72626428D01*
X155084331Y-72769285D02*
X154484331Y-72769285D01*
X154484331Y-72769285D02*
X154484331Y-72540714D01*
X154484331Y-72540714D02*
X154512902Y-72483571D01*
X154512902Y-72483571D02*
X154541474Y-72455000D01*
X154541474Y-72455000D02*
X154598617Y-72426428D01*
X154598617Y-72426428D02*
X154684331Y-72426428D01*
X154684331Y-72426428D02*
X154741474Y-72455000D01*
X154741474Y-72455000D02*
X154770045Y-72483571D01*
X154770045Y-72483571D02*
X154798617Y-72540714D01*
X154798617Y-72540714D02*
X154798617Y-72769285D01*
X154684331Y-71912143D02*
X155084331Y-71912143D01*
X154455760Y-72055000D02*
X154884331Y-72197857D01*
X154884331Y-72197857D02*
X154884331Y-71826428D01*
X154484331Y-71483571D02*
X154484331Y-71426428D01*
X154484331Y-71426428D02*
X154512902Y-71369285D01*
X154512902Y-71369285D02*
X154541474Y-71340714D01*
X154541474Y-71340714D02*
X154598617Y-71312142D01*
X154598617Y-71312142D02*
X154712902Y-71283571D01*
X154712902Y-71283571D02*
X154855760Y-71283571D01*
X154855760Y-71283571D02*
X154970045Y-71312142D01*
X154970045Y-71312142D02*
X155027188Y-71340714D01*
X155027188Y-71340714D02*
X155055760Y-71369285D01*
X155055760Y-71369285D02*
X155084331Y-71426428D01*
X155084331Y-71426428D02*
X155084331Y-71483571D01*
X155084331Y-71483571D02*
X155055760Y-71540714D01*
X155055760Y-71540714D02*
X155027188Y-71569285D01*
X155027188Y-71569285D02*
X154970045Y-71597856D01*
X154970045Y-71597856D02*
X154855760Y-71626428D01*
X154855760Y-71626428D02*
X154712902Y-71626428D01*
X154712902Y-71626428D02*
X154598617Y-71597856D01*
X154598617Y-71597856D02*
X154541474Y-71569285D01*
X154541474Y-71569285D02*
X154512902Y-71540714D01*
X154512902Y-71540714D02*
X154484331Y-71483571D01*
X154741474Y-70940713D02*
X154712902Y-70997856D01*
X154712902Y-70997856D02*
X154684331Y-71026427D01*
X154684331Y-71026427D02*
X154627188Y-71054999D01*
X154627188Y-71054999D02*
X154598617Y-71054999D01*
X154598617Y-71054999D02*
X154541474Y-71026427D01*
X154541474Y-71026427D02*
X154512902Y-70997856D01*
X154512902Y-70997856D02*
X154484331Y-70940713D01*
X154484331Y-70940713D02*
X154484331Y-70826427D01*
X154484331Y-70826427D02*
X154512902Y-70769285D01*
X154512902Y-70769285D02*
X154541474Y-70740713D01*
X154541474Y-70740713D02*
X154598617Y-70712142D01*
X154598617Y-70712142D02*
X154627188Y-70712142D01*
X154627188Y-70712142D02*
X154684331Y-70740713D01*
X154684331Y-70740713D02*
X154712902Y-70769285D01*
X154712902Y-70769285D02*
X154741474Y-70826427D01*
X154741474Y-70826427D02*
X154741474Y-70940713D01*
X154741474Y-70940713D02*
X154770045Y-70997856D01*
X154770045Y-70997856D02*
X154798617Y-71026427D01*
X154798617Y-71026427D02*
X154855760Y-71054999D01*
X154855760Y-71054999D02*
X154970045Y-71054999D01*
X154970045Y-71054999D02*
X155027188Y-71026427D01*
X155027188Y-71026427D02*
X155055760Y-70997856D01*
X155055760Y-70997856D02*
X155084331Y-70940713D01*
X155084331Y-70940713D02*
X155084331Y-70826427D01*
X155084331Y-70826427D02*
X155055760Y-70769285D01*
X155055760Y-70769285D02*
X155027188Y-70740713D01*
X155027188Y-70740713D02*
X154970045Y-70712142D01*
X154970045Y-70712142D02*
X154855760Y-70712142D01*
X154855760Y-70712142D02*
X154798617Y-70740713D01*
X154798617Y-70740713D02*
X154770045Y-70769285D01*
X154770045Y-70769285D02*
X154741474Y-70826427D01*
X138701331Y-73912285D02*
X138101331Y-73912285D01*
X138101331Y-73912285D02*
X138101331Y-73769428D01*
X138101331Y-73769428D02*
X138129902Y-73683714D01*
X138129902Y-73683714D02*
X138187045Y-73626571D01*
X138187045Y-73626571D02*
X138244188Y-73598000D01*
X138244188Y-73598000D02*
X138358474Y-73569428D01*
X138358474Y-73569428D02*
X138444188Y-73569428D01*
X138444188Y-73569428D02*
X138558474Y-73598000D01*
X138558474Y-73598000D02*
X138615617Y-73626571D01*
X138615617Y-73626571D02*
X138672760Y-73683714D01*
X138672760Y-73683714D02*
X138701331Y-73769428D01*
X138701331Y-73769428D02*
X138701331Y-73912285D01*
X138101331Y-73026571D02*
X138101331Y-73312285D01*
X138101331Y-73312285D02*
X138387045Y-73340857D01*
X138387045Y-73340857D02*
X138358474Y-73312285D01*
X138358474Y-73312285D02*
X138329902Y-73255143D01*
X138329902Y-73255143D02*
X138329902Y-73112285D01*
X138329902Y-73112285D02*
X138358474Y-73055143D01*
X138358474Y-73055143D02*
X138387045Y-73026571D01*
X138387045Y-73026571D02*
X138444188Y-72998000D01*
X138444188Y-72998000D02*
X138587045Y-72998000D01*
X138587045Y-72998000D02*
X138644188Y-73026571D01*
X138644188Y-73026571D02*
X138672760Y-73055143D01*
X138672760Y-73055143D02*
X138701331Y-73112285D01*
X138701331Y-73112285D02*
X138701331Y-73255143D01*
X138701331Y-73255143D02*
X138672760Y-73312285D01*
X138672760Y-73312285D02*
X138644188Y-73340857D01*
X138101331Y-72626571D02*
X138101331Y-72569428D01*
X138101331Y-72569428D02*
X138129902Y-72512285D01*
X138129902Y-72512285D02*
X138158474Y-72483714D01*
X138158474Y-72483714D02*
X138215617Y-72455142D01*
X138215617Y-72455142D02*
X138329902Y-72426571D01*
X138329902Y-72426571D02*
X138472760Y-72426571D01*
X138472760Y-72426571D02*
X138587045Y-72455142D01*
X138587045Y-72455142D02*
X138644188Y-72483714D01*
X138644188Y-72483714D02*
X138672760Y-72512285D01*
X138672760Y-72512285D02*
X138701331Y-72569428D01*
X138701331Y-72569428D02*
X138701331Y-72626571D01*
X138701331Y-72626571D02*
X138672760Y-72683714D01*
X138672760Y-72683714D02*
X138644188Y-72712285D01*
X138644188Y-72712285D02*
X138587045Y-72740856D01*
X138587045Y-72740856D02*
X138472760Y-72769428D01*
X138472760Y-72769428D02*
X138329902Y-72769428D01*
X138329902Y-72769428D02*
X138215617Y-72740856D01*
X138215617Y-72740856D02*
X138158474Y-72712285D01*
X138158474Y-72712285D02*
X138129902Y-72683714D01*
X138129902Y-72683714D02*
X138101331Y-72626571D01*
X138701331Y-71855142D02*
X138701331Y-72197999D01*
X138701331Y-72026570D02*
X138101331Y-72026570D01*
X138101331Y-72026570D02*
X138187045Y-72083713D01*
X138187045Y-72083713D02*
X138244188Y-72140856D01*
X138244188Y-72140856D02*
X138272760Y-72197999D01*
X168516428Y-72696331D02*
X168516428Y-73182045D01*
X168516428Y-73182045D02*
X168544999Y-73239188D01*
X168544999Y-73239188D02*
X168573571Y-73267760D01*
X168573571Y-73267760D02*
X168630713Y-73296331D01*
X168630713Y-73296331D02*
X168744999Y-73296331D01*
X168744999Y-73296331D02*
X168802142Y-73267760D01*
X168802142Y-73267760D02*
X168830713Y-73239188D01*
X168830713Y-73239188D02*
X168859285Y-73182045D01*
X168859285Y-73182045D02*
X168859285Y-72696331D01*
X169087856Y-72696331D02*
X169459284Y-72696331D01*
X169459284Y-72696331D02*
X169259284Y-72924902D01*
X169259284Y-72924902D02*
X169344999Y-72924902D01*
X169344999Y-72924902D02*
X169402142Y-72953474D01*
X169402142Y-72953474D02*
X169430713Y-72982045D01*
X169430713Y-72982045D02*
X169459284Y-73039188D01*
X169459284Y-73039188D02*
X169459284Y-73182045D01*
X169459284Y-73182045D02*
X169430713Y-73239188D01*
X169430713Y-73239188D02*
X169402142Y-73267760D01*
X169402142Y-73267760D02*
X169344999Y-73296331D01*
X169344999Y-73296331D02*
X169173570Y-73296331D01*
X169173570Y-73296331D02*
X169116427Y-73267760D01*
X169116427Y-73267760D02*
X169087856Y-73239188D01*
X169830713Y-72696331D02*
X169887856Y-72696331D01*
X169887856Y-72696331D02*
X169944999Y-72724902D01*
X169944999Y-72724902D02*
X169973571Y-72753474D01*
X169973571Y-72753474D02*
X170002142Y-72810617D01*
X170002142Y-72810617D02*
X170030713Y-72924902D01*
X170030713Y-72924902D02*
X170030713Y-73067760D01*
X170030713Y-73067760D02*
X170002142Y-73182045D01*
X170002142Y-73182045D02*
X169973571Y-73239188D01*
X169973571Y-73239188D02*
X169944999Y-73267760D01*
X169944999Y-73267760D02*
X169887856Y-73296331D01*
X169887856Y-73296331D02*
X169830713Y-73296331D01*
X169830713Y-73296331D02*
X169773571Y-73267760D01*
X169773571Y-73267760D02*
X169744999Y-73239188D01*
X169744999Y-73239188D02*
X169716428Y-73182045D01*
X169716428Y-73182045D02*
X169687856Y-73067760D01*
X169687856Y-73067760D02*
X169687856Y-72924902D01*
X169687856Y-72924902D02*
X169716428Y-72810617D01*
X169716428Y-72810617D02*
X169744999Y-72753474D01*
X169744999Y-72753474D02*
X169773571Y-72724902D01*
X169773571Y-72724902D02*
X169830713Y-72696331D01*
X170602142Y-73296331D02*
X170259285Y-73296331D01*
X170430714Y-73296331D02*
X170430714Y-72696331D01*
X170430714Y-72696331D02*
X170373571Y-72782045D01*
X170373571Y-72782045D02*
X170316428Y-72839188D01*
X170316428Y-72839188D02*
X170259285Y-72867760D01*
X150385331Y-72426428D02*
X150099617Y-72626428D01*
X150385331Y-72769285D02*
X149785331Y-72769285D01*
X149785331Y-72769285D02*
X149785331Y-72540714D01*
X149785331Y-72540714D02*
X149813902Y-72483571D01*
X149813902Y-72483571D02*
X149842474Y-72455000D01*
X149842474Y-72455000D02*
X149899617Y-72426428D01*
X149899617Y-72426428D02*
X149985331Y-72426428D01*
X149985331Y-72426428D02*
X150042474Y-72455000D01*
X150042474Y-72455000D02*
X150071045Y-72483571D01*
X150071045Y-72483571D02*
X150099617Y-72540714D01*
X150099617Y-72540714D02*
X150099617Y-72769285D01*
X149985331Y-71912143D02*
X150385331Y-71912143D01*
X149756760Y-72055000D02*
X150185331Y-72197857D01*
X150185331Y-72197857D02*
X150185331Y-71826428D01*
X149785331Y-71483571D02*
X149785331Y-71426428D01*
X149785331Y-71426428D02*
X149813902Y-71369285D01*
X149813902Y-71369285D02*
X149842474Y-71340714D01*
X149842474Y-71340714D02*
X149899617Y-71312142D01*
X149899617Y-71312142D02*
X150013902Y-71283571D01*
X150013902Y-71283571D02*
X150156760Y-71283571D01*
X150156760Y-71283571D02*
X150271045Y-71312142D01*
X150271045Y-71312142D02*
X150328188Y-71340714D01*
X150328188Y-71340714D02*
X150356760Y-71369285D01*
X150356760Y-71369285D02*
X150385331Y-71426428D01*
X150385331Y-71426428D02*
X150385331Y-71483571D01*
X150385331Y-71483571D02*
X150356760Y-71540714D01*
X150356760Y-71540714D02*
X150328188Y-71569285D01*
X150328188Y-71569285D02*
X150271045Y-71597856D01*
X150271045Y-71597856D02*
X150156760Y-71626428D01*
X150156760Y-71626428D02*
X150013902Y-71626428D01*
X150013902Y-71626428D02*
X149899617Y-71597856D01*
X149899617Y-71597856D02*
X149842474Y-71569285D01*
X149842474Y-71569285D02*
X149813902Y-71540714D01*
X149813902Y-71540714D02*
X149785331Y-71483571D01*
X149785331Y-71083570D02*
X149785331Y-70683570D01*
X149785331Y-70683570D02*
X150385331Y-70940713D01*
X151466714Y-100601331D02*
X151466714Y-100001331D01*
X151466714Y-100287045D02*
X151809571Y-100287045D01*
X151809571Y-100601331D02*
X151809571Y-100001331D01*
X152066713Y-100572760D02*
X152152428Y-100601331D01*
X152152428Y-100601331D02*
X152295285Y-100601331D01*
X152295285Y-100601331D02*
X152352428Y-100572760D01*
X152352428Y-100572760D02*
X152380999Y-100544188D01*
X152380999Y-100544188D02*
X152409570Y-100487045D01*
X152409570Y-100487045D02*
X152409570Y-100429902D01*
X152409570Y-100429902D02*
X152380999Y-100372760D01*
X152380999Y-100372760D02*
X152352428Y-100344188D01*
X152352428Y-100344188D02*
X152295285Y-100315617D01*
X152295285Y-100315617D02*
X152180999Y-100287045D01*
X152180999Y-100287045D02*
X152123856Y-100258474D01*
X152123856Y-100258474D02*
X152095285Y-100229902D01*
X152095285Y-100229902D02*
X152066713Y-100172760D01*
X152066713Y-100172760D02*
X152066713Y-100115617D01*
X152066713Y-100115617D02*
X152095285Y-100058474D01*
X152095285Y-100058474D02*
X152123856Y-100029902D01*
X152123856Y-100029902D02*
X152180999Y-100001331D01*
X152180999Y-100001331D02*
X152323856Y-100001331D01*
X152323856Y-100001331D02*
X152409570Y-100029902D01*
X152980999Y-100601331D02*
X152638142Y-100601331D01*
X152809571Y-100601331D02*
X152809571Y-100001331D01*
X152809571Y-100001331D02*
X152752428Y-100087045D01*
X152752428Y-100087045D02*
X152695285Y-100144188D01*
X152695285Y-100144188D02*
X152638142Y-100172760D01*
X153352428Y-100001331D02*
X153409571Y-100001331D01*
X153409571Y-100001331D02*
X153466714Y-100029902D01*
X153466714Y-100029902D02*
X153495286Y-100058474D01*
X153495286Y-100058474D02*
X153523857Y-100115617D01*
X153523857Y-100115617D02*
X153552428Y-100229902D01*
X153552428Y-100229902D02*
X153552428Y-100372760D01*
X153552428Y-100372760D02*
X153523857Y-100487045D01*
X153523857Y-100487045D02*
X153495286Y-100544188D01*
X153495286Y-100544188D02*
X153466714Y-100572760D01*
X153466714Y-100572760D02*
X153409571Y-100601331D01*
X153409571Y-100601331D02*
X153352428Y-100601331D01*
X153352428Y-100601331D02*
X153295286Y-100572760D01*
X153295286Y-100572760D02*
X153266714Y-100544188D01*
X153266714Y-100544188D02*
X153238143Y-100487045D01*
X153238143Y-100487045D02*
X153209571Y-100372760D01*
X153209571Y-100372760D02*
X153209571Y-100229902D01*
X153209571Y-100229902D02*
X153238143Y-100115617D01*
X153238143Y-100115617D02*
X153266714Y-100058474D01*
X153266714Y-100058474D02*
X153295286Y-100029902D01*
X153295286Y-100029902D02*
X153352428Y-100001331D01*
X154123857Y-100601331D02*
X153781000Y-100601331D01*
X153952429Y-100601331D02*
X153952429Y-100001331D01*
X153952429Y-100001331D02*
X153895286Y-100087045D01*
X153895286Y-100087045D02*
X153838143Y-100144188D01*
X153838143Y-100144188D02*
X153781000Y-100172760D01*
X171159571Y-92219329D02*
X170873857Y-92219329D01*
X170873857Y-92219329D02*
X170873857Y-91619329D01*
X171330999Y-91676472D02*
X171359571Y-91647900D01*
X171359571Y-91647900D02*
X171416714Y-91619329D01*
X171416714Y-91619329D02*
X171559571Y-91619329D01*
X171559571Y-91619329D02*
X171616714Y-91647900D01*
X171616714Y-91647900D02*
X171645285Y-91676472D01*
X171645285Y-91676472D02*
X171673856Y-91733615D01*
X171673856Y-91733615D02*
X171673856Y-91790758D01*
X171673856Y-91790758D02*
X171645285Y-91876472D01*
X171645285Y-91876472D02*
X171302428Y-92219329D01*
X171302428Y-92219329D02*
X171673856Y-92219329D01*
X172045285Y-91619329D02*
X172102428Y-91619329D01*
X172102428Y-91619329D02*
X172159571Y-91647900D01*
X172159571Y-91647900D02*
X172188143Y-91676472D01*
X172188143Y-91676472D02*
X172216714Y-91733615D01*
X172216714Y-91733615D02*
X172245285Y-91847900D01*
X172245285Y-91847900D02*
X172245285Y-91990758D01*
X172245285Y-91990758D02*
X172216714Y-92105043D01*
X172216714Y-92105043D02*
X172188143Y-92162186D01*
X172188143Y-92162186D02*
X172159571Y-92190758D01*
X172159571Y-92190758D02*
X172102428Y-92219329D01*
X172102428Y-92219329D02*
X172045285Y-92219329D01*
X172045285Y-92219329D02*
X171988143Y-92190758D01*
X171988143Y-92190758D02*
X171959571Y-92162186D01*
X171959571Y-92162186D02*
X171931000Y-92105043D01*
X171931000Y-92105043D02*
X171902428Y-91990758D01*
X171902428Y-91990758D02*
X171902428Y-91847900D01*
X171902428Y-91847900D02*
X171931000Y-91733615D01*
X171931000Y-91733615D02*
X171959571Y-91676472D01*
X171959571Y-91676472D02*
X171988143Y-91647900D01*
X171988143Y-91647900D02*
X172045285Y-91619329D01*
X172816714Y-92219329D02*
X172473857Y-92219329D01*
X172645286Y-92219329D02*
X172645286Y-91619329D01*
X172645286Y-91619329D02*
X172588143Y-91705043D01*
X172588143Y-91705043D02*
X172531000Y-91762186D01*
X172531000Y-91762186D02*
X172473857Y-91790758D01*
X179849331Y-99604428D02*
X179563617Y-99804428D01*
X179849331Y-99947285D02*
X179249331Y-99947285D01*
X179249331Y-99947285D02*
X179249331Y-99718714D01*
X179249331Y-99718714D02*
X179277902Y-99661571D01*
X179277902Y-99661571D02*
X179306474Y-99633000D01*
X179306474Y-99633000D02*
X179363617Y-99604428D01*
X179363617Y-99604428D02*
X179449331Y-99604428D01*
X179449331Y-99604428D02*
X179506474Y-99633000D01*
X179506474Y-99633000D02*
X179535045Y-99661571D01*
X179535045Y-99661571D02*
X179563617Y-99718714D01*
X179563617Y-99718714D02*
X179563617Y-99947285D01*
X179306474Y-99375857D02*
X179277902Y-99347285D01*
X179277902Y-99347285D02*
X179249331Y-99290143D01*
X179249331Y-99290143D02*
X179249331Y-99147285D01*
X179249331Y-99147285D02*
X179277902Y-99090143D01*
X179277902Y-99090143D02*
X179306474Y-99061571D01*
X179306474Y-99061571D02*
X179363617Y-99033000D01*
X179363617Y-99033000D02*
X179420760Y-99033000D01*
X179420760Y-99033000D02*
X179506474Y-99061571D01*
X179506474Y-99061571D02*
X179849331Y-99404428D01*
X179849331Y-99404428D02*
X179849331Y-99033000D01*
X179249331Y-98661571D02*
X179249331Y-98604428D01*
X179249331Y-98604428D02*
X179277902Y-98547285D01*
X179277902Y-98547285D02*
X179306474Y-98518714D01*
X179306474Y-98518714D02*
X179363617Y-98490142D01*
X179363617Y-98490142D02*
X179477902Y-98461571D01*
X179477902Y-98461571D02*
X179620760Y-98461571D01*
X179620760Y-98461571D02*
X179735045Y-98490142D01*
X179735045Y-98490142D02*
X179792188Y-98518714D01*
X179792188Y-98518714D02*
X179820760Y-98547285D01*
X179820760Y-98547285D02*
X179849331Y-98604428D01*
X179849331Y-98604428D02*
X179849331Y-98661571D01*
X179849331Y-98661571D02*
X179820760Y-98718714D01*
X179820760Y-98718714D02*
X179792188Y-98747285D01*
X179792188Y-98747285D02*
X179735045Y-98775856D01*
X179735045Y-98775856D02*
X179620760Y-98804428D01*
X179620760Y-98804428D02*
X179477902Y-98804428D01*
X179477902Y-98804428D02*
X179363617Y-98775856D01*
X179363617Y-98775856D02*
X179306474Y-98747285D01*
X179306474Y-98747285D02*
X179277902Y-98718714D01*
X179277902Y-98718714D02*
X179249331Y-98661571D01*
X179849331Y-97890142D02*
X179849331Y-98232999D01*
X179849331Y-98061570D02*
X179249331Y-98061570D01*
X179249331Y-98061570D02*
X179335045Y-98118713D01*
X179335045Y-98118713D02*
X179392188Y-98175856D01*
X179392188Y-98175856D02*
X179420760Y-98232999D01*
X170675428Y-96559331D02*
X170675428Y-97045045D01*
X170675428Y-97045045D02*
X170703999Y-97102188D01*
X170703999Y-97102188D02*
X170732571Y-97130760D01*
X170732571Y-97130760D02*
X170789713Y-97159331D01*
X170789713Y-97159331D02*
X170903999Y-97159331D01*
X170903999Y-97159331D02*
X170961142Y-97130760D01*
X170961142Y-97130760D02*
X170989713Y-97102188D01*
X170989713Y-97102188D02*
X171018285Y-97045045D01*
X171018285Y-97045045D02*
X171018285Y-96559331D01*
X171275427Y-96616474D02*
X171303999Y-96587902D01*
X171303999Y-96587902D02*
X171361142Y-96559331D01*
X171361142Y-96559331D02*
X171503999Y-96559331D01*
X171503999Y-96559331D02*
X171561142Y-96587902D01*
X171561142Y-96587902D02*
X171589713Y-96616474D01*
X171589713Y-96616474D02*
X171618284Y-96673617D01*
X171618284Y-96673617D02*
X171618284Y-96730760D01*
X171618284Y-96730760D02*
X171589713Y-96816474D01*
X171589713Y-96816474D02*
X171246856Y-97159331D01*
X171246856Y-97159331D02*
X171618284Y-97159331D01*
X171989713Y-96559331D02*
X172046856Y-96559331D01*
X172046856Y-96559331D02*
X172103999Y-96587902D01*
X172103999Y-96587902D02*
X172132571Y-96616474D01*
X172132571Y-96616474D02*
X172161142Y-96673617D01*
X172161142Y-96673617D02*
X172189713Y-96787902D01*
X172189713Y-96787902D02*
X172189713Y-96930760D01*
X172189713Y-96930760D02*
X172161142Y-97045045D01*
X172161142Y-97045045D02*
X172132571Y-97102188D01*
X172132571Y-97102188D02*
X172103999Y-97130760D01*
X172103999Y-97130760D02*
X172046856Y-97159331D01*
X172046856Y-97159331D02*
X171989713Y-97159331D01*
X171989713Y-97159331D02*
X171932571Y-97130760D01*
X171932571Y-97130760D02*
X171903999Y-97102188D01*
X171903999Y-97102188D02*
X171875428Y-97045045D01*
X171875428Y-97045045D02*
X171846856Y-96930760D01*
X171846856Y-96930760D02*
X171846856Y-96787902D01*
X171846856Y-96787902D02*
X171875428Y-96673617D01*
X171875428Y-96673617D02*
X171903999Y-96616474D01*
X171903999Y-96616474D02*
X171932571Y-96587902D01*
X171932571Y-96587902D02*
X171989713Y-96559331D01*
X172418285Y-96616474D02*
X172446857Y-96587902D01*
X172446857Y-96587902D02*
X172504000Y-96559331D01*
X172504000Y-96559331D02*
X172646857Y-96559331D01*
X172646857Y-96559331D02*
X172704000Y-96587902D01*
X172704000Y-96587902D02*
X172732571Y-96616474D01*
X172732571Y-96616474D02*
X172761142Y-96673617D01*
X172761142Y-96673617D02*
X172761142Y-96730760D01*
X172761142Y-96730760D02*
X172732571Y-96816474D01*
X172732571Y-96816474D02*
X172389714Y-97159331D01*
X172389714Y-97159331D02*
X172761142Y-97159331D01*
X128322331Y-83451571D02*
X128808045Y-83451571D01*
X128808045Y-83451571D02*
X128865188Y-83423000D01*
X128865188Y-83423000D02*
X128893760Y-83394429D01*
X128893760Y-83394429D02*
X128922331Y-83337286D01*
X128922331Y-83337286D02*
X128922331Y-83223000D01*
X128922331Y-83223000D02*
X128893760Y-83165857D01*
X128893760Y-83165857D02*
X128865188Y-83137286D01*
X128865188Y-83137286D02*
X128808045Y-83108714D01*
X128808045Y-83108714D02*
X128322331Y-83108714D01*
X128322331Y-82537286D02*
X128322331Y-82823000D01*
X128322331Y-82823000D02*
X128608045Y-82851572D01*
X128608045Y-82851572D02*
X128579474Y-82823000D01*
X128579474Y-82823000D02*
X128550902Y-82765858D01*
X128550902Y-82765858D02*
X128550902Y-82623000D01*
X128550902Y-82623000D02*
X128579474Y-82565858D01*
X128579474Y-82565858D02*
X128608045Y-82537286D01*
X128608045Y-82537286D02*
X128665188Y-82508715D01*
X128665188Y-82508715D02*
X128808045Y-82508715D01*
X128808045Y-82508715D02*
X128865188Y-82537286D01*
X128865188Y-82537286D02*
X128893760Y-82565858D01*
X128893760Y-82565858D02*
X128922331Y-82623000D01*
X128922331Y-82623000D02*
X128922331Y-82765858D01*
X128922331Y-82765858D02*
X128893760Y-82823000D01*
X128893760Y-82823000D02*
X128865188Y-82851572D01*
X128322331Y-82137286D02*
X128322331Y-82080143D01*
X128322331Y-82080143D02*
X128350902Y-82023000D01*
X128350902Y-82023000D02*
X128379474Y-81994429D01*
X128379474Y-81994429D02*
X128436617Y-81965857D01*
X128436617Y-81965857D02*
X128550902Y-81937286D01*
X128550902Y-81937286D02*
X128693760Y-81937286D01*
X128693760Y-81937286D02*
X128808045Y-81965857D01*
X128808045Y-81965857D02*
X128865188Y-81994429D01*
X128865188Y-81994429D02*
X128893760Y-82023000D01*
X128893760Y-82023000D02*
X128922331Y-82080143D01*
X128922331Y-82080143D02*
X128922331Y-82137286D01*
X128922331Y-82137286D02*
X128893760Y-82194429D01*
X128893760Y-82194429D02*
X128865188Y-82223000D01*
X128865188Y-82223000D02*
X128808045Y-82251571D01*
X128808045Y-82251571D02*
X128693760Y-82280143D01*
X128693760Y-82280143D02*
X128550902Y-82280143D01*
X128550902Y-82280143D02*
X128436617Y-82251571D01*
X128436617Y-82251571D02*
X128379474Y-82223000D01*
X128379474Y-82223000D02*
X128350902Y-82194429D01*
X128350902Y-82194429D02*
X128322331Y-82137286D01*
X128922331Y-81365857D02*
X128922331Y-81708714D01*
X128922331Y-81537285D02*
X128322331Y-81537285D01*
X128322331Y-81537285D02*
X128408045Y-81594428D01*
X128408045Y-81594428D02*
X128465188Y-81651571D01*
X128465188Y-81651571D02*
X128493760Y-81708714D01*
X182378428Y-99007474D02*
X182321285Y-98978902D01*
X182321285Y-98978902D02*
X182264142Y-98921760D01*
X182264142Y-98921760D02*
X182178428Y-98836045D01*
X182178428Y-98836045D02*
X182121285Y-98807474D01*
X182121285Y-98807474D02*
X182064142Y-98807474D01*
X182092713Y-98950331D02*
X182035571Y-98921760D01*
X182035571Y-98921760D02*
X181978428Y-98864617D01*
X181978428Y-98864617D02*
X181949856Y-98750331D01*
X181949856Y-98750331D02*
X181949856Y-98550331D01*
X181949856Y-98550331D02*
X181978428Y-98436045D01*
X181978428Y-98436045D02*
X182035571Y-98378902D01*
X182035571Y-98378902D02*
X182092713Y-98350331D01*
X182092713Y-98350331D02*
X182206999Y-98350331D01*
X182206999Y-98350331D02*
X182264142Y-98378902D01*
X182264142Y-98378902D02*
X182321285Y-98436045D01*
X182321285Y-98436045D02*
X182349856Y-98550331D01*
X182349856Y-98550331D02*
X182349856Y-98750331D01*
X182349856Y-98750331D02*
X182321285Y-98864617D01*
X182321285Y-98864617D02*
X182264142Y-98921760D01*
X182264142Y-98921760D02*
X182206999Y-98950331D01*
X182206999Y-98950331D02*
X182092713Y-98950331D01*
X182578427Y-98407474D02*
X182606999Y-98378902D01*
X182606999Y-98378902D02*
X182664142Y-98350331D01*
X182664142Y-98350331D02*
X182806999Y-98350331D01*
X182806999Y-98350331D02*
X182864142Y-98378902D01*
X182864142Y-98378902D02*
X182892713Y-98407474D01*
X182892713Y-98407474D02*
X182921284Y-98464617D01*
X182921284Y-98464617D02*
X182921284Y-98521760D01*
X182921284Y-98521760D02*
X182892713Y-98607474D01*
X182892713Y-98607474D02*
X182549856Y-98950331D01*
X182549856Y-98950331D02*
X182921284Y-98950331D01*
X183292713Y-98350331D02*
X183349856Y-98350331D01*
X183349856Y-98350331D02*
X183406999Y-98378902D01*
X183406999Y-98378902D02*
X183435571Y-98407474D01*
X183435571Y-98407474D02*
X183464142Y-98464617D01*
X183464142Y-98464617D02*
X183492713Y-98578902D01*
X183492713Y-98578902D02*
X183492713Y-98721760D01*
X183492713Y-98721760D02*
X183464142Y-98836045D01*
X183464142Y-98836045D02*
X183435571Y-98893188D01*
X183435571Y-98893188D02*
X183406999Y-98921760D01*
X183406999Y-98921760D02*
X183349856Y-98950331D01*
X183349856Y-98950331D02*
X183292713Y-98950331D01*
X183292713Y-98950331D02*
X183235571Y-98921760D01*
X183235571Y-98921760D02*
X183206999Y-98893188D01*
X183206999Y-98893188D02*
X183178428Y-98836045D01*
X183178428Y-98836045D02*
X183149856Y-98721760D01*
X183149856Y-98721760D02*
X183149856Y-98578902D01*
X183149856Y-98578902D02*
X183178428Y-98464617D01*
X183178428Y-98464617D02*
X183206999Y-98407474D01*
X183206999Y-98407474D02*
X183235571Y-98378902D01*
X183235571Y-98378902D02*
X183292713Y-98350331D01*
X183721285Y-98407474D02*
X183749857Y-98378902D01*
X183749857Y-98378902D02*
X183807000Y-98350331D01*
X183807000Y-98350331D02*
X183949857Y-98350331D01*
X183949857Y-98350331D02*
X184007000Y-98378902D01*
X184007000Y-98378902D02*
X184035571Y-98407474D01*
X184035571Y-98407474D02*
X184064142Y-98464617D01*
X184064142Y-98464617D02*
X184064142Y-98521760D01*
X184064142Y-98521760D02*
X184035571Y-98607474D01*
X184035571Y-98607474D02*
X183692714Y-98950331D01*
X183692714Y-98950331D02*
X184064142Y-98950331D01*
X136288331Y-73569428D02*
X136002617Y-73769428D01*
X136288331Y-73912285D02*
X135688331Y-73912285D01*
X135688331Y-73912285D02*
X135688331Y-73683714D01*
X135688331Y-73683714D02*
X135716902Y-73626571D01*
X135716902Y-73626571D02*
X135745474Y-73598000D01*
X135745474Y-73598000D02*
X135802617Y-73569428D01*
X135802617Y-73569428D02*
X135888331Y-73569428D01*
X135888331Y-73569428D02*
X135945474Y-73598000D01*
X135945474Y-73598000D02*
X135974045Y-73626571D01*
X135974045Y-73626571D02*
X136002617Y-73683714D01*
X136002617Y-73683714D02*
X136002617Y-73912285D01*
X135688331Y-73026571D02*
X135688331Y-73312285D01*
X135688331Y-73312285D02*
X135974045Y-73340857D01*
X135974045Y-73340857D02*
X135945474Y-73312285D01*
X135945474Y-73312285D02*
X135916902Y-73255143D01*
X135916902Y-73255143D02*
X135916902Y-73112285D01*
X135916902Y-73112285D02*
X135945474Y-73055143D01*
X135945474Y-73055143D02*
X135974045Y-73026571D01*
X135974045Y-73026571D02*
X136031188Y-72998000D01*
X136031188Y-72998000D02*
X136174045Y-72998000D01*
X136174045Y-72998000D02*
X136231188Y-73026571D01*
X136231188Y-73026571D02*
X136259760Y-73055143D01*
X136259760Y-73055143D02*
X136288331Y-73112285D01*
X136288331Y-73112285D02*
X136288331Y-73255143D01*
X136288331Y-73255143D02*
X136259760Y-73312285D01*
X136259760Y-73312285D02*
X136231188Y-73340857D01*
X135688331Y-72626571D02*
X135688331Y-72569428D01*
X135688331Y-72569428D02*
X135716902Y-72512285D01*
X135716902Y-72512285D02*
X135745474Y-72483714D01*
X135745474Y-72483714D02*
X135802617Y-72455142D01*
X135802617Y-72455142D02*
X135916902Y-72426571D01*
X135916902Y-72426571D02*
X136059760Y-72426571D01*
X136059760Y-72426571D02*
X136174045Y-72455142D01*
X136174045Y-72455142D02*
X136231188Y-72483714D01*
X136231188Y-72483714D02*
X136259760Y-72512285D01*
X136259760Y-72512285D02*
X136288331Y-72569428D01*
X136288331Y-72569428D02*
X136288331Y-72626571D01*
X136288331Y-72626571D02*
X136259760Y-72683714D01*
X136259760Y-72683714D02*
X136231188Y-72712285D01*
X136231188Y-72712285D02*
X136174045Y-72740856D01*
X136174045Y-72740856D02*
X136059760Y-72769428D01*
X136059760Y-72769428D02*
X135916902Y-72769428D01*
X135916902Y-72769428D02*
X135802617Y-72740856D01*
X135802617Y-72740856D02*
X135745474Y-72712285D01*
X135745474Y-72712285D02*
X135716902Y-72683714D01*
X135716902Y-72683714D02*
X135688331Y-72626571D01*
X136288331Y-71855142D02*
X136288331Y-72197999D01*
X136288331Y-72026570D02*
X135688331Y-72026570D01*
X135688331Y-72026570D02*
X135774045Y-72083713D01*
X135774045Y-72083713D02*
X135831188Y-72140856D01*
X135831188Y-72140856D02*
X135859760Y-72197999D01*
X131716331Y-86710714D02*
X131430617Y-86910714D01*
X131716331Y-87053571D02*
X131116331Y-87053571D01*
X131116331Y-87053571D02*
X131116331Y-86825000D01*
X131116331Y-86825000D02*
X131144902Y-86767857D01*
X131144902Y-86767857D02*
X131173474Y-86739286D01*
X131173474Y-86739286D02*
X131230617Y-86710714D01*
X131230617Y-86710714D02*
X131316331Y-86710714D01*
X131316331Y-86710714D02*
X131373474Y-86739286D01*
X131373474Y-86739286D02*
X131402045Y-86767857D01*
X131402045Y-86767857D02*
X131430617Y-86825000D01*
X131430617Y-86825000D02*
X131430617Y-87053571D01*
X131716331Y-86453571D02*
X131116331Y-86453571D01*
X131116331Y-86453571D02*
X131716331Y-86110714D01*
X131716331Y-86110714D02*
X131116331Y-86110714D01*
X131116331Y-85539286D02*
X131116331Y-85825000D01*
X131116331Y-85825000D02*
X131402045Y-85853572D01*
X131402045Y-85853572D02*
X131373474Y-85825000D01*
X131373474Y-85825000D02*
X131344902Y-85767858D01*
X131344902Y-85767858D02*
X131344902Y-85625000D01*
X131344902Y-85625000D02*
X131373474Y-85567858D01*
X131373474Y-85567858D02*
X131402045Y-85539286D01*
X131402045Y-85539286D02*
X131459188Y-85510715D01*
X131459188Y-85510715D02*
X131602045Y-85510715D01*
X131602045Y-85510715D02*
X131659188Y-85539286D01*
X131659188Y-85539286D02*
X131687760Y-85567858D01*
X131687760Y-85567858D02*
X131716331Y-85625000D01*
X131716331Y-85625000D02*
X131716331Y-85767858D01*
X131716331Y-85767858D02*
X131687760Y-85825000D01*
X131687760Y-85825000D02*
X131659188Y-85853572D01*
X131116331Y-85139286D02*
X131116331Y-85082143D01*
X131116331Y-85082143D02*
X131144902Y-85025000D01*
X131144902Y-85025000D02*
X131173474Y-84996429D01*
X131173474Y-84996429D02*
X131230617Y-84967857D01*
X131230617Y-84967857D02*
X131344902Y-84939286D01*
X131344902Y-84939286D02*
X131487760Y-84939286D01*
X131487760Y-84939286D02*
X131602045Y-84967857D01*
X131602045Y-84967857D02*
X131659188Y-84996429D01*
X131659188Y-84996429D02*
X131687760Y-85025000D01*
X131687760Y-85025000D02*
X131716331Y-85082143D01*
X131716331Y-85082143D02*
X131716331Y-85139286D01*
X131716331Y-85139286D02*
X131687760Y-85196429D01*
X131687760Y-85196429D02*
X131659188Y-85225000D01*
X131659188Y-85225000D02*
X131602045Y-85253571D01*
X131602045Y-85253571D02*
X131487760Y-85282143D01*
X131487760Y-85282143D02*
X131344902Y-85282143D01*
X131344902Y-85282143D02*
X131230617Y-85253571D01*
X131230617Y-85253571D02*
X131173474Y-85225000D01*
X131173474Y-85225000D02*
X131144902Y-85196429D01*
X131144902Y-85196429D02*
X131116331Y-85139286D01*
X131716331Y-84367857D02*
X131716331Y-84710714D01*
X131716331Y-84539285D02*
X131116331Y-84539285D01*
X131116331Y-84539285D02*
X131202045Y-84596428D01*
X131202045Y-84596428D02*
X131259188Y-84653571D01*
X131259188Y-84653571D02*
X131287760Y-84710714D01*
X163860285Y-74058331D02*
X163660285Y-73772617D01*
X163517428Y-74058331D02*
X163517428Y-73458331D01*
X163517428Y-73458331D02*
X163745999Y-73458331D01*
X163745999Y-73458331D02*
X163803142Y-73486902D01*
X163803142Y-73486902D02*
X163831713Y-73515474D01*
X163831713Y-73515474D02*
X163860285Y-73572617D01*
X163860285Y-73572617D02*
X163860285Y-73658331D01*
X163860285Y-73658331D02*
X163831713Y-73715474D01*
X163831713Y-73715474D02*
X163803142Y-73744045D01*
X163803142Y-73744045D02*
X163745999Y-73772617D01*
X163745999Y-73772617D02*
X163517428Y-73772617D01*
X164117428Y-74058331D02*
X164117428Y-73458331D01*
X164117428Y-73458331D02*
X164460285Y-74058331D01*
X164460285Y-74058331D02*
X164460285Y-73458331D01*
X164688856Y-73458331D02*
X165060284Y-73458331D01*
X165060284Y-73458331D02*
X164860284Y-73686902D01*
X164860284Y-73686902D02*
X164945999Y-73686902D01*
X164945999Y-73686902D02*
X165003142Y-73715474D01*
X165003142Y-73715474D02*
X165031713Y-73744045D01*
X165031713Y-73744045D02*
X165060284Y-73801188D01*
X165060284Y-73801188D02*
X165060284Y-73944045D01*
X165060284Y-73944045D02*
X165031713Y-74001188D01*
X165031713Y-74001188D02*
X165003142Y-74029760D01*
X165003142Y-74029760D02*
X164945999Y-74058331D01*
X164945999Y-74058331D02*
X164774570Y-74058331D01*
X164774570Y-74058331D02*
X164717427Y-74029760D01*
X164717427Y-74029760D02*
X164688856Y-74001188D01*
X165431713Y-73458331D02*
X165488856Y-73458331D01*
X165488856Y-73458331D02*
X165545999Y-73486902D01*
X165545999Y-73486902D02*
X165574571Y-73515474D01*
X165574571Y-73515474D02*
X165603142Y-73572617D01*
X165603142Y-73572617D02*
X165631713Y-73686902D01*
X165631713Y-73686902D02*
X165631713Y-73829760D01*
X165631713Y-73829760D02*
X165603142Y-73944045D01*
X165603142Y-73944045D02*
X165574571Y-74001188D01*
X165574571Y-74001188D02*
X165545999Y-74029760D01*
X165545999Y-74029760D02*
X165488856Y-74058331D01*
X165488856Y-74058331D02*
X165431713Y-74058331D01*
X165431713Y-74058331D02*
X165374571Y-74029760D01*
X165374571Y-74029760D02*
X165345999Y-74001188D01*
X165345999Y-74001188D02*
X165317428Y-73944045D01*
X165317428Y-73944045D02*
X165288856Y-73829760D01*
X165288856Y-73829760D02*
X165288856Y-73686902D01*
X165288856Y-73686902D02*
X165317428Y-73572617D01*
X165317428Y-73572617D02*
X165345999Y-73515474D01*
X165345999Y-73515474D02*
X165374571Y-73486902D01*
X165374571Y-73486902D02*
X165431713Y-73458331D01*
X165860285Y-73515474D02*
X165888857Y-73486902D01*
X165888857Y-73486902D02*
X165946000Y-73458331D01*
X165946000Y-73458331D02*
X166088857Y-73458331D01*
X166088857Y-73458331D02*
X166146000Y-73486902D01*
X166146000Y-73486902D02*
X166174571Y-73515474D01*
X166174571Y-73515474D02*
X166203142Y-73572617D01*
X166203142Y-73572617D02*
X166203142Y-73629760D01*
X166203142Y-73629760D02*
X166174571Y-73715474D01*
X166174571Y-73715474D02*
X165831714Y-74058331D01*
X165831714Y-74058331D02*
X166203142Y-74058331D01*
X132424571Y-73931331D02*
X132224571Y-73645617D01*
X132081714Y-73931331D02*
X132081714Y-73331331D01*
X132081714Y-73331331D02*
X132310285Y-73331331D01*
X132310285Y-73331331D02*
X132367428Y-73359902D01*
X132367428Y-73359902D02*
X132395999Y-73388474D01*
X132395999Y-73388474D02*
X132424571Y-73445617D01*
X132424571Y-73445617D02*
X132424571Y-73531331D01*
X132424571Y-73531331D02*
X132395999Y-73588474D01*
X132395999Y-73588474D02*
X132367428Y-73617045D01*
X132367428Y-73617045D02*
X132310285Y-73645617D01*
X132310285Y-73645617D02*
X132081714Y-73645617D01*
X132967428Y-73331331D02*
X132681714Y-73331331D01*
X132681714Y-73331331D02*
X132653142Y-73617045D01*
X132653142Y-73617045D02*
X132681714Y-73588474D01*
X132681714Y-73588474D02*
X132738857Y-73559902D01*
X132738857Y-73559902D02*
X132881714Y-73559902D01*
X132881714Y-73559902D02*
X132938857Y-73588474D01*
X132938857Y-73588474D02*
X132967428Y-73617045D01*
X132967428Y-73617045D02*
X132995999Y-73674188D01*
X132995999Y-73674188D02*
X132995999Y-73817045D01*
X132995999Y-73817045D02*
X132967428Y-73874188D01*
X132967428Y-73874188D02*
X132938857Y-73902760D01*
X132938857Y-73902760D02*
X132881714Y-73931331D01*
X132881714Y-73931331D02*
X132738857Y-73931331D01*
X132738857Y-73931331D02*
X132681714Y-73902760D01*
X132681714Y-73902760D02*
X132653142Y-73874188D01*
X133367428Y-73331331D02*
X133424571Y-73331331D01*
X133424571Y-73331331D02*
X133481714Y-73359902D01*
X133481714Y-73359902D02*
X133510286Y-73388474D01*
X133510286Y-73388474D02*
X133538857Y-73445617D01*
X133538857Y-73445617D02*
X133567428Y-73559902D01*
X133567428Y-73559902D02*
X133567428Y-73702760D01*
X133567428Y-73702760D02*
X133538857Y-73817045D01*
X133538857Y-73817045D02*
X133510286Y-73874188D01*
X133510286Y-73874188D02*
X133481714Y-73902760D01*
X133481714Y-73902760D02*
X133424571Y-73931331D01*
X133424571Y-73931331D02*
X133367428Y-73931331D01*
X133367428Y-73931331D02*
X133310286Y-73902760D01*
X133310286Y-73902760D02*
X133281714Y-73874188D01*
X133281714Y-73874188D02*
X133253143Y-73817045D01*
X133253143Y-73817045D02*
X133224571Y-73702760D01*
X133224571Y-73702760D02*
X133224571Y-73559902D01*
X133224571Y-73559902D02*
X133253143Y-73445617D01*
X133253143Y-73445617D02*
X133281714Y-73388474D01*
X133281714Y-73388474D02*
X133310286Y-73359902D01*
X133310286Y-73359902D02*
X133367428Y-73331331D01*
X134081715Y-73331331D02*
X133967429Y-73331331D01*
X133967429Y-73331331D02*
X133910286Y-73359902D01*
X133910286Y-73359902D02*
X133881715Y-73388474D01*
X133881715Y-73388474D02*
X133824572Y-73474188D01*
X133824572Y-73474188D02*
X133796000Y-73588474D01*
X133796000Y-73588474D02*
X133796000Y-73817045D01*
X133796000Y-73817045D02*
X133824572Y-73874188D01*
X133824572Y-73874188D02*
X133853143Y-73902760D01*
X133853143Y-73902760D02*
X133910286Y-73931331D01*
X133910286Y-73931331D02*
X134024572Y-73931331D01*
X134024572Y-73931331D02*
X134081715Y-73902760D01*
X134081715Y-73902760D02*
X134110286Y-73874188D01*
X134110286Y-73874188D02*
X134138857Y-73817045D01*
X134138857Y-73817045D02*
X134138857Y-73674188D01*
X134138857Y-73674188D02*
X134110286Y-73617045D01*
X134110286Y-73617045D02*
X134081715Y-73588474D01*
X134081715Y-73588474D02*
X134024572Y-73559902D01*
X134024572Y-73559902D02*
X133910286Y-73559902D01*
X133910286Y-73559902D02*
X133853143Y-73588474D01*
X133853143Y-73588474D02*
X133824572Y-73617045D01*
X133824572Y-73617045D02*
X133796000Y-73674188D01*
X174849188Y-97383428D02*
X174877760Y-97412000D01*
X174877760Y-97412000D02*
X174906331Y-97497714D01*
X174906331Y-97497714D02*
X174906331Y-97554857D01*
X174906331Y-97554857D02*
X174877760Y-97640571D01*
X174877760Y-97640571D02*
X174820617Y-97697714D01*
X174820617Y-97697714D02*
X174763474Y-97726285D01*
X174763474Y-97726285D02*
X174649188Y-97754857D01*
X174649188Y-97754857D02*
X174563474Y-97754857D01*
X174563474Y-97754857D02*
X174449188Y-97726285D01*
X174449188Y-97726285D02*
X174392045Y-97697714D01*
X174392045Y-97697714D02*
X174334902Y-97640571D01*
X174334902Y-97640571D02*
X174306331Y-97554857D01*
X174306331Y-97554857D02*
X174306331Y-97497714D01*
X174306331Y-97497714D02*
X174334902Y-97412000D01*
X174334902Y-97412000D02*
X174363474Y-97383428D01*
X174363474Y-97154857D02*
X174334902Y-97126285D01*
X174334902Y-97126285D02*
X174306331Y-97069143D01*
X174306331Y-97069143D02*
X174306331Y-96926285D01*
X174306331Y-96926285D02*
X174334902Y-96869143D01*
X174334902Y-96869143D02*
X174363474Y-96840571D01*
X174363474Y-96840571D02*
X174420617Y-96812000D01*
X174420617Y-96812000D02*
X174477760Y-96812000D01*
X174477760Y-96812000D02*
X174563474Y-96840571D01*
X174563474Y-96840571D02*
X174906331Y-97183428D01*
X174906331Y-97183428D02*
X174906331Y-96812000D01*
X174306331Y-96440571D02*
X174306331Y-96383428D01*
X174306331Y-96383428D02*
X174334902Y-96326285D01*
X174334902Y-96326285D02*
X174363474Y-96297714D01*
X174363474Y-96297714D02*
X174420617Y-96269142D01*
X174420617Y-96269142D02*
X174534902Y-96240571D01*
X174534902Y-96240571D02*
X174677760Y-96240571D01*
X174677760Y-96240571D02*
X174792045Y-96269142D01*
X174792045Y-96269142D02*
X174849188Y-96297714D01*
X174849188Y-96297714D02*
X174877760Y-96326285D01*
X174877760Y-96326285D02*
X174906331Y-96383428D01*
X174906331Y-96383428D02*
X174906331Y-96440571D01*
X174906331Y-96440571D02*
X174877760Y-96497714D01*
X174877760Y-96497714D02*
X174849188Y-96526285D01*
X174849188Y-96526285D02*
X174792045Y-96554856D01*
X174792045Y-96554856D02*
X174677760Y-96583428D01*
X174677760Y-96583428D02*
X174534902Y-96583428D01*
X174534902Y-96583428D02*
X174420617Y-96554856D01*
X174420617Y-96554856D02*
X174363474Y-96526285D01*
X174363474Y-96526285D02*
X174334902Y-96497714D01*
X174334902Y-96497714D02*
X174306331Y-96440571D01*
X174306331Y-96040570D02*
X174306331Y-95669142D01*
X174306331Y-95669142D02*
X174534902Y-95869142D01*
X174534902Y-95869142D02*
X174534902Y-95783427D01*
X174534902Y-95783427D02*
X174563474Y-95726285D01*
X174563474Y-95726285D02*
X174592045Y-95697713D01*
X174592045Y-95697713D02*
X174649188Y-95669142D01*
X174649188Y-95669142D02*
X174792045Y-95669142D01*
X174792045Y-95669142D02*
X174849188Y-95697713D01*
X174849188Y-95697713D02*
X174877760Y-95726285D01*
X174877760Y-95726285D02*
X174906331Y-95783427D01*
X174906331Y-95783427D02*
X174906331Y-95954856D01*
X174906331Y-95954856D02*
X174877760Y-96011999D01*
X174877760Y-96011999D02*
X174849188Y-96040570D01*
X163139570Y-66346331D02*
X163139570Y-66774902D01*
X163139570Y-66774902D02*
X163110999Y-66860617D01*
X163110999Y-66860617D02*
X163053856Y-66917760D01*
X163053856Y-66917760D02*
X162968142Y-66946331D01*
X162968142Y-66946331D02*
X162910999Y-66946331D01*
X163425285Y-66946331D02*
X163425285Y-66346331D01*
X163425285Y-66346331D02*
X163653856Y-66346331D01*
X163653856Y-66346331D02*
X163710999Y-66374902D01*
X163710999Y-66374902D02*
X163739570Y-66403474D01*
X163739570Y-66403474D02*
X163768142Y-66460617D01*
X163768142Y-66460617D02*
X163768142Y-66546331D01*
X163768142Y-66546331D02*
X163739570Y-66603474D01*
X163739570Y-66603474D02*
X163710999Y-66632045D01*
X163710999Y-66632045D02*
X163653856Y-66660617D01*
X163653856Y-66660617D02*
X163425285Y-66660617D01*
X164282428Y-66546331D02*
X164282428Y-66946331D01*
X164139570Y-66317760D02*
X163996713Y-66746331D01*
X163996713Y-66746331D02*
X164368142Y-66746331D01*
X164710999Y-66346331D02*
X164768142Y-66346331D01*
X164768142Y-66346331D02*
X164825285Y-66374902D01*
X164825285Y-66374902D02*
X164853857Y-66403474D01*
X164853857Y-66403474D02*
X164882428Y-66460617D01*
X164882428Y-66460617D02*
X164910999Y-66574902D01*
X164910999Y-66574902D02*
X164910999Y-66717760D01*
X164910999Y-66717760D02*
X164882428Y-66832045D01*
X164882428Y-66832045D02*
X164853857Y-66889188D01*
X164853857Y-66889188D02*
X164825285Y-66917760D01*
X164825285Y-66917760D02*
X164768142Y-66946331D01*
X164768142Y-66946331D02*
X164710999Y-66946331D01*
X164710999Y-66946331D02*
X164653857Y-66917760D01*
X164653857Y-66917760D02*
X164625285Y-66889188D01*
X164625285Y-66889188D02*
X164596714Y-66832045D01*
X164596714Y-66832045D02*
X164568142Y-66717760D01*
X164568142Y-66717760D02*
X164568142Y-66574902D01*
X164568142Y-66574902D02*
X164596714Y-66460617D01*
X164596714Y-66460617D02*
X164625285Y-66403474D01*
X164625285Y-66403474D02*
X164653857Y-66374902D01*
X164653857Y-66374902D02*
X164710999Y-66346331D01*
X165482428Y-66946331D02*
X165139571Y-66946331D01*
X165311000Y-66946331D02*
X165311000Y-66346331D01*
X165311000Y-66346331D02*
X165253857Y-66432045D01*
X165253857Y-66432045D02*
X165196714Y-66489188D01*
X165196714Y-66489188D02*
X165139571Y-66517760D01*
X149531331Y-69227571D02*
X150017045Y-69227571D01*
X150017045Y-69227571D02*
X150074188Y-69199000D01*
X150074188Y-69199000D02*
X150102760Y-69170429D01*
X150102760Y-69170429D02*
X150131331Y-69113286D01*
X150131331Y-69113286D02*
X150131331Y-68999000D01*
X150131331Y-68999000D02*
X150102760Y-68941857D01*
X150102760Y-68941857D02*
X150074188Y-68913286D01*
X150074188Y-68913286D02*
X150017045Y-68884714D01*
X150017045Y-68884714D02*
X149531331Y-68884714D01*
X149731331Y-68341858D02*
X150131331Y-68341858D01*
X149502760Y-68484715D02*
X149931331Y-68627572D01*
X149931331Y-68627572D02*
X149931331Y-68256143D01*
X149531331Y-67913286D02*
X149531331Y-67856143D01*
X149531331Y-67856143D02*
X149559902Y-67799000D01*
X149559902Y-67799000D02*
X149588474Y-67770429D01*
X149588474Y-67770429D02*
X149645617Y-67741857D01*
X149645617Y-67741857D02*
X149759902Y-67713286D01*
X149759902Y-67713286D02*
X149902760Y-67713286D01*
X149902760Y-67713286D02*
X150017045Y-67741857D01*
X150017045Y-67741857D02*
X150074188Y-67770429D01*
X150074188Y-67770429D02*
X150102760Y-67799000D01*
X150102760Y-67799000D02*
X150131331Y-67856143D01*
X150131331Y-67856143D02*
X150131331Y-67913286D01*
X150131331Y-67913286D02*
X150102760Y-67970429D01*
X150102760Y-67970429D02*
X150074188Y-67999000D01*
X150074188Y-67999000D02*
X150017045Y-68027571D01*
X150017045Y-68027571D02*
X149902760Y-68056143D01*
X149902760Y-68056143D02*
X149759902Y-68056143D01*
X149759902Y-68056143D02*
X149645617Y-68027571D01*
X149645617Y-68027571D02*
X149588474Y-67999000D01*
X149588474Y-67999000D02*
X149559902Y-67970429D01*
X149559902Y-67970429D02*
X149531331Y-67913286D01*
X150131331Y-67141857D02*
X150131331Y-67484714D01*
X150131331Y-67313285D02*
X149531331Y-67313285D01*
X149531331Y-67313285D02*
X149617045Y-67370428D01*
X149617045Y-67370428D02*
X149674188Y-67427571D01*
X149674188Y-67427571D02*
X149702760Y-67484714D01*
X161342331Y-70497571D02*
X161828045Y-70497571D01*
X161828045Y-70497571D02*
X161885188Y-70469000D01*
X161885188Y-70469000D02*
X161913760Y-70440429D01*
X161913760Y-70440429D02*
X161942331Y-70383286D01*
X161942331Y-70383286D02*
X161942331Y-70269000D01*
X161942331Y-70269000D02*
X161913760Y-70211857D01*
X161913760Y-70211857D02*
X161885188Y-70183286D01*
X161885188Y-70183286D02*
X161828045Y-70154714D01*
X161828045Y-70154714D02*
X161342331Y-70154714D01*
X161542331Y-69611858D02*
X161942331Y-69611858D01*
X161313760Y-69754715D02*
X161742331Y-69897572D01*
X161742331Y-69897572D02*
X161742331Y-69526143D01*
X161342331Y-69183286D02*
X161342331Y-69126143D01*
X161342331Y-69126143D02*
X161370902Y-69069000D01*
X161370902Y-69069000D02*
X161399474Y-69040429D01*
X161399474Y-69040429D02*
X161456617Y-69011857D01*
X161456617Y-69011857D02*
X161570902Y-68983286D01*
X161570902Y-68983286D02*
X161713760Y-68983286D01*
X161713760Y-68983286D02*
X161828045Y-69011857D01*
X161828045Y-69011857D02*
X161885188Y-69040429D01*
X161885188Y-69040429D02*
X161913760Y-69069000D01*
X161913760Y-69069000D02*
X161942331Y-69126143D01*
X161942331Y-69126143D02*
X161942331Y-69183286D01*
X161942331Y-69183286D02*
X161913760Y-69240429D01*
X161913760Y-69240429D02*
X161885188Y-69269000D01*
X161885188Y-69269000D02*
X161828045Y-69297571D01*
X161828045Y-69297571D02*
X161713760Y-69326143D01*
X161713760Y-69326143D02*
X161570902Y-69326143D01*
X161570902Y-69326143D02*
X161456617Y-69297571D01*
X161456617Y-69297571D02*
X161399474Y-69269000D01*
X161399474Y-69269000D02*
X161370902Y-69240429D01*
X161370902Y-69240429D02*
X161342331Y-69183286D01*
X161399474Y-68754714D02*
X161370902Y-68726142D01*
X161370902Y-68726142D02*
X161342331Y-68669000D01*
X161342331Y-68669000D02*
X161342331Y-68526142D01*
X161342331Y-68526142D02*
X161370902Y-68469000D01*
X161370902Y-68469000D02*
X161399474Y-68440428D01*
X161399474Y-68440428D02*
X161456617Y-68411857D01*
X161456617Y-68411857D02*
X161513760Y-68411857D01*
X161513760Y-68411857D02*
X161599474Y-68440428D01*
X161599474Y-68440428D02*
X161942331Y-68783285D01*
X161942331Y-68783285D02*
X161942331Y-68411857D01*
X167603571Y-99872331D02*
X167403571Y-99586617D01*
X167260714Y-99872331D02*
X167260714Y-99272331D01*
X167260714Y-99272331D02*
X167489285Y-99272331D01*
X167489285Y-99272331D02*
X167546428Y-99300902D01*
X167546428Y-99300902D02*
X167574999Y-99329474D01*
X167574999Y-99329474D02*
X167603571Y-99386617D01*
X167603571Y-99386617D02*
X167603571Y-99472331D01*
X167603571Y-99472331D02*
X167574999Y-99529474D01*
X167574999Y-99529474D02*
X167546428Y-99558045D01*
X167546428Y-99558045D02*
X167489285Y-99586617D01*
X167489285Y-99586617D02*
X167260714Y-99586617D01*
X167832142Y-99329474D02*
X167860714Y-99300902D01*
X167860714Y-99300902D02*
X167917857Y-99272331D01*
X167917857Y-99272331D02*
X168060714Y-99272331D01*
X168060714Y-99272331D02*
X168117857Y-99300902D01*
X168117857Y-99300902D02*
X168146428Y-99329474D01*
X168146428Y-99329474D02*
X168174999Y-99386617D01*
X168174999Y-99386617D02*
X168174999Y-99443760D01*
X168174999Y-99443760D02*
X168146428Y-99529474D01*
X168146428Y-99529474D02*
X167803571Y-99872331D01*
X167803571Y-99872331D02*
X168174999Y-99872331D01*
X168546428Y-99272331D02*
X168603571Y-99272331D01*
X168603571Y-99272331D02*
X168660714Y-99300902D01*
X168660714Y-99300902D02*
X168689286Y-99329474D01*
X168689286Y-99329474D02*
X168717857Y-99386617D01*
X168717857Y-99386617D02*
X168746428Y-99500902D01*
X168746428Y-99500902D02*
X168746428Y-99643760D01*
X168746428Y-99643760D02*
X168717857Y-99758045D01*
X168717857Y-99758045D02*
X168689286Y-99815188D01*
X168689286Y-99815188D02*
X168660714Y-99843760D01*
X168660714Y-99843760D02*
X168603571Y-99872331D01*
X168603571Y-99872331D02*
X168546428Y-99872331D01*
X168546428Y-99872331D02*
X168489286Y-99843760D01*
X168489286Y-99843760D02*
X168460714Y-99815188D01*
X168460714Y-99815188D02*
X168432143Y-99758045D01*
X168432143Y-99758045D02*
X168403571Y-99643760D01*
X168403571Y-99643760D02*
X168403571Y-99500902D01*
X168403571Y-99500902D02*
X168432143Y-99386617D01*
X168432143Y-99386617D02*
X168460714Y-99329474D01*
X168460714Y-99329474D02*
X168489286Y-99300902D01*
X168489286Y-99300902D02*
X168546428Y-99272331D01*
X169260715Y-99472331D02*
X169260715Y-99872331D01*
X169117857Y-99243760D02*
X168975000Y-99672331D01*
X168975000Y-99672331D02*
X169346429Y-99672331D01*
X152798331Y-72426428D02*
X152512617Y-72626428D01*
X152798331Y-72769285D02*
X152198331Y-72769285D01*
X152198331Y-72769285D02*
X152198331Y-72540714D01*
X152198331Y-72540714D02*
X152226902Y-72483571D01*
X152226902Y-72483571D02*
X152255474Y-72455000D01*
X152255474Y-72455000D02*
X152312617Y-72426428D01*
X152312617Y-72426428D02*
X152398331Y-72426428D01*
X152398331Y-72426428D02*
X152455474Y-72455000D01*
X152455474Y-72455000D02*
X152484045Y-72483571D01*
X152484045Y-72483571D02*
X152512617Y-72540714D01*
X152512617Y-72540714D02*
X152512617Y-72769285D01*
X152398331Y-71912143D02*
X152798331Y-71912143D01*
X152169760Y-72055000D02*
X152598331Y-72197857D01*
X152598331Y-72197857D02*
X152598331Y-71826428D01*
X152198331Y-71483571D02*
X152198331Y-71426428D01*
X152198331Y-71426428D02*
X152226902Y-71369285D01*
X152226902Y-71369285D02*
X152255474Y-71340714D01*
X152255474Y-71340714D02*
X152312617Y-71312142D01*
X152312617Y-71312142D02*
X152426902Y-71283571D01*
X152426902Y-71283571D02*
X152569760Y-71283571D01*
X152569760Y-71283571D02*
X152684045Y-71312142D01*
X152684045Y-71312142D02*
X152741188Y-71340714D01*
X152741188Y-71340714D02*
X152769760Y-71369285D01*
X152769760Y-71369285D02*
X152798331Y-71426428D01*
X152798331Y-71426428D02*
X152798331Y-71483571D01*
X152798331Y-71483571D02*
X152769760Y-71540714D01*
X152769760Y-71540714D02*
X152741188Y-71569285D01*
X152741188Y-71569285D02*
X152684045Y-71597856D01*
X152684045Y-71597856D02*
X152569760Y-71626428D01*
X152569760Y-71626428D02*
X152426902Y-71626428D01*
X152426902Y-71626428D02*
X152312617Y-71597856D01*
X152312617Y-71597856D02*
X152255474Y-71569285D01*
X152255474Y-71569285D02*
X152226902Y-71540714D01*
X152226902Y-71540714D02*
X152198331Y-71483571D01*
X152198331Y-70769285D02*
X152198331Y-70883570D01*
X152198331Y-70883570D02*
X152226902Y-70940713D01*
X152226902Y-70940713D02*
X152255474Y-70969285D01*
X152255474Y-70969285D02*
X152341188Y-71026427D01*
X152341188Y-71026427D02*
X152455474Y-71054999D01*
X152455474Y-71054999D02*
X152684045Y-71054999D01*
X152684045Y-71054999D02*
X152741188Y-71026427D01*
X152741188Y-71026427D02*
X152769760Y-70997856D01*
X152769760Y-70997856D02*
X152798331Y-70940713D01*
X152798331Y-70940713D02*
X152798331Y-70826427D01*
X152798331Y-70826427D02*
X152769760Y-70769285D01*
X152769760Y-70769285D02*
X152741188Y-70740713D01*
X152741188Y-70740713D02*
X152684045Y-70712142D01*
X152684045Y-70712142D02*
X152541188Y-70712142D01*
X152541188Y-70712142D02*
X152484045Y-70740713D01*
X152484045Y-70740713D02*
X152455474Y-70769285D01*
X152455474Y-70769285D02*
X152426902Y-70826427D01*
X152426902Y-70826427D02*
X152426902Y-70940713D01*
X152426902Y-70940713D02*
X152455474Y-70997856D01*
X152455474Y-70997856D02*
X152484045Y-71026427D01*
X152484045Y-71026427D02*
X152541188Y-71054999D01*
X166587572Y-91781187D02*
X166559000Y-91809759D01*
X166559000Y-91809759D02*
X166473286Y-91838330D01*
X166473286Y-91838330D02*
X166416143Y-91838330D01*
X166416143Y-91838330D02*
X166330429Y-91809759D01*
X166330429Y-91809759D02*
X166273286Y-91752616D01*
X166273286Y-91752616D02*
X166244715Y-91695473D01*
X166244715Y-91695473D02*
X166216143Y-91581187D01*
X166216143Y-91581187D02*
X166216143Y-91495473D01*
X166216143Y-91495473D02*
X166244715Y-91381187D01*
X166244715Y-91381187D02*
X166273286Y-91324044D01*
X166273286Y-91324044D02*
X166330429Y-91266901D01*
X166330429Y-91266901D02*
X166416143Y-91238330D01*
X166416143Y-91238330D02*
X166473286Y-91238330D01*
X166473286Y-91238330D02*
X166559000Y-91266901D01*
X166559000Y-91266901D02*
X166587572Y-91295473D01*
X166816143Y-91295473D02*
X166844715Y-91266901D01*
X166844715Y-91266901D02*
X166901858Y-91238330D01*
X166901858Y-91238330D02*
X167044715Y-91238330D01*
X167044715Y-91238330D02*
X167101858Y-91266901D01*
X167101858Y-91266901D02*
X167130429Y-91295473D01*
X167130429Y-91295473D02*
X167159000Y-91352616D01*
X167159000Y-91352616D02*
X167159000Y-91409759D01*
X167159000Y-91409759D02*
X167130429Y-91495473D01*
X167130429Y-91495473D02*
X166787572Y-91838330D01*
X166787572Y-91838330D02*
X167159000Y-91838330D01*
X167530429Y-91238330D02*
X167587572Y-91238330D01*
X167587572Y-91238330D02*
X167644715Y-91266901D01*
X167644715Y-91266901D02*
X167673287Y-91295473D01*
X167673287Y-91295473D02*
X167701858Y-91352616D01*
X167701858Y-91352616D02*
X167730429Y-91466901D01*
X167730429Y-91466901D02*
X167730429Y-91609759D01*
X167730429Y-91609759D02*
X167701858Y-91724044D01*
X167701858Y-91724044D02*
X167673287Y-91781187D01*
X167673287Y-91781187D02*
X167644715Y-91809759D01*
X167644715Y-91809759D02*
X167587572Y-91838330D01*
X167587572Y-91838330D02*
X167530429Y-91838330D01*
X167530429Y-91838330D02*
X167473287Y-91809759D01*
X167473287Y-91809759D02*
X167444715Y-91781187D01*
X167444715Y-91781187D02*
X167416144Y-91724044D01*
X167416144Y-91724044D02*
X167387572Y-91609759D01*
X167387572Y-91609759D02*
X167387572Y-91466901D01*
X167387572Y-91466901D02*
X167416144Y-91352616D01*
X167416144Y-91352616D02*
X167444715Y-91295473D01*
X167444715Y-91295473D02*
X167473287Y-91266901D01*
X167473287Y-91266901D02*
X167530429Y-91238330D01*
X168273287Y-91238330D02*
X167987573Y-91238330D01*
X167987573Y-91238330D02*
X167959001Y-91524044D01*
X167959001Y-91524044D02*
X167987573Y-91495473D01*
X167987573Y-91495473D02*
X168044716Y-91466901D01*
X168044716Y-91466901D02*
X168187573Y-91466901D01*
X168187573Y-91466901D02*
X168244716Y-91495473D01*
X168244716Y-91495473D02*
X168273287Y-91524044D01*
X168273287Y-91524044D02*
X168301858Y-91581187D01*
X168301858Y-91581187D02*
X168301858Y-91724044D01*
X168301858Y-91724044D02*
X168273287Y-91781187D01*
X168273287Y-91781187D02*
X168244716Y-91809759D01*
X168244716Y-91809759D02*
X168187573Y-91838330D01*
X168187573Y-91838330D02*
X168044716Y-91838330D01*
X168044716Y-91838330D02*
X167987573Y-91809759D01*
X167987573Y-91809759D02*
X167959001Y-91781187D01*
X136234571Y-84218331D02*
X136034571Y-83932617D01*
X135891714Y-84218331D02*
X135891714Y-83618331D01*
X135891714Y-83618331D02*
X136120285Y-83618331D01*
X136120285Y-83618331D02*
X136177428Y-83646902D01*
X136177428Y-83646902D02*
X136205999Y-83675474D01*
X136205999Y-83675474D02*
X136234571Y-83732617D01*
X136234571Y-83732617D02*
X136234571Y-83818331D01*
X136234571Y-83818331D02*
X136205999Y-83875474D01*
X136205999Y-83875474D02*
X136177428Y-83904045D01*
X136177428Y-83904045D02*
X136120285Y-83932617D01*
X136120285Y-83932617D02*
X135891714Y-83932617D01*
X136777428Y-83618331D02*
X136491714Y-83618331D01*
X136491714Y-83618331D02*
X136463142Y-83904045D01*
X136463142Y-83904045D02*
X136491714Y-83875474D01*
X136491714Y-83875474D02*
X136548857Y-83846902D01*
X136548857Y-83846902D02*
X136691714Y-83846902D01*
X136691714Y-83846902D02*
X136748857Y-83875474D01*
X136748857Y-83875474D02*
X136777428Y-83904045D01*
X136777428Y-83904045D02*
X136805999Y-83961188D01*
X136805999Y-83961188D02*
X136805999Y-84104045D01*
X136805999Y-84104045D02*
X136777428Y-84161188D01*
X136777428Y-84161188D02*
X136748857Y-84189760D01*
X136748857Y-84189760D02*
X136691714Y-84218331D01*
X136691714Y-84218331D02*
X136548857Y-84218331D01*
X136548857Y-84218331D02*
X136491714Y-84189760D01*
X136491714Y-84189760D02*
X136463142Y-84161188D01*
X137377428Y-84218331D02*
X137034571Y-84218331D01*
X137206000Y-84218331D02*
X137206000Y-83618331D01*
X137206000Y-83618331D02*
X137148857Y-83704045D01*
X137148857Y-83704045D02*
X137091714Y-83761188D01*
X137091714Y-83761188D02*
X137034571Y-83789760D01*
X137948857Y-84218331D02*
X137606000Y-84218331D01*
X137777429Y-84218331D02*
X137777429Y-83618331D01*
X137777429Y-83618331D02*
X137720286Y-83704045D01*
X137720286Y-83704045D02*
X137663143Y-83761188D01*
X137663143Y-83761188D02*
X137606000Y-83789760D01*
X141114331Y-69632428D02*
X140828617Y-69832428D01*
X141114331Y-69975285D02*
X140514331Y-69975285D01*
X140514331Y-69975285D02*
X140514331Y-69746714D01*
X140514331Y-69746714D02*
X140542902Y-69689571D01*
X140542902Y-69689571D02*
X140571474Y-69661000D01*
X140571474Y-69661000D02*
X140628617Y-69632428D01*
X140628617Y-69632428D02*
X140714331Y-69632428D01*
X140714331Y-69632428D02*
X140771474Y-69661000D01*
X140771474Y-69661000D02*
X140800045Y-69689571D01*
X140800045Y-69689571D02*
X140828617Y-69746714D01*
X140828617Y-69746714D02*
X140828617Y-69975285D01*
X140514331Y-69089571D02*
X140514331Y-69375285D01*
X140514331Y-69375285D02*
X140800045Y-69403857D01*
X140800045Y-69403857D02*
X140771474Y-69375285D01*
X140771474Y-69375285D02*
X140742902Y-69318143D01*
X140742902Y-69318143D02*
X140742902Y-69175285D01*
X140742902Y-69175285D02*
X140771474Y-69118143D01*
X140771474Y-69118143D02*
X140800045Y-69089571D01*
X140800045Y-69089571D02*
X140857188Y-69061000D01*
X140857188Y-69061000D02*
X141000045Y-69061000D01*
X141000045Y-69061000D02*
X141057188Y-69089571D01*
X141057188Y-69089571D02*
X141085760Y-69118143D01*
X141085760Y-69118143D02*
X141114331Y-69175285D01*
X141114331Y-69175285D02*
X141114331Y-69318143D01*
X141114331Y-69318143D02*
X141085760Y-69375285D01*
X141085760Y-69375285D02*
X141057188Y-69403857D01*
X141114331Y-68489571D02*
X141114331Y-68832428D01*
X141114331Y-68660999D02*
X140514331Y-68660999D01*
X140514331Y-68660999D02*
X140600045Y-68718142D01*
X140600045Y-68718142D02*
X140657188Y-68775285D01*
X140657188Y-68775285D02*
X140685760Y-68832428D01*
X140514331Y-67975285D02*
X140514331Y-68089570D01*
X140514331Y-68089570D02*
X140542902Y-68146713D01*
X140542902Y-68146713D02*
X140571474Y-68175285D01*
X140571474Y-68175285D02*
X140657188Y-68232427D01*
X140657188Y-68232427D02*
X140771474Y-68260999D01*
X140771474Y-68260999D02*
X141000045Y-68260999D01*
X141000045Y-68260999D02*
X141057188Y-68232427D01*
X141057188Y-68232427D02*
X141085760Y-68203856D01*
X141085760Y-68203856D02*
X141114331Y-68146713D01*
X141114331Y-68146713D02*
X141114331Y-68032427D01*
X141114331Y-68032427D02*
X141085760Y-67975285D01*
X141085760Y-67975285D02*
X141057188Y-67946713D01*
X141057188Y-67946713D02*
X141000045Y-67918142D01*
X141000045Y-67918142D02*
X140857188Y-67918142D01*
X140857188Y-67918142D02*
X140800045Y-67946713D01*
X140800045Y-67946713D02*
X140771474Y-67975285D01*
X140771474Y-67975285D02*
X140742902Y-68032427D01*
X140742902Y-68032427D02*
X140742902Y-68146713D01*
X140742902Y-68146713D02*
X140771474Y-68203856D01*
X140771474Y-68203856D02*
X140800045Y-68232427D01*
X140800045Y-68232427D02*
X140857188Y-68260999D01*
X179819428Y-84888331D02*
X179819428Y-85374045D01*
X179819428Y-85374045D02*
X179847999Y-85431188D01*
X179847999Y-85431188D02*
X179876571Y-85459760D01*
X179876571Y-85459760D02*
X179933713Y-85488331D01*
X179933713Y-85488331D02*
X180047999Y-85488331D01*
X180047999Y-85488331D02*
X180105142Y-85459760D01*
X180105142Y-85459760D02*
X180133713Y-85431188D01*
X180133713Y-85431188D02*
X180162285Y-85374045D01*
X180162285Y-85374045D02*
X180162285Y-84888331D01*
X180419427Y-84945474D02*
X180447999Y-84916902D01*
X180447999Y-84916902D02*
X180505142Y-84888331D01*
X180505142Y-84888331D02*
X180647999Y-84888331D01*
X180647999Y-84888331D02*
X180705142Y-84916902D01*
X180705142Y-84916902D02*
X180733713Y-84945474D01*
X180733713Y-84945474D02*
X180762284Y-85002617D01*
X180762284Y-85002617D02*
X180762284Y-85059760D01*
X180762284Y-85059760D02*
X180733713Y-85145474D01*
X180733713Y-85145474D02*
X180390856Y-85488331D01*
X180390856Y-85488331D02*
X180762284Y-85488331D01*
X181133713Y-84888331D02*
X181190856Y-84888331D01*
X181190856Y-84888331D02*
X181247999Y-84916902D01*
X181247999Y-84916902D02*
X181276571Y-84945474D01*
X181276571Y-84945474D02*
X181305142Y-85002617D01*
X181305142Y-85002617D02*
X181333713Y-85116902D01*
X181333713Y-85116902D02*
X181333713Y-85259760D01*
X181333713Y-85259760D02*
X181305142Y-85374045D01*
X181305142Y-85374045D02*
X181276571Y-85431188D01*
X181276571Y-85431188D02*
X181247999Y-85459760D01*
X181247999Y-85459760D02*
X181190856Y-85488331D01*
X181190856Y-85488331D02*
X181133713Y-85488331D01*
X181133713Y-85488331D02*
X181076571Y-85459760D01*
X181076571Y-85459760D02*
X181047999Y-85431188D01*
X181047999Y-85431188D02*
X181019428Y-85374045D01*
X181019428Y-85374045D02*
X180990856Y-85259760D01*
X180990856Y-85259760D02*
X180990856Y-85116902D01*
X180990856Y-85116902D02*
X181019428Y-85002617D01*
X181019428Y-85002617D02*
X181047999Y-84945474D01*
X181047999Y-84945474D02*
X181076571Y-84916902D01*
X181076571Y-84916902D02*
X181133713Y-84888331D01*
X181905142Y-85488331D02*
X181562285Y-85488331D01*
X181733714Y-85488331D02*
X181733714Y-84888331D01*
X181733714Y-84888331D02*
X181676571Y-84974045D01*
X181676571Y-84974045D02*
X181619428Y-85031188D01*
X181619428Y-85031188D02*
X181562285Y-85059760D01*
G04 #@! TO.C,RN502*
X133858000Y-88864000D02*
X133208000Y-88864000D01*
X133858000Y-88864000D02*
X134508000Y-88864000D01*
X133858000Y-91984000D02*
X133208000Y-91984000D01*
X133858000Y-91984000D02*
X134508000Y-91984000D01*
X132695500Y-88914000D02*
X132455500Y-88584000D01*
X132935500Y-88584000D01*
X132695500Y-88914000D01*
G36*
X132695500Y-88914000D02*
G01*
X132455500Y-88584000D01*
X132935500Y-88584000D01*
X132695500Y-88914000D01*
G37*
G04 #@! TO.C,U503*
X137346000Y-78994000D02*
X137346000Y-76794000D01*
X137346000Y-78994000D02*
X137346000Y-81194000D01*
X142816000Y-78994000D02*
X142816000Y-76794000D01*
X142816000Y-78994000D02*
X142816000Y-81194000D01*
X138046000Y-83184000D02*
X137566000Y-83184000D01*
X137806000Y-82854000D01*
X138046000Y-83184000D01*
G36*
X138046000Y-83184000D02*
G01*
X137566000Y-83184000D01*
X137806000Y-82854000D01*
X138046000Y-83184000D01*
G37*
G04 #@! TO.C,J201*
X189608000Y-85745000D02*
X199529000Y-85745000D01*
X189608000Y-95865000D02*
X189608000Y-85745000D01*
X189608000Y-95865000D02*
X199529000Y-95865000D01*
X192568000Y-95865000D02*
X192568000Y-85745000D01*
X193594000Y-87235000D02*
X193630000Y-87270000D01*
X193800000Y-87030000D02*
X193846000Y-87077000D01*
X195892000Y-89532000D02*
X195938000Y-89579000D01*
X196108000Y-89339000D02*
X196143000Y-89374000D01*
X197469000Y-95865000D02*
X197469000Y-85745000D01*
X198969000Y-95865000D02*
X198969000Y-85745000D01*
X199029000Y-96105000D02*
X199769000Y-96105000D01*
X199529000Y-95865000D02*
X199529000Y-85745000D01*
X199769000Y-96105000D02*
X199769000Y-95605000D01*
X193333574Y-93988042D02*
G75*
G02*
X193334001Y-92621001I1535419J683041D01*
G01*
X194185958Y-91769574D02*
G75*
G02*
X195553000Y-91770000I683042J-1535426D01*
G01*
X195552042Y-94840426D02*
G75*
G02*
X194185001Y-94839999I-683041J1535419D01*
G01*
X196403755Y-92621682D02*
G75*
G02*
X196548999Y-93305000I-1534755J-683318D01*
G01*
X196549252Y-93276195D02*
G75*
G02*
X196403999Y-93989000I-1680253J-28806D01*
G01*
X196549000Y-88305000D02*
G75*
G02*
X193189000Y-88305000I-1680000J0D01*
G01*
X193189000Y-88305000D02*
G75*
G02*
X196549000Y-88305000I1680000J0D01*
G01*
G04 #@! TO.C,C512*
X139190000Y-68814733D02*
X139190000Y-69107267D01*
X140210000Y-68814733D02*
X140210000Y-69107267D01*
G04 #@! TO.C,FB301*
X170128000Y-82774758D02*
X170128000Y-83595242D01*
X171248000Y-82774758D02*
X171248000Y-83595242D01*
G04 #@! TO.C,D401*
X136930000Y-98893044D02*
X136930000Y-94443000D01*
X137730000Y-98893000D02*
X136930000Y-98893000D01*
X139930000Y-98343000D02*
X139930000Y-94443000D01*
G04 #@! TO.C,RN401*
X147124000Y-93491000D02*
X147124000Y-92691000D01*
X150564000Y-93491000D02*
X150564000Y-92691000D01*
G04 #@! TO.C,C204*
X166349000Y-93903748D02*
X166349000Y-95326252D01*
X168169000Y-93903748D02*
X168169000Y-95326252D01*
G04 #@! TO.C,J301*
X173985000Y-67863000D02*
X173985000Y-69928000D01*
X173985000Y-72468000D02*
X173985000Y-71288000D01*
X173985000Y-78318000D02*
X173985000Y-73828000D01*
X173985000Y-80858000D02*
X173985000Y-79678000D01*
X173985000Y-82218000D02*
X173985000Y-84283000D01*
X173985000Y-84283000D02*
X184175000Y-84283000D01*
X178705000Y-67628000D02*
X180705000Y-67628000D01*
X184175000Y-67863000D02*
X173985000Y-67863000D01*
X186915000Y-84283000D02*
X199505000Y-84283000D01*
X199505000Y-67863000D02*
X186915000Y-67863000D01*
X199505000Y-84283000D02*
X199505000Y-67863000D01*
G04 #@! TO.C,Q201*
X185003000Y-96012000D02*
X185003000Y-95362000D01*
X185003000Y-96012000D02*
X185003000Y-96662000D01*
X188123000Y-96012000D02*
X188123000Y-95362000D01*
X188123000Y-96012000D02*
X188123000Y-96662000D01*
X188403000Y-95089500D02*
X188073000Y-94849500D01*
X188403000Y-94609500D01*
X188403000Y-95089500D01*
G36*
X188403000Y-95089500D02*
G01*
X188073000Y-94849500D01*
X188403000Y-94609500D01*
X188403000Y-95089500D01*
G37*
G04 #@! TO.C,C504*
X128649000Y-86467733D02*
X128649000Y-86760267D01*
X129669000Y-86467733D02*
X129669000Y-86760267D01*
G04 #@! TO.C,C506*
X128298000Y-97903000D02*
X132683000Y-97903000D01*
X132683000Y-94883000D02*
X128298000Y-94883000D01*
X132683000Y-97903000D02*
X132683000Y-94883000D01*
G04 #@! TO.C,R310*
X164591276Y-78344500D02*
X165100724Y-78344500D01*
X164591276Y-79389500D02*
X165100724Y-79389500D01*
G04 #@! TO.C,U504*
X130536000Y-79629000D02*
X130536000Y-77679000D01*
X130536000Y-79629000D02*
X130536000Y-81579000D01*
X135656000Y-79629000D02*
X135656000Y-77679000D01*
X135656000Y-79629000D02*
X135656000Y-81579000D01*
X130631000Y-82329000D02*
X130301000Y-82569000D01*
X130301000Y-82089000D01*
X130631000Y-82329000D01*
G36*
X130631000Y-82329000D02*
G01*
X130301000Y-82569000D01*
X130301000Y-82089000D01*
X130631000Y-82329000D01*
G37*
G04 #@! TO.C,C303*
X164992267Y-72134000D02*
X164699733Y-72134000D01*
X164992267Y-73154000D02*
X164699733Y-73154000D01*
G04 #@! TO.C,Y301*
X167045000Y-67615000D02*
X167045000Y-67815000D01*
X167045000Y-70815000D02*
X167045000Y-70615000D01*
X172045000Y-67615000D02*
X167045000Y-67615000D01*
X172045000Y-67615000D02*
X172045000Y-67815000D01*
X172045000Y-70815000D02*
X167045000Y-70815000D01*
X172045000Y-70815000D02*
X172045000Y-70615000D01*
G04 #@! TO.C,J501*
D15*
X113670000Y-72500000D02*
X100170000Y-72500000D01*
X100170000Y-92500000D01*
X113670000Y-92500000D01*
X113670000Y-72500000D01*
D14*
G04 #@! TO.C,FB501*
X134060000Y-96803242D02*
X134060000Y-95982758D01*
X135180000Y-96803242D02*
X135180000Y-95982758D01*
G04 #@! TO.C,J401*
X144645000Y-98910000D02*
X144645000Y-97780000D01*
X144710000Y-95380000D02*
X151180000Y-95380000D01*
X144710000Y-96202470D02*
X144710000Y-95380000D01*
X144710000Y-97020000D02*
X144710000Y-96817530D01*
X144841529Y-97020000D02*
X144710000Y-97020000D01*
X145405000Y-98910000D02*
X144645000Y-98910000D01*
X146111529Y-97020000D02*
X145968471Y-97020000D01*
X146165000Y-97216529D02*
X146165000Y-97073471D01*
X146165000Y-98910000D02*
X146165000Y-98343471D01*
X146165000Y-98910000D02*
X151180000Y-98910000D01*
X151180000Y-96202470D02*
X151180000Y-95380000D01*
X151180000Y-97472470D02*
X151180000Y-96817530D01*
X151180000Y-98910000D02*
X151180000Y-98087530D01*
G04 #@! TO.C,R203*
X171958724Y-97648500D02*
X171449276Y-97648500D01*
X171958724Y-98693500D02*
X171449276Y-98693500D01*
G04 #@! TO.C,U403*
X145671000Y-75440000D02*
X146371000Y-75440000D01*
X145671000Y-76140000D02*
X145671000Y-75440000D01*
X145671000Y-88960000D02*
X145671000Y-89660000D01*
X145671000Y-89660000D02*
X146371000Y-89660000D01*
X159891000Y-75440000D02*
X159191000Y-75440000D01*
X159891000Y-76140000D02*
X159891000Y-75440000D01*
X159891000Y-88960000D02*
X159891000Y-89660000D01*
X159891000Y-89660000D02*
X159191000Y-89660000D01*
X159661000Y-75152500D02*
X159191000Y-74812500D01*
X159661000Y-74472500D01*
X159661000Y-75152500D01*
G36*
X159661000Y-75152500D02*
G01*
X159191000Y-74812500D01*
X159661000Y-74472500D01*
X159661000Y-75152500D01*
G37*
D10*
G04 #@! TO.C,U502*
X137381000Y-90519000D02*
X137381000Y-86519000D01*
X142781000Y-90519000D02*
X142781000Y-86519000D01*
D14*
X137381000Y-90869000D02*
X137051000Y-91109000D01*
X137051000Y-90629000D01*
X137381000Y-90869000D01*
G36*
X137381000Y-90869000D02*
G01*
X137051000Y-91109000D01*
X137051000Y-90629000D01*
X137381000Y-90869000D01*
G37*
G04 #@! TO.C,R408*
X155433500Y-71500276D02*
X155433500Y-72009724D01*
X156478500Y-71500276D02*
X156478500Y-72009724D01*
G04 #@! TO.C,D501*
X140843000Y-71338000D02*
X140193000Y-71338000D01*
X140843000Y-71338000D02*
X141493000Y-71338000D01*
X140843000Y-74458000D02*
X140193000Y-74458000D01*
X140843000Y-74458000D02*
X141493000Y-74458000D01*
X139680500Y-71388000D02*
X139440500Y-71058000D01*
X139920500Y-71058000D01*
X139680500Y-71388000D01*
G36*
X139680500Y-71388000D02*
G01*
X139440500Y-71058000D01*
X139920500Y-71058000D01*
X139680500Y-71388000D01*
G37*
G04 #@! TO.C,U301*
X167943000Y-73963000D02*
X168418000Y-73963000D01*
X167943000Y-74438000D02*
X167943000Y-73963000D01*
X167943000Y-77708000D02*
X167943000Y-78183000D01*
X167943000Y-78183000D02*
X168418000Y-78183000D01*
X171688000Y-73963000D02*
X171923000Y-73963000D01*
X172163000Y-74438000D02*
X172163000Y-74263000D01*
X172163000Y-77708000D02*
X172163000Y-78183000D01*
X172163000Y-78183000D02*
X171688000Y-78183000D01*
X172493000Y-74203000D02*
X172163000Y-73963000D01*
X172493000Y-73723000D01*
X172493000Y-74203000D01*
G36*
X172493000Y-74203000D02*
G01*
X172163000Y-73963000D01*
X172493000Y-73723000D01*
X172493000Y-74203000D01*
G37*
G04 #@! TO.C,R407*
X150734500Y-71500276D02*
X150734500Y-72009724D01*
X151779500Y-71500276D02*
X151779500Y-72009724D01*
G04 #@! TO.C,HS101*
D15*
X142981000Y-99150000D02*
X162581000Y-99150000D01*
X162581000Y-65950000D01*
X142981000Y-65950000D01*
X142981000Y-99150000D01*
G04 #@! TO.C,L201*
X169631000Y-86319000D02*
X170231000Y-86319000D01*
X169631000Y-90719000D02*
X169631000Y-86319000D01*
X170231000Y-90719000D02*
X169631000Y-90719000D01*
X173431000Y-86319000D02*
X174031000Y-86319000D01*
X174031000Y-86319000D02*
X174031000Y-90719000D01*
X174031000Y-90719000D02*
X173431000Y-90719000D01*
D14*
G04 #@! TO.C,R201*
X179055500Y-95757276D02*
X179055500Y-96266724D01*
X180100500Y-95757276D02*
X180100500Y-96266724D01*
D16*
G04 #@! TO.C,REF\u002A\u002A*
X108903000Y-68230000D02*
X112902952Y-61309972D01*
D12*
X109393000Y-68210000D02*
X109126678Y-67800736D01*
X112753000Y-61730000D02*
X113063000Y-61730000D01*
D16*
X112903000Y-61310000D02*
X116902952Y-68230028D01*
D12*
X116413000Y-68210000D02*
X116679319Y-67800734D01*
D16*
X116903000Y-68230000D02*
X108903000Y-68230000D01*
D17*
X113128000Y-63270000D02*
G75*
G02*
X112678000Y-63270000I-225000J0D01*
G01*
X112678000Y-63270000D02*
G75*
G02*
X113128000Y-63270000I225000J0D01*
G01*
D18*
X113028000Y-66270000D02*
G75*
G02*
X112778000Y-66270000I-125000J0D01*
G01*
X112778000Y-66270000D02*
G75*
G02*
X113028000Y-66270000I125000J0D01*
G01*
D19*
X113103000Y-67270000D02*
G75*
G02*
X112703000Y-67270000I-200000J0D01*
G01*
X112703000Y-67270000D02*
G75*
G02*
X113103000Y-67270000I200000J0D01*
G01*
D20*
G36*
X113153000Y-66270000D02*
G01*
X112653000Y-66270000D01*
X112453000Y-63270000D01*
X113353000Y-63270000D01*
X113153000Y-66270000D01*
G37*
D14*
G04 #@! TO.C,U202*
X171958000Y-92928000D02*
X171158000Y-92928000D01*
X171958000Y-92928000D02*
X172758000Y-92928000D01*
X171958000Y-96048000D02*
X171158000Y-96048000D01*
X171958000Y-96048000D02*
X172758000Y-96048000D01*
X173498000Y-96328000D02*
X173018000Y-96328000D01*
X173258000Y-95998000D01*
X173498000Y-96328000D01*
G36*
X173498000Y-96328000D02*
G01*
X173018000Y-96328000D01*
X173258000Y-95998000D01*
X173498000Y-96328000D01*
G37*
D15*
G04 #@! TO.C,U501*
X115550000Y-80300000D02*
X115550000Y-84700000D01*
X115550000Y-84700000D02*
X117550000Y-84700000D01*
X117550000Y-77375000D02*
X117550000Y-80300000D01*
X117550000Y-80300000D02*
X115550000Y-80300000D01*
X117550000Y-84700000D02*
X117550000Y-87625000D01*
X117550000Y-87625000D02*
X125050000Y-87625000D01*
X125050000Y-77375000D02*
X117550000Y-77375000D01*
X125050000Y-87625000D02*
X125050000Y-77375000D01*
D14*
G04 #@! TO.C,Q202*
X181447000Y-96012000D02*
X181447000Y-95362000D01*
X181447000Y-96012000D02*
X181447000Y-96662000D01*
X184567000Y-96012000D02*
X184567000Y-95362000D01*
X184567000Y-96012000D02*
X184567000Y-96662000D01*
X181497000Y-97174500D02*
X181167000Y-97414500D01*
X181167000Y-96934500D01*
X181497000Y-97174500D01*
G36*
X181497000Y-97174500D02*
G01*
X181167000Y-97414500D01*
X181167000Y-96934500D01*
X181497000Y-97174500D01*
G37*
G04 #@! TO.C,R501*
X136637500Y-73152724D02*
X136637500Y-72643276D01*
X137682500Y-73152724D02*
X137682500Y-72643276D01*
G04 #@! TO.C,RN501*
X133858000Y-84165000D02*
X133208000Y-84165000D01*
X133858000Y-84165000D02*
X134508000Y-84165000D01*
X133858000Y-87285000D02*
X133208000Y-87285000D01*
X133858000Y-87285000D02*
X134508000Y-87285000D01*
X132695500Y-84215000D02*
X132455500Y-83885000D01*
X132935500Y-83885000D01*
X132695500Y-84215000D01*
G36*
X132695500Y-84215000D02*
G01*
X132455500Y-83885000D01*
X132935500Y-83885000D01*
X132695500Y-84215000D01*
G37*
G04 #@! TO.C,RN302*
X165246000Y-74353000D02*
X164446000Y-74353000D01*
X165246000Y-77793000D02*
X164446000Y-77793000D01*
G04 #@! TO.C,R506*
X132841276Y-74280500D02*
X133350724Y-74280500D01*
X132841276Y-75325500D02*
X133350724Y-75325500D01*
G04 #@! TO.C,C203*
X175274000Y-94077000D02*
X175274000Y-98462000D01*
X178294000Y-94077000D02*
X175274000Y-94077000D01*
X178294000Y-98462000D02*
X178294000Y-94077000D01*
G04 #@! TO.C,JP401*
X163211000Y-67815000D02*
X165211000Y-67815000D01*
X163211000Y-70615000D02*
X163211000Y-67815000D01*
X165211000Y-67815000D02*
X165211000Y-70615000D01*
X165211000Y-70615000D02*
X163211000Y-70615000D01*
G04 #@! TO.C,U401*
X153543000Y-66589000D02*
X152043000Y-66589000D01*
X153543000Y-66589000D02*
X155043000Y-66589000D01*
X153543000Y-69809000D02*
X152043000Y-69809000D01*
X153543000Y-69809000D02*
X155043000Y-69809000D01*
X151330500Y-66764000D02*
X151090500Y-66434000D01*
X151570500Y-66434000D01*
X151330500Y-66764000D01*
G36*
X151330500Y-66764000D02*
G01*
X151090500Y-66434000D01*
X151570500Y-66434000D01*
X151330500Y-66764000D01*
G37*
G04 #@! TO.C,U402*
X157875000Y-69389000D02*
X157875000Y-68589000D01*
X157875000Y-69389000D02*
X157875000Y-70189000D01*
X160945000Y-70349000D02*
X160945000Y-68589000D01*
X157925000Y-70689000D02*
X157595000Y-70929000D01*
X157595000Y-70449000D01*
X157925000Y-70689000D01*
G36*
X157925000Y-70689000D02*
G01*
X157595000Y-70929000D01*
X157595000Y-70449000D01*
X157925000Y-70689000D01*
G37*
G04 #@! TO.C,R204*
X168529724Y-97648500D02*
X168020276Y-97648500D01*
X168529724Y-98693500D02*
X168020276Y-98693500D01*
G04 #@! TO.C,R406*
X153147500Y-72009724D02*
X153147500Y-71500276D01*
X154192500Y-72009724D02*
X154192500Y-71500276D01*
G04 #@! TO.C,C205*
X165749000Y-85757000D02*
X165749000Y-90142000D01*
X168769000Y-85757000D02*
X165749000Y-85757000D01*
X168769000Y-90142000D02*
X168769000Y-85757000D01*
G04 #@! TO.C,R511*
X140081724Y-83424500D02*
X139572276Y-83424500D01*
X140081724Y-84469500D02*
X139572276Y-84469500D01*
G04 #@! TO.C,R516*
X141463500Y-69215724D02*
X141463500Y-68706276D01*
X142508500Y-69215724D02*
X142508500Y-68706276D01*
G04 #@! TO.C,U201*
X175512500Y-85797500D02*
X187452500Y-85797500D01*
X175512500Y-93647500D02*
X175512500Y-85797500D01*
X187452500Y-85797500D02*
X187452500Y-93647500D01*
X187452500Y-93647500D02*
X175512500Y-93647500D01*
X187782500Y-85467500D02*
X185452500Y-85467500D01*
X187782500Y-87917500D02*
X187782500Y-85467500D01*
G04 #@! TD*
M02*
