G04 #@! TF.GenerationSoftware,KiCad,Pcbnew,8.0.1*
G04 #@! TF.CreationDate,2024-03-27T20:13:13+01:00*
G04 #@! TF.ProjectId,ETH1HMSR-SMS,45544831-484d-4535-922d-534d532e6b69,rev?*
G04 #@! TF.SameCoordinates,Original*
G04 #@! TF.FileFunction,Copper,L3,Inr*
G04 #@! TF.FilePolarity,Positive*
%FSLAX46Y46*%
G04 Gerber Fmt 4.6, Leading zero omitted, Abs format (unit mm)*
G04 Created by KiCad (PCBNEW 8.0.1) date 2024-03-27 20:13:13*
%MOMM*%
%LPD*%
G01*
G04 APERTURE LIST*
G04 Aperture macros list*
%AMRoundRect*
0 Rectangle with rounded corners*
0 $1 Rounding radius*
0 $2 $3 $4 $5 $6 $7 $8 $9 X,Y pos of 4 corners*
0 Add a 4 corners polygon primitive as box body*
4,1,4,$2,$3,$4,$5,$6,$7,$8,$9,$2,$3,0*
0 Add four circle primitives for the rounded corners*
1,1,$1+$1,$2,$3*
1,1,$1+$1,$4,$5*
1,1,$1+$1,$6,$7*
1,1,$1+$1,$8,$9*
0 Add four rect primitives between the rounded corners*
20,1,$1+$1,$2,$3,$4,$5,0*
20,1,$1+$1,$4,$5,$6,$7,0*
20,1,$1+$1,$6,$7,$8,$9,0*
20,1,$1+$1,$8,$9,$2,$3,0*%
G04 Aperture macros list end*
%ADD10C,0.200000*%
G04 #@! TA.AperFunction,NonConductor*
%ADD11C,0.200000*%
G04 #@! TD*
G04 #@! TA.AperFunction,ComponentPad*
%ADD12R,2.600000X2.600000*%
G04 #@! TD*
G04 #@! TA.AperFunction,ComponentPad*
%ADD13C,2.600000*%
G04 #@! TD*
G04 #@! TA.AperFunction,ComponentPad*
%ADD14RoundRect,0.248000X0.552000X-0.552000X0.552000X0.552000X-0.552000X0.552000X-0.552000X-0.552000X0*%
G04 #@! TD*
G04 #@! TA.AperFunction,ComponentPad*
%ADD15C,1.600000*%
G04 #@! TD*
G04 #@! TA.AperFunction,ComponentPad*
%ADD16C,1.720000*%
G04 #@! TD*
G04 #@! TA.AperFunction,ComponentPad*
%ADD17C,2.200000*%
G04 #@! TD*
G04 #@! TA.AperFunction,ComponentPad*
%ADD18C,5.600000*%
G04 #@! TD*
G04 #@! TA.AperFunction,ComponentPad*
%ADD19R,3.000000X3.000000*%
G04 #@! TD*
G04 #@! TA.AperFunction,ComponentPad*
%ADD20C,3.000000*%
G04 #@! TD*
G04 #@! TA.AperFunction,ComponentPad*
%ADD21R,1.000000X1.000000*%
G04 #@! TD*
G04 #@! TA.AperFunction,ComponentPad*
%ADD22O,1.000000X1.000000*%
G04 #@! TD*
G04 #@! TA.AperFunction,HeatsinkPad*
%ADD23C,0.500000*%
G04 #@! TD*
G04 #@! TA.AperFunction,ComponentPad*
%ADD24C,4.000000*%
G04 #@! TD*
G04 #@! TA.AperFunction,ComponentPad*
%ADD25R,1.500000X2.500000*%
G04 #@! TD*
G04 #@! TA.AperFunction,ComponentPad*
%ADD26O,1.500000X2.500000*%
G04 #@! TD*
G04 #@! TA.AperFunction,ViaPad*
%ADD27C,0.500000*%
G04 #@! TD*
G04 #@! TA.AperFunction,ViaPad*
%ADD28C,0.900000*%
G04 #@! TD*
G04 #@! TA.AperFunction,Conductor*
%ADD29C,0.127000*%
G04 #@! TD*
G04 #@! TA.AperFunction,Conductor*
%ADD30C,0.508000*%
G04 #@! TD*
G04 APERTURE END LIST*
D10*
D11*
X187626667Y-62952219D02*
X188245714Y-62952219D01*
X188245714Y-62952219D02*
X187912381Y-63333171D01*
X187912381Y-63333171D02*
X188055238Y-63333171D01*
X188055238Y-63333171D02*
X188150476Y-63380790D01*
X188150476Y-63380790D02*
X188198095Y-63428409D01*
X188198095Y-63428409D02*
X188245714Y-63523647D01*
X188245714Y-63523647D02*
X188245714Y-63761742D01*
X188245714Y-63761742D02*
X188198095Y-63856980D01*
X188198095Y-63856980D02*
X188150476Y-63904600D01*
X188150476Y-63904600D02*
X188055238Y-63952219D01*
X188055238Y-63952219D02*
X187769524Y-63952219D01*
X187769524Y-63952219D02*
X187674286Y-63904600D01*
X187674286Y-63904600D02*
X187626667Y-63856980D01*
D12*
G04 #@! TO.N,Net-(J201-Pin_1)*
G04 #@! TO.C,J201*
X194869000Y-93305000D03*
D13*
G04 #@! TO.N,GND*
X194869000Y-88305000D03*
G04 #@! TD*
D14*
G04 #@! TO.N,/Ethernet/ETH_TXP*
G04 #@! TO.C,J301*
X179705000Y-71628000D03*
D15*
G04 #@! TO.N,VCCQ*
X182245000Y-72898000D03*
G04 #@! TO.N,/Ethernet/ETH_TXN*
X179705000Y-74168000D03*
G04 #@! TO.N,/Ethernet/ETH_RXP*
X182245000Y-75438000D03*
G04 #@! TO.N,VCCQ*
X179705000Y-76708000D03*
G04 #@! TO.N,/Ethernet/ETH_RXN*
X182245000Y-77978000D03*
G04 #@! TO.N,unconnected-(J301-NC-Pad7)*
X179705000Y-79248000D03*
G04 #@! TO.N,Earth*
X182245000Y-80518000D03*
D16*
G04 #@! TO.N,Net-(J301-Pad9)*
X174875000Y-70608000D03*
G04 #@! TO.N,/Ethernet/LED1*
X174875000Y-73148000D03*
G04 #@! TO.N,Net-(J301-Pad11)*
X174875000Y-78998000D03*
G04 #@! TO.N,/Ethernet/LED2*
X174875000Y-81538000D03*
D17*
G04 #@! TO.N,Earth*
X185545000Y-68173000D03*
X185545000Y-83973000D03*
G04 #@! TD*
D18*
G04 #@! TO.N,N/C*
G04 #@! TO.C,H103*
X196500000Y-63500000D03*
G04 #@! TD*
D19*
G04 #@! TO.N,Net-(J501-Pin_1)*
G04 #@! TO.C,J501*
X108570000Y-77740000D03*
D20*
G04 #@! TO.N,Net-(J501-Pin_2)*
X108570000Y-87260000D03*
G04 #@! TD*
D21*
G04 #@! TO.N,+3.3V*
G04 #@! TO.C,J401*
X145405000Y-97780000D03*
D22*
G04 #@! TO.N,/MCU/TMS_SWDIO*
X145405000Y-96510000D03*
G04 #@! TO.N,GND*
X146675000Y-97780000D03*
G04 #@! TO.N,/MCU/TCK_SWCLK*
X146675000Y-96510000D03*
G04 #@! TO.N,GND*
X147945000Y-97780000D03*
G04 #@! TO.N,unconnected-(J401-Pin_6-Pad6)*
X147945000Y-96510000D03*
G04 #@! TO.N,unconnected-(J401-Pin_7-Pad7)*
X149215000Y-97780000D03*
G04 #@! TO.N,unconnected-(J401-Pin_8-Pad8)*
X149215000Y-96510000D03*
G04 #@! TO.N,unconnected-(J401-Pin_9-Pad9)*
X150485000Y-97780000D03*
G04 #@! TO.N,/MCU/NRST*
X150485000Y-96510000D03*
G04 #@! TD*
D18*
G04 #@! TO.N,N/C*
G04 #@! TO.C,H101*
X103500000Y-63500000D03*
G04 #@! TD*
G04 #@! TO.N,N/C*
G04 #@! TO.C,H104*
X196500000Y-101500000D03*
G04 #@! TD*
G04 #@! TO.N,N/C*
G04 #@! TO.C,H102*
X103500000Y-101500000D03*
G04 #@! TD*
D23*
G04 #@! TO.N,GND*
G04 #@! TO.C,U301*
X171053000Y-75073000D03*
X170053000Y-75073000D03*
X169053000Y-75073000D03*
X171053000Y-76073000D03*
X170053000Y-76073000D03*
X169053000Y-76073000D03*
X171053000Y-77073000D03*
X170053000Y-77073000D03*
X169053000Y-77073000D03*
G04 #@! TD*
D24*
G04 #@! TO.N,N/C*
G04 #@! TO.C,HS101*
X159101000Y-95710000D03*
X146461000Y-69390000D03*
G04 #@! TD*
D25*
G04 #@! TO.N,Net-(D201-K)*
G04 #@! TO.C,U201*
X184032500Y-87917500D03*
D26*
G04 #@! TO.N,GND*
X181492500Y-87917500D03*
G04 #@! TO.N,+5V*
X178952500Y-87917500D03*
G04 #@! TD*
D27*
G04 #@! TO.N,Net-(D201-K)*
X184785000Y-93345000D03*
X184023000Y-93345000D03*
X185613000Y-93345000D03*
G04 #@! TO.N,GND*
X164719000Y-98171000D03*
X159385000Y-69723000D03*
X165227000Y-89281000D03*
X158369000Y-76708000D03*
X146304000Y-88138000D03*
X165227000Y-90805000D03*
X154305000Y-68580000D03*
X164719000Y-97155000D03*
X163703000Y-97155000D03*
X128016000Y-89154000D03*
X140081000Y-80772000D03*
X160909000Y-65024000D03*
X132334000Y-85725000D03*
X127458000Y-79325000D03*
X174117000Y-94488000D03*
X165227000Y-90043000D03*
X157226000Y-69215000D03*
X154716586Y-76103586D03*
X153035000Y-65024000D03*
X163703000Y-98171000D03*
X158242000Y-91694000D03*
X156210000Y-65024000D03*
X164719000Y-96139000D03*
X159766000Y-73025000D03*
X158281000Y-88265000D03*
X149352000Y-76454000D03*
X163703000Y-96139000D03*
X173228000Y-80772000D03*
X162433000Y-65024000D03*
X140716000Y-84963000D03*
X151511000Y-65024000D03*
X172085000Y-94488000D03*
X157734000Y-65024000D03*
G04 #@! TO.N,+5V*
X134620000Y-98679000D03*
X168783000Y-93472000D03*
X160335000Y-68961000D03*
X169545000Y-92710000D03*
X169545000Y-93472000D03*
X169545000Y-94234000D03*
X135636000Y-98679000D03*
X172405000Y-95438000D03*
X168783000Y-92710000D03*
X168783000Y-94234000D03*
X133604000Y-98679000D03*
G04 #@! TO.N,+3.3V*
X145034000Y-89027000D03*
X156281000Y-75946000D03*
X153781000Y-76057000D03*
X153035000Y-68961000D03*
X163942891Y-78015000D03*
X152400000Y-97409000D03*
X139180000Y-97040000D03*
X159004000Y-89281000D03*
X140406000Y-74930000D03*
X159258000Y-76386500D03*
X146304000Y-77216000D03*
X168275000Y-85344000D03*
X173355000Y-98171000D03*
X172847000Y-85344000D03*
X154686000Y-85725000D03*
X167259000Y-85344000D03*
X170815000Y-85344000D03*
X139700000Y-89408000D03*
X134974500Y-78205500D03*
X171831000Y-85344000D03*
X166878000Y-75438000D03*
X164211000Y-71374000D03*
X166243000Y-85344000D03*
G04 #@! TO.N,Net-(U301-XTAL1{slash}CLKIN)*
X167513000Y-70421000D03*
G04 #@! TO.N,Net-(U301-VDDCR)*
X166370000Y-72644000D03*
G04 #@! TO.N,Net-(U301-XTAL2)*
X171577000Y-70548000D03*
G04 #@! TO.N,VCCQ*
X170688000Y-81026000D03*
X171323000Y-73279000D03*
X169926000Y-81026000D03*
X171450000Y-81026000D03*
X172212000Y-78359000D03*
G04 #@! TO.N,/MCU/NRST*
X153035000Y-83439000D03*
X169803000Y-78740000D03*
G04 #@! TO.N,VDDA*
X148386800Y-73507600D03*
G04 #@! TO.N,+5VL*
X139446000Y-74930000D03*
X135636000Y-94107000D03*
X131064000Y-79248000D03*
X135001000Y-81026000D03*
X131572000Y-94107000D03*
X128143000Y-85675000D03*
X133604000Y-94107000D03*
X132588000Y-94107000D03*
X134620000Y-94107000D03*
G04 #@! TO.N,+2V5*
X133670000Y-89474000D03*
X127585000Y-84405000D03*
G04 #@! TO.N,Net-(D201-A)*
X179578000Y-94361000D03*
G04 #@! TO.N,Net-(D202-K)*
X182057000Y-97851000D03*
G04 #@! TO.N,Net-(Q201-D)*
X189992000Y-99187000D03*
X191008000Y-99187000D03*
X188976000Y-99187000D03*
X187960000Y-99187000D03*
G04 #@! TO.N,/Ethernet/ETH_TXP*
X173609000Y-76198000D03*
G04 #@! TO.N,/Ethernet/ETH_TXN*
X173609000Y-76948000D03*
G04 #@! TO.N,/Ethernet/LED2*
X171196000Y-72517000D03*
G04 #@! TO.N,/MCU/MCU_DEF*
X158908000Y-73787000D03*
X164211000Y-67564000D03*
G04 #@! TO.N,/Ethernet/MODE0*
X165157000Y-74873000D03*
G04 #@! TO.N,/Ethernet/RMII_RXD0*
X163168998Y-74873000D03*
X147701000Y-79502000D03*
G04 #@! TO.N,/Ethernet/MODE1*
X166243000Y-75692000D03*
G04 #@! TO.N,/Ethernet/RMII_RXD1*
X162306000Y-75673000D03*
X146558000Y-80010000D03*
G04 #@! TO.N,Net-(U301-RXER{slash}PHYAD0)*
X167386000Y-76327000D03*
G04 #@! TO.N,/Ethernet/MODE2*
X164972389Y-76442634D03*
G04 #@! TO.N,/Ethernet/RMII_CRS_DV*
X146558000Y-78994000D03*
X163168998Y-76454000D03*
G04 #@! TO.N,/Ethernet/REFCLK0*
X165178500Y-77323000D03*
G04 #@! TO.N,/Ethernet/REF_CLK*
X148463000Y-76962000D03*
X162956499Y-77485499D03*
G04 #@! TO.N,/Ethernet/RMII_MDIO*
X147320000Y-76962000D03*
X166945500Y-77323000D03*
G04 #@! TO.N,Net-(U301-RBIAS)*
X171958000Y-74422000D03*
G04 #@! TO.N,/MCU/I2C1_SDA*
X156972000Y-81407000D03*
G04 #@! TO.N,/MCU/I2C1_SCL*
X158496000Y-81407000D03*
G04 #@! TO.N,Net-(U501-Veocd)*
X127585000Y-78055000D03*
G04 #@! TO.N,/Current/OCD_EXT*
X147066000Y-80899000D03*
X127585000Y-80595000D03*
G04 #@! TO.N,/Current/OCD_INT*
X127585000Y-86945000D03*
X146304000Y-86550000D03*
G04 #@! TO.N,/Ethernet/RMII_MDC*
X168242500Y-78010500D03*
X150622000Y-76962000D03*
G04 #@! TO.N,/Ethernet/RMII_TXEN*
X155956000Y-86427500D03*
X169418000Y-79375000D03*
G04 #@! TO.N,/Ethernet/RMII_TXD0*
X156591000Y-86868000D03*
X170803000Y-78752000D03*
G04 #@! TO.N,/Ethernet/RMII_TXD1*
X157226000Y-87376000D03*
X170942000Y-79502000D03*
G04 #@! TO.N,Net-(D501-K-Pad3)*
X140919200Y-72898000D03*
X139106000Y-80899000D03*
X142240000Y-90170000D03*
G04 #@! TO.N,/MCU/EEPROM_WP*
X159282000Y-81050000D03*
D28*
G04 #@! TO.N,Net-(J501-Pin_1)*
X111760000Y-73660000D03*
X114300000Y-76200000D03*
X116840000Y-73660000D03*
X116840000Y-76200000D03*
X109220000Y-73660000D03*
X114300000Y-73660000D03*
X111760000Y-78740000D03*
X111760000Y-76200000D03*
G04 #@! TO.N,Net-(J501-Pin_2)*
X116840000Y-91440000D03*
X114300000Y-91440000D03*
X116840000Y-88900000D03*
X111760000Y-91440000D03*
X111760000Y-88900000D03*
X109220000Y-91440000D03*
X114300000Y-88900000D03*
X111760000Y-86360000D03*
D27*
G04 #@! TO.N,Net-(U501-Vout)*
X127558000Y-83135000D03*
G04 #@! TO.N,Net-(R507-Pad1)*
X133797000Y-84775000D03*
G04 #@! TO.N,Net-(U502A-+)*
X135763000Y-85725000D03*
G04 #@! TO.N,Net-(U502B-+)*
X135890000Y-90424000D03*
G04 #@! TO.N,Net-(U502A--)*
X141668500Y-84963000D03*
X137858500Y-91948000D03*
G04 #@! TO.N,/Current/MCU_ZOFFS*
X146177000Y-81050000D03*
X133731000Y-76073000D03*
G04 #@! TO.N,/Current/MCU_G1*
X137378600Y-81889600D03*
X146354800Y-81889600D03*
G04 #@! TO.N,Net-(R513-Pad2)*
X141706000Y-80671000D03*
G04 #@! TO.N,Net-(R514-Pad2)*
X140993500Y-78255500D03*
G04 #@! TO.N,+3.3VADC*
X149098000Y-71628000D03*
X158435000Y-68895000D03*
G04 #@! TO.N,VDD*
X152329000Y-67918500D03*
X139446000Y-83947000D03*
X139700000Y-77470000D03*
G04 #@! TO.N,Net-(U403-PH0)*
X153797000Y-79121000D03*
G04 #@! TO.N,Net-(U403-PH1)*
X152273000Y-79121000D03*
G04 #@! TO.N,Net-(C418-Pad1)*
X147447000Y-87122000D03*
G04 #@! TO.N,Net-(C419-Pad1)*
X157480000Y-88773000D03*
G04 #@! TO.N,Net-(U403-BOOT0)*
X159385000Y-79550000D03*
G04 #@! TO.N,/Current/VOUT*
X154178000Y-69342000D03*
X154686000Y-67224000D03*
G04 #@! TD*
D29*
G04 #@! TO.N,*
X190246000Y-64389000D02*
X190246000Y-62611000D01*
X184150000Y-62611000D02*
X190246000Y-62611000D01*
X188722000Y-62611000D02*
X188722000Y-64389000D01*
X185674000Y-64389000D02*
X185674000Y-62611000D01*
X190246000Y-64389000D02*
X184150000Y-64389000D01*
X184150000Y-64389000D02*
X184150000Y-62611000D01*
X187198000Y-62611000D02*
X187198000Y-64389000D01*
D30*
G04 #@! TO.N,VCCQ*
X174371000Y-75057000D02*
X172720000Y-75057000D01*
X179705000Y-76708000D02*
X176022000Y-76708000D01*
X184023000Y-75946000D02*
X184023000Y-73533000D01*
X184023000Y-73533000D02*
X183388000Y-72898000D01*
X179705000Y-76708000D02*
X183261000Y-76708000D01*
X183388000Y-72898000D02*
X182245000Y-72898000D01*
X176022000Y-76708000D02*
X174371000Y-75057000D01*
X183261000Y-76708000D02*
X184023000Y-75946000D01*
G04 #@! TD*
G04 #@! TA.AperFunction,Conductor*
G04 #@! TO.N,Net-(J501-Pin_2)*
G36*
X117363677Y-85236685D02*
G01*
X117384319Y-85253319D01*
X117438681Y-85307681D01*
X117472166Y-85369004D01*
X117475000Y-85395362D01*
X117475000Y-92277638D01*
X117455315Y-92344677D01*
X117438681Y-92365319D01*
X117384319Y-92419681D01*
X117322996Y-92453166D01*
X117296638Y-92456000D01*
X106985362Y-92456000D01*
X106918323Y-92436315D01*
X106897681Y-92419681D01*
X106843319Y-92365319D01*
X106809834Y-92303996D01*
X106807000Y-92277638D01*
X106807000Y-85395362D01*
X106826685Y-85328323D01*
X106843319Y-85307681D01*
X106897681Y-85253319D01*
X106959004Y-85219834D01*
X106985362Y-85217000D01*
X117296638Y-85217000D01*
X117363677Y-85236685D01*
G37*
G04 #@! TD.AperFunction*
G04 #@! TD*
G04 #@! TA.AperFunction,Conductor*
G04 #@! TO.N,Net-(J501-Pin_1)*
G36*
X117363677Y-72536685D02*
G01*
X117384319Y-72553319D01*
X117438681Y-72607681D01*
X117472166Y-72669004D01*
X117475000Y-72695362D01*
X117475000Y-79577638D01*
X117455315Y-79644677D01*
X117438681Y-79665319D01*
X117384319Y-79719681D01*
X117322996Y-79753166D01*
X117296638Y-79756000D01*
X106985362Y-79756000D01*
X106918323Y-79736315D01*
X106897681Y-79719681D01*
X106843319Y-79665319D01*
X106809834Y-79603996D01*
X106807000Y-79577638D01*
X106807000Y-72695362D01*
X106826685Y-72628323D01*
X106843319Y-72607681D01*
X106897681Y-72553319D01*
X106959004Y-72519834D01*
X106985362Y-72517000D01*
X117296638Y-72517000D01*
X117363677Y-72536685D01*
G37*
G04 #@! TD.AperFunction*
G04 #@! TD*
G04 #@! TA.AperFunction,Conductor*
G04 #@! TO.N,VCCQ*
G36*
X170871134Y-72907922D02*
G01*
X170964203Y-72967734D01*
X170984268Y-72980629D01*
X171073039Y-73006694D01*
X171123461Y-73021499D01*
X171123463Y-73021500D01*
X171123464Y-73021500D01*
X171268537Y-73021500D01*
X171268537Y-73021499D01*
X171407732Y-72980629D01*
X171507820Y-72916306D01*
X171520866Y-72907922D01*
X171554656Y-72898000D01*
X173329112Y-72898000D01*
X173373306Y-72916306D01*
X173463694Y-73006694D01*
X173482000Y-73050888D01*
X173482000Y-75662704D01*
X173463694Y-75706898D01*
X173437109Y-75722672D01*
X173397267Y-75734370D01*
X173275226Y-75812801D01*
X173180225Y-75922438D01*
X173180222Y-75922443D01*
X173119958Y-76054402D01*
X173119957Y-76054405D01*
X173099312Y-76198000D01*
X173119957Y-76341594D01*
X173119958Y-76341597D01*
X173180222Y-76473556D01*
X173180225Y-76473561D01*
X173230924Y-76532071D01*
X173246031Y-76577459D01*
X173230924Y-76613929D01*
X173180225Y-76672438D01*
X173180222Y-76672443D01*
X173119958Y-76804402D01*
X173119957Y-76804405D01*
X173099312Y-76948000D01*
X173119957Y-77091594D01*
X173119958Y-77091597D01*
X173180222Y-77223556D01*
X173180225Y-77223561D01*
X173275226Y-77333198D01*
X173397263Y-77411626D01*
X173397268Y-77411629D01*
X173437108Y-77423327D01*
X173474354Y-77453339D01*
X173482000Y-77483294D01*
X173482000Y-80237291D01*
X173463694Y-80281485D01*
X173419500Y-80299791D01*
X173401892Y-80297259D01*
X173300538Y-80267500D01*
X173300536Y-80267500D01*
X173155464Y-80267500D01*
X173155462Y-80267500D01*
X173016272Y-80308369D01*
X173016263Y-80308373D01*
X172894226Y-80386801D01*
X172799225Y-80496438D01*
X172799222Y-80496443D01*
X172738958Y-80628402D01*
X172738957Y-80628405D01*
X172718312Y-80772000D01*
X172738957Y-80915594D01*
X172738958Y-80915597D01*
X172799222Y-81047556D01*
X172799225Y-81047561D01*
X172894226Y-81157198D01*
X173016263Y-81235626D01*
X173016268Y-81235629D01*
X173144154Y-81273179D01*
X173155461Y-81276499D01*
X173155463Y-81276500D01*
X173155464Y-81276500D01*
X173300537Y-81276500D01*
X173300537Y-81276499D01*
X173355697Y-81260303D01*
X173401892Y-81246740D01*
X173449453Y-81251853D01*
X173479468Y-81289100D01*
X173482000Y-81306708D01*
X173482000Y-82651112D01*
X173463694Y-82695306D01*
X173373306Y-82785694D01*
X173329112Y-82804000D01*
X169316888Y-82804000D01*
X169272694Y-82785694D01*
X169182306Y-82695306D01*
X169164000Y-82651112D01*
X169164000Y-80289888D01*
X169182306Y-80245694D01*
X169272694Y-80155306D01*
X169316888Y-80137000D01*
X171450000Y-80137000D01*
X171577000Y-80137000D01*
X171577000Y-74891306D01*
X171595306Y-74847112D01*
X171639500Y-74828806D01*
X171673287Y-74838727D01*
X171746268Y-74885629D01*
X171885461Y-74926499D01*
X171885463Y-74926500D01*
X171885464Y-74926500D01*
X172030537Y-74926500D01*
X172030537Y-74926499D01*
X172169732Y-74885629D01*
X172242711Y-74838728D01*
X172291773Y-74807198D01*
X172350712Y-74739179D01*
X172386777Y-74697558D01*
X172447042Y-74565596D01*
X172467688Y-74422000D01*
X172447042Y-74278404D01*
X172386777Y-74146442D01*
X172386774Y-74146438D01*
X172291773Y-74036801D01*
X172169736Y-73958373D01*
X172169727Y-73958369D01*
X172030538Y-73917500D01*
X172030536Y-73917500D01*
X171885464Y-73917500D01*
X171885462Y-73917500D01*
X171746272Y-73958369D01*
X171746263Y-73958373D01*
X171624226Y-74036801D01*
X171529225Y-74146438D01*
X171529222Y-74146443D01*
X171468958Y-74278402D01*
X171468957Y-74278405D01*
X171448312Y-74421999D01*
X171456307Y-74477605D01*
X171444477Y-74523955D01*
X171403338Y-74548364D01*
X171394443Y-74549000D01*
X170713888Y-74549000D01*
X170669694Y-74530694D01*
X170579306Y-74440306D01*
X170561000Y-74396112D01*
X170561000Y-73050888D01*
X170579306Y-73006694D01*
X170669694Y-72916306D01*
X170713888Y-72898000D01*
X170837344Y-72898000D01*
X170871134Y-72907922D01*
G37*
G04 #@! TD.AperFunction*
G04 #@! TD*
G04 #@! TA.AperFunction,Conductor*
G04 #@! TO.N,+5VL*
G36*
X139677184Y-73539774D02*
G01*
X139719036Y-73552463D01*
X139723588Y-73556588D01*
X139808694Y-73641694D01*
X139827000Y-73685888D01*
X139827000Y-75412112D01*
X139808694Y-75456306D01*
X139718306Y-75546694D01*
X139674112Y-75565000D01*
X134239000Y-75565000D01*
X134239000Y-75692000D01*
X134239000Y-75721300D01*
X134220694Y-75765494D01*
X134176500Y-75783800D01*
X134132306Y-75765494D01*
X134129266Y-75762229D01*
X134064773Y-75687801D01*
X133942736Y-75609373D01*
X133942727Y-75609369D01*
X133803538Y-75568500D01*
X133803536Y-75568500D01*
X133658464Y-75568500D01*
X133658462Y-75568500D01*
X133519272Y-75609369D01*
X133519263Y-75609373D01*
X133397226Y-75687801D01*
X133302225Y-75797438D01*
X133302222Y-75797443D01*
X133241958Y-75929402D01*
X133241957Y-75929405D01*
X133221312Y-76073000D01*
X133241957Y-76216594D01*
X133241958Y-76216597D01*
X133302222Y-76348556D01*
X133302225Y-76348561D01*
X133397226Y-76458198D01*
X133519263Y-76536626D01*
X133519268Y-76536629D01*
X133658461Y-76577499D01*
X133658463Y-76577500D01*
X133658464Y-76577500D01*
X133803537Y-76577500D01*
X133803537Y-76577499D01*
X133942732Y-76536629D01*
X133988535Y-76507192D01*
X134064773Y-76458198D01*
X134129266Y-76383770D01*
X134172042Y-76362358D01*
X134217429Y-76377465D01*
X134238841Y-76420241D01*
X134239000Y-76424699D01*
X134239000Y-80010000D01*
X135991112Y-80010000D01*
X136035306Y-80028306D01*
X136125694Y-80118694D01*
X136144000Y-80162888D01*
X136144000Y-85255692D01*
X136125694Y-85299886D01*
X136081500Y-85318192D01*
X136047710Y-85308271D01*
X136002939Y-85279499D01*
X135974732Y-85261371D01*
X135974729Y-85261370D01*
X135974727Y-85261369D01*
X135835538Y-85220500D01*
X135835536Y-85220500D01*
X135690464Y-85220500D01*
X135690462Y-85220500D01*
X135551272Y-85261369D01*
X135551263Y-85261373D01*
X135429226Y-85339801D01*
X135334225Y-85449438D01*
X135334222Y-85449443D01*
X135273958Y-85581402D01*
X135273957Y-85581405D01*
X135253312Y-85725000D01*
X135273957Y-85868594D01*
X135273958Y-85868597D01*
X135334222Y-86000556D01*
X135334225Y-86000561D01*
X135429226Y-86110198D01*
X135551263Y-86188626D01*
X135551268Y-86188629D01*
X135572326Y-86194812D01*
X135690461Y-86229499D01*
X135690463Y-86229500D01*
X135690464Y-86229500D01*
X135835537Y-86229500D01*
X135835537Y-86229499D01*
X135974732Y-86188629D01*
X136047711Y-86141727D01*
X136094784Y-86133234D01*
X136134078Y-86160515D01*
X136144000Y-86194306D01*
X136144000Y-89889291D01*
X136125694Y-89933485D01*
X136081500Y-89951791D01*
X136063892Y-89949259D01*
X135962538Y-89919500D01*
X135962536Y-89919500D01*
X135817464Y-89919500D01*
X135817462Y-89919500D01*
X135678272Y-89960369D01*
X135678263Y-89960373D01*
X135556226Y-90038801D01*
X135461225Y-90148438D01*
X135461222Y-90148443D01*
X135400958Y-90280402D01*
X135400957Y-90280405D01*
X135380312Y-90424000D01*
X135400957Y-90567594D01*
X135400958Y-90567597D01*
X135461222Y-90699556D01*
X135461225Y-90699561D01*
X135556226Y-90809198D01*
X135678263Y-90887626D01*
X135678268Y-90887629D01*
X135733523Y-90903853D01*
X135817461Y-90928499D01*
X135817463Y-90928500D01*
X135817464Y-90928500D01*
X135962537Y-90928500D01*
X135962537Y-90928499D01*
X136017697Y-90912303D01*
X136063892Y-90898740D01*
X136111453Y-90903853D01*
X136141468Y-90941100D01*
X136144000Y-90958708D01*
X136144000Y-94589112D01*
X136125694Y-94633306D01*
X136040806Y-94718194D01*
X135996612Y-94736500D01*
X128036388Y-94736500D01*
X127992194Y-94718194D01*
X127912806Y-94638806D01*
X127894500Y-94594612D01*
X127894500Y-89721000D01*
X127912806Y-89676806D01*
X127957000Y-89658500D01*
X128088537Y-89658500D01*
X128088537Y-89658499D01*
X128227732Y-89617629D01*
X128273535Y-89588192D01*
X128349773Y-89539198D01*
X128349775Y-89539196D01*
X128406268Y-89474000D01*
X133160312Y-89474000D01*
X133180957Y-89617594D01*
X133180958Y-89617597D01*
X133241222Y-89749556D01*
X133241225Y-89749561D01*
X133336226Y-89859198D01*
X133458263Y-89937626D01*
X133458268Y-89937629D01*
X133597461Y-89978499D01*
X133597463Y-89978500D01*
X133597464Y-89978500D01*
X133742537Y-89978500D01*
X133742537Y-89978499D01*
X133881732Y-89937629D01*
X133956947Y-89889291D01*
X134003773Y-89859198D01*
X134098774Y-89749561D01*
X134098777Y-89749558D01*
X134159042Y-89617596D01*
X134179688Y-89474000D01*
X134159042Y-89330404D01*
X134098777Y-89198442D01*
X134041588Y-89132442D01*
X134003773Y-89088801D01*
X133881736Y-89010373D01*
X133881727Y-89010369D01*
X133742538Y-88969500D01*
X133742536Y-88969500D01*
X133597464Y-88969500D01*
X133597462Y-88969500D01*
X133458272Y-89010369D01*
X133458263Y-89010373D01*
X133336226Y-89088801D01*
X133241225Y-89198438D01*
X133241222Y-89198443D01*
X133180958Y-89330402D01*
X133180957Y-89330405D01*
X133160312Y-89474000D01*
X128406268Y-89474000D01*
X128444777Y-89429558D01*
X128505042Y-89297596D01*
X128525688Y-89154000D01*
X128505042Y-89010404D01*
X128444777Y-88878442D01*
X128444774Y-88878438D01*
X128349773Y-88768801D01*
X128227736Y-88690373D01*
X128227727Y-88690369D01*
X128088538Y-88649500D01*
X128088536Y-88649500D01*
X127957000Y-88649500D01*
X127912806Y-88631194D01*
X127894500Y-88587000D01*
X127894500Y-87511999D01*
X127890201Y-87490386D01*
X127889000Y-87478193D01*
X127889000Y-87383458D01*
X127907306Y-87339264D01*
X127917706Y-87330882D01*
X127918775Y-87330196D01*
X128013777Y-87220558D01*
X128074042Y-87088596D01*
X128094688Y-86945000D01*
X128074042Y-86801404D01*
X128013777Y-86669442D01*
X127918775Y-86559804D01*
X127917705Y-86559116D01*
X127917289Y-86558516D01*
X127915398Y-86556878D01*
X127915816Y-86556395D01*
X127890427Y-86519822D01*
X127889000Y-86506541D01*
X127889000Y-86411805D01*
X127890201Y-86399611D01*
X127894500Y-86377999D01*
X127894500Y-85725000D01*
X131824312Y-85725000D01*
X131844957Y-85868594D01*
X131844958Y-85868597D01*
X131905222Y-86000556D01*
X131905225Y-86000561D01*
X132000226Y-86110198D01*
X132122263Y-86188626D01*
X132122268Y-86188629D01*
X132143326Y-86194812D01*
X132261461Y-86229499D01*
X132261463Y-86229500D01*
X132261464Y-86229500D01*
X132406537Y-86229500D01*
X132406537Y-86229499D01*
X132545732Y-86188629D01*
X132618711Y-86141728D01*
X132667773Y-86110198D01*
X132667775Y-86110196D01*
X132762777Y-86000558D01*
X132823042Y-85868596D01*
X132843688Y-85725000D01*
X132823042Y-85581404D01*
X132762777Y-85449442D01*
X132762774Y-85449438D01*
X132667773Y-85339801D01*
X132545736Y-85261373D01*
X132545727Y-85261369D01*
X132406538Y-85220500D01*
X132406536Y-85220500D01*
X132261464Y-85220500D01*
X132261462Y-85220500D01*
X132122272Y-85261369D01*
X132122263Y-85261373D01*
X132000226Y-85339801D01*
X131905225Y-85449438D01*
X131905222Y-85449443D01*
X131844958Y-85581402D01*
X131844957Y-85581405D01*
X131824312Y-85725000D01*
X127894500Y-85725000D01*
X127894500Y-85691210D01*
X127894478Y-85690602D01*
X127894000Y-85677211D01*
X127894000Y-85672787D01*
X127894500Y-85658788D01*
X127894500Y-85491388D01*
X127912806Y-85447194D01*
X127992194Y-85367806D01*
X128036388Y-85349500D01*
X129387112Y-85349500D01*
X129387113Y-85349500D01*
X129408725Y-85345200D01*
X129420918Y-85344000D01*
X129667000Y-85344000D01*
X129794000Y-85344000D01*
X129794000Y-84970917D01*
X129795201Y-84958723D01*
X129799500Y-84937111D01*
X129799500Y-84775000D01*
X133287312Y-84775000D01*
X133307957Y-84918594D01*
X133307958Y-84918597D01*
X133368222Y-85050556D01*
X133368225Y-85050561D01*
X133463226Y-85160198D01*
X133585263Y-85238626D01*
X133585268Y-85238629D01*
X133724461Y-85279499D01*
X133724463Y-85279500D01*
X133724464Y-85279500D01*
X133869537Y-85279500D01*
X133869537Y-85279499D01*
X134008732Y-85238629D01*
X134054535Y-85209192D01*
X134130773Y-85160198D01*
X134130775Y-85160196D01*
X134225777Y-85050558D01*
X134286042Y-84918596D01*
X134306688Y-84775000D01*
X134286042Y-84631404D01*
X134225777Y-84499442D01*
X134225774Y-84499438D01*
X134130773Y-84389801D01*
X134008736Y-84311373D01*
X134008727Y-84311369D01*
X133869538Y-84270500D01*
X133869536Y-84270500D01*
X133724464Y-84270500D01*
X133724462Y-84270500D01*
X133585272Y-84311369D01*
X133585263Y-84311373D01*
X133463226Y-84389801D01*
X133368225Y-84499438D01*
X133368222Y-84499443D01*
X133307958Y-84631402D01*
X133307957Y-84631405D01*
X133287312Y-84775000D01*
X129799500Y-84775000D01*
X129799500Y-73680388D01*
X129817806Y-73636194D01*
X129897194Y-73556806D01*
X129941388Y-73538500D01*
X139677184Y-73538500D01*
X139677184Y-73539774D01*
G37*
G04 #@! TD.AperFunction*
G04 #@! TD*
G04 #@! TA.AperFunction,Conductor*
G04 #@! TO.N,+5V*
G36*
X161816306Y-63772306D02*
G01*
X161906694Y-63862694D01*
X161925000Y-63906888D01*
X161925000Y-65007788D01*
X161924364Y-65016681D01*
X161923312Y-65023998D01*
X161923312Y-65023999D01*
X161924364Y-65031317D01*
X161925000Y-65040211D01*
X161925000Y-69316112D01*
X161906694Y-69360306D01*
X161816306Y-69450694D01*
X161772112Y-69469000D01*
X159861000Y-69469000D01*
X159816806Y-69450694D01*
X159813766Y-69447429D01*
X159718775Y-69337804D01*
X159718774Y-69337803D01*
X159667710Y-69304986D01*
X159640428Y-69265693D01*
X159639000Y-69252408D01*
X159639000Y-68326000D01*
X159639000Y-68199000D01*
X159512000Y-68199000D01*
X154663656Y-68199000D01*
X154629866Y-68189078D01*
X154516736Y-68116373D01*
X154516727Y-68116369D01*
X154377538Y-68075500D01*
X154377536Y-68075500D01*
X154232464Y-68075500D01*
X154232462Y-68075500D01*
X154093272Y-68116369D01*
X154093263Y-68116373D01*
X153980134Y-68189078D01*
X153946344Y-68199000D01*
X152852772Y-68199000D01*
X152808578Y-68180694D01*
X152790272Y-68136500D01*
X152795920Y-68110537D01*
X152802964Y-68095110D01*
X152818042Y-68062096D01*
X152838688Y-67918500D01*
X152818042Y-67774904D01*
X152757777Y-67642942D01*
X152728536Y-67609196D01*
X152662773Y-67533301D01*
X152540736Y-67454873D01*
X152540727Y-67454869D01*
X152401538Y-67414000D01*
X152401536Y-67414000D01*
X152256464Y-67414000D01*
X152256462Y-67414000D01*
X152117272Y-67454869D01*
X152117263Y-67454873D01*
X151995226Y-67533301D01*
X151900225Y-67642938D01*
X151900222Y-67642943D01*
X151839958Y-67774902D01*
X151839957Y-67774905D01*
X151819312Y-67918500D01*
X151839957Y-68062094D01*
X151839958Y-68062097D01*
X151862080Y-68110537D01*
X151863787Y-68158342D01*
X151831191Y-68193352D01*
X151805228Y-68199000D01*
X148710531Y-68199000D01*
X148666337Y-68180694D01*
X148657761Y-68169989D01*
X148494435Y-67912628D01*
X148494433Y-67912626D01*
X148293232Y-67669417D01*
X148063139Y-67453345D01*
X147945116Y-67367597D01*
X147807779Y-67267816D01*
X147807775Y-67267813D01*
X147728079Y-67224000D01*
X154176312Y-67224000D01*
X154196957Y-67367594D01*
X154196958Y-67367597D01*
X154257222Y-67499556D01*
X154257225Y-67499561D01*
X154352226Y-67609198D01*
X154445931Y-67669418D01*
X154474268Y-67687629D01*
X154613461Y-67728499D01*
X154613463Y-67728500D01*
X154613464Y-67728500D01*
X154758537Y-67728500D01*
X154758537Y-67728499D01*
X154897732Y-67687629D01*
X154967272Y-67642938D01*
X155019773Y-67609198D01*
X155019775Y-67609196D01*
X155114777Y-67499558D01*
X155175042Y-67367596D01*
X155195688Y-67224000D01*
X155175042Y-67080404D01*
X155114777Y-66948442D01*
X155114774Y-66948438D01*
X155019773Y-66838801D01*
X154897736Y-66760373D01*
X154897727Y-66760369D01*
X154758538Y-66719500D01*
X154758536Y-66719500D01*
X154613464Y-66719500D01*
X154613462Y-66719500D01*
X154474272Y-66760369D01*
X154474263Y-66760373D01*
X154352226Y-66838801D01*
X154257225Y-66948438D01*
X154257222Y-66948443D01*
X154196958Y-67080402D01*
X154196957Y-67080405D01*
X154176312Y-67224000D01*
X147728079Y-67224000D01*
X147531179Y-67115753D01*
X147531176Y-67115752D01*
X147492328Y-67100371D01*
X147483970Y-67097061D01*
X147237707Y-66999558D01*
X147237688Y-66999552D01*
X146931977Y-66921060D01*
X146931979Y-66921060D01*
X146681451Y-66889412D01*
X146618821Y-66881500D01*
X146303179Y-66881500D01*
X146240548Y-66889412D01*
X145990021Y-66921060D01*
X145684311Y-66999552D01*
X145684292Y-66999558D01*
X145390823Y-67115752D01*
X145390820Y-67115753D01*
X145114224Y-67267813D01*
X145114224Y-67267814D01*
X144858860Y-67453345D01*
X144628767Y-67669417D01*
X144427566Y-67912626D01*
X144427564Y-67912628D01*
X144264239Y-68169989D01*
X144225103Y-68197495D01*
X144211469Y-68199000D01*
X139954000Y-68199000D01*
X139827000Y-68199000D01*
X139827000Y-68326000D01*
X139827000Y-73126112D01*
X139808694Y-73170306D01*
X139718306Y-73260694D01*
X139674112Y-73279000D01*
X129540000Y-73279000D01*
X129540000Y-73406000D01*
X129540000Y-84937112D01*
X129521694Y-84981306D01*
X129431306Y-85071694D01*
X129387112Y-85090000D01*
X127635000Y-85090000D01*
X127635000Y-85217000D01*
X127635000Y-85658788D01*
X127634364Y-85667681D01*
X127633312Y-85674998D01*
X127633312Y-85674999D01*
X127634364Y-85682317D01*
X127635000Y-85691211D01*
X127635000Y-86378000D01*
X127616694Y-86422194D01*
X127572500Y-86440500D01*
X127512462Y-86440500D01*
X127373272Y-86481369D01*
X127373263Y-86481373D01*
X127251226Y-86559801D01*
X127156225Y-86669438D01*
X127156222Y-86669443D01*
X127095958Y-86801402D01*
X127095957Y-86801405D01*
X127075312Y-86945000D01*
X127095957Y-87088594D01*
X127095958Y-87088597D01*
X127156222Y-87220556D01*
X127156225Y-87220561D01*
X127251226Y-87330198D01*
X127356041Y-87397558D01*
X127373268Y-87408629D01*
X127512461Y-87449499D01*
X127512463Y-87449500D01*
X127572500Y-87449500D01*
X127616694Y-87467806D01*
X127635000Y-87512000D01*
X127635000Y-88799992D01*
X127619735Y-88840920D01*
X127587223Y-88878441D01*
X127587221Y-88878444D01*
X127526958Y-89010402D01*
X127526957Y-89010405D01*
X127506312Y-89154000D01*
X127526957Y-89297594D01*
X127526958Y-89297597D01*
X127566142Y-89383397D01*
X127587223Y-89429558D01*
X127619734Y-89467078D01*
X127635000Y-89508006D01*
X127635000Y-94996000D01*
X137388112Y-94996000D01*
X137432306Y-95014306D01*
X137522694Y-95104694D01*
X137541000Y-95148888D01*
X137541000Y-98933000D01*
X156337000Y-98933000D01*
X156464000Y-98933000D01*
X156464000Y-95735170D01*
X156473947Y-95711154D01*
X156473183Y-95709133D01*
X156578892Y-95709133D01*
X156588876Y-95731245D01*
X156590296Y-95753801D01*
X156607359Y-96025023D01*
X156607360Y-96025027D01*
X156666504Y-96335071D01*
X156764042Y-96635261D01*
X156764045Y-96635268D01*
X156898438Y-96920869D01*
X156898448Y-96920887D01*
X157067564Y-97187371D01*
X157067566Y-97187373D01*
X157220675Y-97372449D01*
X157268767Y-97430582D01*
X157498860Y-97646654D01*
X157754221Y-97832184D01*
X157754224Y-97832185D01*
X157754224Y-97832186D01*
X157827790Y-97872629D01*
X158030821Y-97984247D01*
X158229880Y-98063060D01*
X158324292Y-98100441D01*
X158324311Y-98100447D01*
X158551278Y-98158721D01*
X158630021Y-98178939D01*
X158630022Y-98178939D01*
X158630025Y-98178940D01*
X158943179Y-98218500D01*
X158943180Y-98218500D01*
X159258820Y-98218500D01*
X159258821Y-98218500D01*
X159571975Y-98178940D01*
X159602898Y-98171000D01*
X163193312Y-98171000D01*
X163213957Y-98314594D01*
X163213958Y-98314597D01*
X163274222Y-98446556D01*
X163274225Y-98446561D01*
X163369226Y-98556198D01*
X163491263Y-98634626D01*
X163491268Y-98634629D01*
X163630461Y-98675499D01*
X163630463Y-98675500D01*
X163630464Y-98675500D01*
X163775537Y-98675500D01*
X163775537Y-98675499D01*
X163914732Y-98634629D01*
X163960535Y-98605192D01*
X164036773Y-98556198D01*
X164051438Y-98539274D01*
X164131777Y-98446558D01*
X164154148Y-98397571D01*
X164189158Y-98364976D01*
X164236963Y-98366683D01*
X164267852Y-98397572D01*
X164290222Y-98446556D01*
X164290225Y-98446561D01*
X164385226Y-98556198D01*
X164507263Y-98634626D01*
X164507268Y-98634629D01*
X164646461Y-98675499D01*
X164646463Y-98675500D01*
X164646464Y-98675500D01*
X164791537Y-98675500D01*
X164791537Y-98675499D01*
X164930732Y-98634629D01*
X164976535Y-98605192D01*
X165052773Y-98556198D01*
X165067438Y-98539274D01*
X165147777Y-98446558D01*
X165208042Y-98314596D01*
X165228688Y-98171000D01*
X172845312Y-98171000D01*
X172865957Y-98314594D01*
X172865958Y-98314597D01*
X172926222Y-98446556D01*
X172926225Y-98446561D01*
X173021226Y-98556198D01*
X173143263Y-98634626D01*
X173143268Y-98634629D01*
X173282461Y-98675499D01*
X173282463Y-98675500D01*
X173282464Y-98675500D01*
X173427537Y-98675500D01*
X173427537Y-98675499D01*
X173566732Y-98634629D01*
X173612535Y-98605192D01*
X173688773Y-98556198D01*
X173703438Y-98539274D01*
X173783777Y-98446558D01*
X173844042Y-98314596D01*
X173864688Y-98171000D01*
X173844042Y-98027404D01*
X173783777Y-97895442D01*
X173783774Y-97895438D01*
X173688773Y-97785801D01*
X173566736Y-97707373D01*
X173566727Y-97707369D01*
X173427538Y-97666500D01*
X173427536Y-97666500D01*
X173282464Y-97666500D01*
X173282462Y-97666500D01*
X173143272Y-97707369D01*
X173143263Y-97707373D01*
X173021226Y-97785801D01*
X172926225Y-97895438D01*
X172926222Y-97895443D01*
X172865958Y-98027402D01*
X172865957Y-98027405D01*
X172845312Y-98171000D01*
X165228688Y-98171000D01*
X165208042Y-98027404D01*
X165147777Y-97895442D01*
X165147774Y-97895438D01*
X165052773Y-97785801D01*
X164943503Y-97715578D01*
X164916221Y-97676285D01*
X164924715Y-97629210D01*
X164943503Y-97610422D01*
X165052773Y-97540198D01*
X165052775Y-97540196D01*
X165147777Y-97430558D01*
X165208042Y-97298596D01*
X165228688Y-97155000D01*
X165208042Y-97011404D01*
X165147777Y-96879442D01*
X165147774Y-96879438D01*
X165052773Y-96769801D01*
X164943503Y-96699578D01*
X164916221Y-96660285D01*
X164924715Y-96613210D01*
X164943503Y-96594422D01*
X165052773Y-96524198D01*
X165147774Y-96414561D01*
X165147777Y-96414558D01*
X165208042Y-96282596D01*
X165228688Y-96139000D01*
X165208042Y-95995404D01*
X165147777Y-95863442D01*
X165147774Y-95863438D01*
X165052773Y-95753801D01*
X164930736Y-95675373D01*
X164930727Y-95675369D01*
X164791538Y-95634500D01*
X164791536Y-95634500D01*
X164646464Y-95634500D01*
X164646462Y-95634500D01*
X164507272Y-95675369D01*
X164507263Y-95675373D01*
X164385226Y-95753801D01*
X164290225Y-95863438D01*
X164290222Y-95863443D01*
X164267852Y-95912427D01*
X164232842Y-95945023D01*
X164185037Y-95943316D01*
X164154148Y-95912427D01*
X164131777Y-95863443D01*
X164131777Y-95863442D01*
X164131774Y-95863438D01*
X164036773Y-95753801D01*
X163914736Y-95675373D01*
X163914727Y-95675369D01*
X163775538Y-95634500D01*
X163775536Y-95634500D01*
X163630464Y-95634500D01*
X163630462Y-95634500D01*
X163491272Y-95675369D01*
X163491263Y-95675373D01*
X163369226Y-95753801D01*
X163274225Y-95863438D01*
X163274222Y-95863443D01*
X163213958Y-95995402D01*
X163213957Y-95995405D01*
X163193312Y-96139000D01*
X163213957Y-96282594D01*
X163213958Y-96282597D01*
X163274222Y-96414556D01*
X163274225Y-96414561D01*
X163369226Y-96524198D01*
X163478496Y-96594422D01*
X163505778Y-96633715D01*
X163497284Y-96680790D01*
X163478496Y-96699578D01*
X163369226Y-96769801D01*
X163274225Y-96879438D01*
X163274222Y-96879443D01*
X163213958Y-97011402D01*
X163213957Y-97011405D01*
X163193312Y-97155000D01*
X163213957Y-97298594D01*
X163213958Y-97298597D01*
X163274222Y-97430556D01*
X163274225Y-97430561D01*
X163369226Y-97540198D01*
X163478496Y-97610422D01*
X163505778Y-97649715D01*
X163497284Y-97696790D01*
X163478496Y-97715578D01*
X163369226Y-97785801D01*
X163274225Y-97895438D01*
X163274222Y-97895443D01*
X163213958Y-98027402D01*
X163213957Y-98027405D01*
X163193312Y-98171000D01*
X159602898Y-98171000D01*
X159682551Y-98150548D01*
X159877688Y-98100447D01*
X159877694Y-98100444D01*
X159877702Y-98100443D01*
X160171179Y-97984247D01*
X160447779Y-97832184D01*
X160703140Y-97646654D01*
X160933233Y-97430582D01*
X161134432Y-97187375D01*
X161136831Y-97183596D01*
X161303551Y-96920887D01*
X161303553Y-96920881D01*
X161303562Y-96920869D01*
X161437956Y-96635266D01*
X161535495Y-96335072D01*
X161594641Y-96025020D01*
X161614460Y-95710000D01*
X161594641Y-95394980D01*
X161535495Y-95084928D01*
X161437956Y-94784734D01*
X161303562Y-94499131D01*
X161303558Y-94499125D01*
X161303551Y-94499112D01*
X161296499Y-94488000D01*
X171575312Y-94488000D01*
X171595957Y-94631594D01*
X171595958Y-94631597D01*
X171656222Y-94763556D01*
X171656225Y-94763561D01*
X171751226Y-94873198D01*
X171873263Y-94951626D01*
X171873268Y-94951629D01*
X172012461Y-94992499D01*
X172012463Y-94992500D01*
X172012464Y-94992500D01*
X172157537Y-94992500D01*
X172157537Y-94992499D01*
X172296732Y-94951629D01*
X172342535Y-94922192D01*
X172418773Y-94873198D01*
X172418775Y-94873196D01*
X172513777Y-94763558D01*
X172574042Y-94631596D01*
X172594688Y-94488000D01*
X173607312Y-94488000D01*
X173627957Y-94631594D01*
X173627958Y-94631597D01*
X173688222Y-94763556D01*
X173688225Y-94763561D01*
X173783226Y-94873198D01*
X173905263Y-94951626D01*
X173905268Y-94951629D01*
X174044461Y-94992499D01*
X174044463Y-94992500D01*
X174044464Y-94992500D01*
X174189537Y-94992500D01*
X174189537Y-94992499D01*
X174328732Y-94951629D01*
X174374535Y-94922192D01*
X174450773Y-94873198D01*
X174450775Y-94873196D01*
X174545777Y-94763558D01*
X174606042Y-94631596D01*
X174626688Y-94488000D01*
X174608428Y-94361000D01*
X179068312Y-94361000D01*
X179088957Y-94504594D01*
X179088958Y-94504597D01*
X179149222Y-94636556D01*
X179149225Y-94636561D01*
X179244226Y-94746198D01*
X179366263Y-94824626D01*
X179366268Y-94824629D01*
X179505461Y-94865499D01*
X179505463Y-94865500D01*
X179505464Y-94865500D01*
X179650537Y-94865500D01*
X179650537Y-94865499D01*
X179789732Y-94824629D01*
X179851814Y-94784731D01*
X179911773Y-94746198D01*
X180006774Y-94636561D01*
X180006777Y-94636558D01*
X180067042Y-94504596D01*
X180087688Y-94361000D01*
X180067042Y-94217404D01*
X180006777Y-94085442D01*
X180006774Y-94085438D01*
X179911773Y-93975801D01*
X179789736Y-93897373D01*
X179789727Y-93897369D01*
X179650538Y-93856500D01*
X179650536Y-93856500D01*
X179505464Y-93856500D01*
X179505462Y-93856500D01*
X179366272Y-93897369D01*
X179366263Y-93897373D01*
X179244226Y-93975801D01*
X179149225Y-94085438D01*
X179149222Y-94085443D01*
X179088958Y-94217402D01*
X179088957Y-94217405D01*
X179068312Y-94361000D01*
X174608428Y-94361000D01*
X174606042Y-94344404D01*
X174545777Y-94212442D01*
X174454411Y-94107000D01*
X174450773Y-94102801D01*
X174328736Y-94024373D01*
X174328727Y-94024369D01*
X174189538Y-93983500D01*
X174189536Y-93983500D01*
X174044464Y-93983500D01*
X174044462Y-93983500D01*
X173905272Y-94024369D01*
X173905263Y-94024373D01*
X173783226Y-94102801D01*
X173688225Y-94212438D01*
X173688222Y-94212443D01*
X173627958Y-94344402D01*
X173627957Y-94344405D01*
X173607312Y-94488000D01*
X172594688Y-94488000D01*
X172574042Y-94344404D01*
X172513777Y-94212442D01*
X172422411Y-94107000D01*
X172418773Y-94102801D01*
X172296736Y-94024373D01*
X172296727Y-94024369D01*
X172157538Y-93983500D01*
X172157536Y-93983500D01*
X172012464Y-93983500D01*
X172012462Y-93983500D01*
X171873272Y-94024369D01*
X171873263Y-94024373D01*
X171751226Y-94102801D01*
X171656225Y-94212438D01*
X171656222Y-94212443D01*
X171595958Y-94344402D01*
X171595957Y-94344405D01*
X171575312Y-94488000D01*
X161296499Y-94488000D01*
X161134435Y-94232628D01*
X161134433Y-94232626D01*
X160933232Y-93989417D01*
X160703139Y-93773345D01*
X160632198Y-93721804D01*
X160447779Y-93587816D01*
X160447775Y-93587813D01*
X160171179Y-93435753D01*
X160171176Y-93435752D01*
X159877707Y-93319558D01*
X159877688Y-93319552D01*
X159571977Y-93241060D01*
X159571979Y-93241060D01*
X159321451Y-93209412D01*
X159258821Y-93201500D01*
X158943179Y-93201500D01*
X158880548Y-93209412D01*
X158630021Y-93241060D01*
X158324311Y-93319552D01*
X158324292Y-93319558D01*
X158030823Y-93435752D01*
X158030820Y-93435753D01*
X157754224Y-93587813D01*
X157754224Y-93587814D01*
X157498860Y-93773345D01*
X157268767Y-93989417D01*
X157067566Y-94232626D01*
X157067564Y-94232628D01*
X156898448Y-94499112D01*
X156898438Y-94499130D01*
X156764045Y-94784731D01*
X156764042Y-94784738D01*
X156666504Y-95084928D01*
X156607360Y-95394972D01*
X156607359Y-95394976D01*
X156588877Y-95688753D01*
X156578892Y-95709133D01*
X156473183Y-95709133D01*
X156464000Y-95684829D01*
X156464000Y-91846888D01*
X156482306Y-91802694D01*
X156572694Y-91712306D01*
X156616888Y-91694000D01*
X157678155Y-91694000D01*
X157722349Y-91712306D01*
X157740019Y-91747605D01*
X157752957Y-91837594D01*
X157752958Y-91837597D01*
X157813222Y-91969556D01*
X157813225Y-91969561D01*
X157908226Y-92079198D01*
X158030263Y-92157626D01*
X158030268Y-92157629D01*
X158169461Y-92198499D01*
X158169463Y-92198500D01*
X158169464Y-92198500D01*
X158314537Y-92198500D01*
X158314537Y-92198499D01*
X158453732Y-92157629D01*
X158499535Y-92128192D01*
X158575773Y-92079198D01*
X158670774Y-91969561D01*
X158670777Y-91969558D01*
X158731042Y-91837596D01*
X158743981Y-91747605D01*
X158768390Y-91706466D01*
X158805845Y-91694000D01*
X173609000Y-91694000D01*
X173736000Y-91694000D01*
X173736000Y-86512888D01*
X173754306Y-86468694D01*
X173844694Y-86378306D01*
X173888888Y-86360000D01*
X180187112Y-86360000D01*
X180231306Y-86378306D01*
X180321694Y-86468694D01*
X180340000Y-86512888D01*
X180340000Y-103606112D01*
X180321694Y-103650306D01*
X180231306Y-103740694D01*
X180187112Y-103759000D01*
X168021000Y-103759000D01*
X125755888Y-103759000D01*
X125711694Y-103740694D01*
X125621306Y-103650306D01*
X125603000Y-103606112D01*
X125603000Y-84405000D01*
X127075312Y-84405000D01*
X127095957Y-84548594D01*
X127095958Y-84548597D01*
X127156222Y-84680556D01*
X127156225Y-84680561D01*
X127251226Y-84790198D01*
X127373263Y-84868626D01*
X127373268Y-84868629D01*
X127512461Y-84909499D01*
X127512463Y-84909500D01*
X127512464Y-84909500D01*
X127657537Y-84909500D01*
X127657537Y-84909499D01*
X127796732Y-84868629D01*
X127873327Y-84819404D01*
X127918773Y-84790198D01*
X128013774Y-84680561D01*
X128013777Y-84680558D01*
X128074042Y-84548596D01*
X128094688Y-84405000D01*
X128074042Y-84261404D01*
X128013777Y-84129442D01*
X127980117Y-84090596D01*
X127918773Y-84019801D01*
X127796736Y-83941373D01*
X127796727Y-83941369D01*
X127657538Y-83900500D01*
X127657536Y-83900500D01*
X127512464Y-83900500D01*
X127512462Y-83900500D01*
X127373272Y-83941369D01*
X127373263Y-83941373D01*
X127251226Y-84019801D01*
X127156225Y-84129438D01*
X127156222Y-84129443D01*
X127095958Y-84261402D01*
X127095957Y-84261405D01*
X127075312Y-84405000D01*
X125603000Y-84405000D01*
X125603000Y-83135000D01*
X127048312Y-83135000D01*
X127068957Y-83278594D01*
X127068958Y-83278597D01*
X127129222Y-83410556D01*
X127129225Y-83410561D01*
X127224226Y-83520198D01*
X127321320Y-83582596D01*
X127346268Y-83598629D01*
X127485461Y-83639499D01*
X127485463Y-83639500D01*
X127485464Y-83639500D01*
X127630537Y-83639500D01*
X127630537Y-83639499D01*
X127769732Y-83598629D01*
X127827032Y-83561804D01*
X127891773Y-83520198D01*
X127959099Y-83442500D01*
X127986777Y-83410558D01*
X128047042Y-83278596D01*
X128067688Y-83135000D01*
X128047042Y-82991404D01*
X127986777Y-82859442D01*
X127986774Y-82859438D01*
X127891773Y-82749801D01*
X127769736Y-82671373D01*
X127769727Y-82671369D01*
X127630538Y-82630500D01*
X127630536Y-82630500D01*
X127485464Y-82630500D01*
X127485462Y-82630500D01*
X127346272Y-82671369D01*
X127346263Y-82671373D01*
X127224226Y-82749801D01*
X127129225Y-82859438D01*
X127129222Y-82859443D01*
X127068958Y-82991402D01*
X127068957Y-82991405D01*
X127048312Y-83135000D01*
X125603000Y-83135000D01*
X125603000Y-80595000D01*
X127075312Y-80595000D01*
X127095957Y-80738594D01*
X127095958Y-80738597D01*
X127156222Y-80870556D01*
X127156225Y-80870561D01*
X127251226Y-80980198D01*
X127348320Y-81042596D01*
X127373268Y-81058629D01*
X127512461Y-81099499D01*
X127512463Y-81099500D01*
X127512464Y-81099500D01*
X127657537Y-81099500D01*
X127657537Y-81099499D01*
X127796732Y-81058629D01*
X127854032Y-81021804D01*
X127918773Y-80980198D01*
X127945999Y-80948778D01*
X128013777Y-80870558D01*
X128074042Y-80738596D01*
X128094688Y-80595000D01*
X128074042Y-80451404D01*
X128013777Y-80319442D01*
X127985876Y-80287242D01*
X127918773Y-80209801D01*
X127796736Y-80131373D01*
X127796727Y-80131369D01*
X127657538Y-80090500D01*
X127657536Y-80090500D01*
X127512464Y-80090500D01*
X127512462Y-80090500D01*
X127373272Y-80131369D01*
X127373263Y-80131373D01*
X127251226Y-80209801D01*
X127156225Y-80319438D01*
X127156222Y-80319443D01*
X127095958Y-80451402D01*
X127095957Y-80451405D01*
X127075312Y-80595000D01*
X125603000Y-80595000D01*
X125603000Y-79325000D01*
X126948312Y-79325000D01*
X126968957Y-79468594D01*
X126968958Y-79468597D01*
X127029222Y-79600556D01*
X127029225Y-79600561D01*
X127124226Y-79710198D01*
X127229041Y-79777558D01*
X127246268Y-79788629D01*
X127372039Y-79825558D01*
X127385461Y-79829499D01*
X127385463Y-79829500D01*
X127385464Y-79829500D01*
X127530537Y-79829500D01*
X127530537Y-79829499D01*
X127669732Y-79788629D01*
X127754048Y-79734442D01*
X127791773Y-79710198D01*
X127840909Y-79653492D01*
X127886777Y-79600558D01*
X127947042Y-79468596D01*
X127967688Y-79325000D01*
X127947042Y-79181404D01*
X127886777Y-79049442D01*
X127886774Y-79049438D01*
X127791773Y-78939801D01*
X127669736Y-78861373D01*
X127669727Y-78861369D01*
X127530538Y-78820500D01*
X127530536Y-78820500D01*
X127385464Y-78820500D01*
X127385462Y-78820500D01*
X127246272Y-78861369D01*
X127246263Y-78861373D01*
X127124226Y-78939801D01*
X127029225Y-79049438D01*
X127029222Y-79049443D01*
X126968958Y-79181402D01*
X126968957Y-79181405D01*
X126948312Y-79325000D01*
X125603000Y-79325000D01*
X125603000Y-78055000D01*
X127075312Y-78055000D01*
X127095957Y-78198594D01*
X127095958Y-78198597D01*
X127156222Y-78330556D01*
X127156225Y-78330561D01*
X127251226Y-78440198D01*
X127348320Y-78502596D01*
X127373268Y-78518629D01*
X127415598Y-78531058D01*
X127512461Y-78559499D01*
X127512463Y-78559500D01*
X127512464Y-78559500D01*
X127657537Y-78559500D01*
X127657537Y-78559499D01*
X127796732Y-78518629D01*
X127881048Y-78464442D01*
X127918773Y-78440198D01*
X127954388Y-78399096D01*
X128013777Y-78330558D01*
X128074042Y-78198596D01*
X128094688Y-78055000D01*
X128074042Y-77911404D01*
X128013777Y-77779442D01*
X128003518Y-77767602D01*
X127918773Y-77669801D01*
X127796736Y-77591373D01*
X127796727Y-77591369D01*
X127657538Y-77550500D01*
X127657536Y-77550500D01*
X127512464Y-77550500D01*
X127512462Y-77550500D01*
X127373272Y-77591369D01*
X127373263Y-77591373D01*
X127251226Y-77669801D01*
X127156225Y-77779438D01*
X127156222Y-77779443D01*
X127095958Y-77911402D01*
X127095957Y-77911405D01*
X127075312Y-78055000D01*
X125603000Y-78055000D01*
X125603000Y-65024000D01*
X151001312Y-65024000D01*
X151021957Y-65167594D01*
X151021958Y-65167597D01*
X151082222Y-65299556D01*
X151082225Y-65299561D01*
X151177226Y-65409198D01*
X151299263Y-65487626D01*
X151299268Y-65487629D01*
X151438461Y-65528499D01*
X151438463Y-65528500D01*
X151438464Y-65528500D01*
X151583537Y-65528500D01*
X151583537Y-65528499D01*
X151722732Y-65487629D01*
X151768535Y-65458192D01*
X151844773Y-65409198D01*
X151939774Y-65299561D01*
X151939777Y-65299558D01*
X152000042Y-65167596D01*
X152020688Y-65024000D01*
X152525312Y-65024000D01*
X152545957Y-65167594D01*
X152545958Y-65167597D01*
X152606222Y-65299556D01*
X152606225Y-65299561D01*
X152701226Y-65409198D01*
X152823263Y-65487626D01*
X152823268Y-65487629D01*
X152962461Y-65528499D01*
X152962463Y-65528500D01*
X152962464Y-65528500D01*
X153107537Y-65528500D01*
X153107537Y-65528499D01*
X153246732Y-65487629D01*
X153292535Y-65458192D01*
X153368773Y-65409198D01*
X153463774Y-65299561D01*
X153463777Y-65299558D01*
X153524042Y-65167596D01*
X153544688Y-65024000D01*
X155700312Y-65024000D01*
X155720957Y-65167594D01*
X155720958Y-65167597D01*
X155781222Y-65299556D01*
X155781225Y-65299561D01*
X155876226Y-65409198D01*
X155998263Y-65487626D01*
X155998268Y-65487629D01*
X156137461Y-65528499D01*
X156137463Y-65528500D01*
X156137464Y-65528500D01*
X156282537Y-65528500D01*
X156282537Y-65528499D01*
X156421732Y-65487629D01*
X156467535Y-65458192D01*
X156543773Y-65409198D01*
X156638774Y-65299561D01*
X156638777Y-65299558D01*
X156699042Y-65167596D01*
X156719688Y-65024000D01*
X157224312Y-65024000D01*
X157244957Y-65167594D01*
X157244958Y-65167597D01*
X157305222Y-65299556D01*
X157305225Y-65299561D01*
X157400226Y-65409198D01*
X157522263Y-65487626D01*
X157522268Y-65487629D01*
X157661461Y-65528499D01*
X157661463Y-65528500D01*
X157661464Y-65528500D01*
X157806537Y-65528500D01*
X157806537Y-65528499D01*
X157945732Y-65487629D01*
X157991535Y-65458192D01*
X158067773Y-65409198D01*
X158162774Y-65299561D01*
X158162777Y-65299558D01*
X158223042Y-65167596D01*
X158243688Y-65024000D01*
X160399312Y-65024000D01*
X160419957Y-65167594D01*
X160419958Y-65167597D01*
X160480222Y-65299556D01*
X160480225Y-65299561D01*
X160575226Y-65409198D01*
X160697263Y-65487626D01*
X160697268Y-65487629D01*
X160836461Y-65528499D01*
X160836463Y-65528500D01*
X160836464Y-65528500D01*
X160981537Y-65528500D01*
X160981537Y-65528499D01*
X161120732Y-65487629D01*
X161166535Y-65458192D01*
X161242773Y-65409198D01*
X161337774Y-65299561D01*
X161337777Y-65299558D01*
X161398042Y-65167596D01*
X161418688Y-65024000D01*
X161398042Y-64880404D01*
X161337777Y-64748442D01*
X161337774Y-64748438D01*
X161242773Y-64638801D01*
X161120736Y-64560373D01*
X161120727Y-64560369D01*
X160981538Y-64519500D01*
X160981536Y-64519500D01*
X160836464Y-64519500D01*
X160836462Y-64519500D01*
X160697272Y-64560369D01*
X160697263Y-64560373D01*
X160575226Y-64638801D01*
X160480225Y-64748438D01*
X160480222Y-64748443D01*
X160419958Y-64880402D01*
X160419957Y-64880405D01*
X160399312Y-65024000D01*
X158243688Y-65024000D01*
X158223042Y-64880404D01*
X158162777Y-64748442D01*
X158162774Y-64748438D01*
X158067773Y-64638801D01*
X157945736Y-64560373D01*
X157945727Y-64560369D01*
X157806538Y-64519500D01*
X157806536Y-64519500D01*
X157661464Y-64519500D01*
X157661462Y-64519500D01*
X157522272Y-64560369D01*
X157522263Y-64560373D01*
X157400226Y-64638801D01*
X157305225Y-64748438D01*
X157305222Y-64748443D01*
X157244958Y-64880402D01*
X157244957Y-64880405D01*
X157224312Y-65024000D01*
X156719688Y-65024000D01*
X156699042Y-64880404D01*
X156638777Y-64748442D01*
X156638774Y-64748438D01*
X156543773Y-64638801D01*
X156421736Y-64560373D01*
X156421727Y-64560369D01*
X156282538Y-64519500D01*
X156282536Y-64519500D01*
X156137464Y-64519500D01*
X156137462Y-64519500D01*
X155998272Y-64560369D01*
X155998263Y-64560373D01*
X155876226Y-64638801D01*
X155781225Y-64748438D01*
X155781222Y-64748443D01*
X155720958Y-64880402D01*
X155720957Y-64880405D01*
X155700312Y-65024000D01*
X153544688Y-65024000D01*
X153524042Y-64880404D01*
X153463777Y-64748442D01*
X153463774Y-64748438D01*
X153368773Y-64638801D01*
X153246736Y-64560373D01*
X153246727Y-64560369D01*
X153107538Y-64519500D01*
X153107536Y-64519500D01*
X152962464Y-64519500D01*
X152962462Y-64519500D01*
X152823272Y-64560369D01*
X152823263Y-64560373D01*
X152701226Y-64638801D01*
X152606225Y-64748438D01*
X152606222Y-64748443D01*
X152545958Y-64880402D01*
X152545957Y-64880405D01*
X152525312Y-65024000D01*
X152020688Y-65024000D01*
X152000042Y-64880404D01*
X151939777Y-64748442D01*
X151939774Y-64748438D01*
X151844773Y-64638801D01*
X151722736Y-64560373D01*
X151722727Y-64560369D01*
X151583538Y-64519500D01*
X151583536Y-64519500D01*
X151438464Y-64519500D01*
X151438462Y-64519500D01*
X151299272Y-64560369D01*
X151299263Y-64560373D01*
X151177226Y-64638801D01*
X151082225Y-64748438D01*
X151082222Y-64748443D01*
X151021958Y-64880402D01*
X151021957Y-64880405D01*
X151001312Y-65024000D01*
X125603000Y-65024000D01*
X125603000Y-63906888D01*
X125621306Y-63862694D01*
X125711694Y-63772306D01*
X125755888Y-63754000D01*
X161772112Y-63754000D01*
X161816306Y-63772306D01*
G37*
G04 #@! TD.AperFunction*
G04 #@! TD*
G04 #@! TA.AperFunction,Conductor*
G04 #@! TO.N,+3.3V*
G36*
X152831159Y-68454201D02*
G01*
X152852772Y-68458500D01*
X153740652Y-68458500D01*
X153784846Y-68476806D01*
X153803152Y-68521000D01*
X153802516Y-68529894D01*
X153795312Y-68579999D01*
X153815957Y-68723594D01*
X153876223Y-68855558D01*
X153878641Y-68859320D01*
X153876497Y-68860697D01*
X153889000Y-68898251D01*
X153867592Y-68941029D01*
X153860452Y-68946375D01*
X153844223Y-68956805D01*
X153749225Y-69066438D01*
X153749222Y-69066443D01*
X153688958Y-69198402D01*
X153688957Y-69198405D01*
X153668312Y-69342000D01*
X153688957Y-69485594D01*
X153688958Y-69485597D01*
X153749222Y-69617556D01*
X153749225Y-69617561D01*
X153844226Y-69727198D01*
X153966263Y-69805626D01*
X153966268Y-69805629D01*
X154105461Y-69846499D01*
X154105463Y-69846500D01*
X154105464Y-69846500D01*
X154250537Y-69846500D01*
X154250537Y-69846499D01*
X154389732Y-69805629D01*
X154490349Y-69740966D01*
X154511773Y-69727198D01*
X154515411Y-69723000D01*
X154606777Y-69617558D01*
X154667042Y-69485596D01*
X154687688Y-69342000D01*
X154669428Y-69215000D01*
X156716312Y-69215000D01*
X156736957Y-69358594D01*
X156736958Y-69358597D01*
X156797222Y-69490556D01*
X156797225Y-69490561D01*
X156892226Y-69600198D01*
X157014263Y-69678626D01*
X157014268Y-69678629D01*
X157104173Y-69705027D01*
X157153461Y-69719499D01*
X157153463Y-69719500D01*
X157153464Y-69719500D01*
X157298537Y-69719500D01*
X157298537Y-69719499D01*
X157437732Y-69678629D01*
X157506883Y-69634188D01*
X157559773Y-69600198D01*
X157559775Y-69600196D01*
X157654777Y-69490558D01*
X157715042Y-69358596D01*
X157735688Y-69215000D01*
X157715042Y-69071404D01*
X157654777Y-68939442D01*
X157616268Y-68895000D01*
X157559773Y-68829801D01*
X157437736Y-68751373D01*
X157437727Y-68751369D01*
X157298538Y-68710500D01*
X157298536Y-68710500D01*
X157153464Y-68710500D01*
X157153462Y-68710500D01*
X157014272Y-68751369D01*
X157014263Y-68751373D01*
X156892226Y-68829801D01*
X156797225Y-68939438D01*
X156797222Y-68939443D01*
X156736958Y-69071402D01*
X156736957Y-69071405D01*
X156716312Y-69215000D01*
X154669428Y-69215000D01*
X154667042Y-69198404D01*
X154606777Y-69066442D01*
X154606774Y-69066438D01*
X154604359Y-69062680D01*
X154606503Y-69061301D01*
X154593998Y-69023755D01*
X154615402Y-68980975D01*
X154622547Y-68975624D01*
X154638775Y-68965196D01*
X154733777Y-68855558D01*
X154794042Y-68723596D01*
X154814688Y-68580000D01*
X154807484Y-68529894D01*
X154819314Y-68483545D01*
X154860454Y-68459136D01*
X154869348Y-68458500D01*
X158008824Y-68458500D01*
X158053018Y-68476806D01*
X158071324Y-68521000D01*
X158056058Y-68561929D01*
X158006225Y-68619438D01*
X158006222Y-68619443D01*
X157945958Y-68751402D01*
X157945957Y-68751405D01*
X157925312Y-68895000D01*
X157945957Y-69038594D01*
X157945958Y-69038597D01*
X158006222Y-69170556D01*
X158006225Y-69170561D01*
X158101226Y-69280198D01*
X158223218Y-69358597D01*
X158223268Y-69358629D01*
X158362461Y-69399499D01*
X158362463Y-69399500D01*
X158362464Y-69399500D01*
X158507537Y-69399500D01*
X158507537Y-69399499D01*
X158646732Y-69358629D01*
X158712891Y-69316111D01*
X158768773Y-69280198D01*
X158786820Y-69259371D01*
X158863777Y-69170558D01*
X158924042Y-69038596D01*
X158944688Y-68895000D01*
X158924042Y-68751404D01*
X158863777Y-68619442D01*
X158852032Y-68605888D01*
X158813942Y-68561929D01*
X158798835Y-68516542D01*
X158820247Y-68473766D01*
X158861176Y-68458500D01*
X159237612Y-68458500D01*
X159281806Y-68476806D01*
X159361194Y-68556194D01*
X159379500Y-68600388D01*
X159379500Y-69156000D01*
X159361194Y-69200194D01*
X159317000Y-69218500D01*
X159312462Y-69218500D01*
X159173272Y-69259369D01*
X159173263Y-69259373D01*
X159051226Y-69337801D01*
X158956225Y-69447438D01*
X158956222Y-69447443D01*
X158895958Y-69579402D01*
X158895957Y-69579405D01*
X158875312Y-69723000D01*
X158895957Y-69866594D01*
X158895958Y-69866597D01*
X158956222Y-69998556D01*
X158956225Y-69998561D01*
X159051226Y-70108198D01*
X159173263Y-70186626D01*
X159173268Y-70186629D01*
X159231309Y-70203671D01*
X159312461Y-70227499D01*
X159312463Y-70227500D01*
X159312464Y-70227500D01*
X159457537Y-70227500D01*
X159457537Y-70227499D01*
X159596732Y-70186629D01*
X159660826Y-70145438D01*
X159718773Y-70108198D01*
X159718775Y-70108196D01*
X159813777Y-69998558D01*
X159874042Y-69866596D01*
X159881935Y-69811694D01*
X159886190Y-69782105D01*
X159910599Y-69740966D01*
X159948054Y-69728500D01*
X161772112Y-69728500D01*
X161772113Y-69728500D01*
X161793725Y-69724200D01*
X161805918Y-69723000D01*
X162052000Y-69723000D01*
X162179000Y-69723000D01*
X162179000Y-69349917D01*
X162180201Y-69337723D01*
X162184500Y-69316111D01*
X162184500Y-68600388D01*
X162202806Y-68556194D01*
X162287694Y-68471306D01*
X162331888Y-68453000D01*
X168122112Y-68453000D01*
X168166306Y-68471306D01*
X168256694Y-68561694D01*
X168275000Y-68605888D01*
X168275000Y-77443500D01*
X168256694Y-77487694D01*
X168212500Y-77506000D01*
X168169962Y-77506000D01*
X168030772Y-77546869D01*
X168030763Y-77546873D01*
X167908726Y-77625301D01*
X167813725Y-77734938D01*
X167813722Y-77734943D01*
X167753458Y-77866902D01*
X167753457Y-77866905D01*
X167732812Y-78010500D01*
X167753457Y-78154094D01*
X167753458Y-78154097D01*
X167813722Y-78286056D01*
X167813725Y-78286061D01*
X167908726Y-78395698D01*
X168030763Y-78474126D01*
X168030768Y-78474129D01*
X168169961Y-78514999D01*
X168169963Y-78515000D01*
X168212500Y-78515000D01*
X168256694Y-78533306D01*
X168275000Y-78577500D01*
X168275000Y-83566000D01*
X173329112Y-83566000D01*
X173373306Y-83584306D01*
X173463694Y-83674694D01*
X173482000Y-83718888D01*
X173482000Y-86479081D01*
X173480799Y-86491274D01*
X173476500Y-86512886D01*
X173476500Y-91292612D01*
X173458194Y-91336806D01*
X173378806Y-91416194D01*
X173334612Y-91434500D01*
X165304006Y-91434500D01*
X165259812Y-91416194D01*
X165241506Y-91372000D01*
X165259812Y-91327806D01*
X165295113Y-91310136D01*
X165299531Y-91309500D01*
X165299536Y-91309500D01*
X165438732Y-91268629D01*
X165498265Y-91230369D01*
X165560773Y-91190198D01*
X165655774Y-91080561D01*
X165655777Y-91080558D01*
X165716042Y-90948596D01*
X165736688Y-90805000D01*
X165716042Y-90661404D01*
X165655777Y-90529442D01*
X165599874Y-90464927D01*
X165584768Y-90419542D01*
X165599874Y-90383072D01*
X165655777Y-90318558D01*
X165716042Y-90186596D01*
X165736688Y-90043000D01*
X165716042Y-89899404D01*
X165655777Y-89767442D01*
X165599874Y-89702927D01*
X165584768Y-89657542D01*
X165599874Y-89621072D01*
X165655777Y-89556558D01*
X165716042Y-89424596D01*
X165736688Y-89281000D01*
X165716042Y-89137404D01*
X165655777Y-89005442D01*
X165655774Y-89005438D01*
X165560773Y-88895801D01*
X165438736Y-88817373D01*
X165438727Y-88817369D01*
X165299538Y-88776500D01*
X165299536Y-88776500D01*
X165154464Y-88776500D01*
X165154462Y-88776500D01*
X165015272Y-88817369D01*
X165015263Y-88817373D01*
X164893226Y-88895801D01*
X164798225Y-89005438D01*
X164798222Y-89005443D01*
X164737958Y-89137402D01*
X164737957Y-89137405D01*
X164717312Y-89281000D01*
X164737957Y-89424594D01*
X164737958Y-89424597D01*
X164798222Y-89556556D01*
X164798225Y-89556561D01*
X164854123Y-89621071D01*
X164869230Y-89666459D01*
X164854123Y-89702929D01*
X164798225Y-89767438D01*
X164798222Y-89767443D01*
X164737958Y-89899402D01*
X164737957Y-89899405D01*
X164717312Y-90043000D01*
X164737957Y-90186594D01*
X164737958Y-90186597D01*
X164798222Y-90318556D01*
X164798225Y-90318561D01*
X164854123Y-90383071D01*
X164869230Y-90428459D01*
X164854123Y-90464929D01*
X164798225Y-90529438D01*
X164798222Y-90529443D01*
X164737958Y-90661402D01*
X164737957Y-90661405D01*
X164717312Y-90805000D01*
X164737957Y-90948594D01*
X164737958Y-90948597D01*
X164798222Y-91080556D01*
X164798225Y-91080561D01*
X164893226Y-91190198D01*
X165015263Y-91268626D01*
X165015268Y-91268629D01*
X165154464Y-91309500D01*
X165154468Y-91309500D01*
X165158887Y-91310136D01*
X165200027Y-91334544D01*
X165211858Y-91380893D01*
X165187450Y-91422033D01*
X165149994Y-91434500D01*
X158805845Y-91434500D01*
X158805840Y-91434500D01*
X158805837Y-91434501D01*
X158789237Y-91437191D01*
X158776869Y-91439195D01*
X158766874Y-91440000D01*
X158718000Y-91440000D01*
X158673806Y-91421694D01*
X158670766Y-91418429D01*
X158575773Y-91308801D01*
X158453736Y-91230373D01*
X158453727Y-91230369D01*
X158314538Y-91189500D01*
X158314536Y-91189500D01*
X158169464Y-91189500D01*
X158169462Y-91189500D01*
X158030272Y-91230369D01*
X158030263Y-91230373D01*
X157908226Y-91308801D01*
X157813234Y-91418429D01*
X157770459Y-91439841D01*
X157766000Y-91440000D01*
X157711961Y-91440000D01*
X157699768Y-91438799D01*
X157678155Y-91434500D01*
X156616887Y-91434500D01*
X156595274Y-91438799D01*
X156583082Y-91440000D01*
X156210000Y-91440000D01*
X156210000Y-91567000D01*
X156210000Y-91813081D01*
X156208799Y-91825274D01*
X156204500Y-91846886D01*
X156204500Y-95684830D01*
X156207151Y-95699347D01*
X156206967Y-95722760D01*
X156204500Y-95735165D01*
X156204500Y-98531612D01*
X156186194Y-98575806D01*
X156106806Y-98655194D01*
X156062612Y-98673500D01*
X137942388Y-98673500D01*
X137898194Y-98655194D01*
X137818806Y-98575806D01*
X137800500Y-98531612D01*
X137800500Y-96510000D01*
X144645726Y-96510000D01*
X144664762Y-96678950D01*
X144664763Y-96678954D01*
X144720919Y-96839439D01*
X144720921Y-96839443D01*
X144811374Y-96983398D01*
X144931601Y-97103625D01*
X145075556Y-97194078D01*
X145075559Y-97194079D01*
X145075563Y-97194082D01*
X145236046Y-97250237D01*
X145405000Y-97269274D01*
X145573954Y-97250237D01*
X145734437Y-97194082D01*
X145878400Y-97103624D01*
X145995806Y-96986218D01*
X146040000Y-96967912D01*
X146084194Y-96986218D01*
X146198782Y-97100806D01*
X146217088Y-97145000D01*
X146198782Y-97189194D01*
X146081375Y-97306600D01*
X146081374Y-97306601D01*
X145990921Y-97450556D01*
X145990919Y-97450560D01*
X145934763Y-97611045D01*
X145934762Y-97611049D01*
X145915726Y-97780000D01*
X145934762Y-97948950D01*
X145934763Y-97948954D01*
X145990919Y-98109439D01*
X145990921Y-98109443D01*
X146081374Y-98253398D01*
X146201601Y-98373625D01*
X146345556Y-98464078D01*
X146345559Y-98464079D01*
X146345563Y-98464082D01*
X146506046Y-98520237D01*
X146675000Y-98539274D01*
X146843954Y-98520237D01*
X147004437Y-98464082D01*
X147148400Y-98373624D01*
X147265806Y-98256218D01*
X147310000Y-98237912D01*
X147354194Y-98256218D01*
X147471601Y-98373625D01*
X147615556Y-98464078D01*
X147615559Y-98464079D01*
X147615563Y-98464082D01*
X147776046Y-98520237D01*
X147945000Y-98539274D01*
X148113954Y-98520237D01*
X148274437Y-98464082D01*
X148418400Y-98373624D01*
X148535806Y-98256218D01*
X148580000Y-98237912D01*
X148624194Y-98256218D01*
X148741601Y-98373625D01*
X148885556Y-98464078D01*
X148885559Y-98464079D01*
X148885563Y-98464082D01*
X149046046Y-98520237D01*
X149215000Y-98539274D01*
X149383954Y-98520237D01*
X149544437Y-98464082D01*
X149688400Y-98373624D01*
X149805806Y-98256218D01*
X149850000Y-98237912D01*
X149894194Y-98256218D01*
X150011601Y-98373625D01*
X150155556Y-98464078D01*
X150155559Y-98464079D01*
X150155563Y-98464082D01*
X150316046Y-98520237D01*
X150485000Y-98539274D01*
X150653954Y-98520237D01*
X150814437Y-98464082D01*
X150958400Y-98373624D01*
X151078624Y-98253400D01*
X151169082Y-98109437D01*
X151225237Y-97948954D01*
X151244274Y-97780000D01*
X151225237Y-97611046D01*
X151169082Y-97450563D01*
X151078624Y-97306600D01*
X150961218Y-97189194D01*
X150942912Y-97145000D01*
X150961218Y-97100806D01*
X151078624Y-96983400D01*
X151169082Y-96839437D01*
X151225237Y-96678954D01*
X151244274Y-96510000D01*
X151225237Y-96341046D01*
X151169082Y-96180563D01*
X151078624Y-96036600D01*
X150958400Y-95916376D01*
X150958398Y-95916374D01*
X150814443Y-95825921D01*
X150814439Y-95825919D01*
X150814438Y-95825918D01*
X150814437Y-95825918D01*
X150653954Y-95769763D01*
X150653950Y-95769762D01*
X150485000Y-95750726D01*
X150316049Y-95769762D01*
X150316045Y-95769763D01*
X150155560Y-95825919D01*
X150155556Y-95825921D01*
X150011601Y-95916374D01*
X150011600Y-95916375D01*
X149894194Y-96033782D01*
X149850000Y-96052088D01*
X149805806Y-96033782D01*
X149688398Y-95916374D01*
X149544443Y-95825921D01*
X149544439Y-95825919D01*
X149544438Y-95825918D01*
X149544437Y-95825918D01*
X149383954Y-95769763D01*
X149383950Y-95769762D01*
X149215000Y-95750726D01*
X149046049Y-95769762D01*
X149046045Y-95769763D01*
X148885560Y-95825919D01*
X148885556Y-95825921D01*
X148741601Y-95916374D01*
X148741600Y-95916375D01*
X148624194Y-96033782D01*
X148580000Y-96052088D01*
X148535806Y-96033782D01*
X148418398Y-95916374D01*
X148274443Y-95825921D01*
X148274439Y-95825919D01*
X148274438Y-95825918D01*
X148274437Y-95825918D01*
X148113954Y-95769763D01*
X148113950Y-95769762D01*
X147945000Y-95750726D01*
X147776049Y-95769762D01*
X147776045Y-95769763D01*
X147615560Y-95825919D01*
X147615556Y-95825921D01*
X147471601Y-95916374D01*
X147471600Y-95916375D01*
X147354194Y-96033782D01*
X147310000Y-96052088D01*
X147265806Y-96033782D01*
X147148398Y-95916374D01*
X147004443Y-95825921D01*
X147004439Y-95825919D01*
X147004438Y-95825918D01*
X147004437Y-95825918D01*
X146843954Y-95769763D01*
X146843950Y-95769762D01*
X146675000Y-95750726D01*
X146506049Y-95769762D01*
X146506045Y-95769763D01*
X146345560Y-95825919D01*
X146345556Y-95825921D01*
X146201601Y-95916374D01*
X146201600Y-95916375D01*
X146084194Y-96033782D01*
X146040000Y-96052088D01*
X145995806Y-96033782D01*
X145878398Y-95916374D01*
X145734443Y-95825921D01*
X145734439Y-95825919D01*
X145734438Y-95825918D01*
X145734437Y-95825918D01*
X145573954Y-95769763D01*
X145573950Y-95769762D01*
X145405000Y-95750726D01*
X145236049Y-95769762D01*
X145236045Y-95769763D01*
X145075560Y-95825919D01*
X145075556Y-95825921D01*
X144931601Y-95916374D01*
X144811374Y-96036601D01*
X144720921Y-96180556D01*
X144720919Y-96180560D01*
X144664763Y-96341045D01*
X144664762Y-96341049D01*
X144645726Y-96510000D01*
X137800500Y-96510000D01*
X137800500Y-95148887D01*
X137796201Y-95127274D01*
X137795000Y-95115081D01*
X137795000Y-94869000D01*
X137795000Y-94742000D01*
X137668000Y-94742000D01*
X137421918Y-94742000D01*
X137409725Y-94740799D01*
X137388112Y-94736500D01*
X136545388Y-94736500D01*
X136501194Y-94718194D01*
X136421588Y-94638588D01*
X136403282Y-94594394D01*
X136403500Y-94589966D01*
X136403500Y-91948000D01*
X137348812Y-91948000D01*
X137369457Y-92091594D01*
X137369458Y-92091597D01*
X137429722Y-92223556D01*
X137429725Y-92223561D01*
X137524726Y-92333198D01*
X137646763Y-92411626D01*
X137646768Y-92411629D01*
X137785961Y-92452499D01*
X137785963Y-92452500D01*
X137785964Y-92452500D01*
X137931037Y-92452500D01*
X137931037Y-92452499D01*
X138070232Y-92411629D01*
X138116035Y-92382192D01*
X138192273Y-92333198D01*
X138287274Y-92223561D01*
X138287277Y-92223558D01*
X138347542Y-92091596D01*
X138368188Y-91948000D01*
X138347542Y-91804404D01*
X138287277Y-91672442D01*
X138287274Y-91672438D01*
X138192273Y-91562801D01*
X138070236Y-91484373D01*
X138070227Y-91484369D01*
X137931038Y-91443500D01*
X137931036Y-91443500D01*
X137785964Y-91443500D01*
X137785962Y-91443500D01*
X137646772Y-91484369D01*
X137646763Y-91484373D01*
X137524726Y-91562801D01*
X137429725Y-91672438D01*
X137429722Y-91672443D01*
X137369458Y-91804402D01*
X137369457Y-91804405D01*
X137348812Y-91948000D01*
X136403500Y-91948000D01*
X136403500Y-90958718D01*
X136403500Y-90958708D01*
X136400858Y-90921772D01*
X136398635Y-90906317D01*
X136398000Y-90897425D01*
X136398000Y-90440211D01*
X136398636Y-90431317D01*
X136399688Y-90423999D01*
X136399688Y-90423998D01*
X136398636Y-90416681D01*
X136398000Y-90407788D01*
X136398000Y-90170000D01*
X141730312Y-90170000D01*
X141750957Y-90313594D01*
X141750958Y-90313597D01*
X141811222Y-90445556D01*
X141811225Y-90445561D01*
X141906226Y-90555198D01*
X142028263Y-90633626D01*
X142028268Y-90633629D01*
X142122866Y-90661405D01*
X142167461Y-90674499D01*
X142167463Y-90674500D01*
X142167464Y-90674500D01*
X142312537Y-90674500D01*
X142312537Y-90674499D01*
X142451732Y-90633629D01*
X142497535Y-90604192D01*
X142573773Y-90555198D01*
X142573775Y-90555196D01*
X142668777Y-90445558D01*
X142729042Y-90313596D01*
X142749688Y-90170000D01*
X142729042Y-90026404D01*
X142668777Y-89894442D01*
X142664313Y-89889290D01*
X142573773Y-89784801D01*
X142451736Y-89706373D01*
X142451727Y-89706369D01*
X142312538Y-89665500D01*
X142312536Y-89665500D01*
X142167464Y-89665500D01*
X142167462Y-89665500D01*
X142028272Y-89706369D01*
X142028263Y-89706373D01*
X141906226Y-89784801D01*
X141811225Y-89894438D01*
X141811222Y-89894443D01*
X141750958Y-90026402D01*
X141750957Y-90026405D01*
X141730312Y-90170000D01*
X136398000Y-90170000D01*
X136398000Y-89923096D01*
X136399201Y-89910902D01*
X136403500Y-89889290D01*
X136403500Y-88773000D01*
X156970312Y-88773000D01*
X156990957Y-88916594D01*
X156990958Y-88916597D01*
X157051222Y-89048556D01*
X157051225Y-89048561D01*
X157146226Y-89158198D01*
X157248203Y-89223734D01*
X157268268Y-89236629D01*
X157407461Y-89277499D01*
X157407463Y-89277500D01*
X157407464Y-89277500D01*
X157552537Y-89277500D01*
X157552537Y-89277499D01*
X157691732Y-89236629D01*
X157737535Y-89207192D01*
X157813773Y-89158198D01*
X157817411Y-89154000D01*
X157908777Y-89048558D01*
X157969042Y-88916596D01*
X157988767Y-88779399D01*
X158013176Y-88738261D01*
X158059525Y-88726431D01*
X158068239Y-88728327D01*
X158208461Y-88769499D01*
X158208463Y-88769500D01*
X158208464Y-88769500D01*
X158353537Y-88769500D01*
X158353537Y-88769499D01*
X158492732Y-88728629D01*
X158587444Y-88667761D01*
X158614773Y-88650198D01*
X158614775Y-88650196D01*
X158709777Y-88540558D01*
X158770042Y-88408596D01*
X158790688Y-88265000D01*
X158770042Y-88121404D01*
X158709777Y-87989442D01*
X158709774Y-87989438D01*
X158614773Y-87879801D01*
X158492736Y-87801373D01*
X158492727Y-87801369D01*
X158353538Y-87760500D01*
X158353536Y-87760500D01*
X158208464Y-87760500D01*
X158208462Y-87760500D01*
X158069272Y-87801369D01*
X158069263Y-87801373D01*
X157947226Y-87879801D01*
X157852225Y-87989438D01*
X157852222Y-87989443D01*
X157791958Y-88121402D01*
X157791957Y-88121405D01*
X157772232Y-88258599D01*
X157747823Y-88299738D01*
X157701473Y-88311568D01*
X157692760Y-88309672D01*
X157552538Y-88268500D01*
X157552536Y-88268500D01*
X157407464Y-88268500D01*
X157407462Y-88268500D01*
X157268272Y-88309369D01*
X157268263Y-88309373D01*
X157146226Y-88387801D01*
X157051225Y-88497438D01*
X157051222Y-88497443D01*
X156990958Y-88629402D01*
X156990957Y-88629405D01*
X156970312Y-88773000D01*
X136403500Y-88773000D01*
X136403500Y-88138000D01*
X145794312Y-88138000D01*
X145814957Y-88281594D01*
X145814958Y-88281597D01*
X145875222Y-88413556D01*
X145875225Y-88413561D01*
X145970226Y-88523198D01*
X146092263Y-88601626D01*
X146092268Y-88601629D01*
X146186866Y-88629405D01*
X146231461Y-88642499D01*
X146231463Y-88642500D01*
X146231464Y-88642500D01*
X146376537Y-88642500D01*
X146376537Y-88642499D01*
X146515732Y-88601629D01*
X146561535Y-88572192D01*
X146637773Y-88523198D01*
X146732774Y-88413561D01*
X146732777Y-88413558D01*
X146793042Y-88281596D01*
X146813688Y-88138000D01*
X146793042Y-87994404D01*
X146732777Y-87862442D01*
X146732774Y-87862438D01*
X146637773Y-87752801D01*
X146515736Y-87674373D01*
X146515727Y-87674369D01*
X146376538Y-87633500D01*
X146376536Y-87633500D01*
X146231464Y-87633500D01*
X146231462Y-87633500D01*
X146092272Y-87674369D01*
X146092263Y-87674373D01*
X145970226Y-87752801D01*
X145875225Y-87862438D01*
X145875222Y-87862443D01*
X145814958Y-87994402D01*
X145814957Y-87994405D01*
X145794312Y-88138000D01*
X136403500Y-88138000D01*
X136403500Y-87122000D01*
X146937312Y-87122000D01*
X146957957Y-87265594D01*
X146957958Y-87265597D01*
X147018222Y-87397556D01*
X147018225Y-87397561D01*
X147113226Y-87507198D01*
X147235263Y-87585626D01*
X147235268Y-87585629D01*
X147374461Y-87626499D01*
X147374463Y-87626500D01*
X147374464Y-87626500D01*
X147519537Y-87626500D01*
X147519537Y-87626499D01*
X147658732Y-87585629D01*
X147704535Y-87556192D01*
X147780773Y-87507198D01*
X147780775Y-87507196D01*
X147875777Y-87397558D01*
X147936042Y-87265596D01*
X147956688Y-87122000D01*
X147936042Y-86978404D01*
X147875777Y-86846442D01*
X147875774Y-86846438D01*
X147780773Y-86736801D01*
X147658736Y-86658373D01*
X147658727Y-86658369D01*
X147519538Y-86617500D01*
X147519536Y-86617500D01*
X147374464Y-86617500D01*
X147374462Y-86617500D01*
X147235272Y-86658369D01*
X147235263Y-86658373D01*
X147113226Y-86736801D01*
X147018225Y-86846438D01*
X147018222Y-86846443D01*
X146957958Y-86978402D01*
X146957957Y-86978405D01*
X146937312Y-87122000D01*
X136403500Y-87122000D01*
X136403500Y-86550000D01*
X145794312Y-86550000D01*
X145814957Y-86693594D01*
X145814958Y-86693597D01*
X145875222Y-86825556D01*
X145875225Y-86825561D01*
X145970226Y-86935198D01*
X146089106Y-87011597D01*
X146092268Y-87013629D01*
X146231461Y-87054499D01*
X146231463Y-87054500D01*
X146231464Y-87054500D01*
X146376537Y-87054500D01*
X146376537Y-87054499D01*
X146515732Y-87013629D01*
X146570546Y-86978402D01*
X146637773Y-86935198D01*
X146657553Y-86912371D01*
X146732777Y-86825558D01*
X146793042Y-86693596D01*
X146813688Y-86550000D01*
X146796075Y-86427500D01*
X155446312Y-86427500D01*
X155466957Y-86571094D01*
X155466958Y-86571097D01*
X155527222Y-86703056D01*
X155527225Y-86703061D01*
X155622226Y-86812698D01*
X155739139Y-86887833D01*
X155744268Y-86891129D01*
X155883461Y-86931999D01*
X155883463Y-86932000D01*
X156033006Y-86932000D01*
X156033006Y-86933596D01*
X156073744Y-86943994D01*
X156098153Y-86985133D01*
X156101957Y-87011594D01*
X156101958Y-87011597D01*
X156162222Y-87143556D01*
X156162225Y-87143561D01*
X156257226Y-87253198D01*
X156379263Y-87331626D01*
X156379268Y-87331629D01*
X156462835Y-87356166D01*
X156518461Y-87372499D01*
X156518463Y-87372500D01*
X156661652Y-87372500D01*
X156705846Y-87390806D01*
X156723516Y-87426105D01*
X156736957Y-87519594D01*
X156736958Y-87519597D01*
X156797222Y-87651556D01*
X156797225Y-87651561D01*
X156892226Y-87761198D01*
X157014263Y-87839626D01*
X157014268Y-87839629D01*
X157151094Y-87879804D01*
X157153461Y-87880499D01*
X157153463Y-87880500D01*
X157153464Y-87880500D01*
X157298537Y-87880500D01*
X157298537Y-87880499D01*
X157437732Y-87839629D01*
X157497265Y-87801369D01*
X157559773Y-87761198D01*
X157560378Y-87760500D01*
X157654777Y-87651558D01*
X157715042Y-87519596D01*
X157735688Y-87376000D01*
X157715042Y-87232404D01*
X157654777Y-87100442D01*
X157654774Y-87100438D01*
X157559773Y-86990801D01*
X157437736Y-86912373D01*
X157437727Y-86912369D01*
X157298538Y-86871500D01*
X157298536Y-86871500D01*
X157155348Y-86871500D01*
X157111154Y-86853194D01*
X157093484Y-86817895D01*
X157080042Y-86724405D01*
X157080041Y-86724402D01*
X157077961Y-86719848D01*
X157019777Y-86592442D01*
X157019774Y-86592438D01*
X156924773Y-86482801D01*
X156802736Y-86404373D01*
X156802727Y-86404369D01*
X156663538Y-86363500D01*
X156663536Y-86363500D01*
X156518464Y-86363500D01*
X156513994Y-86363500D01*
X156513994Y-86361904D01*
X156473253Y-86351504D01*
X156448846Y-86310365D01*
X156445042Y-86283906D01*
X156445041Y-86283902D01*
X156404124Y-86194306D01*
X156384777Y-86151942D01*
X156384774Y-86151938D01*
X156289773Y-86042301D01*
X156167736Y-85963873D01*
X156167727Y-85963869D01*
X156028538Y-85923000D01*
X156028536Y-85923000D01*
X155883464Y-85923000D01*
X155883462Y-85923000D01*
X155744272Y-85963869D01*
X155744263Y-85963873D01*
X155622226Y-86042301D01*
X155527225Y-86151938D01*
X155527222Y-86151943D01*
X155466958Y-86283902D01*
X155466957Y-86283905D01*
X155446312Y-86427500D01*
X146796075Y-86427500D01*
X146793042Y-86406404D01*
X146732777Y-86274442D01*
X146732774Y-86274438D01*
X146637773Y-86164801D01*
X146515736Y-86086373D01*
X146515727Y-86086369D01*
X146376538Y-86045500D01*
X146376536Y-86045500D01*
X146231464Y-86045500D01*
X146231462Y-86045500D01*
X146092272Y-86086369D01*
X146092263Y-86086373D01*
X145970226Y-86164801D01*
X145875225Y-86274438D01*
X145875222Y-86274443D01*
X145814958Y-86406402D01*
X145814957Y-86406405D01*
X145794312Y-86550000D01*
X136403500Y-86550000D01*
X136403500Y-86194309D01*
X136398636Y-86160476D01*
X136398000Y-86151582D01*
X136398000Y-85289497D01*
X136399201Y-85277303D01*
X136403500Y-85255691D01*
X136403500Y-84963000D01*
X140206312Y-84963000D01*
X140226957Y-85106594D01*
X140226958Y-85106597D01*
X140287222Y-85238556D01*
X140287225Y-85238561D01*
X140382226Y-85348198D01*
X140504263Y-85426626D01*
X140504268Y-85426629D01*
X140643461Y-85467499D01*
X140643463Y-85467500D01*
X140643464Y-85467500D01*
X140788537Y-85467500D01*
X140788537Y-85467499D01*
X140927732Y-85426629D01*
X140973535Y-85397192D01*
X141049773Y-85348198D01*
X141145016Y-85238283D01*
X141187792Y-85216871D01*
X141233179Y-85231978D01*
X141239484Y-85238283D01*
X141334726Y-85348198D01*
X141456763Y-85426626D01*
X141456768Y-85426629D01*
X141595961Y-85467499D01*
X141595963Y-85467500D01*
X141595964Y-85467500D01*
X141741037Y-85467500D01*
X141741037Y-85467499D01*
X141880232Y-85426629D01*
X141926035Y-85397192D01*
X142002273Y-85348198D01*
X142097274Y-85238561D01*
X142097277Y-85238558D01*
X142157542Y-85106596D01*
X142178188Y-84963000D01*
X142157542Y-84819404D01*
X142097277Y-84687442D01*
X142097274Y-84687438D01*
X142002273Y-84577801D01*
X141880236Y-84499373D01*
X141880227Y-84499369D01*
X141741038Y-84458500D01*
X141741036Y-84458500D01*
X141595964Y-84458500D01*
X141595962Y-84458500D01*
X141456772Y-84499369D01*
X141456763Y-84499373D01*
X141334726Y-84577801D01*
X141239484Y-84687716D01*
X141196708Y-84709128D01*
X141151321Y-84694021D01*
X141145016Y-84687716D01*
X141049773Y-84577801D01*
X140927736Y-84499373D01*
X140927727Y-84499369D01*
X140788538Y-84458500D01*
X140788536Y-84458500D01*
X140643464Y-84458500D01*
X140643462Y-84458500D01*
X140504272Y-84499369D01*
X140504263Y-84499373D01*
X140382226Y-84577801D01*
X140287225Y-84687438D01*
X140287222Y-84687443D01*
X140226958Y-84819402D01*
X140226957Y-84819405D01*
X140206312Y-84963000D01*
X136403500Y-84963000D01*
X136403500Y-83947000D01*
X138936312Y-83947000D01*
X138956957Y-84090594D01*
X138956958Y-84090597D01*
X139017222Y-84222556D01*
X139017225Y-84222561D01*
X139112226Y-84332198D01*
X139225506Y-84404998D01*
X139234268Y-84410629D01*
X139373461Y-84451499D01*
X139373463Y-84451500D01*
X139373464Y-84451500D01*
X139518537Y-84451500D01*
X139518537Y-84451499D01*
X139657732Y-84410629D01*
X139703535Y-84381192D01*
X139779773Y-84332198D01*
X139779775Y-84332196D01*
X139874777Y-84222558D01*
X139935042Y-84090596D01*
X139955688Y-83947000D01*
X139935042Y-83803404D01*
X139874777Y-83671442D01*
X139874774Y-83671438D01*
X139779773Y-83561801D01*
X139657736Y-83483373D01*
X139657727Y-83483369D01*
X139518538Y-83442500D01*
X139518536Y-83442500D01*
X139373464Y-83442500D01*
X139373462Y-83442500D01*
X139234272Y-83483369D01*
X139234263Y-83483373D01*
X139112226Y-83561801D01*
X139017225Y-83671438D01*
X139017222Y-83671443D01*
X138956958Y-83803402D01*
X138956957Y-83803405D01*
X138936312Y-83947000D01*
X136403500Y-83947000D01*
X136403500Y-83439000D01*
X152525312Y-83439000D01*
X152545957Y-83582594D01*
X152545958Y-83582597D01*
X152606222Y-83714556D01*
X152606225Y-83714561D01*
X152701226Y-83824198D01*
X152823263Y-83902626D01*
X152823268Y-83902629D01*
X152962461Y-83943499D01*
X152962463Y-83943500D01*
X152962464Y-83943500D01*
X153107537Y-83943500D01*
X153107537Y-83943499D01*
X153246732Y-83902629D01*
X153292535Y-83873192D01*
X153368773Y-83824198D01*
X153368775Y-83824196D01*
X153463777Y-83714558D01*
X153524042Y-83582596D01*
X153544688Y-83439000D01*
X153524042Y-83295404D01*
X153463777Y-83163442D01*
X153439132Y-83135000D01*
X153368773Y-83053801D01*
X153246736Y-82975373D01*
X153246727Y-82975369D01*
X153107538Y-82934500D01*
X153107536Y-82934500D01*
X152962464Y-82934500D01*
X152962462Y-82934500D01*
X152823272Y-82975369D01*
X152823263Y-82975373D01*
X152701226Y-83053801D01*
X152606225Y-83163438D01*
X152606222Y-83163443D01*
X152545958Y-83295402D01*
X152545957Y-83295405D01*
X152525312Y-83439000D01*
X136403500Y-83439000D01*
X136403500Y-81889600D01*
X136868912Y-81889600D01*
X136889557Y-82033194D01*
X136889558Y-82033197D01*
X136949822Y-82165156D01*
X136949825Y-82165161D01*
X137044826Y-82274798D01*
X137166863Y-82353226D01*
X137166868Y-82353229D01*
X137306061Y-82394099D01*
X137306063Y-82394100D01*
X137306064Y-82394100D01*
X137451137Y-82394100D01*
X137451137Y-82394099D01*
X137590332Y-82353229D01*
X137636135Y-82323792D01*
X137712373Y-82274798D01*
X137807374Y-82165161D01*
X137807377Y-82165158D01*
X137867642Y-82033196D01*
X137888288Y-81889600D01*
X137867642Y-81746004D01*
X137807377Y-81614042D01*
X137807375Y-81614039D01*
X137807374Y-81614038D01*
X137712373Y-81504401D01*
X137590336Y-81425973D01*
X137590327Y-81425969D01*
X137451138Y-81385100D01*
X137451136Y-81385100D01*
X137306064Y-81385100D01*
X137306062Y-81385100D01*
X137166872Y-81425969D01*
X137166863Y-81425973D01*
X137044826Y-81504401D01*
X136949825Y-81614038D01*
X136949822Y-81614043D01*
X136889558Y-81746002D01*
X136889557Y-81746005D01*
X136868912Y-81889600D01*
X136403500Y-81889600D01*
X136403500Y-80899000D01*
X138596312Y-80899000D01*
X138616957Y-81042594D01*
X138616958Y-81042597D01*
X138677222Y-81174556D01*
X138677225Y-81174561D01*
X138772226Y-81284198D01*
X138894263Y-81362626D01*
X138894268Y-81362629D01*
X139033461Y-81403499D01*
X139033463Y-81403500D01*
X139033464Y-81403500D01*
X139178537Y-81403500D01*
X139178537Y-81403499D01*
X139317732Y-81362629D01*
X139375407Y-81325563D01*
X139439773Y-81284198D01*
X139439775Y-81284196D01*
X139534777Y-81174558D01*
X139572893Y-81091094D01*
X139607903Y-81058499D01*
X139655708Y-81060206D01*
X139676979Y-81076129D01*
X139747226Y-81157198D01*
X139869263Y-81235626D01*
X139869268Y-81235629D01*
X139963866Y-81263405D01*
X140008461Y-81276499D01*
X140008463Y-81276500D01*
X140008464Y-81276500D01*
X140153537Y-81276500D01*
X140153537Y-81276499D01*
X140292732Y-81235629D01*
X140343646Y-81202908D01*
X140414773Y-81157198D01*
X140414775Y-81157196D01*
X140509777Y-81047558D01*
X140570042Y-80915596D01*
X140590688Y-80772000D01*
X140576166Y-80671000D01*
X141196312Y-80671000D01*
X141216957Y-80814594D01*
X141216958Y-80814597D01*
X141277222Y-80946556D01*
X141277225Y-80946561D01*
X141372226Y-81056198D01*
X141492777Y-81133671D01*
X141494268Y-81134629D01*
X141613357Y-81169596D01*
X141633461Y-81175499D01*
X141633463Y-81175500D01*
X141633464Y-81175500D01*
X141778537Y-81175500D01*
X141778537Y-81175499D01*
X141917732Y-81134629D01*
X141985472Y-81091095D01*
X142039773Y-81056198D01*
X142045144Y-81050000D01*
X145667312Y-81050000D01*
X145687957Y-81193594D01*
X145687958Y-81193597D01*
X145748222Y-81325556D01*
X145748225Y-81325561D01*
X145843226Y-81435198D01*
X145935268Y-81494349D01*
X145962550Y-81533641D01*
X145954056Y-81580717D01*
X145948713Y-81587855D01*
X145926025Y-81614039D01*
X145926023Y-81614041D01*
X145865757Y-81746005D01*
X145845112Y-81889600D01*
X145865757Y-82033194D01*
X145865758Y-82033197D01*
X145926022Y-82165156D01*
X145926025Y-82165161D01*
X146021026Y-82274798D01*
X146143063Y-82353226D01*
X146143068Y-82353229D01*
X146282261Y-82394099D01*
X146282263Y-82394100D01*
X146282264Y-82394100D01*
X146427337Y-82394100D01*
X146427337Y-82394099D01*
X146566532Y-82353229D01*
X146612335Y-82323792D01*
X146688573Y-82274798D01*
X146783574Y-82165161D01*
X146783577Y-82165158D01*
X146843842Y-82033196D01*
X146864488Y-81889600D01*
X146843842Y-81746004D01*
X146783577Y-81614042D01*
X146783575Y-81614039D01*
X146783574Y-81614038D01*
X146688573Y-81504401D01*
X146596531Y-81445250D01*
X146569973Y-81407000D01*
X156462312Y-81407000D01*
X156482957Y-81550594D01*
X156482958Y-81550597D01*
X156543222Y-81682556D01*
X156543225Y-81682561D01*
X156638226Y-81792198D01*
X156760263Y-81870626D01*
X156760268Y-81870629D01*
X156899461Y-81911499D01*
X156899463Y-81911500D01*
X156899464Y-81911500D01*
X157044537Y-81911500D01*
X157044537Y-81911499D01*
X157183732Y-81870629D01*
X157229535Y-81841192D01*
X157305773Y-81792198D01*
X157305775Y-81792196D01*
X157400777Y-81682558D01*
X157461042Y-81550596D01*
X157481688Y-81407000D01*
X157986312Y-81407000D01*
X158006957Y-81550594D01*
X158006958Y-81550597D01*
X158067222Y-81682556D01*
X158067225Y-81682561D01*
X158162226Y-81792198D01*
X158284263Y-81870626D01*
X158284268Y-81870629D01*
X158423461Y-81911499D01*
X158423463Y-81911500D01*
X158423464Y-81911500D01*
X158568537Y-81911500D01*
X158568537Y-81911499D01*
X158707732Y-81870629D01*
X158753535Y-81841192D01*
X158829773Y-81792198D01*
X158829775Y-81792196D01*
X158924777Y-81682558D01*
X158985042Y-81550596D01*
X158985041Y-81550596D01*
X158986899Y-81546530D01*
X158988797Y-81547396D01*
X159014375Y-81515646D01*
X159061935Y-81510525D01*
X159070232Y-81513618D01*
X159070266Y-81513628D01*
X159070268Y-81513629D01*
X159209461Y-81554499D01*
X159209463Y-81554500D01*
X159209464Y-81554500D01*
X159354537Y-81554500D01*
X159354537Y-81554499D01*
X159493732Y-81513629D01*
X159566885Y-81466616D01*
X159615773Y-81435198D01*
X159623767Y-81425973D01*
X159710777Y-81325558D01*
X159771042Y-81193596D01*
X159791688Y-81050000D01*
X159771042Y-80906404D01*
X159710777Y-80774442D01*
X159708661Y-80772000D01*
X159615773Y-80664801D01*
X159493736Y-80586373D01*
X159493727Y-80586369D01*
X159354538Y-80545500D01*
X159354536Y-80545500D01*
X159209464Y-80545500D01*
X159209462Y-80545500D01*
X159070272Y-80586369D01*
X159070263Y-80586373D01*
X158948226Y-80664801D01*
X158853225Y-80774438D01*
X158853222Y-80774443D01*
X158791101Y-80910470D01*
X158789211Y-80909606D01*
X158763592Y-80941371D01*
X158716028Y-80946464D01*
X158707765Y-80943380D01*
X158568538Y-80902500D01*
X158568536Y-80902500D01*
X158423464Y-80902500D01*
X158423462Y-80902500D01*
X158284272Y-80943369D01*
X158284263Y-80943373D01*
X158162226Y-81021801D01*
X158067225Y-81131438D01*
X158067222Y-81131443D01*
X158006958Y-81263402D01*
X158006957Y-81263405D01*
X157986312Y-81407000D01*
X157481688Y-81407000D01*
X157461042Y-81263404D01*
X157400777Y-81131442D01*
X157400774Y-81131438D01*
X157305773Y-81021801D01*
X157183736Y-80943373D01*
X157183727Y-80943369D01*
X157044538Y-80902500D01*
X157044536Y-80902500D01*
X156899464Y-80902500D01*
X156899462Y-80902500D01*
X156760272Y-80943369D01*
X156760263Y-80943373D01*
X156638226Y-81021801D01*
X156543225Y-81131438D01*
X156543222Y-81131443D01*
X156482958Y-81263402D01*
X156482957Y-81263405D01*
X156462312Y-81407000D01*
X146569973Y-81407000D01*
X146569249Y-81405957D01*
X146577743Y-81358882D01*
X146583088Y-81351742D01*
X146605773Y-81325563D01*
X146605775Y-81325560D01*
X146605774Y-81325560D01*
X146605777Y-81325558D01*
X146621389Y-81291370D01*
X146656397Y-81258776D01*
X146704202Y-81260482D01*
X146725473Y-81276404D01*
X146725556Y-81276500D01*
X146732225Y-81284196D01*
X146848437Y-81358882D01*
X146854268Y-81362629D01*
X146993461Y-81403499D01*
X146993463Y-81403500D01*
X146993464Y-81403500D01*
X147138537Y-81403500D01*
X147138537Y-81403499D01*
X147277732Y-81362629D01*
X147335407Y-81325563D01*
X147399773Y-81284198D01*
X147399775Y-81284196D01*
X147494777Y-81174558D01*
X147555042Y-81042596D01*
X147575688Y-80899000D01*
X147555042Y-80755404D01*
X147494777Y-80623442D01*
X147485297Y-80612501D01*
X147399773Y-80513801D01*
X147277736Y-80435373D01*
X147277727Y-80435369D01*
X147138538Y-80394500D01*
X147138536Y-80394500D01*
X147029235Y-80394500D01*
X146985041Y-80376194D01*
X146966735Y-80332000D01*
X146982000Y-80291071D01*
X146982252Y-80290779D01*
X146986777Y-80285558D01*
X147047042Y-80153596D01*
X147067688Y-80010000D01*
X147047042Y-79866404D01*
X146986777Y-79734442D01*
X146986774Y-79734438D01*
X146891773Y-79624801D01*
X146782503Y-79554578D01*
X146755221Y-79515285D01*
X146757618Y-79502000D01*
X147191312Y-79502000D01*
X147211957Y-79645594D01*
X147211958Y-79645597D01*
X147272222Y-79777556D01*
X147272225Y-79777561D01*
X147367226Y-79887198D01*
X147489263Y-79965626D01*
X147489268Y-79965629D01*
X147606102Y-79999934D01*
X147628461Y-80006499D01*
X147628463Y-80006500D01*
X147628464Y-80006500D01*
X147773537Y-80006500D01*
X147773537Y-80006499D01*
X147912732Y-79965629D01*
X147960086Y-79935196D01*
X148034773Y-79887198D01*
X148038411Y-79883000D01*
X148129777Y-79777558D01*
X148190042Y-79645596D01*
X148210688Y-79502000D01*
X148190042Y-79358404D01*
X148129777Y-79226442D01*
X148129774Y-79226438D01*
X148038411Y-79121000D01*
X151763312Y-79121000D01*
X151783957Y-79264594D01*
X151783958Y-79264597D01*
X151844222Y-79396556D01*
X151844225Y-79396561D01*
X151939226Y-79506198D01*
X152038503Y-79569999D01*
X152061268Y-79584629D01*
X152198094Y-79624804D01*
X152200461Y-79625499D01*
X152200463Y-79625500D01*
X152200464Y-79625500D01*
X152345537Y-79625500D01*
X152345537Y-79625499D01*
X152484732Y-79584629D01*
X152544262Y-79546371D01*
X152606773Y-79506198D01*
X152610411Y-79502000D01*
X152701777Y-79396558D01*
X152762042Y-79264596D01*
X152782688Y-79121000D01*
X153287312Y-79121000D01*
X153307957Y-79264594D01*
X153307958Y-79264597D01*
X153368222Y-79396556D01*
X153368225Y-79396561D01*
X153463226Y-79506198D01*
X153562503Y-79569999D01*
X153585268Y-79584629D01*
X153722094Y-79624804D01*
X153724461Y-79625499D01*
X153724463Y-79625500D01*
X153724464Y-79625500D01*
X153869537Y-79625500D01*
X153869537Y-79625499D01*
X154008732Y-79584629D01*
X154062615Y-79550000D01*
X158875312Y-79550000D01*
X158895957Y-79693594D01*
X158895958Y-79693597D01*
X158956222Y-79825556D01*
X158956225Y-79825561D01*
X159051226Y-79935198D01*
X159162175Y-80006500D01*
X159173268Y-80013629D01*
X159312461Y-80054499D01*
X159312463Y-80054500D01*
X159312464Y-80054500D01*
X159457537Y-80054500D01*
X159457537Y-80054499D01*
X159596732Y-80013629D01*
X159642535Y-79984192D01*
X159718773Y-79935198D01*
X159756897Y-79891201D01*
X159813777Y-79825558D01*
X159874042Y-79693596D01*
X159894688Y-79550000D01*
X159874042Y-79406404D01*
X159813777Y-79274442D01*
X159809545Y-79269558D01*
X159718773Y-79164801D01*
X159596736Y-79086373D01*
X159596727Y-79086369D01*
X159457538Y-79045500D01*
X159457536Y-79045500D01*
X159312464Y-79045500D01*
X159312462Y-79045500D01*
X159173272Y-79086369D01*
X159173263Y-79086373D01*
X159051226Y-79164801D01*
X158956225Y-79274438D01*
X158956222Y-79274443D01*
X158895958Y-79406402D01*
X158895957Y-79406405D01*
X158875312Y-79550000D01*
X154062615Y-79550000D01*
X154068262Y-79546371D01*
X154130773Y-79506198D01*
X154134411Y-79502000D01*
X154225777Y-79396558D01*
X154286042Y-79264596D01*
X154306688Y-79121000D01*
X154286042Y-78977404D01*
X154225777Y-78845442D01*
X154225774Y-78845438D01*
X154130773Y-78735801D01*
X154008736Y-78657373D01*
X154008727Y-78657369D01*
X153869538Y-78616500D01*
X153869536Y-78616500D01*
X153724464Y-78616500D01*
X153724462Y-78616500D01*
X153585272Y-78657369D01*
X153585263Y-78657373D01*
X153463226Y-78735801D01*
X153368225Y-78845438D01*
X153368222Y-78845443D01*
X153307958Y-78977402D01*
X153307957Y-78977405D01*
X153287312Y-79121000D01*
X152782688Y-79121000D01*
X152762042Y-78977404D01*
X152701777Y-78845442D01*
X152701774Y-78845438D01*
X152606773Y-78735801D01*
X152484736Y-78657373D01*
X152484727Y-78657369D01*
X152345538Y-78616500D01*
X152345536Y-78616500D01*
X152200464Y-78616500D01*
X152200462Y-78616500D01*
X152061272Y-78657369D01*
X152061263Y-78657373D01*
X151939226Y-78735801D01*
X151844225Y-78845438D01*
X151844222Y-78845443D01*
X151783958Y-78977402D01*
X151783957Y-78977405D01*
X151763312Y-79121000D01*
X148038411Y-79121000D01*
X148034773Y-79116801D01*
X147912736Y-79038373D01*
X147912727Y-79038369D01*
X147773538Y-78997500D01*
X147773536Y-78997500D01*
X147628464Y-78997500D01*
X147628462Y-78997500D01*
X147489272Y-79038369D01*
X147489263Y-79038373D01*
X147367226Y-79116801D01*
X147272225Y-79226438D01*
X147272222Y-79226443D01*
X147211958Y-79358402D01*
X147211957Y-79358405D01*
X147191312Y-79502000D01*
X146757618Y-79502000D01*
X146763715Y-79468210D01*
X146782503Y-79449422D01*
X146891773Y-79379198D01*
X146895411Y-79375000D01*
X146986777Y-79269558D01*
X147047042Y-79137596D01*
X147067688Y-78994000D01*
X147047042Y-78850404D01*
X146986777Y-78718442D01*
X146986774Y-78718438D01*
X146891773Y-78608801D01*
X146769736Y-78530373D01*
X146769727Y-78530369D01*
X146630538Y-78489500D01*
X146630536Y-78489500D01*
X146485464Y-78489500D01*
X146485462Y-78489500D01*
X146346272Y-78530369D01*
X146346263Y-78530373D01*
X146224226Y-78608801D01*
X146129225Y-78718438D01*
X146129222Y-78718443D01*
X146068958Y-78850402D01*
X146068957Y-78850405D01*
X146048312Y-78994000D01*
X146068957Y-79137594D01*
X146068958Y-79137597D01*
X146129222Y-79269556D01*
X146129225Y-79269561D01*
X146224226Y-79379198D01*
X146333496Y-79449422D01*
X146360778Y-79488715D01*
X146352284Y-79535790D01*
X146333496Y-79554578D01*
X146224226Y-79624801D01*
X146129225Y-79734438D01*
X146129222Y-79734443D01*
X146068958Y-79866402D01*
X146068957Y-79866405D01*
X146048312Y-80010000D01*
X146068957Y-80153594D01*
X146068958Y-80153597D01*
X146129222Y-80285556D01*
X146129225Y-80285561D01*
X146224226Y-80395198D01*
X146279036Y-80430422D01*
X146306318Y-80469715D01*
X146297824Y-80516790D01*
X146258531Y-80544072D01*
X146245246Y-80545500D01*
X146104462Y-80545500D01*
X145965272Y-80586369D01*
X145965263Y-80586373D01*
X145843226Y-80664801D01*
X145748225Y-80774438D01*
X145748222Y-80774443D01*
X145687958Y-80906402D01*
X145687957Y-80906405D01*
X145667312Y-81050000D01*
X142045144Y-81050000D01*
X142047260Y-81047558D01*
X142134777Y-80946558D01*
X142195042Y-80814596D01*
X142215688Y-80671000D01*
X142195042Y-80527404D01*
X142134777Y-80395442D01*
X142133961Y-80394500D01*
X142039773Y-80285801D01*
X141917736Y-80207373D01*
X141917727Y-80207369D01*
X141778538Y-80166500D01*
X141778536Y-80166500D01*
X141633464Y-80166500D01*
X141633462Y-80166500D01*
X141494272Y-80207369D01*
X141494263Y-80207373D01*
X141372226Y-80285801D01*
X141277225Y-80395438D01*
X141277222Y-80395443D01*
X141216958Y-80527402D01*
X141216957Y-80527405D01*
X141196312Y-80671000D01*
X140576166Y-80671000D01*
X140570042Y-80628404D01*
X140509777Y-80496442D01*
X140509774Y-80496438D01*
X140414773Y-80386801D01*
X140292736Y-80308373D01*
X140292727Y-80308369D01*
X140153538Y-80267500D01*
X140153536Y-80267500D01*
X140008464Y-80267500D01*
X140008462Y-80267500D01*
X139869272Y-80308369D01*
X139869263Y-80308373D01*
X139747226Y-80386801D01*
X139652225Y-80496438D01*
X139652223Y-80496440D01*
X139614106Y-80579906D01*
X139579095Y-80612501D01*
X139531290Y-80610794D01*
X139510020Y-80594871D01*
X139439773Y-80513801D01*
X139317736Y-80435373D01*
X139317727Y-80435369D01*
X139178538Y-80394500D01*
X139178536Y-80394500D01*
X139033464Y-80394500D01*
X139033462Y-80394500D01*
X138894272Y-80435369D01*
X138894263Y-80435373D01*
X138772226Y-80513801D01*
X138677225Y-80623438D01*
X138677222Y-80623443D01*
X138616958Y-80755402D01*
X138616957Y-80755405D01*
X138596312Y-80899000D01*
X136403500Y-80899000D01*
X136403500Y-80162887D01*
X136399201Y-80141274D01*
X136398000Y-80129081D01*
X136398000Y-79883000D01*
X136398000Y-79756000D01*
X136271000Y-79756000D01*
X136024918Y-79756000D01*
X136012725Y-79754799D01*
X135991112Y-79750500D01*
X134640388Y-79750500D01*
X134596194Y-79732194D01*
X134516806Y-79652806D01*
X134498500Y-79608612D01*
X134498500Y-78255500D01*
X140483812Y-78255500D01*
X140504457Y-78399094D01*
X140504458Y-78399097D01*
X140564722Y-78531056D01*
X140564725Y-78531061D01*
X140659726Y-78640698D01*
X140781763Y-78719126D01*
X140781768Y-78719129D01*
X140920961Y-78759999D01*
X140920963Y-78760000D01*
X140920964Y-78760000D01*
X141066037Y-78760000D01*
X141066037Y-78759999D01*
X141205232Y-78719129D01*
X141268268Y-78678618D01*
X141327273Y-78640698D01*
X141327275Y-78640696D01*
X141422277Y-78531058D01*
X141482542Y-78399096D01*
X141503188Y-78255500D01*
X141482542Y-78111904D01*
X141422277Y-77979942D01*
X141422274Y-77979938D01*
X141327273Y-77870301D01*
X141205236Y-77791873D01*
X141205227Y-77791869D01*
X141066038Y-77751000D01*
X141066036Y-77751000D01*
X140920964Y-77751000D01*
X140920962Y-77751000D01*
X140781772Y-77791869D01*
X140781763Y-77791873D01*
X140659726Y-77870301D01*
X140564725Y-77979938D01*
X140564722Y-77979943D01*
X140504458Y-78111902D01*
X140504457Y-78111905D01*
X140483812Y-78255500D01*
X134498500Y-78255500D01*
X134498500Y-77470000D01*
X139190312Y-77470000D01*
X139210957Y-77613594D01*
X139210958Y-77613597D01*
X139271222Y-77745556D01*
X139271225Y-77745561D01*
X139366226Y-77855198D01*
X139488263Y-77933626D01*
X139488268Y-77933629D01*
X139541054Y-77949128D01*
X139627461Y-77974499D01*
X139627463Y-77974500D01*
X139627464Y-77974500D01*
X139772537Y-77974500D01*
X139772537Y-77974499D01*
X139911732Y-77933629D01*
X139989734Y-77883500D01*
X140033773Y-77855198D01*
X140055741Y-77829846D01*
X140128777Y-77745558D01*
X140189042Y-77613596D01*
X140207460Y-77485499D01*
X162446811Y-77485499D01*
X162467456Y-77629093D01*
X162467457Y-77629096D01*
X162527721Y-77761055D01*
X162527724Y-77761060D01*
X162622725Y-77870697D01*
X162744762Y-77949125D01*
X162744767Y-77949128D01*
X162867844Y-77985266D01*
X162883960Y-77989998D01*
X162883962Y-77989999D01*
X162883963Y-77989999D01*
X163029036Y-77989999D01*
X163029036Y-77989998D01*
X163168231Y-77949128D01*
X163251878Y-77895371D01*
X163290272Y-77870697D01*
X163290615Y-77870301D01*
X163385276Y-77761057D01*
X163445541Y-77629095D01*
X163466187Y-77485499D01*
X163445541Y-77341903D01*
X163385276Y-77209941D01*
X163360932Y-77181847D01*
X163290273Y-77100302D01*
X163238667Y-77067136D01*
X163211386Y-77027843D01*
X163219880Y-76980767D01*
X163254850Y-76954590D01*
X163277294Y-76948000D01*
X163380730Y-76917629D01*
X163433736Y-76883564D01*
X163502771Y-76839198D01*
X163508544Y-76832536D01*
X163597775Y-76729558D01*
X163658040Y-76597596D01*
X163678686Y-76454000D01*
X163677052Y-76442634D01*
X164462701Y-76442634D01*
X164483346Y-76586228D01*
X164483347Y-76586231D01*
X164543611Y-76718190D01*
X164543614Y-76718195D01*
X164638615Y-76827832D01*
X164757562Y-76904274D01*
X164760657Y-76906263D01*
X164760661Y-76906264D01*
X164764521Y-76908027D01*
X164797120Y-76943035D01*
X164795416Y-76990840D01*
X164785797Y-77005810D01*
X164749722Y-77047442D01*
X164749722Y-77047443D01*
X164689458Y-77179402D01*
X164689457Y-77179405D01*
X164668812Y-77323000D01*
X164689457Y-77466594D01*
X164689458Y-77466597D01*
X164749722Y-77598556D01*
X164749725Y-77598561D01*
X164844726Y-77708198D01*
X164966763Y-77786626D01*
X164966768Y-77786629D01*
X164984621Y-77791871D01*
X165105961Y-77827499D01*
X165105963Y-77827500D01*
X165105964Y-77827500D01*
X165251037Y-77827500D01*
X165251037Y-77827499D01*
X165390232Y-77786629D01*
X165445671Y-77751000D01*
X165512273Y-77708198D01*
X165512275Y-77708196D01*
X165607277Y-77598558D01*
X165667542Y-77466596D01*
X165688188Y-77323000D01*
X166435812Y-77323000D01*
X166456457Y-77466594D01*
X166456458Y-77466597D01*
X166516722Y-77598556D01*
X166516725Y-77598561D01*
X166611726Y-77708198D01*
X166733763Y-77786626D01*
X166733768Y-77786629D01*
X166751621Y-77791871D01*
X166872961Y-77827499D01*
X166872963Y-77827500D01*
X166872964Y-77827500D01*
X167018037Y-77827500D01*
X167018037Y-77827499D01*
X167157232Y-77786629D01*
X167212671Y-77751000D01*
X167279273Y-77708198D01*
X167279275Y-77708196D01*
X167374277Y-77598558D01*
X167434542Y-77466596D01*
X167455188Y-77323000D01*
X167434542Y-77179404D01*
X167374277Y-77047442D01*
X167357294Y-77027843D01*
X167276784Y-76934929D01*
X167261677Y-76889542D01*
X167283089Y-76846766D01*
X167324018Y-76831500D01*
X167458537Y-76831500D01*
X167458537Y-76831499D01*
X167597732Y-76790629D01*
X167645668Y-76759822D01*
X167719773Y-76712198D01*
X167809987Y-76608086D01*
X167814777Y-76602558D01*
X167875042Y-76470596D01*
X167895688Y-76327000D01*
X167875042Y-76183404D01*
X167814777Y-76051442D01*
X167790605Y-76023546D01*
X167719773Y-75941801D01*
X167597736Y-75863373D01*
X167597727Y-75863369D01*
X167458538Y-75822500D01*
X167458536Y-75822500D01*
X167313464Y-75822500D01*
X167313462Y-75822500D01*
X167174272Y-75863369D01*
X167174263Y-75863373D01*
X167052226Y-75941801D01*
X166957225Y-76051438D01*
X166957222Y-76051443D01*
X166896958Y-76183402D01*
X166896957Y-76183405D01*
X166876312Y-76327000D01*
X166896957Y-76470594D01*
X166896958Y-76470597D01*
X166957222Y-76602556D01*
X166957225Y-76602561D01*
X167054716Y-76715071D01*
X167069823Y-76760458D01*
X167048411Y-76803234D01*
X167007482Y-76818500D01*
X166872962Y-76818500D01*
X166733772Y-76859369D01*
X166733763Y-76859373D01*
X166611726Y-76937801D01*
X166516725Y-77047438D01*
X166516722Y-77047443D01*
X166456458Y-77179402D01*
X166456457Y-77179405D01*
X166435812Y-77323000D01*
X165688188Y-77323000D01*
X165667542Y-77179404D01*
X165607277Y-77047442D01*
X165607274Y-77047438D01*
X165512273Y-76937801D01*
X165390236Y-76859373D01*
X165386364Y-76857605D01*
X165353767Y-76822595D01*
X165355473Y-76774790D01*
X165365088Y-76759828D01*
X165401166Y-76718192D01*
X165461431Y-76586230D01*
X165482077Y-76442634D01*
X165461431Y-76299038D01*
X165401166Y-76167076D01*
X165391248Y-76155630D01*
X165306162Y-76057435D01*
X165184125Y-75979007D01*
X165184116Y-75979003D01*
X165044927Y-75938134D01*
X165044925Y-75938134D01*
X164899853Y-75938134D01*
X164899851Y-75938134D01*
X164760661Y-75979003D01*
X164760652Y-75979007D01*
X164638615Y-76057435D01*
X164543614Y-76167072D01*
X164543611Y-76167077D01*
X164483347Y-76299036D01*
X164483346Y-76299039D01*
X164462701Y-76442634D01*
X163677052Y-76442634D01*
X163658040Y-76310404D01*
X163597775Y-76178442D01*
X163596958Y-76177499D01*
X163502771Y-76068801D01*
X163380734Y-75990373D01*
X163380725Y-75990369D01*
X163241536Y-75949500D01*
X163241534Y-75949500D01*
X163096462Y-75949500D01*
X163096460Y-75949500D01*
X162957270Y-75990369D01*
X162957261Y-75990373D01*
X162835224Y-76068801D01*
X162740223Y-76178438D01*
X162740220Y-76178443D01*
X162679956Y-76310402D01*
X162679955Y-76310405D01*
X162659310Y-76454000D01*
X162679955Y-76597594D01*
X162679956Y-76597597D01*
X162740220Y-76729556D01*
X162740223Y-76729561D01*
X162835224Y-76839198D01*
X162886828Y-76872362D01*
X162914110Y-76911655D01*
X162905616Y-76958730D01*
X162870646Y-76984908D01*
X162744771Y-77021868D01*
X162744762Y-77021872D01*
X162622725Y-77100300D01*
X162527724Y-77209937D01*
X162527721Y-77209942D01*
X162467457Y-77341901D01*
X162467456Y-77341904D01*
X162446811Y-77485499D01*
X140207460Y-77485499D01*
X140209688Y-77470000D01*
X140189042Y-77326404D01*
X140128777Y-77194442D01*
X140128774Y-77194438D01*
X140033773Y-77084801D01*
X139911736Y-77006373D01*
X139911727Y-77006369D01*
X139772538Y-76965500D01*
X139772536Y-76965500D01*
X139627464Y-76965500D01*
X139627462Y-76965500D01*
X139488272Y-77006369D01*
X139488263Y-77006373D01*
X139366226Y-77084801D01*
X139271225Y-77194438D01*
X139271222Y-77194443D01*
X139210958Y-77326402D01*
X139210957Y-77326405D01*
X139190312Y-77470000D01*
X134498500Y-77470000D01*
X134498500Y-76962000D01*
X146810312Y-76962000D01*
X146830957Y-77105594D01*
X146830958Y-77105597D01*
X146891222Y-77237556D01*
X146891225Y-77237561D01*
X146986226Y-77347198D01*
X147108263Y-77425626D01*
X147108268Y-77425629D01*
X147169132Y-77443500D01*
X147247461Y-77466499D01*
X147247463Y-77466500D01*
X147247464Y-77466500D01*
X147392537Y-77466500D01*
X147392537Y-77466499D01*
X147531732Y-77425629D01*
X147577535Y-77396192D01*
X147653773Y-77347198D01*
X147653775Y-77347196D01*
X147748777Y-77237558D01*
X147809042Y-77105596D01*
X147829636Y-76962359D01*
X147829811Y-76962063D01*
X147829758Y-76961935D01*
X147953188Y-76961935D01*
X147953364Y-76962360D01*
X147973957Y-77105594D01*
X147973958Y-77105597D01*
X148034222Y-77237556D01*
X148034225Y-77237561D01*
X148129226Y-77347198D01*
X148251263Y-77425626D01*
X148251268Y-77425629D01*
X148312132Y-77443500D01*
X148390461Y-77466499D01*
X148390463Y-77466500D01*
X148390464Y-77466500D01*
X148535537Y-77466500D01*
X148535537Y-77466499D01*
X148674732Y-77425629D01*
X148720535Y-77396192D01*
X148796773Y-77347198D01*
X148796775Y-77347196D01*
X148891777Y-77237558D01*
X148952042Y-77105596D01*
X148972688Y-76962000D01*
X150112312Y-76962000D01*
X150132957Y-77105594D01*
X150132958Y-77105597D01*
X150193222Y-77237556D01*
X150193225Y-77237561D01*
X150288226Y-77347198D01*
X150410263Y-77425626D01*
X150410268Y-77425629D01*
X150471132Y-77443500D01*
X150549461Y-77466499D01*
X150549463Y-77466500D01*
X150549464Y-77466500D01*
X150694537Y-77466500D01*
X150694537Y-77466499D01*
X150833732Y-77425629D01*
X150879535Y-77396192D01*
X150955773Y-77347198D01*
X150955775Y-77347196D01*
X151050777Y-77237558D01*
X151111042Y-77105596D01*
X151131688Y-76962000D01*
X151111042Y-76818404D01*
X151060622Y-76708000D01*
X157859312Y-76708000D01*
X157879957Y-76851594D01*
X157879958Y-76851597D01*
X157940222Y-76983556D01*
X157940225Y-76983561D01*
X158035226Y-77093198D01*
X158157263Y-77171626D01*
X158157268Y-77171629D01*
X158296461Y-77212499D01*
X158296463Y-77212500D01*
X158296464Y-77212500D01*
X158441537Y-77212500D01*
X158441537Y-77212499D01*
X158580732Y-77171629D01*
X158669002Y-77114901D01*
X158702773Y-77093198D01*
X158704161Y-77091596D01*
X158797777Y-76983558D01*
X158858042Y-76851596D01*
X158878688Y-76708000D01*
X158858042Y-76564404D01*
X158797777Y-76432442D01*
X158791068Y-76424699D01*
X158702773Y-76322801D01*
X158580736Y-76244373D01*
X158580727Y-76244369D01*
X158441538Y-76203500D01*
X158441536Y-76203500D01*
X158296464Y-76203500D01*
X158296462Y-76203500D01*
X158157272Y-76244369D01*
X158157263Y-76244373D01*
X158035226Y-76322801D01*
X157940225Y-76432438D01*
X157940222Y-76432443D01*
X157879958Y-76564402D01*
X157879957Y-76564405D01*
X157859312Y-76708000D01*
X151060622Y-76708000D01*
X151050777Y-76686442D01*
X150983995Y-76609371D01*
X150955773Y-76576801D01*
X150833736Y-76498373D01*
X150833727Y-76498369D01*
X150694538Y-76457500D01*
X150694536Y-76457500D01*
X150549464Y-76457500D01*
X150549462Y-76457500D01*
X150410272Y-76498369D01*
X150410263Y-76498373D01*
X150288226Y-76576801D01*
X150193225Y-76686438D01*
X150193222Y-76686443D01*
X150132958Y-76818402D01*
X150132957Y-76818405D01*
X150112312Y-76962000D01*
X148972688Y-76962000D01*
X148968074Y-76929911D01*
X148979904Y-76883564D01*
X149021043Y-76859154D01*
X149063728Y-76868440D01*
X149122582Y-76906263D01*
X149140268Y-76917629D01*
X149243704Y-76948000D01*
X149279461Y-76958499D01*
X149279463Y-76958500D01*
X149279464Y-76958500D01*
X149424537Y-76958500D01*
X149424537Y-76958499D01*
X149563732Y-76917629D01*
X149616738Y-76883564D01*
X149685773Y-76839198D01*
X149691546Y-76832536D01*
X149780777Y-76729558D01*
X149841042Y-76597596D01*
X149861688Y-76454000D01*
X149841042Y-76310404D01*
X149780777Y-76178442D01*
X149779960Y-76177499D01*
X149715914Y-76103586D01*
X154206898Y-76103586D01*
X154227543Y-76247180D01*
X154227544Y-76247183D01*
X154287808Y-76379142D01*
X154287811Y-76379147D01*
X154382812Y-76488784D01*
X154504849Y-76567212D01*
X154504854Y-76567215D01*
X154644047Y-76608085D01*
X154644049Y-76608086D01*
X154644050Y-76608086D01*
X154789123Y-76608086D01*
X154789123Y-76608085D01*
X154928318Y-76567215D01*
X154982433Y-76532437D01*
X155050359Y-76488784D01*
X155052696Y-76486087D01*
X155145363Y-76379144D01*
X155205628Y-76247182D01*
X155226274Y-76103586D01*
X155205628Y-75959990D01*
X155145363Y-75828028D01*
X155138581Y-75820201D01*
X155050359Y-75718387D01*
X154979735Y-75673000D01*
X161796312Y-75673000D01*
X161816957Y-75816594D01*
X161816958Y-75816597D01*
X161877222Y-75948556D01*
X161877225Y-75948561D01*
X161972226Y-76058198D01*
X162085892Y-76131246D01*
X162094268Y-76136629D01*
X162197949Y-76167072D01*
X162233461Y-76177499D01*
X162233463Y-76177500D01*
X162233464Y-76177500D01*
X162378537Y-76177500D01*
X162378537Y-76177499D01*
X162517732Y-76136629D01*
X162563535Y-76107192D01*
X162639773Y-76058198D01*
X162643061Y-76054404D01*
X162734777Y-75948558D01*
X162795042Y-75816596D01*
X162812956Y-75692000D01*
X165733312Y-75692000D01*
X165753957Y-75835594D01*
X165753958Y-75835597D01*
X165814222Y-75967556D01*
X165814225Y-75967561D01*
X165909226Y-76077198D01*
X166031263Y-76155626D01*
X166031268Y-76155629D01*
X166125866Y-76183405D01*
X166170461Y-76196499D01*
X166170463Y-76196500D01*
X166170464Y-76196500D01*
X166315537Y-76196500D01*
X166315537Y-76196499D01*
X166454732Y-76155629D01*
X166535712Y-76103586D01*
X166576773Y-76077198D01*
X166580411Y-76073000D01*
X166671777Y-75967558D01*
X166732042Y-75835596D01*
X166752688Y-75692000D01*
X166732042Y-75548404D01*
X166671777Y-75416442D01*
X166668025Y-75412112D01*
X166576773Y-75306801D01*
X166454736Y-75228373D01*
X166454727Y-75228369D01*
X166315538Y-75187500D01*
X166315536Y-75187500D01*
X166170464Y-75187500D01*
X166170462Y-75187500D01*
X166031272Y-75228369D01*
X166031263Y-75228373D01*
X165909226Y-75306801D01*
X165814225Y-75416438D01*
X165814222Y-75416443D01*
X165753958Y-75548402D01*
X165753957Y-75548405D01*
X165733312Y-75692000D01*
X162812956Y-75692000D01*
X162815688Y-75673000D01*
X162795042Y-75529404D01*
X162734777Y-75397442D01*
X162734774Y-75397438D01*
X162639773Y-75287801D01*
X162517736Y-75209373D01*
X162517727Y-75209369D01*
X162378538Y-75168500D01*
X162378536Y-75168500D01*
X162233464Y-75168500D01*
X162233462Y-75168500D01*
X162094272Y-75209369D01*
X162094263Y-75209373D01*
X161972226Y-75287801D01*
X161877225Y-75397438D01*
X161877222Y-75397443D01*
X161816958Y-75529402D01*
X161816957Y-75529405D01*
X161796312Y-75673000D01*
X154979735Y-75673000D01*
X154928322Y-75639959D01*
X154928313Y-75639955D01*
X154789124Y-75599086D01*
X154789122Y-75599086D01*
X154644050Y-75599086D01*
X154644048Y-75599086D01*
X154504858Y-75639955D01*
X154504849Y-75639959D01*
X154382812Y-75718387D01*
X154287811Y-75828024D01*
X154287808Y-75828029D01*
X154227544Y-75959988D01*
X154227543Y-75959991D01*
X154206898Y-76103586D01*
X149715914Y-76103586D01*
X149685773Y-76068801D01*
X149563736Y-75990373D01*
X149563727Y-75990369D01*
X149424538Y-75949500D01*
X149424536Y-75949500D01*
X149279464Y-75949500D01*
X149279462Y-75949500D01*
X149140272Y-75990369D01*
X149140263Y-75990373D01*
X149018226Y-76068801D01*
X148923225Y-76178438D01*
X148923222Y-76178443D01*
X148862958Y-76310402D01*
X148862957Y-76310405D01*
X148842312Y-76454000D01*
X148846925Y-76486087D01*
X148835094Y-76532437D01*
X148793955Y-76556845D01*
X148751271Y-76547559D01*
X148674736Y-76498373D01*
X148674727Y-76498369D01*
X148535538Y-76457500D01*
X148535536Y-76457500D01*
X148390464Y-76457500D01*
X148390462Y-76457500D01*
X148251272Y-76498369D01*
X148251263Y-76498373D01*
X148129226Y-76576801D01*
X148034225Y-76686438D01*
X148034222Y-76686443D01*
X147973958Y-76818402D01*
X147973957Y-76818405D01*
X147953364Y-76961639D01*
X147953188Y-76961935D01*
X147829758Y-76961935D01*
X147829636Y-76961639D01*
X147825532Y-76933097D01*
X147809042Y-76818404D01*
X147748777Y-76686442D01*
X147681995Y-76609371D01*
X147653773Y-76576801D01*
X147531736Y-76498373D01*
X147531727Y-76498369D01*
X147392538Y-76457500D01*
X147392536Y-76457500D01*
X147247464Y-76457500D01*
X147247462Y-76457500D01*
X147108272Y-76498369D01*
X147108263Y-76498373D01*
X146986226Y-76576801D01*
X146891225Y-76686438D01*
X146891222Y-76686443D01*
X146830958Y-76818402D01*
X146830957Y-76818405D01*
X146810312Y-76962000D01*
X134498500Y-76962000D01*
X134498500Y-76424696D01*
X134498490Y-76424182D01*
X134498335Y-76415449D01*
X134498176Y-76410991D01*
X134497680Y-76401729D01*
X134497678Y-76401721D01*
X134495227Y-76392786D01*
X134493000Y-76376251D01*
X134493000Y-75971888D01*
X134511306Y-75927694D01*
X134596194Y-75842806D01*
X134640388Y-75824500D01*
X139674112Y-75824500D01*
X139674113Y-75824500D01*
X139695725Y-75820200D01*
X139707918Y-75819000D01*
X139954000Y-75819000D01*
X140081000Y-75819000D01*
X140081000Y-75445917D01*
X140082201Y-75433723D01*
X140085639Y-75416443D01*
X140086500Y-75412112D01*
X140086500Y-74873000D01*
X162659310Y-74873000D01*
X162679955Y-75016594D01*
X162679956Y-75016597D01*
X162740220Y-75148556D01*
X162740223Y-75148561D01*
X162835224Y-75258198D01*
X162957261Y-75336626D01*
X162957266Y-75336629D01*
X163068283Y-75369226D01*
X163096459Y-75377499D01*
X163096461Y-75377500D01*
X163096462Y-75377500D01*
X163241535Y-75377500D01*
X163241535Y-75377499D01*
X163380730Y-75336629D01*
X163427143Y-75306801D01*
X163502771Y-75258198D01*
X163528615Y-75228373D01*
X163597775Y-75148558D01*
X163658040Y-75016596D01*
X163678686Y-74873000D01*
X164647312Y-74873000D01*
X164667957Y-75016594D01*
X164667958Y-75016597D01*
X164728222Y-75148556D01*
X164728225Y-75148561D01*
X164823226Y-75258198D01*
X164945263Y-75336626D01*
X164945268Y-75336629D01*
X165056285Y-75369226D01*
X165084461Y-75377499D01*
X165084463Y-75377500D01*
X165084464Y-75377500D01*
X165229537Y-75377500D01*
X165229537Y-75377499D01*
X165368732Y-75336629D01*
X165415145Y-75306801D01*
X165490773Y-75258198D01*
X165516617Y-75228373D01*
X165585777Y-75148558D01*
X165646042Y-75016596D01*
X165666688Y-74873000D01*
X165646042Y-74729404D01*
X165585777Y-74597442D01*
X165585774Y-74597438D01*
X165490773Y-74487801D01*
X165368736Y-74409373D01*
X165368727Y-74409369D01*
X165229538Y-74368500D01*
X165229536Y-74368500D01*
X165084464Y-74368500D01*
X165084462Y-74368500D01*
X164945272Y-74409369D01*
X164945263Y-74409373D01*
X164823226Y-74487801D01*
X164728225Y-74597438D01*
X164728222Y-74597443D01*
X164667958Y-74729402D01*
X164667957Y-74729405D01*
X164647312Y-74873000D01*
X163678686Y-74873000D01*
X163658040Y-74729404D01*
X163597775Y-74597442D01*
X163597772Y-74597438D01*
X163502771Y-74487801D01*
X163380734Y-74409373D01*
X163380725Y-74409369D01*
X163241536Y-74368500D01*
X163241534Y-74368500D01*
X163096462Y-74368500D01*
X163096460Y-74368500D01*
X162957270Y-74409369D01*
X162957261Y-74409373D01*
X162835224Y-74487801D01*
X162740223Y-74597438D01*
X162740220Y-74597443D01*
X162679956Y-74729402D01*
X162679955Y-74729405D01*
X162659310Y-74873000D01*
X140086500Y-74873000D01*
X140086500Y-73685887D01*
X140082201Y-73664274D01*
X140081000Y-73652081D01*
X140081000Y-73507600D01*
X147877112Y-73507600D01*
X147897757Y-73651194D01*
X147897758Y-73651197D01*
X147958022Y-73783156D01*
X147958025Y-73783161D01*
X148053026Y-73892798D01*
X148175063Y-73971226D01*
X148175068Y-73971229D01*
X148314261Y-74012099D01*
X148314263Y-74012100D01*
X148314264Y-74012100D01*
X148459337Y-74012100D01*
X148459337Y-74012099D01*
X148598532Y-73971229D01*
X148661761Y-73930594D01*
X148720573Y-73892798D01*
X148720575Y-73892796D01*
X148812248Y-73787000D01*
X158398312Y-73787000D01*
X158418957Y-73930594D01*
X158418958Y-73930597D01*
X158479222Y-74062556D01*
X158479225Y-74062561D01*
X158574226Y-74172198D01*
X158696263Y-74250626D01*
X158696268Y-74250629D01*
X158835461Y-74291499D01*
X158835463Y-74291500D01*
X158835464Y-74291500D01*
X158980537Y-74291500D01*
X158980537Y-74291499D01*
X159119732Y-74250629D01*
X159165535Y-74221192D01*
X159241773Y-74172198D01*
X159336774Y-74062561D01*
X159336777Y-74062558D01*
X159397042Y-73930596D01*
X159417688Y-73787000D01*
X159397042Y-73643404D01*
X159336777Y-73511442D01*
X159333448Y-73507600D01*
X159241773Y-73401801D01*
X159119736Y-73323373D01*
X159119727Y-73323369D01*
X158980538Y-73282500D01*
X158980536Y-73282500D01*
X158835464Y-73282500D01*
X158835462Y-73282500D01*
X158696272Y-73323369D01*
X158696263Y-73323373D01*
X158574226Y-73401801D01*
X158479225Y-73511438D01*
X158479222Y-73511443D01*
X158418958Y-73643402D01*
X158418957Y-73643405D01*
X158398312Y-73787000D01*
X148812248Y-73787000D01*
X148815577Y-73783158D01*
X148875842Y-73651196D01*
X148896488Y-73507600D01*
X148875842Y-73364004D01*
X148815577Y-73232042D01*
X148815574Y-73232038D01*
X148720573Y-73122401D01*
X148598536Y-73043973D01*
X148598527Y-73043969D01*
X148533924Y-73025000D01*
X159256312Y-73025000D01*
X159276957Y-73168594D01*
X159276958Y-73168597D01*
X159337222Y-73300556D01*
X159337225Y-73300561D01*
X159432226Y-73410198D01*
X159554263Y-73488626D01*
X159554268Y-73488629D01*
X159631967Y-73511443D01*
X159693461Y-73529499D01*
X159693463Y-73529500D01*
X159693464Y-73529500D01*
X159838537Y-73529500D01*
X159838537Y-73529499D01*
X159977732Y-73488629D01*
X160025080Y-73458200D01*
X160099773Y-73410198D01*
X160103411Y-73406000D01*
X160194777Y-73300558D01*
X160255042Y-73168596D01*
X160275688Y-73025000D01*
X160255042Y-72881404D01*
X160194777Y-72749442D01*
X160194774Y-72749438D01*
X160103411Y-72644000D01*
X165860312Y-72644000D01*
X165880957Y-72787594D01*
X165880958Y-72787597D01*
X165941222Y-72919556D01*
X165941225Y-72919561D01*
X166036226Y-73029198D01*
X166158263Y-73107626D01*
X166158268Y-73107629D01*
X166297461Y-73148499D01*
X166297463Y-73148500D01*
X166297464Y-73148500D01*
X166442537Y-73148500D01*
X166442537Y-73148499D01*
X166581732Y-73107629D01*
X166627535Y-73078192D01*
X166703773Y-73029198D01*
X166726387Y-73003100D01*
X166798777Y-72919558D01*
X166859042Y-72787596D01*
X166879688Y-72644000D01*
X166859042Y-72500404D01*
X166798777Y-72368442D01*
X166798774Y-72368438D01*
X166703773Y-72258801D01*
X166581736Y-72180373D01*
X166581727Y-72180369D01*
X166442538Y-72139500D01*
X166442536Y-72139500D01*
X166297464Y-72139500D01*
X166297462Y-72139500D01*
X166158272Y-72180369D01*
X166158263Y-72180373D01*
X166036226Y-72258801D01*
X165941225Y-72368438D01*
X165941222Y-72368443D01*
X165880958Y-72500402D01*
X165880957Y-72500405D01*
X165860312Y-72644000D01*
X160103411Y-72644000D01*
X160099773Y-72639801D01*
X159977736Y-72561373D01*
X159977727Y-72561369D01*
X159838538Y-72520500D01*
X159838536Y-72520500D01*
X159693464Y-72520500D01*
X159693462Y-72520500D01*
X159554272Y-72561369D01*
X159554263Y-72561373D01*
X159432226Y-72639801D01*
X159337225Y-72749438D01*
X159337222Y-72749443D01*
X159276958Y-72881402D01*
X159276957Y-72881405D01*
X159256312Y-73025000D01*
X148533924Y-73025000D01*
X148459338Y-73003100D01*
X148459336Y-73003100D01*
X148314264Y-73003100D01*
X148314262Y-73003100D01*
X148175072Y-73043969D01*
X148175063Y-73043973D01*
X148053026Y-73122401D01*
X147958025Y-73232038D01*
X147958022Y-73232043D01*
X147897758Y-73364002D01*
X147897757Y-73364005D01*
X147877112Y-73507600D01*
X140081000Y-73507600D01*
X140081000Y-73159917D01*
X140082201Y-73147723D01*
X140084652Y-73135404D01*
X140086500Y-73126112D01*
X140086500Y-72898000D01*
X140409512Y-72898000D01*
X140430157Y-73041594D01*
X140430158Y-73041597D01*
X140490422Y-73173556D01*
X140490425Y-73173561D01*
X140585426Y-73283198D01*
X140707463Y-73361626D01*
X140707468Y-73361629D01*
X140844294Y-73401804D01*
X140846661Y-73402499D01*
X140846663Y-73402500D01*
X140846664Y-73402500D01*
X140991737Y-73402500D01*
X140991737Y-73402499D01*
X141130932Y-73361629D01*
X141190465Y-73323369D01*
X141252973Y-73283198D01*
X141256611Y-73279000D01*
X141347977Y-73173558D01*
X141408242Y-73041596D01*
X141428888Y-72898000D01*
X141408242Y-72754404D01*
X141347977Y-72622442D01*
X141347974Y-72622438D01*
X141252973Y-72512801D01*
X141130936Y-72434373D01*
X141130927Y-72434369D01*
X140991738Y-72393500D01*
X140991736Y-72393500D01*
X140846664Y-72393500D01*
X140846662Y-72393500D01*
X140707472Y-72434369D01*
X140707463Y-72434373D01*
X140585426Y-72512801D01*
X140490425Y-72622438D01*
X140490422Y-72622443D01*
X140430158Y-72754402D01*
X140430157Y-72754405D01*
X140409512Y-72898000D01*
X140086500Y-72898000D01*
X140086500Y-68600388D01*
X140104806Y-68556194D01*
X140184194Y-68476806D01*
X140228388Y-68458500D01*
X144040046Y-68458500D01*
X144084240Y-68476806D01*
X144102546Y-68521000D01*
X144099487Y-68540311D01*
X144086592Y-68579999D01*
X144026504Y-68764928D01*
X143967360Y-69074972D01*
X143967359Y-69074976D01*
X143947540Y-69390000D01*
X143967359Y-69705023D01*
X143967360Y-69705027D01*
X144026504Y-70015071D01*
X144124042Y-70315261D01*
X144124045Y-70315268D01*
X144258438Y-70600869D01*
X144258448Y-70600887D01*
X144427564Y-70867371D01*
X144427566Y-70867373D01*
X144475653Y-70925500D01*
X144628767Y-71110582D01*
X144858860Y-71326654D01*
X145114221Y-71512184D01*
X145114224Y-71512185D01*
X145114224Y-71512186D01*
X145235339Y-71578769D01*
X145390821Y-71664247D01*
X145589880Y-71743060D01*
X145684292Y-71780441D01*
X145684311Y-71780447D01*
X145911278Y-71838721D01*
X145990021Y-71858939D01*
X145990022Y-71858939D01*
X145990025Y-71858940D01*
X146303179Y-71898500D01*
X146303180Y-71898500D01*
X146618820Y-71898500D01*
X146618821Y-71898500D01*
X146931975Y-71858940D01*
X147042551Y-71830548D01*
X147237688Y-71780447D01*
X147237694Y-71780444D01*
X147237702Y-71780443D01*
X147531179Y-71664247D01*
X147597112Y-71628000D01*
X148588312Y-71628000D01*
X148608957Y-71771594D01*
X148608958Y-71771597D01*
X148669222Y-71903556D01*
X148669225Y-71903561D01*
X148764226Y-72013198D01*
X148886263Y-72091626D01*
X148886268Y-72091629D01*
X149023094Y-72131804D01*
X149025461Y-72132499D01*
X149025463Y-72132500D01*
X149025464Y-72132500D01*
X149170537Y-72132500D01*
X149170537Y-72132499D01*
X149309732Y-72091629D01*
X149400182Y-72033500D01*
X149431773Y-72013198D01*
X149526774Y-71903561D01*
X149526777Y-71903558D01*
X149587042Y-71771596D01*
X149607688Y-71628000D01*
X149587042Y-71484404D01*
X149526777Y-71352442D01*
X149504432Y-71326654D01*
X149431773Y-71242801D01*
X149309736Y-71164373D01*
X149309727Y-71164369D01*
X149170538Y-71123500D01*
X149170536Y-71123500D01*
X149025464Y-71123500D01*
X149025462Y-71123500D01*
X148886272Y-71164369D01*
X148886263Y-71164373D01*
X148764226Y-71242801D01*
X148669225Y-71352438D01*
X148669222Y-71352443D01*
X148608958Y-71484402D01*
X148608957Y-71484405D01*
X148588312Y-71628000D01*
X147597112Y-71628000D01*
X147807779Y-71512184D01*
X148063140Y-71326654D01*
X148293233Y-71110582D01*
X148494432Y-70867375D01*
X148522240Y-70823558D01*
X148663551Y-70600887D01*
X148663553Y-70600881D01*
X148663562Y-70600869D01*
X148748202Y-70421000D01*
X167003312Y-70421000D01*
X167023957Y-70564594D01*
X167023958Y-70564597D01*
X167084222Y-70696556D01*
X167084225Y-70696561D01*
X167179226Y-70806198D01*
X167301263Y-70884626D01*
X167301268Y-70884629D01*
X167440461Y-70925499D01*
X167440463Y-70925500D01*
X167440464Y-70925500D01*
X167585537Y-70925500D01*
X167585537Y-70925499D01*
X167724732Y-70884629D01*
X167770535Y-70855192D01*
X167846773Y-70806198D01*
X167941774Y-70696561D01*
X167941777Y-70696558D01*
X168002042Y-70564596D01*
X168022688Y-70421000D01*
X168002042Y-70277404D01*
X167941777Y-70145442D01*
X167909505Y-70108198D01*
X167846773Y-70035801D01*
X167724736Y-69957373D01*
X167724727Y-69957369D01*
X167585538Y-69916500D01*
X167585536Y-69916500D01*
X167440464Y-69916500D01*
X167440462Y-69916500D01*
X167301272Y-69957369D01*
X167301263Y-69957373D01*
X167179226Y-70035801D01*
X167084225Y-70145438D01*
X167084222Y-70145443D01*
X167023958Y-70277402D01*
X167023957Y-70277405D01*
X167003312Y-70421000D01*
X148748202Y-70421000D01*
X148797956Y-70315266D01*
X148895495Y-70015072D01*
X148954641Y-69705020D01*
X148974460Y-69390000D01*
X148954641Y-69074980D01*
X148895495Y-68764928D01*
X148822513Y-68540312D01*
X148826266Y-68492626D01*
X148862640Y-68461559D01*
X148881954Y-68458500D01*
X151805222Y-68458500D01*
X151805228Y-68458500D01*
X151853052Y-68453357D01*
X151859733Y-68453000D01*
X152818966Y-68453000D01*
X152831159Y-68454201D01*
G37*
G04 #@! TD.AperFunction*
G04 #@! TD*
M02*
