M48
; DRILL file {KiCad 8.0.2} date 2024-07-12T07:55:05+0200
; FORMAT={-:-/ absolute / inch / decimal}
; #@! TF.CreationDate,2024-07-12T07:55:05+02:00
; #@! TF.GenerationSoftware,Kicad,Pcbnew,8.0.2
; #@! TF.FileFunction,Plated,1,4,PTH
FMAT,2
INCH
; #@! TA.AperFunction,Plated,PTH,ViaDrill
T1C0.0079
; #@! TA.AperFunction,Plated,PTH,ComponentDrill
T2C0.0079
; #@! TA.AperFunction,Plated,PTH,ViaDrill
T3C0.0197
; #@! TA.AperFunction,Plated,PTH,ComponentDrill
T4C0.0256
; #@! TA.AperFunction,Plated,PTH,ComponentDrill
T5C0.0354
; #@! TA.AperFunction,Plated,PTH,ComponentDrill
T6C0.0394
; #@! TA.AperFunction,Plated,PTH,ComponentDrill
T7C0.0402
; #@! TA.AperFunction,Plated,PTH,ComponentDrill
T8C0.0512
; #@! TA.AperFunction,Plated,PTH,ComponentDrill
T9C0.0551
; #@! TA.AperFunction,Plated,PTH,ComponentDrill
T10C0.0630
; #@! TA.AperFunction,Plated,PTH,ComponentDrill
T11C0.1252
; #@! TA.AperFunction,Plated,PTH,ComponentDrill
T12C0.1260
%
G90
G05
T1
X5.018Y-3.123
X5.04Y-3.173
X5.04Y-3.423
X5.04Y-3.51
X5.045Y-3.273
X5.045Y-3.323
X5.045Y-3.373
X5.063Y-3.073
X5.16Y-3.12
X5.192Y-3.292
X5.2Y-3.3376
X5.21Y-3.375
X5.215Y-3.1
X5.22Y-3.56
X5.26Y-3.705
X5.26Y-3.885
X5.2626Y-3.5226
X5.265Y-2.995
X5.3Y-3.705
X5.3Y-3.885
X5.314Y-3.079
X5.315Y-3.19
X5.34Y-3.705
X5.34Y-3.885
X5.345Y-3.375
X5.35Y-3.56
X5.4Y-3.224
X5.42Y-3.075
X5.423Y-3.563
X5.435Y-3.4404
X5.4691Y-3.305
X5.4716Y-3.1866
X5.475Y-2.945
X5.4795Y-3.8205
X5.4975Y-3.555
X5.505Y-3.445
X5.508Y-2.863
X5.512Y-3.1869
X5.5225Y-3.355
X5.55Y-2.935
X5.5509Y-3.0809
X5.5716Y-3.1734
X5.595Y-3.52
X5.64Y-3.03
X5.64Y-3.155
X5.64Y-3.235
X5.65Y-3.195
X5.655Y-3.465
X5.66Y-2.915
X5.71Y-3.505
X5.71Y-3.64
X5.76Y-3.47
X5.765Y-3.035
X5.77Y-3.11
X5.77Y-3.15
X5.8Y-3.03
X5.805Y-3.43
X5.815Y-3.13
X5.835Y-2.89
X5.845Y-3.03
X5.875Y-2.84
X5.88Y-3.01
X5.93Y-3.03
X5.94Y-3.375
X5.9418Y-3.21
X5.965Y-2.56
X5.985Y-3.115
X5.9972Y-2.674
X6.0Y-3.835
X6.025Y-2.56
X6.025Y-2.715
X6.025Y-3.285
X6.0544Y-2.9944
X6.065Y-3.115
X6.0772Y-2.6978
X6.08Y-2.6466
X6.0809Y-2.7474
X6.09Y-3.375
X6.0912Y-2.9962
X6.115Y-3.48
X6.14Y-3.4027
X6.15Y-2.56
X6.1528Y-2.99
X6.165Y-3.42
X6.18Y-3.205
X6.19Y-3.44
X6.2Y-2.72
X6.2Y-3.495
X6.21Y-2.56
X6.23Y-3.61
X6.2315Y-3.475
X6.235Y-3.02
X6.24Y-3.205
X6.2476Y-2.72
X6.261Y-3.516
X6.27Y-3.0073
X6.2709Y-3.1909
X6.275Y-3.1319
X6.285Y-2.735
X6.285Y-2.84
X6.3224Y-2.72
X6.325Y-2.895
X6.335Y-2.56
X6.39Y-2.9793
X6.395Y-2.56
X6.415Y-2.91
X6.4156Y-3.0506
X6.424Y-2.9478
X6.424Y-3.01
X6.4544Y-3.0715
X6.465Y-2.66
X6.465Y-2.805
X6.495Y-3.0096
X6.5022Y-2.9478
X6.5031Y-3.0442
X6.545Y-2.86
X6.545Y-2.98
X6.57Y-2.97
X6.5727Y-3.0442
X6.585Y-3.795
X6.585Y-3.83
X6.585Y-3.865
X6.59Y-3.005
X6.595Y-2.63
X6.595Y-2.7725
X6.6237Y-3.0713
X6.665Y-3.355
X6.665Y-3.385
X6.67Y-3.125
X6.6852Y-3.1
X6.69Y-3.19
X6.7Y-3.355
X6.7Y-3.385
X6.72Y-3.135
X6.72Y-3.19
X6.7245Y-3.1005
X6.735Y-3.355
X6.735Y-3.385
X6.74Y-2.855
X6.745Y-2.885
X6.755Y-2.63
X6.755Y-2.7775
X6.77Y-2.93
X6.78Y-3.08
X6.82Y-3.18
X6.835Y-2.9999
X6.835Y-3.0294
X7.07Y-3.715
X7.1676Y-3.8524
X7.245Y-3.675
X7.275Y-3.675
X7.3076Y-3.675
X7.44Y-3.905
X7.48Y-3.905
X7.52Y-3.905
T2
X6.6556Y-2.9556
X6.6556Y-2.995
X6.6556Y-3.0344
X6.695Y-2.9556
X6.695Y-2.995
X6.695Y-3.0344
X6.7344Y-2.9556
X6.7344Y-2.995
X6.7344Y-3.0344
T3
X4.3Y-2.9
X4.3Y-3.6
X4.4Y-2.9
X4.4Y-3.0
X4.4Y-3.5
X4.4Y-3.6
X4.5Y-2.9
X4.5Y-3.0
X4.5Y-3.5
X4.5Y-3.6
X4.6Y-2.9
X4.6Y-3.0
X4.6Y-3.5
X4.6Y-3.6
T4
X5.7246Y-3.7996
X5.7246Y-3.8496
X5.7746Y-3.7996
X5.7746Y-3.8496
X5.8246Y-3.7996
X5.8246Y-3.8496
X5.8746Y-3.7996
X5.8746Y-3.8496
X5.9246Y-3.7996
X5.9246Y-3.8496
T5
X7.0787Y-2.8189
X7.0787Y-2.9189
X7.0787Y-3.0189
X7.0787Y-3.1189
X7.1787Y-2.8689
X7.1787Y-2.9689
X7.1787Y-3.0689
X7.1787Y-3.1689
T6
X7.0454Y-3.4613
X7.1454Y-3.4613
X7.2454Y-3.4613
T7
X6.8886Y-2.7787
X6.8886Y-2.8787
X6.8886Y-3.1091
X6.8886Y-3.2091
T8
X7.6693Y-3.4764
X7.6693Y-3.6732
T9
X4.2744Y-3.0606
X4.2744Y-3.4354
T10
X7.3087Y-2.6829
X7.3087Y-3.3049
T11
X5.7662Y-2.7319
X6.2638Y-3.7681
T12
X7.7362Y-2.5
X7.7362Y-3.9961
M30
