G04 #@! TF.GenerationSoftware,KiCad,Pcbnew,8.0.2*
G04 #@! TF.CreationDate,2024-07-12T07:55:03+02:00*
G04 #@! TF.ProjectId,ETH1HMSR-SMS,45544831-484d-4535-922d-534d532e6b69,rev?*
G04 #@! TF.SameCoordinates,Original*
G04 #@! TF.FileFunction,Copper,L2,Inr*
G04 #@! TF.FilePolarity,Positive*
%FSLAX46Y46*%
G04 Gerber Fmt 4.6, Leading zero omitted, Abs format (unit mm)*
G04 Created by KiCad (PCBNEW 8.0.2) date 2024-07-12 07:55:03*
%MOMM*%
%LPD*%
G01*
G04 APERTURE LIST*
G04 Aperture macros list*
%AMRoundRect*
0 Rectangle with rounded corners*
0 $1 Rounding radius*
0 $2 $3 $4 $5 $6 $7 $8 $9 X,Y pos of 4 corners*
0 Add a 4 corners polygon primitive as box body*
4,1,4,$2,$3,$4,$5,$6,$7,$8,$9,$2,$3,0*
0 Add four circle primitives for the rounded corners*
1,1,$1+$1,$2,$3*
1,1,$1+$1,$4,$5*
1,1,$1+$1,$6,$7*
1,1,$1+$1,$8,$9*
0 Add four rect primitives between the rounded corners*
20,1,$1+$1,$2,$3,$4,$5,0*
20,1,$1+$1,$4,$5,$6,$7,0*
20,1,$1+$1,$6,$7,$8,$9,0*
20,1,$1+$1,$8,$9,$2,$3,0*%
G04 Aperture macros list end*
%ADD10C,0.200000*%
G04 #@! TA.AperFunction,NonConductor*
%ADD11C,0.200000*%
G04 #@! TD*
G04 #@! TA.AperFunction,ComponentPad*
%ADD12R,2.600000X2.600000*%
G04 #@! TD*
G04 #@! TA.AperFunction,ComponentPad*
%ADD13C,2.600000*%
G04 #@! TD*
G04 #@! TA.AperFunction,ComponentPad*
%ADD14RoundRect,0.248000X0.552000X-0.552000X0.552000X0.552000X-0.552000X0.552000X-0.552000X-0.552000X0*%
G04 #@! TD*
G04 #@! TA.AperFunction,ComponentPad*
%ADD15C,1.600000*%
G04 #@! TD*
G04 #@! TA.AperFunction,ComponentPad*
%ADD16C,1.720000*%
G04 #@! TD*
G04 #@! TA.AperFunction,ComponentPad*
%ADD17C,2.200000*%
G04 #@! TD*
G04 #@! TA.AperFunction,ComponentPad*
%ADD18C,5.600000*%
G04 #@! TD*
G04 #@! TA.AperFunction,ComponentPad*
%ADD19R,3.000000X3.000000*%
G04 #@! TD*
G04 #@! TA.AperFunction,ComponentPad*
%ADD20C,3.000000*%
G04 #@! TD*
G04 #@! TA.AperFunction,ComponentPad*
%ADD21R,1.000000X1.000000*%
G04 #@! TD*
G04 #@! TA.AperFunction,ComponentPad*
%ADD22O,1.000000X1.000000*%
G04 #@! TD*
G04 #@! TA.AperFunction,HeatsinkPad*
%ADD23C,0.500000*%
G04 #@! TD*
G04 #@! TA.AperFunction,ComponentPad*
%ADD24C,4.000000*%
G04 #@! TD*
G04 #@! TA.AperFunction,ComponentPad*
%ADD25R,1.500000X2.500000*%
G04 #@! TD*
G04 #@! TA.AperFunction,ComponentPad*
%ADD26O,1.500000X2.500000*%
G04 #@! TD*
G04 #@! TA.AperFunction,ViaPad*
%ADD27C,0.500000*%
G04 #@! TD*
G04 #@! TA.AperFunction,ViaPad*
%ADD28C,0.900000*%
G04 #@! TD*
G04 #@! TA.AperFunction,Conductor*
%ADD29C,0.127000*%
G04 #@! TD*
G04 APERTURE END LIST*
D10*
D11*
X186150286Y-63047457D02*
X186197905Y-62999838D01*
X186197905Y-62999838D02*
X186293143Y-62952219D01*
X186293143Y-62952219D02*
X186531238Y-62952219D01*
X186531238Y-62952219D02*
X186626476Y-62999838D01*
X186626476Y-62999838D02*
X186674095Y-63047457D01*
X186674095Y-63047457D02*
X186721714Y-63142695D01*
X186721714Y-63142695D02*
X186721714Y-63237933D01*
X186721714Y-63237933D02*
X186674095Y-63380790D01*
X186674095Y-63380790D02*
X186102667Y-63952219D01*
X186102667Y-63952219D02*
X186721714Y-63952219D01*
D12*
G04 #@! TO.N,Net-(J201-Pin_1)*
G04 #@! TO.C,J201*
X194800000Y-93300000D03*
D13*
G04 #@! TO.N,GND*
X194800000Y-88300000D03*
G04 #@! TD*
D14*
G04 #@! TO.N,/Ethernet/ETH_TXP*
G04 #@! TO.C,J301*
X179800000Y-71600000D03*
D15*
G04 #@! TO.N,VCCQ*
X182340000Y-72870000D03*
G04 #@! TO.N,/Ethernet/ETH_TXN*
X179800000Y-74140000D03*
G04 #@! TO.N,/Ethernet/ETH_RXP*
X182340000Y-75410000D03*
G04 #@! TO.N,VCCQ*
X179800000Y-76680000D03*
G04 #@! TO.N,/Ethernet/ETH_RXN*
X182340000Y-77950000D03*
G04 #@! TO.N,unconnected-(J301-NC-Pad7)*
X179800000Y-79220000D03*
G04 #@! TO.N,Earth*
X182340000Y-80490000D03*
D16*
G04 #@! TO.N,Net-(J301-Pad9)*
X174970000Y-70580000D03*
G04 #@! TO.N,/Ethernet/LED1*
X174970000Y-73120000D03*
G04 #@! TO.N,Net-(J301-Pad11)*
X174970000Y-78970000D03*
G04 #@! TO.N,/Ethernet/LED2*
X174970000Y-81510000D03*
D17*
G04 #@! TO.N,Earth*
X185640000Y-68145000D03*
X185640000Y-83945000D03*
G04 #@! TD*
D18*
G04 #@! TO.N,N/C*
G04 #@! TO.C,H103*
X196500000Y-63500000D03*
G04 #@! TD*
D19*
G04 #@! TO.N,Net-(J501-Pin_1)*
G04 #@! TO.C,J501*
X108570000Y-77740000D03*
D20*
G04 #@! TO.N,Net-(J501-Pin_2)*
X108570000Y-87260000D03*
G04 #@! TD*
D21*
G04 #@! TO.N,+3.3V*
G04 #@! TO.C,J401*
X145405000Y-97780000D03*
D22*
G04 #@! TO.N,/MCU/TMS_SWDIO*
X145405000Y-96510000D03*
G04 #@! TO.N,GND*
X146675000Y-97780000D03*
G04 #@! TO.N,/MCU/TCK_SWCLK*
X146675000Y-96510000D03*
G04 #@! TO.N,GND*
X147945000Y-97780000D03*
G04 #@! TO.N,unconnected-(J401-Pin_6-Pad6)*
X147945000Y-96510000D03*
G04 #@! TO.N,unconnected-(J401-Pin_7-Pad7)*
X149215000Y-97780000D03*
G04 #@! TO.N,unconnected-(J401-Pin_8-Pad8)*
X149215000Y-96510000D03*
G04 #@! TO.N,unconnected-(J401-Pin_9-Pad9)*
X150485000Y-97780000D03*
G04 #@! TO.N,/MCU/NRST*
X150485000Y-96510000D03*
G04 #@! TD*
D18*
G04 #@! TO.N,N/C*
G04 #@! TO.C,H104*
X196500000Y-101500000D03*
G04 #@! TD*
D23*
G04 #@! TO.N,GND*
G04 #@! TO.C,U301*
X171053000Y-75073000D03*
X170053000Y-75073000D03*
X169053000Y-75073000D03*
X171053000Y-76073000D03*
X170053000Y-76073000D03*
X169053000Y-76073000D03*
X171053000Y-77073000D03*
X170053000Y-77073000D03*
X169053000Y-77073000D03*
G04 #@! TD*
D24*
G04 #@! TO.N,N/C*
G04 #@! TO.C,HS101*
X159101000Y-95710000D03*
X146461000Y-69390000D03*
G04 #@! TD*
D25*
G04 #@! TO.N,Net-(D201-K)*
G04 #@! TO.C,U201*
X184032500Y-87917500D03*
D26*
G04 #@! TO.N,GND*
X181492500Y-87917500D03*
G04 #@! TO.N,+5V*
X178952500Y-87917500D03*
G04 #@! TD*
D27*
G04 #@! TO.N,Net-(D201-K)*
X184785000Y-93345000D03*
X184023000Y-93345000D03*
X185613000Y-93345000D03*
G04 #@! TO.N,GND*
X154361000Y-68524000D03*
X155321000Y-88392000D03*
X138049000Y-87385500D03*
X159639000Y-69469000D03*
X158369000Y-76708000D03*
X146304000Y-88138000D03*
X150876000Y-85725000D03*
X150922500Y-81534000D03*
X128016000Y-89154000D03*
X140005939Y-80947354D03*
X160909000Y-65024000D03*
X132334000Y-85725000D03*
X127458000Y-79325000D03*
X132588000Y-90424000D03*
X167259000Y-96393000D03*
X139903200Y-72720200D03*
X157480000Y-69088000D03*
X154716586Y-76103586D03*
X153035000Y-65024000D03*
X167513000Y-66802000D03*
X167259000Y-97282000D03*
X158242000Y-91694000D03*
X143256000Y-76962000D03*
X171577000Y-66802000D03*
X156210000Y-65024000D03*
X162941000Y-73914000D03*
X132461000Y-78740000D03*
X159639000Y-72136000D03*
X158281000Y-88265000D03*
X149352000Y-76454000D03*
X167259000Y-98171000D03*
X145034000Y-92456000D03*
X173228000Y-80772000D03*
X142113000Y-89408000D03*
X143637000Y-88011000D03*
X162433000Y-65024000D03*
X131876800Y-83616800D03*
X151511000Y-65024000D03*
X157734000Y-65024000D03*
G04 #@! TO.N,+5V*
X134620000Y-98679000D03*
X135636000Y-98679000D03*
X133604000Y-98679000D03*
G04 #@! TO.N,+3.3V*
X171069000Y-85217000D03*
X145034000Y-89027000D03*
X156281000Y-75946000D03*
X153781000Y-76057000D03*
X163942891Y-78015000D03*
X152400000Y-97409000D03*
X139180000Y-97040000D03*
X159030500Y-89307500D03*
X140970000Y-74549000D03*
X169291000Y-85979000D03*
X169291000Y-85217000D03*
X170180000Y-85217000D03*
X159258000Y-76386500D03*
X146431000Y-77089000D03*
X154686000Y-85725000D03*
X171069000Y-85979000D03*
X139636500Y-90297000D03*
X134974500Y-78205500D03*
X170180000Y-85979000D03*
X166878000Y-75438000D03*
X164211000Y-71247000D03*
G04 #@! TO.N,Net-(U301-XTAL1{slash}CLKIN)*
X167513000Y-70421000D03*
G04 #@! TO.N,Net-(U301-VDDCR)*
X166243000Y-72644000D03*
G04 #@! TO.N,Net-(U301-XTAL2)*
X171577000Y-70548000D03*
G04 #@! TO.N,VCCQ*
X170688000Y-81026000D03*
X171323000Y-73279000D03*
X169926000Y-81026000D03*
X172212000Y-78232000D03*
G04 #@! TO.N,/MCU/NRST*
X153035000Y-83439000D03*
X169803000Y-78740000D03*
G04 #@! TO.N,VDDA*
X148209000Y-73406000D03*
G04 #@! TO.N,+5VL*
X139065000Y-74803000D03*
X135636000Y-94107000D03*
X131064000Y-79248000D03*
X160589000Y-69088000D03*
X135001000Y-81026000D03*
X128143000Y-85675000D03*
X133604000Y-94107000D03*
X134620000Y-94107000D03*
G04 #@! TO.N,+2V5*
X133670000Y-89474000D03*
X128143000Y-84405000D03*
G04 #@! TO.N,Net-(D201-A)*
X179578000Y-94361000D03*
G04 #@! TO.N,Net-(D202-K)*
X182057000Y-97851000D03*
G04 #@! TO.N,Net-(Q201-D)*
X189992000Y-99187000D03*
X191008000Y-99187000D03*
X188976000Y-99187000D03*
G04 #@! TO.N,/Ethernet/ETH_TXP*
X173609000Y-76198000D03*
G04 #@! TO.N,/Ethernet/ETH_TXN*
X173609000Y-76948000D03*
G04 #@! TO.N,/Ethernet/LED2*
X171196000Y-72517000D03*
G04 #@! TO.N,/MCU/MCU_DEF*
X160655000Y-73533000D03*
X164211000Y-67564000D03*
G04 #@! TO.N,/Ethernet/MODE0*
X165157000Y-74873000D03*
G04 #@! TO.N,/Ethernet/RMII_RXD0*
X163168998Y-74873000D03*
X147701000Y-79502000D03*
G04 #@! TO.N,/Ethernet/MODE1*
X166243000Y-75692000D03*
G04 #@! TO.N,/Ethernet/RMII_RXD1*
X162306000Y-75673000D03*
X146558000Y-80010000D03*
G04 #@! TO.N,Net-(U301-RXER{slash}PHYAD0)*
X167386000Y-76327000D03*
G04 #@! TO.N,/Ethernet/MODE2*
X164972389Y-76442634D03*
G04 #@! TO.N,/Ethernet/RMII_CRS_DV*
X146558000Y-78994000D03*
X163168998Y-76454000D03*
G04 #@! TO.N,/Ethernet/REFCLK0*
X165178500Y-77323000D03*
G04 #@! TO.N,/Ethernet/REF_CLK*
X148463000Y-76962000D03*
X162956499Y-77485499D03*
G04 #@! TO.N,/Ethernet/RMII_MDIO*
X147320000Y-76962000D03*
X166945500Y-77323000D03*
G04 #@! TO.N,Net-(U301-RBIAS)*
X171958000Y-74422000D03*
G04 #@! TO.N,/MCU/I2C1_SDA*
X156972000Y-81407000D03*
G04 #@! TO.N,/MCU/I2C1_SCL*
X158496000Y-81407000D03*
G04 #@! TO.N,Net-(U501-Veocd)*
X128601000Y-78055000D03*
G04 #@! TO.N,/Current/OCD_EXT*
X137668000Y-78105000D03*
X143256000Y-80137000D03*
X128016000Y-80595000D03*
G04 #@! TO.N,/Current/OCD_INT*
X128016000Y-86945000D03*
G04 #@! TO.N,/Ethernet/RMII_MDC*
X168242500Y-78010500D03*
X150622000Y-76962000D03*
G04 #@! TO.N,/Ethernet/RMII_TXEN*
X155956000Y-86427500D03*
X169418000Y-79375000D03*
G04 #@! TO.N,/Ethernet/RMII_TXD0*
X156591000Y-86868000D03*
X170803000Y-78752000D03*
G04 #@! TO.N,/Ethernet/RMII_TXD1*
X157226000Y-87376000D03*
X170688000Y-79629000D03*
G04 #@! TO.N,Net-(D501-K-Pad3)*
X143764000Y-74041000D03*
X138979000Y-80940000D03*
X139827000Y-87503000D03*
G04 #@! TO.N,/MCU/EEPROM_nWP*
X159282000Y-81050000D03*
D28*
G04 #@! TO.N,Net-(J501-Pin_1)*
X111760000Y-73660000D03*
X114300000Y-76200000D03*
X116840000Y-73660000D03*
X116840000Y-76200000D03*
X109220000Y-73660000D03*
X114300000Y-73660000D03*
X111760000Y-76200000D03*
G04 #@! TO.N,Net-(J501-Pin_2)*
X116840000Y-91440000D03*
X114300000Y-91440000D03*
X116840000Y-88900000D03*
X111760000Y-91440000D03*
X111760000Y-88900000D03*
X109220000Y-91440000D03*
X114300000Y-88900000D03*
D27*
G04 #@! TO.N,Net-(U501-Vout)*
X128143000Y-83135000D03*
G04 #@! TO.N,Net-(R507-Pad1)*
X132080000Y-84775000D03*
G04 #@! TO.N,/Current/MCU_ZOFFS*
X143510000Y-81153000D03*
X133731000Y-76073000D03*
G04 #@! TO.N,/Current/MCU_G1*
X137160000Y-81889600D03*
X143256000Y-82169000D03*
G04 #@! TO.N,Net-(R513-Pad2)*
X140993500Y-78255500D03*
G04 #@! TO.N,+3.3VADC*
X153035000Y-68961000D03*
X149225000Y-72136000D03*
X158689000Y-69088000D03*
G04 #@! TO.N,VDD*
X152329000Y-67918500D03*
X138914500Y-83947000D03*
G04 #@! TO.N,Net-(U403-PH0)*
X154051000Y-79121000D03*
G04 #@! TO.N,Net-(U403-PH1)*
X152019000Y-79121000D03*
G04 #@! TO.N,Net-(C419-Pad1)*
X147447000Y-87122000D03*
G04 #@! TO.N,Net-(U403-BOOT0)*
X159385000Y-79550000D03*
G04 #@! TO.N,/Current/VOUT*
X154455500Y-69783000D03*
X154432000Y-67224000D03*
G04 #@! TO.N,Net-(U502A--)*
X140271500Y-85217000D03*
X137744200Y-90500200D03*
G04 #@! TO.N,Net-(U502B-+)*
X135890000Y-90424000D03*
G04 #@! TO.N,Net-(U502A-+)*
X135763000Y-85725000D03*
G04 #@! TO.N,Net-(C420-Pad1)*
X157480000Y-88773000D03*
G04 #@! TO.N,Net-(R512-Pad2)*
X141519000Y-80604000D03*
G04 #@! TD*
D29*
G04 #@! TO.N,*
X187198000Y-62611000D02*
X187198000Y-64389000D01*
X184150000Y-62611000D02*
X190246000Y-62611000D01*
X188722000Y-62611000D02*
X188722000Y-64389000D01*
X190246000Y-64389000D02*
X190246000Y-62611000D01*
X190246000Y-64389000D02*
X184150000Y-64389000D01*
X185674000Y-64389000D02*
X185674000Y-62611000D01*
X184150000Y-64389000D02*
X184150000Y-62611000D01*
G04 #@! TO.N,/MCU/NRST*
X163068000Y-78740000D02*
X169803000Y-78740000D01*
X153035000Y-83439000D02*
X155702000Y-83439000D01*
X155702000Y-83439000D02*
X156972000Y-82169000D01*
X159639000Y-82169000D02*
X163068000Y-78740000D01*
X156972000Y-82169000D02*
X159639000Y-82169000D01*
G04 #@! TO.N,/Ethernet/LED2*
X171196000Y-72517000D02*
X171831000Y-71882000D01*
X176276000Y-80137000D02*
X174875000Y-81538000D01*
X171831000Y-71882000D02*
X175514000Y-71882000D01*
X175514000Y-71882000D02*
X176276000Y-72644000D01*
X176276000Y-72644000D02*
X176276000Y-80137000D01*
G04 #@! TO.N,/Ethernet/RMII_RXD0*
X145897600Y-79502000D02*
X147701000Y-79502000D01*
X149431600Y-75438000D02*
X149148800Y-75438000D01*
X149971600Y-76128000D02*
X149881600Y-76128000D01*
X150151600Y-75268000D02*
X150151600Y-75438000D01*
X163168998Y-75711020D02*
X162680018Y-76200000D01*
X150871600Y-76128000D02*
X150781600Y-76128000D01*
X150601600Y-75948000D02*
X150601600Y-75618000D01*
X149701600Y-75948000D02*
X149701600Y-75618000D01*
X150151600Y-75438000D02*
X150151600Y-75948000D01*
X149521600Y-75438000D02*
X149431600Y-75438000D01*
X162680018Y-76200000D02*
X161798000Y-76200000D01*
X145415000Y-79019400D02*
X145897600Y-79502000D01*
X150601600Y-75618000D02*
X150601600Y-75268000D01*
X161036000Y-75438000D02*
X151231600Y-75438000D01*
X163168998Y-74873000D02*
X163168998Y-75711020D01*
X150431600Y-75098000D02*
X150321600Y-75098000D01*
X149148800Y-75438000D02*
X146431000Y-75438000D01*
X161798000Y-76200000D02*
X161036000Y-75438000D01*
X145415000Y-76454000D02*
X145415000Y-79019400D01*
X146431000Y-75438000D02*
X145415000Y-76454000D01*
X151051600Y-75618000D02*
X151051600Y-75948000D01*
X149881600Y-76128000D02*
G75*
G02*
X149701600Y-75948000I0J180000D01*
G01*
X150781600Y-76128000D02*
G75*
G02*
X150601600Y-75948000I0J180000D01*
G01*
X151051600Y-75948000D02*
G75*
G02*
X150871600Y-76128000I-180000J0D01*
G01*
X149701600Y-75618000D02*
G75*
G03*
X149521600Y-75438000I-180000J0D01*
G01*
X150601600Y-75268000D02*
G75*
G03*
X150431600Y-75098000I-170000J0D01*
G01*
X150151600Y-75948000D02*
G75*
G02*
X149971600Y-76128000I-180000J0D01*
G01*
X150321600Y-75098000D02*
G75*
G03*
X150151600Y-75268000I0J-170000D01*
G01*
X151231600Y-75438000D02*
G75*
G03*
X151051600Y-75618000I0J-180000D01*
G01*
G04 #@! TO.N,/Ethernet/RMII_RXD1*
X153744095Y-74973000D02*
X153744095Y-74803000D01*
X153928095Y-73963000D02*
X154020095Y-73963000D01*
X153284095Y-74619000D02*
X153284095Y-74973000D01*
X153454095Y-75143000D02*
X153574095Y-75143000D01*
X154204095Y-74803000D02*
X154204095Y-74973000D01*
X152824095Y-74619000D02*
X152824095Y-74147000D01*
X154834095Y-74803000D02*
X154954095Y-74803000D01*
X161417000Y-74803000D02*
X162287000Y-75673000D01*
X145669000Y-80010000D02*
X145034000Y-79375000D01*
X153284095Y-74147000D02*
X153284095Y-74619000D01*
X154374095Y-75143000D02*
X154494095Y-75143000D01*
X146050000Y-74803000D02*
X152640095Y-74803000D01*
X154954095Y-74803000D02*
X155397200Y-74803000D01*
X153008095Y-73963000D02*
X153100095Y-73963000D01*
X145034000Y-75819000D02*
X146050000Y-74803000D01*
X153744095Y-74803000D02*
X153744095Y-74147000D01*
X146558000Y-80010000D02*
X145669000Y-80010000D01*
X162287000Y-75673000D02*
X162306000Y-75673000D01*
X155397200Y-74803000D02*
X161417000Y-74803000D01*
X154204095Y-74147000D02*
X154204095Y-74803000D01*
X145034000Y-79375000D02*
X145034000Y-75819000D01*
X152824095Y-74147000D02*
G75*
G02*
X153008095Y-73962995I184005J0D01*
G01*
X154020095Y-73963000D02*
G75*
G02*
X154204100Y-74147000I5J-184000D01*
G01*
X154494095Y-75143000D02*
G75*
G03*
X154664100Y-74973000I5J170000D01*
G01*
X153574095Y-75143000D02*
G75*
G03*
X153744100Y-74973000I5J170000D01*
G01*
X153284095Y-74973000D02*
G75*
G03*
X153454095Y-75143005I170005J0D01*
G01*
X152640095Y-74803000D02*
G75*
G03*
X152824100Y-74619000I5J184000D01*
G01*
X154664095Y-74973000D02*
G75*
G02*
X154834095Y-74802995I170005J0D01*
G01*
X153744095Y-74147000D02*
G75*
G02*
X153928095Y-73962995I184005J0D01*
G01*
X153100095Y-73963000D02*
G75*
G02*
X153284100Y-74147000I5J-184000D01*
G01*
X154204095Y-74973000D02*
G75*
G03*
X154374095Y-75143005I170005J0D01*
G01*
G04 #@! TO.N,/Ethernet/RMII_CRS_DV*
X145796000Y-78740000D02*
X145796000Y-76962000D01*
X153468659Y-76940500D02*
X153468659Y-76820500D01*
X157988000Y-75946000D02*
X159829500Y-75946000D01*
X155718659Y-76640500D02*
X155718659Y-76890500D01*
X159829500Y-75946000D02*
X160337500Y-76454000D01*
X148551900Y-76327000D02*
X149136100Y-76911200D01*
X149136100Y-76911200D02*
X149656800Y-76911200D01*
X152118659Y-76460500D02*
X152118659Y-76890500D01*
X152298659Y-77070500D02*
X152388659Y-77070500D01*
X154098659Y-77120500D02*
X154188659Y-77120500D01*
X146050000Y-78994000D02*
X145796000Y-78740000D01*
X152118659Y-75940500D02*
X152118659Y-76460500D01*
X151848659Y-75760500D02*
X151938659Y-75760500D01*
X156348659Y-76640500D02*
X156438659Y-76640500D01*
X155268659Y-76890500D02*
X155268659Y-76820500D01*
X155448659Y-75760500D02*
X155538659Y-75760500D01*
X153018659Y-75940500D02*
X153018659Y-76640500D01*
X145796000Y-76962000D02*
X146431000Y-76327000D01*
X152568659Y-76640500D02*
X152568659Y-75940500D01*
X153198659Y-77120500D02*
X153288659Y-77120500D01*
X150926800Y-76454000D02*
X151113300Y-76640500D01*
X149656800Y-76911200D02*
X150114000Y-76454000D01*
X152748659Y-75760500D02*
X152838659Y-75760500D01*
X154548659Y-76640500D02*
X154638659Y-76640500D01*
X154818659Y-76820500D02*
X154818659Y-76890500D01*
X154998659Y-77070500D02*
X155088659Y-77070500D01*
X155718659Y-75940500D02*
X155718659Y-76640500D01*
X155898659Y-77070500D02*
X155988659Y-77070500D01*
X153648659Y-76640500D02*
X153738659Y-76640500D01*
X153018659Y-76640500D02*
X153018659Y-76940500D01*
X152568659Y-76890500D02*
X152568659Y-76640500D01*
X151668659Y-76460500D02*
X151668659Y-75940500D01*
X156168659Y-76890500D02*
X156168659Y-76820500D01*
X153918659Y-76820500D02*
X153918659Y-76940500D01*
X160337500Y-76454000D02*
X163168998Y-76454000D01*
X146431000Y-76327000D02*
X148551900Y-76327000D01*
X156649492Y-76640500D02*
X157293500Y-76640500D01*
X157293500Y-76640500D02*
X157988000Y-75946000D01*
X150114000Y-76454000D02*
X150926800Y-76454000D01*
X155268659Y-76820500D02*
X155268659Y-75940500D01*
X156438659Y-76640500D02*
X156649492Y-76640500D01*
X154368659Y-76940500D02*
X154368659Y-76820500D01*
X146558000Y-78994000D02*
X146050000Y-78994000D01*
X151113300Y-76640500D02*
X151488659Y-76640500D01*
X153738659Y-76640500D02*
G75*
G02*
X153918700Y-76820500I41J-180000D01*
G01*
X152838659Y-75760500D02*
G75*
G02*
X153018700Y-75940500I41J-180000D01*
G01*
X153918659Y-76940500D02*
G75*
G03*
X154098659Y-77120541I180041J0D01*
G01*
X156168659Y-76820500D02*
G75*
G02*
X156348659Y-76640459I180041J0D01*
G01*
X151938659Y-75760500D02*
G75*
G02*
X152118700Y-75940500I41J-180000D01*
G01*
X155088659Y-77070500D02*
G75*
G03*
X155268700Y-76890500I41J180000D01*
G01*
X155988659Y-77070500D02*
G75*
G03*
X156168700Y-76890500I41J180000D01*
G01*
X151668659Y-75940500D02*
G75*
G02*
X151848659Y-75760459I180041J0D01*
G01*
X154368659Y-76820500D02*
G75*
G02*
X154548659Y-76640459I180041J0D01*
G01*
X155538659Y-75760500D02*
G75*
G02*
X155718700Y-75940500I41J-180000D01*
G01*
X151488659Y-76640500D02*
G75*
G03*
X151668700Y-76460500I41J180000D01*
G01*
X153468659Y-76820500D02*
G75*
G02*
X153648659Y-76640459I180041J0D01*
G01*
X153018659Y-76940500D02*
G75*
G03*
X153198659Y-77120541I180041J0D01*
G01*
X154188659Y-77120500D02*
G75*
G03*
X154368700Y-76940500I41J180000D01*
G01*
X152568659Y-75940500D02*
G75*
G02*
X152748659Y-75760459I180041J0D01*
G01*
X152118659Y-76890500D02*
G75*
G03*
X152298659Y-77070541I180041J0D01*
G01*
X153288659Y-77120500D02*
G75*
G03*
X153468700Y-76940500I41J180000D01*
G01*
X155268659Y-75940500D02*
G75*
G02*
X155448659Y-75760459I180041J0D01*
G01*
X152388659Y-77070500D02*
G75*
G03*
X152568700Y-76890500I41J180000D01*
G01*
X154638659Y-76640500D02*
G75*
G02*
X154818700Y-76820500I41J-180000D01*
G01*
X154818659Y-76890500D02*
G75*
G03*
X154998659Y-77070541I180041J0D01*
G01*
X155718659Y-76890500D02*
G75*
G03*
X155898659Y-77070541I180041J0D01*
G01*
G04 #@! TO.N,/Ethernet/REF_CLK*
X156566800Y-78199000D02*
X156566800Y-79359000D01*
X158166800Y-77759000D02*
X158166800Y-78359000D01*
X156726800Y-79519000D02*
X156806800Y-79519000D01*
X157766800Y-78359000D02*
X157766800Y-77759000D01*
X157766800Y-79359000D02*
X157766800Y-78359000D01*
X159383604Y-78359000D02*
X162082998Y-78359000D01*
X157126800Y-77599000D02*
X157206800Y-77599000D01*
X156966800Y-78359000D02*
X156966800Y-77759000D01*
X156566800Y-77759000D02*
X156566800Y-78199000D01*
X158566800Y-79359000D02*
X158566800Y-78359000D01*
X162082998Y-78359000D02*
X162956499Y-77485499D01*
X158326800Y-79519000D02*
X158406800Y-79519000D01*
X157366800Y-77759000D02*
X157366800Y-78359000D01*
X149860000Y-78359000D02*
X156006800Y-78359000D01*
X156166800Y-78199000D02*
X156166800Y-77759000D01*
X158166800Y-78359000D02*
X158166800Y-79359000D01*
X148463000Y-76962000D02*
X149860000Y-78359000D01*
X157526800Y-79519000D02*
X157606800Y-79519000D01*
X157926800Y-77599000D02*
X158006800Y-77599000D01*
X157366800Y-78359000D02*
X157366800Y-79359000D01*
X156966800Y-79359000D02*
X156966800Y-78359000D01*
X156326800Y-77599000D02*
X156406800Y-77599000D01*
X158966800Y-77759000D02*
X158966800Y-78199000D01*
X158566800Y-78359000D02*
X158566800Y-77759000D01*
X159206800Y-78359000D02*
X159383604Y-78359000D01*
X159126800Y-78359000D02*
X159206800Y-78359000D01*
X158726800Y-77599000D02*
X158806800Y-77599000D01*
X156406800Y-77599000D02*
G75*
G02*
X156566800Y-77759000I0J-160000D01*
G01*
X156566800Y-79359000D02*
G75*
G03*
X156726800Y-79519000I160000J0D01*
G01*
X158406800Y-79519000D02*
G75*
G03*
X158566800Y-79359000I0J160000D01*
G01*
X157766800Y-77759000D02*
G75*
G02*
X157926800Y-77599000I160000J0D01*
G01*
X158166800Y-79359000D02*
G75*
G03*
X158326800Y-79519000I160000J0D01*
G01*
X158566800Y-77759000D02*
G75*
G02*
X158726800Y-77599000I160000J0D01*
G01*
X157606800Y-79519000D02*
G75*
G03*
X157766800Y-79359000I0J160000D01*
G01*
X158806800Y-77599000D02*
G75*
G02*
X158966800Y-77759000I0J-160000D01*
G01*
X156166800Y-77759000D02*
G75*
G02*
X156326800Y-77599000I160000J0D01*
G01*
X156006800Y-78359000D02*
G75*
G03*
X156166800Y-78199000I0J160000D01*
G01*
X158006800Y-77599000D02*
G75*
G02*
X158166800Y-77759000I0J-160000D01*
G01*
X157206800Y-77599000D02*
G75*
G02*
X157366800Y-77759000I0J-160000D01*
G01*
X158966800Y-78199000D02*
G75*
G03*
X159126800Y-78359000I160000J0D01*
G01*
X156806800Y-79519000D02*
G75*
G03*
X156966800Y-79359000I0J160000D01*
G01*
X156966800Y-77759000D02*
G75*
G02*
X157126800Y-77599000I160000J0D01*
G01*
X157366800Y-79359000D02*
G75*
G03*
X157526800Y-79519000I160000J0D01*
G01*
G04 #@! TO.N,/Ethernet/RMII_MDIO*
X166505000Y-77763500D02*
X164504500Y-77763500D01*
X150368000Y-80010000D02*
X154330400Y-80010000D01*
X155030400Y-79250000D02*
X155030400Y-79810000D01*
X155030400Y-79810000D02*
X155030400Y-80770000D01*
X166945500Y-77323000D02*
X166505000Y-77763500D01*
X154530400Y-79810000D02*
X154530400Y-79250000D01*
X155230400Y-80970000D02*
X155330400Y-80970000D01*
X156030400Y-79250000D02*
X156030400Y-79810000D01*
X156330400Y-80010000D02*
X156609701Y-80010000D01*
X155530400Y-80010000D02*
X155530400Y-79250000D01*
X155530400Y-80770000D02*
X155530400Y-80010000D01*
X155730400Y-79050000D02*
X155830400Y-79050000D01*
X154730400Y-79050000D02*
X154830400Y-79050000D01*
X164504500Y-77763500D02*
X164315500Y-77574500D01*
X163725500Y-77574500D02*
X161290000Y-80010000D01*
X161290000Y-80010000D02*
X156609701Y-80010000D01*
X147320000Y-76962000D02*
X150368000Y-80010000D01*
X156230400Y-80010000D02*
X156330400Y-80010000D01*
X164315500Y-77574500D02*
X163725500Y-77574500D01*
X155830400Y-79050000D02*
G75*
G02*
X156030400Y-79250000I0J-200000D01*
G01*
X155330400Y-80970000D02*
G75*
G03*
X155530400Y-80770000I0J200000D01*
G01*
X154530400Y-79250000D02*
G75*
G02*
X154730400Y-79050000I200000J0D01*
G01*
X155530400Y-79250000D02*
G75*
G02*
X155730400Y-79050000I200000J0D01*
G01*
X156030400Y-79810000D02*
G75*
G03*
X156230400Y-80010000I200000J0D01*
G01*
X155030400Y-80770000D02*
G75*
G03*
X155230400Y-80970000I200000J0D01*
G01*
X154830400Y-79050000D02*
G75*
G02*
X155030400Y-79250000I0J-200000D01*
G01*
X154330400Y-80010000D02*
G75*
G03*
X154530400Y-79810000I0J200000D01*
G01*
G04 #@! TO.N,/Ethernet/RMII_MDC*
X160808800Y-77495000D02*
X160808800Y-76975000D01*
X162578601Y-77044999D02*
X162280600Y-77343000D01*
X152533620Y-78093000D02*
X152453620Y-78093000D01*
X152693620Y-77503000D02*
X152693620Y-77933000D01*
X159664400Y-77343000D02*
X155253620Y-77343000D01*
X160656800Y-76823000D02*
X160580800Y-76823000D01*
X160808800Y-77711000D02*
X160808800Y-77495000D01*
X152133620Y-77343000D02*
X152053620Y-77343000D01*
X160428800Y-77343000D02*
X160428800Y-77711000D01*
X161188800Y-77495000D02*
X161188800Y-77711000D01*
X151003000Y-77343000D02*
X150622000Y-76962000D01*
X154933620Y-78093000D02*
X154853620Y-78093000D01*
X154293620Y-77503000D02*
X154293620Y-77933000D01*
X168242500Y-78010500D02*
X168242500Y-77997038D01*
X165373875Y-75946000D02*
X164592000Y-75946000D01*
X151253620Y-77343000D02*
X151180800Y-77343000D01*
X152933620Y-77343000D02*
X152853620Y-77343000D01*
X154693620Y-77933000D02*
X154693620Y-77503000D01*
X154533620Y-77343000D02*
X154453620Y-77343000D01*
X151893620Y-77503000D02*
X151893620Y-77933000D01*
X160428800Y-76975000D02*
X160428800Y-77343000D01*
X161036800Y-77863000D02*
X160960800Y-77863000D01*
X162280600Y-77343000D02*
X161340800Y-77343000D01*
X154133620Y-78093000D02*
X154053620Y-78093000D01*
X153893620Y-77933000D02*
X153893620Y-77503000D01*
X151333620Y-77343000D02*
X151253620Y-77343000D01*
X166056375Y-76628500D02*
X165373875Y-75946000D01*
X159820800Y-77343000D02*
X159664400Y-77343000D01*
X159896800Y-77343000D02*
X159820800Y-77343000D01*
X151733620Y-78093000D02*
X151653620Y-78093000D01*
X153493620Y-77503000D02*
X153493620Y-77933000D01*
X160276800Y-77863000D02*
X160200800Y-77863000D01*
X166873962Y-76628500D02*
X166056375Y-76628500D01*
X152293620Y-77933000D02*
X152293620Y-77503000D01*
X151180800Y-77343000D02*
X151003000Y-77343000D01*
X163493001Y-77044999D02*
X162578601Y-77044999D01*
X164592000Y-75946000D02*
X163493001Y-77044999D01*
X160048800Y-77711000D02*
X160048800Y-77495000D01*
X153333620Y-78093000D02*
X153253620Y-78093000D01*
X155093620Y-77503000D02*
X155093620Y-77933000D01*
X151493620Y-77933000D02*
X151493620Y-77503000D01*
X153733620Y-77343000D02*
X153653620Y-77343000D01*
X153093620Y-77933000D02*
X153093620Y-77503000D01*
X168242500Y-77997038D02*
X166873962Y-76628500D01*
X153253620Y-78093000D02*
G75*
G02*
X153093600Y-77933000I-20J160000D01*
G01*
X155093620Y-77933000D02*
G75*
G02*
X154933620Y-78093020I-160020J0D01*
G01*
X160200800Y-77863000D02*
G75*
G02*
X160048800Y-77711000I0J152000D01*
G01*
X160048800Y-77495000D02*
G75*
G03*
X159896800Y-77343000I-152000J0D01*
G01*
X160580800Y-76823000D02*
G75*
G03*
X160428800Y-76975000I0J-152000D01*
G01*
X154693620Y-77503000D02*
G75*
G03*
X154533620Y-77342980I-160020J0D01*
G01*
X161188800Y-77711000D02*
G75*
G02*
X161036800Y-77863000I-152000J0D01*
G01*
X152053620Y-77343000D02*
G75*
G03*
X151893600Y-77503000I-20J-160000D01*
G01*
X160960800Y-77863000D02*
G75*
G02*
X160808800Y-77711000I0J152000D01*
G01*
X160808800Y-76975000D02*
G75*
G03*
X160656800Y-76823000I-152000J0D01*
G01*
X154053620Y-78093000D02*
G75*
G02*
X153893600Y-77933000I-20J160000D01*
G01*
X152453620Y-78093000D02*
G75*
G02*
X152293600Y-77933000I-20J160000D01*
G01*
X151653620Y-78093000D02*
G75*
G02*
X151493600Y-77933000I-20J160000D01*
G01*
X153653620Y-77343000D02*
G75*
G03*
X153493600Y-77503000I-20J-160000D01*
G01*
X152293620Y-77503000D02*
G75*
G03*
X152133620Y-77342980I-160020J0D01*
G01*
X151893620Y-77933000D02*
G75*
G02*
X151733620Y-78093020I-160020J0D01*
G01*
X154453620Y-77343000D02*
G75*
G03*
X154293600Y-77503000I-20J-160000D01*
G01*
X154293620Y-77933000D02*
G75*
G02*
X154133620Y-78093020I-160020J0D01*
G01*
X153893620Y-77503000D02*
G75*
G03*
X153733620Y-77342980I-160020J0D01*
G01*
X152693620Y-77933000D02*
G75*
G02*
X152533620Y-78093020I-160020J0D01*
G01*
X154853620Y-78093000D02*
G75*
G02*
X154693600Y-77933000I-20J160000D01*
G01*
X153093620Y-77503000D02*
G75*
G03*
X152933620Y-77342980I-160020J0D01*
G01*
X161340800Y-77343000D02*
G75*
G03*
X161188800Y-77495000I0J-152000D01*
G01*
X153493620Y-77933000D02*
G75*
G02*
X153333620Y-78093020I-160020J0D01*
G01*
X155253620Y-77343000D02*
G75*
G03*
X155093600Y-77503000I-20J-160000D01*
G01*
X151493620Y-77503000D02*
G75*
G03*
X151333620Y-77342980I-160020J0D01*
G01*
X152853620Y-77343000D02*
G75*
G03*
X152693600Y-77503000I-20J-160000D01*
G01*
X160428800Y-77711000D02*
G75*
G02*
X160276800Y-77863000I-152000J0D01*
G01*
G04 #@! TO.N,/Ethernet/RMII_TXEN*
X158839692Y-82726499D02*
X159122535Y-83009342D01*
X158450783Y-82804280D02*
X158528564Y-82726500D01*
X158733624Y-83398250D02*
X158450782Y-83115408D01*
X159564590Y-82878410D02*
X163068000Y-79375000D01*
X163068000Y-79375000D02*
X169418000Y-79375000D01*
X159433661Y-83009343D02*
X159511443Y-82931558D01*
X155956000Y-86427500D02*
X156015500Y-86427500D01*
X159511443Y-82931558D02*
X159564590Y-82878410D01*
X156015500Y-86427500D02*
X158733624Y-83709376D01*
X158450782Y-83115408D02*
G75*
G02*
X158450738Y-82804235I155518J155608D01*
G01*
X158733624Y-83709376D02*
G75*
G03*
X158733637Y-83398237I-155524J155576D01*
G01*
X159122535Y-83009342D02*
G75*
G03*
X159433663Y-83009345I155565J155542D01*
G01*
X158528564Y-82726500D02*
G75*
G02*
X158839664Y-82726527I155536J-155600D01*
G01*
G04 #@! TO.N,/Ethernet/RMII_TXD0*
X156591000Y-86868000D02*
X163322000Y-80137000D01*
X169411981Y-80137000D02*
X170796981Y-78752000D01*
X163322000Y-80137000D02*
X169411981Y-80137000D01*
X170796981Y-78752000D02*
X170803000Y-78752000D01*
G04 #@! TO.N,/Ethernet/RMII_TXD1*
X163957000Y-80645000D02*
X157226000Y-87376000D01*
X170688000Y-79629000D02*
X170434000Y-79629000D01*
X170434000Y-79629000D02*
X169418000Y-80645000D01*
X169418000Y-80645000D02*
X163957000Y-80645000D01*
G04 #@! TD*
G04 #@! TA.AperFunction,Conductor*
G04 #@! TO.N,GND*
G36*
X158737990Y-76282306D02*
G01*
X158756296Y-76326500D01*
X158755660Y-76335395D01*
X158748312Y-76386500D01*
X158768957Y-76530094D01*
X158768958Y-76530097D01*
X158829222Y-76662056D01*
X158829225Y-76662061D01*
X158924226Y-76771698D01*
X159038385Y-76845063D01*
X159046268Y-76850129D01*
X159158726Y-76883149D01*
X159185461Y-76890999D01*
X159185463Y-76891000D01*
X159185464Y-76891000D01*
X159330537Y-76891000D01*
X159330537Y-76890999D01*
X159469732Y-76850129D01*
X159519100Y-76818402D01*
X159591773Y-76771698D01*
X159638134Y-76718195D01*
X159686777Y-76662058D01*
X159747042Y-76530096D01*
X159756530Y-76464105D01*
X159780937Y-76422968D01*
X159827287Y-76411137D01*
X159862587Y-76428807D01*
X160139860Y-76706080D01*
X160158166Y-76750274D01*
X160149794Y-76781521D01*
X160142831Y-76793581D01*
X160142827Y-76793590D01*
X160110801Y-76913116D01*
X160110800Y-76913124D01*
X160110800Y-76984309D01*
X160092494Y-77028503D01*
X160048300Y-77046809D01*
X160032124Y-77044679D01*
X159958683Y-77025001D01*
X159958678Y-77025000D01*
X159958677Y-77025000D01*
X159958676Y-77025000D01*
X157496780Y-77025000D01*
X157452586Y-77006694D01*
X157434280Y-76962500D01*
X157452586Y-76918306D01*
X157465529Y-76908374D01*
X157470978Y-76905228D01*
X157488757Y-76894963D01*
X158101414Y-76282306D01*
X158145608Y-76264000D01*
X158693796Y-76264000D01*
X158737990Y-76282306D01*
G37*
G04 #@! TD.AperFunction*
G04 #@! TA.AperFunction,Conductor*
G36*
X149365294Y-75774306D02*
G01*
X149383600Y-75818500D01*
X149383600Y-76004110D01*
X149408571Y-76113517D01*
X149457261Y-76214625D01*
X149457266Y-76214632D01*
X149527231Y-76302365D01*
X149527234Y-76302368D01*
X149583607Y-76347324D01*
X149614972Y-76372337D01*
X149624006Y-76376688D01*
X149655883Y-76412354D01*
X149653203Y-76460114D01*
X149641086Y-76477193D01*
X149543385Y-76574894D01*
X149499193Y-76593200D01*
X149293708Y-76593200D01*
X149249514Y-76574894D01*
X148747162Y-76072541D01*
X148747156Y-76072536D01*
X148674646Y-76030671D01*
X148674643Y-76030670D01*
X148593771Y-76009001D01*
X148593766Y-76009000D01*
X148593765Y-76009000D01*
X146472865Y-76009000D01*
X146460608Y-76009000D01*
X146416414Y-75990694D01*
X146398108Y-75946500D01*
X146416414Y-75902306D01*
X146544414Y-75774306D01*
X146588608Y-75756000D01*
X149106935Y-75756000D01*
X149321100Y-75756000D01*
X149365294Y-75774306D01*
G37*
G04 #@! TD.AperFunction*
G04 #@! TA.AperFunction,Conductor*
G36*
X154945783Y-75774306D02*
G01*
X154964089Y-75818500D01*
X154962522Y-75832406D01*
X154950658Y-75884389D01*
X154950658Y-75884393D01*
X154950659Y-75913404D01*
X154950659Y-76318524D01*
X154932353Y-76362718D01*
X154888159Y-76381024D01*
X154861050Y-76374839D01*
X154804138Y-76347443D01*
X154804139Y-76347443D01*
X154804135Y-76347442D01*
X154694706Y-76322488D01*
X154694704Y-76322488D01*
X154694700Y-76322487D01*
X154638599Y-76322499D01*
X154638587Y-76322500D01*
X154603934Y-76322500D01*
X154603769Y-76322487D01*
X154574519Y-76322493D01*
X154574422Y-76322453D01*
X154492478Y-76322471D01*
X154492474Y-76322471D01*
X154383090Y-76347460D01*
X154383081Y-76347463D01*
X154308001Y-76383635D01*
X154260241Y-76386325D01*
X154224568Y-76354456D01*
X154221878Y-76306696D01*
X154224022Y-76301366D01*
X154232726Y-76282306D01*
X154270042Y-76200596D01*
X154290688Y-76057000D01*
X154270042Y-75913404D01*
X154238558Y-75844463D01*
X154236851Y-75796658D01*
X154269447Y-75761648D01*
X154295410Y-75756000D01*
X154901589Y-75756000D01*
X154945783Y-75774306D01*
G37*
G04 #@! TD.AperFunction*
G04 #@! TA.AperFunction,Conductor*
G36*
X173627306Y-60978306D02*
G01*
X173717694Y-61068694D01*
X173736000Y-61112888D01*
X173736000Y-71501500D01*
X173717694Y-71545694D01*
X173673500Y-71564000D01*
X171872865Y-71564000D01*
X171789135Y-71564000D01*
X171789134Y-71564000D01*
X171789128Y-71564001D01*
X171708256Y-71585670D01*
X171708253Y-71585671D01*
X171635743Y-71627536D01*
X171635737Y-71627541D01*
X171378515Y-71884763D01*
X171358240Y-71898311D01*
X171011784Y-72041824D01*
X171011782Y-72041825D01*
X171010415Y-72042737D01*
X170993356Y-72050702D01*
X170984266Y-72053371D01*
X170862226Y-72131801D01*
X170767225Y-72241438D01*
X170767222Y-72241443D01*
X170706958Y-72373402D01*
X170706957Y-72373405D01*
X170686312Y-72517000D01*
X170706957Y-72660594D01*
X170706958Y-72660597D01*
X170767222Y-72792556D01*
X170767225Y-72792561D01*
X170862225Y-72902197D01*
X170878448Y-72912622D01*
X170905730Y-72951914D01*
X170897238Y-72998990D01*
X170896148Y-73000445D01*
X170894223Y-73003441D01*
X170833957Y-73135405D01*
X170813312Y-73279000D01*
X170833957Y-73422594D01*
X170833958Y-73422597D01*
X170894222Y-73554556D01*
X170894225Y-73554561D01*
X170989226Y-73664198D01*
X171111263Y-73742626D01*
X171111268Y-73742629D01*
X171188967Y-73765443D01*
X171250461Y-73783499D01*
X171250463Y-73783500D01*
X171250464Y-73783500D01*
X171395537Y-73783500D01*
X171395537Y-73783499D01*
X171534732Y-73742629D01*
X171586714Y-73709222D01*
X171656773Y-73664198D01*
X171656775Y-73664196D01*
X171751777Y-73554558D01*
X171812042Y-73422596D01*
X171832688Y-73279000D01*
X171812042Y-73135404D01*
X171751777Y-73003442D01*
X171749180Y-73000445D01*
X171673081Y-72912622D01*
X171656775Y-72893804D01*
X171656774Y-72893803D01*
X171640550Y-72883376D01*
X171613269Y-72844082D01*
X171621763Y-72797007D01*
X171622851Y-72795554D01*
X171624774Y-72792560D01*
X171624777Y-72792558D01*
X171654295Y-72727920D01*
X171659180Y-72719162D01*
X171671174Y-72701213D01*
X171671175Y-72701212D01*
X171814686Y-72354758D01*
X171828228Y-72334490D01*
X171944415Y-72218304D01*
X171988608Y-72200000D01*
X173673500Y-72200000D01*
X173717694Y-72218306D01*
X173736000Y-72262500D01*
X173736000Y-75631000D01*
X173717694Y-75675194D01*
X173673500Y-75693500D01*
X173536462Y-75693500D01*
X173397272Y-75734369D01*
X173397263Y-75734373D01*
X173275226Y-75812801D01*
X173180225Y-75922438D01*
X173180222Y-75922443D01*
X173119958Y-76054402D01*
X173119957Y-76054405D01*
X173099312Y-76198000D01*
X173119957Y-76341594D01*
X173119958Y-76341597D01*
X173180222Y-76473556D01*
X173180225Y-76473561D01*
X173230924Y-76532071D01*
X173246031Y-76577459D01*
X173230924Y-76613929D01*
X173180225Y-76672438D01*
X173180222Y-76672443D01*
X173119958Y-76804402D01*
X173119957Y-76804405D01*
X173099312Y-76948000D01*
X173119957Y-77091594D01*
X173119958Y-77091597D01*
X173180222Y-77223556D01*
X173180225Y-77223561D01*
X173275226Y-77333198D01*
X173389939Y-77406919D01*
X173397268Y-77411629D01*
X173496423Y-77440743D01*
X173536461Y-77452499D01*
X173536463Y-77452500D01*
X173673500Y-77452500D01*
X173717694Y-77470806D01*
X173736000Y-77515000D01*
X173736000Y-86106000D01*
X182996272Y-86106000D01*
X183040466Y-86124306D01*
X183058772Y-86168500D01*
X183040466Y-86212694D01*
X183033727Y-86218534D01*
X182919239Y-86304239D01*
X182831612Y-86421294D01*
X182831609Y-86421299D01*
X182780511Y-86558297D01*
X182774000Y-86618854D01*
X182774000Y-89216145D01*
X182780511Y-89276702D01*
X182831609Y-89413700D01*
X182831610Y-89413702D01*
X182831611Y-89413704D01*
X182919239Y-89530761D01*
X183036296Y-89618389D01*
X183173299Y-89669489D01*
X183233862Y-89676000D01*
X183233868Y-89676000D01*
X184831132Y-89676000D01*
X184831138Y-89676000D01*
X184891701Y-89669489D01*
X185028704Y-89618389D01*
X185145761Y-89530761D01*
X185233389Y-89413704D01*
X185284489Y-89276701D01*
X185291000Y-89216138D01*
X185291000Y-86618862D01*
X185284489Y-86558299D01*
X185233389Y-86421296D01*
X185145761Y-86304239D01*
X185045920Y-86229499D01*
X185031273Y-86218534D01*
X185006864Y-86177394D01*
X185018694Y-86131045D01*
X185059834Y-86106636D01*
X185068728Y-86106000D01*
X198856112Y-86106000D01*
X198900306Y-86124306D01*
X198990694Y-86214694D01*
X199009000Y-86258888D01*
X199009000Y-95732112D01*
X198990694Y-95776306D01*
X198900306Y-95866694D01*
X198856112Y-95885000D01*
X191770000Y-95885000D01*
X191770000Y-96012000D01*
X191770000Y-98757108D01*
X191751694Y-98801302D01*
X191707500Y-98819608D01*
X191663306Y-98801302D01*
X191654580Y-98790360D01*
X191604772Y-98711093D01*
X191604771Y-98711091D01*
X191483908Y-98590228D01*
X191483906Y-98590227D01*
X191339189Y-98499294D01*
X191339188Y-98499293D01*
X191339183Y-98499291D01*
X191177850Y-98442838D01*
X191177849Y-98442837D01*
X191177847Y-98442837D01*
X191008000Y-98423701D01*
X190838152Y-98442837D01*
X190676811Y-98499293D01*
X190676810Y-98499294D01*
X190533252Y-98589499D01*
X190486093Y-98597512D01*
X190466748Y-98589499D01*
X190323189Y-98499294D01*
X190323188Y-98499293D01*
X190323183Y-98499291D01*
X190161850Y-98442838D01*
X190161849Y-98442837D01*
X190161847Y-98442837D01*
X189992000Y-98423701D01*
X189822152Y-98442837D01*
X189660811Y-98499293D01*
X189660810Y-98499294D01*
X189517252Y-98589499D01*
X189470093Y-98597512D01*
X189450748Y-98589499D01*
X189307189Y-98499294D01*
X189307188Y-98499293D01*
X189307183Y-98499291D01*
X189145850Y-98442838D01*
X189145849Y-98442837D01*
X189145847Y-98442837D01*
X188976000Y-98423701D01*
X188806152Y-98442837D01*
X188644811Y-98499293D01*
X188644810Y-98499294D01*
X188500093Y-98590227D01*
X188500091Y-98590228D01*
X188379228Y-98711091D01*
X188379227Y-98711093D01*
X188288294Y-98855810D01*
X188288293Y-98855811D01*
X188231837Y-99017152D01*
X188212701Y-99186999D01*
X188212701Y-99187000D01*
X188231837Y-99356847D01*
X188288293Y-99518188D01*
X188288294Y-99518189D01*
X188379227Y-99662906D01*
X188379229Y-99662909D01*
X188500091Y-99783771D01*
X188556797Y-99819402D01*
X188644810Y-99874705D01*
X188644811Y-99874706D01*
X188644813Y-99874706D01*
X188644817Y-99874709D01*
X188806150Y-99931162D01*
X188976000Y-99950299D01*
X189145850Y-99931162D01*
X189307183Y-99874709D01*
X189450749Y-99784499D01*
X189497907Y-99776487D01*
X189517249Y-99784499D01*
X189597825Y-99835128D01*
X189660810Y-99874705D01*
X189660811Y-99874706D01*
X189660813Y-99874706D01*
X189660817Y-99874709D01*
X189822150Y-99931162D01*
X189992000Y-99950299D01*
X190161850Y-99931162D01*
X190323183Y-99874709D01*
X190466749Y-99784499D01*
X190513907Y-99776487D01*
X190533249Y-99784499D01*
X190613825Y-99835128D01*
X190676810Y-99874705D01*
X190676811Y-99874706D01*
X190676813Y-99874706D01*
X190676817Y-99874709D01*
X190838150Y-99931162D01*
X191008000Y-99950299D01*
X191177850Y-99931162D01*
X191339183Y-99874709D01*
X191483909Y-99783771D01*
X191604771Y-99662909D01*
X191654580Y-99583639D01*
X191693592Y-99555958D01*
X191740752Y-99563971D01*
X191768433Y-99602983D01*
X191770000Y-99616891D01*
X191770000Y-103860112D01*
X191751694Y-103904306D01*
X191661306Y-103994694D01*
X191617112Y-104013000D01*
X125501888Y-104013000D01*
X125457694Y-103994694D01*
X125367306Y-103904306D01*
X125349000Y-103860112D01*
X125349000Y-98679000D01*
X133094312Y-98679000D01*
X133114957Y-98822594D01*
X133114958Y-98822597D01*
X133175222Y-98954556D01*
X133175225Y-98954561D01*
X133270226Y-99064198D01*
X133392263Y-99142626D01*
X133392268Y-99142629D01*
X133531461Y-99183499D01*
X133531463Y-99183500D01*
X133531464Y-99183500D01*
X133676537Y-99183500D01*
X133676537Y-99183499D01*
X133815732Y-99142629D01*
X133861535Y-99113192D01*
X133937773Y-99064198D01*
X133937775Y-99064196D01*
X134032777Y-98954558D01*
X134055148Y-98905571D01*
X134090158Y-98872976D01*
X134137963Y-98874683D01*
X134168852Y-98905572D01*
X134191222Y-98954556D01*
X134191225Y-98954561D01*
X134286226Y-99064198D01*
X134408263Y-99142626D01*
X134408268Y-99142629D01*
X134547461Y-99183499D01*
X134547463Y-99183500D01*
X134547464Y-99183500D01*
X134692537Y-99183500D01*
X134692537Y-99183499D01*
X134831732Y-99142629D01*
X134877535Y-99113192D01*
X134953773Y-99064198D01*
X134953775Y-99064196D01*
X135048777Y-98954558D01*
X135071148Y-98905571D01*
X135106158Y-98872976D01*
X135153963Y-98874683D01*
X135184852Y-98905572D01*
X135207222Y-98954556D01*
X135207225Y-98954561D01*
X135302226Y-99064198D01*
X135424263Y-99142626D01*
X135424268Y-99142629D01*
X135563461Y-99183499D01*
X135563463Y-99183500D01*
X135563464Y-99183500D01*
X135708537Y-99183500D01*
X135708537Y-99183499D01*
X135847732Y-99142629D01*
X135893535Y-99113192D01*
X135969773Y-99064198D01*
X135969775Y-99064196D01*
X136064777Y-98954558D01*
X136125042Y-98822596D01*
X136145688Y-98679000D01*
X136125042Y-98535404D01*
X136064777Y-98403442D01*
X136064774Y-98403438D01*
X135969773Y-98293801D01*
X135847736Y-98215373D01*
X135847727Y-98215369D01*
X135708538Y-98174500D01*
X135708536Y-98174500D01*
X135563464Y-98174500D01*
X135563462Y-98174500D01*
X135424272Y-98215369D01*
X135424263Y-98215373D01*
X135302226Y-98293801D01*
X135207225Y-98403438D01*
X135207222Y-98403443D01*
X135184852Y-98452427D01*
X135149842Y-98485023D01*
X135102037Y-98483316D01*
X135071148Y-98452427D01*
X135048777Y-98403443D01*
X135048777Y-98403442D01*
X135048774Y-98403438D01*
X134953773Y-98293801D01*
X134831736Y-98215373D01*
X134831727Y-98215369D01*
X134692538Y-98174500D01*
X134692536Y-98174500D01*
X134547464Y-98174500D01*
X134547462Y-98174500D01*
X134408272Y-98215369D01*
X134408263Y-98215373D01*
X134286226Y-98293801D01*
X134191225Y-98403438D01*
X134191222Y-98403443D01*
X134168852Y-98452427D01*
X134133842Y-98485023D01*
X134086037Y-98483316D01*
X134055148Y-98452427D01*
X134032777Y-98403443D01*
X134032777Y-98403442D01*
X134032774Y-98403438D01*
X133937773Y-98293801D01*
X133815736Y-98215373D01*
X133815727Y-98215369D01*
X133676538Y-98174500D01*
X133676536Y-98174500D01*
X133531464Y-98174500D01*
X133531462Y-98174500D01*
X133392272Y-98215369D01*
X133392263Y-98215373D01*
X133270226Y-98293801D01*
X133175225Y-98403438D01*
X133175222Y-98403443D01*
X133114958Y-98535402D01*
X133114957Y-98535405D01*
X133094312Y-98679000D01*
X125349000Y-98679000D01*
X125349000Y-97040000D01*
X138670312Y-97040000D01*
X138690957Y-97183594D01*
X138690958Y-97183597D01*
X138751222Y-97315556D01*
X138751225Y-97315561D01*
X138846226Y-97425198D01*
X138968263Y-97503626D01*
X138968268Y-97503629D01*
X139107461Y-97544499D01*
X139107463Y-97544500D01*
X139107464Y-97544500D01*
X139252537Y-97544500D01*
X139252537Y-97544499D01*
X139391732Y-97503629D01*
X139474304Y-97450563D01*
X139513773Y-97425198D01*
X139527809Y-97409000D01*
X139608777Y-97315558D01*
X139669042Y-97183596D01*
X139689688Y-97040000D01*
X139669042Y-96896404D01*
X139608777Y-96764442D01*
X139608774Y-96764438D01*
X139513773Y-96654801D01*
X139391736Y-96576373D01*
X139391727Y-96576369D01*
X139252538Y-96535500D01*
X139252536Y-96535500D01*
X139107464Y-96535500D01*
X139107462Y-96535500D01*
X138968272Y-96576369D01*
X138968263Y-96576373D01*
X138846226Y-96654801D01*
X138751225Y-96764438D01*
X138751222Y-96764443D01*
X138690958Y-96896402D01*
X138690957Y-96896405D01*
X138670312Y-97040000D01*
X125349000Y-97040000D01*
X125349000Y-96510000D01*
X144645726Y-96510000D01*
X144664762Y-96678950D01*
X144664763Y-96678954D01*
X144720919Y-96839439D01*
X144720921Y-96839443D01*
X144802530Y-96969322D01*
X144810543Y-97016481D01*
X144784334Y-97054540D01*
X144721516Y-97096514D01*
X144665266Y-97180697D01*
X144665265Y-97180699D01*
X144650500Y-97254932D01*
X144650500Y-98305064D01*
X144650501Y-98305068D01*
X144665265Y-98379299D01*
X144665267Y-98379303D01*
X144721515Y-98463484D01*
X144805697Y-98519733D01*
X144805699Y-98519734D01*
X144879933Y-98534500D01*
X145930066Y-98534499D01*
X146004301Y-98519734D01*
X146088484Y-98463484D01*
X146144734Y-98379301D01*
X146159500Y-98305067D01*
X146159499Y-97254934D01*
X146147397Y-97194087D01*
X146156730Y-97147172D01*
X146196504Y-97120597D01*
X146241947Y-97128975D01*
X146270906Y-97147172D01*
X146345556Y-97194078D01*
X146345559Y-97194079D01*
X146345563Y-97194082D01*
X146506046Y-97250237D01*
X146675000Y-97269274D01*
X146843954Y-97250237D01*
X147004437Y-97194082D01*
X147148400Y-97103624D01*
X147265806Y-96986218D01*
X147310000Y-96967912D01*
X147354194Y-96986218D01*
X147471601Y-97103625D01*
X147615556Y-97194078D01*
X147615559Y-97194079D01*
X147615563Y-97194082D01*
X147776046Y-97250237D01*
X147945000Y-97269274D01*
X148113954Y-97250237D01*
X148274437Y-97194082D01*
X148418400Y-97103624D01*
X148535806Y-96986218D01*
X148580000Y-96967912D01*
X148624194Y-96986218D01*
X148738782Y-97100806D01*
X148757088Y-97145000D01*
X148738782Y-97189194D01*
X148621375Y-97306600D01*
X148621374Y-97306601D01*
X148530921Y-97450556D01*
X148530919Y-97450560D01*
X148474763Y-97611045D01*
X148474762Y-97611049D01*
X148455726Y-97780000D01*
X148474762Y-97948950D01*
X148474763Y-97948954D01*
X148527772Y-98100447D01*
X148530919Y-98109439D01*
X148530921Y-98109443D01*
X148621374Y-98253398D01*
X148741601Y-98373625D01*
X148885556Y-98464078D01*
X148885559Y-98464079D01*
X148885563Y-98464082D01*
X149046046Y-98520237D01*
X149215000Y-98539274D01*
X149383954Y-98520237D01*
X149544437Y-98464082D01*
X149688400Y-98373624D01*
X149805806Y-98256218D01*
X149850000Y-98237912D01*
X149894194Y-98256218D01*
X150011601Y-98373625D01*
X150155556Y-98464078D01*
X150155559Y-98464079D01*
X150155563Y-98464082D01*
X150316046Y-98520237D01*
X150485000Y-98539274D01*
X150653954Y-98520237D01*
X150814437Y-98464082D01*
X150958400Y-98373624D01*
X151078624Y-98253400D01*
X151169082Y-98109437D01*
X151225237Y-97948954D01*
X151244274Y-97780000D01*
X151225237Y-97611046D01*
X151169082Y-97450563D01*
X151142966Y-97409000D01*
X151890312Y-97409000D01*
X151910957Y-97552594D01*
X151910958Y-97552597D01*
X151971222Y-97684556D01*
X151971225Y-97684561D01*
X152066226Y-97794198D01*
X152188263Y-97872626D01*
X152188268Y-97872629D01*
X152327461Y-97913499D01*
X152327463Y-97913500D01*
X152327464Y-97913500D01*
X152472537Y-97913500D01*
X152472537Y-97913499D01*
X152611732Y-97872629D01*
X152699700Y-97816095D01*
X152733773Y-97794198D01*
X152746076Y-97780000D01*
X152828777Y-97684558D01*
X152889042Y-97552596D01*
X152909688Y-97409000D01*
X152889042Y-97265404D01*
X152828777Y-97133442D01*
X152828774Y-97133438D01*
X152733773Y-97023801D01*
X152611736Y-96945373D01*
X152611727Y-96945369D01*
X152472538Y-96904500D01*
X152472536Y-96904500D01*
X152327464Y-96904500D01*
X152327462Y-96904500D01*
X152188272Y-96945369D01*
X152188263Y-96945373D01*
X152066226Y-97023801D01*
X151971225Y-97133438D01*
X151971222Y-97133443D01*
X151910958Y-97265402D01*
X151910957Y-97265405D01*
X151890312Y-97409000D01*
X151142966Y-97409000D01*
X151078625Y-97306601D01*
X150961218Y-97189194D01*
X150942912Y-97145000D01*
X150961218Y-97100806D01*
X151007484Y-97054540D01*
X151078624Y-96983400D01*
X151169082Y-96839437D01*
X151225237Y-96678954D01*
X151244274Y-96510000D01*
X151225237Y-96341046D01*
X151169082Y-96180563D01*
X151078624Y-96036600D01*
X150958400Y-95916376D01*
X150958398Y-95916374D01*
X150814443Y-95825921D01*
X150814439Y-95825919D01*
X150814438Y-95825918D01*
X150814437Y-95825918D01*
X150653954Y-95769763D01*
X150653950Y-95769762D01*
X150485000Y-95750726D01*
X150316049Y-95769762D01*
X150316045Y-95769763D01*
X150155560Y-95825919D01*
X150155556Y-95825921D01*
X150011601Y-95916374D01*
X150011600Y-95916375D01*
X149894194Y-96033782D01*
X149850000Y-96052088D01*
X149805806Y-96033782D01*
X149688398Y-95916374D01*
X149544443Y-95825921D01*
X149544439Y-95825919D01*
X149544438Y-95825918D01*
X149544437Y-95825918D01*
X149383954Y-95769763D01*
X149383950Y-95769762D01*
X149215000Y-95750726D01*
X149046049Y-95769762D01*
X149046045Y-95769763D01*
X148885560Y-95825919D01*
X148885556Y-95825921D01*
X148741601Y-95916374D01*
X148741600Y-95916375D01*
X148624194Y-96033782D01*
X148580000Y-96052088D01*
X148535806Y-96033782D01*
X148418398Y-95916374D01*
X148274443Y-95825921D01*
X148274439Y-95825919D01*
X148274438Y-95825918D01*
X148274437Y-95825918D01*
X148113954Y-95769763D01*
X148113950Y-95769762D01*
X147945000Y-95750726D01*
X147776049Y-95769762D01*
X147776045Y-95769763D01*
X147615560Y-95825919D01*
X147615556Y-95825921D01*
X147471601Y-95916374D01*
X147471600Y-95916375D01*
X147354194Y-96033782D01*
X147310000Y-96052088D01*
X147265806Y-96033782D01*
X147148398Y-95916374D01*
X147004443Y-95825921D01*
X147004439Y-95825919D01*
X147004438Y-95825918D01*
X147004437Y-95825918D01*
X146843954Y-95769763D01*
X146843950Y-95769762D01*
X146675000Y-95750726D01*
X146506049Y-95769762D01*
X146506045Y-95769763D01*
X146345560Y-95825919D01*
X146345556Y-95825921D01*
X146201601Y-95916374D01*
X146201600Y-95916375D01*
X146084194Y-96033782D01*
X146040000Y-96052088D01*
X145995806Y-96033782D01*
X145878398Y-95916374D01*
X145734443Y-95825921D01*
X145734439Y-95825919D01*
X145734438Y-95825918D01*
X145734437Y-95825918D01*
X145573954Y-95769763D01*
X145573950Y-95769762D01*
X145405000Y-95750726D01*
X145236049Y-95769762D01*
X145236045Y-95769763D01*
X145075560Y-95825919D01*
X145075556Y-95825921D01*
X144931601Y-95916374D01*
X144811374Y-96036601D01*
X144720921Y-96180556D01*
X144720919Y-96180560D01*
X144664763Y-96341045D01*
X144664762Y-96341049D01*
X144645726Y-96510000D01*
X125349000Y-96510000D01*
X125349000Y-95710000D01*
X156587540Y-95710000D01*
X156607359Y-96025023D01*
X156607360Y-96025027D01*
X156666504Y-96335071D01*
X156744908Y-96576373D01*
X156764044Y-96635266D01*
X156824829Y-96764442D01*
X156898438Y-96920869D01*
X156898448Y-96920887D01*
X157067564Y-97187371D01*
X157067566Y-97187373D01*
X157173613Y-97315561D01*
X157268767Y-97430582D01*
X157498860Y-97646654D01*
X157754221Y-97832184D01*
X157754224Y-97832185D01*
X157754224Y-97832186D01*
X157875339Y-97898769D01*
X158030821Y-97984247D01*
X158229880Y-98063060D01*
X158324292Y-98100441D01*
X158324311Y-98100447D01*
X158551278Y-98158721D01*
X158630021Y-98178939D01*
X158630022Y-98178939D01*
X158630025Y-98178940D01*
X158943179Y-98218500D01*
X158943180Y-98218500D01*
X159258820Y-98218500D01*
X159258821Y-98218500D01*
X159571975Y-98178940D01*
X159682551Y-98150548D01*
X159877688Y-98100447D01*
X159877694Y-98100444D01*
X159877702Y-98100443D01*
X160171179Y-97984247D01*
X160413555Y-97850999D01*
X181293701Y-97850999D01*
X181293701Y-97851000D01*
X181312837Y-98020847D01*
X181312837Y-98020849D01*
X181312838Y-98020850D01*
X181334763Y-98083509D01*
X181369293Y-98182188D01*
X181369294Y-98182189D01*
X181446505Y-98305068D01*
X181460229Y-98326909D01*
X181581091Y-98447771D01*
X181607050Y-98464082D01*
X181725810Y-98538705D01*
X181725811Y-98538706D01*
X181725813Y-98538706D01*
X181725817Y-98538709D01*
X181887150Y-98595162D01*
X182057000Y-98614299D01*
X182226850Y-98595162D01*
X182388183Y-98538709D01*
X182532909Y-98447771D01*
X182653771Y-98326909D01*
X182744709Y-98182183D01*
X182801162Y-98020850D01*
X182820299Y-97851000D01*
X182801162Y-97681150D01*
X182744709Y-97519817D01*
X182744706Y-97519813D01*
X182744706Y-97519811D01*
X182744705Y-97519810D01*
X182685254Y-97425196D01*
X182653771Y-97375091D01*
X182532909Y-97254229D01*
X182532908Y-97254228D01*
X182532906Y-97254227D01*
X182388189Y-97163294D01*
X182388188Y-97163293D01*
X182388183Y-97163291D01*
X182226850Y-97106838D01*
X182226849Y-97106837D01*
X182226847Y-97106837D01*
X182057000Y-97087701D01*
X181887152Y-97106837D01*
X181725811Y-97163293D01*
X181725810Y-97163294D01*
X181581093Y-97254227D01*
X181581091Y-97254228D01*
X181460228Y-97375091D01*
X181460227Y-97375093D01*
X181369294Y-97519810D01*
X181369293Y-97519811D01*
X181312837Y-97681152D01*
X181293701Y-97850999D01*
X160413555Y-97850999D01*
X160447779Y-97832184D01*
X160703140Y-97646654D01*
X160933233Y-97430582D01*
X161134432Y-97187375D01*
X161136831Y-97183596D01*
X161303551Y-96920887D01*
X161303553Y-96920881D01*
X161303562Y-96920869D01*
X161437956Y-96635266D01*
X161535495Y-96335072D01*
X161594641Y-96025020D01*
X161614460Y-95710000D01*
X161594641Y-95394980D01*
X161535495Y-95084928D01*
X161437956Y-94784734D01*
X161303562Y-94499131D01*
X161303558Y-94499125D01*
X161303551Y-94499112D01*
X161215902Y-94361000D01*
X179068312Y-94361000D01*
X179088957Y-94504594D01*
X179088958Y-94504597D01*
X179149222Y-94636556D01*
X179149225Y-94636561D01*
X179244226Y-94746198D01*
X179366263Y-94824626D01*
X179366268Y-94824629D01*
X179505461Y-94865499D01*
X179505463Y-94865500D01*
X179505464Y-94865500D01*
X179650537Y-94865500D01*
X179650537Y-94865499D01*
X179789732Y-94824629D01*
X179851814Y-94784731D01*
X179911773Y-94746198D01*
X179911775Y-94746196D01*
X180006777Y-94636558D01*
X180067042Y-94504596D01*
X180087688Y-94361000D01*
X180067042Y-94217404D01*
X180006777Y-94085442D01*
X179961081Y-94032706D01*
X179911773Y-93975801D01*
X179789736Y-93897373D01*
X179789727Y-93897369D01*
X179650538Y-93856500D01*
X179650536Y-93856500D01*
X179505464Y-93856500D01*
X179505462Y-93856500D01*
X179366272Y-93897369D01*
X179366263Y-93897373D01*
X179244226Y-93975801D01*
X179149225Y-94085438D01*
X179149222Y-94085443D01*
X179088958Y-94217402D01*
X179088957Y-94217405D01*
X179068312Y-94361000D01*
X161215902Y-94361000D01*
X161134435Y-94232628D01*
X161134433Y-94232626D01*
X161012668Y-94085438D01*
X160933233Y-93989418D01*
X160703140Y-93773346D01*
X160447779Y-93587816D01*
X160447775Y-93587813D01*
X160171179Y-93435753D01*
X160171176Y-93435752D01*
X159941963Y-93344999D01*
X183259701Y-93344999D01*
X183259701Y-93345000D01*
X183278837Y-93514847D01*
X183335293Y-93676188D01*
X183335294Y-93676189D01*
X183396342Y-93773345D01*
X183426229Y-93820909D01*
X183547091Y-93941771D01*
X183581521Y-93963405D01*
X183691810Y-94032705D01*
X183691811Y-94032706D01*
X183691813Y-94032706D01*
X183691817Y-94032709D01*
X183853150Y-94089162D01*
X184023000Y-94108299D01*
X184192850Y-94089162D01*
X184354183Y-94032709D01*
X184370747Y-94022301D01*
X184417906Y-94014287D01*
X184437253Y-94022301D01*
X184453812Y-94032706D01*
X184453817Y-94032709D01*
X184615150Y-94089162D01*
X184785000Y-94108299D01*
X184954850Y-94089162D01*
X185116183Y-94032709D01*
X185165748Y-94001564D01*
X185212907Y-93993552D01*
X185232250Y-94001564D01*
X185281817Y-94032709D01*
X185443150Y-94089162D01*
X185613000Y-94108299D01*
X185782850Y-94089162D01*
X185944183Y-94032709D01*
X186088909Y-93941771D01*
X186209771Y-93820909D01*
X186300709Y-93676183D01*
X186357162Y-93514850D01*
X186376299Y-93345000D01*
X186373432Y-93319558D01*
X186357162Y-93175152D01*
X186357162Y-93175150D01*
X186300709Y-93013817D01*
X186300706Y-93013813D01*
X186300706Y-93013811D01*
X186300705Y-93013810D01*
X186209772Y-92869093D01*
X186209771Y-92869091D01*
X186088908Y-92748228D01*
X186088906Y-92748227D01*
X185944189Y-92657294D01*
X185944188Y-92657293D01*
X185944183Y-92657291D01*
X185782850Y-92600838D01*
X185782849Y-92600837D01*
X185782847Y-92600837D01*
X185613000Y-92581701D01*
X185443152Y-92600837D01*
X185281811Y-92657293D01*
X185281810Y-92657294D01*
X185232252Y-92688434D01*
X185185092Y-92696447D01*
X185165748Y-92688434D01*
X185116189Y-92657294D01*
X185116188Y-92657293D01*
X185116183Y-92657291D01*
X184954850Y-92600838D01*
X184954849Y-92600837D01*
X184954847Y-92600837D01*
X184785000Y-92581701D01*
X184615152Y-92600837D01*
X184453811Y-92657293D01*
X184453810Y-92657294D01*
X184437252Y-92667699D01*
X184390093Y-92675712D01*
X184370748Y-92667699D01*
X184354189Y-92657294D01*
X184354188Y-92657293D01*
X184354183Y-92657291D01*
X184192850Y-92600838D01*
X184192849Y-92600837D01*
X184192847Y-92600837D01*
X184023000Y-92581701D01*
X183853152Y-92600837D01*
X183691811Y-92657293D01*
X183691810Y-92657294D01*
X183547093Y-92748227D01*
X183547091Y-92748228D01*
X183426228Y-92869091D01*
X183426227Y-92869093D01*
X183335294Y-93013810D01*
X183335293Y-93013811D01*
X183278837Y-93175152D01*
X183259701Y-93344999D01*
X159941963Y-93344999D01*
X159877707Y-93319558D01*
X159877688Y-93319552D01*
X159571977Y-93241060D01*
X159571979Y-93241060D01*
X159321451Y-93209412D01*
X159258821Y-93201500D01*
X158943179Y-93201500D01*
X158880548Y-93209412D01*
X158630021Y-93241060D01*
X158324311Y-93319552D01*
X158324292Y-93319558D01*
X158030823Y-93435752D01*
X158030820Y-93435753D01*
X157754224Y-93587813D01*
X157754224Y-93587814D01*
X157498860Y-93773345D01*
X157268767Y-93989417D01*
X157067566Y-94232626D01*
X157067564Y-94232628D01*
X156898448Y-94499112D01*
X156898438Y-94499130D01*
X156764045Y-94784731D01*
X156764042Y-94784738D01*
X156666504Y-95084928D01*
X156607360Y-95394972D01*
X156607359Y-95394976D01*
X156587540Y-95710000D01*
X125349000Y-95710000D01*
X125349000Y-94107000D01*
X133094312Y-94107000D01*
X133114957Y-94250594D01*
X133114958Y-94250597D01*
X133175222Y-94382556D01*
X133175225Y-94382561D01*
X133270226Y-94492198D01*
X133392263Y-94570626D01*
X133392268Y-94570629D01*
X133531461Y-94611499D01*
X133531463Y-94611500D01*
X133531464Y-94611500D01*
X133676537Y-94611500D01*
X133676537Y-94611499D01*
X133815732Y-94570629D01*
X133861535Y-94541192D01*
X133937773Y-94492198D01*
X134032774Y-94382561D01*
X134032777Y-94382558D01*
X134055148Y-94333571D01*
X134090158Y-94300976D01*
X134137963Y-94302683D01*
X134168852Y-94333572D01*
X134191222Y-94382556D01*
X134191225Y-94382561D01*
X134286226Y-94492198D01*
X134408263Y-94570626D01*
X134408268Y-94570629D01*
X134547461Y-94611499D01*
X134547463Y-94611500D01*
X134547464Y-94611500D01*
X134692537Y-94611500D01*
X134692537Y-94611499D01*
X134831732Y-94570629D01*
X134877535Y-94541192D01*
X134953773Y-94492198D01*
X135048774Y-94382561D01*
X135048777Y-94382558D01*
X135071148Y-94333571D01*
X135106158Y-94300976D01*
X135153963Y-94302683D01*
X135184852Y-94333572D01*
X135207222Y-94382556D01*
X135207225Y-94382561D01*
X135302226Y-94492198D01*
X135424263Y-94570626D01*
X135424268Y-94570629D01*
X135563461Y-94611499D01*
X135563463Y-94611500D01*
X135563464Y-94611500D01*
X135708537Y-94611500D01*
X135708537Y-94611499D01*
X135847732Y-94570629D01*
X135893535Y-94541192D01*
X135969773Y-94492198D01*
X136064774Y-94382561D01*
X136064777Y-94382558D01*
X136125042Y-94250596D01*
X136145688Y-94107000D01*
X136125042Y-93963404D01*
X136064777Y-93831442D01*
X136064774Y-93831438D01*
X135969773Y-93721801D01*
X135847736Y-93643373D01*
X135847727Y-93643369D01*
X135708538Y-93602500D01*
X135708536Y-93602500D01*
X135563464Y-93602500D01*
X135563462Y-93602500D01*
X135424272Y-93643369D01*
X135424263Y-93643373D01*
X135302226Y-93721801D01*
X135207225Y-93831438D01*
X135207222Y-93831443D01*
X135184852Y-93880427D01*
X135149842Y-93913023D01*
X135102037Y-93911316D01*
X135071148Y-93880427D01*
X135048777Y-93831443D01*
X135048777Y-93831442D01*
X135048774Y-93831438D01*
X134953773Y-93721801D01*
X134831736Y-93643373D01*
X134831727Y-93643369D01*
X134692538Y-93602500D01*
X134692536Y-93602500D01*
X134547464Y-93602500D01*
X134547462Y-93602500D01*
X134408272Y-93643369D01*
X134408263Y-93643373D01*
X134286226Y-93721801D01*
X134191225Y-93831438D01*
X134191222Y-93831443D01*
X134168852Y-93880427D01*
X134133842Y-93913023D01*
X134086037Y-93911316D01*
X134055148Y-93880427D01*
X134032777Y-93831443D01*
X134032777Y-93831442D01*
X134032774Y-93831438D01*
X133937773Y-93721801D01*
X133815736Y-93643373D01*
X133815727Y-93643369D01*
X133676538Y-93602500D01*
X133676536Y-93602500D01*
X133531464Y-93602500D01*
X133531462Y-93602500D01*
X133392272Y-93643369D01*
X133392263Y-93643373D01*
X133270226Y-93721801D01*
X133175225Y-93831438D01*
X133175222Y-93831443D01*
X133114958Y-93963402D01*
X133114957Y-93963405D01*
X133094312Y-94107000D01*
X125349000Y-94107000D01*
X125349000Y-91951354D01*
X192991500Y-91951354D01*
X192991500Y-94648645D01*
X192998011Y-94709202D01*
X193049109Y-94846200D01*
X193049110Y-94846202D01*
X193049111Y-94846204D01*
X193136739Y-94963261D01*
X193253796Y-95050889D01*
X193390799Y-95101989D01*
X193451362Y-95108500D01*
X193451368Y-95108500D01*
X196148632Y-95108500D01*
X196148638Y-95108500D01*
X196209201Y-95101989D01*
X196346204Y-95050889D01*
X196463261Y-94963261D01*
X196550889Y-94846204D01*
X196601989Y-94709201D01*
X196608500Y-94648638D01*
X196608500Y-91951362D01*
X196601989Y-91890799D01*
X196550889Y-91753796D01*
X196463261Y-91636739D01*
X196346204Y-91549111D01*
X196346202Y-91549110D01*
X196346200Y-91549109D01*
X196209202Y-91498011D01*
X196148645Y-91491500D01*
X196148638Y-91491500D01*
X193451362Y-91491500D01*
X193451354Y-91491500D01*
X193390797Y-91498011D01*
X193253799Y-91549109D01*
X193253794Y-91549112D01*
X193136739Y-91636739D01*
X193049112Y-91753794D01*
X193049109Y-91753799D01*
X192998011Y-91890797D01*
X192991500Y-91951354D01*
X125349000Y-91951354D01*
X125349000Y-90424000D01*
X135380312Y-90424000D01*
X135400957Y-90567594D01*
X135400958Y-90567597D01*
X135461222Y-90699556D01*
X135461225Y-90699561D01*
X135556226Y-90809198D01*
X135678263Y-90887626D01*
X135678268Y-90887629D01*
X135817461Y-90928499D01*
X135817463Y-90928500D01*
X135817464Y-90928500D01*
X135962537Y-90928500D01*
X135962537Y-90928499D01*
X136101732Y-90887629D01*
X136147535Y-90858192D01*
X136223773Y-90809198D01*
X136223775Y-90809196D01*
X136318777Y-90699558D01*
X136379042Y-90567596D01*
X136388732Y-90500200D01*
X137234512Y-90500200D01*
X137255157Y-90643794D01*
X137255158Y-90643797D01*
X137315422Y-90775756D01*
X137315425Y-90775761D01*
X137410426Y-90885398D01*
X137532463Y-90963826D01*
X137532468Y-90963829D01*
X137671661Y-91004699D01*
X137671663Y-91004700D01*
X137671664Y-91004700D01*
X137816737Y-91004700D01*
X137816737Y-91004699D01*
X137955932Y-90963829D01*
X138001735Y-90934392D01*
X138077973Y-90885398D01*
X138144001Y-90809198D01*
X138172977Y-90775758D01*
X138233242Y-90643796D01*
X138253888Y-90500200D01*
X138233242Y-90356604D01*
X138206022Y-90297000D01*
X139126812Y-90297000D01*
X139147457Y-90440594D01*
X139147458Y-90440597D01*
X139207722Y-90572556D01*
X139207725Y-90572561D01*
X139302726Y-90682198D01*
X139424763Y-90760626D01*
X139424768Y-90760629D01*
X139476304Y-90775761D01*
X139563961Y-90801499D01*
X139563963Y-90801500D01*
X139563964Y-90801500D01*
X139709037Y-90801500D01*
X139709037Y-90801499D01*
X139848232Y-90760629D01*
X139894035Y-90731192D01*
X139970273Y-90682198D01*
X140003549Y-90643796D01*
X140065277Y-90572558D01*
X140125542Y-90440596D01*
X140146188Y-90297000D01*
X140125542Y-90153404D01*
X140065277Y-90021442D01*
X140065274Y-90021438D01*
X139970273Y-89911801D01*
X139848236Y-89833373D01*
X139848227Y-89833369D01*
X139709038Y-89792500D01*
X139709036Y-89792500D01*
X139563964Y-89792500D01*
X139563962Y-89792500D01*
X139424772Y-89833369D01*
X139424763Y-89833373D01*
X139302726Y-89911801D01*
X139207725Y-90021438D01*
X139207722Y-90021443D01*
X139147458Y-90153402D01*
X139147457Y-90153405D01*
X139126812Y-90297000D01*
X138206022Y-90297000D01*
X138172977Y-90224642D01*
X138111249Y-90153404D01*
X138077973Y-90115001D01*
X137955936Y-90036573D01*
X137955927Y-90036569D01*
X137816738Y-89995700D01*
X137816736Y-89995700D01*
X137671664Y-89995700D01*
X137671662Y-89995700D01*
X137532472Y-90036569D01*
X137532463Y-90036573D01*
X137410426Y-90115001D01*
X137315425Y-90224638D01*
X137315422Y-90224643D01*
X137255158Y-90356602D01*
X137255157Y-90356605D01*
X137234512Y-90500200D01*
X136388732Y-90500200D01*
X136399688Y-90424000D01*
X136379042Y-90280404D01*
X136318777Y-90148442D01*
X136289803Y-90115004D01*
X136223773Y-90038801D01*
X136101736Y-89960373D01*
X136101727Y-89960369D01*
X135962538Y-89919500D01*
X135962536Y-89919500D01*
X135817464Y-89919500D01*
X135817462Y-89919500D01*
X135678272Y-89960369D01*
X135678263Y-89960373D01*
X135556226Y-90038801D01*
X135461225Y-90148438D01*
X135461222Y-90148443D01*
X135400958Y-90280402D01*
X135400957Y-90280405D01*
X135380312Y-90424000D01*
X125349000Y-90424000D01*
X125349000Y-89474000D01*
X133160312Y-89474000D01*
X133180957Y-89617594D01*
X133180958Y-89617597D01*
X133241222Y-89749556D01*
X133241225Y-89749561D01*
X133336226Y-89859198D01*
X133458263Y-89937626D01*
X133458268Y-89937629D01*
X133597461Y-89978499D01*
X133597463Y-89978500D01*
X133597464Y-89978500D01*
X133742537Y-89978500D01*
X133742537Y-89978499D01*
X133881732Y-89937629D01*
X133927535Y-89908192D01*
X134003773Y-89859198D01*
X134003775Y-89859196D01*
X134098777Y-89749558D01*
X134159042Y-89617596D01*
X134179688Y-89474000D01*
X134159042Y-89330404D01*
X134098777Y-89198442D01*
X134098174Y-89197746D01*
X134003773Y-89088801D01*
X133907608Y-89027000D01*
X144524312Y-89027000D01*
X144544957Y-89170594D01*
X144544958Y-89170597D01*
X144605222Y-89302556D01*
X144605225Y-89302561D01*
X144700226Y-89412198D01*
X144822263Y-89490626D01*
X144822268Y-89490629D01*
X144961461Y-89531499D01*
X144961463Y-89531500D01*
X144961464Y-89531500D01*
X145106537Y-89531500D01*
X145106537Y-89531499D01*
X145245732Y-89490629D01*
X145291535Y-89461192D01*
X145367773Y-89412198D01*
X145367775Y-89412196D01*
X145458495Y-89307500D01*
X158520812Y-89307500D01*
X158541457Y-89451094D01*
X158541458Y-89451097D01*
X158601722Y-89583056D01*
X158601725Y-89583061D01*
X158696726Y-89692698D01*
X158818763Y-89771126D01*
X158818768Y-89771129D01*
X158957961Y-89811999D01*
X158957963Y-89812000D01*
X158957964Y-89812000D01*
X159103037Y-89812000D01*
X159103037Y-89811999D01*
X159242232Y-89771129D01*
X159288035Y-89741692D01*
X159364273Y-89692698D01*
X159384385Y-89669488D01*
X159459277Y-89583058D01*
X159519542Y-89451096D01*
X159540188Y-89307500D01*
X159519542Y-89163904D01*
X159459277Y-89031942D01*
X159454995Y-89027000D01*
X159364273Y-88922301D01*
X159242236Y-88843873D01*
X159242227Y-88843869D01*
X159103038Y-88803000D01*
X159103036Y-88803000D01*
X158957964Y-88803000D01*
X158957962Y-88803000D01*
X158818772Y-88843869D01*
X158818763Y-88843873D01*
X158696726Y-88922301D01*
X158601725Y-89031938D01*
X158601722Y-89031943D01*
X158541458Y-89163902D01*
X158541457Y-89163905D01*
X158520812Y-89307500D01*
X145458495Y-89307500D01*
X145462777Y-89302558D01*
X145523042Y-89170596D01*
X145543688Y-89027000D01*
X145523042Y-88883404D01*
X145472622Y-88773000D01*
X156970312Y-88773000D01*
X156990957Y-88916594D01*
X156990958Y-88916597D01*
X157051222Y-89048556D01*
X157051225Y-89048561D01*
X157146226Y-89158198D01*
X157268263Y-89236626D01*
X157268268Y-89236629D01*
X157407461Y-89277499D01*
X157407463Y-89277500D01*
X157407464Y-89277500D01*
X157552537Y-89277500D01*
X157552537Y-89277499D01*
X157691732Y-89236629D01*
X157752235Y-89197746D01*
X157813773Y-89158198D01*
X157813775Y-89158196D01*
X157908777Y-89048558D01*
X157969042Y-88916596D01*
X157989688Y-88773000D01*
X157969042Y-88629404D01*
X157908777Y-88497442D01*
X157908774Y-88497438D01*
X157813773Y-88387801D01*
X157691736Y-88309373D01*
X157691727Y-88309369D01*
X157552538Y-88268500D01*
X157552536Y-88268500D01*
X157407464Y-88268500D01*
X157407462Y-88268500D01*
X157268272Y-88309369D01*
X157268263Y-88309373D01*
X157146226Y-88387801D01*
X157051225Y-88497438D01*
X157051222Y-88497443D01*
X156990958Y-88629402D01*
X156990957Y-88629405D01*
X156970312Y-88773000D01*
X145472622Y-88773000D01*
X145462777Y-88751442D01*
X145462774Y-88751438D01*
X145367773Y-88641801D01*
X145245736Y-88563373D01*
X145245727Y-88563369D01*
X145106538Y-88522500D01*
X145106536Y-88522500D01*
X144961464Y-88522500D01*
X144961462Y-88522500D01*
X144822272Y-88563369D01*
X144822263Y-88563373D01*
X144700226Y-88641801D01*
X144605225Y-88751438D01*
X144605222Y-88751443D01*
X144544958Y-88883402D01*
X144544957Y-88883405D01*
X144524312Y-89027000D01*
X133907608Y-89027000D01*
X133881736Y-89010373D01*
X133881727Y-89010369D01*
X133742538Y-88969500D01*
X133742536Y-88969500D01*
X133597464Y-88969500D01*
X133597462Y-88969500D01*
X133458272Y-89010369D01*
X133458263Y-89010373D01*
X133336226Y-89088801D01*
X133241225Y-89198438D01*
X133241222Y-89198443D01*
X133180958Y-89330402D01*
X133180957Y-89330405D01*
X133160312Y-89474000D01*
X125349000Y-89474000D01*
X125349000Y-87503000D01*
X139317312Y-87503000D01*
X139337957Y-87646594D01*
X139337958Y-87646597D01*
X139398222Y-87778556D01*
X139398225Y-87778561D01*
X139493226Y-87888198D01*
X139615263Y-87966626D01*
X139615268Y-87966629D01*
X139754461Y-88007499D01*
X139754463Y-88007500D01*
X139754464Y-88007500D01*
X139899537Y-88007500D01*
X139899537Y-88007499D01*
X140038732Y-87966629D01*
X140084535Y-87937192D01*
X140160773Y-87888198D01*
X140160775Y-87888196D01*
X140255777Y-87778558D01*
X140316042Y-87646596D01*
X140336688Y-87503000D01*
X140316042Y-87359404D01*
X140255777Y-87227442D01*
X140249812Y-87220558D01*
X140164411Y-87122000D01*
X146937312Y-87122000D01*
X146957957Y-87265594D01*
X146957958Y-87265597D01*
X147018222Y-87397556D01*
X147018225Y-87397561D01*
X147113226Y-87507198D01*
X147223649Y-87578162D01*
X147235268Y-87585629D01*
X147239682Y-87586925D01*
X147374461Y-87626499D01*
X147374463Y-87626500D01*
X147374464Y-87626500D01*
X147519537Y-87626500D01*
X147519537Y-87626499D01*
X147658732Y-87585629D01*
X147704535Y-87556192D01*
X147780773Y-87507198D01*
X147830769Y-87449500D01*
X147875777Y-87397558D01*
X147936042Y-87265596D01*
X147956688Y-87122000D01*
X147936042Y-86978404D01*
X147875777Y-86846442D01*
X147846536Y-86812696D01*
X147780773Y-86736801D01*
X147658736Y-86658373D01*
X147658727Y-86658369D01*
X147519538Y-86617500D01*
X147519536Y-86617500D01*
X147374464Y-86617500D01*
X147374462Y-86617500D01*
X147235272Y-86658369D01*
X147235263Y-86658373D01*
X147113226Y-86736801D01*
X147018225Y-86846438D01*
X147018222Y-86846443D01*
X146957958Y-86978402D01*
X146957957Y-86978405D01*
X146937312Y-87122000D01*
X140164411Y-87122000D01*
X140160773Y-87117801D01*
X140038736Y-87039373D01*
X140038727Y-87039369D01*
X139899538Y-86998500D01*
X139899536Y-86998500D01*
X139754464Y-86998500D01*
X139754462Y-86998500D01*
X139615272Y-87039369D01*
X139615263Y-87039373D01*
X139493226Y-87117801D01*
X139398225Y-87227438D01*
X139398222Y-87227443D01*
X139337958Y-87359402D01*
X139337957Y-87359405D01*
X139317312Y-87503000D01*
X125349000Y-87503000D01*
X125349000Y-86945000D01*
X127506312Y-86945000D01*
X127526957Y-87088594D01*
X127526958Y-87088597D01*
X127587222Y-87220556D01*
X127587225Y-87220561D01*
X127682226Y-87330198D01*
X127804263Y-87408626D01*
X127804268Y-87408629D01*
X127863787Y-87426105D01*
X127943461Y-87449499D01*
X127943463Y-87449500D01*
X127943464Y-87449500D01*
X128088537Y-87449500D01*
X128088537Y-87449499D01*
X128227732Y-87408629D01*
X128283951Y-87372499D01*
X128349773Y-87330198D01*
X128444774Y-87220561D01*
X128444777Y-87220558D01*
X128505042Y-87088596D01*
X128525688Y-86945000D01*
X128505042Y-86801404D01*
X128444777Y-86669442D01*
X128435184Y-86658371D01*
X128349773Y-86559801D01*
X128227736Y-86481373D01*
X128227727Y-86481369D01*
X128088538Y-86440500D01*
X128088536Y-86440500D01*
X127943464Y-86440500D01*
X127943462Y-86440500D01*
X127804272Y-86481369D01*
X127804263Y-86481373D01*
X127682226Y-86559801D01*
X127587225Y-86669438D01*
X127587222Y-86669443D01*
X127526958Y-86801402D01*
X127526957Y-86801405D01*
X127506312Y-86945000D01*
X125349000Y-86945000D01*
X125349000Y-85675000D01*
X127633312Y-85675000D01*
X127653957Y-85818594D01*
X127653958Y-85818597D01*
X127714222Y-85950556D01*
X127714225Y-85950561D01*
X127809226Y-86060198D01*
X127908981Y-86124306D01*
X127931268Y-86138629D01*
X128033001Y-86168500D01*
X128070461Y-86179499D01*
X128070463Y-86179500D01*
X128070464Y-86179500D01*
X128215537Y-86179500D01*
X128215537Y-86179499D01*
X128354732Y-86138629D01*
X128405503Y-86106000D01*
X128476773Y-86060198D01*
X128476775Y-86060196D01*
X128571777Y-85950558D01*
X128632042Y-85818596D01*
X128645499Y-85725000D01*
X135253312Y-85725000D01*
X135273957Y-85868594D01*
X135273958Y-85868597D01*
X135334222Y-86000556D01*
X135334225Y-86000561D01*
X135429226Y-86110198D01*
X135537063Y-86179500D01*
X135551268Y-86188629D01*
X135653117Y-86218534D01*
X135690461Y-86229499D01*
X135690463Y-86229500D01*
X135690464Y-86229500D01*
X135835537Y-86229500D01*
X135835537Y-86229499D01*
X135974732Y-86188629D01*
X136031824Y-86151938D01*
X136096773Y-86110198D01*
X136096775Y-86110196D01*
X136191777Y-86000558D01*
X136252042Y-85868596D01*
X136272688Y-85725000D01*
X154176312Y-85725000D01*
X154196957Y-85868594D01*
X154196958Y-85868597D01*
X154257222Y-86000556D01*
X154257225Y-86000561D01*
X154352226Y-86110198D01*
X154460063Y-86179500D01*
X154474268Y-86188629D01*
X154576117Y-86218534D01*
X154613461Y-86229499D01*
X154613463Y-86229500D01*
X154613464Y-86229500D01*
X154758537Y-86229500D01*
X154758537Y-86229499D01*
X154897732Y-86188629D01*
X154954824Y-86151938D01*
X155019773Y-86110198D01*
X155019775Y-86110196D01*
X155114777Y-86000558D01*
X155175042Y-85868596D01*
X155195688Y-85725000D01*
X155175042Y-85581404D01*
X155114777Y-85449442D01*
X155071452Y-85399442D01*
X155019773Y-85339801D01*
X154897736Y-85261373D01*
X154897727Y-85261369D01*
X154758538Y-85220500D01*
X154758536Y-85220500D01*
X154613464Y-85220500D01*
X154613462Y-85220500D01*
X154474272Y-85261369D01*
X154474263Y-85261373D01*
X154352226Y-85339801D01*
X154257225Y-85449438D01*
X154257222Y-85449443D01*
X154196958Y-85581402D01*
X154196957Y-85581405D01*
X154176312Y-85725000D01*
X136272688Y-85725000D01*
X136252042Y-85581404D01*
X136191777Y-85449442D01*
X136148452Y-85399442D01*
X136096773Y-85339801D01*
X135974736Y-85261373D01*
X135974727Y-85261369D01*
X135835538Y-85220500D01*
X135835536Y-85220500D01*
X135690464Y-85220500D01*
X135690462Y-85220500D01*
X135551272Y-85261369D01*
X135551263Y-85261373D01*
X135429226Y-85339801D01*
X135334225Y-85449438D01*
X135334222Y-85449443D01*
X135273958Y-85581402D01*
X135273957Y-85581405D01*
X135253312Y-85725000D01*
X128645499Y-85725000D01*
X128652688Y-85675000D01*
X128632042Y-85531404D01*
X128571777Y-85399442D01*
X128538115Y-85360594D01*
X128476773Y-85289801D01*
X128354736Y-85211373D01*
X128354727Y-85211369D01*
X128215538Y-85170500D01*
X128215536Y-85170500D01*
X128070464Y-85170500D01*
X128070462Y-85170500D01*
X127931272Y-85211369D01*
X127931263Y-85211373D01*
X127809226Y-85289801D01*
X127714225Y-85399438D01*
X127714222Y-85399443D01*
X127653958Y-85531402D01*
X127653957Y-85531405D01*
X127633312Y-85675000D01*
X125349000Y-85675000D01*
X125349000Y-84405000D01*
X127633312Y-84405000D01*
X127653957Y-84548594D01*
X127653958Y-84548597D01*
X127714222Y-84680556D01*
X127714225Y-84680561D01*
X127809226Y-84790198D01*
X127931263Y-84868626D01*
X127931268Y-84868629D01*
X128055394Y-84905075D01*
X128070461Y-84909499D01*
X128070463Y-84909500D01*
X128070464Y-84909500D01*
X128215537Y-84909500D01*
X128215537Y-84909499D01*
X128354732Y-84868629D01*
X128412037Y-84831801D01*
X128476773Y-84790198D01*
X128489942Y-84775000D01*
X131570312Y-84775000D01*
X131590957Y-84918594D01*
X131590958Y-84918597D01*
X131651222Y-85050556D01*
X131651225Y-85050561D01*
X131746226Y-85160198D01*
X131868263Y-85238626D01*
X131868268Y-85238629D01*
X131949747Y-85262553D01*
X132007461Y-85279499D01*
X132007463Y-85279500D01*
X132007464Y-85279500D01*
X132152537Y-85279500D01*
X132152537Y-85279499D01*
X132291732Y-85238629D01*
X132325386Y-85217000D01*
X139761812Y-85217000D01*
X139782457Y-85360594D01*
X139782458Y-85360597D01*
X139842722Y-85492556D01*
X139842725Y-85492561D01*
X139937726Y-85602198D01*
X140051009Y-85675000D01*
X140059768Y-85680629D01*
X140198961Y-85721499D01*
X140198963Y-85721500D01*
X140198964Y-85721500D01*
X140344037Y-85721500D01*
X140344037Y-85721499D01*
X140483232Y-85680629D01*
X140548118Y-85638929D01*
X140605273Y-85602198D01*
X140608911Y-85598000D01*
X140700277Y-85492558D01*
X140760542Y-85360596D01*
X140781188Y-85217000D01*
X140760542Y-85073404D01*
X140700277Y-84941442D01*
X140700274Y-84941438D01*
X140605273Y-84831801D01*
X140483236Y-84753373D01*
X140483227Y-84753369D01*
X140344038Y-84712500D01*
X140344036Y-84712500D01*
X140198964Y-84712500D01*
X140198962Y-84712500D01*
X140059772Y-84753369D01*
X140059763Y-84753373D01*
X139937726Y-84831801D01*
X139842725Y-84941438D01*
X139842722Y-84941443D01*
X139782458Y-85073402D01*
X139782457Y-85073405D01*
X139761812Y-85217000D01*
X132325386Y-85217000D01*
X132337535Y-85209192D01*
X132413773Y-85160198D01*
X132413775Y-85160196D01*
X132508777Y-85050558D01*
X132569042Y-84918596D01*
X132589688Y-84775000D01*
X132569042Y-84631404D01*
X132508777Y-84499442D01*
X132467235Y-84451500D01*
X132413773Y-84389801D01*
X132291736Y-84311373D01*
X132291727Y-84311369D01*
X132152538Y-84270500D01*
X132152536Y-84270500D01*
X132007464Y-84270500D01*
X132007462Y-84270500D01*
X131868272Y-84311369D01*
X131868263Y-84311373D01*
X131746226Y-84389801D01*
X131651225Y-84499438D01*
X131651222Y-84499443D01*
X131590958Y-84631402D01*
X131590957Y-84631405D01*
X131570312Y-84775000D01*
X128489942Y-84775000D01*
X128571774Y-84680561D01*
X128571777Y-84680558D01*
X128632042Y-84548596D01*
X128652688Y-84405000D01*
X128632042Y-84261404D01*
X128571777Y-84129442D01*
X128538115Y-84090594D01*
X128476773Y-84019801D01*
X128363492Y-83947000D01*
X138404812Y-83947000D01*
X138425457Y-84090594D01*
X138425458Y-84090597D01*
X138485722Y-84222556D01*
X138485725Y-84222561D01*
X138580726Y-84332198D01*
X138694009Y-84405000D01*
X138702768Y-84410629D01*
X138841961Y-84451499D01*
X138841963Y-84451500D01*
X138841964Y-84451500D01*
X138987037Y-84451500D01*
X138987037Y-84451499D01*
X139126232Y-84410629D01*
X139172035Y-84381192D01*
X139248273Y-84332198D01*
X139266320Y-84311371D01*
X139343277Y-84222558D01*
X139403542Y-84090596D01*
X139424188Y-83947000D01*
X139403542Y-83803404D01*
X139343277Y-83671442D01*
X139343274Y-83671438D01*
X139248273Y-83561801D01*
X139126236Y-83483373D01*
X139126227Y-83483369D01*
X138987038Y-83442500D01*
X138987036Y-83442500D01*
X138841964Y-83442500D01*
X138841962Y-83442500D01*
X138702772Y-83483369D01*
X138702763Y-83483373D01*
X138580726Y-83561801D01*
X138485725Y-83671438D01*
X138485722Y-83671443D01*
X138425458Y-83803402D01*
X138425457Y-83803405D01*
X138404812Y-83947000D01*
X128363492Y-83947000D01*
X128354736Y-83941373D01*
X128354727Y-83941369D01*
X128215538Y-83900500D01*
X128215536Y-83900500D01*
X128070464Y-83900500D01*
X128070462Y-83900500D01*
X127931272Y-83941369D01*
X127931263Y-83941373D01*
X127809226Y-84019801D01*
X127714225Y-84129438D01*
X127714222Y-84129443D01*
X127653958Y-84261402D01*
X127653957Y-84261405D01*
X127633312Y-84405000D01*
X125349000Y-84405000D01*
X125349000Y-83135000D01*
X127633312Y-83135000D01*
X127653957Y-83278594D01*
X127653958Y-83278597D01*
X127714222Y-83410556D01*
X127714225Y-83410561D01*
X127809226Y-83520198D01*
X127931263Y-83598626D01*
X127931268Y-83598629D01*
X128056841Y-83635500D01*
X128070461Y-83639499D01*
X128070463Y-83639500D01*
X128070464Y-83639500D01*
X128215537Y-83639500D01*
X128215537Y-83639499D01*
X128354732Y-83598629D01*
X128424454Y-83553821D01*
X128476773Y-83520198D01*
X128544099Y-83442500D01*
X128571777Y-83410558D01*
X128632042Y-83278596D01*
X128652688Y-83135000D01*
X128632042Y-82991404D01*
X128571777Y-82859442D01*
X128554395Y-82839382D01*
X128476773Y-82749801D01*
X128354736Y-82671373D01*
X128354727Y-82671369D01*
X128215538Y-82630500D01*
X128215536Y-82630500D01*
X128070464Y-82630500D01*
X128070462Y-82630500D01*
X127931272Y-82671369D01*
X127931263Y-82671373D01*
X127809226Y-82749801D01*
X127714225Y-82859438D01*
X127714222Y-82859443D01*
X127653958Y-82991402D01*
X127653957Y-82991405D01*
X127633312Y-83135000D01*
X125349000Y-83135000D01*
X125349000Y-81889600D01*
X136650312Y-81889600D01*
X136670957Y-82033194D01*
X136670958Y-82033197D01*
X136731222Y-82165156D01*
X136731225Y-82165161D01*
X136826226Y-82274798D01*
X136948263Y-82353226D01*
X136948268Y-82353229D01*
X137087461Y-82394099D01*
X137087463Y-82394100D01*
X137087464Y-82394100D01*
X137232537Y-82394100D01*
X137232537Y-82394099D01*
X137371732Y-82353229D01*
X137434961Y-82312594D01*
X137493773Y-82274798D01*
X137493775Y-82274796D01*
X137588777Y-82165158D01*
X137649042Y-82033196D01*
X137669688Y-81889600D01*
X137649042Y-81746004D01*
X137588777Y-81614042D01*
X137588774Y-81614038D01*
X137493773Y-81504401D01*
X137371736Y-81425973D01*
X137371727Y-81425969D01*
X137232538Y-81385100D01*
X137232536Y-81385100D01*
X137087464Y-81385100D01*
X137087462Y-81385100D01*
X136948272Y-81425969D01*
X136948263Y-81425973D01*
X136826226Y-81504401D01*
X136731225Y-81614038D01*
X136731222Y-81614043D01*
X136670958Y-81746002D01*
X136670957Y-81746005D01*
X136650312Y-81889600D01*
X125349000Y-81889600D01*
X125349000Y-80595000D01*
X127506312Y-80595000D01*
X127526957Y-80738594D01*
X127526958Y-80738597D01*
X127587222Y-80870556D01*
X127587225Y-80870561D01*
X127682226Y-80980198D01*
X127786697Y-81047337D01*
X127804268Y-81058629D01*
X127889303Y-81083597D01*
X127943461Y-81099499D01*
X127943463Y-81099500D01*
X127943464Y-81099500D01*
X128088537Y-81099500D01*
X128088537Y-81099499D01*
X128227732Y-81058629D01*
X128278504Y-81026000D01*
X134491312Y-81026000D01*
X134511957Y-81169594D01*
X134511958Y-81169597D01*
X134572222Y-81301556D01*
X134572225Y-81301561D01*
X134667226Y-81411198D01*
X134753459Y-81466616D01*
X134789268Y-81489629D01*
X134924180Y-81529242D01*
X134928461Y-81530499D01*
X134928463Y-81530500D01*
X134928464Y-81530500D01*
X135073537Y-81530500D01*
X135073537Y-81530499D01*
X135212732Y-81489629D01*
X135258535Y-81460192D01*
X135334773Y-81411198D01*
X135357387Y-81385100D01*
X135429777Y-81301558D01*
X135490042Y-81169596D01*
X135510688Y-81026000D01*
X135498323Y-80940000D01*
X138469312Y-80940000D01*
X138489957Y-81083594D01*
X138489958Y-81083597D01*
X138550222Y-81215556D01*
X138550225Y-81215561D01*
X138645226Y-81325198D01*
X138767263Y-81403626D01*
X138767268Y-81403629D01*
X138843366Y-81425973D01*
X138906461Y-81444499D01*
X138906463Y-81444500D01*
X138906464Y-81444500D01*
X139051537Y-81444500D01*
X139051537Y-81444499D01*
X139190732Y-81403629D01*
X139263762Y-81356695D01*
X139312773Y-81325198D01*
X139337559Y-81296594D01*
X139407777Y-81215558D01*
X139468042Y-81083596D01*
X139488688Y-80940000D01*
X139468042Y-80796404D01*
X139407777Y-80664442D01*
X139405839Y-80662205D01*
X139355404Y-80604000D01*
X141009312Y-80604000D01*
X141029957Y-80747594D01*
X141029958Y-80747597D01*
X141090222Y-80879556D01*
X141090225Y-80879561D01*
X141185226Y-80989198D01*
X141293265Y-81058630D01*
X141307268Y-81067629D01*
X141446461Y-81108499D01*
X141446463Y-81108500D01*
X141446464Y-81108500D01*
X141591537Y-81108500D01*
X141591537Y-81108499D01*
X141730732Y-81067629D01*
X141776535Y-81038192D01*
X141852773Y-80989198D01*
X141852775Y-80989196D01*
X141947777Y-80879558D01*
X142008042Y-80747596D01*
X142028688Y-80604000D01*
X142008042Y-80460404D01*
X141947777Y-80328442D01*
X141947394Y-80328000D01*
X141852773Y-80218801D01*
X141730736Y-80140373D01*
X141730727Y-80140369D01*
X141719253Y-80137000D01*
X142746312Y-80137000D01*
X142766957Y-80280594D01*
X142766958Y-80280597D01*
X142827222Y-80412556D01*
X142827225Y-80412561D01*
X142922226Y-80522198D01*
X143022079Y-80586369D01*
X143044268Y-80600629D01*
X143055749Y-80604000D01*
X143182080Y-80641094D01*
X143219327Y-80671109D01*
X143224440Y-80718670D01*
X143198263Y-80753640D01*
X143176225Y-80767802D01*
X143081225Y-80877438D01*
X143081222Y-80877443D01*
X143020958Y-81009402D01*
X143020957Y-81009405D01*
X143000312Y-81153000D01*
X143020957Y-81296594D01*
X143020958Y-81296597D01*
X143081222Y-81428556D01*
X143081225Y-81428561D01*
X143169556Y-81530500D01*
X143176225Y-81538196D01*
X143198262Y-81552358D01*
X143225544Y-81591651D01*
X143217051Y-81638727D01*
X143182080Y-81664905D01*
X143044272Y-81705369D01*
X143044263Y-81705373D01*
X142922226Y-81783801D01*
X142827225Y-81893438D01*
X142827222Y-81893443D01*
X142766958Y-82025402D01*
X142766957Y-82025405D01*
X142746312Y-82169000D01*
X142766957Y-82312594D01*
X142766958Y-82312597D01*
X142827222Y-82444556D01*
X142827225Y-82444561D01*
X142922226Y-82554198D01*
X143040955Y-82630500D01*
X143044268Y-82632629D01*
X143176220Y-82671373D01*
X143183461Y-82673499D01*
X143183463Y-82673500D01*
X143183464Y-82673500D01*
X143328537Y-82673500D01*
X143328537Y-82673499D01*
X143467732Y-82632629D01*
X143513535Y-82603192D01*
X143589773Y-82554198D01*
X143635355Y-82501594D01*
X143684777Y-82444558D01*
X143745042Y-82312596D01*
X143765688Y-82169000D01*
X143745042Y-82025404D01*
X143684777Y-81893442D01*
X143681448Y-81889600D01*
X143589773Y-81783801D01*
X143567737Y-81769640D01*
X143540455Y-81730347D01*
X143548949Y-81683272D01*
X143583919Y-81657094D01*
X143652105Y-81637073D01*
X143721732Y-81616629D01*
X143818406Y-81554500D01*
X143843773Y-81538198D01*
X143843776Y-81538195D01*
X143938777Y-81428558D01*
X143999042Y-81296596D01*
X144019688Y-81153000D01*
X143999042Y-81009404D01*
X143938777Y-80877442D01*
X143932812Y-80870558D01*
X143843773Y-80767801D01*
X143721736Y-80689373D01*
X143721727Y-80689369D01*
X143583919Y-80648905D01*
X143546672Y-80618890D01*
X143541559Y-80571329D01*
X143567737Y-80536358D01*
X143589772Y-80522198D01*
X143589774Y-80522197D01*
X143593844Y-80517500D01*
X143684777Y-80412558D01*
X143745042Y-80280596D01*
X143765688Y-80137000D01*
X143745042Y-79993404D01*
X143684777Y-79861442D01*
X143666779Y-79840671D01*
X143589773Y-79751801D01*
X143467736Y-79673373D01*
X143467727Y-79673369D01*
X143328538Y-79632500D01*
X143328536Y-79632500D01*
X143183464Y-79632500D01*
X143183462Y-79632500D01*
X143044272Y-79673369D01*
X143044263Y-79673373D01*
X142922226Y-79751801D01*
X142827225Y-79861438D01*
X142827222Y-79861443D01*
X142766958Y-79993402D01*
X142766957Y-79993405D01*
X142746312Y-80137000D01*
X141719253Y-80137000D01*
X141591538Y-80099500D01*
X141591536Y-80099500D01*
X141446464Y-80099500D01*
X141446462Y-80099500D01*
X141307272Y-80140369D01*
X141307263Y-80140373D01*
X141185226Y-80218801D01*
X141090225Y-80328438D01*
X141090222Y-80328443D01*
X141029958Y-80460402D01*
X141029957Y-80460405D01*
X141009312Y-80604000D01*
X139355404Y-80604000D01*
X139312773Y-80554801D01*
X139190736Y-80476373D01*
X139190727Y-80476369D01*
X139051538Y-80435500D01*
X139051536Y-80435500D01*
X138906464Y-80435500D01*
X138906462Y-80435500D01*
X138767272Y-80476369D01*
X138767263Y-80476373D01*
X138645226Y-80554801D01*
X138550225Y-80664438D01*
X138550222Y-80664443D01*
X138489958Y-80796402D01*
X138489957Y-80796405D01*
X138469312Y-80940000D01*
X135498323Y-80940000D01*
X135490042Y-80882404D01*
X135429777Y-80750442D01*
X135427311Y-80747596D01*
X135334773Y-80640801D01*
X135212736Y-80562373D01*
X135212727Y-80562369D01*
X135073538Y-80521500D01*
X135073536Y-80521500D01*
X134928464Y-80521500D01*
X134928462Y-80521500D01*
X134789272Y-80562369D01*
X134789263Y-80562373D01*
X134667226Y-80640801D01*
X134572225Y-80750438D01*
X134572222Y-80750443D01*
X134511958Y-80882402D01*
X134511957Y-80882405D01*
X134491312Y-81026000D01*
X128278504Y-81026000D01*
X128285389Y-81021575D01*
X128349773Y-80980198D01*
X128384605Y-80940000D01*
X128444777Y-80870558D01*
X128505042Y-80738596D01*
X128525688Y-80595000D01*
X128505042Y-80451404D01*
X128444777Y-80319442D01*
X128429686Y-80302026D01*
X128349773Y-80209801D01*
X128227736Y-80131373D01*
X128227727Y-80131369D01*
X128088538Y-80090500D01*
X128088536Y-80090500D01*
X127943464Y-80090500D01*
X127943462Y-80090500D01*
X127804272Y-80131369D01*
X127804263Y-80131373D01*
X127682226Y-80209801D01*
X127587225Y-80319438D01*
X127587222Y-80319443D01*
X127526958Y-80451402D01*
X127526957Y-80451405D01*
X127506312Y-80595000D01*
X125349000Y-80595000D01*
X125349000Y-79248000D01*
X130554312Y-79248000D01*
X130574957Y-79391594D01*
X130574958Y-79391597D01*
X130635222Y-79523556D01*
X130635225Y-79523561D01*
X130730226Y-79633198D01*
X130851764Y-79711305D01*
X130852268Y-79711629D01*
X130989094Y-79751804D01*
X130991461Y-79752499D01*
X130991463Y-79752500D01*
X130991464Y-79752500D01*
X131136537Y-79752500D01*
X131136537Y-79752499D01*
X131275732Y-79711629D01*
X131332737Y-79674994D01*
X131397773Y-79633198D01*
X131398378Y-79632500D01*
X131492777Y-79523558D01*
X131553042Y-79391596D01*
X131573688Y-79248000D01*
X131553042Y-79104404D01*
X131492777Y-78972442D01*
X131490661Y-78970000D01*
X131397773Y-78862801D01*
X131275736Y-78784373D01*
X131275727Y-78784369D01*
X131136538Y-78743500D01*
X131136536Y-78743500D01*
X130991464Y-78743500D01*
X130991462Y-78743500D01*
X130852272Y-78784369D01*
X130852263Y-78784373D01*
X130730226Y-78862801D01*
X130635225Y-78972438D01*
X130635222Y-78972443D01*
X130574958Y-79104402D01*
X130574957Y-79104405D01*
X130554312Y-79248000D01*
X125349000Y-79248000D01*
X125349000Y-78055000D01*
X128091312Y-78055000D01*
X128111957Y-78198594D01*
X128111958Y-78198597D01*
X128172222Y-78330556D01*
X128172225Y-78330561D01*
X128267226Y-78440198D01*
X128389263Y-78518626D01*
X128389268Y-78518629D01*
X128443338Y-78534505D01*
X128528461Y-78559499D01*
X128528463Y-78559500D01*
X128528464Y-78559500D01*
X128673537Y-78559500D01*
X128673537Y-78559499D01*
X128812732Y-78518629D01*
X128858535Y-78489192D01*
X128934773Y-78440198D01*
X128969435Y-78400196D01*
X129029777Y-78330558D01*
X129086889Y-78205500D01*
X134464812Y-78205500D01*
X134485457Y-78349094D01*
X134485458Y-78349097D01*
X134545722Y-78481056D01*
X134545725Y-78481061D01*
X134640726Y-78590698D01*
X134758327Y-78666275D01*
X134762768Y-78669129D01*
X134901961Y-78709999D01*
X134901963Y-78710000D01*
X134901964Y-78710000D01*
X135047037Y-78710000D01*
X135047037Y-78709999D01*
X135186232Y-78669129D01*
X135260949Y-78621111D01*
X135308273Y-78590698D01*
X135308275Y-78590696D01*
X135403277Y-78481058D01*
X135463542Y-78349096D01*
X135484188Y-78205500D01*
X135469738Y-78105000D01*
X137158312Y-78105000D01*
X137178957Y-78248594D01*
X137178958Y-78248597D01*
X137239222Y-78380556D01*
X137239225Y-78380561D01*
X137334226Y-78490198D01*
X137442063Y-78559500D01*
X137456268Y-78568629D01*
X137593094Y-78608804D01*
X137595461Y-78609499D01*
X137595463Y-78609500D01*
X137595464Y-78609500D01*
X137740537Y-78609500D01*
X137740537Y-78609499D01*
X137879732Y-78568629D01*
X137926328Y-78538683D01*
X138001773Y-78490198D01*
X138002378Y-78489500D01*
X138096777Y-78380558D01*
X138153889Y-78255500D01*
X140483812Y-78255500D01*
X140504457Y-78399094D01*
X140504458Y-78399097D01*
X140564722Y-78531056D01*
X140564725Y-78531061D01*
X140659726Y-78640698D01*
X140781763Y-78719126D01*
X140781768Y-78719129D01*
X140914064Y-78757974D01*
X140920961Y-78759999D01*
X140920963Y-78760000D01*
X140920964Y-78760000D01*
X141066037Y-78760000D01*
X141066037Y-78759999D01*
X141205232Y-78719129D01*
X141251035Y-78689692D01*
X141327273Y-78640698D01*
X141335402Y-78631317D01*
X141422277Y-78531058D01*
X141482542Y-78399096D01*
X141503188Y-78255500D01*
X141482542Y-78111904D01*
X141422277Y-77979942D01*
X141422274Y-77979938D01*
X141327273Y-77870301D01*
X141205236Y-77791873D01*
X141205227Y-77791869D01*
X141066038Y-77751000D01*
X141066036Y-77751000D01*
X140920964Y-77751000D01*
X140920962Y-77751000D01*
X140781772Y-77791869D01*
X140781763Y-77791873D01*
X140659726Y-77870301D01*
X140564725Y-77979938D01*
X140564722Y-77979943D01*
X140504458Y-78111902D01*
X140504457Y-78111905D01*
X140483812Y-78255500D01*
X138153889Y-78255500D01*
X138157042Y-78248596D01*
X138177688Y-78105000D01*
X138157042Y-77961404D01*
X138096777Y-77829442D01*
X138096774Y-77829438D01*
X138001773Y-77719801D01*
X137879736Y-77641373D01*
X137879727Y-77641369D01*
X137740538Y-77600500D01*
X137740536Y-77600500D01*
X137595464Y-77600500D01*
X137595462Y-77600500D01*
X137456272Y-77641369D01*
X137456263Y-77641373D01*
X137334226Y-77719801D01*
X137239225Y-77829438D01*
X137239222Y-77829443D01*
X137178958Y-77961402D01*
X137178957Y-77961405D01*
X137158312Y-78105000D01*
X135469738Y-78105000D01*
X135463542Y-78061904D01*
X135403277Y-77929942D01*
X135383519Y-77907140D01*
X135308273Y-77820301D01*
X135186236Y-77741873D01*
X135186227Y-77741869D01*
X135047038Y-77701000D01*
X135047036Y-77701000D01*
X134901964Y-77701000D01*
X134901962Y-77701000D01*
X134762772Y-77741869D01*
X134762763Y-77741873D01*
X134640726Y-77820301D01*
X134545725Y-77929938D01*
X134545722Y-77929943D01*
X134485458Y-78061902D01*
X134485457Y-78061905D01*
X134464812Y-78205500D01*
X129086889Y-78205500D01*
X129090042Y-78198596D01*
X129110688Y-78055000D01*
X129090042Y-77911404D01*
X129029777Y-77779442D01*
X129024094Y-77772883D01*
X128934773Y-77669801D01*
X128812736Y-77591373D01*
X128812727Y-77591369D01*
X128673538Y-77550500D01*
X128673536Y-77550500D01*
X128528464Y-77550500D01*
X128528462Y-77550500D01*
X128389272Y-77591369D01*
X128389263Y-77591373D01*
X128267226Y-77669801D01*
X128172225Y-77779438D01*
X128172222Y-77779443D01*
X128111958Y-77911402D01*
X128111957Y-77911405D01*
X128091312Y-78055000D01*
X125349000Y-78055000D01*
X125349000Y-76073000D01*
X133221312Y-76073000D01*
X133241957Y-76216594D01*
X133241958Y-76216597D01*
X133302222Y-76348556D01*
X133302225Y-76348561D01*
X133397226Y-76458198D01*
X133519263Y-76536626D01*
X133519268Y-76536629D01*
X133658461Y-76577499D01*
X133658463Y-76577500D01*
X133658464Y-76577500D01*
X133803537Y-76577500D01*
X133803537Y-76577499D01*
X133942732Y-76536629D01*
X134005614Y-76496217D01*
X134064773Y-76458198D01*
X134064775Y-76458196D01*
X134159777Y-76348558D01*
X134220042Y-76216596D01*
X134240688Y-76073000D01*
X134220042Y-75929404D01*
X134159777Y-75797442D01*
X134142177Y-75777130D01*
X144716000Y-75777130D01*
X144716000Y-79416863D01*
X144716001Y-79416871D01*
X144737670Y-79497743D01*
X144737671Y-79497746D01*
X144779536Y-79570256D01*
X144779541Y-79570262D01*
X145473737Y-80264458D01*
X145473743Y-80264463D01*
X145546253Y-80306328D01*
X145546256Y-80306329D01*
X145627135Y-80328000D01*
X145981884Y-80328000D01*
X146005800Y-80332756D01*
X146352257Y-80476257D01*
X146358843Y-80477573D01*
X146364166Y-80478883D01*
X146457684Y-80506343D01*
X146485463Y-80514500D01*
X146485464Y-80514500D01*
X146630537Y-80514500D01*
X146630537Y-80514499D01*
X146769732Y-80473629D01*
X146827485Y-80436513D01*
X146891773Y-80395198D01*
X146895844Y-80390500D01*
X146986777Y-80285558D01*
X147047042Y-80153596D01*
X147067688Y-80010000D01*
X147050635Y-79891394D01*
X147062465Y-79845045D01*
X147103604Y-79820636D01*
X147112499Y-79820000D01*
X147124884Y-79820000D01*
X147148800Y-79824756D01*
X147495257Y-79968257D01*
X147501843Y-79969573D01*
X147507166Y-79970883D01*
X147594400Y-79996498D01*
X147628463Y-80006500D01*
X147628464Y-80006500D01*
X147773537Y-80006500D01*
X147773537Y-80006499D01*
X147912732Y-79965629D01*
X147989036Y-79916591D01*
X148034773Y-79887198D01*
X148086122Y-79827938D01*
X148129777Y-79777558D01*
X148190042Y-79645596D01*
X148210688Y-79502000D01*
X148190042Y-79358404D01*
X148129777Y-79226442D01*
X148129774Y-79226438D01*
X148034773Y-79116801D01*
X147912736Y-79038373D01*
X147912727Y-79038369D01*
X147773538Y-78997500D01*
X147773536Y-78997500D01*
X147628464Y-78997500D01*
X147507117Y-79033128D01*
X147501714Y-79034456D01*
X147495267Y-79035739D01*
X147495262Y-79035740D01*
X147495260Y-79035741D01*
X147495255Y-79035742D01*
X147495255Y-79035743D01*
X147148794Y-79179243D01*
X147124878Y-79184000D01*
X147112499Y-79184000D01*
X147068305Y-79165694D01*
X147049999Y-79121500D01*
X147050635Y-79112605D01*
X147051814Y-79104404D01*
X147067688Y-78994000D01*
X147047042Y-78850404D01*
X146986777Y-78718442D01*
X146981526Y-78712382D01*
X146891773Y-78608801D01*
X146769736Y-78530373D01*
X146769727Y-78530369D01*
X146630538Y-78489500D01*
X146630536Y-78489500D01*
X146485464Y-78489500D01*
X146364117Y-78525128D01*
X146358714Y-78526456D01*
X146352267Y-78527739D01*
X146352262Y-78527740D01*
X146352260Y-78527741D01*
X146352255Y-78527742D01*
X146352255Y-78527743D01*
X146200416Y-78590633D01*
X146152581Y-78590632D01*
X146118757Y-78556806D01*
X146114000Y-78532890D01*
X146114000Y-77599437D01*
X146132306Y-77555243D01*
X146176500Y-77536937D01*
X146210290Y-77546859D01*
X146219268Y-77552629D01*
X146351220Y-77591373D01*
X146358461Y-77593499D01*
X146358463Y-77593500D01*
X146358464Y-77593500D01*
X146503537Y-77593500D01*
X146503537Y-77593499D01*
X146642732Y-77552629D01*
X146688535Y-77523192D01*
X146764773Y-77474198D01*
X146767712Y-77470806D01*
X146859777Y-77364558D01*
X146868212Y-77346086D01*
X146903220Y-77313492D01*
X146951025Y-77315198D01*
X146972298Y-77331123D01*
X146986227Y-77347198D01*
X147058121Y-77393401D01*
X147108268Y-77425629D01*
X147117364Y-77428299D01*
X147134480Y-77436301D01*
X147135787Y-77437175D01*
X147482240Y-77580686D01*
X147502513Y-77594233D01*
X150172737Y-80264458D01*
X150172743Y-80264463D01*
X150245253Y-80306328D01*
X150245256Y-80306329D01*
X150326135Y-80328000D01*
X150326136Y-80328000D01*
X154388764Y-80328000D01*
X154388765Y-80328000D01*
X154502567Y-80302026D01*
X154607737Y-80251379D01*
X154610928Y-80248833D01*
X154656893Y-80235587D01*
X154698761Y-80258723D01*
X154712400Y-80297695D01*
X154712400Y-80828366D01*
X154738373Y-80942166D01*
X154776725Y-81021804D01*
X154789021Y-81047337D01*
X154861801Y-81138599D01*
X154953063Y-81211379D01*
X155058233Y-81262026D01*
X155172035Y-81288000D01*
X155172036Y-81288000D01*
X155388764Y-81288000D01*
X155388765Y-81288000D01*
X155502567Y-81262026D01*
X155607737Y-81211379D01*
X155698999Y-81138599D01*
X155771779Y-81047337D01*
X155822426Y-80942167D01*
X155848400Y-80828365D01*
X155848400Y-80770000D01*
X155848400Y-80719634D01*
X155848400Y-80297695D01*
X155866706Y-80253501D01*
X155910900Y-80235195D01*
X155949871Y-80248833D01*
X155953063Y-80251379D01*
X156058233Y-80302026D01*
X156172035Y-80328000D01*
X156188535Y-80328000D01*
X156288535Y-80328000D01*
X156567836Y-80328000D01*
X160879392Y-80328000D01*
X160923586Y-80346306D01*
X160941892Y-80390500D01*
X160923586Y-80434694D01*
X159525586Y-81832694D01*
X159481392Y-81851000D01*
X158915677Y-81851000D01*
X158871483Y-81832694D01*
X158853177Y-81788500D01*
X158868443Y-81747571D01*
X158904408Y-81706065D01*
X158924777Y-81682558D01*
X158985042Y-81550596D01*
X158985041Y-81550596D01*
X158986899Y-81546530D01*
X158988797Y-81547396D01*
X159014375Y-81515646D01*
X159061935Y-81510525D01*
X159070232Y-81513618D01*
X159070266Y-81513628D01*
X159070268Y-81513629D01*
X159202169Y-81552358D01*
X159209461Y-81554499D01*
X159209463Y-81554500D01*
X159209464Y-81554500D01*
X159354537Y-81554500D01*
X159354537Y-81554499D01*
X159493732Y-81513629D01*
X159566885Y-81466616D01*
X159615773Y-81435198D01*
X159621527Y-81428558D01*
X159710777Y-81325558D01*
X159771042Y-81193596D01*
X159791688Y-81050000D01*
X159771042Y-80906404D01*
X159710777Y-80774442D01*
X159706928Y-80770000D01*
X159615773Y-80664801D01*
X159493736Y-80586373D01*
X159493727Y-80586369D01*
X159354538Y-80545500D01*
X159354536Y-80545500D01*
X159209464Y-80545500D01*
X159209462Y-80545500D01*
X159070272Y-80586369D01*
X159070263Y-80586373D01*
X158948226Y-80664801D01*
X158853225Y-80774438D01*
X158853222Y-80774443D01*
X158791101Y-80910470D01*
X158789211Y-80909606D01*
X158763592Y-80941371D01*
X158716028Y-80946464D01*
X158707765Y-80943380D01*
X158568538Y-80902500D01*
X158568536Y-80902500D01*
X158423464Y-80902500D01*
X158423462Y-80902500D01*
X158284272Y-80943369D01*
X158284263Y-80943373D01*
X158162226Y-81021801D01*
X158067225Y-81131438D01*
X158067222Y-81131443D01*
X158006958Y-81263402D01*
X158006957Y-81263405D01*
X157986312Y-81407000D01*
X158006957Y-81550594D01*
X158006958Y-81550597D01*
X158067222Y-81682556D01*
X158067225Y-81682561D01*
X158123557Y-81747571D01*
X158138664Y-81792958D01*
X158117252Y-81835734D01*
X158076323Y-81851000D01*
X157391677Y-81851000D01*
X157347483Y-81832694D01*
X157329177Y-81788500D01*
X157344443Y-81747571D01*
X157380408Y-81706065D01*
X157400777Y-81682558D01*
X157461042Y-81550596D01*
X157481688Y-81407000D01*
X157461042Y-81263404D01*
X157400777Y-81131442D01*
X157380897Y-81108499D01*
X157305773Y-81021801D01*
X157183736Y-80943373D01*
X157183727Y-80943369D01*
X157044538Y-80902500D01*
X157044536Y-80902500D01*
X156899464Y-80902500D01*
X156899462Y-80902500D01*
X156760272Y-80943369D01*
X156760263Y-80943373D01*
X156638226Y-81021801D01*
X156543225Y-81131438D01*
X156543222Y-81131443D01*
X156482958Y-81263402D01*
X156482957Y-81263405D01*
X156462312Y-81407000D01*
X156482957Y-81550594D01*
X156482958Y-81550597D01*
X156543222Y-81682556D01*
X156543225Y-81682561D01*
X156638226Y-81792198D01*
X156731780Y-81852322D01*
X156759062Y-81891615D01*
X156750568Y-81938690D01*
X156742184Y-81949094D01*
X155588586Y-83102694D01*
X155544392Y-83121000D01*
X153611118Y-83121000D01*
X153587201Y-83116243D01*
X153240736Y-82972739D01*
X153234150Y-82971423D01*
X153228796Y-82970104D01*
X153107538Y-82934500D01*
X153107536Y-82934500D01*
X152962464Y-82934500D01*
X152962462Y-82934500D01*
X152823272Y-82975369D01*
X152823263Y-82975373D01*
X152701226Y-83053801D01*
X152606225Y-83163438D01*
X152606222Y-83163443D01*
X152545958Y-83295402D01*
X152545957Y-83295405D01*
X152525312Y-83439000D01*
X152545957Y-83582594D01*
X152545958Y-83582597D01*
X152606222Y-83714556D01*
X152606225Y-83714561D01*
X152701226Y-83824198D01*
X152819955Y-83900500D01*
X152823268Y-83902629D01*
X152955220Y-83941373D01*
X152962461Y-83943499D01*
X152962463Y-83943500D01*
X152962464Y-83943500D01*
X153107536Y-83943500D01*
X153228892Y-83907866D01*
X153234300Y-83906538D01*
X153234608Y-83906476D01*
X153240742Y-83905257D01*
X153587199Y-83761756D01*
X153611116Y-83757000D01*
X155743864Y-83757000D01*
X155743865Y-83757000D01*
X155824744Y-83735329D01*
X155897257Y-83693463D01*
X157085414Y-82505306D01*
X157129608Y-82487000D01*
X158167367Y-82487000D01*
X158211561Y-82505306D01*
X158229867Y-82549500D01*
X158211562Y-82593693D01*
X158183010Y-82622245D01*
X158183008Y-82622248D01*
X158118502Y-82724916D01*
X158118498Y-82724923D01*
X158078460Y-82839374D01*
X158078458Y-82839382D01*
X158064897Y-82959879D01*
X158078493Y-83080371D01*
X158078494Y-83080376D01*
X158118566Y-83194816D01*
X158118567Y-83194818D01*
X158183103Y-83297470D01*
X158183103Y-83297471D01*
X158225987Y-83340334D01*
X158225983Y-83340337D01*
X158225998Y-83340344D01*
X158395272Y-83509618D01*
X158413578Y-83553812D01*
X158395272Y-83598006D01*
X156171736Y-85821542D01*
X156145932Y-85837081D01*
X155796203Y-85944752D01*
X155784842Y-85948538D01*
X155783844Y-85948896D01*
X155773159Y-85953003D01*
X155770120Y-85954570D01*
X155769941Y-85954223D01*
X155757649Y-85959941D01*
X155744270Y-85963870D01*
X155744262Y-85963873D01*
X155622226Y-86042301D01*
X155527225Y-86151938D01*
X155527222Y-86151943D01*
X155466958Y-86283902D01*
X155466957Y-86283905D01*
X155446312Y-86427500D01*
X155466957Y-86571094D01*
X155466958Y-86571097D01*
X155527222Y-86703056D01*
X155527225Y-86703061D01*
X155622226Y-86812698D01*
X155744263Y-86891126D01*
X155744268Y-86891129D01*
X155883461Y-86931999D01*
X155883463Y-86932000D01*
X156033006Y-86932000D01*
X156033006Y-86933596D01*
X156073744Y-86943994D01*
X156098153Y-86985133D01*
X156101957Y-87011594D01*
X156101958Y-87011597D01*
X156162222Y-87143556D01*
X156162225Y-87143561D01*
X156257226Y-87253198D01*
X156358940Y-87318565D01*
X156379268Y-87331629D01*
X156473866Y-87359405D01*
X156518461Y-87372499D01*
X156518463Y-87372500D01*
X156661652Y-87372500D01*
X156705846Y-87390806D01*
X156723516Y-87426105D01*
X156736957Y-87519594D01*
X156736958Y-87519597D01*
X156797222Y-87651556D01*
X156797225Y-87651561D01*
X156892226Y-87761198D01*
X157014263Y-87839626D01*
X157014268Y-87839629D01*
X157153461Y-87880499D01*
X157153463Y-87880500D01*
X157153464Y-87880500D01*
X157298537Y-87880500D01*
X157298537Y-87880499D01*
X157437732Y-87839629D01*
X157483535Y-87810192D01*
X157559773Y-87761198D01*
X157559775Y-87761196D01*
X157654777Y-87651558D01*
X157684295Y-87586920D01*
X157689180Y-87578162D01*
X157701174Y-87560213D01*
X157701175Y-87560212D01*
X157801272Y-87318564D01*
X177948000Y-87318564D01*
X177948000Y-88516435D01*
X177986602Y-88710500D01*
X177986602Y-88710501D01*
X178062324Y-88893309D01*
X178062325Y-88893311D01*
X178166058Y-89048558D01*
X178172254Y-89057831D01*
X178312169Y-89197746D01*
X178476691Y-89307676D01*
X178659498Y-89383397D01*
X178853565Y-89422000D01*
X179051435Y-89422000D01*
X179245502Y-89383397D01*
X179428309Y-89307676D01*
X179592831Y-89197746D01*
X179732746Y-89057831D01*
X179842676Y-88893309D01*
X179918397Y-88710502D01*
X179957000Y-88516435D01*
X179957000Y-87318565D01*
X179918397Y-87124498D01*
X179842676Y-86941691D01*
X179732746Y-86777169D01*
X179592831Y-86637254D01*
X179565313Y-86618867D01*
X179428311Y-86527325D01*
X179428309Y-86527324D01*
X179245500Y-86451602D01*
X179051435Y-86413000D01*
X178853565Y-86413000D01*
X178659499Y-86451602D01*
X178659498Y-86451602D01*
X178476690Y-86527324D01*
X178476688Y-86527325D01*
X178312169Y-86637253D01*
X178172253Y-86777169D01*
X178062325Y-86941688D01*
X178062324Y-86941690D01*
X177986602Y-87124498D01*
X177986602Y-87124499D01*
X177948000Y-87318564D01*
X157801272Y-87318564D01*
X157844686Y-87213758D01*
X157858230Y-87193488D01*
X159834719Y-85217000D01*
X168781312Y-85217000D01*
X168801957Y-85360594D01*
X168801958Y-85360597D01*
X168862222Y-85492556D01*
X168862225Y-85492561D01*
X168918123Y-85557071D01*
X168933230Y-85602459D01*
X168918123Y-85638929D01*
X168862225Y-85703438D01*
X168862222Y-85703443D01*
X168801958Y-85835402D01*
X168801957Y-85835405D01*
X168781312Y-85979000D01*
X168801957Y-86122594D01*
X168801958Y-86122597D01*
X168862222Y-86254556D01*
X168862225Y-86254561D01*
X168957226Y-86364198D01*
X169075955Y-86440500D01*
X169079268Y-86442629D01*
X169211220Y-86481373D01*
X169218461Y-86483499D01*
X169218463Y-86483500D01*
X169218464Y-86483500D01*
X169363537Y-86483500D01*
X169363537Y-86483499D01*
X169502732Y-86442629D01*
X169548835Y-86413000D01*
X169624773Y-86364198D01*
X169624775Y-86364196D01*
X169688266Y-86290922D01*
X169731041Y-86269511D01*
X169776429Y-86284618D01*
X169782730Y-86290919D01*
X169786226Y-86294953D01*
X169846226Y-86364198D01*
X169964955Y-86440500D01*
X169968268Y-86442629D01*
X170100220Y-86481373D01*
X170107461Y-86483499D01*
X170107463Y-86483500D01*
X170107464Y-86483500D01*
X170252537Y-86483500D01*
X170252537Y-86483499D01*
X170391732Y-86442629D01*
X170437835Y-86413000D01*
X170513773Y-86364198D01*
X170513775Y-86364196D01*
X170577266Y-86290922D01*
X170620041Y-86269511D01*
X170665429Y-86284618D01*
X170671730Y-86290919D01*
X170675226Y-86294953D01*
X170735226Y-86364198D01*
X170853955Y-86440500D01*
X170857268Y-86442629D01*
X170989220Y-86481373D01*
X170996461Y-86483499D01*
X170996463Y-86483500D01*
X170996464Y-86483500D01*
X171141537Y-86483500D01*
X171141537Y-86483499D01*
X171280732Y-86442629D01*
X171326835Y-86413000D01*
X171402773Y-86364198D01*
X171402775Y-86364196D01*
X171497777Y-86254558D01*
X171558042Y-86122596D01*
X171578688Y-85979000D01*
X171558042Y-85835404D01*
X171497777Y-85703442D01*
X171441874Y-85638927D01*
X171426768Y-85593542D01*
X171441874Y-85557072D01*
X171497777Y-85492558D01*
X171558042Y-85360596D01*
X171578688Y-85217000D01*
X171558042Y-85073404D01*
X171497777Y-84941442D01*
X171497774Y-84941438D01*
X171402773Y-84831801D01*
X171280736Y-84753373D01*
X171280727Y-84753369D01*
X171141538Y-84712500D01*
X171141536Y-84712500D01*
X170996464Y-84712500D01*
X170996462Y-84712500D01*
X170857272Y-84753369D01*
X170857263Y-84753373D01*
X170735226Y-84831801D01*
X170671734Y-84905075D01*
X170628958Y-84926487D01*
X170583571Y-84911380D01*
X170577266Y-84905075D01*
X170513773Y-84831801D01*
X170391736Y-84753373D01*
X170391727Y-84753369D01*
X170252538Y-84712500D01*
X170252536Y-84712500D01*
X170107464Y-84712500D01*
X170107462Y-84712500D01*
X169968272Y-84753369D01*
X169968263Y-84753373D01*
X169846226Y-84831801D01*
X169782734Y-84905075D01*
X169739958Y-84926487D01*
X169694571Y-84911380D01*
X169688266Y-84905075D01*
X169624773Y-84831801D01*
X169502736Y-84753373D01*
X169502727Y-84753369D01*
X169363538Y-84712500D01*
X169363536Y-84712500D01*
X169218464Y-84712500D01*
X169218462Y-84712500D01*
X169079272Y-84753369D01*
X169079263Y-84753373D01*
X168957226Y-84831801D01*
X168862225Y-84941438D01*
X168862222Y-84941443D01*
X168801958Y-85073402D01*
X168801957Y-85073405D01*
X168781312Y-85217000D01*
X159834719Y-85217000D01*
X164070414Y-80981306D01*
X164114608Y-80963000D01*
X169353812Y-80963000D01*
X169398006Y-80981306D01*
X169414741Y-81021709D01*
X169415676Y-81021575D01*
X169416202Y-81025234D01*
X169416312Y-81025500D01*
X169416312Y-81025998D01*
X169416312Y-81026000D01*
X169422248Y-81067290D01*
X169436957Y-81169594D01*
X169436958Y-81169597D01*
X169497222Y-81301556D01*
X169497225Y-81301561D01*
X169592226Y-81411198D01*
X169678459Y-81466616D01*
X169714268Y-81489629D01*
X169849180Y-81529242D01*
X169853461Y-81530499D01*
X169853463Y-81530500D01*
X169853464Y-81530500D01*
X169998537Y-81530500D01*
X169998537Y-81530499D01*
X170137732Y-81489629D01*
X170259775Y-81411196D01*
X170259778Y-81411192D01*
X170263154Y-81408268D01*
X170263905Y-81409135D01*
X170302537Y-81389795D01*
X170347926Y-81404898D01*
X170354216Y-81411188D01*
X170354225Y-81411196D01*
X170406046Y-81444500D01*
X170476268Y-81489629D01*
X170611180Y-81529242D01*
X170615461Y-81530499D01*
X170615463Y-81530500D01*
X170615464Y-81530500D01*
X170760537Y-81530500D01*
X170760537Y-81530499D01*
X170899732Y-81489629D01*
X170945535Y-81460192D01*
X171021773Y-81411198D01*
X171044387Y-81385100D01*
X171116777Y-81301558D01*
X171177042Y-81169596D01*
X171197688Y-81026000D01*
X171177042Y-80882404D01*
X171116777Y-80750442D01*
X171114311Y-80747596D01*
X171021773Y-80640801D01*
X170899736Y-80562373D01*
X170899727Y-80562369D01*
X170760538Y-80521500D01*
X170760536Y-80521500D01*
X170615464Y-80521500D01*
X170615462Y-80521500D01*
X170476272Y-80562369D01*
X170476263Y-80562373D01*
X170354225Y-80640802D01*
X170350850Y-80643728D01*
X170350101Y-80642863D01*
X170311454Y-80662205D01*
X170266067Y-80647095D01*
X170259774Y-80640802D01*
X170137736Y-80562373D01*
X170137733Y-80562371D01*
X170137732Y-80562371D01*
X170137729Y-80562370D01*
X170093951Y-80549515D01*
X170056705Y-80519499D01*
X170051592Y-80471938D01*
X170067364Y-80445354D01*
X170376583Y-80136135D01*
X170420776Y-80117830D01*
X170425831Y-80118035D01*
X170612867Y-80133246D01*
X170616073Y-80133606D01*
X170618521Y-80133706D01*
X170654353Y-80136620D01*
X170664619Y-80137251D01*
X170665534Y-80137289D01*
X170675581Y-80137511D01*
X170690090Y-80134667D01*
X170702113Y-80133500D01*
X170760537Y-80133500D01*
X170760537Y-80133499D01*
X170899732Y-80092629D01*
X170945535Y-80063192D01*
X171021773Y-80014198D01*
X171025411Y-80010000D01*
X171116777Y-79904558D01*
X171177042Y-79772596D01*
X171197688Y-79629000D01*
X171177042Y-79485404D01*
X171116777Y-79353442D01*
X171050808Y-79277310D01*
X171035702Y-79231924D01*
X171057114Y-79189148D01*
X171064253Y-79183804D01*
X171136773Y-79137198D01*
X171136775Y-79137196D01*
X171231777Y-79027558D01*
X171292042Y-78895596D01*
X171312688Y-78752000D01*
X171292042Y-78608404D01*
X171231777Y-78476442D01*
X171231775Y-78476439D01*
X171231774Y-78476438D01*
X171136773Y-78366801D01*
X171014736Y-78288373D01*
X171014727Y-78288369D01*
X170875538Y-78247500D01*
X170875536Y-78247500D01*
X170730464Y-78247500D01*
X170730462Y-78247500D01*
X170591272Y-78288369D01*
X170591263Y-78288373D01*
X170469226Y-78366801D01*
X170374225Y-78476439D01*
X170374220Y-78476446D01*
X170362590Y-78501911D01*
X170327578Y-78534505D01*
X170279773Y-78532796D01*
X170248887Y-78501908D01*
X170231777Y-78464442D01*
X170231774Y-78464438D01*
X170136773Y-78354801D01*
X170014736Y-78276373D01*
X170014727Y-78276369D01*
X169875538Y-78235500D01*
X169875536Y-78235500D01*
X169730464Y-78235500D01*
X169609117Y-78271128D01*
X169603714Y-78272456D01*
X169597267Y-78273739D01*
X169597262Y-78273740D01*
X169597260Y-78273741D01*
X169597255Y-78273742D01*
X169597255Y-78273743D01*
X169250794Y-78417243D01*
X169226878Y-78422000D01*
X168690339Y-78422000D01*
X168646145Y-78403694D01*
X168627839Y-78359500D01*
X168643105Y-78318571D01*
X168667375Y-78290561D01*
X168671277Y-78286058D01*
X168695964Y-78232000D01*
X171702312Y-78232000D01*
X171722957Y-78375594D01*
X171722958Y-78375597D01*
X171783222Y-78507556D01*
X171783225Y-78507561D01*
X171878226Y-78617198D01*
X171995035Y-78692266D01*
X172000268Y-78695629D01*
X172137094Y-78735804D01*
X172139461Y-78736499D01*
X172139463Y-78736500D01*
X172139464Y-78736500D01*
X172284537Y-78736500D01*
X172284537Y-78736499D01*
X172423732Y-78695629D01*
X172486438Y-78655330D01*
X172545773Y-78617198D01*
X172545775Y-78617196D01*
X172640777Y-78507558D01*
X172701042Y-78375596D01*
X172721688Y-78232000D01*
X172701042Y-78088404D01*
X172640777Y-77956442D01*
X172640774Y-77956438D01*
X172545773Y-77846801D01*
X172423736Y-77768373D01*
X172423727Y-77768369D01*
X172284538Y-77727500D01*
X172284536Y-77727500D01*
X172139464Y-77727500D01*
X172139462Y-77727500D01*
X172000272Y-77768369D01*
X172000263Y-77768373D01*
X171878226Y-77846801D01*
X171783225Y-77956438D01*
X171783222Y-77956443D01*
X171722958Y-78088402D01*
X171722957Y-78088405D01*
X171702312Y-78232000D01*
X168695964Y-78232000D01*
X168731542Y-78154096D01*
X168752188Y-78010500D01*
X168731542Y-77866904D01*
X168671277Y-77734942D01*
X168671274Y-77734938D01*
X168576273Y-77625301D01*
X168454236Y-77546873D01*
X168454233Y-77546872D01*
X168454232Y-77546871D01*
X168448850Y-77545291D01*
X168434291Y-77538315D01*
X168434131Y-77538602D01*
X168431456Y-77537107D01*
X168311965Y-77484976D01*
X168267833Y-77465722D01*
X168267832Y-77465722D01*
X168261921Y-77463143D01*
X168261921Y-77463142D01*
X168261916Y-77463141D01*
X168088987Y-77387695D01*
X168069786Y-77374604D01*
X167584439Y-76889257D01*
X167566133Y-76845063D01*
X167584439Y-76800869D01*
X167594843Y-76792484D01*
X167597727Y-76790630D01*
X167597732Y-76790629D01*
X167719775Y-76712196D01*
X167814777Y-76602558D01*
X167875042Y-76470596D01*
X167895688Y-76327000D01*
X167875042Y-76183404D01*
X167814777Y-76051442D01*
X167796778Y-76030670D01*
X167719773Y-75941801D01*
X167597736Y-75863373D01*
X167597727Y-75863369D01*
X167458538Y-75822500D01*
X167458536Y-75822500D01*
X167349235Y-75822500D01*
X167305041Y-75804194D01*
X167286735Y-75760000D01*
X167302000Y-75719071D01*
X167302252Y-75718779D01*
X167306777Y-75713558D01*
X167367042Y-75581596D01*
X167387688Y-75438000D01*
X167367042Y-75294404D01*
X167306777Y-75162442D01*
X167306775Y-75162439D01*
X167306774Y-75162438D01*
X167211773Y-75052801D01*
X167089736Y-74974373D01*
X167089727Y-74974369D01*
X166950538Y-74933500D01*
X166950536Y-74933500D01*
X166805464Y-74933500D01*
X166805462Y-74933500D01*
X166666272Y-74974369D01*
X166666263Y-74974373D01*
X166544226Y-75052801D01*
X166449225Y-75162439D01*
X166449219Y-75162447D01*
X166445820Y-75169891D01*
X166410807Y-75202484D01*
X166371362Y-75203891D01*
X166315538Y-75187500D01*
X166315536Y-75187500D01*
X166170464Y-75187500D01*
X166170462Y-75187500D01*
X166031272Y-75228369D01*
X166031263Y-75228373D01*
X165909226Y-75306801D01*
X165814225Y-75416438D01*
X165814222Y-75416443D01*
X165753958Y-75548402D01*
X165753957Y-75548405D01*
X165733312Y-75692001D01*
X165733312Y-75692002D01*
X165734079Y-75697339D01*
X165722247Y-75743688D01*
X165681107Y-75768095D01*
X165634758Y-75756263D01*
X165628021Y-75750425D01*
X165569137Y-75691541D01*
X165569131Y-75691536D01*
X165496621Y-75649671D01*
X165496618Y-75649670D01*
X165415746Y-75628001D01*
X165415741Y-75628000D01*
X165415740Y-75628000D01*
X164550135Y-75628000D01*
X164550134Y-75628000D01*
X164550128Y-75628001D01*
X164469260Y-75649669D01*
X164469257Y-75649670D01*
X164427319Y-75673884D01*
X164427318Y-75673883D01*
X164396742Y-75691537D01*
X163759261Y-76329018D01*
X163715067Y-76347324D01*
X163670873Y-76329018D01*
X163658215Y-76310787D01*
X163629541Y-76248000D01*
X163597775Y-76178442D01*
X163578712Y-76156442D01*
X163502771Y-76068801D01*
X163420795Y-76016119D01*
X163393513Y-75976826D01*
X163402007Y-75929751D01*
X163410388Y-75919349D01*
X163423461Y-75906277D01*
X163459150Y-75844463D01*
X163465326Y-75833766D01*
X163465327Y-75833763D01*
X163465691Y-75832406D01*
X163486998Y-75752885D01*
X163486998Y-75669155D01*
X163486998Y-75449119D01*
X163491755Y-75425202D01*
X163495383Y-75416443D01*
X163635256Y-75078742D01*
X163638191Y-75064056D01*
X163642627Y-75050345D01*
X163658040Y-75016596D01*
X163659778Y-75004508D01*
X163678686Y-74873000D01*
X164647312Y-74873000D01*
X164667957Y-75016594D01*
X164667958Y-75016597D01*
X164728222Y-75148556D01*
X164728225Y-75148561D01*
X164823226Y-75258198D01*
X164930257Y-75326982D01*
X164945268Y-75336629D01*
X164969674Y-75343795D01*
X165084461Y-75377499D01*
X165084463Y-75377500D01*
X165084464Y-75377500D01*
X165229537Y-75377500D01*
X165229537Y-75377499D01*
X165368732Y-75336629D01*
X165415145Y-75306801D01*
X165490773Y-75258198D01*
X165516617Y-75228373D01*
X165585777Y-75148558D01*
X165646042Y-75016596D01*
X165666688Y-74873000D01*
X165646042Y-74729404D01*
X165585777Y-74597442D01*
X165583540Y-74594860D01*
X165490773Y-74487801D01*
X165388384Y-74422000D01*
X171448312Y-74422000D01*
X171468957Y-74565594D01*
X171468958Y-74565597D01*
X171529222Y-74697556D01*
X171529225Y-74697561D01*
X171624226Y-74807198D01*
X171746263Y-74885626D01*
X171746268Y-74885629D01*
X171885461Y-74926499D01*
X171885463Y-74926500D01*
X171885464Y-74926500D01*
X172030537Y-74926500D01*
X172030537Y-74926499D01*
X172169732Y-74885629D01*
X172215535Y-74856192D01*
X172291773Y-74807198D01*
X172386774Y-74697561D01*
X172386777Y-74697558D01*
X172447042Y-74565596D01*
X172467688Y-74422000D01*
X172447042Y-74278404D01*
X172386777Y-74146442D01*
X172365541Y-74121934D01*
X172291773Y-74036801D01*
X172169736Y-73958373D01*
X172169727Y-73958369D01*
X172030538Y-73917500D01*
X172030536Y-73917500D01*
X171885464Y-73917500D01*
X171885462Y-73917500D01*
X171746272Y-73958369D01*
X171746263Y-73958373D01*
X171624226Y-74036801D01*
X171529225Y-74146438D01*
X171529222Y-74146443D01*
X171468958Y-74278402D01*
X171468957Y-74278405D01*
X171448312Y-74422000D01*
X165388384Y-74422000D01*
X165368736Y-74409373D01*
X165368727Y-74409369D01*
X165229538Y-74368500D01*
X165229536Y-74368500D01*
X165084464Y-74368500D01*
X165084462Y-74368500D01*
X164945272Y-74409369D01*
X164945263Y-74409373D01*
X164823226Y-74487801D01*
X164728225Y-74597438D01*
X164728222Y-74597443D01*
X164667958Y-74729402D01*
X164667957Y-74729405D01*
X164647312Y-74873000D01*
X163678686Y-74873000D01*
X163658040Y-74729404D01*
X163597775Y-74597442D01*
X163595538Y-74594860D01*
X163502771Y-74487801D01*
X163380734Y-74409373D01*
X163380725Y-74409369D01*
X163241536Y-74368500D01*
X163241534Y-74368500D01*
X163096462Y-74368500D01*
X163096460Y-74368500D01*
X162957270Y-74409369D01*
X162957261Y-74409373D01*
X162835224Y-74487801D01*
X162740223Y-74597438D01*
X162740220Y-74597443D01*
X162679956Y-74729402D01*
X162679955Y-74729405D01*
X162659310Y-74873000D01*
X162679955Y-75016596D01*
X162695395Y-75050402D01*
X162699842Y-75064172D01*
X162702740Y-75078742D01*
X162778700Y-75262136D01*
X162778699Y-75309972D01*
X162744874Y-75343796D01*
X162697038Y-75343795D01*
X162673723Y-75326982D01*
X162639773Y-75287801D01*
X162517736Y-75209373D01*
X162517727Y-75209369D01*
X162502346Y-75204853D01*
X162486834Y-75197888D01*
X162482386Y-75195108D01*
X162482383Y-75195107D01*
X162482382Y-75195106D01*
X162134984Y-75063467D01*
X162112936Y-75049216D01*
X161612262Y-74548541D01*
X161612256Y-74548536D01*
X161539746Y-74506671D01*
X161539743Y-74506670D01*
X161458871Y-74485001D01*
X161458866Y-74485000D01*
X161458865Y-74485000D01*
X161458864Y-74485000D01*
X154889500Y-74485000D01*
X154889475Y-74484998D01*
X154884452Y-74484998D01*
X154859979Y-74484998D01*
X154859967Y-74484994D01*
X154769843Y-74484996D01*
X154769838Y-74484997D01*
X154645730Y-74518254D01*
X154615845Y-74535509D01*
X154568418Y-74541752D01*
X154530468Y-74512632D01*
X154522095Y-74481382D01*
X154522095Y-74172893D01*
X154522099Y-74172880D01*
X154522099Y-74147000D01*
X154522100Y-74147000D01*
X154522099Y-74090437D01*
X154496926Y-73980148D01*
X154447842Y-73878226D01*
X154447839Y-73878222D01*
X154447838Y-73878220D01*
X154377316Y-73789789D01*
X154377310Y-73789784D01*
X154377309Y-73789782D01*
X154318180Y-73742630D01*
X154288865Y-73719253D01*
X154288864Y-73719252D01*
X154186940Y-73670169D01*
X154076649Y-73644999D01*
X154020086Y-73645000D01*
X153983496Y-73645000D01*
X153983484Y-73644999D01*
X153953978Y-73644999D01*
X153953965Y-73644994D01*
X153871526Y-73644996D01*
X153761238Y-73670171D01*
X153659322Y-73719255D01*
X153659318Y-73719257D01*
X153570881Y-73789784D01*
X153570875Y-73789791D01*
X153562957Y-73799719D01*
X153521089Y-73822855D01*
X153475124Y-73809610D01*
X153465236Y-73799722D01*
X153457309Y-73789782D01*
X153398180Y-73742630D01*
X153368865Y-73719253D01*
X153368864Y-73719252D01*
X153266940Y-73670169D01*
X153156649Y-73644999D01*
X153100086Y-73645000D01*
X153063496Y-73645000D01*
X153063484Y-73644999D01*
X153033978Y-73644999D01*
X153033965Y-73644994D01*
X152951526Y-73644996D01*
X152841238Y-73670171D01*
X152739322Y-73719255D01*
X152739318Y-73719257D01*
X152650875Y-73789789D01*
X152580347Y-73878233D01*
X152531267Y-73980151D01*
X152506095Y-74090437D01*
X152506095Y-74422500D01*
X152487789Y-74466694D01*
X152443595Y-74485000D01*
X146091865Y-74485000D01*
X146008135Y-74485000D01*
X146008134Y-74485000D01*
X146008128Y-74485001D01*
X145927256Y-74506670D01*
X145927253Y-74506671D01*
X145854743Y-74548536D01*
X145854737Y-74548541D01*
X144779541Y-75623737D01*
X144779534Y-75623746D01*
X144737672Y-75696252D01*
X144735542Y-75704203D01*
X144735541Y-75704207D01*
X144716000Y-75777130D01*
X134142177Y-75777130D01*
X134064773Y-75687801D01*
X133942736Y-75609373D01*
X133942727Y-75609369D01*
X133803538Y-75568500D01*
X133803536Y-75568500D01*
X133658464Y-75568500D01*
X133658462Y-75568500D01*
X133519272Y-75609369D01*
X133519263Y-75609373D01*
X133397226Y-75687801D01*
X133302225Y-75797438D01*
X133302222Y-75797443D01*
X133241958Y-75929402D01*
X133241957Y-75929405D01*
X133221312Y-76073000D01*
X125349000Y-76073000D01*
X125349000Y-74803000D01*
X138555312Y-74803000D01*
X138575957Y-74946594D01*
X138575958Y-74946597D01*
X138636222Y-75078556D01*
X138636225Y-75078561D01*
X138731226Y-75188198D01*
X138853263Y-75266626D01*
X138853268Y-75266629D01*
X138990094Y-75306804D01*
X138992461Y-75307499D01*
X138992463Y-75307500D01*
X138992464Y-75307500D01*
X139137537Y-75307500D01*
X139137537Y-75307499D01*
X139276732Y-75266629D01*
X139336265Y-75228369D01*
X139398773Y-75188198D01*
X139402812Y-75183537D01*
X139493777Y-75078558D01*
X139554042Y-74946596D01*
X139574688Y-74803000D01*
X139554042Y-74659404D01*
X139503622Y-74549000D01*
X140460312Y-74549000D01*
X140480957Y-74692594D01*
X140480958Y-74692597D01*
X140541222Y-74824556D01*
X140541225Y-74824561D01*
X140636226Y-74934198D01*
X140758263Y-75012626D01*
X140758268Y-75012629D01*
X140895094Y-75052804D01*
X140897461Y-75053499D01*
X140897463Y-75053500D01*
X140897464Y-75053500D01*
X141042537Y-75053500D01*
X141042537Y-75053499D01*
X141181732Y-75012629D01*
X141241265Y-74974369D01*
X141303773Y-74934198D01*
X141304378Y-74933500D01*
X141398777Y-74824558D01*
X141459042Y-74692596D01*
X141479688Y-74549000D01*
X141459042Y-74405404D01*
X141398777Y-74273442D01*
X141365034Y-74234500D01*
X141303773Y-74163801D01*
X141181736Y-74085373D01*
X141181727Y-74085369D01*
X141042538Y-74044500D01*
X141042536Y-74044500D01*
X140897464Y-74044500D01*
X140897462Y-74044500D01*
X140758272Y-74085369D01*
X140758263Y-74085373D01*
X140636226Y-74163801D01*
X140541225Y-74273438D01*
X140541222Y-74273443D01*
X140480958Y-74405402D01*
X140480957Y-74405405D01*
X140460312Y-74549000D01*
X139503622Y-74549000D01*
X139493777Y-74527442D01*
X139493774Y-74527438D01*
X139398773Y-74417801D01*
X139276736Y-74339373D01*
X139276727Y-74339369D01*
X139137538Y-74298500D01*
X139137536Y-74298500D01*
X138992464Y-74298500D01*
X138992462Y-74298500D01*
X138853272Y-74339369D01*
X138853263Y-74339373D01*
X138731226Y-74417801D01*
X138636225Y-74527438D01*
X138636222Y-74527443D01*
X138575958Y-74659402D01*
X138575957Y-74659405D01*
X138555312Y-74803000D01*
X125349000Y-74803000D01*
X125349000Y-74041000D01*
X143254312Y-74041000D01*
X143274957Y-74184594D01*
X143274958Y-74184597D01*
X143335222Y-74316556D01*
X143335225Y-74316561D01*
X143430226Y-74426198D01*
X143552263Y-74504626D01*
X143552268Y-74504629D01*
X143691437Y-74545492D01*
X143691461Y-74545499D01*
X143691463Y-74545500D01*
X143691464Y-74545500D01*
X143836537Y-74545500D01*
X143836537Y-74545499D01*
X143975732Y-74504629D01*
X144021535Y-74475192D01*
X144097773Y-74426198D01*
X144097775Y-74426196D01*
X144192777Y-74316558D01*
X144253042Y-74184596D01*
X144273688Y-74041000D01*
X144253042Y-73897404D01*
X144192777Y-73765442D01*
X144192774Y-73765438D01*
X144097773Y-73655801D01*
X143975736Y-73577373D01*
X143975727Y-73577369D01*
X143836538Y-73536500D01*
X143836536Y-73536500D01*
X143691464Y-73536500D01*
X143691462Y-73536500D01*
X143552272Y-73577369D01*
X143552263Y-73577373D01*
X143430226Y-73655801D01*
X143335225Y-73765438D01*
X143335222Y-73765443D01*
X143274958Y-73897402D01*
X143274957Y-73897405D01*
X143254312Y-74041000D01*
X125349000Y-74041000D01*
X125349000Y-73406000D01*
X147699312Y-73406000D01*
X147719957Y-73549594D01*
X147719958Y-73549597D01*
X147780222Y-73681556D01*
X147780225Y-73681561D01*
X147875226Y-73791198D01*
X147997263Y-73869626D01*
X147997268Y-73869629D01*
X148091866Y-73897405D01*
X148136461Y-73910499D01*
X148136463Y-73910500D01*
X148136464Y-73910500D01*
X148281537Y-73910500D01*
X148281537Y-73910499D01*
X148420732Y-73869629D01*
X148514123Y-73809610D01*
X148542773Y-73791198D01*
X148543995Y-73789788D01*
X148637777Y-73681558D01*
X148698042Y-73549596D01*
X148700428Y-73533000D01*
X160145312Y-73533000D01*
X160165957Y-73676594D01*
X160165958Y-73676597D01*
X160226222Y-73808556D01*
X160226225Y-73808561D01*
X160321226Y-73918198D01*
X160443263Y-73996626D01*
X160443268Y-73996629D01*
X160580094Y-74036804D01*
X160582461Y-74037499D01*
X160582463Y-74037500D01*
X160582464Y-74037500D01*
X160727537Y-74037500D01*
X160727537Y-74037499D01*
X160866732Y-73996629D01*
X160926265Y-73958369D01*
X160988773Y-73918198D01*
X160989378Y-73917500D01*
X161083777Y-73808558D01*
X161144042Y-73676596D01*
X161164688Y-73533000D01*
X161144042Y-73389404D01*
X161083777Y-73257442D01*
X161083774Y-73257438D01*
X160988773Y-73147801D01*
X160866736Y-73069373D01*
X160866727Y-73069369D01*
X160727538Y-73028500D01*
X160727536Y-73028500D01*
X160582464Y-73028500D01*
X160582462Y-73028500D01*
X160443272Y-73069369D01*
X160443263Y-73069373D01*
X160321226Y-73147801D01*
X160226225Y-73257438D01*
X160226222Y-73257443D01*
X160165958Y-73389402D01*
X160165957Y-73389405D01*
X160145312Y-73533000D01*
X148700428Y-73533000D01*
X148718688Y-73406000D01*
X148698042Y-73262404D01*
X148637777Y-73130442D01*
X148628729Y-73120000D01*
X148542773Y-73020801D01*
X148420736Y-72942373D01*
X148420727Y-72942369D01*
X148281538Y-72901500D01*
X148281536Y-72901500D01*
X148136464Y-72901500D01*
X148136462Y-72901500D01*
X147997272Y-72942369D01*
X147997263Y-72942373D01*
X147875226Y-73020801D01*
X147780225Y-73130438D01*
X147780222Y-73130443D01*
X147719958Y-73262402D01*
X147719957Y-73262405D01*
X147699312Y-73406000D01*
X125349000Y-73406000D01*
X125349000Y-72644000D01*
X165733312Y-72644000D01*
X165753957Y-72787594D01*
X165753958Y-72787597D01*
X165814222Y-72919556D01*
X165814225Y-72919561D01*
X165909226Y-73029198D01*
X166031263Y-73107626D01*
X166031268Y-73107629D01*
X166168094Y-73147804D01*
X166170461Y-73148499D01*
X166170463Y-73148500D01*
X166170464Y-73148500D01*
X166315537Y-73148500D01*
X166315537Y-73148499D01*
X166454732Y-73107629D01*
X166514265Y-73069369D01*
X166576773Y-73029198D01*
X166577378Y-73028500D01*
X166671777Y-72919558D01*
X166732042Y-72787596D01*
X166752688Y-72644000D01*
X166732042Y-72500404D01*
X166671777Y-72368442D01*
X166669617Y-72365949D01*
X166576773Y-72258801D01*
X166454736Y-72180373D01*
X166454727Y-72180369D01*
X166315538Y-72139500D01*
X166315536Y-72139500D01*
X166170464Y-72139500D01*
X166170462Y-72139500D01*
X166031272Y-72180369D01*
X166031263Y-72180373D01*
X165909226Y-72258801D01*
X165814225Y-72368438D01*
X165814222Y-72368443D01*
X165753958Y-72500402D01*
X165753957Y-72500405D01*
X165733312Y-72644000D01*
X125349000Y-72644000D01*
X125349000Y-72136000D01*
X148715312Y-72136000D01*
X148735957Y-72279594D01*
X148735958Y-72279597D01*
X148796222Y-72411556D01*
X148796225Y-72411561D01*
X148891226Y-72521198D01*
X149013263Y-72599626D01*
X149013268Y-72599629D01*
X149021803Y-72602135D01*
X149152461Y-72640499D01*
X149152463Y-72640500D01*
X149152464Y-72640500D01*
X149297537Y-72640500D01*
X149297537Y-72640499D01*
X149436732Y-72599629D01*
X149482535Y-72570192D01*
X149558773Y-72521198D01*
X149562411Y-72517000D01*
X149653777Y-72411558D01*
X149714042Y-72279596D01*
X149734688Y-72136000D01*
X149714042Y-71992404D01*
X149653777Y-71860442D01*
X149584461Y-71780447D01*
X149558773Y-71750801D01*
X149436736Y-71672373D01*
X149436727Y-71672369D01*
X149297538Y-71631500D01*
X149297536Y-71631500D01*
X149152464Y-71631500D01*
X149152462Y-71631500D01*
X149013272Y-71672369D01*
X149013263Y-71672373D01*
X148891226Y-71750801D01*
X148796225Y-71860438D01*
X148796222Y-71860443D01*
X148735958Y-71992402D01*
X148735957Y-71992405D01*
X148715312Y-72136000D01*
X125349000Y-72136000D01*
X125349000Y-69390000D01*
X143947540Y-69390000D01*
X143967359Y-69705023D01*
X143967360Y-69705027D01*
X144026504Y-70015071D01*
X144124042Y-70315261D01*
X144124045Y-70315268D01*
X144258438Y-70600869D01*
X144258448Y-70600887D01*
X144427564Y-70867371D01*
X144427566Y-70867373D01*
X144580716Y-71052499D01*
X144628767Y-71110582D01*
X144858860Y-71326654D01*
X145114221Y-71512184D01*
X145114224Y-71512185D01*
X145114224Y-71512186D01*
X145175175Y-71545694D01*
X145390821Y-71664247D01*
X145589880Y-71743060D01*
X145684292Y-71780441D01*
X145684311Y-71780447D01*
X145880263Y-71830758D01*
X145990021Y-71858939D01*
X145990022Y-71858939D01*
X145990025Y-71858940D01*
X146303179Y-71898500D01*
X146303180Y-71898500D01*
X146618820Y-71898500D01*
X146618821Y-71898500D01*
X146931975Y-71858940D01*
X147042551Y-71830548D01*
X147237688Y-71780447D01*
X147237694Y-71780444D01*
X147237702Y-71780443D01*
X147531179Y-71664247D01*
X147807779Y-71512184D01*
X148063140Y-71326654D01*
X148147963Y-71247000D01*
X163701312Y-71247000D01*
X163721957Y-71390594D01*
X163721958Y-71390597D01*
X163782222Y-71522556D01*
X163782225Y-71522561D01*
X163877226Y-71632198D01*
X163999263Y-71710626D01*
X163999268Y-71710629D01*
X164136094Y-71750804D01*
X164138461Y-71751499D01*
X164138463Y-71751500D01*
X164138464Y-71751500D01*
X164283537Y-71751500D01*
X164283537Y-71751499D01*
X164422732Y-71710629D01*
X164482265Y-71672369D01*
X164544773Y-71632198D01*
X164545378Y-71631500D01*
X164639777Y-71522558D01*
X164700042Y-71390596D01*
X164720688Y-71247000D01*
X164700042Y-71103404D01*
X164639777Y-70971442D01*
X164607466Y-70934153D01*
X164544773Y-70861801D01*
X164422736Y-70783373D01*
X164422727Y-70783369D01*
X164283538Y-70742500D01*
X164283536Y-70742500D01*
X164138464Y-70742500D01*
X164138462Y-70742500D01*
X163999272Y-70783369D01*
X163999263Y-70783373D01*
X163877226Y-70861801D01*
X163782225Y-70971438D01*
X163782222Y-70971443D01*
X163721958Y-71103402D01*
X163721957Y-71103405D01*
X163701312Y-71247000D01*
X148147963Y-71247000D01*
X148293233Y-71110582D01*
X148494432Y-70867375D01*
X148497968Y-70861804D01*
X148663551Y-70600887D01*
X148663553Y-70600881D01*
X148663562Y-70600869D01*
X148748202Y-70421000D01*
X167003312Y-70421000D01*
X167023957Y-70564594D01*
X167023958Y-70564597D01*
X167084222Y-70696556D01*
X167084225Y-70696561D01*
X167179226Y-70806198D01*
X167301263Y-70884626D01*
X167301268Y-70884629D01*
X167440461Y-70925499D01*
X167440463Y-70925500D01*
X167440464Y-70925500D01*
X167585537Y-70925500D01*
X167585537Y-70925499D01*
X167724732Y-70884629D01*
X167770535Y-70855192D01*
X167846773Y-70806198D01*
X167866553Y-70783371D01*
X167941777Y-70696558D01*
X168002042Y-70564596D01*
X168004428Y-70548000D01*
X171067312Y-70548000D01*
X171087957Y-70691594D01*
X171087958Y-70691597D01*
X171148222Y-70823556D01*
X171148225Y-70823561D01*
X171243226Y-70933198D01*
X171365263Y-71011626D01*
X171365268Y-71011629D01*
X171504461Y-71052499D01*
X171504463Y-71052500D01*
X171504464Y-71052500D01*
X171649537Y-71052500D01*
X171649537Y-71052499D01*
X171788732Y-71011629D01*
X171851270Y-70971438D01*
X171910773Y-70933198D01*
X171910775Y-70933196D01*
X172005777Y-70823558D01*
X172066042Y-70691596D01*
X172086688Y-70548000D01*
X172066042Y-70404404D01*
X172005777Y-70272442D01*
X171983410Y-70246629D01*
X171910773Y-70162801D01*
X171788736Y-70084373D01*
X171788727Y-70084369D01*
X171649538Y-70043500D01*
X171649536Y-70043500D01*
X171504464Y-70043500D01*
X171504462Y-70043500D01*
X171365272Y-70084369D01*
X171365263Y-70084373D01*
X171243226Y-70162801D01*
X171148225Y-70272438D01*
X171148222Y-70272443D01*
X171087958Y-70404402D01*
X171087957Y-70404405D01*
X171067312Y-70548000D01*
X168004428Y-70548000D01*
X168022688Y-70421000D01*
X168002042Y-70277404D01*
X167941777Y-70145442D01*
X167941774Y-70145438D01*
X167846773Y-70035801D01*
X167724736Y-69957373D01*
X167724727Y-69957369D01*
X167585538Y-69916500D01*
X167585536Y-69916500D01*
X167440464Y-69916500D01*
X167440462Y-69916500D01*
X167301272Y-69957369D01*
X167301263Y-69957373D01*
X167179226Y-70035801D01*
X167084225Y-70145438D01*
X167084222Y-70145443D01*
X167023958Y-70277402D01*
X167023957Y-70277405D01*
X167003312Y-70421000D01*
X148748202Y-70421000D01*
X148797956Y-70315266D01*
X148895495Y-70015072D01*
X148939765Y-69783000D01*
X153945812Y-69783000D01*
X153966457Y-69926594D01*
X153966458Y-69926597D01*
X154026722Y-70058556D01*
X154026725Y-70058561D01*
X154121726Y-70168198D01*
X154243763Y-70246626D01*
X154243768Y-70246629D01*
X154382961Y-70287499D01*
X154382963Y-70287500D01*
X154382964Y-70287500D01*
X154528037Y-70287500D01*
X154528037Y-70287499D01*
X154667232Y-70246629D01*
X154728782Y-70207073D01*
X154789273Y-70168198D01*
X154793950Y-70162801D01*
X154884277Y-70058558D01*
X154944542Y-69926596D01*
X154965188Y-69783000D01*
X154944542Y-69639404D01*
X154884277Y-69507442D01*
X154880821Y-69503453D01*
X154789273Y-69397801D01*
X154667236Y-69319373D01*
X154667227Y-69319369D01*
X154528038Y-69278500D01*
X154528036Y-69278500D01*
X154382964Y-69278500D01*
X154382962Y-69278500D01*
X154243772Y-69319369D01*
X154243763Y-69319373D01*
X154121726Y-69397801D01*
X154026725Y-69507438D01*
X154026722Y-69507443D01*
X153966458Y-69639402D01*
X153966457Y-69639405D01*
X153945812Y-69783000D01*
X148939765Y-69783000D01*
X148954641Y-69705020D01*
X148974460Y-69390000D01*
X148954641Y-69074980D01*
X148932898Y-68961000D01*
X152525312Y-68961000D01*
X152545957Y-69104594D01*
X152545958Y-69104597D01*
X152606222Y-69236556D01*
X152606225Y-69236561D01*
X152701226Y-69346198D01*
X152823263Y-69424626D01*
X152823268Y-69424629D01*
X152962461Y-69465499D01*
X152962463Y-69465500D01*
X152962464Y-69465500D01*
X153107537Y-69465500D01*
X153107537Y-69465499D01*
X153246732Y-69424629D01*
X153301135Y-69389666D01*
X153368773Y-69346198D01*
X153392019Y-69319371D01*
X153463777Y-69236558D01*
X153524042Y-69104596D01*
X153526428Y-69088000D01*
X158179312Y-69088000D01*
X158199957Y-69231594D01*
X158199958Y-69231597D01*
X158260222Y-69363556D01*
X158260225Y-69363561D01*
X158355226Y-69473198D01*
X158477263Y-69551626D01*
X158477268Y-69551629D01*
X158567306Y-69578066D01*
X158616461Y-69592499D01*
X158616463Y-69592500D01*
X158616464Y-69592500D01*
X158761537Y-69592500D01*
X158761537Y-69592499D01*
X158900732Y-69551629D01*
X158983078Y-69498708D01*
X159022773Y-69473198D01*
X159022775Y-69473196D01*
X159117777Y-69363558D01*
X159178042Y-69231596D01*
X159198688Y-69088000D01*
X160079312Y-69088000D01*
X160099957Y-69231594D01*
X160099958Y-69231597D01*
X160160222Y-69363556D01*
X160160225Y-69363561D01*
X160255226Y-69473198D01*
X160377263Y-69551626D01*
X160377268Y-69551629D01*
X160467306Y-69578066D01*
X160516461Y-69592499D01*
X160516463Y-69592500D01*
X160516464Y-69592500D01*
X160661537Y-69592500D01*
X160661537Y-69592499D01*
X160800732Y-69551629D01*
X160883078Y-69498708D01*
X160922773Y-69473198D01*
X160922775Y-69473196D01*
X161017777Y-69363558D01*
X161078042Y-69231596D01*
X161098688Y-69088000D01*
X161078042Y-68944404D01*
X161017777Y-68812442D01*
X160999960Y-68791880D01*
X160922773Y-68702801D01*
X160800736Y-68624373D01*
X160800727Y-68624369D01*
X160661538Y-68583500D01*
X160661536Y-68583500D01*
X160516464Y-68583500D01*
X160516462Y-68583500D01*
X160377272Y-68624369D01*
X160377263Y-68624373D01*
X160255226Y-68702801D01*
X160160225Y-68812438D01*
X160160222Y-68812443D01*
X160099958Y-68944402D01*
X160099957Y-68944405D01*
X160079312Y-69088000D01*
X159198688Y-69088000D01*
X159178042Y-68944404D01*
X159117777Y-68812442D01*
X159099960Y-68791880D01*
X159022773Y-68702801D01*
X158900736Y-68624373D01*
X158900727Y-68624369D01*
X158761538Y-68583500D01*
X158761536Y-68583500D01*
X158616464Y-68583500D01*
X158616462Y-68583500D01*
X158477272Y-68624369D01*
X158477263Y-68624373D01*
X158355226Y-68702801D01*
X158260225Y-68812438D01*
X158260222Y-68812443D01*
X158199958Y-68944402D01*
X158199957Y-68944405D01*
X158179312Y-69088000D01*
X153526428Y-69088000D01*
X153544688Y-68961000D01*
X153524042Y-68817404D01*
X153463777Y-68685442D01*
X153463774Y-68685438D01*
X153368773Y-68575801D01*
X153246736Y-68497373D01*
X153246727Y-68497369D01*
X153107538Y-68456500D01*
X153107536Y-68456500D01*
X152962464Y-68456500D01*
X152962462Y-68456500D01*
X152823272Y-68497369D01*
X152823263Y-68497373D01*
X152701226Y-68575801D01*
X152606225Y-68685438D01*
X152606222Y-68685443D01*
X152545958Y-68817402D01*
X152545957Y-68817405D01*
X152525312Y-68961000D01*
X148932898Y-68961000D01*
X148895495Y-68764928D01*
X148797956Y-68464734D01*
X148663562Y-68179131D01*
X148663558Y-68179125D01*
X148663551Y-68179112D01*
X148498161Y-67918500D01*
X151819312Y-67918500D01*
X151839957Y-68062094D01*
X151839958Y-68062097D01*
X151900222Y-68194056D01*
X151900225Y-68194061D01*
X151995226Y-68303698D01*
X152096383Y-68368707D01*
X152117268Y-68382129D01*
X152256461Y-68422999D01*
X152256463Y-68423000D01*
X152256464Y-68423000D01*
X152401537Y-68423000D01*
X152401537Y-68422999D01*
X152540732Y-68382129D01*
X152586535Y-68352692D01*
X152662773Y-68303698D01*
X152757774Y-68194061D01*
X152757777Y-68194058D01*
X152818042Y-68062096D01*
X152838688Y-67918500D01*
X152818042Y-67774904D01*
X152757777Y-67642942D01*
X152728536Y-67609196D01*
X152662773Y-67533301D01*
X152540736Y-67454873D01*
X152540727Y-67454869D01*
X152401538Y-67414000D01*
X152401536Y-67414000D01*
X152256464Y-67414000D01*
X152256462Y-67414000D01*
X152117272Y-67454869D01*
X152117263Y-67454873D01*
X151995226Y-67533301D01*
X151900225Y-67642938D01*
X151900222Y-67642943D01*
X151839958Y-67774902D01*
X151839957Y-67774905D01*
X151819312Y-67918500D01*
X148498161Y-67918500D01*
X148494435Y-67912628D01*
X148494433Y-67912626D01*
X148342109Y-67728499D01*
X148293233Y-67669418D01*
X148063140Y-67453346D01*
X148017800Y-67420405D01*
X147945116Y-67367597D01*
X147807779Y-67267816D01*
X147807775Y-67267813D01*
X147728079Y-67224000D01*
X153922312Y-67224000D01*
X153942957Y-67367594D01*
X153942958Y-67367597D01*
X154003222Y-67499556D01*
X154003225Y-67499561D01*
X154098226Y-67609198D01*
X154191931Y-67669418D01*
X154220268Y-67687629D01*
X154288274Y-67707597D01*
X154359461Y-67728499D01*
X154359463Y-67728500D01*
X154359464Y-67728500D01*
X154504537Y-67728500D01*
X154504537Y-67728499D01*
X154643732Y-67687629D01*
X154713272Y-67642938D01*
X154765773Y-67609198D01*
X154765775Y-67609196D01*
X154804938Y-67564000D01*
X163701312Y-67564000D01*
X163721957Y-67707594D01*
X163721958Y-67707597D01*
X163782222Y-67839556D01*
X163782225Y-67839561D01*
X163877226Y-67949198D01*
X163999263Y-68027626D01*
X163999268Y-68027629D01*
X164116647Y-68062094D01*
X164138461Y-68068499D01*
X164138463Y-68068500D01*
X164138464Y-68068500D01*
X164283537Y-68068500D01*
X164283537Y-68068499D01*
X164422732Y-68027629D01*
X164468535Y-67998192D01*
X164544773Y-67949198D01*
X164639774Y-67839561D01*
X164639777Y-67839558D01*
X164700042Y-67707596D01*
X164720688Y-67564000D01*
X164700042Y-67420404D01*
X164639777Y-67288442D01*
X164639774Y-67288438D01*
X164544773Y-67178801D01*
X164422736Y-67100373D01*
X164422727Y-67100369D01*
X164283538Y-67059500D01*
X164283536Y-67059500D01*
X164138464Y-67059500D01*
X164138462Y-67059500D01*
X163999272Y-67100369D01*
X163999263Y-67100373D01*
X163877226Y-67178801D01*
X163782225Y-67288438D01*
X163782222Y-67288443D01*
X163721958Y-67420402D01*
X163721957Y-67420405D01*
X163701312Y-67564000D01*
X154804938Y-67564000D01*
X154860777Y-67499558D01*
X154921042Y-67367596D01*
X154941688Y-67224000D01*
X154921042Y-67080404D01*
X154860777Y-66948442D01*
X154860774Y-66948438D01*
X154765773Y-66838801D01*
X154643736Y-66760373D01*
X154643727Y-66760369D01*
X154504538Y-66719500D01*
X154504536Y-66719500D01*
X154359464Y-66719500D01*
X154359462Y-66719500D01*
X154220272Y-66760369D01*
X154220263Y-66760373D01*
X154098226Y-66838801D01*
X154003225Y-66948438D01*
X154003222Y-66948443D01*
X153942958Y-67080402D01*
X153942957Y-67080405D01*
X153922312Y-67224000D01*
X147728079Y-67224000D01*
X147531179Y-67115753D01*
X147531176Y-67115752D01*
X147492328Y-67100371D01*
X147483970Y-67097061D01*
X147237707Y-66999558D01*
X147237688Y-66999552D01*
X146931977Y-66921060D01*
X146931979Y-66921060D01*
X146681451Y-66889412D01*
X146618821Y-66881500D01*
X146303179Y-66881500D01*
X146240548Y-66889412D01*
X145990021Y-66921060D01*
X145684311Y-66999552D01*
X145684292Y-66999558D01*
X145390823Y-67115752D01*
X145390820Y-67115753D01*
X145114224Y-67267813D01*
X145114224Y-67267814D01*
X144858860Y-67453345D01*
X144628767Y-67669417D01*
X144427566Y-67912626D01*
X144427564Y-67912628D01*
X144258448Y-68179112D01*
X144258438Y-68179130D01*
X144124045Y-68464731D01*
X144124042Y-68464738D01*
X144026504Y-68764928D01*
X143967360Y-69074972D01*
X143967359Y-69074976D01*
X143947540Y-69390000D01*
X125349000Y-69390000D01*
X125349000Y-61112888D01*
X125367306Y-61068694D01*
X125457694Y-60978306D01*
X125501888Y-60960000D01*
X173583112Y-60960000D01*
X173627306Y-60978306D01*
G37*
G04 #@! TD.AperFunction*
G04 #@! TD*
G04 #@! TA.AperFunction,Conductor*
G04 #@! TO.N,Net-(J501-Pin_2)*
G36*
X117363677Y-85236685D02*
G01*
X117384319Y-85253319D01*
X117438681Y-85307681D01*
X117472166Y-85369004D01*
X117475000Y-85395362D01*
X117475000Y-92277638D01*
X117455315Y-92344677D01*
X117438681Y-92365319D01*
X117384319Y-92419681D01*
X117322996Y-92453166D01*
X117296638Y-92456000D01*
X106985362Y-92456000D01*
X106918323Y-92436315D01*
X106897681Y-92419681D01*
X106843319Y-92365319D01*
X106809834Y-92303996D01*
X106807000Y-92277638D01*
X106807000Y-85395362D01*
X106826685Y-85328323D01*
X106843319Y-85307681D01*
X106897681Y-85253319D01*
X106959004Y-85219834D01*
X106985362Y-85217000D01*
X117296638Y-85217000D01*
X117363677Y-85236685D01*
G37*
G04 #@! TD.AperFunction*
G04 #@! TD*
G04 #@! TA.AperFunction,Conductor*
G04 #@! TO.N,Net-(J501-Pin_1)*
G36*
X117363677Y-72536685D02*
G01*
X117384319Y-72553319D01*
X117438681Y-72607681D01*
X117472166Y-72669004D01*
X117475000Y-72695362D01*
X117475000Y-79577638D01*
X117455315Y-79644677D01*
X117438681Y-79665319D01*
X117384319Y-79719681D01*
X117322996Y-79753166D01*
X117296638Y-79756000D01*
X106985362Y-79756000D01*
X106918323Y-79736315D01*
X106897681Y-79719681D01*
X106843319Y-79665319D01*
X106809834Y-79603996D01*
X106807000Y-79577638D01*
X106807000Y-72695362D01*
X106826685Y-72628323D01*
X106843319Y-72607681D01*
X106897681Y-72553319D01*
X106959004Y-72519834D01*
X106985362Y-72517000D01*
X117296638Y-72517000D01*
X117363677Y-72536685D01*
G37*
G04 #@! TD.AperFunction*
G04 #@! TD*
G04 #@! TA.AperFunction,Conductor*
G04 #@! TO.N,/MCU/NRST*
G36*
X169711829Y-78519782D02*
G01*
X169802109Y-78735483D01*
X169802142Y-78744437D01*
X169802109Y-78744517D01*
X169711829Y-78960217D01*
X169705473Y-78966526D01*
X169696559Y-78966509D01*
X169310223Y-78806491D01*
X169303891Y-78800160D01*
X169303000Y-78795682D01*
X169303000Y-78684317D01*
X169306427Y-78676044D01*
X169310221Y-78673508D01*
X169696561Y-78513490D01*
X169705514Y-78513490D01*
X169711829Y-78519782D01*
G37*
G04 #@! TD.AperFunction*
G04 #@! TD*
G04 #@! TA.AperFunction,Conductor*
G04 #@! TO.N,/MCU/NRST*
G36*
X153141438Y-83212489D02*
G01*
X153527777Y-83372508D01*
X153534109Y-83378839D01*
X153535000Y-83383317D01*
X153535000Y-83494682D01*
X153531573Y-83502955D01*
X153527777Y-83505491D01*
X153141440Y-83665509D01*
X153132485Y-83665509D01*
X153126170Y-83659217D01*
X153061829Y-83505491D01*
X153035889Y-83443515D01*
X153035857Y-83434563D01*
X153126171Y-83218780D01*
X153132526Y-83212473D01*
X153141438Y-83212489D01*
G37*
G04 #@! TD.AperFunction*
G04 #@! TD*
G04 #@! TA.AperFunction,Conductor*
G04 #@! TO.N,/Ethernet/LED2*
G36*
X171510180Y-72124074D02*
G01*
X171588925Y-72202819D01*
X171592352Y-72211092D01*
X171591461Y-72215570D01*
X171431430Y-72601902D01*
X171425098Y-72608233D01*
X171416184Y-72608249D01*
X171199822Y-72519563D01*
X171193468Y-72513255D01*
X171104749Y-72296813D01*
X171104782Y-72287861D01*
X171111096Y-72281569D01*
X171497429Y-72121538D01*
X171506384Y-72121538D01*
X171510180Y-72124074D01*
G37*
G04 #@! TD.AperFunction*
G04 #@! TD*
G04 #@! TA.AperFunction,Conductor*
G04 #@! TO.N,/Ethernet/LED2*
G36*
X176103210Y-80224962D02*
G01*
X176106294Y-80227175D01*
X176186126Y-80307007D01*
X176189553Y-80315280D01*
X176189122Y-80318426D01*
X175768082Y-81826406D01*
X175762557Y-81833453D01*
X175753667Y-81834529D01*
X175752347Y-81834074D01*
X174973785Y-81512562D01*
X174967447Y-81506238D01*
X174645661Y-80727012D01*
X174645670Y-80718058D01*
X174652009Y-80711733D01*
X174652704Y-80711472D01*
X176094277Y-80224364D01*
X176103210Y-80224962D01*
G37*
G04 #@! TD.AperFunction*
G04 #@! TD*
G04 #@! TA.AperFunction,Conductor*
G04 #@! TO.N,/Ethernet/RMII_RXD0*
G36*
X147609829Y-79281782D02*
G01*
X147700109Y-79497483D01*
X147700142Y-79506437D01*
X147700109Y-79506517D01*
X147609829Y-79722217D01*
X147603473Y-79728526D01*
X147594559Y-79728509D01*
X147208223Y-79568491D01*
X147201891Y-79562160D01*
X147201000Y-79557682D01*
X147201000Y-79446317D01*
X147204427Y-79438044D01*
X147208221Y-79435508D01*
X147594561Y-79275490D01*
X147603514Y-79275490D01*
X147609829Y-79281782D01*
G37*
G04 #@! TD.AperFunction*
G04 #@! TD*
G04 #@! TA.AperFunction,Conductor*
G04 #@! TO.N,/Ethernet/RMII_RXD0*
G36*
X163389215Y-74964170D02*
G01*
X163395524Y-74970526D01*
X163395507Y-74979440D01*
X163235490Y-75365777D01*
X163229159Y-75372109D01*
X163224681Y-75373000D01*
X163113315Y-75373000D01*
X163105042Y-75369573D01*
X163102506Y-75365777D01*
X162942488Y-74979440D01*
X162942488Y-74970485D01*
X162948778Y-74964171D01*
X163164482Y-74873889D01*
X163173435Y-74873857D01*
X163389215Y-74964170D01*
G37*
G04 #@! TD.AperFunction*
G04 #@! TD*
G04 #@! TA.AperFunction,Conductor*
G04 #@! TO.N,/Ethernet/RMII_RXD1*
G36*
X161996806Y-75288614D02*
G01*
X162390434Y-75437771D01*
X162396955Y-75443907D01*
X162397228Y-75452858D01*
X162397113Y-75453150D01*
X162308564Y-75669176D01*
X162302255Y-75675531D01*
X162302175Y-75675564D01*
X162085533Y-75764365D01*
X162076579Y-75764332D01*
X162070409Y-75758301D01*
X161934301Y-75452858D01*
X161903208Y-75383082D01*
X161902972Y-75374134D01*
X161905621Y-75370052D01*
X161984391Y-75291282D01*
X161992663Y-75287856D01*
X161996806Y-75288614D01*
G37*
G04 #@! TD.AperFunction*
G04 #@! TD*
G04 #@! TA.AperFunction,Conductor*
G04 #@! TO.N,/Ethernet/RMII_RXD1*
G36*
X146466829Y-79789782D02*
G01*
X146557109Y-80005483D01*
X146557142Y-80014437D01*
X146557109Y-80014517D01*
X146466829Y-80230217D01*
X146460473Y-80236526D01*
X146451559Y-80236509D01*
X146065223Y-80076491D01*
X146058891Y-80070160D01*
X146058000Y-80065682D01*
X146058000Y-79954317D01*
X146061427Y-79946044D01*
X146065221Y-79943508D01*
X146451561Y-79783490D01*
X146460514Y-79783490D01*
X146466829Y-79789782D01*
G37*
G04 #@! TD.AperFunction*
G04 #@! TD*
G04 #@! TA.AperFunction,Conductor*
G04 #@! TO.N,/Ethernet/RMII_CRS_DV*
G36*
X163077827Y-76233782D02*
G01*
X163168107Y-76449483D01*
X163168140Y-76458437D01*
X163168107Y-76458517D01*
X163077827Y-76674217D01*
X163071471Y-76680526D01*
X163062557Y-76680509D01*
X162676221Y-76520491D01*
X162669889Y-76514160D01*
X162668998Y-76509682D01*
X162668998Y-76402700D01*
X162672425Y-76394427D01*
X162680698Y-76391000D01*
X162718008Y-76391000D01*
X162718010Y-76391000D01*
X162788211Y-76361922D01*
X162822076Y-76328056D01*
X162825860Y-76325528D01*
X163062559Y-76227490D01*
X163071512Y-76227490D01*
X163077827Y-76233782D01*
G37*
G04 #@! TD.AperFunction*
G04 #@! TD*
G04 #@! TA.AperFunction,Conductor*
G04 #@! TO.N,/Ethernet/RMII_CRS_DV*
G36*
X146466829Y-78773782D02*
G01*
X146557109Y-78989483D01*
X146557142Y-78998437D01*
X146557109Y-78998517D01*
X146466829Y-79214217D01*
X146460473Y-79220526D01*
X146451559Y-79220509D01*
X146065223Y-79060491D01*
X146058891Y-79054160D01*
X146058000Y-79049682D01*
X146058000Y-78938317D01*
X146061427Y-78930044D01*
X146065221Y-78927508D01*
X146451561Y-78767490D01*
X146460514Y-78767490D01*
X146466829Y-78773782D01*
G37*
G04 #@! TD.AperFunction*
G04 #@! TD*
G04 #@! TA.AperFunction,Conductor*
G04 #@! TO.N,/Ethernet/REF_CLK*
G36*
X162952676Y-77482935D02*
G01*
X162959030Y-77489243D01*
X163047748Y-77705683D01*
X163047716Y-77714637D01*
X163041401Y-77720929D01*
X162655069Y-77880960D01*
X162646114Y-77880960D01*
X162642318Y-77878424D01*
X162563573Y-77799679D01*
X162560146Y-77791406D01*
X162561037Y-77786928D01*
X162684348Y-77489243D01*
X162721068Y-77400595D01*
X162727400Y-77394265D01*
X162736312Y-77394248D01*
X162952676Y-77482935D01*
G37*
G04 #@! TD.AperFunction*
G04 #@! TD*
G04 #@! TA.AperFunction,Conductor*
G04 #@! TO.N,/Ethernet/REF_CLK*
G36*
X148692138Y-76870782D02*
G01*
X148698430Y-76877097D01*
X148858461Y-77263429D01*
X148858461Y-77272384D01*
X148855925Y-77276180D01*
X148777180Y-77354925D01*
X148768907Y-77358352D01*
X148764429Y-77357461D01*
X148378097Y-77197430D01*
X148371766Y-77191098D01*
X148371749Y-77182186D01*
X148460436Y-76965821D01*
X148466743Y-76959468D01*
X148683186Y-76870749D01*
X148692138Y-76870782D01*
G37*
G04 #@! TD.AperFunction*
G04 #@! TD*
G04 #@! TA.AperFunction,Conductor*
G04 #@! TO.N,/Ethernet/RMII_MDIO*
G36*
X166941677Y-77320436D02*
G01*
X166948031Y-77326744D01*
X167036749Y-77543184D01*
X167036717Y-77552138D01*
X167030402Y-77558430D01*
X166644070Y-77718461D01*
X166635115Y-77718461D01*
X166631319Y-77715925D01*
X166552574Y-77637180D01*
X166549147Y-77628907D01*
X166550038Y-77624429D01*
X166673349Y-77326744D01*
X166710069Y-77238096D01*
X166716401Y-77231766D01*
X166725313Y-77231749D01*
X166941677Y-77320436D01*
G37*
G04 #@! TD.AperFunction*
G04 #@! TD*
G04 #@! TA.AperFunction,Conductor*
G04 #@! TO.N,/Ethernet/RMII_MDIO*
G36*
X147549138Y-76870782D02*
G01*
X147555430Y-76877097D01*
X147715461Y-77263429D01*
X147715461Y-77272384D01*
X147712925Y-77276180D01*
X147634180Y-77354925D01*
X147625907Y-77358352D01*
X147621429Y-77357461D01*
X147235097Y-77197430D01*
X147228766Y-77191098D01*
X147228749Y-77182186D01*
X147317436Y-76965821D01*
X147323743Y-76959468D01*
X147540186Y-76870749D01*
X147549138Y-76870782D01*
G37*
G04 #@! TD.AperFunction*
G04 #@! TD*
G04 #@! TA.AperFunction,Conductor*
G04 #@! TO.N,/Ethernet/RMII_MDC*
G36*
X150851138Y-76870782D02*
G01*
X150857430Y-76877097D01*
X151017461Y-77263429D01*
X151017461Y-77272384D01*
X151014925Y-77276180D01*
X150936180Y-77354925D01*
X150927907Y-77358352D01*
X150923429Y-77357461D01*
X150537097Y-77197430D01*
X150530766Y-77191098D01*
X150530749Y-77182186D01*
X150619436Y-76965821D01*
X150625743Y-76959468D01*
X150842186Y-76870749D01*
X150851138Y-76870782D01*
G37*
G04 #@! TD.AperFunction*
G04 #@! TD*
G04 #@! TA.AperFunction,Conductor*
G04 #@! TO.N,/Ethernet/RMII_MDC*
G36*
X167949226Y-77609842D02*
G01*
X168164064Y-77703571D01*
X168327684Y-77774955D01*
X168333896Y-77781404D01*
X168333831Y-77790116D01*
X168245064Y-78006675D01*
X168238755Y-78013031D01*
X168238675Y-78013064D01*
X168022551Y-78101653D01*
X168013597Y-78101620D01*
X168007288Y-78095264D01*
X168007210Y-78095069D01*
X167975290Y-78013031D01*
X167854884Y-77703570D01*
X167855078Y-77694619D01*
X167857512Y-77691059D01*
X167936278Y-77612293D01*
X167944550Y-77608867D01*
X167949226Y-77609842D01*
G37*
G04 #@! TD.AperFunction*
G04 #@! TD*
G04 #@! TA.AperFunction,Conductor*
G04 #@! TO.N,/Ethernet/RMII_TXEN*
G36*
X169326829Y-79154782D02*
G01*
X169417109Y-79370483D01*
X169417142Y-79379437D01*
X169417109Y-79379517D01*
X169326829Y-79595217D01*
X169320473Y-79601526D01*
X169311559Y-79601509D01*
X168925223Y-79441491D01*
X168918891Y-79435160D01*
X168918000Y-79430682D01*
X168918000Y-79319317D01*
X168921427Y-79311044D01*
X168925221Y-79308508D01*
X169311561Y-79148490D01*
X169320514Y-79148490D01*
X169326829Y-79154782D01*
G37*
G04 #@! TD.AperFunction*
G04 #@! TD*
G04 #@! TA.AperFunction,Conductor*
G04 #@! TO.N,/Ethernet/RMII_TXEN*
G36*
X156290666Y-86067628D02*
G01*
X156293466Y-86069696D01*
X156372227Y-86148457D01*
X156375654Y-86156730D01*
X156374339Y-86162119D01*
X156191896Y-86513677D01*
X156185043Y-86519442D01*
X156177074Y-86519114D01*
X155959824Y-86430064D01*
X155953468Y-86423755D01*
X155953435Y-86423675D01*
X155865186Y-86208380D01*
X155865219Y-86199426D01*
X155871575Y-86193117D01*
X155872555Y-86192765D01*
X156281750Y-86066787D01*
X156290666Y-86067628D01*
G37*
G04 #@! TD.AperFunction*
G04 #@! TD*
G04 #@! TA.AperFunction,Conductor*
G04 #@! TO.N,/Ethernet/RMII_TXD0*
G36*
X156905180Y-86475074D02*
G01*
X156983925Y-86553819D01*
X156987352Y-86562092D01*
X156986461Y-86566570D01*
X156826430Y-86952902D01*
X156820098Y-86959233D01*
X156811184Y-86959249D01*
X156594822Y-86870563D01*
X156588468Y-86864255D01*
X156499749Y-86647813D01*
X156499782Y-86638861D01*
X156506096Y-86632569D01*
X156892429Y-86472538D01*
X156901384Y-86472538D01*
X156905180Y-86475074D01*
G37*
G04 #@! TD.AperFunction*
G04 #@! TD*
G04 #@! TA.AperFunction,Conductor*
G04 #@! TO.N,/Ethernet/RMII_TXD0*
G36*
X170582725Y-78660712D02*
G01*
X170799175Y-78749435D01*
X170805531Y-78755744D01*
X170894206Y-78972079D01*
X170894174Y-78981033D01*
X170887819Y-78987342D01*
X170887753Y-78987368D01*
X170499112Y-79143955D01*
X170490158Y-79143869D01*
X170486467Y-79141376D01*
X170407712Y-79062621D01*
X170404285Y-79054348D01*
X170405211Y-79049787D01*
X170567518Y-78666971D01*
X170573902Y-78660693D01*
X170582725Y-78660712D01*
G37*
G04 #@! TD.AperFunction*
G04 #@! TD*
G04 #@! TA.AperFunction,Conductor*
G04 #@! TO.N,/Ethernet/RMII_TXD1*
G36*
X157540180Y-86983074D02*
G01*
X157618925Y-87061819D01*
X157622352Y-87070092D01*
X157621461Y-87074570D01*
X157461430Y-87460902D01*
X157455098Y-87467233D01*
X157446184Y-87467249D01*
X157229822Y-87378563D01*
X157223468Y-87372255D01*
X157134749Y-87155813D01*
X157134782Y-87146861D01*
X157141096Y-87140569D01*
X157527429Y-86980538D01*
X157536384Y-86980538D01*
X157540180Y-86983074D01*
G37*
G04 #@! TD.AperFunction*
G04 #@! TD*
G04 #@! TA.AperFunction,Conductor*
G04 #@! TO.N,/Ethernet/RMII_TXD1*
G36*
X170519529Y-79460464D02*
G01*
X170519629Y-79460562D01*
X170685233Y-79624847D01*
X170688693Y-79633105D01*
X170688693Y-79633185D01*
X170688035Y-79866345D01*
X170684585Y-79874608D01*
X170676302Y-79878012D01*
X170675387Y-79877974D01*
X170309238Y-79848197D01*
X170301913Y-79844808D01*
X170223291Y-79766186D01*
X170219864Y-79757913D01*
X170223158Y-79749775D01*
X170502985Y-79460732D01*
X170511201Y-79457172D01*
X170519529Y-79460464D01*
G37*
G04 #@! TD.AperFunction*
G04 #@! TD*
M02*
